<svg width="1190" height="370" viewBox="0 0 1190 370" fill="none" xmlns="http://www.w3.org/2000/svg">
<rect width="1190" height="370" rx="12" fill="#D9D9D9"/>
<path d="M402.256 177.24C402.256 180.099 401.595 182.701 400.272 185.048C398.949 187.352 396.987 189.187 394.384 190.552C391.824 191.917 388.709 192.6 385.04 192.6H379.408V207H365.2V161.688H385.04C390.587 161.688 394.832 163.096 397.776 165.912C400.763 168.728 402.256 172.504 402.256 177.24ZM383.44 181.4C386.384 181.4 387.856 180.013 387.856 177.24C387.856 174.467 386.384 173.08 383.44 173.08H379.408V181.4H383.44ZM420.971 196.248H434.667V207H406.763V161.688H420.971V196.248ZM468.194 200.152H453.09L450.85 207H435.938L452.514 161.688H468.898L485.41 207H470.434L468.194 200.152ZM464.738 189.464L460.642 176.856L456.546 189.464H464.738ZM487.358 184.28C487.358 179.8 488.254 175.811 490.046 172.312C491.88 168.813 494.483 166.104 497.854 164.184C501.224 162.221 505.192 161.24 509.758 161.24C513.683 161.24 517.182 161.987 520.254 163.48C523.368 164.931 525.886 167 527.806 169.688C529.768 172.376 531.07 175.512 531.71 179.096H516.734C516.051 177.603 515.07 176.451 513.79 175.64C512.552 174.787 511.123 174.36 509.502 174.36C507.112 174.36 505.214 175.256 503.806 177.048C502.44 178.84 501.758 181.251 501.758 184.28C501.758 187.309 502.44 189.72 503.806 191.512C505.214 193.304 507.112 194.2 509.502 194.2C511.123 194.2 512.552 193.795 513.79 192.984C515.07 192.131 516.051 190.957 516.734 189.464H531.71C531.07 193.048 529.768 196.184 527.806 198.872C525.886 201.56 523.368 203.651 520.254 205.144C517.182 206.595 513.683 207.32 509.758 207.32C505.192 207.32 501.224 206.36 497.854 204.44C494.483 202.477 491.88 199.747 490.046 196.248C488.254 192.749 487.358 188.76 487.358 184.28ZM551.033 173.016V178.584H565.113V189.272H551.033V195.672H567.033V207H536.825V161.688H567.033V173.016H551.033ZM614.308 161.688V207H600.1V189.336H586.596V207H572.388V161.688H586.596V178.008H600.1V161.688H614.308ZM642.78 207.448C638.513 207.448 634.588 206.445 631.004 204.44C627.463 202.435 624.647 199.661 622.556 196.12C620.465 192.579 619.42 188.589 619.42 184.152C619.42 179.715 620.465 175.725 622.556 172.184C624.647 168.643 627.463 165.891 631.004 163.928C634.588 161.923 638.513 160.92 642.78 160.92C647.047 160.92 650.951 161.923 654.492 163.928C658.033 165.891 660.828 168.643 662.876 172.184C664.967 175.725 666.012 179.715 666.012 184.152C666.012 188.589 664.967 192.579 662.876 196.12C660.828 199.661 658.012 202.435 654.428 204.44C650.887 206.445 647.004 207.448 642.78 207.448ZM642.78 194.2C645.596 194.2 647.772 193.304 649.308 191.512C650.844 189.677 651.612 187.224 651.612 184.152C651.612 181.037 650.844 178.584 649.308 176.792C647.772 174.957 645.596 174.04 642.78 174.04C639.921 174.04 637.724 174.957 636.188 176.792C634.652 178.584 633.884 181.037 633.884 184.152C633.884 187.224 634.652 189.677 636.188 191.512C637.724 193.304 639.921 194.2 642.78 194.2ZM685.346 196.248H699.042V207H671.138V161.688H685.346V196.248ZM722.393 161.688C727.129 161.688 731.267 162.648 734.809 164.568C738.393 166.488 741.145 169.155 743.065 172.568C744.985 175.981 745.945 179.864 745.945 184.216C745.945 188.525 744.985 192.408 743.065 195.864C741.145 199.32 738.393 202.051 734.809 204.056C731.267 206.019 727.129 207 722.393 207H703.513V161.688H722.393ZM721.113 194.328C724.313 194.328 726.851 193.453 728.729 191.704C730.606 189.955 731.545 187.459 731.545 184.216C731.545 180.973 730.606 178.477 728.729 176.728C726.851 174.979 724.313 174.104 721.113 174.104H717.721V194.328H721.113ZM765.283 173.016V178.584H779.363V189.272H765.283V195.672H781.283V207H751.075V161.688H781.283V173.016H765.283ZM809.422 207L800.91 190.744H800.846V207H786.638V161.688H807.758C811.427 161.688 814.563 162.349 817.166 163.672C819.768 164.952 821.71 166.723 822.99 168.984C824.312 171.203 824.974 173.72 824.974 176.536C824.974 179.565 824.12 182.253 822.414 184.6C820.75 186.947 818.339 188.632 815.182 189.656L825.038 207H809.422ZM800.846 181.272H806.478C807.843 181.272 808.867 180.973 809.55 180.376C810.232 179.736 810.574 178.755 810.574 177.432C810.574 176.237 810.211 175.299 809.486 174.616C808.803 173.933 807.8 173.592 806.478 173.592H800.846V181.272Z" fill="black"/>
</svg>