<svg width="126" height="125" viewBox="0 0 126 125" fill="none" xmlns="http://www.w3.org/2000/svg">
<path fill-rule="evenodd" clip-rule="evenodd" d="M113.698 71.5714C112.802 71.8214 111.542 71.9464 109.918 71.9464C108.266 71.9742 106.418 71.9603 104.374 71.9048C102.33 71.8492 100.286 71.8214 98.2421 71.8214C96.17 71.8492 94.294 72.002 92.6139 72.2798C90.9339 72.5298 89.5898 72.9743 88.5818 73.6132C87.5458 74.2521 86.8037 75.0715 86.3557 76.0716C85.8797 77.0438 85.6137 78.1966 85.5577 79.53C85.5017 80.8356 85.5577 82.2801 85.7257 83.8634C85.8937 85.4468 86.0757 87.1552 86.2717 88.9886C86.4957 90.822 86.6497 92.7387 86.7337 94.7387C86.8457 96.7388 86.8737 98.7666 86.8177 100.822C86.7617 102.878 86.6217 104.906 86.3977 106.906C86.1457 108.906 85.7817 110.809 85.3057 112.614C84.8577 114.392 84.2837 116.031 83.5836 117.531C82.8556 119.003 82.0156 120.253 81.0636 121.281C80.0836 122.337 79.0055 123.156 77.8295 123.74C76.6535 124.351 75.4214 124.74 74.1334 124.906C72.8454 125.073 71.5433 125.017 70.2273 124.74C68.8832 124.462 67.5672 123.976 66.2792 123.281C64.9911 122.615 63.7591 121.726 62.5831 120.614C61.407 119.531 60.301 118.253 59.265 116.781C58.2569 115.309 57.3609 113.684 56.5769 111.906C55.7929 110.1 55.1349 108.17 54.6028 106.114C54.0988 104.031 53.7488 101.836 53.5528 99.5305C53.3568 97.2527 53.3148 94.8776 53.4268 92.4053C53.5668 89.9608 53.7488 87.558 53.9728 85.1968C54.1968 82.8079 54.3368 80.6133 54.3928 78.6133C54.4488 76.5855 54.2808 74.8632 53.8888 73.4465C53.4968 72.0298 52.7548 71.0714 51.6628 70.5714C50.5427 70.0436 48.9887 70.0297 47.0006 70.5297C45.0126 71.0575 42.6885 71.9603 40.0284 73.2381C37.3964 74.4882 34.5963 75.9188 31.6282 77.5299C28.6601 79.1411 25.692 80.7245 22.7239 82.2801C19.7559 83.8357 16.9698 85.169 14.3657 86.2802C11.7616 87.3635 9.47958 88.0719 7.51952 88.4052C5.55947 88.7386 3.96342 88.7247 2.73139 88.3636C1.49935 88.0024 0.687332 87.3774 0.295321 86.4885C-0.124691 85.5996 -0.0966902 84.5301 0.379323 83.2801C0.855336 82.0301 1.79336 80.6967 3.1934 79.28C4.62144 77.8355 6.49749 76.3771 8.82156 74.9049C11.1456 73.4326 13.7077 71.9603 16.5078 70.4881C19.3079 69.0158 22.0939 67.5435 24.866 66.0713C27.6101 64.599 30.0882 63.1406 32.3002 61.6962C34.5123 60.2795 36.1643 58.8627 37.2564 57.446C38.3764 56.0293 38.7824 54.6543 38.4744 53.3209C38.1384 51.9598 37.2704 50.6403 35.8703 49.3625C34.4703 48.0847 32.7902 46.8624 30.8302 45.6957C28.8701 44.5012 26.9101 43.3762 24.95 42.3206C22.99 41.265 21.2819 40.2789 19.8259 39.3622C18.3698 38.4733 17.3758 37.6538 16.8438 36.9038C16.3118 36.1816 16.2138 35.5565 16.5498 35.0288C16.8858 34.501 17.5578 34.1121 18.5658 33.8621C19.5739 33.5843 20.8199 33.4454 22.3039 33.4454C23.788 33.4732 25.426 33.6537 27.2181 33.9871C28.9821 34.3204 30.8162 34.8204 32.7202 35.4871C34.6243 36.1816 36.5143 36.9455 38.3904 37.7788C40.2664 38.64 42.0865 39.5011 43.8505 40.3622C45.5866 41.2234 47.2106 42.0012 48.7227 42.6956C50.2067 43.3623 51.5228 43.8623 52.6708 44.1957C53.7908 44.529 54.6868 44.6124 55.3589 44.4457C56.0309 44.2512 56.5349 43.8068 56.8709 43.1123C57.1789 42.4178 57.3889 41.4734 57.5009 40.2789C57.5849 39.0566 57.6269 37.5983 57.6269 35.9038C57.5989 34.2093 57.5989 32.2648 57.6269 30.0703C57.6549 27.9036 57.7389 25.5285 57.8789 22.9451C58.0469 20.3617 58.2569 17.7505 58.509 15.1115C58.789 12.5003 59.083 10.0836 59.391 7.86133C59.727 5.61127 60.077 3.77788 60.441 2.36118C60.777 0.972249 61.099 0.19445 61.407 0.0277785C61.715 -0.138893 61.995 0.444457 62.2471 1.77783C62.5271 3.1112 62.7791 5.00014 63.0031 7.44465C63.2271 9.88916 63.4791 12.5837 63.7591 15.5282C64.0111 18.5005 64.3191 21.4173 64.6831 24.2785C65.0191 27.1674 65.4391 29.7369 65.9432 31.987C66.4472 34.2093 67.0492 35.8899 67.7492 37.0288C68.4492 38.1955 69.2613 38.8622 70.1853 39.0289C71.1093 39.1955 72.1453 39.015 73.2934 38.4872C74.4414 37.9316 75.7154 37.1538 77.1155 36.1538C78.5155 35.1538 80.0555 34.0704 81.7356 32.9037C83.3876 31.7092 85.1797 30.5286 87.1117 29.3619C89.0438 28.223 91.0459 27.1396 93.1179 26.1118C95.218 25.084 97.346 24.1673 99.5021 23.3618C101.658 22.5562 103.772 21.8895 105.844 21.3617C107.944 20.8339 109.946 20.5006 111.85 20.3617C113.783 20.195 115.561 20.2367 117.185 20.4867C118.837 20.7367 120.279 21.1673 121.511 21.7784C122.771 22.3895 123.779 23.1395 124.535 24.0284C125.291 24.9451 125.753 25.9591 125.921 27.0702C126.117 28.2091 125.949 29.4175 125.417 30.6953C124.913 31.9731 124.059 33.2926 122.855 34.6537C121.623 36.0427 120.195 37.4455 118.571 38.8622C116.947 40.3067 115.295 41.7651 113.614 43.2373C111.934 44.7096 110.422 46.1957 109.078 47.6958C107.734 49.1958 106.74 50.6959 106.096 52.1959C105.452 53.6682 105.284 55.1404 105.592 56.6127C105.872 58.0849 106.474 59.5017 107.398 60.8628C108.322 62.224 109.33 63.5018 110.422 64.6962C111.542 65.8907 112.522 66.9602 113.362 67.9047C114.203 68.8491 114.679 69.6269 114.791 70.2381C114.931 70.8492 114.567 71.2936 113.698 71.5714Z" fill="url(#paint0_linear_1136_6797)"/>
<path d="M94.644 100.2C95.188 100.438 96.518 100.4 96.52 100.4C96.522 100.4 96.234 99.5281 96.208 99.4761C95.916 98.8661 94.994 97.8561 94.242 97.9581C94.1178 97.9785 93.9993 98.0249 93.8942 98.0941C93.7891 98.1633 93.6997 98.2538 93.6318 98.3598C93.5639 98.4658 93.519 98.5848 93.5001 98.7093C93.4812 98.8337 93.4887 98.9607 93.522 99.0821C93.646 99.6181 94.18 100 94.644 100.2Z" fill="#3DAA5F"/>
<path d="M95.104 104.06C95.668 104.144 96.856 103.798 96.95 103.772C97.1458 104.454 97.3863 105.122 97.67 105.772C97.834 106.15 98.01 106.526 98.192 106.9L97.97 106.582C97.526 106.07 96.37 105.342 95.672 105.638C95.5573 105.69 95.4548 105.766 95.3712 105.86C95.2877 105.954 95.225 106.065 95.1873 106.186C95.1495 106.306 95.1376 106.433 95.1522 106.558C95.1668 106.683 95.2076 106.804 95.272 106.912C95.53 107.382 96.146 107.614 96.648 107.686C97.15 107.758 98.174 107.486 98.448 107.412C98.52 107.554 98.588 107.698 98.66 107.84C99.004 108.526 99.35 109.208 99.67 109.886C99.782 110.126 99.884 110.366 99.986 110.606C99.89 110.464 99.808 110.346 99.786 110.33C99.342 109.818 98.186 109.088 97.488 109.386C97.3735 109.438 97.2712 109.514 97.1879 109.608C97.1045 109.703 97.0419 109.814 97.0042 109.934C96.9665 110.054 96.9545 110.181 96.9689 110.306C96.9833 110.431 97.0239 110.552 97.088 110.66C97.346 111.128 97.964 111.36 98.464 111.434C98.964 111.508 99.89 111.26 100.21 111.172C100.308 111.42 100.41 111.67 100.49 111.914C100.544 112.084 100.608 112.242 100.652 112.414C100.696 112.586 100.746 112.752 100.792 112.918C100.87 113.242 100.952 113.576 101.02 113.894C101.068 114.114 101.112 114.326 101.154 114.538C101.046 114.3 100.822 113.836 100.798 113.798C100.438 113.226 99.398 112.33 98.67 112.516C98.5489 112.55 98.4365 112.61 98.3399 112.691C98.2434 112.772 98.1649 112.872 98.1097 112.985C98.0544 113.099 98.0236 113.222 98.0191 113.348C98.0147 113.474 98.0368 113.599 98.084 113.716C98.268 114.22 98.844 114.542 99.326 114.69C99.86 114.852 101.038 114.704 101.186 114.69C101.256 115.042 101.322 115.386 101.386 115.71C101.512 116.428 101.608 117.07 101.68 117.614H102.176C102.09 117.052 101.976 116.38 101.828 115.628C101.756 115.27 101.674 114.89 101.586 114.498C101.942 114.356 102.288 114.194 102.624 114.01C103.012 114.432 104.006 114.924 104.134 114.986C103.998 115.318 103.864 115.64 103.734 115.942C103.458 116.576 103.198 117.142 102.968 117.614H103.504C103.704 117.174 103.92 116.672 104.148 116.118C104.286 115.78 104.428 115.416 104.57 115.042C104.712 115.072 105.88 115.31 106.424 115.186C106.916 115.076 107.514 114.796 107.734 114.308C107.79 114.195 107.821 114.072 107.826 113.946C107.831 113.82 107.81 113.695 107.763 113.578C107.717 113.461 107.646 113.355 107.556 113.267C107.466 113.179 107.358 113.112 107.24 113.068C106.522 112.828 105.424 113.644 105.022 114.188C104.998 114.22 104.78 114.598 104.646 114.838C104.704 114.684 104.76 114.536 104.818 114.378C104.932 114.066 105.038 113.75 105.152 113.412L105.302 112.91C105.356 112.744 105.392 112.56 105.438 112.384C105.534 111.974 105.614 111.554 105.684 111.128C105.958 111.228 106.936 111.568 107.442 111.528C107.948 111.488 108.58 111.308 108.872 110.86C108.944 110.757 108.994 110.639 109.018 110.516C109.042 110.392 109.04 110.264 109.011 110.142C108.983 110.019 108.929 109.903 108.853 109.803C108.777 109.702 108.68 109.619 108.57 109.558C107.896 109.21 106.688 109.852 106.208 110.33C106.18 110.358 105.874 110.73 105.71 110.952C105.75 110.696 105.79 110.442 105.824 110.182C105.916 109.43 105.988 108.666 106.062 107.904C106.084 107.67 106.11 107.438 106.134 107.206C106.232 107.242 107.386 107.672 107.952 107.632C108.458 107.596 109.09 107.412 109.382 106.962C109.454 106.859 109.504 106.742 109.528 106.618C109.552 106.494 109.55 106.367 109.521 106.244C109.493 106.122 109.439 106.007 109.363 105.906C109.287 105.806 109.19 105.723 109.08 105.662C108.406 105.314 107.198 105.956 106.718 106.432C106.682 106.468 106.244 107.018 106.138 107.164C106.192 106.652 106.252 106.142 106.338 105.642C106.44 104.966 106.585 104.298 106.774 103.642C106.82 103.658 108.022 104.112 108.604 104.072C109.108 104.036 109.74 103.85 110.032 103.402C110.104 103.299 110.154 103.182 110.179 103.058C110.203 102.935 110.201 102.808 110.172 102.685C110.144 102.562 110.09 102.447 110.014 102.347C109.938 102.246 109.842 102.163 109.732 102.102C109.058 101.754 107.85 102.394 107.37 102.872C107.332 102.91 106.86 103.5 106.782 103.614C106.782 103.576 106.8 103.536 106.812 103.498C107.022 102.843 107.289 102.209 107.612 101.602C107.784 101.266 107.968 100.952 108.152 100.652C108.368 100.76 109.352 101.24 109.884 101.262C110.416 101.284 111.038 101.166 111.378 100.754C111.461 100.659 111.523 100.548 111.561 100.428C111.598 100.308 111.61 100.181 111.595 100.056C111.581 99.9311 111.54 99.8106 111.476 99.7023C111.411 99.5941 111.325 99.5006 111.222 99.4279C110.59 99.0079 109.32 99.5119 108.79 99.9339C108.76 99.9559 108.494 100.222 108.302 100.418C108.388 100.284 108.474 100.144 108.56 100.018C108.876 99.5399 109.196 99.1219 109.482 98.7539C109.646 98.5539 109.8 98.3539 109.944 98.1899C110.21 98.1899 111.284 98.1519 111.744 97.9319C112.204 97.7119 112.726 97.3159 112.836 96.7939C112.866 96.6716 112.87 96.5443 112.848 96.4203C112.826 96.2964 112.778 96.1785 112.707 96.0742C112.636 95.97 112.544 95.8817 112.437 95.8152C112.331 95.7486 112.211 95.7053 112.086 95.6879C111.332 95.6079 110.436 96.6399 110.162 97.2599C110.138 97.3119 109.862 98.1919 109.876 98.1919H109.892C109.748 98.3539 109.598 98.5299 109.436 98.7259C109.142 99.0879 108.812 99.4999 108.482 99.9719C108.122 100.477 107.793 101.003 107.494 101.546C107.156 102.153 106.874 102.79 106.65 103.448C106.651 103.456 106.651 103.464 106.65 103.472C106.65 103.25 106.65 102.628 106.638 102.58C106.552 101.91 105.99 100.664 105.238 100.526C105.114 100.506 104.986 100.513 104.865 100.546C104.743 100.579 104.63 100.637 104.532 100.717C104.434 100.796 104.354 100.896 104.297 101.008C104.241 101.121 104.208 101.244 104.202 101.37C104.16 101.902 104.546 102.436 104.922 102.77C105.348 103.15 106.522 103.518 106.622 103.546C106.411 104.221 106.244 104.909 106.124 105.606C106.052 106.006 105.992 106.422 105.936 106.834C105.936 106.634 105.936 106.47 105.926 106.446C105.84 105.776 105.276 104.53 104.526 104.392C104.402 104.372 104.274 104.379 104.153 104.412C104.031 104.445 103.918 104.503 103.821 104.583C103.723 104.663 103.643 104.762 103.587 104.874C103.53 104.987 103.498 105.11 103.492 105.236C103.448 105.768 103.836 106.302 104.212 106.636C104.588 106.97 105.596 107.312 105.86 107.396C105.842 107.554 105.82 107.712 105.802 107.872C105.71 108.632 105.622 109.392 105.514 110.134C105.476 110.396 105.43 110.652 105.382 110.908C105.382 110.738 105.382 110.594 105.382 110.572C105.294 109.902 104.732 108.656 103.982 108.518C103.858 108.498 103.73 108.505 103.609 108.538C103.487 108.571 103.374 108.629 103.277 108.709C103.179 108.789 103.099 108.888 103.043 109C102.986 109.113 102.954 109.236 102.948 109.362C102.904 109.894 103.29 110.428 103.668 110.762C104.046 111.096 104.954 111.404 105.268 111.506C105.214 111.768 105.158 112.03 105.094 112.28C105.044 112.45 105.01 112.618 104.952 112.786C104.894 112.954 104.844 113.12 104.79 113.284C104.676 113.598 104.562 113.922 104.442 114.224C104.362 114.434 104.28 114.634 104.2 114.836C104.24 114.576 104.31 114.064 104.31 114.022C104.303 113.426 104.143 112.842 103.844 112.326C103.846 112.259 103.842 112.192 103.832 112.126C103.816 112.001 103.774 111.881 103.709 111.773C103.643 111.666 103.556 111.573 103.452 111.501C103.349 111.43 103.231 111.381 103.108 111.357C102.984 111.334 102.857 111.337 102.734 111.366C102.002 111.566 101.534 112.846 101.502 113.522C101.502 113.562 101.526 113.998 101.548 114.272C101.51 114.112 101.476 113.958 101.436 113.794C101.36 113.47 101.274 113.148 101.182 112.794C101.132 112.63 101.082 112.462 101.03 112.294C100.978 112.126 100.912 111.954 100.854 111.782C100.708 111.382 100.542 110.982 100.366 110.596C100.65 110.528 101.654 110.274 102.056 109.964C102.458 109.654 102.882 109.152 102.878 108.618C102.882 108.492 102.859 108.367 102.811 108.25C102.763 108.133 102.691 108.028 102.6 107.942C102.508 107.855 102.4 107.788 102.281 107.746C102.162 107.704 102.036 107.688 101.91 107.698C101.156 107.78 100.51 108.982 100.366 109.644C100.366 109.686 100.312 110.172 100.292 110.444C100.184 110.208 100.078 109.972 99.962 109.738C99.626 109.06 99.264 108.382 98.904 107.706C98.794 107.506 98.688 107.292 98.58 107.084C98.682 107.062 99.88 106.784 100.332 106.436C100.732 106.13 101.158 105.626 101.154 105.09C101.158 104.964 101.134 104.839 101.086 104.723C101.038 104.606 100.966 104.501 100.875 104.415C100.784 104.328 100.675 104.262 100.556 104.22C100.438 104.178 100.311 104.162 100.186 104.172C99.432 104.254 98.786 105.454 98.642 106.118C98.63 106.168 98.568 106.868 98.56 107.046C98.322 106.59 98.09 106.132 97.88 105.672C97.5924 105.051 97.3452 104.413 97.14 103.76C97.188 103.75 98.44 103.466 98.902 103.11C99.302 102.802 99.73 102.3 99.726 101.764C99.7296 101.638 99.7065 101.513 99.6583 101.396C99.61 101.28 99.5378 101.175 99.4463 101.088C99.3547 101.001 99.2459 100.935 99.127 100.893C99.008 100.852 98.8816 100.835 98.756 100.846C98.002 100.928 97.356 102.128 97.212 102.79C97.2 102.844 97.134 103.59 97.13 103.734C97.13 103.696 97.102 103.658 97.092 103.62C96.9004 102.96 96.7679 102.284 96.696 101.6C96.654 101.224 96.634 100.862 96.624 100.51C96.862 100.48 97.952 100.334 98.404 100.062C98.856 99.7899 99.314 99.3459 99.37 98.8139C99.3875 98.6891 99.3785 98.562 99.3435 98.4409C99.3085 98.3198 99.2484 98.2075 99.1671 98.1112C99.0857 98.0149 98.985 97.9369 98.8714 97.8823C98.7578 97.8276 98.634 97.7975 98.508 97.7939C97.75 97.7939 96.968 98.9139 96.758 99.5579C96.746 99.5939 96.67 99.9579 96.62 100.232C96.62 100.072 96.62 99.9079 96.62 99.7539C96.62 99.1819 96.658 98.6559 96.694 98.1919C96.716 97.9279 96.742 97.6899 96.768 97.4679C96.988 97.3159 97.864 96.6979 98.134 96.2539C98.404 95.8099 98.6 95.1999 98.4 94.7079C98.3578 94.5892 98.291 94.4806 98.2041 94.3894C98.1171 94.2981 98.0119 94.2262 97.8953 94.1783C97.7787 94.1303 97.6534 94.1075 97.5274 94.1112C97.4014 94.115 97.2776 94.1452 97.164 94.1999C96.49 94.5479 96.314 95.9039 96.426 96.5719C96.426 96.6299 96.69 97.5159 96.7 97.5079L96.714 97.4979C96.684 97.7119 96.656 97.9419 96.628 98.1939C96.582 98.6579 96.534 99.1839 96.52 99.7599C96.4993 100.38 96.5147 101 96.566 101.618C96.6195 102.311 96.7346 102.997 96.91 103.67C96.9092 103.678 96.9092 103.686 96.91 103.694C96.79 103.506 96.438 102.994 96.408 102.956C95.964 102.446 94.808 101.716 94.11 102.012C93.9954 102.064 93.8931 102.14 93.8098 102.235C93.7264 102.33 93.6638 102.441 93.6261 102.561C93.5884 102.681 93.5764 102.808 93.5908 102.933C93.6053 103.059 93.6459 103.179 93.71 103.288C93.986 103.756 94.6 103.988 95.104 104.06Z" fill="#3DAA5F"/>
<path d="M108.104 100.5C108.116 100.5 108.346 99.614 108.354 99.556C108.448 98.886 108.234 97.536 107.554 97.206C107.439 97.1543 107.315 97.1274 107.189 97.127C107.063 97.1265 106.938 97.1526 106.823 97.2036C106.707 97.2545 106.604 97.3291 106.52 97.4226C106.435 97.516 106.371 97.6262 106.332 97.746C106.15 98.25 106.382 98.866 106.656 99.292C106.976 99.8 108.104 100.498 108.104 100.5Z" fill="#3DAA5F"/>
<path d="M22.686 100.2C23.23 100.438 24.562 100.4 24.562 100.4C24.562 100.4 24.276 99.5281 24.252 99.4761C23.96 98.8661 23.036 97.8561 22.284 97.9581C22.1598 97.9785 22.0413 98.0249 21.9362 98.0941C21.8311 98.1633 21.7416 98.2538 21.6738 98.3598C21.6059 98.4658 21.561 98.5848 21.5421 98.7093C21.5232 98.8337 21.5307 98.9607 21.564 99.0821C21.69 99.6181 22.224 100 22.686 100.2Z" fill="#3DAA5F"/>
<path d="M23.146 104.06C23.71 104.144 24.898 103.798 24.992 103.772C25.1878 104.454 25.4283 105.122 25.712 105.772C25.876 106.15 26.052 106.526 26.234 106.9C26.126 106.742 26.034 106.602 26.012 106.582C25.568 106.07 24.412 105.342 23.714 105.638C23.5995 105.69 23.4972 105.766 23.4138 105.86C23.3305 105.955 23.2679 106.066 23.2302 106.186C23.1925 106.306 23.1805 106.433 23.1949 106.558C23.2093 106.683 23.2499 106.804 23.314 106.912C23.572 107.382 24.19 107.614 24.69 107.686C25.19 107.758 26.216 107.486 26.49 107.412C26.562 107.554 26.63 107.698 26.702 107.84C27.046 108.526 27.392 109.208 27.702 109.886C27.814 110.126 27.916 110.366 28.02 110.606C27.922 110.464 27.84 110.346 27.82 110.33C27.378 109.818 26.22 109.088 25.522 109.386C25.4075 109.438 25.3052 109.514 25.2218 109.608C25.1385 109.703 25.0759 109.814 25.0382 109.934C25.0005 110.054 24.9885 110.181 25.0029 110.306C25.0173 110.431 25.0579 110.552 25.122 110.66C25.38 111.128 25.998 111.36 26.498 111.434C26.998 111.508 27.926 111.26 28.244 111.172C28.342 111.42 28.444 111.67 28.526 111.914C28.578 112.084 28.642 112.242 28.686 112.414C28.73 112.586 28.78 112.752 28.826 112.918C28.904 113.242 28.986 113.576 29.054 113.894C29.104 114.114 29.146 114.326 29.19 114.538C29.08 114.3 28.856 113.836 28.834 113.798C28.472 113.226 27.434 112.33 26.706 112.516C26.5849 112.551 26.4724 112.61 26.3759 112.691C26.2794 112.772 26.2009 112.872 26.1457 112.985C26.0904 113.099 26.0595 113.222 26.0551 113.348C26.0507 113.474 26.0728 113.599 26.12 113.716C26.302 114.22 26.878 114.542 27.362 114.69C27.894 114.852 29.072 114.704 29.22 114.69C29.29 115.042 29.356 115.386 29.42 115.71C29.546 116.428 29.642 117.07 29.714 117.614H30.212C30.124 117.052 30.012 116.38 29.862 115.628C29.792 115.27 29.71 114.89 29.62 114.498C29.9781 114.354 30.3268 114.188 30.664 114C31.052 114.422 32.046 114.914 32.174 114.976C32.04 115.308 31.904 115.63 31.774 115.932C31.5 116.566 31.238 117.132 31.008 117.604H31.546C31.746 117.164 31.962 116.662 32.188 116.108C32.328 115.77 32.468 115.406 32.61 115.032C32.754 115.062 33.92 115.3 34.464 115.176C34.956 115.066 35.554 114.786 35.776 114.298C35.8317 114.185 35.863 114.062 35.8679 113.936C35.8727 113.81 35.8511 113.684 35.8043 113.567C35.7575 113.451 35.6867 113.345 35.5964 113.257C35.506 113.169 35.3982 113.101 35.28 113.058C34.562 112.818 33.464 113.634 33.062 114.178C33.038 114.21 32.82 114.588 32.686 114.828C32.744 114.674 32.802 114.526 32.858 114.368C32.972 114.056 33.078 113.74 33.192 113.402L33.342 112.9C33.396 112.734 33.432 112.55 33.478 112.374C33.576 111.964 33.654 111.544 33.724 111.118C33.998 111.218 34.976 111.558 35.484 111.518C35.992 111.478 36.62 111.298 36.912 110.85C36.9842 110.747 37.0338 110.63 37.0578 110.506C37.0818 110.382 37.0796 110.255 37.0514 110.132C37.0231 110.01 36.9694 109.894 36.8937 109.794C36.818 109.693 36.722 109.609 36.612 109.548C35.938 109.2 34.73 109.842 34.25 110.32C34.22 110.348 33.914 110.72 33.75 110.942C33.79 110.686 33.832 110.432 33.864 110.172C33.958 109.42 34.028 108.656 34.102 107.894C34.124 107.66 34.15 107.428 34.174 107.196C34.272 107.232 35.426 107.662 35.994 107.622C36.498 107.586 37.13 107.402 37.422 106.952C37.4944 106.849 37.5442 106.732 37.5682 106.608C37.5922 106.484 37.5899 106.357 37.5614 106.235C37.5329 106.112 37.4788 105.997 37.4028 105.896C37.3267 105.796 37.2304 105.713 37.12 105.652C36.448 105.304 35.24 105.946 34.76 106.422C34.724 106.458 34.284 107.008 34.18 107.154C34.234 106.642 34.292 106.132 34.38 105.632C34.4823 104.956 34.6286 104.288 34.818 103.632C34.862 103.648 36.064 104.102 36.646 104.062C37.15 104.026 37.784 103.84 38.076 103.392C38.1484 103.289 38.1982 103.172 38.2222 103.048C38.2462 102.924 38.2439 102.797 38.2154 102.675C38.1869 102.552 38.1328 102.437 38.0568 102.336C37.9807 102.236 37.8844 102.153 37.774 102.092C37.1 101.744 35.892 102.384 35.412 102.862C35.374 102.9 34.902 103.49 34.824 103.604C34.836 103.566 34.842 103.526 34.854 103.488C35.0636 102.833 35.3313 102.199 35.654 101.592C35.826 101.256 36.01 100.942 36.196 100.642C36.41 100.75 37.396 101.23 37.926 101.252C38.456 101.274 39.082 101.156 39.42 100.744C39.5034 100.65 39.566 100.539 39.6036 100.418C39.6412 100.298 39.6531 100.171 39.6383 100.046C39.6236 99.921 39.5827 99.8004 39.5182 99.6921C39.4537 99.5839 39.3671 99.4905 39.264 99.418C38.632 98.998 37.362 99.502 36.832 99.924C36.804 99.946 36.536 100.212 36.346 100.408C36.43 100.274 36.516 100.134 36.602 100.008C36.918 99.53 37.238 99.112 37.524 98.744C37.69 98.544 37.842 98.344 37.986 98.18C38.254 98.18 39.326 98.142 39.786 97.922C40.246 97.702 40.768 97.306 40.878 96.784C40.9087 96.6616 40.9132 96.5342 40.8912 96.41C40.8693 96.2857 40.8213 96.1676 40.7505 96.0632C40.6797 95.9588 40.5877 95.8705 40.4804 95.8041C40.3731 95.7377 40.253 95.6948 40.128 95.678C39.374 95.598 38.48 96.63 38.204 97.25C38.18 97.302 37.904 98.182 37.918 98.182H37.934C37.79 98.344 37.64 98.52 37.478 98.716C37.184 99.078 36.854 99.49 36.526 99.962C36.1623 100.467 35.8284 100.992 35.526 101.536C35.19 102.144 34.9076 102.781 34.682 103.438V103.462C34.682 103.24 34.682 102.618 34.67 102.57C34.582 101.9 34.02 100.654 33.27 100.516C33.1456 100.496 33.0185 100.503 32.8969 100.536C32.7753 100.569 32.6621 100.627 32.5645 100.707C32.4669 100.787 32.3872 100.886 32.3306 100.998C32.274 101.111 32.2418 101.234 32.236 101.36C32.192 101.892 32.578 102.426 32.956 102.76C33.38 103.14 34.556 103.508 34.656 103.536C34.443 104.211 34.2759 104.899 34.156 105.596C34.084 105.996 34.024 106.412 33.968 106.824C33.968 106.624 33.968 106.46 33.968 106.436C33.882 105.766 33.318 104.52 32.568 104.382C32.4435 104.362 32.3163 104.369 32.1946 104.402C32.0729 104.435 31.9595 104.493 31.8618 104.573C31.7641 104.653 31.6842 104.752 31.6274 104.864C31.5706 104.977 31.5381 105.1 31.532 105.226C31.488 105.758 31.876 106.292 32.252 106.626C32.628 106.96 33.636 107.302 33.902 107.386C33.882 107.544 33.86 107.702 33.842 107.862C33.75 108.622 33.664 109.382 33.554 110.124C33.516 110.386 33.47 110.642 33.424 110.898C33.424 110.728 33.424 110.584 33.424 110.562C33.336 109.892 32.774 108.646 32.024 108.508C31.8996 108.488 31.7725 108.495 31.6509 108.528C31.5293 108.561 31.4161 108.619 31.3185 108.699C31.2209 108.779 31.1412 108.878 31.0846 108.99C31.028 109.103 30.9958 109.226 30.99 109.352C30.946 109.884 31.334 110.418 31.71 110.752C32.086 111.086 32.996 111.394 33.31 111.496C33.254 111.758 33.198 112.02 33.134 112.27C33.086 112.44 33.05 112.608 32.992 112.776C32.934 112.944 32.884 113.11 32.832 113.274C32.718 113.588 32.602 113.912 32.482 114.214C32.402 114.424 32.32 114.624 32.24 114.826C32.28 114.566 32.35 114.054 32.352 114.012C32.3433 113.416 32.1822 112.832 31.884 112.316C31.8861 112.249 31.8821 112.182 31.872 112.116C31.8561 111.991 31.814 111.871 31.7486 111.763C31.6832 111.656 31.5959 111.563 31.4923 111.491C31.3888 111.42 31.2713 111.371 31.1476 111.347C31.0238 111.324 30.8965 111.327 30.774 111.356C30.042 111.556 29.574 112.836 29.542 113.512C29.542 113.552 29.566 113.988 29.588 114.262C29.55 114.102 29.516 113.948 29.476 113.784C29.4 113.46 29.314 113.138 29.222 112.784C29.172 112.62 29.122 112.452 29.07 112.284C29.018 112.116 28.952 111.944 28.894 111.772C28.748 111.372 28.582 110.972 28.406 110.586C28.69 110.518 29.694 110.264 30.096 109.954C30.498 109.644 30.924 109.142 30.92 108.608C30.9232 108.482 30.8999 108.357 30.8516 108.24C30.8033 108.124 30.7311 108.019 30.6396 107.932C30.5482 107.845 30.4396 107.779 30.3208 107.737C30.202 107.695 30.0757 107.678 29.95 107.688C29.196 107.77 28.55 108.972 28.406 109.634C28.406 109.676 28.352 110.162 28.334 110.434C28.226 110.198 28.12 109.962 28.002 109.728C27.666 109.05 27.304 108.372 26.946 107.696C26.836 107.496 26.728 107.282 26.62 107.074C26.722 107.052 27.922 106.774 28.372 106.426C28.772 106.12 29.2 105.616 29.196 105.08C29.1995 104.954 29.1764 104.829 29.1282 104.712C29.08 104.596 29.0078 104.491 28.9162 104.404C28.8247 104.317 28.7159 104.251 28.597 104.209C28.478 104.168 28.3516 104.152 28.226 104.162C27.472 104.244 26.826 105.444 26.682 106.108C26.682 106.158 26.608 106.858 26.6 107.036C26.364 106.58 26.132 106.122 25.92 105.662C25.6324 105.041 25.3852 104.403 25.18 103.75C25.228 103.74 26.48 103.456 26.942 103.1C27.342 102.792 27.77 102.29 27.766 101.754C27.7695 101.628 27.7465 101.503 27.6982 101.386C27.65 101.27 27.5778 101.165 27.4862 101.078C27.3947 100.991 27.2859 100.925 27.167 100.883C27.048 100.842 26.9216 100.826 26.796 100.836C26.042 100.918 25.396 102.118 25.252 102.78C25.242 102.834 25.174 103.58 25.172 103.724C25.16 103.686 25.144 103.648 25.132 103.61C24.9417 102.953 24.8098 102.28 24.738 101.6C24.696 101.224 24.676 100.862 24.666 100.51C24.904 100.48 25.994 100.334 26.446 100.062C26.898 99.79 27.356 99.346 27.412 98.814C27.4295 98.6892 27.4205 98.5621 27.3855 98.441C27.3505 98.3199 27.2904 98.2075 27.209 98.1113C27.1277 98.015 27.0269 97.937 26.9134 97.8823C26.7998 97.8276 26.676 97.7975 26.55 97.794C25.792 97.794 25.01 98.914 24.8 99.558C24.8 99.594 24.714 99.958 24.662 100.232C24.662 100.072 24.662 99.908 24.662 99.754C24.662 99.182 24.7 98.656 24.736 98.192C24.758 97.928 24.784 97.69 24.81 97.468C25.03 97.316 25.906 96.698 26.176 96.254C26.446 95.81 26.654 95.2 26.458 94.702C26.4153 94.5827 26.3478 94.4738 26.26 94.3824C26.1722 94.2911 26.0661 94.2194 25.9486 94.1719C25.8311 94.1245 25.7049 94.1025 25.5783 94.1073C25.4517 94.1122 25.3276 94.1437 25.214 94.2C24.542 94.548 24.364 95.904 24.476 96.572C24.476 96.63 24.74 97.516 24.752 97.508L24.764 97.498C24.734 97.712 24.706 97.942 24.678 98.194C24.632 98.658 24.584 99.184 24.572 99.76C24.5496 100.38 24.5643 101 24.616 101.618C24.6695 102.311 24.7846 102.998 24.96 103.67V103.694C24.84 103.506 24.49 102.994 24.458 102.956C24.014 102.446 22.858 101.716 22.16 102.012C22.0454 102.064 21.9431 102.14 21.8597 102.235C21.7764 102.33 21.7138 102.441 21.6761 102.561C21.6384 102.681 21.6264 102.808 21.6408 102.933C21.6553 103.059 21.6959 103.179 21.76 103.288C22.028 103.756 22.646 103.988 23.146 104.06Z" fill="#3DAA5F"/>
<path d="M36.146 100.5C36.158 100.5 36.388 99.614 36.396 99.556C36.49 98.886 36.276 97.536 35.596 97.206C35.4811 97.1543 35.3566 97.1274 35.2306 97.127C35.1046 97.1265 34.9799 97.1526 34.8646 97.2036C34.7494 97.2545 34.6461 97.3291 34.5616 97.4226C34.4771 97.516 34.4132 97.6262 34.374 97.746C34.192 98.25 34.424 98.866 34.698 99.292C35.02 99.8 36.146 100.498 36.146 100.5Z" fill="#3DAA5F"/>
<path opacity="0.1" d="M42.424 41.886C42.424 43.46 39.57 46.752 39.57 46.752C39.57 46.752 36.718 43.46 36.718 41.886C36.7377 41.1424 37.0469 40.4359 37.5798 39.9169C38.1127 39.3979 38.8271 39.1075 39.571 39.1075C40.3148 39.1075 41.0293 39.3979 41.5622 39.9169C42.0951 40.4359 42.4043 41.1424 42.424 41.886ZM69.77 96.244C69.3954 96.2437 69.0244 96.3173 68.6782 96.4605C68.3321 96.6038 68.0176 96.8138 67.7527 97.0787C67.4878 97.3436 67.2778 97.6581 67.1345 98.0043C66.9913 98.3504 66.9177 98.7214 66.918 99.096C66.918 100.67 69.77 103.962 69.77 103.962C69.77 103.962 72.622 100.67 72.622 99.096C72.622 98.3396 72.3215 97.6142 71.7866 97.0793C71.2518 96.5445 70.5264 96.244 69.77 96.244ZM93.6 30.98C92.8436 30.98 92.1182 31.2805 91.5833 31.8153C91.0485 32.3502 90.748 33.0756 90.748 33.832C90.742 35.4 93.6 38.698 93.6 38.698C93.6 38.698 96.446 35.4 96.446 33.832C96.4454 33.0768 96.1456 32.3526 95.6122 31.818C95.0787 31.2834 94.3552 30.9821 93.6 30.98ZM30.176 68.562C29.8014 68.5617 29.4304 68.6353 29.0843 68.7785C28.7381 68.9218 28.4236 69.1318 28.1587 69.3967C27.8938 69.6616 27.6838 69.9761 27.5405 70.3223C27.3973 70.6684 27.3237 71.0394 27.324 71.414C27.324 72.988 30.176 76.278 30.176 76.278C30.176 76.278 33.028 72.988 33.028 71.414C33.028 70.6576 32.7275 69.9322 32.1926 69.3973C31.6578 68.8625 30.9324 68.562 30.176 68.562ZM106.008 67.562C105.254 67.5625 104.531 67.8612 103.997 68.3929C103.462 68.9247 103.16 69.6462 103.156 70.4C103.156 71.976 106.008 75.266 106.008 75.266C106.008 75.266 108.86 71.982 108.86 70.4C108.859 70.0253 108.785 69.6544 108.64 69.3086C108.496 68.9627 108.285 68.6487 108.02 68.3844C107.754 68.1201 107.439 67.9107 107.092 67.7682C106.746 67.6257 106.375 67.5529 106 67.554L106.008 67.562ZM93.6 35.04H92.4C92.3469 35.04 92.2961 35.0189 92.2586 34.9814C92.221 34.9439 92.2 34.893 92.2 34.84C92.2 34.7869 92.221 34.7361 92.2586 34.6986C92.2961 34.6611 92.3469 34.64 92.4 34.64H93.6C93.653 34.64 93.7039 34.6611 93.7414 34.6986C93.7789 34.7361 93.8 34.7869 93.8 34.84C93.8 34.893 93.7789 34.9439 93.7414 34.9814C93.7039 35.0189 93.653 35.04 93.6 35.04ZM81.346 100.102C81.346 100.049 81.3249 99.9981 81.2874 99.9606C81.2499 99.923 81.199 99.902 81.146 99.902H78.746C78.6929 99.902 78.6421 99.923 78.6045 99.9606C78.567 99.9981 78.546 100.049 78.546 100.102C78.546 100.155 78.567 100.206 78.6045 100.243C78.6421 100.281 78.6929 100.302 78.746 100.302H81.146C81.199 100.302 81.2499 100.281 81.2874 100.243C81.3249 100.206 81.346 100.155 81.346 100.102ZM76.566 100.102C76.566 100.049 76.5449 99.9981 76.5074 99.9606C76.4699 99.923 76.419 99.902 76.366 99.902H73.978C73.9249 99.902 73.8741 99.923 73.8366 99.9606C73.799 99.9981 73.778 100.049 73.778 100.102C73.778 100.155 73.799 100.206 73.8366 100.243C73.8741 100.281 73.9249 100.302 73.978 100.302H76.366C76.419 100.302 76.4699 100.281 76.5074 100.243C76.5449 100.206 76.566 100.155 76.566 100.102ZM83.554 100.284C84.4066 100.194 85.193 99.7825 85.754 99.134C85.7887 99.0939 85.8061 99.0417 85.8023 98.9888C85.7986 98.936 85.774 98.8867 85.734 98.852C85.6939 98.8173 85.6417 98.7999 85.5888 98.8036C85.536 98.8074 85.4867 98.832 85.452 98.872C84.9576 99.4431 84.265 99.8055 83.514 99.886C83.4877 99.8874 83.462 99.894 83.4383 99.9054C83.4146 99.9168 83.3933 99.9327 83.3758 99.9523C83.3582 99.9719 83.3447 99.9948 83.336 100.02C83.3273 100.044 83.3235 100.071 83.325 100.097C83.3264 100.123 83.333 100.149 83.3444 100.173C83.3558 100.196 83.3717 100.218 83.3913 100.235C83.4109 100.253 83.4338 100.266 83.4586 100.275C83.4834 100.284 83.5097 100.287 83.536 100.286L83.554 100.284ZM71.8 99.96C71.8106 99.9358 71.8163 99.9098 71.8168 99.8835C71.8173 99.8571 71.8126 99.8309 71.8029 99.8064C71.7932 99.7818 71.7788 99.7594 71.7605 99.7405C71.7421 99.7215 71.7202 99.7064 71.696 99.696C71.354 99.5498 71.0478 99.331 70.7988 99.0547C70.5498 98.7785 70.3639 98.4513 70.254 98.096C70.246 98.0709 70.2332 98.0476 70.2162 98.0274C70.1992 98.0073 70.1784 97.9907 70.155 97.9786C70.1316 97.9665 70.106 97.9592 70.0797 97.957C70.0535 97.9549 70.0271 97.9579 70.002 97.966C69.9517 97.9821 69.9098 98.0174 69.8855 98.0642C69.8611 98.111 69.8563 98.1656 69.872 98.216C70.0001 98.6249 70.2155 99.0011 70.5031 99.3188C70.7907 99.6364 71.1438 99.8879 71.538 100.056C71.5625 100.067 71.5891 100.072 71.616 100.072C71.6541 100.073 71.6917 100.063 71.7243 100.043C71.7569 100.023 71.7832 99.9943 71.8 99.96ZM86.58 96.8V94.414C86.58 94.3609 86.5589 94.3101 86.5214 94.2726C86.4839 94.2351 86.433 94.214 86.38 94.214C86.3269 94.214 86.2761 94.2351 86.2386 94.2726C86.201 94.3101 86.18 94.3609 86.18 94.414V96.8C86.18 96.853 86.201 96.9039 86.2386 96.9414C86.2761 96.9789 86.3269 97 86.38 97C86.433 97 86.4839 96.9789 86.5214 96.9414C86.5589 96.9039 86.58 96.853 86.58 96.8ZM70.138 95.786V94.144C70.1378 93.8849 70.1184 93.6262 70.08 93.37C70.0761 93.344 70.0671 93.319 70.0535 93.2964C70.0399 93.2739 70.022 93.2543 70.0008 93.2387C69.9797 93.2231 69.9556 93.2118 69.9301 93.2055C69.9045 93.1992 69.878 93.198 69.852 93.202C69.826 93.2059 69.801 93.2149 69.7784 93.2285C69.7559 93.2421 69.7363 93.2599 69.7207 93.2811C69.7051 93.3023 69.6938 93.3264 69.6875 93.3519C69.6812 93.3774 69.68 93.404 69.684 93.43C69.7201 93.6663 69.7381 93.905 69.738 94.144V95.786C69.738 95.839 69.759 95.8899 69.7966 95.9274C69.8341 95.9649 69.8849 95.986 69.938 95.986C69.991 95.986 70.0419 95.9649 70.0794 95.9274C70.1169 95.8899 70.138 95.839 70.138 95.786ZM86.58 92.022V89.634C86.58 89.5809 86.5589 89.5301 86.5214 89.4926C86.4839 89.4551 86.433 89.434 86.38 89.434C86.3269 89.434 86.2761 89.4551 86.2386 89.4926C86.201 89.5301 86.18 89.5809 86.18 89.634V92.024C86.18 92.077 86.201 92.1279 86.2386 92.1654C86.2761 92.2029 86.3269 92.224 86.38 92.224C86.433 92.224 86.4839 92.2029 86.5214 92.1654C86.5589 92.1279 86.58 92.077 86.58 92.024V92.022ZM69.096 91.376C69.1171 91.3604 69.135 91.3407 69.1486 91.3182C69.1622 91.2957 69.1711 91.2707 69.175 91.2447C69.1789 91.2187 69.1777 91.1922 69.1713 91.1666C69.165 91.1411 69.1536 91.1171 69.138 91.096C68.6443 90.4261 67.9968 89.8849 67.25 89.518C67.2262 89.5041 67.1999 89.4952 67.1726 89.4919C67.1453 89.4887 67.1176 89.4911 67.0913 89.499C67.0649 89.5069 67.0405 89.5201 67.0195 89.5379C66.9986 89.5557 66.9815 89.5776 66.9693 89.6023C66.9572 89.627 66.9503 89.6539 66.949 89.6813C66.9478 89.7088 66.9522 89.7362 66.962 89.7619C66.9718 89.7876 66.9868 89.811 67.0061 89.8306C67.0254 89.8503 67.0485 89.8657 67.074 89.876C67.7634 90.2149 68.3609 90.7151 68.816 91.334C68.8316 91.3551 68.8512 91.373 68.8737 91.3866C68.8963 91.4002 68.9213 91.4092 68.9473 91.4131C68.9733 91.417 68.9998 91.4157 69.0253 91.4093C69.0508 91.403 69.0748 91.3916 69.096 91.376ZM65.05 89.2C65.05 89.1469 65.0289 89.0961 64.9914 89.0586C64.9539 89.0211 64.903 89 64.85 89H62.462C62.4089 89 62.3581 89.0211 62.3206 89.0586C62.283 89.0961 62.262 89.1469 62.262 89.2C62.262 89.253 62.283 89.3039 62.3206 89.3414C62.3581 89.3789 62.4089 89.4 62.462 89.4H64.85C64.903 89.4 64.9539 89.3789 64.9914 89.3414C65.0289 89.3039 65.05 89.253 65.05 89.2ZM60.272 89.2C60.272 89.1469 60.2509 89.0961 60.2134 89.0586C60.1759 89.0211 60.125 89 60.072 89H57.672C57.6189 89 57.5681 89.0211 57.5306 89.0586C57.493 89.0961 57.472 89.1469 57.472 89.2C57.472 89.253 57.493 89.3039 57.5306 89.3414C57.5681 89.3789 57.6189 89.4 57.672 89.4H60.072C60.125 89.4 60.1759 89.3789 60.2134 89.3414C60.2509 89.3039 60.272 89.253 60.272 89.2ZM55.494 89.2C55.494 89.1469 55.4729 89.0961 55.4354 89.0586C55.3979 89.0211 55.347 89 55.294 89H52.904C52.8509 89 52.8001 89.0211 52.7626 89.0586C52.725 89.0961 52.704 89.1469 52.704 89.2C52.704 89.253 52.725 89.3039 52.7626 89.3414C52.8001 89.3789 52.8509 89.4 52.904 89.4H55.294C55.347 89.4 55.3979 89.3789 55.4354 89.3414C55.4729 89.3039 55.494 89.253 55.494 89.2ZM50.716 89.2C50.716 89.1469 50.6949 89.0961 50.6574 89.0586C50.6199 89.0211 50.569 89 50.516 89H48.116C48.0629 89 48.0121 89.0211 47.9746 89.0586C47.937 89.0961 47.916 89.1469 47.916 89.2C47.916 89.253 47.937 89.3039 47.9746 89.3414C48.0121 89.3789 48.0629 89.4 48.116 89.4H50.516C50.569 89.4 50.6199 89.3789 50.6574 89.3414C50.6949 89.3039 50.716 89.253 50.716 89.2ZM45.936 89.2C45.936 89.1469 45.9149 89.0961 45.8774 89.0586C45.8399 89.0211 45.789 89 45.736 89H43.348C43.2949 89 43.2441 89.0211 43.2066 89.0586C43.169 89.0961 43.148 89.1469 43.148 89.2C43.148 89.253 43.169 89.3039 43.2066 89.3414C43.2441 89.3789 43.2949 89.4 43.348 89.4H45.736C45.789 89.4 45.8399 89.3789 45.8774 89.3414C45.9149 89.3039 45.936 89.253 45.936 89.2ZM41.158 89.2C41.158 89.1469 41.1369 89.0961 41.0994 89.0586C41.0619 89.0211 41.011 89 40.958 89H38.57C38.5169 89 38.4661 89.0211 38.4286 89.0586C38.391 89.0961 38.37 89.1469 38.37 89.2C38.37 89.253 38.391 89.3039 38.4286 89.3414C38.4661 89.3789 38.5169 89.4 38.57 89.4H40.958C41.011 89.4 41.0619 89.3789 41.0994 89.3414C41.1369 89.3039 41.158 89.253 41.158 89.2ZM36.38 89.2C36.38 89.1469 36.3589 89.0961 36.3214 89.0586C36.2839 89.0211 36.233 89 36.18 89H33.8C33.7469 89 33.6961 89.0211 33.6586 89.0586C33.621 89.0961 33.6 89.1469 33.6 89.2C33.6 89.253 33.621 89.3039 33.6586 89.3414C33.6961 89.3789 33.7469 89.4 33.8 89.4H36.2C36.2495 89.395 36.2954 89.3718 36.3286 89.3348C36.3619 89.2978 36.3802 89.2497 36.38 89.2ZM31.644 88.88C31.6677 88.8327 31.6718 88.778 31.6553 88.7278C31.6388 88.6776 31.6031 88.636 31.556 88.612C30.8749 88.2698 30.3161 87.7257 29.956 87.054C29.9306 87.0083 29.8884 86.9744 29.8383 86.9595C29.7883 86.9445 29.7344 86.9498 29.6881 86.9741C29.6419 86.9984 29.607 87.0398 29.5909 87.0895C29.5748 87.1392 29.5788 87.1932 29.602 87.24C29.9993 87.9848 30.6167 88.589 31.37 88.97C31.398 88.9836 31.4288 88.9904 31.46 88.99C31.4981 88.9908 31.5357 88.9807 31.5683 88.9609C31.6009 88.941 31.6272 88.9123 31.644 88.878V88.88ZM29.536 84.83V82.44C29.536 82.3869 29.5149 82.3361 29.4774 82.2986C29.4399 82.2611 29.389 82.24 29.336 82.24C29.2829 82.24 29.2321 82.2611 29.1946 82.2986C29.157 82.3361 29.136 82.3869 29.136 82.44V84.83C29.136 84.883 29.157 84.9339 29.1946 84.9714C29.2321 85.0089 29.2829 85.03 29.336 85.03C29.389 85.03 29.4399 85.0089 29.4774 84.9714C29.5149 84.9339 29.536 84.883 29.536 84.83ZM29.536 80.052V77.662C29.536 77.6089 29.5149 77.5581 29.4774 77.5206C29.4399 77.4831 29.389 77.462 29.336 77.462C29.2829 77.462 29.2321 77.4831 29.1946 77.5206C29.157 77.5581 29.136 77.6089 29.136 77.662V80.052C29.136 80.105 29.157 80.1559 29.1946 80.1934C29.2321 80.2309 29.2829 80.252 29.336 80.252C29.389 80.252 29.4399 80.2309 29.4774 80.1934C29.5149 80.1559 29.536 80.105 29.536 80.052ZM29.536 75.272V74.272C29.5338 73.8448 29.6599 73.4267 29.898 73.072C29.9274 73.0277 29.9381 72.9735 29.9276 72.9214C29.917 72.8692 29.8863 72.8234 29.842 72.794C29.7977 72.7645 29.7435 72.7539 29.6914 72.7644C29.6392 72.7749 29.5934 72.8057 29.564 72.85C29.284 73.2683 29.135 73.7606 29.136 74.264V75.264C29.136 75.317 29.157 75.3679 29.1946 75.4054C29.2321 75.4429 29.2829 75.464 29.336 75.464C29.389 75.464 29.4399 75.4429 29.4774 75.4054C29.5149 75.3679 29.536 75.317 29.536 75.264V75.272ZM110.656 71.95C110.681 71.9416 110.704 71.9284 110.724 71.9111C110.744 71.8938 110.76 71.8728 110.772 71.8492C110.783 71.8256 110.79 71.7999 110.792 71.7736C110.794 71.7473 110.79 71.7209 110.782 71.696C110.765 71.646 110.729 71.6047 110.682 71.5811C110.635 71.5575 110.58 71.5535 110.53 71.57C110.235 71.6675 109.927 71.7168 109.616 71.716H108.216C108.163 71.716 108.112 71.7371 108.075 71.7746C108.037 71.8121 108.016 71.8629 108.016 71.916C108.016 71.969 108.037 72.0199 108.075 72.0574C108.112 72.0949 108.163 72.116 108.216 72.116H109.616C109.969 72.116 110.32 72.06 110.656 71.95ZM106.03 71.916C106.03 71.8629 106.009 71.8121 105.971 71.7746C105.934 71.7371 105.883 71.716 105.83 71.716H103.442C103.389 71.716 103.338 71.7371 103.301 71.7746C103.263 71.8121 103.242 71.8629 103.242 71.916C103.242 71.969 103.263 72.0199 103.301 72.0574C103.338 72.0949 103.389 72.116 103.442 72.116H105.83C105.883 72.116 105.934 72.0949 105.971 72.0574C106.009 72.0199 106.03 71.969 106.03 71.916ZM101.252 71.916C101.252 71.8629 101.231 71.8121 101.193 71.7746C101.156 71.7371 101.105 71.716 101.052 71.716H98.664C98.6109 71.716 98.5601 71.7371 98.5225 71.7746C98.485 71.8121 98.464 71.8629 98.464 71.916C98.464 71.969 98.485 72.0199 98.5225 72.0574C98.5601 72.0949 98.6109 72.116 98.664 72.116H101.052C101.105 72.116 101.156 72.0949 101.193 72.0574C101.231 72.0199 101.252 71.969 101.252 71.916ZM96.474 71.916C96.474 71.8629 96.4529 71.8121 96.4154 71.7746C96.3779 71.7371 96.327 71.716 96.274 71.716H93.884C93.8309 71.716 93.7801 71.7371 93.7425 71.7746C93.705 71.8121 93.684 71.8629 93.684 71.916C93.684 71.969 93.705 72.0199 93.7425 72.0574C93.7801 72.0949 93.8309 72.116 93.884 72.116H96.274C96.327 72.116 96.3779 72.0949 96.4154 72.0574C96.4529 72.0199 96.474 71.969 96.474 71.916ZM91.696 71.916C91.696 71.8629 91.6749 71.8121 91.6374 71.7746C91.5999 71.7371 91.549 71.716 91.496 71.716H89.096C89.0429 71.716 88.9921 71.7371 88.9545 71.7746C88.917 71.8121 88.896 71.8629 88.896 71.916C88.896 71.969 88.917 72.0199 88.9545 72.0574C88.9921 72.0949 89.0429 72.116 89.096 72.116H91.496C91.549 72.116 91.5999 72.0949 91.6374 72.0574C91.6749 72.0199 91.696 71.969 91.696 71.916ZM86.918 71.916C86.918 71.8629 86.8969 71.8121 86.8594 71.7746C86.8219 71.7371 86.771 71.716 86.718 71.716H84.328C84.2749 71.716 84.2241 71.7371 84.1866 71.7746C84.149 71.8121 84.128 71.8629 84.128 71.916C84.128 71.969 84.149 72.0199 84.1866 72.0574C84.2241 72.0949 84.2749 72.116 84.328 72.116H86.718C86.771 72.116 86.8219 72.0949 86.8594 72.0574C86.8969 72.0199 86.918 71.969 86.918 71.916ZM82.138 71.916C82.138 71.8629 82.1169 71.8121 82.0794 71.7746C82.0419 71.7371 81.991 71.716 81.938 71.716H79.55C79.4969 71.716 79.4461 71.7371 79.4086 71.7746C79.371 71.8121 79.35 71.8629 79.35 71.916C79.35 71.969 79.371 72.0199 79.4086 72.0574C79.4461 72.0949 79.4969 72.116 79.55 72.116H81.938C81.991 72.116 82.0419 72.0949 82.0794 72.0574C82.1169 72.0199 82.138 71.969 82.138 71.916ZM77.36 71.916C77.36 71.8629 77.3389 71.8121 77.3014 71.7746C77.2639 71.7371 77.213 71.716 77.16 71.716H74.772C74.7189 71.716 74.6681 71.7371 74.6306 71.7746C74.593 71.8121 74.572 71.8629 74.572 71.916C74.572 71.969 74.593 72.0199 74.6306 72.0574C74.6681 72.0949 74.7189 72.116 74.772 72.116H77.16C77.213 72.116 77.2639 72.0949 77.3014 72.0574C77.3389 72.0199 77.36 71.969 77.36 71.916ZM72.582 71.916C72.582 71.8629 72.5609 71.8121 72.5234 71.7746C72.4859 71.7371 72.435 71.716 72.382 71.716H70C69.9469 71.716 69.8961 71.7371 69.8586 71.7746C69.821 71.8121 69.8 71.8629 69.8 71.916C69.8 71.969 69.821 72.0199 69.8586 72.0574C69.8961 72.0949 69.9469 72.116 70 72.116H72.4C72.4498 72.1115 72.4962 72.0884 72.5299 72.0514C72.5636 72.0144 72.5822 71.966 72.582 71.916ZM67.804 71.916C67.804 71.8629 67.7829 71.8121 67.7454 71.7746C67.7079 71.7371 67.657 71.716 67.604 71.716H65.204C65.1509 71.716 65.1001 71.7371 65.0626 71.7746C65.025 71.8121 65.004 71.8629 65.004 71.916C65.004 71.969 65.025 72.0199 65.0626 72.0574C65.1001 72.0949 65.1509 72.116 65.204 72.116H67.604C67.6563 72.1149 67.7062 72.0934 67.7428 72.056C67.7795 72.0186 67.8 71.9683 67.8 71.916H67.804ZM63.026 71.916C63.026 71.8629 63.0049 71.8121 62.9674 71.7746C62.9299 71.7371 62.879 71.716 62.826 71.716H60.436C60.3829 71.716 60.3321 71.7371 60.2946 71.7746C60.257 71.8121 60.236 71.8629 60.236 71.916C60.236 71.969 60.257 72.0199 60.2946 72.0574C60.3321 72.0949 60.3829 72.116 60.436 72.116H62.826C62.879 72.116 62.9299 72.0949 62.9674 72.0574C63.0049 72.0199 63.026 71.969 63.026 71.916ZM58.246 71.916C58.246 71.8629 58.2249 71.8121 58.1874 71.7746C58.1499 71.7371 58.099 71.716 58.046 71.716H55.658C55.6049 71.716 55.5541 71.7371 55.5166 71.7746C55.479 71.8121 55.458 71.8629 55.458 71.916C55.458 71.969 55.479 72.0199 55.5166 72.0574C55.5541 72.0949 55.6049 72.116 55.658 72.116H58.046C58.099 72.116 58.1499 72.0949 58.1874 72.0574C58.2249 72.0199 58.246 71.969 58.246 71.916ZM53.468 71.916C53.468 71.8629 53.4469 71.8121 53.4094 71.7746C53.3719 71.7371 53.321 71.716 53.268 71.716H50.88C50.8269 71.716 50.7761 71.7371 50.7386 71.7746C50.701 71.8121 50.68 71.8629 50.68 71.916C50.68 71.969 50.701 72.0199 50.7386 72.0574C50.7761 72.0949 50.8269 72.116 50.88 72.116H53.268C53.321 72.116 53.3719 72.0949 53.4094 72.0574C53.4469 72.0199 53.468 71.969 53.468 71.916ZM48.69 71.916C48.69 71.8629 48.6689 71.8121 48.6314 71.7746C48.5939 71.7371 48.543 71.716 48.49 71.716H46.1C46.0469 71.716 45.9961 71.7371 45.9586 71.7746C45.921 71.8121 45.9 71.8629 45.9 71.916C45.9 71.969 45.921 72.0199 45.9586 72.0574C45.9961 72.0949 46.0469 72.116 46.1 72.116H48.49C48.543 72.116 48.5939 72.0949 48.6314 72.0574C48.6689 72.0199 48.69 71.969 48.69 71.916ZM43.912 71.916C43.912 71.8629 43.8909 71.8121 43.8534 71.7746C43.8159 71.7371 43.765 71.716 43.712 71.716H41.312C41.2589 71.716 41.2081 71.7371 41.1706 71.7746C41.133 71.8121 41.112 71.8629 41.112 71.916C41.112 71.969 41.133 72.0199 41.1706 72.0574C41.2081 72.0949 41.2589 72.116 41.312 72.116H43.712C43.765 72.116 43.8159 72.0949 43.8534 72.0574C43.8909 72.0199 43.912 71.969 43.912 71.916ZM39.134 71.916C39.134 71.8629 39.1129 71.8121 39.0754 71.7746C39.0379 71.7371 38.987 71.716 38.934 71.716H36.534C36.4809 71.716 36.4301 71.7371 36.3926 71.7746C36.355 71.8121 36.334 71.8629 36.334 71.916C36.334 71.969 36.355 72.0199 36.3926 72.0574C36.4301 72.0949 36.4809 72.116 36.534 72.116H38.934C38.987 72.116 39.0379 72.0949 39.0754 72.0574C39.1129 72.0199 39.134 71.969 39.134 71.916ZM34.354 71.916C34.354 71.8629 34.3329 71.8121 34.2954 71.7746C34.2579 71.7371 34.207 71.716 34.154 71.716H31.766C31.7129 71.716 31.6621 71.7371 31.6246 71.7746C31.587 71.8121 31.566 71.8629 31.566 71.916C31.566 71.969 31.587 72.0199 31.6246 72.0574C31.6621 72.0949 31.7129 72.116 31.766 72.116H34.154C34.207 72.116 34.2579 72.0949 34.2954 72.0574C34.3329 72.0199 34.354 71.969 34.354 71.916ZM112.554 70.342C112.801 69.8699 112.93 69.3449 112.93 68.812V67.918C112.93 67.8649 112.909 67.8141 112.871 67.7766C112.834 67.7391 112.783 67.718 112.73 67.718C112.677 67.718 112.626 67.7391 112.589 67.7766C112.551 67.8141 112.53 67.8649 112.53 67.918V68.812C112.53 69.2801 112.417 69.7412 112.2 70.156C112.187 70.1793 112.179 70.2049 112.176 70.2314C112.173 70.2579 112.176 70.2848 112.183 70.3103C112.191 70.3358 112.203 70.3596 112.22 70.3802C112.237 70.4008 112.258 70.4178 112.282 70.4302C112.305 70.4426 112.331 70.4501 112.358 70.4524C112.384 70.4547 112.411 70.4516 112.436 70.4434C112.462 70.4352 112.485 70.422 112.505 70.4046C112.526 70.3871 112.542 70.3659 112.554 70.342ZM112.93 65.528V63.14C112.93 63.0869 112.909 63.0361 112.871 62.9986C112.834 62.9611 112.783 62.94 112.73 62.94C112.677 62.94 112.626 62.9611 112.589 62.9986C112.551 63.0361 112.53 63.0869 112.53 63.14V65.528C112.53 65.581 112.551 65.6319 112.589 65.6694C112.626 65.7069 112.677 65.728 112.73 65.728C112.783 65.728 112.834 65.7069 112.871 65.6694C112.909 65.6319 112.93 65.581 112.93 65.528ZM112.93 60.75V59.922C112.934 59.3635 112.796 58.8131 112.53 58.322C112.517 58.299 112.5 58.2787 112.48 58.2624C112.459 58.246 112.435 58.2339 112.41 58.2266C112.385 58.2194 112.358 58.2172 112.332 58.2202C112.306 58.2231 112.281 58.2312 112.258 58.244C112.212 58.2697 112.178 58.3124 112.164 58.363C112.149 58.4135 112.155 58.4678 112.18 58.514C112.415 58.9432 112.538 59.4247 112.538 59.914V60.742C112.538 60.795 112.559 60.8459 112.597 60.8834C112.634 60.9209 112.685 60.942 112.738 60.942C112.791 60.942 112.842 60.9209 112.879 60.8834C112.917 60.8459 112.938 60.795 112.938 60.742L112.93 60.75ZM110.73 57.012C110.746 56.9613 110.74 56.9065 110.716 56.8597C110.691 56.8128 110.649 56.7777 110.598 56.762C110.283 56.666 109.955 56.6174 109.626 56.618H108.164C108.111 56.618 108.06 56.6391 108.023 56.6766C107.985 56.7141 107.964 56.7649 107.964 56.818C107.964 56.871 107.985 56.9219 108.023 56.9594C108.06 56.9969 108.111 57.018 108.164 57.018H109.626C109.915 57.0172 110.203 57.0603 110.48 57.146C110.5 57.149 110.52 57.149 110.54 57.146C110.58 57.1442 110.618 57.1305 110.651 57.1066C110.683 57.0827 110.707 57.0498 110.72 57.012H110.73ZM105.976 56.812C105.976 56.7589 105.955 56.7081 105.917 56.6706C105.88 56.6331 105.829 56.612 105.776 56.612H103.376C103.323 56.612 103.272 56.6331 103.235 56.6706C103.197 56.7081 103.176 56.7589 103.176 56.812C103.176 56.865 103.197 56.9159 103.235 56.9534C103.272 56.9909 103.323 57.012 103.376 57.012H105.766C105.818 57.012 105.868 56.9918 105.905 56.9555C105.943 56.9193 105.964 56.87 105.966 56.818L105.976 56.812ZM101.196 56.812C101.196 56.7589 101.175 56.7081 101.137 56.6706C101.1 56.6331 101.049 56.612 100.996 56.612H98.6C98.5469 56.612 98.4961 56.6331 98.4585 56.6706C98.421 56.7081 98.4 56.7589 98.4 56.812C98.4 56.865 98.421 56.9159 98.4585 56.9534C98.4961 56.9909 98.5469 57.012 98.6 57.012H100.988C101.04 57.0115 101.089 56.991 101.126 56.9548C101.163 56.9187 101.184 56.8696 101.186 56.818L101.196 56.812ZM96.418 56.812C96.418 56.7589 96.3969 56.7081 96.3594 56.6706C96.3219 56.6331 96.271 56.612 96.218 56.612H93.82C93.7669 56.612 93.7161 56.6331 93.6786 56.6706C93.641 56.7081 93.62 56.7589 93.62 56.812C93.62 56.865 93.641 56.9159 93.6786 56.9534C93.7161 56.9909 93.7669 57.012 93.82 57.012H96.2C96.252 57.012 96.302 56.9918 96.3393 56.9555C96.3767 56.9193 96.3984 56.87 96.4 56.818L96.418 56.812ZM91.64 56.812C91.64 56.7589 91.6189 56.7081 91.5814 56.6706C91.5439 56.6331 91.493 56.612 91.44 56.612H89.04C88.9869 56.612 88.9361 56.6331 88.8985 56.6706C88.861 56.7081 88.84 56.7589 88.84 56.812C88.84 56.865 88.861 56.9159 88.8985 56.9534C88.9361 56.9909 88.9869 57.012 89.04 57.012H91.43C91.482 57.012 91.532 56.9918 91.5693 56.9555C91.6067 56.9193 91.6284 56.87 91.63 56.818L91.64 56.812ZM86.862 56.812C86.862 56.7589 86.8409 56.7081 86.8034 56.6706C86.7659 56.6331 86.715 56.612 86.662 56.612H84.262C84.2089 56.612 84.1581 56.6331 84.1206 56.6706C84.083 56.7081 84.062 56.7589 84.062 56.812C84.062 56.865 84.083 56.9159 84.1206 56.9534C84.1581 56.9909 84.2089 57.012 84.262 57.012H86.652C86.704 57.012 86.754 56.9918 86.7913 56.9555C86.8287 56.9193 86.8504 56.87 86.852 56.818L86.862 56.812ZM82.084 56.812C82.084 56.7589 82.0629 56.7081 82.0254 56.6706C81.9879 56.6331 81.937 56.612 81.884 56.612H79.484C79.4309 56.612 79.3801 56.6331 79.3426 56.6706C79.305 56.7081 79.284 56.7589 79.284 56.812C79.284 56.865 79.305 56.9159 79.3426 56.9534C79.3801 56.9909 79.4309 57.012 79.484 57.012H81.874C81.926 57.012 81.976 56.9918 82.0133 56.9555C82.0507 56.9193 82.0724 56.87 82.074 56.818L82.084 56.812ZM77.304 56.812C77.304 56.7589 77.2829 56.7081 77.2454 56.6706C77.2079 56.6331 77.157 56.612 77.104 56.612H74.706C74.6529 56.612 74.6021 56.6331 74.5646 56.6706C74.527 56.7081 74.506 56.7589 74.506 56.812C74.506 56.865 74.527 56.9159 74.5646 56.9534C74.6021 56.9909 74.6529 57.012 74.706 57.012H77.094C77.146 57.012 77.196 56.9918 77.2333 56.9555C77.2707 56.9193 77.2924 56.87 77.294 56.818L77.304 56.812ZM72.526 56.812C72.526 56.7589 72.5049 56.7081 72.4674 56.6706C72.4299 56.6331 72.379 56.612 72.326 56.612H69.928C69.8749 56.612 69.8241 56.6331 69.7866 56.6706C69.749 56.7081 69.728 56.7589 69.728 56.812C69.728 56.865 69.749 56.9159 69.7866 56.9534C69.8241 56.9909 69.8749 57.012 69.928 57.012H72.316C72.368 57.012 72.418 56.9918 72.4553 56.9555C72.4927 56.9193 72.5144 56.87 72.516 56.818L72.526 56.812ZM67.748 56.812C67.748 56.7589 67.7269 56.7081 67.6894 56.6706C67.6519 56.6331 67.601 56.612 67.548 56.612H65.148C65.0949 56.612 65.0441 56.6331 65.0066 56.6706C64.969 56.7081 64.948 56.7589 64.948 56.812C64.948 56.865 64.969 56.9159 65.0066 56.9534C65.0441 56.9909 65.0949 57.012 65.148 57.012H67.538C67.59 57.012 67.64 56.9918 67.6773 56.9555C67.7147 56.9193 67.7364 56.87 67.738 56.818L67.748 56.812ZM62.97 56.812C62.97 56.7589 62.9489 56.7081 62.9114 56.6706C62.8739 56.6331 62.823 56.612 62.77 56.612H60.37C60.3169 56.612 60.2661 56.6331 60.2286 56.6706C60.191 56.7081 60.17 56.7589 60.17 56.812C60.17 56.865 60.191 56.9159 60.2286 56.9534C60.2661 56.9909 60.3169 57.012 60.37 57.012H62.77C62.8202 57.0095 62.8677 56.9881 62.9029 56.9522C62.9382 56.9162 62.9585 56.8683 62.96 56.818L62.97 56.812ZM58.192 56.812C58.192 56.7589 58.1709 56.7081 58.1334 56.6706C58.0959 56.6331 58.045 56.612 57.992 56.612H55.6C55.5469 56.612 55.4961 56.6331 55.4586 56.6706C55.421 56.7081 55.4 56.7589 55.4 56.812C55.4 56.865 55.421 56.9159 55.4586 56.9534C55.4961 56.9909 55.5469 57.012 55.6 57.012H57.99C58.0406 57.01 58.0886 56.9888 58.1242 56.9528C58.1598 56.9168 58.1805 56.8686 58.182 56.818L58.192 56.812ZM53.412 56.812C53.412 56.7589 53.3909 56.7081 53.3534 56.6706C53.3159 56.6331 53.265 56.612 53.212 56.612H50.814C50.7609 56.612 50.7101 56.6331 50.6726 56.6706C50.635 56.7081 50.614 56.7589 50.614 56.812C50.614 56.865 50.635 56.9159 50.6726 56.9534C50.7101 56.9909 50.7609 57.012 50.814 57.012H53.2C53.252 57.012 53.302 56.9918 53.3393 56.9555C53.3767 56.9193 53.3984 56.87 53.4 56.818L53.412 56.812ZM48.634 56.812C48.634 56.7589 48.6129 56.7081 48.5754 56.6706C48.5379 56.6331 48.487 56.612 48.434 56.612H46.036C45.9829 56.612 45.9321 56.6331 45.8946 56.6706C45.857 56.7081 45.836 56.7589 45.836 56.812C45.836 56.865 45.857 56.9159 45.8946 56.9534C45.9321 56.9909 45.9829 57.012 46.036 57.012H48.424C48.476 57.012 48.526 56.9918 48.5633 56.9555C48.6007 56.9193 48.6224 56.87 48.624 56.818L48.634 56.812ZM43.856 56.812C43.856 56.7589 43.8349 56.7081 43.7974 56.6706C43.7599 56.6331 43.709 56.612 43.656 56.612H41.256C41.2029 56.612 41.1521 56.6331 41.1146 56.6706C41.077 56.7081 41.056 56.7589 41.056 56.812C41.056 56.865 41.077 56.9159 41.1146 56.9534C41.1521 56.9909 41.2029 57.012 41.256 57.012H43.646C43.698 57.012 43.748 56.9918 43.7853 56.9555C43.8227 56.9193 43.8444 56.87 43.846 56.818L43.856 56.812ZM39.216 56.212C39.2347 56.1934 39.2496 56.1713 39.2598 56.1469C39.2699 56.1225 39.2751 56.0964 39.2751 56.07C39.2751 56.0436 39.2699 56.0174 39.2598 55.9931C39.2496 55.9687 39.2347 55.9466 39.216 55.928C38.9714 55.6966 38.7768 55.4174 38.6444 55.1078C38.5119 54.7982 38.4444 54.4647 38.446 54.128V53.912C38.446 53.8589 38.4249 53.8081 38.3874 53.7706C38.3499 53.7331 38.299 53.712 38.246 53.712C38.1929 53.712 38.1421 53.7331 38.1046 53.7706C38.067 53.8081 38.046 53.8589 38.046 53.912V54.128C38.0445 54.5186 38.1231 54.9054 38.2768 55.2645C38.4306 55.6236 38.6563 55.9475 38.94 56.216C38.977 56.2517 39.0265 56.2718 39.078 56.272C39.1241 56.2674 39.1673 56.2469 39.2 56.214L39.216 56.212ZM38.438 51.526V49.138C38.438 49.0849 38.4169 49.0341 38.3794 48.9966C38.3419 48.9591 38.291 48.938 38.238 48.938C38.1849 48.938 38.1341 48.9591 38.0966 48.9966C38.059 49.0341 38.038 49.0849 38.038 49.138V51.528C38.038 51.581 38.059 51.6319 38.0966 51.6694C38.1341 51.7069 38.1849 51.728 38.238 51.728C38.291 51.728 38.3419 51.7069 38.3794 51.6694C38.4169 51.6319 38.438 51.581 38.438 51.528V51.526ZM38.438 46.746V46.246C38.4371 45.6518 38.614 45.0708 38.946 44.578C38.9606 44.5553 38.9705 44.5299 38.9753 44.5033C38.9801 44.4768 38.9796 44.4495 38.9738 44.4231C38.968 44.3968 38.9571 44.3718 38.9417 44.3496C38.9263 44.3275 38.9067 44.3086 38.884 44.294C38.8613 44.2794 38.8359 44.2694 38.8093 44.2647C38.7828 44.2599 38.7555 44.2604 38.7291 44.2662C38.7028 44.2719 38.6778 44.2828 38.6556 44.2982C38.6335 44.3136 38.6146 44.3333 38.6 44.356C38.2223 44.9146 38.0209 45.5737 38.022 46.248V46.748C38.022 46.801 38.043 46.8519 38.0806 46.8894C38.1181 46.9269 38.1689 46.948 38.222 46.948C38.275 46.948 38.3259 46.9269 38.3634 46.8894C38.4009 46.8519 38.422 46.801 38.422 46.748L38.438 46.746ZM40.746 43.346C40.9689 43.294 41.1971 43.2678 41.426 43.268H43.084C43.137 43.268 43.1879 43.2469 43.2254 43.2094C43.2629 43.1719 43.284 43.121 43.284 43.068C43.284 43.0149 43.2629 42.9641 43.2254 42.9266C43.1879 42.8891 43.137 42.868 43.084 42.868H41.426C41.1668 42.8681 40.9085 42.8977 40.656 42.956C40.6304 42.9619 40.6062 42.9728 40.5848 42.988C40.5633 43.0033 40.5452 43.0226 40.5312 43.0449C40.5173 43.0672 40.5079 43.092 40.5036 43.1179C40.4992 43.1438 40.5 43.1704 40.506 43.196C40.5165 43.2407 40.5422 43.2805 40.5786 43.3085C40.615 43.3366 40.66 43.3512 40.706 43.35C40.7163 43.3469 40.7264 43.3429 40.736 43.338L40.746 43.346ZM45.504 43.22C45.9232 43.1459 46.3236 42.9897 46.6822 42.7605C47.0409 42.5312 47.3508 42.2333 47.594 41.884C47.6241 41.8405 47.6358 41.7868 47.6264 41.7346C47.6171 41.6825 47.5874 41.6363 47.544 41.606C47.5005 41.5758 47.4468 41.5641 47.3946 41.5735C47.3425 41.5829 47.2963 41.6125 47.266 41.656C46.8353 42.2732 46.177 42.6941 45.436 42.826C45.3829 42.8305 45.3339 42.8559 45.2995 42.8966C45.2652 42.9373 45.2485 42.9899 45.253 43.043C45.2575 43.096 45.2829 43.1451 45.3236 43.1794C45.3643 43.2137 45.4169 43.2305 45.47 43.226L45.504 43.22ZM48.16 39.484V37.86C48.16 37.6213 48.1896 37.3835 48.248 37.152C48.2573 37.1258 48.2611 37.0979 48.259 37.0701C48.257 37.0423 48.2492 37.0153 48.2361 36.9907C48.223 36.9662 48.2049 36.9446 48.183 36.9274C48.161 36.9103 48.1358 36.8978 48.1088 36.891C48.0818 36.8841 48.0537 36.883 48.0262 36.8876C47.9988 36.8923 47.9726 36.9026 47.9494 36.918C47.9261 36.9333 47.9064 36.9533 47.8913 36.9767C47.8763 37.0002 47.8663 37.0265 47.862 37.054C47.7944 37.3153 47.7601 37.5841 47.76 37.854V39.478C47.76 39.531 47.781 39.5819 47.8186 39.6194C47.8561 39.6569 47.9069 39.678 47.96 39.678C48.013 39.678 48.0639 39.6569 48.1014 39.6194C48.1389 39.5819 48.16 39.531 48.16 39.478V39.484ZM49.56 35.422C49.9905 35.1713 50.4798 35.0395 50.978 35.04H51.778C51.831 35.04 51.8819 35.0189 51.9194 34.9814C51.9569 34.9439 51.978 34.893 51.978 34.84C51.978 34.7869 51.9569 34.7361 51.9194 34.6986C51.8819 34.6611 51.831 34.64 51.778 34.64H50.978C50.4089 34.6393 49.8498 34.7898 49.358 35.076C49.3352 35.0892 49.3153 35.1068 49.2994 35.1278C49.2834 35.1487 49.2718 35.1726 49.2651 35.198C49.2584 35.2235 49.2568 35.25 49.2604 35.2761C49.264 35.3022 49.2727 35.3273 49.286 35.35C49.2992 35.3727 49.3168 35.3926 49.3377 35.4086C49.3587 35.4245 49.3826 35.4362 49.408 35.4429C49.4335 35.4495 49.46 35.4511 49.4861 35.4476C49.5122 35.444 49.5373 35.4353 49.56 35.422ZM90.2 34.84C90.2 34.7869 90.1789 34.7361 90.1414 34.6986C90.1039 34.6611 90.053 34.64 90 34.64H87.614C87.5609 34.64 87.5101 34.6611 87.4725 34.6986C87.435 34.7361 87.414 34.7869 87.414 34.84C87.414 34.893 87.435 34.9439 87.4725 34.9814C87.5101 35.0189 87.5609 35.04 87.614 35.04H90C90.053 35.04 90.1039 35.0189 90.1414 34.9814C90.1789 34.9439 90.2 34.893 90.2 34.84ZM85.422 34.84C85.422 34.7869 85.4009 34.7361 85.3634 34.6986C85.3259 34.6611 85.275 34.64 85.222 34.64H82.836C82.7829 34.64 82.7321 34.6611 82.6946 34.6986C82.657 34.7361 82.636 34.7869 82.636 34.84C82.636 34.893 82.657 34.9439 82.6946 34.9814C82.7321 35.0189 82.7829 35.04 82.836 35.04H85.226C85.279 35.04 85.3299 35.0189 85.3674 34.9814C85.4049 34.9439 85.426 34.893 85.426 34.84H85.422ZM80.644 34.84C80.644 34.7869 80.6229 34.7361 80.5854 34.6986C80.5479 34.6611 80.497 34.64 80.444 34.64H78.058C78.0049 34.64 77.9541 34.6611 77.9165 34.6986C77.879 34.7361 77.858 34.7869 77.858 34.84C77.858 34.893 77.879 34.9439 77.9165 34.9814C77.9541 35.0189 78.0049 35.04 78.058 35.04H80.448C80.501 35.04 80.5519 35.0189 80.5894 34.9814C80.6269 34.9439 80.648 34.893 80.648 34.84H80.644ZM75.864 34.84C75.864 34.7869 75.8429 34.7361 75.8054 34.6986C75.7679 34.6611 75.717 34.64 75.664 34.64H73.28C73.2269 34.64 73.1761 34.6611 73.1386 34.6986C73.101 34.7361 73.08 34.7869 73.08 34.84C73.08 34.893 73.101 34.9439 73.1386 34.9814C73.1761 35.0189 73.2269 35.04 73.28 35.04H75.668C75.721 35.04 75.7719 35.0189 75.8094 34.9814C75.8469 34.9439 75.868 34.893 75.868 34.84H75.864ZM71.086 34.84C71.086 34.7869 71.0649 34.7361 71.0274 34.6986C70.9899 34.6611 70.939 34.64 70.886 34.64H68.502C68.4489 34.64 68.3981 34.6611 68.3605 34.6986C68.323 34.7361 68.302 34.7869 68.302 34.84C68.302 34.893 68.323 34.9439 68.3605 34.9814C68.3981 35.0189 68.4489 35.04 68.502 35.04H70.89C70.943 35.04 70.9939 35.0189 71.0314 34.9814C71.0689 34.9439 71.09 34.893 71.09 34.84H71.086ZM66.308 34.84C66.308 34.7869 66.2869 34.7361 66.2494 34.6986C66.2119 34.6611 66.161 34.64 66.108 34.64H63.722C63.6689 34.64 63.6181 34.6611 63.5806 34.6986C63.543 34.7361 63.522 34.7869 63.522 34.84C63.522 34.893 63.543 34.9439 63.5806 34.9814C63.6181 35.0189 63.6689 35.04 63.722 35.04H66.112C66.165 35.04 66.2159 35.0189 66.2534 34.9814C66.2909 34.9439 66.312 34.893 66.312 34.84H66.308ZM61.53 34.84C61.53 34.7869 61.5089 34.7361 61.4714 34.6986C61.4339 34.6611 61.383 34.64 61.33 34.64H58.944C58.8909 34.64 58.8401 34.6611 58.8026 34.6986C58.765 34.7361 58.744 34.7869 58.744 34.84C58.744 34.893 58.765 34.9439 58.8026 34.9814C58.8401 35.0189 58.8909 35.04 58.944 35.04H61.334C61.387 35.04 61.4379 35.0189 61.4754 34.9814C61.5129 34.9439 61.534 34.893 61.534 34.84H61.53ZM56.752 34.84C56.752 34.7869 56.7309 34.7361 56.6934 34.6986C56.6559 34.6611 56.605 34.64 56.552 34.64H54.166C54.1129 34.64 54.0621 34.6611 54.0246 34.6986C53.987 34.7361 53.966 34.7869 53.966 34.84C53.966 34.893 53.987 34.9439 54.0246 34.9814C54.0621 35.0189 54.1129 35.04 54.166 35.04H56.556C56.609 35.04 56.6599 35.0189 56.6974 34.9814C56.7349 34.9439 56.756 34.893 56.756 34.84H56.752ZM86.58 87.21V86.01C86.58 85.9569 86.5589 85.9061 86.5214 85.8686C86.4839 85.8311 86.433 85.81 86.38 85.81C86.3269 85.81 86.2761 85.8311 86.2386 85.8686C86.201 85.9061 86.18 85.9569 86.18 86.01V87.21C86.18 87.263 86.201 87.3139 86.2386 87.3514C86.2761 87.3889 86.3269 87.41 86.38 87.41C86.433 87.41 86.4839 87.3889 86.5214 87.3514C86.5589 87.3139 86.58 87.263 86.58 87.21Z" fill="black"/>
<path opacity="0.1" d="M34.476 56.3399V55.3159H33.816V56.3399H32.164V55.3159H31.504V56.3399H29.852V55.3159H29.2V56.3399H28.478V62.5399H35.188V56.3399H34.476ZM30.6 61.1319H29.542V60.0739H30.6V61.1319ZM30.6 59.4579H29.542V58.3999H30.6V59.4579ZM32.362 61.1319H31.304V60.0739H32.362V61.1319ZM32.362 59.4579H31.304V58.3999H32.362V59.4579ZM34.124 61.1319H33.066V60.0739H34.124V61.1319ZM34.124 59.4579H33.066V58.3999H34.124V59.4579Z" fill="black"/>
<path opacity="0.1" d="M73.276 106.94V105.916H72.616V106.94H70.964V105.916H70.304V106.94H68.652V105.916H68V106.94H67.288V113.14H73.998V106.94H73.276ZM69.4 111.74H68.342V110.682H69.4V111.74ZM69.4 110.066H68.342V109H69.4V110.066ZM71.162 111.74H70.104V110.682H71.162V111.74ZM71.162 110.066H70.104V109H71.162V110.066ZM72.924 111.74H71.866V110.682H72.924V111.74ZM72.924 110.066H71.866V109H72.924V110.066Z" fill="black"/>
<path opacity="0.1" d="M104.514 32.482V31.46H103.854V32.482H102.2V31.46H101.54V32.482H99.89V31.46H99.228V32.482H98.516V38.682H105.226V32.482H104.514ZM100.638 37.282H99.58V36.216H100.638V37.282ZM100.638 35.608H99.58V34.542H100.638V35.608ZM102.4 37.274H101.342V36.216H102.4V37.274ZM102.4 35.6H101.342V34.542H102.4V35.6ZM104.162 37.274H103.104V36.216H104.162V37.274ZM104.162 35.6H103.104V34.542H104.162V35.6Z" fill="black"/>
<path d="M53.18 40.5999H105.18C105.288 40.5996 105.394 40.6206 105.494 40.6615C105.593 40.7025 105.684 40.7627 105.76 40.8387C105.836 40.9147 105.896 41.005 105.938 41.1044C105.979 41.2037 106 41.3103 106 41.4179V93.1259H52.362V41.4179C52.362 41.3104 52.3832 41.2041 52.4243 41.1048C52.4654 41.0056 52.5256 40.9154 52.6016 40.8394C52.6775 40.7635 52.7677 40.7032 52.867 40.6621C52.9662 40.621 53.0726 40.5999 53.18 40.5999Z" fill="#E5E5E5"/>
<path d="M61.552 58.1558C61.5524 58.4309 61.4711 58.6999 61.3185 58.9288C61.166 59.1577 60.9489 59.3362 60.6948 59.4416C60.4408 59.5471 60.1611 59.5748 59.8913 59.5212C59.6215 59.4676 59.3736 59.3352 59.1791 59.1407C58.9846 58.9462 58.8522 58.6983 58.7986 58.4285C58.745 58.1587 58.7727 57.879 58.8782 57.625C58.9836 57.3709 59.1621 57.1538 59.391 57.0012C59.6199 56.8487 59.8889 56.7674 60.164 56.7678C60.5319 56.7684 60.8847 56.9148 61.1449 57.1749C61.405 57.4351 61.5514 57.7879 61.552 58.1558Z" fill="#CCCCCC"/>
<path d="M106 46.4639L99.058 53.1299C98.0411 53.0439 97.0183 53.0573 96.004 53.1699C95.9575 53.1725 95.9109 53.1655 95.8672 53.1493C95.8235 53.1331 95.7836 53.1081 95.75 53.0759C94.45 52.0559 93.238 44.6259 92.712 40.5999H92.332C92.75 43.7999 93.972 52.1619 95.516 53.3739C95.5891 53.4373 95.6743 53.4852 95.7664 53.5148C95.8585 53.5443 95.9557 53.5549 96.052 53.5459C96.9294 53.4424 97.8144 53.4197 98.696 53.4779L93.078 58.8779L85.174 53.0219C84.7799 52.7298 84.2926 52.5918 83.8039 52.6338C83.3151 52.6758 82.8585 52.8949 82.52 53.2499C81.67 54.1399 81.026 54.8599 80.602 55.3899C80.042 56.0879 79.158 57.1899 78.172 58.3899L75.234 56.0239C76.978 53.7239 78.486 51.7359 79.376 50.7119C81.186 48.6299 85.376 43.3779 87.576 40.6079H87.092C84.854 43.4279 80.848 48.4439 79.092 50.4639C78.194 51.4959 76.692 53.4859 74.94 55.7899L70.94 52.5679C70.9625 52.5298 70.9704 52.4849 70.9625 52.4414C70.9545 52.3979 70.9312 52.3587 70.8967 52.331C70.8622 52.3033 70.8189 52.289 70.7747 52.2906C70.7305 52.2922 70.6883 52.3097 70.656 52.3399L66.728 49.1779C66.7091 49.1593 66.6865 49.1449 66.6617 49.1356C66.637 49.1263 66.6105 49.1223 66.5841 49.1238C66.5576 49.1253 66.5318 49.1323 66.5082 49.1444C66.4846 49.1565 66.4639 49.1733 66.4472 49.1939C66.4305 49.2145 66.4184 49.2383 66.4115 49.2639C66.4045 49.2895 66.4031 49.3162 66.4071 49.3424C66.4111 49.3686 66.4206 49.3936 66.4349 49.4159C66.4491 49.4382 66.4679 49.4573 66.49 49.4719L70.418 52.6339C69.856 53.3559 68.278 55.3919 67.152 56.9119L56.624 48.7959C56.584 48.7688 56.5352 48.758 56.4875 48.7656C56.4398 48.7733 56.3967 48.7988 56.3672 48.837C56.3376 48.8752 56.3237 48.9233 56.3284 48.9714C56.333 49.0195 56.3557 49.064 56.392 49.0959L66.928 57.2179C66.696 57.5339 66.49 57.8179 66.328 58.0559C65.08 59.8559 63.41 61.5739 60.48 60.6359C57.48 59.6759 57.08 57.4699 57.08 57.3779C57.0725 57.3331 57.0499 57.2922 57.016 57.2619L54.28 54.9119C54.48 53.4519 54.714 51.4019 54.97 48.5119C55.242 45.4539 55.456 42.3999 55.57 40.5979H55.2C54.898 45.1979 54.428 50.9559 53.942 54.6199L52.508 53.3999V53.8999L53.88 55.0799C53.63 56.8799 53.376 58.0799 53.142 58.2459C52.9211 58.3482 52.709 58.4686 52.508 58.6059V59.0659C52.7546 58.8826 53.0185 58.7239 53.296 58.5919C53.458 58.5199 53.768 58.3919 54.216 55.3679L56.708 57.5099C56.798 57.9319 57.396 60.0499 60.358 60.9979C60.9018 61.1793 61.4707 61.2744 62.044 61.2799C64.226 61.2799 65.624 59.7319 66.632 58.2799C66.792 58.0479 66.996 57.7679 67.232 57.4579L71.284 60.5819C69.11 63.3819 66.97 65.9819 65.474 67.3819C63.69 69.0419 61.44 70.9819 59.608 72.5379C57.042 70.8539 54.636 69.0339 54.608 69.0099H54.596L54.584 68.9999L52.52 67.8799V68.3099L53.982 69.1099C53.632 69.1979 53.112 69.3239 52.52 69.4459V69.7999C53.438 69.6119 54.194 69.4139 54.454 69.3439C54.876 69.6619 57.016 71.2599 59.31 72.7679C57.58 74.2299 56.294 75.2819 56.268 75.3039C56.2308 75.3371 56.2073 75.3829 56.2021 75.4325C56.1969 75.4821 56.2104 75.5318 56.24 75.5719C56.2734 75.6088 56.3194 75.6319 56.369 75.6368C56.4185 75.6416 56.4681 75.6277 56.508 75.5979C56.534 75.5759 57.864 74.4859 59.64 72.9859C60.168 73.3279 60.698 73.6619 61.214 73.9719L62.414 74.6779C63.446 75.2879 64.702 76.0319 65.944 76.8139L62.32 80.7519C62.2963 80.7788 62.2803 80.8115 62.2736 80.8467C62.267 80.8819 62.2698 80.9182 62.282 80.9519C62.296 80.9845 62.3183 81.0127 62.3468 81.0338C62.3752 81.0549 62.4088 81.068 62.444 81.0719C62.478 81.0719 65.796 81.3619 68.492 85.1599C70.838 88.4639 73.064 91.2419 76.994 93.1239H77.914C73.58 91.2779 71.258 88.4019 68.8 84.9399C66.506 81.7059 63.814 80.9279 62.842 80.7399L66.27 77.0179C68.748 78.5999 71.088 80.3159 71.366 81.4279C71.766 83.0499 73.738 85.0499 74.684 86.0099C74.926 86.2559 75.134 86.4679 75.18 86.5379C75.444 86.9379 77.18 87.9199 77.518 88.1139L77.56 88.1299C77.9 88.2259 79.988 88.7939 81.644 88.7939C82.508 88.7939 83.254 88.6399 83.574 88.1819C84.086 87.4539 85.574 86.2819 86.774 85.3419C87.622 84.6739 88.356 84.0979 88.624 83.7759C88.698 83.6859 89.038 83.3759 89.582 82.8799L90.994 84.2919L80.214 93.1179H80.814L91.264 84.5599L93.128 86.4239L85.598 93.1179H86.168L93.53 86.5739C93.549 86.5563 93.5642 86.535 93.5746 86.5112C93.585 86.4875 93.5903 86.4618 93.5903 86.4359C93.5903 86.41 93.585 86.3843 93.5746 86.3606C93.5642 86.3368 93.549 86.3155 93.53 86.2979L91.552 84.3199L100.606 76.9039L103.682 79.3799L92.308 89.4899C92.1127 89.664 91.9747 89.8932 91.9123 90.1474C91.8499 90.4015 91.866 90.6685 91.9585 90.9133C92.051 91.1581 92.2155 91.3691 92.4304 91.5184C92.6452 91.6678 92.9003 91.7485 93.162 91.7499C93.46 91.7491 93.7488 91.646 93.98 91.4579L105.852 81.1259L106.02 81.2619V80.4779L105.842 80.6319L104.268 79.3659L106.02 77.8079V77.3019L103.97 79.1239L100.906 76.6579L106 72.4799V71.9999L100.58 76.4239L98.656 74.8739C101.202 72.6519 103.826 70.3719 105.996 68.4879V67.9859C104.468 69.3119 101.464 71.9219 98.356 74.6339L94.556 71.5759C97.902 68.2799 102.402 63.8179 103.114 62.9479C104.314 61.4799 104.788 57.2039 103.638 55.1599C102.944 53.9259 101.238 53.3839 99.546 53.1799L105.994 46.9799L106 46.4639ZM103.958 79.6279L105.528 80.8919L93.712 91.1759C93.5263 91.3321 93.2862 91.4082 93.0445 91.3874C92.8028 91.3666 92.5792 91.2506 92.423 91.0649C92.2668 90.8793 92.1907 90.6391 92.2115 90.3974C92.2324 90.1557 92.3484 89.9321 92.534 89.7759L103.958 79.6279ZM80.894 55.6279C81.294 55.1139 81.96 54.3839 82.79 53.5119C83.0652 53.2245 83.4358 53.0473 83.8323 53.0134C84.2288 52.9796 84.624 53.0914 84.944 53.3279L92.8 59.1399L86.558 65.1399L78.464 58.6199C79.814 56.9719 80.866 55.6579 80.894 55.6219V55.6279ZM75 56.3199L77.926 58.6759C76.818 60.0259 75.608 61.4759 74.598 62.6499L71.798 60.4979C72.894 59.0979 73.984 57.6619 75 56.3199ZM67.444 57.1359C68.564 55.6219 70.14 53.5899 70.704 52.8639L74.704 56.0819C73.686 57.4279 72.594 58.8639 71.504 60.2659L67.444 57.1359ZM65.72 67.6379C67.234 66.2379 69.388 63.6019 71.572 60.7959L74.35 62.9379C73.414 64.0139 72.688 64.7959 72.442 64.9379C71.776 65.3199 66.534 67.9139 64.096 69.1199C64.664 68.6119 65.212 68.1139 65.722 67.6379H65.72ZM66.182 76.5339C64.944 75.7519 63.674 75.0019 62.582 74.3559C62.152 74.1019 61.752 73.8659 61.396 73.6519C60.914 73.3619 60.42 73.0519 59.928 72.7339C60.89 71.9179 61.962 70.9979 63.02 70.0699C63.376 69.8939 71.748 65.7679 72.62 65.2699C72.902 65.1079 73.684 64.2699 74.662 63.1459H74.672C74.701 63.1461 74.7297 63.1396 74.7558 63.1267C74.7818 63.1139 74.8045 63.0951 74.822 63.0719C74.8384 63.0506 74.85 63.0259 74.8559 62.9997C74.8617 62.9734 74.8618 62.9462 74.856 62.9199C75.9 61.7199 77.132 60.2299 78.212 58.9199L86.28 65.3999L82.13 69.3859H82.12L75.672 77.3219L69.878 72.7799C69.8394 72.7524 69.7922 72.7395 69.745 72.7435C69.6977 72.7475 69.6534 72.7682 69.62 72.8019L66.182 76.5339ZM83.24 87.9739C82.582 88.9139 79.01 88.1579 77.66 87.7739C76.892 87.3399 75.636 86.5739 75.472 86.3299C75.3043 86.1236 75.1233 85.9285 74.93 85.7459C74.008 84.8099 72.09 82.8599 71.71 81.3459C71.404 80.1199 69.058 78.3739 66.51 76.7459L69.782 73.1939L75.582 77.7559C75.6218 77.7843 75.6707 77.7972 75.7193 77.792C75.768 77.7869 75.813 77.7641 75.846 77.7279L82.124 69.9999L84.088 87.0659C83.7768 87.34 83.4935 87.6442 83.242 87.9739H83.24ZM89.414 82.5019C88.788 83.0659 88.388 83.4379 88.3 83.5419C88.058 83.8319 87.3 84.4259 86.5 85.0519C85.8 85.6039 85.05 86.1959 84.424 86.7439L82.46 69.5999L86.576 65.6459L93.988 71.5999C92.088 73.4719 90.628 74.8979 90.588 74.9359C90.5593 74.9655 90.5404 75.0032 90.534 75.0439L89.414 82.5019ZM98.364 75.1279L100.278 76.6699L91.256 84.0579L89.832 82.6339C91.564 81.0779 94.872 78.1779 98.366 75.1279H98.364ZM98.064 74.8859C94.914 77.6359 91.702 80.4519 89.864 82.1039L90.904 75.1679C91.202 74.8759 92.57 73.5379 94.292 71.8439L98.064 74.8859ZM94.264 71.3359L86.864 65.3739L93.118 59.3739L100.678 64.9739C98.878 66.7759 96.342 69.2879 94.26 71.3359H94.264ZM103.314 55.3359C104.38 57.2359 103.934 61.3459 102.826 62.6999C102.586 62.9939 101.888 63.7239 100.938 64.6879L93.386 59.0879L99.2 53.5179C100.956 53.6959 102.678 54.2219 103.31 55.3439L103.314 55.3359Z" fill="white"/>
<path d="M104.152 87.0598H74.03V92.2538H104.152V87.0598Z" fill="white"/>
<path d="M78.042 89.5398H76.06V91.8058H78.042V89.5398Z" fill="#3DAA5F"/>
<path d="M80.78 89.4919H78.798V91.8059H80.78V89.4919Z" fill="#3DAA5F"/>
<path d="M83.518 88.9739H81.536V91.8059H83.518V88.9739Z" fill="#3DAA5F"/>
<path d="M86.256 90.2959H84.274V91.8059H86.256V90.2959Z" fill="#3DAA5F"/>
<path d="M88.994 88.7839H87.012V91.8059H88.994V88.7839Z" fill="#3DAA5F"/>
<path d="M91.734 89.6819H89.752V91.8059H91.734V89.6819Z" fill="#3DAA5F"/>
<path d="M94.472 90.6719H92.49V91.8059H94.472V90.6719Z" fill="#3DAA5F"/>
<path d="M97.212 90.106H95.228V91.806H97.212V90.106Z" fill="#3DAA5F"/>
<path d="M99.948 90.5779H97.966V91.8059H99.948V90.5779Z" fill="#3DAA5F"/>
<path d="M102.688 88.7839H100.706V91.8059H102.688V88.7839Z" fill="#3DAA5F"/>
<path d="M52.508 93.1259H65.908C64.99 92.6859 63.61 91.9939 63.442 91.7439C63.19 91.3659 61.802 88.9659 61.042 88.8399C60.282 88.7139 60.032 89.5979 60.032 89.5979L61.672 92.2499L61.042 91.8699C61.042 91.8699 59.526 90.2279 59.148 89.9759C58.77 89.7239 59.148 88.7139 59.274 87.9559C59.4 87.1979 60.274 86.6939 60.536 86.0619C60.798 85.4299 60.536 83.5359 60.536 82.9059C60.536 82.2759 59.4 80.3799 58.642 78.8639C57.884 77.3479 55.36 74.4459 53.97 73.8139C53.5007 73.6209 53.0065 73.495 52.502 73.4399L52.508 93.1259Z" fill="#CCCCCC"/>
<path d="M84.028 55.6299L82.008 58.1559L84.534 61.4399L89.206 59.0399L84.028 55.6299Z" fill="#CCCCCC"/>
<path d="M86.554 66.9958L83.65 69.7738L84.786 75.9599L87.942 76.8439L88.954 74.1919L91.984 71.2879L86.554 66.9958Z" fill="#CCCCCC"/>
<path d="M53.18 40.5999H105.18C105.288 40.5996 105.394 40.6206 105.494 40.6615C105.593 40.7025 105.684 40.7627 105.76 40.8387C105.836 40.9147 105.896 41.005 105.938 41.1044C105.979 41.2037 106 41.3103 106 41.4179V93.1259H52.362V41.4179C52.362 41.3104 52.3832 41.2041 52.4243 41.1048C52.4654 41.0056 52.5256 40.9154 52.6016 40.8394C52.6775 40.7635 52.7677 40.7032 52.867 40.6621C52.9662 40.621 53.0726 40.5999 53.18 40.5999Z" stroke="#263238" stroke-width="0.5" stroke-linecap="round" stroke-linejoin="round"/>
<path d="M53.18 40.5999H105.18C105.288 40.5996 105.394 40.6206 105.494 40.6615C105.593 40.7025 105.684 40.7627 105.76 40.8387C105.836 40.9147 105.896 41.005 105.938 41.1044C105.979 41.2037 106 41.3103 106 41.4179V50.6999H52.362V41.4179C52.362 41.3104 52.3832 41.2041 52.4243 41.1048C52.4654 41.0056 52.5256 40.9154 52.6016 40.8394C52.6775 40.7635 52.7677 40.7032 52.867 40.6621C52.9662 40.621 53.0726 40.5999 53.18 40.5999Z" fill="#3DAA5F" stroke="#263238" stroke-width="0.5" stroke-linecap="round" stroke-linejoin="round"/>
<path d="M98.17 46.918H55.87V48.686H98.17V46.918Z" fill="white" stroke="#263238" stroke-width="0.5" stroke-linecap="round" stroke-linejoin="round"/>
<path d="M105.22 40.5999H55.836V45.1479H106V41.3739C106 41.2718 105.979 41.1708 105.94 41.0766C105.901 40.9824 105.843 40.8969 105.771 40.825C105.698 40.7531 105.612 40.6962 105.518 40.6576C105.423 40.619 105.322 40.5993 105.22 40.5999Z" fill="#808080" stroke="#263238" stroke-width="0.5" stroke-linecap="round" stroke-linejoin="round"/>
<path d="M53.18 40.5999H105.18C105.288 40.5996 105.394 40.6206 105.494 40.6615C105.593 40.7025 105.684 40.7627 105.76 40.8387C105.836 40.9147 105.896 41.005 105.938 41.1044C105.979 41.2037 106 41.3103 106 41.4179V43.5579H52.362V41.4179C52.362 41.3104 52.3832 41.2041 52.4243 41.1048C52.4654 41.0056 52.5256 40.9154 52.6016 40.8394C52.6775 40.7635 52.7677 40.7032 52.867 40.6621C52.9662 40.621 53.0726 40.5999 53.18 40.5999Z" fill="#263238" stroke="#263238" stroke-width="0.5" stroke-linecap="round" stroke-linejoin="round"/>
<path d="M103.792 42.5338C104.015 42.5338 104.196 42.353 104.196 42.1298C104.196 41.9067 104.015 41.7258 103.792 41.7258C103.569 41.7258 103.388 41.9067 103.388 42.1298C103.388 42.353 103.569 42.5338 103.792 42.5338Z" fill="white"/>
<path d="M102.124 42.5338C102.347 42.5338 102.528 42.353 102.528 42.1298C102.528 41.9067 102.347 41.7258 102.124 41.7258C101.901 41.7258 101.72 41.9067 101.72 42.1298C101.72 42.353 101.901 42.5338 102.124 42.5338Z" fill="white"/>
<path d="M100.456 42.5338C100.679 42.5338 100.86 42.353 100.86 42.1298C100.86 41.9067 100.679 41.7258 100.456 41.7258C100.233 41.7258 100.052 41.9067 100.052 42.1298C100.052 42.353 100.233 42.5338 100.456 42.5338Z" fill="white"/>
<path d="M91.98 58.5999H85.32C85.1959 58.5996 85.0729 58.6238 84.9582 58.6711C84.8434 58.7185 84.7391 58.788 84.6512 58.8756C84.5634 58.9633 84.4936 59.0675 84.4461 59.1821C84.3985 59.2968 84.374 59.4197 84.374 59.5439V65.7999C84.374 65.924 84.3985 66.0469 84.4461 66.1616C84.4936 66.2762 84.5634 66.3804 84.6512 66.4681C84.7391 66.5558 84.8434 66.6252 84.9582 66.6726C85.0729 66.7199 85.1959 66.7441 85.32 66.7439H87.29L88.738 69.5999L90.068 66.7499H91.98C92.2304 66.7499 92.4705 66.6504 92.6475 66.4734C92.8246 66.2963 92.924 66.0562 92.924 65.8059V59.5439C92.924 59.2935 92.8246 59.0534 92.6475 58.8763C92.4705 58.6993 92.2304 58.5999 91.98 58.5999Z" fill="#263238" stroke="#263238" stroke-linecap="round" stroke-linejoin="round"/>
<path d="M87.4 61.6379L87.63 60.1079H88.102V62.2639H87.782V60.7179L87.548 62.2639H87.228L86.974 60.7399V62.2639H86.68V60.1079H87.15L87.4 61.6379Z" fill="#3DAA5F"/>
<path d="M88.312 60.6258C88.312 60.4895 88.3662 60.3588 88.4626 60.2624C88.559 60.166 88.6897 60.1118 88.826 60.1118C88.9623 60.1118 89.0931 60.166 89.1895 60.2624C89.2859 60.3588 89.34 60.4895 89.34 60.6258V61.7458C89.34 61.8821 89.2859 62.0129 89.1895 62.1093C89.0931 62.2057 88.9623 62.2598 88.826 62.2598C88.6897 62.2598 88.559 62.2057 88.4626 62.1093C88.3662 62.0129 88.312 61.8821 88.312 61.7458V60.6258ZM88.65 61.7678C88.65 61.9218 88.718 61.9798 88.826 61.9798C88.934 61.9798 89 61.9218 89 61.7678V60.5998C89 60.4458 88.932 60.3878 88.826 60.3878C88.72 60.3878 88.65 60.4458 88.65 60.5998V61.7678Z" fill="#3DAA5F"/>
<path d="M89.86 60.7019V62.2639H89.556V60.1079H89.98L90.328 61.3979V60.1079H90.63V62.2639H90.282L89.86 60.7019Z" fill="#3DAA5F"/>
<path d="M88.048 63.3439C87.94 63.3439 87.874 63.4019 87.874 63.5559V63.7859H87.552V63.5859C87.552 63.2399 87.726 63.0439 88.058 63.0439C88.39 63.0439 88.562 63.2439 88.562 63.5859C88.562 64.2619 87.888 64.5159 87.888 64.8699C87.8861 64.8852 87.8861 64.9007 87.888 64.9159H88.528V65.2239H87.548V64.9579C87.548 64.3239 88.22 64.2199 88.22 63.5979C88.224 63.3999 88.156 63.3439 88.048 63.3439Z" fill="#3DAA5F"/>
<path d="M89.268 63.3439C89.16 63.3439 89.092 63.4019 89.092 63.5559V63.7859H88.772V63.5859C88.772 63.2399 88.946 63.0439 89.278 63.0439C89.61 63.0439 89.782 63.2439 89.782 63.5859C89.782 64.2619 89.108 64.5159 89.108 64.8699C89.1061 64.8852 89.1061 64.9007 89.108 64.9159H89.748V65.2239H88.768V64.9579C88.768 64.3239 89.44 64.2199 89.44 63.5979C89.444 63.3999 89.376 63.3439 89.268 63.3439Z" fill="#3DAA5F"/>
<path d="M88.65 71.7079C89.0576 71.7079 89.388 71.3775 89.388 70.9699C89.388 70.5623 89.0576 70.2319 88.65 70.2319C88.2425 70.2319 87.912 70.5623 87.912 70.9699C87.912 71.3775 88.2425 71.7079 88.65 71.7079Z" fill="#3DAA5F" stroke="#263238" stroke-linecap="round" stroke-linejoin="round"/>
<path d="M65.874 53.2399C66.2816 53.2399 66.612 52.9095 66.612 52.5019C66.612 52.0943 66.2816 51.7639 65.874 51.7639C65.4665 51.7639 65.136 52.0943 65.136 52.5019C65.136 52.9095 65.4665 53.2399 65.874 53.2399Z" fill="#3DAA5F" stroke="#263238" stroke-linecap="round" stroke-linejoin="round"/>
<path d="M76.338 70.7239C76.3376 70.8698 76.294 71.0123 76.2126 71.1334C76.1313 71.2545 76.0159 71.3487 75.881 71.4043C75.7461 71.4598 75.5978 71.4742 75.4548 71.4455C75.3118 71.4168 75.1805 71.3463 75.0775 71.243C74.9744 71.1397 74.9043 71.0082 74.876 70.8651C74.8477 70.722 74.8625 70.5737 74.9184 70.439C74.9743 70.3043 75.0689 70.1891 75.1902 70.1081C75.3115 70.0271 75.4541 69.9839 75.6 69.9839C75.6971 69.9839 75.7932 70.003 75.8829 70.0403C75.9726 70.0775 76.054 70.132 76.1225 70.2007C76.1911 70.2695 76.2454 70.3511 76.2824 70.4409C76.3194 70.5306 76.3383 70.6268 76.338 70.7239Z" fill="#3DAA5F" stroke="#263238" stroke-linecap="round" stroke-linejoin="round"/>
<path d="M59.922 65.8998C60.3296 65.8998 60.66 65.5694 60.66 65.1618C60.66 64.7542 60.3296 64.4238 59.922 64.4238C59.5144 64.4238 59.184 64.7542 59.184 65.1618C59.184 65.5694 59.5144 65.8998 59.922 65.8998Z" fill="#3DAA5F" stroke="#263238" stroke-linecap="round" stroke-linejoin="round"/>
<path d="M62.984 83.7378C62.984 83.8842 62.9406 84.0272 62.8593 84.1489C62.778 84.2706 62.6624 84.3655 62.5272 84.4215C62.392 84.4775 62.2432 84.4921 62.0997 84.4636C61.9561 84.435 61.8243 84.3646 61.7208 84.2611C61.6173 84.1576 61.5468 84.0257 61.5182 83.8822C61.4897 83.7386 61.5043 83.5898 61.5604 83.4546C61.6164 83.3194 61.7112 83.2038 61.8329 83.1225C61.9546 83.0412 62.0977 82.9978 62.244 82.9978C62.4403 82.9978 62.6285 83.0758 62.7673 83.2145C62.9061 83.3533 62.984 83.5415 62.984 83.7378Z" fill="#3DAA5F" stroke="#263238" stroke-linecap="round" stroke-linejoin="round"/>
<path d="M97.198 83.2538C97.6056 83.2538 97.936 82.9234 97.936 82.5158C97.936 82.1082 97.6056 81.7778 97.198 81.7778C96.7904 81.7778 96.46 82.1082 96.46 82.5158C96.46 82.9234 96.7904 83.2538 97.198 83.2538Z" fill="#3DAA5F" stroke="#263238" stroke-linecap="round" stroke-linejoin="round"/>
<path d="M100.98 60.5219C101.388 60.5219 101.718 60.1915 101.718 59.7839C101.718 59.3763 101.388 59.0459 100.98 59.0459C100.572 59.0459 100.242 59.3763 100.242 59.7839C100.242 60.1915 100.572 60.5219 100.98 60.5219Z" fill="#3DAA5F" stroke="#263238" stroke-linecap="round" stroke-linejoin="round"/>
<path d="M97.0221 53.3639C97.4296 53.3639 97.7601 53.0335 97.7601 52.6259C97.7601 52.2184 97.4296 51.8879 97.0221 51.8879C96.6145 51.8879 96.2841 52.2184 96.2841 52.6259C96.2841 53.0335 96.6145 53.3639 97.0221 53.3639Z" fill="#3DAA5F" stroke="#263238" stroke-linecap="round" stroke-linejoin="round"/>
<path d="M99.036 71.7559C99.036 71.9023 98.9926 72.0455 98.9112 72.1672C98.8298 72.2889 98.7141 72.3838 98.5788 72.4397C98.4434 72.4957 98.2945 72.5102 98.1509 72.4815C98.0073 72.4528 97.8755 72.3821 97.7721 72.2784C97.6687 72.1747 97.5983 72.0427 97.57 71.899C97.5417 71.7553 97.5566 71.6065 97.6129 71.4713C97.6692 71.3361 97.7644 71.2207 97.8864 71.1396C98.0083 71.0585 98.1516 71.0155 98.298 71.0159C98.3951 71.0159 98.4912 71.035 98.5809 71.0722C98.6706 71.1095 98.752 71.164 98.8206 71.2327C98.8891 71.3015 98.9435 71.3831 98.9804 71.4728C99.0174 71.5626 99.0363 71.6588 99.036 71.7559Z" fill="#3DAA5F" stroke="#263238" stroke-linecap="round" stroke-linejoin="round"/>
<path d="M78.678 64.8139C79.0856 64.8139 79.416 64.4835 79.416 64.0759C79.416 63.6683 79.0856 63.3379 78.678 63.3379C78.2704 63.3379 77.94 63.6683 77.94 64.0759C77.94 64.4835 78.2704 64.8139 78.678 64.8139Z" fill="#3DAA5F" stroke="#263238" stroke-linecap="round" stroke-linejoin="round"/>
<path d="M36.1 96.4C36.1 96.4 36.55 101.4 36.7 102.45C36.85 103.5 36.2 104.15 35.55 104.85C34.9 105.55 34.65 107 34.65 108.1C34.65 109.2 34.5 114.7 34.5 115.05C34.5 115.4 34.4 116.25 34.4 116.25C34.4 116.25 36 116.2 36.2 116.2C36.4 116.2 37.15 113.35 37.35 112.55C37.55 111.75 39.1 106.7 39.7 105.3C40.3 103.9 40.3 102.85 40.55 102.3C40.8 101.75 41.1 97.25 41.1 97.25C41.1 97.25 43.8 102 43.9 102.65C44 103.3 44.05 103.45 43.8 104C43.55 104.55 43 105.55 43.05 107.7C43.1 109.85 44.28 113.654 44.28 113.654L44.43 116.004C44.43 116.004 45.33 116.354 45.78 116.554C46.23 116.754 46.93 115.704 46.93 115.704C46.93 115.704 46.9 113.95 46.85 112.65C46.8 111.35 47.15 106.65 47.35 105.85C47.55 105.05 47.85 103.3 47.65 102.2C47.45 101.1 46.8 96.05 46.8 96.05C46.8 96.05 39.2 96.5 38.25 96.35C37.3 96.2 36.05 96.15 36.05 96.15L36.1 96.4Z" fill="#263238" stroke="#263238" stroke-width="0.3" stroke-linecap="round" stroke-linejoin="round"/>
<path d="M37.1 114.55L37.4 116.1C37.4 116.1 38.65 117.15 39.15 117.55C39.65 117.95 39.95 117.85 39.95 118.2C39.95 118.55 39.6 119.1 38.75 119.25C37.9 119.4 36.75 119.2 35.8 118.9C35.2596 118.743 34.7775 118.43 34.414 118C34.414 118 33.89 118.122 33.89 117.522C33.89 116.922 34.322 115.562 34.322 115.562C34.322 115.562 34.122 114.818 34.322 114.718C34.522 114.618 35.2 115.35 35.2 115.35C35.2 115.35 35.3 113.6 37.1 114.55Z" fill="white" stroke="#263238" stroke-width="0.3" stroke-linecap="round" stroke-linejoin="round"/>
<path d="M39.924 118.372C39.8213 118.341 39.711 118.347 39.612 118.388C39.0647 118.697 38.4493 118.865 37.8211 118.878C37.1928 118.89 36.5712 118.747 36.012 118.46C34.834 117.896 34.232 117.33 33.95 116.998C33.9139 117.173 33.8931 117.35 33.888 117.528C33.888 118.128 34.412 118.006 34.412 118.006C34.7769 118.434 35.2596 118.745 35.8 118.9C36.75 119.2 37.9 119.4 38.75 119.25C39.47 119.122 39.83 118.708 39.924 118.372Z" fill="#D2F4DC" stroke="#263238" stroke-width="0.3" stroke-linecap="round" stroke-linejoin="round"/>
<path d="M47.368 114.504C47.2233 114.477 47.0737 114.498 46.9422 114.564C46.8107 114.63 46.7045 114.738 46.64 114.87C46.416 115.34 46.192 115.968 46.192 115.968C45.8143 115.933 45.4403 115.866 45.074 115.768C44.9044 115.673 44.7528 115.549 44.626 115.402C44.626 115.402 44.178 114.514 43.898 114.828C43.618 115.142 44.178 116.186 44.178 116.186C44.178 116.186 43.73 117.022 43.73 117.546C43.7427 117.904 43.8185 118.258 43.954 118.59C44.4867 118.712 45.0298 118.782 45.576 118.8C46.304 118.8 46.36 118.59 47.144 118.59C47.928 118.59 49.944 119.06 50.614 118.904C51.284 118.748 51.902 118.276 51.846 117.964C51.79 117.652 49.494 116.866 48.766 116.396C48.038 115.926 47.928 115.978 47.816 115.768C47.704 115.558 47.368 114.504 47.368 114.504Z" fill="white" stroke="#263238" stroke-width="0.3" stroke-linecap="round" stroke-linejoin="round"/>
<path d="M51.848 118C51.076 118.78 50.048 118.66 49.176 118.484C48.1035 118.24 47.0025 118.144 45.904 118.2C45.2053 118.24 44.5044 118.217 43.81 118.13C43.8467 118.283 43.8948 118.432 43.954 118.578C44.4867 118.7 45.0299 118.77 45.576 118.788C46.304 118.788 46.36 118.578 47.144 118.578C47.928 118.578 49.944 119.048 50.614 118.892C51.252 118.744 51.838 118.314 51.848 118Z" fill="#3DAA5F" stroke="#263238" stroke-width="0.3" stroke-linecap="round" stroke-linejoin="round"/>
<path d="M34.95 94.6L34.8 96.832C34.8 96.832 38.55 97.682 41.65 97.594C44.75 97.506 48.05 96.206 48.05 96.206L47.4 93.878C47.4 93.878 40.55 93.834 39.2 93.744C37.85 93.654 37 92.714 36.5 92.848C36 92.982 35.4 94.55 35.4 94.55L34.95 94.6Z" fill="white" stroke="#263238" stroke-width="0.3" stroke-linecap="round" stroke-linejoin="round"/>
<path d="M47.4 92.2499L47.85 94.5499C47.85 94.5499 46.9 95.0999 44 95.3499C41.1 95.5999 37.4 95.2499 37.4 95.2499L36.7 93.7499L36.45 95.4999H35C34.86 95.5035 34.7217 95.469 34.6 95.3999L35.05 93.5499C35.05 93.5499 35.25 91.6999 36.2 91.2499C37.15 90.7999 37.95 91.2999 38.6 91.8999C39.25 92.4999 40 92.3999 41.05 92.3999C42.1 92.3999 46.55 91.9499 46.55 91.9499C46.55 91.9499 47.3 91.6999 47.4 92.2499Z" fill="#969696" stroke="#263238" stroke-width="0.3" stroke-linecap="round" stroke-linejoin="round"/>
<path d="M45.9 75.2499C45.9 75.2499 47.7 79.8499 48.45 81.4999C49.2 83.1499 49.9 85.0499 49.8 86.0999C49.7 87.1499 48.45 89.8999 48.45 89.8999C48.45 89.8999 47.25 81.9999 47 81.1999C46.75 80.3999 45.6 75.9499 45.6 75.9499C45.6 75.9499 45.1 74.9999 45.9 75.2499Z" fill="#3DAA5F" stroke="#263238" stroke-width="0.3" stroke-linecap="round" stroke-linejoin="round"/>
<path d="M36.082 73.506C36.082 73.506 35.032 74.596 34.708 75.928C34.384 77.26 34.144 93.89 34.144 94.172C34.144 94.454 35.344 93.808 35.596 93.688C35.848 93.568 36.848 91.67 36.848 91.67L37.332 93.606C37.332 93.606 39.552 93.364 41.41 93.364C43.268 93.364 48.15 92.92 48.15 92.92C48.15 92.92 48.594 90.216 48.55 88.762C48.506 87.308 48.2 85.01 48.2 84.646C48.2 84.282 46.666 76.614 46.102 75.484C45.538 74.354 44.81 73.344 44.688 73.264C44.566 73.184 43.114 72.334 41.742 72.264C40.37 72.194 39.442 71.82 38.23 72.386C37.018 72.952 36.082 73.506 36.082 73.506Z" fill="#3DAA5F" stroke="#263238" stroke-width="0.3" stroke-linecap="round" stroke-linejoin="round"/>
<path d="M43.952 78.47C43.952 78.47 44.638 82.426 44.84 83.758C45.042 85.09 45.486 90.296 45.486 91.064V92.88" stroke="#263238" stroke-width="0.3" stroke-linecap="round" stroke-linejoin="round"/>
<path d="M42.7419 80.166C42.7419 80.166 43.5079 84.122 43.9119 86.502C44.3159 88.882 44.1999 92.274 44.1999 92.274" stroke="#263238" stroke-width="0.3" stroke-linecap="round" stroke-linejoin="round"/>
<path d="M38.382 80.488L41.854 80.166L41.974 80.932L38.624 81.214" stroke="#263238" stroke-width="0.3" stroke-linecap="round" stroke-linejoin="round"/>
<path d="M47.06 79.6799L45.042 79.8419L45.204 80.5279L46.98 80.3679" stroke="#263238" stroke-width="0.3" stroke-linecap="round" stroke-linejoin="round"/>
<path d="M41.248 69.872C41.248 69.872 39.39 69.51 38.826 69.752C38.262 69.994 37.736 70.962 37.574 71.286C37.412 71.61 35.718 72.286 35.596 72.778C35.474 73.27 35.556 74.07 35.758 74.272C35.96 74.474 37.13 74.394 37.414 74.472C37.698 74.55 41.49 77.056 42.136 77.46C42.782 77.864 43.912 78.428 44.074 78.26C44.236 78.092 45.244 75.6 45.4 74.434C45.556 73.268 45.358 72.98 44.834 72.012C44.31 71.044 42.216 70 41.248 69.872Z" fill="#263238" stroke="#263238" stroke-width="0.3" stroke-linecap="round" stroke-linejoin="round"/>
<path d="M40.682 66.684C40.682 66.684 40.966 68.46 40.966 68.944C40.966 69.428 40.2 71.73 40.2 71.73C40.2 71.73 41.734 75.04 42.582 75.968C43.43 76.896 43.834 77.098 43.834 77.098C43.834 77.098 43.954 75.2 44.076 74.312C44.198 73.424 45.476 70.828 45.476 70.828C45.476 70.828 43.554 71.124 43.312 69.872C43.07 68.62 43.15 67.532 42.912 66.886C42.674 66.24 41.168 66.4 40.682 66.684Z" fill="white" stroke="#263238" stroke-width="0.3" stroke-linecap="round" stroke-linejoin="round"/>
<path d="M43.41 70.234L42.488 70.062L42.564 70.862C42.564 70.862 43.132 72.34 44.194 73.098C44.2494 73.1376 44.3068 73.1743 44.366 73.208C44.586 72.572 45.47 70.832 45.47 70.832C45.47 70.832 43.8 71.292 43.41 70.234Z" fill="#263238" stroke="#263238" stroke-width="0.3" stroke-linecap="round" stroke-linejoin="round"/>
<path d="M46.658 66.188L46.594 67.296C46.594 67.296 47.594 68.02 47.694 68.37C47.794 68.72 47.21 69.17 47.21 69.17C47.21 69.17 47.12 71.082 46.954 71.382C46.788 71.682 45.954 71.706 45.494 71.71C45.034 71.714 42.752 71.058 42.358 70.71C41.964 70.362 41.488 69.11 41.488 69.11C41.488 69.11 40.984 67.324 40.906 67.052C40.828 66.78 41.106 66.408 42.306 66.03C43.506 65.652 46.722 65.668 46.658 66.188Z" fill="white" stroke="#263238" stroke-width="0.3" stroke-linecap="round" stroke-linejoin="round"/>
<path d="M41.264 67.4899C41.264 67.4899 41.54 68.1059 42.064 67.7179C42.393 67.4306 42.6127 67.0385 42.686 66.6079L39.63 67.4359C39.63 67.4359 39.392 68.6799 39.872 69.2719C40.352 69.8639 41.052 69.5279 41.012 69.0199C40.972 68.5119 41.264 67.4899 41.264 67.4899Z" fill="#263238" stroke="#263238" stroke-width="0.3" stroke-linecap="round" stroke-linejoin="round"/>
<path d="M46.376 69.8C46.376 69.8 45.71 69.82 45.318 69.468" stroke="#263238" stroke-width="0.3" stroke-linecap="round" stroke-linejoin="round"/>
<path d="M45.652 67.374C45.704 67.556 45.676 67.724 45.59 67.748C45.504 67.772 45.39 67.644 45.34 67.462C45.29 67.28 45.318 67.112 45.404 67.088C45.49 67.064 45.6 67.2 45.652 67.374Z" fill="#263238"/>
<path d="M39.58 67.558C39.58 67.558 41.38 67.258 43.558 66.644C45.736 66.03 46.682 65.678 46.682 65.678L45.71 62.61C45.5929 62.3414 45.3786 62.127 45.11 62.01C44.488 61.73 43.196 61.794 42.266 61.938C40.94 62.138 39.914 62.52 39.384 63.466C38.9748 64.2383 38.8692 65.1357 39.088 65.982C39.234 66.48 39.58 67.558 39.58 67.558Z" fill="#263238" stroke="#263238" stroke-width="0.3" stroke-linecap="round" stroke-linejoin="round"/>
<path d="M42.8199 66.8519C42.8199 66.8519 46.1259 66.6739 47.3899 66.4019C48.6539 66.1299 49.6959 64.6179 49.6959 64.6179L46.6679 65.0179C45.2253 65.2125 43.8797 65.8538 42.8199 66.8519Z" fill="#263238" stroke="#263238" stroke-width="0.3" stroke-linecap="round" stroke-linejoin="round"/>
<path d="M41.564 67.7519C41.564 67.7519 41.284 66.9079 40.564 67.1939C39.844 67.4799 40.242 68.8799 40.778 69.4399C41.314 69.9999 41.978 69.2279 41.978 69.2279" fill="white"/>
<path d="M41.564 67.7519C41.564 67.7519 41.284 66.9079 40.564 67.1939C39.844 67.4799 40.242 68.8799 40.778 69.4399C41.314 69.9999 41.978 69.2279 41.978 69.2279" stroke="#263238" stroke-width="0.3" stroke-linecap="round" stroke-linejoin="round"/>
<path d="M45.082 84.8001L48.6 82.1701C48.6237 82.153 48.6529 82.1452 48.682 82.1481L51.148 82.3841C51.1779 82.3872 51.206 82.3997 51.2285 82.4197C51.251 82.4397 51.2666 82.4662 51.2732 82.4956C51.2799 82.5249 51.2771 82.5556 51.2654 82.5833C51.2537 82.611 51.2336 82.6343 51.208 82.6501L48.072 84.5241L45.082 84.8001Z" fill="#263238" stroke="#263238" stroke-width="0.3" stroke-linecap="round" stroke-linejoin="round"/>
<path d="M42.902 84.968C43.2464 84.9362 43.572 84.7962 43.832 84.568C44.194 84.204 44.832 83.114 45.122 83.034C45.7877 82.8862 46.4615 82.7781 47.14 82.71C47.424 82.71 47.584 82.91 47.34 83.154C47.096 83.398 45.968 83.922 45.968 83.922L45.848 84.322C45.848 84.322 48.914 83.96 49.158 83.96C49.2617 83.967 49.3595 84.0114 49.433 84.0849C49.5066 84.1585 49.551 84.2562 49.558 84.36C49.558 84.52 48.912 85.006 48.712 85.206C48.2113 85.6288 47.685 86.0202 47.136 86.378C46.854 86.538 43.948 86.296 43.828 86.296C43.708 86.296 42.858 86.496 42.858 86.496L42.902 84.968Z" fill="white" stroke="#263238" stroke-width="0.3" stroke-linecap="round" stroke-linejoin="round"/>
<path d="M49.2 84.7261C49.2 84.7261 47.908 85.0101 47.626 85.1701C47.344 85.3301 46.374 85.1701 46.374 85.1701" stroke="#263238" stroke-width="0.3" stroke-linecap="round" stroke-linejoin="round"/>
<path d="M48.27 85.5339L47.382 85.8159L46.454 85.8559" stroke="#263238" stroke-width="0.3" stroke-linecap="round" stroke-linejoin="round"/>
<path d="M38.302 77.3C38.342 78.026 37.454 82.426 37.454 82.426L37.654 83.072V83.234L43.264 84.766C43.264 84.766 43.264 86.3 43.022 86.986C42.8325 87.6082 42.6841 88.2423 42.578 88.884C42.578 88.884 40.116 88.284 38.098 87.592C36.08 86.9 32.93 85.898 32.326 85.21C31.722 84.522 32.084 82.79 32.164 82.506C32.244 82.222 34.504 76.29 34.948 75.484C35.392 74.678 36.038 73.91 36.886 74.152C37.734 74.394 38.38 75.484 38.46 75.968" fill="#3DAA5F"/>
<path d="M38.302 77.3C38.342 78.026 37.454 82.426 37.454 82.426L37.654 83.072V83.234L43.264 84.766C43.264 84.766 43.264 86.3 43.022 86.986C42.8325 87.6082 42.6841 88.2423 42.578 88.884C42.578 88.884 40.116 88.284 38.098 87.592C36.08 86.9 32.93 85.898 32.326 85.21C31.722 84.522 32.084 82.79 32.164 82.506C32.244 82.222 34.504 76.29 34.948 75.484C35.392 74.678 36.038 73.91 36.886 74.152C37.734 74.394 38.38 75.484 38.46 75.968" stroke="#263238" stroke-width="0.3" stroke-linecap="round" stroke-linejoin="round"/>
<path d="M34.634 83.372C34.9417 83.1898 35.265 83.0352 35.6 82.91C35.964 82.83 37.376 83.152 37.376 83.152" stroke="#263238" stroke-width="0.3" stroke-linecap="round" stroke-linejoin="round"/>
<path d="M33.4579 84.04C33.4579 84.04 33.7979 83.84 34.2119 83.606" stroke="#263238" stroke-width="0.3" stroke-linecap="round" stroke-linejoin="round"/>
<path d="M35.9779 82.022C35.7798 81.9278 35.5699 81.8606 35.3539 81.822C35.0719 81.822 33.8199 82.422 33.8199 82.422" stroke="#263238" stroke-width="0.3" stroke-linecap="round" stroke-linejoin="round"/>
<path d="M37.05 82.506C37.05 82.506 36.818 82.394 36.522 82.26" stroke="#263238" stroke-width="0.3" stroke-linecap="round" stroke-linejoin="round"/>
<defs>
<linearGradient id="paint0_linear_1136_6797" x1="63" y1="0" x2="63" y2="125" gradientUnits="userSpaceOnUse">
<stop stop-color="#88FFAD" stop-opacity="0.19"/>
<stop offset="1" stop-color="#33CC7A"/>
</linearGradient>
</defs>
</svg>
