<svg width="126" height="125" viewBox="0 0 126 125" fill="none" xmlns="http://www.w3.org/2000/svg">
<path fill-rule="evenodd" clip-rule="evenodd" d="M113.698 71.5714C112.802 71.8214 111.542 71.9464 109.918 71.9464C108.266 71.9742 106.418 71.9603 104.374 71.9048C102.33 71.8492 100.286 71.8214 98.2421 71.8214C96.17 71.8492 94.294 72.002 92.6139 72.2798C90.9339 72.5298 89.5898 72.9743 88.5818 73.6132C87.5458 74.2521 86.8037 75.0715 86.3557 76.0716C85.8797 77.0438 85.6137 78.1966 85.5577 79.53C85.5017 80.8356 85.5577 82.2801 85.7257 83.8634C85.8937 85.4468 86.0757 87.1552 86.2717 88.9886C86.4957 90.822 86.6497 92.7387 86.7337 94.7387C86.8457 96.7388 86.8737 98.7666 86.8177 100.822C86.7617 102.878 86.6217 104.906 86.3977 106.906C86.1457 108.906 85.7817 110.809 85.3057 112.614C84.8577 114.392 84.2837 116.031 83.5836 117.531C82.8556 119.003 82.0156 120.253 81.0636 121.281C80.0836 122.337 79.0055 123.156 77.8295 123.74C76.6535 124.351 75.4214 124.74 74.1334 124.906C72.8454 125.073 71.5433 125.017 70.2273 124.74C68.8832 124.462 67.5672 123.976 66.2792 123.281C64.9911 122.615 63.7591 121.726 62.5831 120.614C61.407 119.531 60.301 118.253 59.265 116.781C58.2569 115.309 57.3609 113.684 56.5769 111.906C55.7929 110.1 55.1349 108.17 54.6028 106.114C54.0988 104.031 53.7488 101.836 53.5528 99.5305C53.3568 97.2527 53.3148 94.8776 53.4268 92.4053C53.5668 89.9608 53.7488 87.558 53.9728 85.1968C54.1968 82.8079 54.3368 80.6133 54.3928 78.6133C54.4488 76.5855 54.2808 74.8632 53.8888 73.4465C53.4968 72.0298 52.7548 71.0714 51.6628 70.5714C50.5427 70.0436 48.9887 70.0297 47.0006 70.5297C45.0126 71.0575 42.6885 71.9603 40.0284 73.2381C37.3964 74.4882 34.5963 75.9188 31.6282 77.5299C28.6601 79.1411 25.692 80.7245 22.7239 82.2801C19.7559 83.8357 16.9698 85.169 14.3657 86.2802C11.7616 87.3635 9.47958 88.0719 7.51952 88.4052C5.55947 88.7386 3.96342 88.7247 2.73139 88.3636C1.49935 88.0024 0.687332 87.3774 0.295321 86.4885C-0.124691 85.5996 -0.0966902 84.5301 0.379323 83.2801C0.855336 82.0301 1.79336 80.6967 3.1934 79.28C4.62144 77.8355 6.49749 76.3771 8.82156 74.9049C11.1456 73.4326 13.7077 71.9603 16.5078 70.4881C19.3079 69.0158 22.0939 67.5435 24.866 66.0713C27.6101 64.599 30.0882 63.1406 32.3002 61.6962C34.5123 60.2795 36.1643 58.8627 37.2564 57.446C38.3764 56.0293 38.7824 54.6543 38.4744 53.3209C38.1384 51.9598 37.2704 50.6403 35.8703 49.3625C34.4703 48.0847 32.7902 46.8624 30.8302 45.6957C28.8701 44.5012 26.9101 43.3762 24.95 42.3206C22.99 41.265 21.2819 40.2789 19.8259 39.3622C18.3698 38.4733 17.3758 37.6538 16.8438 36.9038C16.3118 36.1816 16.2138 35.5565 16.5498 35.0288C16.8858 34.501 17.5578 34.1121 18.5658 33.8621C19.5739 33.5843 20.8199 33.4454 22.3039 33.4454C23.788 33.4732 25.426 33.6537 27.2181 33.9871C28.9821 34.3204 30.8162 34.8204 32.7202 35.4871C34.6243 36.1816 36.5143 36.9455 38.3904 37.7788C40.2664 38.64 42.0865 39.5011 43.8505 40.3622C45.5866 41.2234 47.2106 42.0012 48.7227 42.6956C50.2067 43.3623 51.5228 43.8623 52.6708 44.1957C53.7908 44.529 54.6868 44.6124 55.3589 44.4457C56.0309 44.2512 56.5349 43.8068 56.8709 43.1123C57.1789 42.4178 57.3889 41.4734 57.5009 40.2789C57.5849 39.0566 57.6269 37.5983 57.6269 35.9038C57.5989 34.2093 57.5989 32.2648 57.6269 30.0703C57.6549 27.9036 57.7389 25.5285 57.8789 22.9451C58.0469 20.3617 58.2569 17.7505 58.509 15.1115C58.789 12.5003 59.083 10.0836 59.391 7.86133C59.727 5.61127 60.077 3.77788 60.441 2.36118C60.777 0.972249 61.099 0.19445 61.407 0.0277785C61.715 -0.138893 61.995 0.444457 62.2471 1.77783C62.5271 3.1112 62.7791 5.00014 63.0031 7.44465C63.2271 9.88916 63.4791 12.5837 63.7591 15.5282C64.0111 18.5005 64.3191 21.4173 64.6831 24.2785C65.0191 27.1674 65.4391 29.7369 65.9432 31.987C66.4472 34.2093 67.0492 35.8899 67.7492 37.0288C68.4492 38.1955 69.2613 38.8622 70.1853 39.0289C71.1093 39.1955 72.1453 39.015 73.2934 38.4872C74.4414 37.9316 75.7154 37.1538 77.1155 36.1538C78.5155 35.1538 80.0555 34.0704 81.7356 32.9037C83.3876 31.7092 85.1797 30.5286 87.1117 29.3619C89.0438 28.223 91.0459 27.1396 93.1179 26.1118C95.218 25.084 97.346 24.1673 99.5021 23.3618C101.658 22.5562 103.772 21.8895 105.844 21.3617C107.944 20.8339 109.946 20.5006 111.85 20.3617C113.783 20.195 115.561 20.2367 117.185 20.4867C118.837 20.7367 120.279 21.1673 121.511 21.7784C122.771 22.3895 123.779 23.1395 124.535 24.0284C125.291 24.9451 125.753 25.9591 125.921 27.0702C126.117 28.2091 125.949 29.4175 125.417 30.6953C124.913 31.9731 124.059 33.2926 122.855 34.6537C121.623 36.0427 120.195 37.4455 118.571 38.8622C116.947 40.3067 115.295 41.7651 113.614 43.2373C111.934 44.7096 110.422 46.1957 109.078 47.6958C107.734 49.1958 106.74 50.6959 106.096 52.1959C105.452 53.6682 105.284 55.1404 105.592 56.6127C105.872 58.0849 106.474 59.5017 107.398 60.8628C108.322 62.224 109.33 63.5018 110.422 64.6962C111.542 65.8907 112.522 66.9602 113.362 67.9047C114.203 68.8491 114.679 69.6269 114.791 70.2381C114.931 70.8492 114.567 71.2936 113.698 71.5714Z" fill="url(#paint0_linear_1136_8963)"/>
<path d="M104.6 44.4422C104.442 43.9519 104.217 43.4855 103.932 43.0562C103.788 42.8421 103.603 42.6591 103.386 42.5182C103.17 42.3774 102.928 42.2814 102.674 42.2362C102.162 42.1742 101.596 42.4502 101.43 42.9382C101.356 41.8402 101.2 40.7142 100.652 39.7602C100.104 38.8062 99.0761 38.0582 97.9781 38.1242C96.9421 38.1882 96.0561 38.9582 95.5641 39.8702C95.0721 40.7822 94.9021 41.8302 94.7401 42.8562C94.3401 42.3742 93.5181 42.5262 93.1081 42.9922C92.6981 43.4582 92.5961 44.1122 92.5081 44.7282H104.858L104.6 44.4422Z" fill="#F5F5F5"/>
<path d="M69.26 52.0762C69.1 51.5859 68.8754 51.1191 68.592 50.6882C68.4478 50.4741 68.2619 50.2912 68.0454 50.1507C67.8289 50.0101 67.5862 49.9147 67.332 49.8702C66.822 49.8082 66.256 50.0842 66.088 50.5702C66.016 49.4722 65.86 48.3462 65.31 47.3942C64.76 46.4422 63.736 45.6902 62.636 45.7582C61.602 45.8222 60.714 46.5902 60.222 47.5042C59.73 48.4182 59.56 49.4642 59.398 50.4882C58.998 50.0082 58.176 50.1582 57.768 50.6262C57.36 51.0942 57.254 51.7462 57.168 52.3622H69.52L69.26 52.0762Z" fill="#F5F5F5"/>
<path d="M32.348 42.366C32.1896 41.8757 31.9648 41.4094 31.68 40.98C31.5361 40.7659 31.3505 40.5829 31.1344 40.4421C30.9182 40.3012 30.676 40.2053 30.422 40.16C29.91 40.098 29.344 40.374 29.178 40.862C29.104 39.764 28.948 38.638 28.4 37.684C27.852 36.73 26.824 35.982 25.726 36.048C24.69 36.112 23.8 36.882 23.312 37.8C22.824 38.718 22.65 39.76 22.488 40.786C22.088 40.304 21.266 40.456 20.856 40.922C20.446 41.388 20.344 42.042 20.256 42.658H32.6L32.348 42.366Z" fill="#F5F5F5"/>
<path d="M50.722 93.958H53.952V82.856H50.722V93.958Z" fill="#F5F5F5"/>
<path d="M64.584 82.818C64.584 82.818 64.426 82.712 64.774 82.254C65.122 81.796 64.584 81.55 64.584 81.55C63.058 82.43 60.928 81.55 60.928 81.55C60.928 81.55 63.44 80.774 63.758 80.034C63.994 79.482 63.576 79.42 63.358 79.424C63.616 79.398 64.17 79.306 64.34 79.012C64.562 78.624 63.688 78.166 63.688 78.166C63.7336 78.0725 63.7573 77.9699 63.7573 77.866C63.7573 77.762 63.7336 77.6594 63.688 77.566C63.546 77.178 60.27 76.614 60.27 76.614C61.224 76.72 61.574 75.768 61.574 75.768C61.574 75.768 63.196 75.802 63.574 75.168C63.952 74.534 63.32 74.368 62.24 73.83C61.16 73.292 58.774 71.328 58.774 71.328C58.774 71.328 60.268 71.186 60.682 70.834C61.096 70.482 60.712 70.41 60.712 70.41C62.494 70.586 61.89 69.636 61.89 69.636C60.4748 69.2039 59.2081 68.386 58.232 67.274C58.232 67.274 59.346 67.028 59.918 66.498C60.49 65.968 59.44 65.83 59.44 65.83C59.44 65.83 61.54 65.548 60.332 64.772C59.412 64.172 57.944 63.39 57.486 63.152C57.988 63.336 59.122 63.116 59.122 63.116C60.458 62.516 59.122 61.636 59.122 61.636C57.564 60.754 55.276 58.534 55.276 58.534C55.276 58.534 56.42 59.134 56.992 58.956C57.564 58.778 56.356 58.076 56.356 58.076C56.356 58.076 56.956 58.252 57.216 58.076C57.476 57.9 56.548 57.088 56.548 57.088C55.176 56.198 53.486 53.86 52.78 52.856C52.074 53.856 50.38 56.198 49.012 57.088C49.012 57.088 48.09 57.9 48.346 58.076C48.602 58.252 49.204 58.076 49.204 58.076C49.204 58.076 48.004 58.78 48.568 58.956C49.132 59.132 50.284 58.534 50.284 58.534C50.284 58.534 47.996 60.754 46.438 61.636C46.438 61.636 45.102 62.516 46.438 63.116C46.438 63.116 47.572 63.336 48.074 63.152C47.616 63.39 46.148 64.182 45.228 64.772C44.028 65.548 46.12 65.83 46.12 65.83C46.12 65.83 45.07 65.97 45.642 66.498C46.214 67.026 47.328 67.274 47.328 67.274C46.3519 68.386 45.0851 69.2039 43.67 69.636C43.67 69.636 43.07 70.586 44.848 70.41C44.848 70.41 44.466 70.482 44.88 70.834C45.294 71.186 46.786 71.328 46.786 71.328C46.786 71.328 44.402 73.3 43.322 73.83C42.242 74.36 41.604 74.534 41.986 75.168C42.368 75.802 43.986 75.768 43.986 75.768C43.986 75.768 44.336 76.72 45.29 76.614C45.29 76.614 42.016 77.178 41.872 77.566C41.8264 77.6594 41.8027 77.762 41.8027 77.866C41.8027 77.9699 41.8264 78.0725 41.872 78.166C41.872 78.166 40.998 78.624 41.22 79.012C41.39 79.306 41.944 79.398 42.202 79.424C41.974 79.424 41.556 79.482 41.802 80.034C42.12 80.774 44.632 81.55 44.632 81.55C44.632 81.55 42.502 82.43 40.976 81.55C40.976 81.55 40.436 81.796 40.776 82.254C41.116 82.712 40.976 82.818 40.976 82.818C40.976 82.818 40.176 82.218 40.53 83.136C40.884 84.054 42.73 84.616 42.73 84.616C42.73 84.616 41.682 84.792 42 85.356C42.318 85.92 43.654 86.59 45.116 86.73C46.578 86.87 48.55 86.342 48.55 86.342C48.55 86.342 47.214 87.048 48.136 87.436C49.058 87.824 50.108 86.942 50.108 86.942C50.108 86.942 49.908 87.844 50.68 87.542C51.1926 87.316 51.6654 87.0087 52.08 86.632C52.08 86.632 52.318 87.962 52.794 87.644C53.27 87.962 53.508 86.632 53.508 86.632C53.9226 87.0087 54.3953 87.316 54.908 87.542C55.672 87.852 55.48 86.942 55.48 86.942C55.48 86.942 56.53 87.822 57.452 87.436C58.374 87.05 57.038 86.342 57.038 86.342C57.038 86.342 59.01 86.872 60.472 86.73C61.934 86.588 63.272 85.93 63.588 85.356C63.904 84.782 62.858 84.616 62.858 84.616C62.858 84.616 64.702 84.052 65.058 83.136C65.414 82.22 64.584 82.818 64.584 82.818Z" fill="#EBEBEB"/>
<path d="M57.418 61.7442L57.368 61.7222C57.386 61.7262 57.403 61.7337 57.418 61.7442Z" fill="black"/>
<path d="M23.042 93.9238H25.074V86.9358H23.042V93.9238Z" fill="#EBEBEB"/>
<path d="M31.766 86.9119C31.766 86.9119 31.666 86.8439 31.888 86.5559C31.9171 86.5212 31.9373 86.48 31.9469 86.4357C31.9565 86.3915 31.9553 86.3456 31.9433 86.3019C31.9313 86.2583 31.9089 86.2182 31.878 86.1851C31.8472 86.152 31.8087 86.1269 31.766 86.1119C30.806 86.6679 29.466 86.1119 29.466 86.1119C29.466 86.1119 31.046 85.6239 31.246 85.1579C31.396 84.8099 31.132 84.7719 30.99 84.7759C31.15 84.7579 31.5 84.7019 31.606 84.5159C31.746 84.2719 31.206 83.9839 31.206 83.9839C31.2347 83.9238 31.249 83.8578 31.248 83.7912C31.247 83.7246 31.2305 83.6591 31.2 83.5999C31.11 83.3559 29.048 82.9999 29.048 82.9999C29.648 83.0659 29.87 82.4659 29.87 82.4659C29.87 82.4659 30.89 82.4879 31.13 82.0899C31.37 81.6919 30.97 81.5799 30.29 81.2459C29.61 80.9119 28.108 79.6719 28.108 79.6719C28.108 79.6719 29.048 79.5819 29.308 79.3599C29.568 79.1379 29.328 79.0939 29.328 79.0939C30.448 79.2059 30.068 78.6059 30.068 78.6059C29.1773 78.3346 28.38 77.8199 27.766 77.1199C27.766 77.1199 28.466 76.9659 28.826 76.6319C29.186 76.2979 28.526 76.2119 28.526 76.2119C28.526 76.2119 29.848 76.0339 29.086 75.5459C28.508 75.1739 27.584 74.6759 27.286 74.5259C27.602 74.6419 28.316 74.5019 28.316 74.5019C29.158 74.1259 28.316 73.5719 28.316 73.5719C27.336 73.0159 25.894 71.6199 25.894 71.6199C25.894 71.6199 26.616 71.9959 26.976 71.8859C27.336 71.7759 26.576 71.3299 26.576 71.3299C26.576 71.3299 26.956 71.4419 27.116 71.3299C27.276 71.2179 26.696 70.7099 26.696 70.7099C25.832 70.1479 24.768 68.6779 24.324 68.0459C23.878 68.6779 22.816 70.1479 21.952 70.7099C21.952 70.7099 21.372 71.2199 21.532 71.3299C21.692 71.4399 22.072 71.3299 22.072 71.3299C22.072 71.3299 21.312 71.7739 21.672 71.8859C22.032 71.9979 22.754 71.6199 22.754 71.6199C22.754 71.6199 21.312 73.0199 20.332 73.5719C20.332 73.5719 19.49 74.1259 20.332 74.5019C20.332 74.5019 21.046 74.6419 21.362 74.5259C21.074 74.6759 20.148 75.1739 19.562 75.5459C18.802 76.0339 20.124 76.2119 20.124 76.2119C20.124 76.2119 19.462 76.2999 19.824 76.6319C20.186 76.9639 20.884 77.1199 20.884 77.1199C20.2759 77.8201 19.4851 78.3373 18.6 78.6139C18.6 78.6139 18.22 79.2139 19.34 79.1019C19.34 79.1019 19.1 79.1479 19.36 79.3679C19.62 79.5879 20.56 79.6799 20.56 79.6799C20.56 79.6799 19.058 80.9219 18.378 81.2539C17.698 81.5859 17.298 81.6979 17.538 82.0979C17.778 82.4979 18.798 82.4739 18.798 82.4739C18.798 82.4739 19.018 83.0739 19.618 83.0079C19.618 83.0079 17.558 83.3619 17.468 83.6079C17.4393 83.6668 17.4245 83.7314 17.4245 83.7969C17.4245 83.8624 17.4393 83.927 17.468 83.9859C17.468 83.9859 16.916 84.2739 17.058 84.5179C17.164 84.7039 17.514 84.7599 17.674 84.7779C17.532 84.7779 17.274 84.8119 17.418 85.1599C17.618 85.6259 19.198 86.1139 19.198 86.1139C19.198 86.1139 17.858 86.6699 16.896 86.1139C16.8534 86.1291 16.8152 86.1544 16.7845 86.1876C16.7539 86.2208 16.7317 86.2609 16.7199 86.3045C16.7081 86.3481 16.707 86.394 16.7168 86.4381C16.7266 86.4822 16.7469 86.5233 16.776 86.5579C16.996 86.8459 16.896 86.9139 16.896 86.9139C16.896 86.9139 16.396 86.5359 16.616 87.1139C16.836 87.6919 18 88.0419 18 88.0419C18 88.0419 17.34 88.1539 17.54 88.5079C17.74 88.8619 18.58 89.2859 19.5 89.3739C20.42 89.4619 21.662 89.1299 21.662 89.1299C21.662 89.1299 20.822 89.5739 21.402 89.8179C21.982 90.0619 22.644 89.5059 22.644 89.5059C22.644 89.5059 22.522 90.0739 23.004 89.8799C23.326 89.7374 23.623 89.5443 23.884 89.3079C23.884 89.3079 24.034 90.1439 24.334 89.9439C24.634 90.1439 24.784 89.3079 24.784 89.3079C25.0449 89.5443 25.342 89.7374 25.664 89.8799C26.144 90.0799 26.024 89.5059 26.024 89.5059C26.024 89.5059 26.686 90.0619 27.266 89.8179C27.846 89.5739 27.006 89.1299 27.006 89.1299C27.006 89.1299 28.246 89.4619 29.168 89.3739C30.09 89.2859 30.928 88.8639 31.128 88.5079C31.328 88.1519 30.668 88.0419 30.668 88.0419C30.668 88.0419 31.828 87.6879 32.05 87.1119C32.272 86.5359 31.766 86.9119 31.766 86.9119Z" fill="#E0E0E0"/>
<path d="M74.39 93.958H76.422V86.97H74.39V93.958Z" fill="#EBEBEB"/>
<path d="M83.114 86.9458C83.114 86.9458 83.014 86.8798 83.234 86.5918C83.2631 86.5572 83.2834 86.5161 83.2932 86.472C83.3029 86.4279 83.3019 86.382 83.2901 86.3384C83.2783 86.2948 83.2561 86.2547 83.2255 86.2215C83.1948 86.1883 83.1566 86.163 83.114 86.1478C82.152 86.7018 80.812 86.1478 80.812 86.1478C80.812 86.1478 82.4 85.6598 82.6 85.1998C82.748 84.8518 82.484 84.8118 82.342 84.8158C82.504 84.7978 82.852 84.7418 82.96 84.5558C83.1 84.3118 82.56 84.0238 82.56 84.0238C82.5886 83.9649 82.6035 83.9003 82.6035 83.8348C82.6035 83.7693 82.5886 83.7047 82.56 83.6458C82.47 83.4018 80.408 83.0458 80.408 83.0458C81.008 83.1118 81.228 82.5138 81.228 82.5138C81.228 82.5138 82.248 82.5358 82.488 82.1358C82.728 81.7358 82.328 81.6258 81.648 81.2938C80.968 80.9618 79.466 79.7178 79.466 79.7178C79.466 79.7178 80.408 79.6298 80.666 79.4078C80.924 79.1858 80.686 79.1418 80.686 79.1418C81.806 79.2518 81.426 78.6538 81.426 78.6538C80.5358 78.3813 79.7388 77.8668 79.124 77.1678C79.124 77.1678 79.826 77.0118 80.186 76.6798C80.546 76.3478 79.886 76.2578 79.886 76.2578C79.886 76.2578 81.206 76.0798 80.446 75.5918C79.868 75.2218 78.942 74.7218 78.646 74.5718C78.96 74.6878 79.674 74.5498 79.674 74.5498C80.516 74.1718 79.674 73.6178 79.674 73.6178C78.694 73.0638 77.254 71.6658 77.254 71.6658C77.254 71.6658 77.974 72.0418 78.334 71.9318C78.694 71.8218 77.934 71.3778 77.934 71.3778C77.934 71.3778 78.314 71.4878 78.474 71.3778C78.634 71.2678 78.054 70.7558 78.054 70.7558C77.19 70.1958 76.128 68.7238 75.682 68.0918C75.238 68.7238 74.174 70.1958 73.312 70.7558C73.312 70.7558 72.73 71.2658 72.89 71.3778C73.05 71.4898 73.432 71.3778 73.432 71.3778C73.432 71.3778 72.67 71.8198 73.032 71.9318C73.394 72.0438 74.114 71.6658 74.114 71.6658C74.114 71.6658 72.672 73.0658 71.692 73.6178C71.692 73.6178 70.852 74.1718 71.692 74.5498C71.692 74.5498 72.406 74.6878 72.722 74.5718C72.434 74.7218 71.51 75.2218 70.932 75.5918C70.17 76.0798 71.492 76.2578 71.492 76.2578C71.492 76.2578 70.832 76.3458 71.192 76.6798C71.552 77.0138 72.252 77.1678 72.252 77.1678C71.638 77.8678 70.8407 78.3825 69.95 78.6538C69.95 78.6538 69.57 79.2538 70.692 79.1418C70.692 79.1418 70.452 79.1858 70.712 79.4078C70.972 79.6298 71.912 79.7178 71.912 79.7178C71.912 79.7178 70.412 80.9598 69.73 81.2938C69.048 81.6278 68.65 81.7358 68.89 82.1358C69.13 82.5358 70.15 82.5138 70.15 82.5138C70.15 82.5138 70.37 83.1138 70.972 83.0458C70.972 83.0458 68.91 83.3998 68.82 83.6458C68.7913 83.7047 68.7765 83.7693 68.7765 83.8348C68.7765 83.9003 68.7913 83.9649 68.82 84.0238C68.82 84.0238 68.27 84.3118 68.41 84.5558C68.516 84.7418 68.866 84.7978 69.026 84.8158C68.884 84.8158 68.626 84.8518 68.77 85.1998C68.97 85.6658 70.552 86.1538 70.552 86.1538C70.552 86.1538 69.21 86.7078 68.25 86.1538C68.2074 86.169 68.1692 86.1943 68.1385 86.2275C68.1079 86.2607 68.0857 86.3008 68.0739 86.3444C68.0621 86.388 68.061 86.4339 68.0708 86.478C68.0806 86.5221 68.1009 86.5632 68.13 86.5978C68.35 86.8858 68.25 86.9518 68.25 86.9518C68.25 86.9518 67.75 86.5738 67.97 87.1518C68.19 87.7298 69.35 88.0838 69.35 88.0838C69.35 88.0838 68.69 88.1938 68.89 88.5498C69.09 88.9058 69.93 89.3258 70.852 89.4138C71.774 89.5018 73.012 89.1698 73.012 89.1698C73.012 89.1698 72.172 89.6138 72.752 89.8578C73.332 90.1018 73.994 89.5478 73.994 89.5478C73.994 89.5478 73.874 90.1158 74.354 89.9198C74.676 89.7773 74.9731 89.5842 75.234 89.3478C75.234 89.3478 75.384 90.1838 75.684 89.9838C75.984 90.1838 76.134 89.3478 76.134 89.3478C76.3954 89.5845 76.6932 89.7776 77.016 89.9198C77.496 90.1198 77.376 89.5478 77.376 89.5478C77.376 89.5478 78.036 90.1018 78.616 89.8578C79.196 89.6138 78.356 89.1698 78.356 89.1698C78.356 89.1698 79.596 89.5038 80.518 89.4138C81.44 89.3238 82.278 88.9038 82.478 88.5498C82.678 88.1958 82.018 88.0838 82.018 88.0838C82.018 88.0838 83.18 87.7278 83.4 87.1518C83.62 86.5758 83.114 86.9458 83.114 86.9458Z" fill="#E0E0E0"/>
<path d="M96.278 93.958H99.078V84.334H96.278V93.958Z" fill="#EBEBEB"/>
<path d="M108.292 84.3019C108.292 84.3019 108.154 84.2099 108.458 83.8139C108.762 83.4179 108.292 83.2019 108.292 83.2019C106.968 83.9659 105.122 83.2019 105.122 83.2019C105.122 83.2019 107.3 82.5299 107.576 81.8899C107.776 81.4099 107.418 81.3559 107.222 81.3599C107.444 81.3379 107.924 81.2579 108.072 81.0039C108.272 80.6679 107.506 80.2699 107.506 80.2699C107.545 80.1888 107.565 80.0999 107.565 80.0099C107.565 79.9199 107.545 79.831 107.506 79.7499C107.382 79.4139 104.544 78.9259 104.544 78.9259C105.37 79.0179 105.674 78.1919 105.674 78.1919C105.674 78.1919 107.074 78.2239 107.41 77.6739C107.746 77.1239 107.19 76.9699 106.252 76.5119C105.314 76.0539 103.252 74.3439 103.252 74.3439C103.252 74.3439 104.548 74.2219 104.906 73.9159C105.264 73.6099 104.934 73.5499 104.934 73.5499C106.476 73.7019 105.954 72.8779 105.954 72.8779C104.728 72.5031 103.63 71.7939 102.784 70.8299C102.784 70.8299 103.748 70.6179 104.244 70.1579C104.74 69.6979 103.83 69.5779 103.83 69.5779C103.83 69.5779 105.65 69.3339 104.602 68.6619C103.802 68.1519 102.534 67.4619 102.138 67.2619C102.572 67.4219 103.556 67.2299 103.556 67.2299C104.712 66.7099 103.556 65.9479 103.556 65.9479C102.204 65.1839 100.22 63.2599 100.22 63.2599C100.22 63.2599 101.22 63.7779 101.708 63.6259C102.196 63.4739 101.158 62.8619 101.158 62.8619C101.158 62.8619 101.682 63.0139 101.902 62.8619C102.122 62.7099 101.322 62.0059 101.322 62.0059C100.134 61.2339 98.6701 59.2059 98.0581 58.3379C97.4401 59.1999 95.9761 61.2299 94.7881 61.9999C94.7881 61.9999 93.988 62.7039 94.21 62.8559C94.432 63.0079 94.954 62.8559 94.954 62.8559C94.954 62.8559 93.9061 63.4659 94.4021 63.6199C94.8981 63.7739 95.8901 63.2539 95.8901 63.2539C95.8901 63.2539 93.9061 65.1779 92.5561 65.9419C92.5561 65.9419 91.3981 66.7039 92.5561 67.2239C92.5561 67.2239 93.5401 67.4239 93.9741 67.2559C93.5741 67.4559 92.3041 68.1499 91.5081 68.6559C90.4621 69.3279 92.2801 69.5719 92.2801 69.5719C92.2801 69.5719 91.37 69.6939 91.866 70.1519C92.362 70.6099 93.3281 70.8239 93.3281 70.8239C92.4822 71.7879 91.3845 72.4971 90.1581 72.8719C90.1581 72.8719 89.6341 73.6959 91.1781 73.5439C91.1781 73.5439 90.8461 73.6039 91.2061 73.9099C91.5661 74.2159 92.8581 74.3379 92.8581 74.3379C92.8581 74.3379 90.7921 76.0479 89.8581 76.5059C88.9241 76.9639 88.3701 77.1179 88.7021 77.6679C89.0341 78.2179 90.4381 78.1859 90.4381 78.1859C90.4381 78.1859 90.7401 79.0119 91.5681 78.9199C91.5681 78.9199 88.728 79.4079 88.604 79.7439C88.565 79.825 88.5448 79.9139 88.5448 80.0039C88.5448 80.0939 88.565 80.1828 88.604 80.2639C88.604 80.2639 87.8461 80.6639 88.0401 80.9979C88.1861 81.2519 88.6681 81.3319 88.8901 81.3539C88.6901 81.3539 88.3301 81.4039 88.5361 81.8839C88.8121 82.5239 90.9881 83.1959 90.9881 83.1959C90.9881 83.1959 89.1421 83.9599 87.8201 83.1959C87.8201 83.1959 87.35 83.4099 87.654 83.8079C87.958 84.2059 87.8201 84.2959 87.8201 84.2959C87.8201 84.2959 87.1301 83.7779 87.4341 84.5719C87.7381 85.3659 89.3361 85.8539 89.3361 85.8539C89.3361 85.8539 88.4261 86.0079 88.7021 86.4959C88.9781 86.9839 90.1341 87.5639 91.4021 87.6959C92.6701 87.8279 94.3781 87.3599 94.3781 87.3599C94.3781 87.3599 93.2221 87.9599 94.0201 88.3059C94.8181 88.6519 95.7301 87.8779 95.7301 87.8779C95.7301 87.8779 95.5641 88.6599 96.2261 88.3919C96.6693 88.1952 97.0785 87.9292 97.4381 87.6039C97.4381 87.6039 97.6381 88.7559 98.0581 88.4799C98.4701 88.7559 98.6781 87.6039 98.6781 87.6039C99.0372 87.9298 99.4464 88.1959 99.8901 88.3919C100.552 88.6599 100.386 87.8779 100.386 87.8779C100.386 87.8779 101.296 88.6419 102.094 88.3059C102.892 87.9699 101.736 87.3599 101.736 87.3599C101.736 87.3599 103.446 87.8179 104.712 87.6959C105.978 87.5739 107.138 86.9919 107.414 86.4959C107.69 85.9999 106.78 85.8539 106.78 85.8539C106.78 85.8539 108.38 85.3659 108.682 84.5719C108.984 83.7779 108.292 84.3019 108.292 84.3019Z" fill="#E0E0E0"/>
<path d="M102.08 66.0361L102.038 66.0161C102.053 66.0203 102.067 66.0271 102.08 66.0361Z" fill="black"/>
<path d="M107.2 93.9578C107.2 93.9858 87.4 94.0098 63 94.0098C38.6 94.0098 18.8 93.9858 18.8 93.9578C18.8 93.9298 38.5861 93.9058 63 93.9058C87.414 93.9058 107.2 93.9278 107.2 93.9578Z" fill="#E0E0E0"/>
<path d="M59.956 104.52C59.7124 104.352 59.4895 104.156 59.292 103.936C59.0673 103.74 58.866 103.52 58.692 103.278C58.9362 103.445 59.1592 103.641 59.356 103.862C59.5807 104.057 59.7821 104.278 59.956 104.52Z" fill="#E0E0E0"/>
<path d="M60.376 104.28C60.1993 104.056 60.0731 103.796 60.006 103.518C59.9053 103.25 59.8643 102.964 59.886 102.678C59.916 102.678 59.968 103.048 60.106 103.488C60.244 103.928 60.4 104.266 60.376 104.28Z" fill="#E0E0E0"/>
<path d="M61.362 102.67C61.3089 102.961 61.2238 103.246 61.108 103.518C61.0219 103.801 60.9038 104.074 60.756 104.33C60.8062 104.038 60.8915 103.753 61.01 103.482C61.0935 103.198 61.2117 102.925 61.362 102.67Z" fill="#E0E0E0"/>
<path d="M24.16 99.9458C23.9092 99.7944 23.6893 99.597 23.512 99.3638C23.311 99.1505 23.1504 98.9025 23.038 98.6318C23.237 98.843 23.4246 99.0646 23.6 99.2958C23.9 99.6578 24.18 99.9238 24.16 99.9458Z" fill="#E0E0E0"/>
<path d="M24.6 99.9999C24.5471 99.4667 24.5632 98.929 24.648 98.3999C24.69 98.6644 24.6994 98.9331 24.676 99.1999C24.6842 99.4687 24.6587 99.7375 24.6 99.9999Z" fill="#E0E0E0"/>
<path d="M26.388 98.6519C26.2609 98.907 26.1038 99.146 25.92 99.3639C25.7624 99.6011 25.5778 99.8192 25.37 100.014C25.4954 99.7582 25.6519 99.5191 25.836 99.3019C25.9925 99.0633 26.1779 98.845 26.388 98.6519Z" fill="#E0E0E0"/>
<path d="M29.048 110.456C28.7789 110.3 28.528 110.114 28.3 109.902C28.0506 109.717 27.8225 109.504 27.62 109.268C27.8888 109.425 28.1396 109.611 28.368 109.822C28.6174 110.008 28.8455 110.22 29.048 110.456Z" fill="#E0E0E0"/>
<path d="M29.574 110.288C29.5046 109.855 29.5046 109.413 29.574 108.98C29.6433 109.413 29.6433 109.855 29.574 110.288Z" fill="#E0E0E0"/>
<path d="M31.1759 109.036C31.0955 109.354 30.9542 109.654 30.7599 109.918C30.5953 110.202 30.3764 110.45 30.1159 110.65C30.0939 110.628 30.3819 110.306 30.6739 109.862C30.9659 109.418 31.1479 109.024 31.1759 109.036Z" fill="#E0E0E0"/>
<path d="M72.728 98.6438C72.5442 98.5239 72.3808 98.3754 72.244 98.2038C72.0852 98.0554 71.9503 97.8834 71.844 97.6938C72.0282 97.8131 72.1917 97.9618 72.328 98.1339C72.4875 98.2816 72.6225 98.4537 72.728 98.6438Z" fill="#E0E0E0"/>
<path d="M73.2419 98.4462C73.122 98.271 73.0321 98.077 72.9759 97.8722C72.8875 97.6794 72.8314 97.4733 72.8099 97.2622C72.9283 97.4381 73.0175 97.6319 73.0739 97.8362C73.1622 98.0293 73.2189 98.2352 73.2419 98.4462Z" fill="#E0E0E0"/>
<path d="M73.938 98.4581C73.9652 98.0282 74.0611 97.6055 74.222 97.2061C74.2263 97.4222 74.1959 97.6376 74.132 97.8441C74.1011 98.0579 74.0356 98.2653 73.938 98.4581Z" fill="#E0E0E0"/>
<path d="M71.6699 111.6C71.3995 111.433 71.1486 111.237 70.9219 111.014C70.6718 110.818 70.4438 110.595 70.2419 110.35C70.5113 110.518 70.762 110.715 70.9899 110.936C71.2401 111.132 71.4681 111.355 71.6699 111.6Z" fill="#E0E0E0"/>
<path d="M72.164 111.6C72.0484 111.393 71.9648 111.169 71.916 110.936C71.8326 110.714 71.7821 110.481 71.766 110.244C71.8813 110.452 71.9656 110.676 72.016 110.908C72.0982 111.131 72.148 111.364 72.164 111.6Z" fill="#E0E0E0"/>
<path d="M73.2739 111.654C73.2847 111.228 73.3651 110.806 73.5119 110.406C73.5012 110.832 73.4208 111.254 73.2739 111.654Z" fill="#E0E0E0"/>
<path d="M101.924 103.814C101.478 103.448 101.079 103.028 100.736 102.564C100.97 102.734 101.182 102.932 101.368 103.154C101.579 103.351 101.766 103.573 101.924 103.814Z" fill="#E0E0E0"/>
<path d="M102.706 103.748C102.634 103.275 102.634 102.793 102.706 102.32C102.775 102.793 102.775 103.274 102.706 103.748Z" fill="#E0E0E0"/>
<path d="M103.914 103.758C103.886 103.744 104.01 103.464 104.1 103.104C104.19 102.744 104.214 102.438 104.244 102.44C104.29 102.669 104.274 102.906 104.2 103.128C104.16 103.359 104.062 103.576 103.914 103.758Z" fill="#E0E0E0"/>
<path d="M60.9999 108.054C61.1935 108.118 61.3721 108.221 61.525 108.356C61.6779 108.491 61.802 108.656 61.8899 108.84C62.0634 109.211 62.1497 109.616 62.1419 110.026C62.1519 110.814 61.8079 111.654 61.4079 112.334C60.6839 111.844 60.4079 110.866 60.2999 110.362C60.1299 109.562 60.2999 108.018 60.9999 108.054Z" fill="#3DAA5F"/>
<path d="M62.3259 113.522C62.2541 113.305 62.2407 113.073 62.2871 112.849C62.3334 112.626 62.4379 112.418 62.5899 112.248C62.745 112.081 62.9319 111.946 63.1397 111.852C63.3474 111.758 63.5719 111.706 63.7999 111.7C63.9043 111.685 64.0107 111.694 64.1115 111.724C64.2124 111.755 64.3053 111.807 64.3839 111.878C64.4447 111.955 64.4839 112.048 64.4976 112.145C64.5113 112.243 64.499 112.342 64.4619 112.434C64.3831 112.615 64.2583 112.773 64.0999 112.892C63.5759 113.318 62.9919 113.634 62.3259 113.522Z" fill="#3DAA5F"/>
<path d="M61.7839 116.01C61.7791 115.956 61.7791 115.902 61.7839 115.848C61.7839 115.732 61.7979 115.584 61.8079 115.406C61.8215 114.916 61.914 114.432 62.0819 113.972C62.2598 113.511 62.5565 113.105 62.9419 112.796C63.0601 112.705 63.1883 112.629 63.3239 112.568C63.3699 112.546 63.4099 112.534 63.4359 112.524L63.4759 112.514C63.2957 112.601 63.1248 112.706 62.9659 112.828C62.5965 113.143 62.3124 113.546 62.1399 114C61.9745 114.456 61.8774 114.933 61.8519 115.418C61.8359 115.602 61.8219 115.754 61.8099 115.858C61.805 115.909 61.7963 115.96 61.7839 116.01Z" fill="#263238"/>
<path d="M60.9679 109.242C60.976 109.264 60.9814 109.288 60.9839 109.312L61.0219 109.512C61.0519 109.684 61.0939 109.936 61.1419 110.246C61.2399 110.866 61.3619 111.726 61.4759 112.676C61.5899 113.626 61.6759 114.492 61.7259 115.118C61.7519 115.43 61.7719 115.684 61.7819 115.86C61.7819 115.942 61.7819 116.008 61.7939 116.06C61.7966 116.083 61.7966 116.106 61.7939 116.13C61.7875 116.107 61.7834 116.083 61.7819 116.06C61.7819 116.008 61.7679 115.942 61.7599 115.86C61.7419 115.68 61.7159 115.428 61.6859 115.122C61.6239 114.496 61.5339 113.634 61.4199 112.684C61.3059 111.734 61.1899 110.874 61.1019 110.252C61.0599 109.946 61.0239 109.696 60.9999 109.516C60.9879 109.434 60.9799 109.366 60.9739 109.316C60.9689 109.291 60.9669 109.267 60.9679 109.242Z" fill="#263238"/>
<path d="M61.254 114.136C61.1166 113.674 60.8711 113.252 60.5379 112.904C60.2047 112.556 59.7933 112.293 59.338 112.136C59.106 112.058 58.812 112.026 58.652 112.21C58.492 112.394 58.57 112.684 58.686 112.898C58.9364 113.343 59.3132 113.705 59.7688 113.936C60.2244 114.168 60.7384 114.26 61.246 114.2" fill="#3DAA5F"/>
<path d="M59.5359 112.862C59.586 112.871 59.6349 112.886 59.6819 112.906C59.7394 112.923 59.7956 112.944 59.8499 112.97C59.923 112.999 59.9945 113.033 60.0639 113.07C60.1497 113.113 60.2331 113.162 60.3139 113.214C60.4081 113.272 60.4989 113.335 60.5859 113.404C60.784 113.562 60.9638 113.742 61.1219 113.94C61.2766 114.141 61.4074 114.36 61.5119 114.592C61.5563 114.693 61.595 114.796 61.6279 114.902C61.6595 114.993 61.6842 115.085 61.7019 115.18C61.7206 115.257 61.734 115.335 61.7419 115.414C61.7519 115.473 61.7579 115.533 61.7599 115.594C61.7643 115.644 61.7643 115.695 61.7599 115.746C61.7459 115.746 61.7419 115.528 61.6619 115.19C61.6401 115.097 61.6134 115.006 61.5819 114.916C61.5479 114.813 61.5078 114.712 61.4619 114.614C61.2535 114.158 60.9411 113.758 60.5499 113.446C60.4665 113.374 60.379 113.307 60.2879 113.246C60.2096 113.192 60.1281 113.142 60.0439 113.098C59.7399 112.938 59.5319 112.874 59.5359 112.862Z" fill="#263238"/>
<path d="M23.66 116.102C23.4669 115.904 23.2995 115.682 23.162 115.442C22.9961 115.221 22.8584 114.981 22.752 114.726C22.9445 114.925 23.1117 115.146 23.25 115.386C23.4158 115.607 23.5535 115.847 23.66 116.102Z" fill="#263238"/>
<path d="M23.7999 114.2C23.8882 114.503 23.9425 114.815 23.9619 115.13C24.0162 115.441 24.0363 115.758 24.0219 116.074C23.9336 115.771 23.8793 115.459 23.8599 115.144C23.8056 114.832 23.7855 114.516 23.7999 114.2Z" fill="#263238"/>
<path d="M25.1759 114.726C25.1157 114.971 25.02 115.205 24.8919 115.422C24.7079 115.79 24.6139 116.108 24.5859 116.102C24.5954 115.846 24.669 115.596 24.7999 115.376C24.8972 115.144 25.0236 114.926 25.1759 114.726Z" fill="#263238"/>
<path d="M70.7659 116.032C70.4058 115.613 70.1007 115.15 69.8579 114.654C70.0504 114.852 70.2177 115.074 70.3559 115.314C70.522 115.535 70.6597 115.776 70.7659 116.032Z" fill="#263238"/>
<path d="M70.906 114.132C70.9942 114.436 71.0485 114.748 71.068 115.064C71.1223 115.375 71.1424 115.692 71.128 116.008C71.039 115.704 70.9846 115.392 70.966 115.076C70.9117 114.764 70.8916 114.448 70.906 114.132Z" fill="#263238"/>
<path d="M72.2819 114.654C72.222 114.899 72.1263 115.133 71.9979 115.35C71.8139 115.718 71.7199 116.036 71.6919 116.032C71.7008 115.776 71.7737 115.526 71.9039 115.306C72.0021 115.074 72.1291 114.854 72.2819 114.654Z" fill="#263238"/>
<path d="M103.674 116.13C103.481 115.932 103.315 115.71 103.178 115.47C103.011 115.249 102.873 115.009 102.766 114.754C102.959 114.952 103.127 115.174 103.264 115.414C103.431 115.634 103.568 115.875 103.674 116.13Z" fill="#263238"/>
<path d="M103.816 114.232C103.903 114.535 103.957 114.847 103.978 115.162C104.032 115.473 104.052 115.79 104.036 116.106C103.949 115.803 103.894 115.491 103.874 115.176C103.82 114.864 103.8 114.548 103.816 114.232Z" fill="#263238"/>
<path d="M105.2 114.754C105.14 114.999 105.043 115.233 104.914 115.45C104.73 115.818 104.636 116.136 104.61 116.13C104.584 116.124 104.632 115.782 104.82 115.406C104.918 115.173 105.046 114.954 105.2 114.754Z" fill="#263238"/>
<path d="M73.1081 42.684L71.3081 43.004C70.6411 43.7601 69.7758 44.3143 68.81 44.604C67.6304 44.9621 66.3642 44.9101 65.2178 44.4566C64.0715 44.003 63.1125 43.1745 62.4972 42.1062C61.882 41.0379 61.6466 39.7927 61.8296 38.5735C62.0126 37.3544 62.603 36.2331 63.5048 35.3924C64.4066 34.5518 65.5664 34.0413 66.7954 33.9442C68.0244 33.8471 69.2501 34.1691 70.2727 34.8577C71.2953 35.5463 72.0545 36.561 72.4267 37.7363C72.7988 38.9116 72.7619 40.1783 72.322 41.33L73.1081 42.684Z" fill="#FAFAFA"/>
<path d="M73.108 42.6838L73.06 42.5998L72.912 42.3398L72.334 41.3238C72.3315 41.3217 72.3283 41.3205 72.325 41.3205C72.3217 41.3205 72.3185 41.3217 72.316 41.3238L72.34 41.3378C72.6642 40.4959 72.7755 39.587 72.664 38.6918C72.6296 38.4096 72.572 38.1306 72.492 37.8578C72.452 37.7158 72.394 37.5778 72.346 37.4318C72.2947 37.2856 72.2332 37.1433 72.162 37.0058C71.8724 36.399 71.473 35.8511 70.984 35.3898C70.4195 34.8596 69.7497 34.4543 69.0181 34.2004C68.2865 33.9464 67.5096 33.8494 66.738 33.9158C65.8863 34.0002 65.0653 34.2786 64.338 34.7298C64.1501 34.8448 63.9697 34.9717 63.798 35.1098C63.708 35.1738 63.632 35.2578 63.548 35.3298C63.464 35.4018 63.38 35.4778 63.306 35.5598C63.15 35.7224 63.0043 35.8948 62.87 36.0758C62.804 36.1678 62.734 36.2578 62.67 36.3518L62.494 36.6438C62.0646 37.3848 61.8144 38.216 61.7633 39.0709C61.7123 39.9259 61.8618 40.7809 62.2 41.5678C62.5029 42.2642 62.9469 42.8903 63.5038 43.4067C64.0608 43.923 64.7186 44.3184 65.436 44.5678C66.0675 44.783 66.7333 44.88 67.4 44.8538C67.702 44.8448 68.0029 44.8127 68.3 44.7578C68.5749 44.6972 68.8461 44.6204 69.112 44.5278C69.9661 44.2172 70.7282 43.6965 71.328 43.0138L72.672 42.7678L73.012 42.7038L73.126 42.6798L73.006 42.6998L72.66 42.7578L71.306 42.9998C70.7077 43.6718 69.9517 44.1846 69.106 44.4918C68.8438 44.5811 68.5767 44.6552 68.306 44.7138C68.0115 44.7681 67.7133 44.7995 67.414 44.8078C66.333 44.8345 65.2686 44.5387 64.3563 43.9581C63.4441 43.3775 62.7255 42.5384 62.292 41.5478C61.9556 40.771 61.8053 39.9265 61.8528 39.0814C61.9004 38.2362 62.1446 37.4139 62.566 36.6798L62.738 36.3898C62.802 36.2978 62.87 36.2078 62.938 36.1178C63.0622 35.9377 63.1964 35.7648 63.34 35.5998C63.414 35.5178 63.502 35.4478 63.58 35.3718C63.6588 35.2955 63.7416 35.2234 63.828 35.1558C63.9983 35.0193 64.1766 34.893 64.362 34.7778C65.0827 34.3336 65.8954 34.06 66.738 33.9778C67.8373 33.88 68.9403 34.1193 69.9003 34.6637C70.8603 35.2082 71.6317 36.0321 72.112 37.0258C72.1826 37.1626 72.2434 37.3043 72.294 37.4498C72.344 37.5918 72.4 37.7298 72.442 37.8718C72.5219 38.1421 72.5801 38.4183 72.616 38.6978C72.7302 39.5864 72.6244 40.4896 72.308 41.3278C72.3064 41.3305 72.3056 41.3336 72.3056 41.3368C72.3056 41.3399 72.3064 41.3431 72.308 41.3458C72.3103 41.3474 72.3131 41.3483 72.316 41.3483C72.3189 41.3483 72.3216 41.3474 72.324 41.3458H72.304L72.892 42.3458L73.046 42.6058C73.088 42.6538 73.108 42.6838 73.108 42.6838Z" fill="#263238"/>
<path d="M65.558 39.538C65.5584 39.428 65.5262 39.3204 65.4654 39.2287C65.4047 39.1371 65.3181 39.0655 65.2167 39.0231C65.1152 38.9806 65.0035 38.9692 64.8955 38.9903C64.7876 39.0113 64.6883 39.0639 64.6103 39.1414C64.5323 39.2189 64.479 39.3178 64.4571 39.4255C64.4353 39.5333 64.4459 39.6452 64.4876 39.7469C64.5293 39.8486 64.6003 39.9357 64.6915 39.9972C64.7827 40.0586 64.8901 40.0916 65 40.092C65.0731 40.0925 65.1456 40.0786 65.2133 40.051C65.281 40.0234 65.3425 39.9826 65.3944 39.9311C65.4462 39.8796 65.4874 39.8184 65.5155 39.7509C65.5436 39.6834 65.558 39.6111 65.558 39.538Z" fill="#263238"/>
<path d="M67.776 39.5379C67.776 39.4283 67.7435 39.3212 67.6826 39.2301C67.6217 39.139 67.5352 39.068 67.434 39.0261C67.3327 38.9841 67.2214 38.9732 67.1139 38.9945C67.0064 39.0159 66.9077 39.0687 66.8302 39.1461C66.7528 39.2236 66.7 39.3223 66.6786 39.4298C66.6572 39.5373 66.6682 39.6487 66.7101 39.7499C66.7521 39.8511 66.8231 39.9376 66.9142 39.9985C67.0053 40.0594 67.1124 40.0919 67.222 40.0919C67.3689 40.0919 67.5098 40.0335 67.6137 39.9296C67.7176 39.8257 67.776 39.6848 67.776 39.5379Z" fill="#263238"/>
<path d="M69.9879 39.8139C70.0432 39.7192 70.0692 39.6102 70.0625 39.5008C70.0559 39.3913 70.0169 39.2863 69.9505 39.199C69.8841 39.1118 69.7933 39.0461 69.6896 39.0105C69.5858 38.9749 69.4739 38.9708 69.3679 38.9989C69.2619 39.0269 69.1666 39.0858 69.094 39.1681C69.0215 39.2503 68.975 39.3522 68.9605 39.4609C68.9459 39.5696 68.9639 39.6802 69.0123 39.7786C69.0606 39.8771 69.137 39.9589 69.2319 40.0139C69.2947 40.0505 69.364 40.0744 69.436 40.0842C69.508 40.094 69.5812 40.0894 69.6515 40.0708C69.7217 40.0523 69.7876 40.02 69.8453 39.9759C69.9031 39.9318 69.9515 39.8768 69.9879 39.8139Z" fill="#263238"/>
<path d="M46.7041 44.2898L48.3541 44.5838C49.1836 45.5235 50.3346 46.1189 51.5808 46.2529C52.827 46.387 54.0783 46.0499 55.0886 45.3081C56.0989 44.5663 56.7952 43.4734 57.0405 42.2442C57.2858 41.0151 57.0625 39.7386 56.4143 38.6658C55.7661 37.593 54.7401 36.8014 53.5379 36.4468C52.3357 36.0922 51.0444 36.2001 49.9177 36.7494C48.7911 37.2987 47.9107 38.2496 47.4496 39.4151C46.9885 40.5806 46.9801 41.8764 47.4261 43.0478L46.7041 44.2898Z" fill="#FAFAFA"/>
<path d="M46.704 44.2899L46.748 44.2099L46.882 43.9719L47.414 43.0399C47.415 43.0386 47.4162 43.0376 47.4176 43.0369C47.419 43.0362 47.4205 43.0359 47.422 43.0359C47.4236 43.0359 47.4251 43.0362 47.4265 43.0369C47.4279 43.0376 47.4291 43.0386 47.43 43.0399L47.408 43.0519C47.0104 42.0297 46.9612 40.9049 47.268 39.8519C47.306 39.7219 47.358 39.5939 47.402 39.4619C47.4485 39.3247 47.5046 39.1911 47.57 39.0619C47.8358 38.5062 48.202 38.0045 48.65 37.5819C49.1674 37.0958 49.7814 36.7242 50.452 36.4913C51.1226 36.2583 51.8347 36.1693 52.542 36.2299C53.3226 36.3079 54.075 36.563 54.742 36.9759C54.9138 37.0823 55.0787 37.1992 55.236 37.3259C55.32 37.3839 55.388 37.4599 55.466 37.5259C55.544 37.5919 55.62 37.6619 55.688 37.7379C55.8305 37.8873 55.964 38.0449 56.088 38.2099C56.148 38.2939 56.212 38.3779 56.272 38.4639L56.432 38.7319C56.8234 39.4125 57.0498 40.1753 57.0932 40.9592C57.1367 41.7431 56.9958 42.5262 56.682 43.2459C56.4069 43.8843 56.0023 44.4586 55.4938 44.9326C54.9854 45.4067 54.3841 45.7701 53.728 45.9999C53.1557 46.1989 52.5517 46.2911 51.946 46.2719C51.6695 46.2635 51.3941 46.2341 51.122 46.1839C50.8696 46.132 50.6205 46.0652 50.376 45.9839C49.5937 45.6996 48.8951 45.2238 48.344 44.5999L47.112 44.3739L46.8 44.3139L46.696 44.2939L46.806 44.3119L47.124 44.3639L48.348 44.5639C48.8986 45.1809 49.5942 45.6511 50.372 45.9319C50.6153 46.013 50.863 46.0797 51.114 46.1319C51.3843 46.1798 51.6577 46.2079 51.932 46.2159C52.8147 46.2418 53.6884 46.0323 54.4634 45.6088C55.2383 45.1854 55.8865 44.5632 56.3414 43.8063C56.7963 43.0494 57.0415 42.1851 57.0518 41.3021C57.0621 40.419 56.8372 39.5492 56.4 38.7819L56.24 38.5159C56.182 38.4319 56.12 38.3499 56.06 38.2679C55.9372 38.1032 55.8035 37.9469 55.66 37.7999C55.594 37.7239 55.514 37.6619 55.442 37.5999C55.37 37.5379 55.298 37.4579 55.214 37.3999C55.0592 37.2745 54.8962 37.1596 54.726 37.0559C54.0661 36.6461 53.321 36.3929 52.548 36.3159C51.8482 36.2556 51.1434 36.3429 50.4795 36.5724C49.8156 36.8019 49.2073 37.1683 48.694 37.6479C48.2496 38.0649 47.8861 38.5606 47.622 39.1099C47.557 39.2351 47.5009 39.3648 47.454 39.4979C47.408 39.6279 47.356 39.7559 47.318 39.8839C47.2457 40.1322 47.1922 40.3856 47.158 40.6419C47.056 41.4529 47.1528 42.2766 47.44 43.0419C47.442 43.0441 47.4431 43.0469 47.4431 43.0499C47.4431 43.0528 47.442 43.0557 47.44 43.0579C47.438 43.0594 47.4356 43.0601 47.433 43.0601C47.4305 43.0601 47.4281 43.0594 47.426 43.0579H47.444L46.906 43.9759L46.754 44.1999L46.704 44.2899Z" fill="#263238"/>
<path d="M53.624 41.3997C53.6236 41.2987 53.6532 41.1999 53.709 41.1158C53.7648 41.0317 53.8443 40.966 53.9375 40.9271C54.0306 40.8882 54.1332 40.8778 54.2323 40.8973C54.3314 40.9167 54.4224 40.9651 54.4939 41.0364C54.5655 41.1076 54.6142 41.1985 54.6341 41.2975C54.6539 41.3964 54.6439 41.4991 54.6054 41.5924C54.5669 41.6857 54.5015 41.7655 54.4176 41.8216C54.3337 41.8777 54.235 41.9077 54.134 41.9077C54.0671 41.908 54.0009 41.895 53.939 41.8696C53.8771 41.8442 53.8209 41.8068 53.7735 41.7596C53.7261 41.7124 53.6885 41.6563 53.6629 41.5946C53.6372 41.5328 53.624 41.4666 53.624 41.3997Z" fill="#263238"/>
<path d="M51.6001 41.4001C51.6001 41.2996 51.6299 41.2014 51.6857 41.1179C51.7415 41.0343 51.8209 40.9692 51.9137 40.9308C52.0065 40.8923 52.1087 40.8822 52.2072 40.9019C52.3057 40.9215 52.3963 40.9698 52.4673 41.0409C52.5384 41.1119 52.5867 41.2024 52.6063 41.301C52.6259 41.3995 52.6159 41.5017 52.5774 41.5945C52.539 41.6873 52.4739 41.7667 52.3903 41.8225C52.3068 41.8783 52.2086 41.9081 52.1081 41.9081C51.9734 41.9081 51.8442 41.8546 51.7489 41.7593C51.6536 41.664 51.6001 41.5348 51.6001 41.4001Z" fill="#263238"/>
<path d="M49.564 41.6599C49.5138 41.5729 49.4905 41.4729 49.4971 41.3727C49.5036 41.2724 49.5398 41.1764 49.601 41.0967C49.6622 41.017 49.7456 40.9572 49.8407 40.9249C49.9359 40.8926 50.0384 40.8893 50.1355 40.9153C50.2325 40.9413 50.3197 40.9955 50.3859 41.071C50.4522 41.1466 50.4945 41.24 50.5076 41.3396C50.5207 41.4393 50.504 41.5405 50.4596 41.6306C50.4152 41.7207 50.345 41.7956 50.258 41.8459C50.2002 41.8792 50.1364 41.9009 50.0703 41.9096C50.0041 41.9183 49.9369 41.9139 49.8725 41.8966C49.808 41.8794 49.7476 41.8496 49.6947 41.8089C49.6417 41.7683 49.5973 41.7177 49.564 41.6599Z" fill="#263238"/>
<path d="M81.536 108.976L81.758 113.576C81.758 113.576 77.218 115.352 77.178 116.208L86 116.1L85.946 108.9L81.536 108.976Z" fill="#263238"/>
<path d="M84.478 113.162C84.5637 113.187 84.6371 113.243 84.684 113.319C84.7308 113.395 84.748 113.486 84.732 113.574C84.7114 113.66 84.6584 113.736 84.5839 113.784C84.5095 113.832 84.4193 113.85 84.332 113.834C84.2411 113.807 84.1636 113.746 84.1145 113.665C84.0653 113.584 84.0481 113.487 84.066 113.394C84.0965 113.306 84.1603 113.234 84.2437 113.192C84.327 113.151 84.4234 113.143 84.512 113.172" fill="#E0E0E0"/>
<path d="M85.9999 116.1L85.9679 115.376L77.5279 115.758C77.5279 115.758 77.1279 115.936 77.1859 116.216L85.9999 116.1Z" fill="#455A64"/>
<path d="M81.6139 113.54C81.6139 113.584 81.8319 113.602 82.0439 113.74C82.2559 113.878 82.3739 114.06 82.4119 114.042C82.4499 114.024 82.3859 113.772 82.1239 113.61C81.8619 113.448 81.5999 113.5 81.6139 113.54Z" fill="white"/>
<path d="M80.694 113.942C80.684 113.984 80.872 114.056 81.02 114.238C81.168 114.42 81.22 114.616 81.256 114.614C81.292 114.612 81.324 114.364 81.136 114.14C80.948 113.916 80.694 113.9 80.694 113.942Z" fill="white"/>
<path d="M80.1839 115.072C80.2219 115.072 80.2799 114.862 80.1659 114.624C80.0519 114.386 79.8499 114.292 79.8319 114.33C79.8139 114.368 79.9399 114.492 80.0319 114.69C80.1239 114.888 80.1399 115.068 80.1839 115.072Z" fill="white"/>
<path d="M81.678 112.486C81.696 112.524 81.894 112.462 82.136 112.476C82.378 112.49 82.572 112.564 82.592 112.526C82.612 112.488 82.43 112.336 82.144 112.326C81.858 112.316 81.656 112.45 81.678 112.486Z" fill="white"/>
<path d="M91.9219 110.518L92.3999 116.078L91.5279 120.586C91.5128 120.662 91.5133 120.741 91.5296 120.817C91.5459 120.893 91.5776 120.965 91.6228 121.029C91.6679 121.092 91.7255 121.146 91.7921 121.186C91.8587 121.227 91.9328 121.253 92.0099 121.264C92.0991 121.275 92.1897 121.265 92.2739 121.233C92.3582 121.202 92.4336 121.151 92.4939 121.084C93.2799 120.214 96.1539 117 96.0939 116.596C96.0279 116.126 95.9739 110.696 95.9739 110.696L91.9219 110.518Z" fill="#263238"/>
<path d="M92.01 121.264L96.074 116.22L96.088 116.456C96.1024 116.66 96.0436 116.862 95.922 117.026C95.6 117.464 94.686 118.654 92.51 121.082C92.4484 121.152 92.3704 121.205 92.2831 121.237C92.1958 121.268 92.1019 121.278 92.01 121.264Z" fill="#455A64"/>
<g opacity="0.6">
<path d="M94.8339 114.496C94.7694 114.552 94.7273 114.629 94.7155 114.713C94.7037 114.797 94.7231 114.883 94.7699 114.954C94.8205 115.021 94.8952 115.066 94.9781 115.078C95.0611 115.091 95.1457 115.071 95.2139 115.022C95.2826 114.964 95.3273 114.882 95.3395 114.793C95.3517 114.704 95.3305 114.613 95.2799 114.538C95.2201 114.474 95.1371 114.435 95.0491 114.431C94.961 114.428 94.8751 114.459 94.8099 114.518" fill="white"/>
</g>
<path d="M93.1099 118.748C92.9671 118.584 92.7948 118.448 92.6019 118.348C92.3958 118.28 92.1785 118.252 91.9619 118.266C91.9619 118.254 92.0239 118.206 92.1499 118.178C92.3179 118.149 92.4907 118.168 92.6479 118.234C92.806 118.3 92.9416 118.41 93.0379 118.552C93.1099 118.66 93.1239 118.742 93.1099 118.748Z" fill="white"/>
<path d="M92.766 119.52C92.6038 119.442 92.4368 119.376 92.266 119.32C92.0869 119.296 91.9066 119.284 91.726 119.284C91.708 119.256 91.964 119.122 92.292 119.2C92.62 119.278 92.8 119.502 92.766 119.52Z" fill="white"/>
<path d="M93.776 117.744C93.752 117.772 93.466 117.51 93.024 117.37C92.582 117.23 92.202 117.268 92.2 117.232C92.198 117.196 92.59 117.098 93.062 117.254C93.3505 117.328 93.6036 117.501 93.776 117.744Z" fill="white"/>
<path d="M93.7699 116.042C93.7579 116.076 93.4479 115.968 93.0519 115.978C92.6559 115.988 92.3499 116.106 92.3359 116.072C92.5493 115.936 92.7958 115.862 93.0487 115.856C93.3016 115.851 93.5511 115.915 93.7699 116.042Z" fill="white"/>
<path d="M93.6719 114.4C93.6559 114.434 93.3399 114.268 92.9239 114.314C92.676 114.358 92.4355 114.436 92.2099 114.548C92.1999 114.536 92.2539 114.462 92.3759 114.38C92.5375 114.276 92.721 114.212 92.9119 114.192C93.1028 114.172 93.2958 114.199 93.4739 114.27C93.6099 114.332 93.6779 114.4 93.6719 114.4Z" fill="white"/>
<path d="M92.914 114C92.8925 113.932 92.8856 113.861 92.894 113.79C92.9005 113.596 92.9447 113.405 93.024 113.228C93.0704 113.094 93.1597 112.979 93.278 112.9C93.3192 112.878 93.3662 112.87 93.4124 112.876C93.4587 112.882 93.5019 112.902 93.536 112.934C93.5994 113.001 93.6364 113.088 93.64 113.18C93.6433 113.369 93.5799 113.553 93.461 113.699C93.3421 113.845 93.1753 113.945 92.99 113.98C92.8089 114.01 92.6228 113.986 92.456 113.909C92.2891 113.832 92.1491 113.707 92.054 113.55C92.0298 113.51 92.0144 113.465 92.0089 113.419C92.0034 113.372 92.0078 113.325 92.022 113.28C92.0401 113.237 92.0717 113.201 92.112 113.176C92.1523 113.152 92.1992 113.142 92.246 113.146C92.3835 113.168 92.5127 113.226 92.62 113.314C92.7755 113.423 92.9108 113.559 93.02 113.714C93.0646 113.769 93.0973 113.832 93.116 113.9C92.9607 113.7 92.7767 113.524 92.57 113.378C92.4739 113.306 92.3611 113.258 92.242 113.24C92.2163 113.237 92.1904 113.243 92.1681 113.256C92.1457 113.269 92.1282 113.289 92.118 113.312C92.1111 113.342 92.1103 113.373 92.1158 113.404C92.1213 113.434 92.133 113.463 92.15 113.488C92.2361 113.622 92.359 113.727 92.5039 113.792C92.6488 113.856 92.8093 113.877 92.966 113.852C93.1205 113.821 93.2598 113.738 93.3614 113.618C93.4631 113.497 93.521 113.346 93.526 113.188C93.5249 113.124 93.5023 113.062 93.462 113.012C93.4433 112.995 93.4196 112.983 93.3942 112.98C93.3687 112.976 93.3428 112.98 93.32 112.992C93.2199 113.058 93.143 113.154 93.1 113.266C92.9969 113.499 92.934 113.747 92.914 114Z" fill="white"/>
<path d="M77.4 71.294C76.9752 73.2056 76.8317 75.1689 76.974 77.122C77.068 78.362 81.174 112.628 81.174 112.628H86.732L85.17 80.428L85.626 80.528C85.626 80.528 88.66 94.264 88.908 96.488C89.13 98.488 91.854 114.198 91.854 114.198L97.098 114.14L95.148 93.86L93.258 75.428L92.548 70.064L77.4 71.294Z" fill="#263238"/>
<path d="M86.8099 49.2899L86.9299 39.5339C87.0379 37.1079 85.7179 35.0239 83.2899 34.9819L83.0639 34.9919C81.974 35.0364 80.9409 35.4898 80.1703 36.2619C79.3997 37.0339 78.9483 38.0679 78.9059 39.1579C78.8219 41.2619 78.7579 43.5859 78.8199 44.7099C78.9439 47.0359 81.2879 47.3099 81.2879 47.3099C81.2879 47.3099 81.3019 48.7259 81.2999 49.4099L80.7539 51.0099L82.6699 50.5439L86.8099 49.2899Z" fill="#AE7461"/>
<path d="M81.288 47.3022C82.365 47.2564 83.4062 46.9024 84.288 46.2822C84.288 46.2822 83.63 48.0622 81.3 47.9482L81.288 47.3022Z" fill="#6F4439"/>
<path d="M79.6479 41.1663C79.6511 41.2531 79.6879 41.3353 79.7506 41.3954C79.8134 41.4555 79.8971 41.4889 79.984 41.4883C80.0263 41.4896 80.0685 41.4825 80.1081 41.4674C80.1477 41.4523 80.1839 41.4295 80.2146 41.4003C80.2453 41.371 80.2699 41.336 80.2869 41.2972C80.304 41.2584 80.3132 41.2166 80.314 41.1743C80.3108 41.0878 80.2743 41.0059 80.212 40.9458C80.1497 40.8858 80.0665 40.8522 79.9799 40.8523C79.9374 40.8507 79.895 40.8576 79.8552 40.8726C79.8154 40.8875 79.7789 40.9103 79.748 40.9396C79.7171 40.9688 79.6923 41.0039 79.6751 41.0428C79.658 41.0818 79.6487 41.1237 79.6479 41.1663Z" fill="#263238"/>
<path d="M79.442 40.1662C79.486 40.2082 79.73 40.0102 80.088 39.9962C80.446 39.9822 80.716 40.1502 80.752 40.1062C80.788 40.0622 80.726 40.0082 80.608 39.9302C80.4486 39.8298 80.2621 39.7809 80.074 39.7902C79.8876 39.7967 79.7083 39.8626 79.562 39.9782C79.456 40.0682 79.422 40.1482 79.442 40.1662Z" fill="#263238"/>
<path d="M82.866 41.166C82.8681 41.2528 82.9043 41.3353 82.9668 41.3956C83.0294 41.4558 83.1131 41.489 83.2 41.488C83.2424 41.4896 83.2847 41.4827 83.3244 41.4677C83.3641 41.4526 83.4004 41.4298 83.4312 41.4006C83.462 41.3713 83.4865 41.3362 83.5035 41.2973C83.5205 41.2583 83.5295 41.2164 83.53 41.174C83.5279 41.0878 83.4922 41.0059 83.4305 40.9458C83.3689 40.8856 83.2861 40.8519 83.2 40.852C83.1572 40.8498 83.1145 40.8563 83.0743 40.8711C83.0341 40.8858 82.9973 40.9086 82.9661 40.9379C82.9349 40.9672 82.91 41.0025 82.8928 41.0417C82.8756 41.0809 82.8665 41.1232 82.866 41.166Z" fill="#263238"/>
<path d="M82.954 40.1042C82.996 40.1462 83.24 39.9482 83.598 39.9342C83.956 39.9202 84.226 40.0902 84.262 40.0442C84.298 39.9982 84.236 39.9462 84.118 39.8682C83.9586 39.7678 83.7722 39.7189 83.584 39.7282C83.3977 39.7347 83.2183 39.8006 83.072 39.9162C82.966 40.0002 82.932 40.0862 82.954 40.1042Z" fill="#263238"/>
<path d="M81.784 42.9061C81.5927 42.855 81.3959 42.8274 81.198 42.8241C81.106 42.8241 81.018 42.8041 80.998 42.7421C80.9846 42.6487 81.0014 42.5534 81.046 42.4701C81.124 42.2441 81.204 42.0101 81.288 41.7621C81.622 40.7621 81.86 39.9321 81.82 39.9181C81.78 39.9041 81.476 40.7181 81.142 41.7181C81.06 41.9661 80.984 42.2021 80.912 42.4281C80.8579 42.5402 80.8459 42.6679 80.878 42.7881C80.8928 42.8198 80.9145 42.8477 80.9414 42.8698C80.9684 42.892 81.0001 42.9078 81.034 42.9161C81.0851 42.9276 81.1375 42.933 81.19 42.9321C81.3883 42.9483 81.5878 42.9396 81.784 42.9061Z" fill="#263238"/>
<path d="M82.8 38.9999C82.852 39.0879 83.2 38.9779 83.616 38.9519C84.032 38.9259 84.394 38.9759 84.434 38.8799C84.45 38.8339 84.376 38.7559 84.224 38.6799C84.023 38.5998 83.8064 38.5663 83.5906 38.5818C83.3748 38.5974 83.1654 38.6617 82.978 38.7699C82.83 38.8579 82.768 38.9459 82.8 38.9999Z" fill="#263238"/>
<path d="M79.382 39.1139C79.46 39.1939 79.748 39.1019 80.1 39.0879C80.452 39.0739 80.748 39.1259 80.814 39.0399C80.842 38.9979 80.794 38.9159 80.662 38.8399C80.4808 38.7487 80.2784 38.7079 80.076 38.7219C79.8746 38.7283 79.6788 38.7899 79.51 38.8999C79.388 38.9999 79.35 39.0759 79.382 39.1139Z" fill="#263238"/>
<path d="M86.81 41.2662C86.85 41.2482 88.39 40.7282 88.41 42.3202C88.43 43.9122 86.822 43.6002 86.81 43.5562C86.798 43.5122 86.81 41.2662 86.81 41.2662Z" fill="#AE7461"/>
<path d="M87.296 42.946C87.296 42.946 87.324 42.966 87.37 42.986C87.4342 43.0116 87.5058 43.0116 87.57 42.986C87.738 42.922 87.878 42.654 87.882 42.366C87.8867 42.228 87.8586 42.0909 87.8 41.966C87.7848 41.9188 87.7588 41.8758 87.724 41.8404C87.6893 41.805 87.6469 41.7782 87.6 41.762C87.5679 41.7542 87.534 41.7577 87.5042 41.7719C87.4743 41.7861 87.4502 41.8101 87.436 41.84C87.416 41.884 87.426 41.916 87.418 41.92C87.41 41.924 87.384 41.892 87.396 41.826C87.4043 41.7864 87.4262 41.751 87.458 41.726C87.4792 41.709 87.5036 41.6966 87.5297 41.6894C87.5558 41.6821 87.5832 41.6803 87.61 41.684C87.6755 41.6969 87.7367 41.726 87.788 41.7686C87.8394 41.8112 87.8792 41.866 87.904 41.928C87.9724 42.0658 88.0067 42.2181 88.004 42.372C88.004 42.694 87.834 42.996 87.604 43.064C87.5614 43.0767 87.5164 43.0797 87.4725 43.0728C87.4285 43.0658 87.3867 43.0492 87.35 43.024C87.298 42.986 87.29 42.95 87.296 42.946Z" fill="#6F4439"/>
<path d="M75.688 37.0621C75.7172 36.9683 75.7799 36.8886 75.864 36.8381C76.0511 36.7503 76.2585 36.7151 76.464 36.7361C76.9715 36.7197 77.4686 36.5884 77.918 36.3521C77.7591 36.2771 77.6133 36.1772 77.486 36.0561C77.3491 35.933 77.2488 35.7745 77.1963 35.598C77.1437 35.4216 77.1408 35.234 77.188 35.0561C77.195 35.0229 77.2097 34.9919 77.2309 34.9655C77.2521 34.9391 77.2792 34.9181 77.31 34.9041C77.414 34.8701 77.51 34.9701 77.578 35.0501C77.669 35.176 77.7923 35.275 77.9348 35.3366C78.0774 35.3982 78.234 35.4201 78.388 35.4001C78.5995 35.3843 78.8047 35.3207 78.988 35.2141L79.006 35.1921L79.248 34.9441C79.848 34.3441 80.352 33.9261 80.88 33.7061C81.654 33.3841 82.954 33.2421 83.768 33.4461C84.582 33.6501 85.318 34.3001 85.44 35.1301C85.89 34.7301 86.574 34.7301 87.13 34.9521H87.144C87.764 35.1661 88.122 35.8141 88.31 36.4421C88.322 36.4761 88.33 36.5101 88.34 36.5441C88.5512 36.8748 88.8394 37.1493 89.18 37.3441C89.24 37.3781 89.308 37.4201 89.316 37.4881C89.3144 37.5223 89.3039 37.5556 89.2857 37.5847C89.2675 37.6137 89.2421 37.6376 89.212 37.6541C89.0647 37.7615 88.8952 37.8346 88.716 37.8681C88.771 38.0166 88.8379 38.1604 88.916 38.2981C88.988 38.4161 89.072 38.5561 89.012 38.6801C88.985 38.7257 88.9446 38.7619 88.8963 38.7837C88.848 38.8055 88.7941 38.8119 88.742 38.8021C88.638 38.7804 88.5398 38.7368 88.454 38.6741C88.524 38.8381 88.594 39.0021 88.666 39.1661C88.4423 39.2063 88.2122 39.1939 87.994 39.1301C87.868 39.7301 87.782 40.8101 87.636 41.2121C87.212 41.2241 87.11 41.1781 86.898 41.2521C86.622 41.3461 86.732 41.8341 86.372 41.7001C86.188 41.6301 85.9 40.9401 85.836 40.7561C85.4157 39.5197 85.2663 38.2073 85.398 36.9081C85.1388 36.6376 84.8298 36.4196 84.488 36.2661L84.516 36.2901C83.862 36.0721 83.116 35.8581 82.516 36.1701C82.038 36.4141 81.762 36.9141 81.408 37.3161C81.1098 37.6818 80.7374 37.9801 80.3154 38.1914C79.8935 38.4027 79.4315 38.5222 78.96 38.5421C78.876 39.2461 78.864 40.3961 78.836 41.0541L78.26 39.7461C78.214 39.6681 78.176 39.5921 78.138 39.5141L78.126 39.4901C78.0698 39.3629 78.007 39.2388 77.938 39.1181C77.8661 39.1976 77.7656 39.2454 77.6585 39.2508C77.5514 39.2563 77.4466 39.2189 77.367 39.1471C77.2875 39.0752 77.2397 38.9747 77.2343 38.8676C77.2288 38.7605 77.2661 38.6556 77.338 38.5761C77.3942 38.4997 77.4616 38.4322 77.538 38.3761C77.4584 38.4552 77.3596 38.5123 77.2512 38.5417C77.1429 38.5712 77.0288 38.572 76.92 38.5441C76.813 38.5121 76.7193 38.4459 76.6536 38.3555C76.5878 38.2652 76.5535 38.1558 76.556 38.0441C76.5612 37.9681 76.5865 37.8948 76.6294 37.8319C76.6723 37.769 76.7312 37.7186 76.8 37.6861C76.5109 37.7125 76.2205 37.6519 75.966 37.5121C75.8 37.4201 75.636 37.2681 75.688 37.0621Z" fill="#263238"/>
<path d="M84.7119 35.3999C84.7967 35.4598 84.8763 35.5267 84.9499 35.5999C85.136 35.8209 85.2621 36.0861 85.3159 36.3699C85.3582 36.5671 85.3803 36.7682 85.3819 36.9699C85.3819 37.1859 85.3719 37.4159 85.3579 37.6579C85.3384 37.9128 85.3351 38.1686 85.3479 38.4239C85.3577 38.5585 85.377 38.6921 85.4059 38.8239C85.4282 38.966 85.486 39.1001 85.5739 39.2139C85.6153 39.2589 85.6677 39.2923 85.7259 39.3109C85.7841 39.3295 85.8461 39.3326 85.9059 39.3199C86.0201 39.2974 86.1235 39.2376 86.1999 39.1499C86.3246 38.9728 86.3999 38.7657 86.4179 38.5499H86.3679C86.4402 38.7253 86.5379 38.889 86.6579 39.0359C86.7731 39.1722 86.9365 39.2589 87.1139 39.2779C87.1964 39.2849 87.2793 39.2697 87.3539 39.2339C87.4233 39.1969 87.4798 39.1397 87.5159 39.0699C87.5491 39.0086 87.5656 38.9396 87.5639 38.8699C87.5591 38.8022 87.5316 38.7381 87.4859 38.6879L87.4619 38.7119C87.6031 38.869 87.7754 38.995 87.9679 39.0819C88.0186 39.1046 88.0707 39.124 88.1239 39.1399L88.1779 39.1539C88.1779 39.1539 88.1619 39.1439 88.1259 39.1319C88.0899 39.1199 88.0399 39.0979 87.9739 39.0659C87.7884 38.9734 87.6227 38.8457 87.4859 38.6899L87.4619 38.7119C87.5009 38.7603 87.5238 38.8197 87.5274 38.8817C87.531 38.9437 87.5151 39.0053 87.4819 39.0579C87.4487 39.1194 87.3979 39.1696 87.3359 39.2019C87.2679 39.2338 87.1927 39.247 87.1179 39.2399C86.9524 39.2201 86.8008 39.1378 86.6939 39.0099C86.5792 38.8659 86.4855 38.7063 86.4159 38.5359L86.3819 38.4599L86.3659 38.5419C86.3505 38.7456 86.2815 38.9415 86.1659 39.1099C86.0972 39.1889 86.0045 39.243 85.9019 39.2639C85.851 39.2743 85.7982 39.2713 85.7487 39.2552C85.6993 39.2391 85.6549 39.2104 85.6199 39.1719C85.5382 39.0656 85.4846 38.9404 85.4639 38.8079C85.4353 38.6761 85.4166 38.5424 85.4079 38.4079C85.3918 38.1555 85.3918 37.9023 85.4079 37.6499C85.4199 37.4059 85.4319 37.1759 85.4279 36.9579C85.4244 36.7559 85.3996 36.5548 85.3539 36.3579C85.2923 36.0755 85.1578 35.8142 84.9639 35.5999C84.8922 35.5191 84.8069 35.4514 84.7119 35.3999Z" fill="#455A64"/>
<path d="M77.5239 37.7459C77.5239 37.7459 77.5239 37.7459 77.5419 37.7619L77.5999 37.7999C77.6322 37.8223 77.6656 37.843 77.6999 37.8619C77.7464 37.8894 77.7945 37.9141 77.8439 37.9359C78.1583 38.0736 78.5018 38.1313 78.8439 38.1039C79.3524 38.0633 79.8384 37.8772 80.2439 37.5679C80.735 37.1878 81.1433 36.7114 81.4439 36.1679C81.6119 35.8839 81.7459 35.5919 81.8959 35.3239C82.0283 35.0597 82.1981 34.8158 82.3999 34.5999C82.5849 34.4083 82.8143 34.2653 83.0679 34.1839C83.1829 34.151 83.3024 34.1361 83.4219 34.1399C83.5327 34.1444 83.6424 34.1639 83.7479 34.1979C83.9294 34.2578 84.0958 34.356 84.2359 34.4859C84.3432 34.5831 84.4338 34.6973 84.5039 34.8239C84.5588 34.9347 84.6004 35.0515 84.6279 35.1719C84.6279 35.1719 84.6279 35.1719 84.6279 35.1479C84.6279 35.1239 84.6279 35.1039 84.6159 35.0759C84.5959 34.9852 84.565 34.8972 84.5239 34.8139C84.4562 34.6827 84.367 34.5637 84.2599 34.4619C84.1171 34.3276 83.9474 34.2254 83.7619 34.1619C83.6533 34.1257 83.5403 34.1042 83.4259 34.0979C83.3018 34.0922 83.1776 34.1064 83.0579 34.1399C82.7958 34.2208 82.5585 34.3667 82.3679 34.5639C82.1585 34.7793 81.9813 35.0238 81.8419 35.2899C81.6919 35.5599 81.5559 35.8519 81.3919 36.1319C81.0976 36.6726 80.6977 37.1486 80.2159 37.5319C79.8176 37.8383 79.3404 38.0249 78.8399 38.0699C78.5033 38.1001 78.1644 38.0487 77.8519 37.9199C77.7388 37.8694 77.6292 37.8112 77.5239 37.7459Z" fill="#455A64"/>
<path d="M77.2999 36.7242C77.2999 36.7242 77.3279 36.7482 77.3839 36.7822C77.4633 36.8292 77.5463 36.87 77.6319 36.9042C77.7612 36.9577 77.8951 36.9992 78.0319 37.0282C78.197 37.0644 78.365 37.0851 78.5339 37.0902C78.7034 37.0919 78.8728 37.0785 79.0399 37.0502C79.176 37.0254 79.3098 36.9892 79.4399 36.9422C79.5274 36.9108 79.6123 36.8727 79.6939 36.8282C79.7249 36.815 79.7538 36.7975 79.7799 36.7762C79.7799 36.7662 79.6479 36.8342 79.4279 36.9062C79.297 36.9472 79.1634 36.9786 79.0279 37.0002C78.8645 37.0254 78.6993 37.0368 78.5339 37.0342C78.3681 37.0296 78.2029 37.0115 78.0399 36.9802C77.9073 36.9527 77.777 36.9152 77.6499 36.8682C77.4299 36.7882 77.3039 36.7162 77.2999 36.7242Z" fill="#455A64"/>
<path d="M81.8159 43.7422C81.8439 43.7422 83.0739 43.2622 83.0739 43.2622C83.0739 43.2622 83.4299 43.9722 82.9979 44.2982C82.5659 44.6242 82.0439 44.4202 81.9619 44.2242C81.9005 44.0677 81.8517 43.9065 81.8159 43.7422Z" fill="#6F4439"/>
<path d="M82.0939 44.3622C82.1502 44.3837 82.2076 44.4017 82.2659 44.4162C82.4262 44.438 82.5893 44.4285 82.7459 44.3882C82.8255 44.3658 82.8995 44.3271 82.9633 44.2747C83.0272 44.2222 83.0796 44.1572 83.1171 44.0836C83.1547 44.01 83.1766 43.9294 83.1816 43.8469C83.1865 43.7644 83.1744 43.6818 83.1459 43.6042C83.1187 43.4945 83.0784 43.3884 83.0259 43.2882L83.0899 43.3102C82.7159 43.4502 82.3879 43.5682 82.1519 43.6502C82.0288 43.7021 81.8999 43.7391 81.7679 43.7602C81.882 43.69 82.0034 43.6323 82.1299 43.5882C82.3579 43.4902 82.6819 43.3582 83.0519 43.2142L83.0939 43.1982L83.1159 43.2362C83.1735 43.3446 83.2178 43.4594 83.2479 43.5782C83.2778 43.6775 83.2875 43.7817 83.2765 43.8847C83.2655 43.9877 83.234 44.0875 83.1839 44.1782C83.0842 44.3221 82.9369 44.4262 82.7679 44.4722C82.6002 44.5115 82.4257 44.5115 82.2579 44.4722C82.1339 44.4262 82.0879 44.3642 82.0939 44.3622Z" fill="#263238"/>
<path d="M70.952 63.3862L75.152 66.0262C76.666 66.8262 77.764 66.2462 78.128 64.9662L78.09 60.2702C78.09 60.2702 75.42 58.8482 75.014 58.7862C74.878 58.7662 74.676 61.5142 74.676 61.5142L70.626 60.3802L69.604 62.4502L70.952 63.3862Z" fill="#AE7461"/>
<path d="M70.586 59.8283C70.56 59.7823 69.43 57.9863 68.786 57.3123C68.142 56.6383 68.13 55.9023 67.674 55.8423C67.218 55.7823 67.136 56.4203 67.354 57.0763C67.572 57.7323 68.154 58.0763 67.994 58.3063C67.834 58.5363 64.182 57.9263 64.182 57.9263C64.182 57.9263 63.71 57.4443 63.34 57.8483C63.34 57.8483 62.752 57.7083 62.798 58.1663C62.844 58.6243 63.912 58.6743 63.912 58.6743L64.442 59.6183L65.67 60.0743C65.7278 60.4029 65.8816 60.707 66.112 60.9483C66.3158 61.1654 66.5471 61.355 66.8 61.5123C66.85 61.5223 67.944 62.1943 68.5 62.3303C69.056 62.4663 69.796 62.5823 69.796 62.5823L70.806 60.5623C70.8023 60.3019 70.7261 60.0477 70.586 59.8283Z" fill="#AE7461"/>
<path d="M65.688 60.1421C65.584 59.8741 65.537 59.5873 65.55 59.3001C65.594 58.9141 65.95 57.2041 66.124 57.1701C66.298 57.1361 66.576 57.0381 66.654 57.5021C66.732 57.9661 66.466 59.0601 66.466 59.0861C66.5718 59.3219 66.6393 59.573 66.666 59.8301" fill="#AE7461"/>
<path d="M66.668 59.8301C66.6446 59.7519 66.6259 59.6725 66.612 59.5921C66.5892 59.5005 66.5612 59.4104 66.528 59.3221C66.508 59.2721 66.484 59.2181 66.458 59.1601L66.438 59.1141C66.431 59.0926 66.431 59.0695 66.438 59.0481L66.458 58.9461C66.5233 58.6261 66.572 58.303 66.604 57.9781C66.6286 57.7915 66.6212 57.6021 66.582 57.4181C66.5727 57.3762 66.5547 57.3368 66.5292 57.3024C66.5037 57.2679 66.4713 57.2392 66.434 57.2181C66.3429 57.1894 66.2451 57.1894 66.154 57.2181C66.134 57.2081 66.112 57.2581 66.09 57.3021C66.068 57.3461 66.05 57.3961 66.032 57.4441C65.998 57.5401 65.968 57.6441 65.94 57.7341C65.886 57.9341 65.838 58.1161 65.794 58.2961C65.71 58.6561 65.638 58.9821 65.594 59.2561C65.5674 59.4728 65.5816 59.6926 65.636 59.9041C65.6589 59.9822 65.6769 60.0617 65.69 60.1421C65.6471 60.0714 65.6154 59.9945 65.596 59.9141C65.5254 59.6989 65.5002 59.4715 65.522 59.2461C65.56 58.9661 65.624 58.6461 65.704 58.2741C65.744 58.0921 65.79 57.9021 65.844 57.7061C65.872 57.6081 65.902 57.5061 65.936 57.4101C65.954 57.3581 65.974 57.3081 65.996 57.2581C66.0088 57.2311 66.0235 57.205 66.04 57.1801C66.0501 57.1652 66.0622 57.1517 66.076 57.1401C66.0878 57.1307 66.1014 57.1239 66.116 57.1201H66.134C66.2457 57.083 66.3663 57.083 66.478 57.1201C66.5291 57.1481 66.5736 57.187 66.6081 57.2339C66.6426 57.2809 66.6665 57.3349 66.678 57.3921C66.7205 57.5893 66.7272 57.7925 66.698 57.9921C66.6604 58.3205 66.6037 58.6463 66.528 58.9681L66.504 59.0681C66.504 59.0901 66.504 59.0881 66.504 59.0961L66.522 59.1401C66.546 59.1981 66.566 59.2561 66.584 59.3101C66.6153 59.4012 66.6388 59.4949 66.654 59.5901C66.6707 59.6689 66.6754 59.7498 66.668 59.8301Z" fill="#6F4439"/>
<path d="M69.61 60.568C69.4268 60.508 69.2397 60.4606 69.05 60.426C68.8363 60.4009 68.6196 60.4206 68.414 60.484C68.1531 60.5659 67.9171 60.7125 67.728 60.91L67.642 61V60.876C67.642 60.55 67.642 60.196 67.658 59.826C67.658 59.79 67.658 59.75 67.658 59.712C67.6786 59.501 67.6596 59.2881 67.602 59.084C67.5761 58.998 67.5171 58.9257 67.438 58.8829C67.359 58.8402 67.2662 58.8305 67.18 58.856C67.1425 58.869 67.1089 58.8909 67.082 58.92C67.0592 58.9527 67.0448 58.9905 67.04 59.03C67.02 59.116 67.006 59.206 66.992 59.29L66.918 59.764C66.878 60.04 66.844 60.27 66.818 60.454C66.8109 60.5394 66.7928 60.6234 66.764 60.704C66.7613 60.6185 66.7653 60.5329 66.776 60.448C66.79 60.284 66.812 60.048 66.846 59.756C66.862 59.608 66.882 59.448 66.906 59.276C66.918 59.19 66.932 59.102 66.95 59.01C66.95 58.986 66.962 58.962 66.968 58.938C66.9767 58.9095 66.991 58.883 67.01 58.86C67.0471 58.8173 67.0947 58.7849 67.148 58.766C67.2012 58.7466 67.258 58.7386 67.3146 58.7428C67.3711 58.7469 67.4261 58.763 67.476 58.79C67.5793 58.8457 67.6583 58.9376 67.698 59.048C67.7623 59.2652 67.7841 59.4927 67.762 59.718C67.762 59.758 67.762 59.8 67.752 59.838C67.752 60.208 67.736 60.562 67.728 60.888L67.644 60.856C67.8501 60.6385 68.1114 60.4809 68.4 60.4C68.6165 60.3383 68.8439 60.3253 69.066 60.362C69.1492 60.3734 69.231 60.3936 69.31 60.422C69.3695 60.4378 69.4272 60.46 69.482 60.488C69.5274 60.51 69.5704 60.5368 69.61 60.568Z" fill="#6F4439"/>
<path d="M65.544 58.9802C65.2953 58.9176 65.0524 58.834 64.818 58.7302H64.806V58.7162C64.7155 58.5745 64.6131 58.4406 64.5 58.3162C64.3725 58.1731 64.2348 58.0394 64.088 57.9162C63.9812 57.824 63.8498 57.7649 63.71 57.7462C63.65 57.7422 63.59 57.7525 63.5347 57.7761C63.4794 57.7998 63.4305 57.8361 63.392 57.8822V57.8282C63.558 58.0762 63.696 58.2862 63.792 58.4282C63.8478 58.5032 63.8935 58.5853 63.928 58.6722C63.8586 58.6101 63.798 58.5387 63.748 58.4602C63.64 58.3182 63.492 58.1162 63.318 57.8722L63.298 57.8462L63.318 57.8202C63.3652 57.76 63.4262 57.7118 63.4957 57.6798C63.5653 57.6479 63.6415 57.6329 63.718 57.6362C63.8792 57.6539 64.0313 57.7201 64.154 57.8262C64.3064 57.9553 64.4476 58.0971 64.576 58.2502C64.6916 58.3802 64.7947 58.5208 64.884 58.6702L64.862 58.6502C65.0979 58.7415 65.326 58.8519 65.544 58.9802Z" fill="#6F4439"/>
<path d="M76.8359 51C76.1419 51.514 75.5779 52.232 75.4019 53.544L74.3259 59.944L77.3879 60.812L78.4459 53.534L76.8359 51Z" fill="#3DAA5F"/>
<path d="M80.264 49.0901L76.836 51.0001C76.548 52.9121 76.982 63.7061 76.982 63.7061L76.822 74.0541C81.622 76.4321 87.164 75.5621 93.038 73.6541C93.0984 73.2553 93.0557 72.8477 92.914 72.4701L91.972 63.4001C91.972 63.4001 92.216 56.4001 92.216 56.2581C92.216 56.1161 92.742 49.6001 92.742 49.6001L87.102 47.9141C87.102 47.9141 84.702 49.9001 82.802 49.9941C81.158 50.0761 81.244 48.5941 81.244 48.5941L80.264 49.0901Z" fill="#3DAA5F"/>
<path d="M76.7379 53.5522C76.7542 53.6561 76.7609 53.7612 76.7579 53.8662C76.7579 54.0862 76.7579 54.3722 76.7759 54.7182C76.7759 55.4582 76.7959 56.4442 76.8099 57.5342C76.8239 58.6242 76.8479 59.6282 76.8739 60.3482C76.8859 60.6942 76.8959 60.9802 76.9039 61.2002C76.9144 61.3047 76.9144 61.4098 76.9039 61.5142C76.8831 61.412 76.8697 61.3084 76.8639 61.2042C76.8439 61.0042 76.8219 60.7122 76.7999 60.3522C76.7559 59.6322 76.7199 58.6362 76.7059 57.5362C76.6919 56.4362 76.6939 55.4402 76.7059 54.7182C76.7059 54.3722 76.7179 54.0862 76.7219 53.8662C76.7176 53.7613 76.723 53.6562 76.7379 53.5522Z" fill="#263238"/>
<path d="M86.2519 65.4859C86.1799 65.6679 84.4179 66.6079 84.4179 66.6079H83.6179C83.6179 66.6079 83.1039 65.8939 83.1339 65.7879C83.1639 65.6819 83.4679 64.5159 83.0419 64.5759C82.6159 64.6359 82.3299 65.3919 82.2699 65.5899C82.2478 65.7656 82.2741 65.944 82.3459 66.1059C82.3459 66.1059 81.6179 65.2119 81.1179 65.4399C80.6179 65.6679 80.8599 65.9859 80.8599 65.9859L82.3159 67.2439C82.3159 67.2439 81.3299 67.1219 81.3439 67.8439L82.2239 68.2439L83.6579 68.4879C83.8314 68.5172 84.0095 68.5028 84.1759 68.4459L84.5259 68.3239C84.9735 68.2757 85.4159 68.188 85.8479 68.0619C86.3179 67.8959 86.8099 67.3479 86.8099 67.3479L88.6519 65.3179C88.6519 65.3179 88.9099 64.2719 88.3179 63.9839C87.7259 63.6959 87.9179 63.9699 87.7279 63.6959C87.5379 63.4219 86.7659 63.0959 86.7279 63.9079C86.6979 64.5439 86.9719 64.6959 87.0159 64.6959C87.0599 64.6959 86.5399 64.7579 86.2519 65.4859Z" fill="#AE7461"/>
<path d="M83.7119 66.5999C83.452 66.5972 83.1933 66.5623 82.9419 66.4959L82.9199 66.4819C82.5499 66.2439 82.2679 65.9999 82.3099 65.9619C82.3099 65.9619 82.3799 66.0099 82.5099 66.0879L82.9599 66.3999L82.9799 66.4139H82.9619C83.219 66.4429 83.4711 66.5054 83.7119 66.5999Z" fill="#6F4439"/>
<path d="M86.09 66.4741C86.09 66.4741 86.03 66.4901 85.934 66.5261C85.8024 66.5792 85.6856 66.6636 85.594 66.7721C85.51 66.9121 85.418 67.0621 85.32 67.2181V67.2341H85.3C85.2014 67.267 85.1046 67.3051 85.01 67.3481C84.8409 67.4217 84.6823 67.5172 84.538 67.6321C84.4798 67.6709 84.4314 67.7227 84.3966 67.7835C84.3619 67.8442 84.3418 67.9122 84.338 67.9821C84.3513 68.0784 84.3947 68.168 84.462 68.2381C84.51 68.2921 84.54 68.3181 84.536 68.3241C84.532 68.3301 84.494 68.3141 84.434 68.2661C84.3446 68.1979 84.284 68.0988 84.264 67.9881C84.2544 67.908 84.2721 67.827 84.314 67.7581C84.3598 67.6829 84.4172 67.6154 84.484 67.5581C84.631 67.432 84.7962 67.3289 84.974 67.2521C85.0736 67.2067 85.1758 67.1673 85.28 67.1341L85.252 67.1561L85.538 66.7201C85.6466 66.6055 85.7852 66.5237 85.938 66.4841C86.028 66.4541 86.09 66.4661 86.09 66.4741Z" fill="#6F4439"/>
<path d="M87.01 64.6959C87.02 64.6839 87.064 64.6959 87.134 64.7079C87.2266 64.7229 87.3202 64.7303 87.414 64.7299C87.5513 64.7149 87.69 64.7196 87.826 64.7439C87.826 64.7719 87.65 64.8359 87.412 64.8339C87.3095 64.8353 87.2076 64.8169 87.112 64.7799C87.038 64.7459 87 64.7079 87.01 64.6959Z" fill="#6F4439"/>
<path d="M88.6479 65.3179C88.6479 65.3179 89.5959 65.0599 90.5739 64.7599L92.7519 63.9779L92.0759 60.0639L96.6479 58.4639C96.6479 58.4639 97.4359 64.1799 97.2479 65.6359C97.0599 67.0599 96.2659 67.3979 95.1539 67.7599C94.0419 68.1219 85.9059 67.7179 85.7919 67.8939C85.6779 68.0699 86.9019 66.2839 86.9019 66.2839L88.6479 65.3179Z" fill="#AE7461"/>
<path d="M87.156 66.9223C87.0591 67.156 86.9059 67.3622 86.71 67.5223C86.5372 67.7058 86.3213 67.8433 86.082 67.9223C86.066 67.8963 86.344 67.7223 86.638 67.4443C86.932 67.1663 87.132 66.9043 87.156 66.9223Z" fill="#6F4439"/>
<path d="M94.768 64.7438C94.4695 64.5347 94.1529 64.3527 93.822 64.1998C93.4771 64.0792 93.1215 63.9915 92.76 63.9378C93.1327 63.9061 93.5076 63.962 93.8548 64.1009C94.202 64.2398 94.512 64.4579 94.76 64.7378L94.768 64.7438Z" fill="#6F4439"/>
<path d="M84.6779 66.9722C84.6779 66.9862 84.4879 67.0642 84.1839 67.2162L83.9379 67.3402L83.7979 67.4122L83.7619 67.4302H83.7399C83.7281 67.4334 83.7157 67.4334 83.7039 67.4302H83.6199L82.8919 67.3542L82.5139 67.3122C82.3987 67.2948 82.2824 67.2848 82.1659 67.2822C81.9739 67.2693 81.782 67.3101 81.6119 67.4002C81.5012 67.4641 81.4179 67.5667 81.3779 67.6882C81.3499 67.7762 81.3479 67.8282 81.3399 67.8302C81.3319 67.8322 81.3199 67.7762 81.3399 67.6782C81.3546 67.6086 81.383 67.5427 81.4235 67.4843C81.464 67.4259 81.5159 67.3762 81.5759 67.3382C81.7564 67.2291 81.9653 67.1761 82.1759 67.1862C82.295 67.1863 82.4139 67.1943 82.5319 67.2102L82.9059 67.2502L83.6319 67.3342L83.7139 67.3442C83.7139 67.3442 83.7499 67.3302 83.7699 67.3222L83.9099 67.2582L84.1639 67.1422C84.3263 67.0614 84.4994 67.0042 84.6779 66.9722Z" fill="#6F4439"/>
<path d="M92.742 49.6001C92.872 49.6441 94.4 50.0941 95.232 52.2841C96.064 54.4741 97.164 60.1921 97.164 60.1921L91.948 61.2461L91.166 54.1581L92.742 49.6001Z" fill="#3DAA5F"/>
<path d="M90.8459 54.7339C90.8715 54.8166 90.8882 54.9017 90.8959 54.9879C90.9219 55.1739 90.9559 55.4059 90.9959 55.6839C91.0779 56.2719 91.1959 57.0839 91.3539 57.9739C91.5119 58.8639 91.6699 59.6699 91.7919 60.2499C91.8479 60.5259 91.8939 60.7559 91.9319 60.9399C91.9559 61.0225 91.9693 61.1079 91.9719 61.1939C91.9381 61.1146 91.912 61.0322 91.8939 60.9479C91.8479 60.7879 91.7879 60.5479 91.7199 60.2659C91.5799 59.6879 91.4079 58.8859 91.2519 57.9919C91.0959 57.0979 90.9859 56.2839 90.9219 55.6939C90.8899 55.3979 90.8659 55.1579 90.8539 54.9919C90.8429 54.9064 90.8402 54.8199 90.8459 54.7339Z" fill="#263238"/>
<path d="M92.6 50.2002C92.1403 50.475 91.7394 50.8378 91.4203 51.2678C91.1011 51.6979 90.8699 52.1867 90.74 52.7062C90.7408 52.546 90.7685 52.3872 90.822 52.2362C90.9313 51.8652 91.1053 51.5165 91.336 51.2062C91.5664 50.8926 91.8501 50.6218 92.174 50.4062C92.3024 50.3124 92.4467 50.2426 92.6 50.2002Z" fill="#263238"/>
<path d="M36.2 110L36.506 114.734L35.228 118.828C35.206 118.898 35.1985 118.971 35.2061 119.044C35.2138 119.117 35.2363 119.187 35.2723 119.251C35.3084 119.314 35.3571 119.37 35.4156 119.414C35.474 119.458 35.5409 119.489 35.612 119.506C35.6949 119.526 35.7813 119.526 35.8641 119.506C35.9468 119.485 36.0236 119.446 36.088 119.39C36.916 118.664 39.95 115.978 39.938 115.59C39.922 115.148 40.022 110.094 40.022 110.094L36.2 110Z" fill="#263238"/>
<path d="M35.618 119.5L39.96 115.24L39.95 115.46C39.9409 115.651 39.8651 115.832 39.736 115.972C39.388 116.346 38.404 117.356 36.108 119.384C36.0423 119.443 35.9631 119.484 35.8776 119.504C35.7921 119.524 35.7029 119.523 35.618 119.5Z" fill="#455A64"/>
<path d="M36.9099 117.28C36.8799 117.292 36.7759 117.014 36.4719 116.854C36.2826 116.77 36.0791 116.722 35.8719 116.712C35.8719 116.7 35.9359 116.662 36.0579 116.65C36.2194 116.64 36.3804 116.676 36.5219 116.754C36.6634 116.832 36.7794 116.948 36.8559 117.09C36.9179 117.2 36.9239 117.276 36.9099 117.28Z" fill="white"/>
<path d="M36.508 117.96C36.482 117.982 36.324 117.804 36.058 117.716C35.8911 117.676 35.7222 117.646 35.552 117.626C35.6348 117.58 35.7273 117.555 35.8218 117.552C35.9164 117.548 36.0103 117.568 36.096 117.608C36.4 117.71 36.536 117.948 36.508 117.96Z" fill="white"/>
<path d="M37.6401 116.418C37.4282 116.259 37.2042 116.118 36.9701 115.994C36.5701 115.812 36.2061 115.814 36.2061 115.778C36.4812 115.736 36.7626 115.775 37.0167 115.888C37.2709 116.002 37.4872 116.185 37.6401 116.418Z" fill="white"/>
<path d="M37.8 114.838C37.784 114.868 37.502 114.734 37.13 114.704C36.758 114.674 36.454 114.75 36.446 114.718C36.6613 114.613 36.9012 114.569 37.1397 114.59C37.3783 114.611 37.6066 114.697 37.8 114.838Z" fill="white"/>
<path d="M48.83 108.986L48.674 113.574C48.674 113.574 53.274 115.272 53.338 116.124L44.432 116.142L44.38 108.982L48.83 108.986Z" fill="#263238"/>
<path d="M45.918 113.2C45.8326 113.226 45.7599 113.283 45.7137 113.359C45.6676 113.436 45.6513 113.527 45.668 113.614C45.6907 113.699 45.7445 113.772 45.8187 113.819C45.8928 113.865 45.9819 113.882 46.068 113.866C46.1584 113.838 46.2353 113.778 46.2837 113.697C46.3321 113.615 46.3486 113.519 46.33 113.426C46.2971 113.338 46.2313 113.267 46.1466 113.227C46.0619 113.186 45.9649 113.18 45.876 113.21" fill="#E0E0E0"/>
<path d="M44.432 116.142L44.454 115.42L52.986 115.672C52.986 115.672 53.386 115.844 53.338 116.124L44.432 116.142Z" fill="#455A64"/>
<path d="M48.818 113.528C48.818 113.572 48.598 113.592 48.386 113.728C48.174 113.864 48.058 114.052 48.018 114.034C47.978 114.016 48.042 113.766 48.304 113.6C48.566 113.434 48.828 113.488 48.818 113.528Z" fill="white"/>
<path d="M49.752 113.912C49.762 113.954 49.574 114.03 49.428 114.214C49.282 114.398 49.238 114.6 49.2 114.6C49.162 114.6 49.128 114.352 49.316 114.126C49.504 113.9 49.752 113.872 49.752 113.912Z" fill="white"/>
<path d="M50.286 115.03C50.246 115.03 50.186 114.83 50.286 114.584C50.386 114.338 50.6001 114.25 50.6201 114.286C50.6401 114.322 50.5121 114.45 50.4201 114.646C50.3281 114.842 50.328 115.026 50.286 115.03Z" fill="white"/>
<path d="M48.738 112.478C48.718 112.518 48.52 112.458 48.274 112.478C48.028 112.498 47.8361 112.572 47.8141 112.536C47.7921 112.5 47.9741 112.336 48.2641 112.326C48.5541 112.316 48.758 112.444 48.738 112.478Z" fill="white"/>
<path d="M49.3679 78.2481L48.7679 74.0261L32.5139 73.2861L32.0179 78.3061L33.7679 93.4561C33.9959 94.7341 33.8499 100.694 34.0899 102.292C34.1499 102.692 35.8719 113.624 35.8719 113.624H40.2719C40.2719 113.624 40.5259 102.824 40.5619 101.924C40.5979 101.024 40.7619 94.9941 40.7619 93.4541C40.7619 91.5861 41.5619 81.9541 41.5619 81.9541L42.6899 94.9761C42.6899 94.9761 42.5979 98.9221 42.6899 99.7581C42.8399 101.218 43.9659 113.284 43.9659 113.284L48.9039 113.382C48.9039 113.382 49.9319 99.3061 49.9619 96.5821C50.0099 93.4501 49.3599 78.4561 49.3679 78.2481Z" fill="#263238"/>
<path d="M45.2679 50.4839C45.2679 50.4839 47.8819 51.1739 48.8219 54.3599C49.4999 56.6579 50.7539 59.9319 50.7539 59.9319L46.5179 60.6419L45.2679 50.4839Z" fill="#455A64"/>
<path d="M31.556 51.1C31.556 51.1 33.492 50.17 35.776 49.374H36.504L40.904 49.652C42.3796 49.8093 43.8399 50.0876 45.27 50.484C45.27 50.484 46.526 58.684 46.774 60.298C47.04 62.052 47.306 63.86 47.306 63.86L48.718 73.294C49.166 73.876 49.05 74.478 48.986 75.078C44.058 77.236 38.586 77.636 32.292 75.162C32.2083 75.0106 32.1672 74.8395 32.1728 74.6666C32.1784 74.4938 32.2307 74.3256 32.324 74.18C32.388 72.26 32.524 68.086 32.62 66.802C32.62 66.802 31.926 62.9 31.42 61.402C30.82 59.614 29.804 56.74 29.804 55.266C29.8 53.91 31.556 51.1 31.556 51.1Z" fill="#455A64"/>
<path opacity="0.3" d="M34.896 67.334C34.896 67.334 36.496 68.734 37.516 68.678C38.536 68.622 41.268 66.364 41.268 66.364C41.268 66.364 45.544 67.944 46.498 67.964C47.452 67.984 47.918 67.964 47.918 67.964V65.74L41.58 63.71L35.766 64.57L34.896 67.334Z" fill="black"/>
<path d="M45.696 53.1782C45.724 53.1782 46.108 55.5542 46.552 58.4922C46.996 61.4302 47.332 63.8182 47.304 63.8242C47.276 63.8302 46.892 61.4482 46.448 58.5082C46.004 55.5682 45.668 53.1822 45.696 53.1782Z" fill="#263238"/>
<path d="M32.834 63.1701C32.794 63.1841 32.072 63.4361 32.034 63.8701C31.996 64.3041 32.434 64.736 32.434 64.736C32.3682 64.8026 32.3177 64.8825 32.2858 64.9705C32.254 65.0584 32.2417 65.1523 32.2497 65.2454C32.2576 65.3386 32.2858 65.429 32.3321 65.5102C32.3784 65.5915 32.4418 65.6617 32.518 65.7161C32.518 65.7161 32.118 66.4901 33.216 66.7161C33.216 66.7161 33.1 67.4681 33.796 67.6281C34.492 67.7881 34.852 67.4101 34.902 67.3321C34.9368 67.295 34.9562 67.246 34.9562 67.1951C34.9562 67.1441 34.9368 67.0951 34.902 67.058L36.2 66.8981C36.2 66.8981 39.094 66.5801 39.414 66.2841C39.734 65.9881 39.254 63.3041 38.706 63.1641C38.158 63.0241 33.688 62.8561 32.834 63.1701Z" fill="#FFBF9D"/>
<path d="M33.988 66.0001C33.988 66.0301 33.77 66.1161 33.558 66.3141C33.346 66.5121 33.242 66.7301 33.212 66.7141C33.2532 66.5298 33.3495 66.3624 33.4881 66.2341C33.6267 66.1058 33.8011 66.0228 33.988 65.9961V66.0001Z" fill="#FF9A6C"/>
<path d="M33.364 65.23C33.376 65.26 33.164 65.34 32.916 65.462C32.668 65.584 32.528 65.758 32.504 65.74C32.48 65.722 32.6 65.506 32.866 65.37C33.0158 65.2781 33.1882 65.2297 33.364 65.23Z" fill="#FF9A6C"/>
<path d="M33.07 64.3242C33.07 64.3542 32.9 64.4242 32.712 64.5582C32.524 64.6922 32.4 64.8322 32.374 64.8162C32.348 64.8002 32.448 64.6162 32.652 64.4722C32.7674 64.3713 32.9169 64.3183 33.07 64.3242Z" fill="#FF9A6C"/>
<path d="M50.544 59.9658C50.514 59.9658 51.424 63.0098 51.424 63.0098L47.41 64.0098L47.068 62.2678L46.856 60.5818L50.544 59.9658Z" fill="#FFBF9D"/>
<path d="M38.832 61.7998C38.97 61.8698 47.376 62.2418 47.376 62.2418C47.376 62.2418 50.482 62.1258 51.292 62.5758C51.292 62.5758 52.336 65.4698 51.092 66.6598C50.076 67.6398 49.068 67.6158 47.774 67.4218C46.31 67.2018 39.818 64.8398 39.818 64.8398L38.832 61.7998Z" fill="#FFBF9D"/>
<path d="M50.268 62.736C49.7753 62.5722 49.273 62.4386 48.764 62.336C48.2496 62.2671 47.7311 62.2323 47.212 62.232C47.3598 62.1871 47.5136 62.1655 47.668 62.168C48.4151 62.1325 49.1612 62.2573 49.856 62.534C50.0025 62.5808 50.1414 62.6488 50.268 62.736Z" fill="#FF9A6C"/>
<path d="M44.832 56.1459C44.9884 55.9221 45.1288 55.6875 45.252 55.4439C45.366 55.1799 45.394 54.2139 45.676 53.9419C45.958 53.6699 46.828 52.8499 47.16 52.5419C47.492 52.2339 47.596 52.0299 47.8 52.2379C47.9057 52.3688 47.9675 52.5298 47.9764 52.6978C47.9854 52.8659 47.9412 53.0325 47.85 53.1739C47.662 53.5199 47.01 54.1079 47.106 54.4499C47.202 54.7919 47.192 55.1139 47.784 55.1099C48.376 55.1059 50.012 54.6139 50.812 54.4239C51.936 54.1559 52.194 54.5179 52.194 54.5179C52.194 54.5179 52.754 54.3859 52.87 54.6379C52.986 54.8899 52.592 55.2179 52.418 55.3559C52.244 55.4939 52.384 56.0499 51.144 56.7959C50.98 56.8939 51.354 57.1759 50.124 57.7199C49.422 58.0299 48.946 58.3419 48.14 58.4899C46.434 58.8059 45.696 59.7879 45.696 59.7879C45.656 59.7879 43.266 57.4739 43.71 57.0979L44.832 56.1459Z" fill="#FFBF9D"/>
<path d="M52.188 54.48C52.188 54.48 52.23 54.51 52.232 54.596C52.2255 54.6546 52.2055 54.711 52.1735 54.7606C52.1416 54.8102 52.0986 54.8518 52.048 54.882C51.7314 55.0611 51.4018 55.2162 51.062 55.346C50.7253 55.4791 50.3814 55.5933 50.032 55.688C49.8892 55.7364 49.7405 55.7653 49.59 55.774C49.59 55.744 50.242 55.56 51.024 55.248C51.412 55.092 51.77 54.942 52.006 54.822C52.052 54.8006 52.093 54.7697 52.1264 54.7315C52.1599 54.6933 52.1849 54.6485 52.2 54.6C52.2 54.524 52.178 54.482 52.188 54.48Z" fill="#FF9A6C"/>
<path d="M52.384 55.4C52.2744 55.5077 52.1506 55.5999 52.016 55.674C51.7036 55.8711 51.3782 56.0469 51.042 56.2C50.7063 56.3572 50.3602 56.4908 50.006 56.6C49.8615 56.6523 49.711 56.6859 49.558 56.7C49.558 56.668 50.22 56.474 50.998 56.116C51.776 55.758 52.368 55.376 52.384 55.4Z" fill="#FF9A6C"/>
<path d="M49.85 57.424C50.0467 57.2855 50.2588 57.17 50.482 57.08C50.691 56.9591 50.9131 56.8625 51.144 56.792C50.9618 56.9534 50.7535 57.0825 50.528 57.174C50.3185 57.2967 50.089 57.3814 49.85 57.424Z" fill="#FF9A6C"/>
<path d="M32.29 62.38C32.29 62.38 34.69 67.38 36.768 67.666C38.846 67.952 40.434 65.688 41.168 64.854C42.116 63.782 46.768 58.624 46.768 58.624L44.304 56.624L37.974 61.124L36.774 59.124L32.29 62.38Z" fill="#FFBF9D"/>
<path d="M35.5439 67.0401C35.4736 67.0114 35.4066 66.9752 35.3439 66.9321C35.2727 66.884 35.2058 66.8298 35.1439 66.7701C35.0531 66.6948 34.9676 66.6133 34.8879 66.5261C34.4327 66.0228 34.025 65.4785 33.6699 64.9001C33.2479 64.2281 32.8999 63.6001 32.6699 63.1401C32.5499 62.9101 32.4559 62.7221 32.3939 62.5901C32.3575 62.5273 32.3293 62.4601 32.3099 62.3901C32.3568 62.4524 32.397 62.5195 32.4299 62.5901C32.5139 62.7341 32.6139 62.9121 32.7339 63.1221C32.9899 63.5721 33.3479 64.1941 33.7679 64.8621C34.1208 65.4353 34.5166 65.9808 34.9519 66.4941C35.027 66.5821 35.1071 66.6656 35.1919 66.7441C35.255 66.8061 35.3218 66.8642 35.3919 66.9181C35.4474 66.9525 35.4984 66.9934 35.5439 67.0401Z" fill="#FF9A6C"/>
<path d="M43.496 62.2622C43.4624 62.3297 43.4208 62.3928 43.372 62.4502C43.286 62.5682 43.158 62.7342 42.994 62.9342C42.664 63.3342 42.194 63.8722 41.658 64.4542C41.122 65.0362 40.632 65.5562 40.27 65.9262C40.09 66.1122 39.942 66.2602 39.838 66.3602C39.7878 66.4171 39.7307 66.4675 39.668 66.5102C39.7081 66.446 39.755 66.3863 39.808 66.3322L40.218 65.8762L41.582 64.3842C42.114 63.8022 42.594 63.2722 42.938 62.8862L43.338 62.4262C43.3835 62.3651 43.4366 62.3099 43.496 62.2622Z" fill="#FF9A6C"/>
<path d="M34.8 54.9178C36.138 57.4118 37.642 60.0138 37.642 60.0138L31.988 63.1818C31.988 63.1818 29.77 58.1698 29.752 58.0358C29.752 58.0358 28.966 54.9638 29.688 53.2358C30.0937 52.3572 30.7417 51.6127 31.556 51.0898" fill="#455A64"/>
<path d="M31.556 51.1001L31.528 51.1221L31.438 51.1861C31.362 51.2421 31.238 51.3281 31.106 51.4461C30.6986 51.7842 30.344 52.1812 30.054 52.6241C29.8529 52.9376 29.6999 53.2793 29.6 53.6381C29.4925 54.0618 29.4374 54.497 29.436 54.9341C29.4305 55.9751 29.5527 57.0129 29.8 58.0241C29.86 58.1861 29.944 58.3801 30.02 58.5601C30.096 58.7401 30.18 58.9281 30.26 59.1161L30.762 60.2621C31.104 61.0421 31.46 61.8501 31.826 62.6781L32.036 63.1561L31.964 63.1321L37.616 59.9701L37.6 60.0301C36.75 58.4941 36.046 57.2181 35.55 56.3201L34.984 55.2841C34.924 55.1681 34.874 55.0841 34.84 55.0081C34.8208 54.9781 34.8054 54.9458 34.794 54.9121C34.794 54.9121 34.814 54.9421 34.852 55.0021L35.008 55.2701C35.146 55.5141 35.344 55.8581 35.594 56.2961C36.098 57.1901 36.814 58.4581 37.674 59.9861L37.696 60.0241L37.658 60.0461L32.014 63.2281L31.964 63.2561L31.94 63.2001L31.74 62.7221L30.678 60.3061L30.18 59.1561L29.93 58.6001C29.852 58.4001 29.776 58.2461 29.706 58.0401C29.4582 57.0202 29.3379 55.9736 29.348 54.9241C29.3535 54.4806 29.4126 54.0394 29.524 53.6101C29.6314 53.2516 29.7918 52.9111 30 52.6001C30.2989 52.1572 30.6638 51.7627 31.082 51.4301C31.228 51.3141 31.346 51.2301 31.426 51.1801L31.518 51.1241L31.556 51.1001Z" fill="#263238"/>
<path d="M37.248 64.0001C37.2051 63.8555 37.1869 63.7047 37.194 63.5541C37.1825 62.8214 37.3817 62.1008 37.768 61.4781C37.8399 61.3451 37.9331 61.2248 38.044 61.1221C37.7898 61.5581 37.5846 62.0209 37.432 62.5021C37.3148 62.9929 37.2531 63.4954 37.248 64.0001Z" fill="#FF9A6C"/>
<path d="M33.256 46.5198C33.496 46.3078 33.836 46.2498 34.078 46.0458C34.195 45.9353 34.2886 45.8024 34.3532 45.655C34.4178 45.5076 34.452 45.3488 34.454 45.1878C34.4557 44.8655 34.4098 44.5448 34.318 44.2358L36.918 47.5758C36.7311 47.9532 36.4754 48.2924 36.164 48.5758C36.0093 48.716 35.8211 48.814 35.6176 48.8602C35.4141 48.9065 35.202 48.8994 35.002 48.8398C34.602 48.6958 34.346 48.2038 34.526 47.8198C34.3491 47.9827 34.1174 48.0732 33.877 48.0732C33.6365 48.0732 33.4049 47.9827 33.228 47.8198C33.0628 47.642 32.9734 47.4068 32.9786 47.1642C32.9838 46.9215 33.0833 46.6904 33.256 46.5198Z" fill="#263238"/>
<path d="M40.778 36.7642C41.41 37.2362 41.514 37.7042 41.538 37.9642C41.538 38.0382 41.538 38.1322 41.464 38.1642C41.4309 38.175 41.3951 38.175 41.362 38.1642L39.25 37.5082" fill="#263238"/>
<path d="M34.944 45.1822C34.4454 44.323 34.0205 43.4231 33.674 42.4922C33.3284 41.5532 33.2151 40.5444 33.344 39.5522C33.368 39.4022 33.62 38.3842 33.766 38.3682C33.872 38.3682 33.766 39.2822 33.844 39.3682C34.51 40.1422 34.844 41.1682 34.962 42.1902C35.0661 43.1878 35.0601 44.1939 34.944 45.1902" fill="#263238"/>
<path d="M43.11 45.2C42.966 44.05 42.478 41.708 42.012 39.6C41.7854 38.515 41.1557 37.5563 40.2501 36.9172C39.3445 36.278 38.2303 36.006 37.132 36.156L36.906 36.188C34.506 36.684 33.58 39.042 34.13 41.478L35.78 49.656L35.934 49.806C36.992 50.844 38.218 51.406 39.534 51.372C39.9967 51.3576 40.4373 51.1714 40.7701 50.8497C41.1029 50.528 41.3039 50.0939 41.334 49.632C41.346 49.606 41.134 48.292 41.134 48.292C41.134 48.292 43.412 47.578 43.11 45.2Z" fill="#FFBF9D"/>
<path d="M41.138 48.2838C40.0626 48.4339 38.9668 48.2657 37.986 47.7998C37.986 47.7998 38.962 49.4798 41.25 48.9298L41.138 48.2838Z" fill="#FF9A6C"/>
<path d="M41.584 41.9081C41.5981 41.9957 41.5776 42.0853 41.5268 42.1581C41.4761 42.2308 41.399 42.281 41.312 42.2981C41.2699 42.3074 41.2264 42.3081 41.184 42.3001C41.1416 42.2922 41.1013 42.2758 41.0655 42.2519C41.0296 42.2279 40.9989 42.197 40.9753 42.161C40.9517 42.1249 40.9356 42.0845 40.928 42.0421C40.9134 41.9544 40.9336 41.8645 40.9845 41.7916C41.0353 41.7187 41.1127 41.6686 41.2 41.6521C41.2421 41.6428 41.2856 41.6421 41.328 41.65C41.3703 41.6579 41.4106 41.6744 41.4465 41.6983C41.4824 41.7222 41.513 41.7531 41.5367 41.7891C41.5603 41.8252 41.5764 41.8656 41.584 41.9081Z" fill="#263238"/>
<path d="M41.664 40.7118C41.628 40.7618 41.35 40.6078 40.994 40.6618C40.638 40.7158 40.394 40.9338 40.356 40.8958C40.318 40.8578 40.356 40.7918 40.466 40.6958C40.6053 40.5654 40.7812 40.481 40.97 40.4538C41.1563 40.427 41.3462 40.4606 41.512 40.5498C41.632 40.6138 41.682 40.6898 41.664 40.7118Z" fill="#263238"/>
<path d="M38.506 42.3519C38.5201 42.4392 38.4996 42.5286 38.4488 42.6011C38.398 42.6735 38.321 42.7233 38.234 42.7399C38.192 42.7492 38.1484 42.7499 38.1061 42.7419C38.0637 42.734 38.0234 42.7176 37.9875 42.6937C37.9517 42.6698 37.921 42.6389 37.8974 42.6028C37.8737 42.5668 37.8576 42.5263 37.85 42.4839C37.8416 42.4398 37.842 42.3944 37.8511 42.3504C37.8602 42.3064 37.8779 42.2647 37.9032 42.2275C37.9284 42.1904 37.9608 42.1586 37.9983 42.1339C38.0359 42.1093 38.0779 42.0923 38.122 42.0839C38.165 42.075 38.2093 42.0749 38.2522 42.0837C38.2952 42.0925 38.3359 42.11 38.3718 42.1351C38.4078 42.1602 38.4382 42.1924 38.4613 42.2296C38.4844 42.2669 38.4996 42.3085 38.506 42.3519Z" fill="#263238"/>
<path d="M38.174 41.3041C38.14 41.3541 37.862 41.2001 37.504 41.2541C37.146 41.3081 36.904 41.5261 36.866 41.4881C36.828 41.4501 36.866 41.3841 36.978 41.2881C37.1159 41.1555 37.2924 41.07 37.482 41.0441C37.6676 41.0173 37.8569 41.051 38.022 41.1401C38.144 41.2001 38.2 41.2821 38.174 41.3041Z" fill="#263238"/>
<path d="M39.844 43.9238C40.0232 43.8328 40.2134 43.7655 40.41 43.7238C40.5 43.7018 40.584 43.6698 40.59 43.6038C40.5843 43.5071 40.5494 43.4144 40.49 43.3378C40.374 43.1238 40.252 42.8998 40.122 42.6658C39.608 41.7098 39.222 40.9178 39.26 40.8978C39.298 40.8778 39.746 41.6358 40.26 42.5918L40.618 43.2678C40.6901 43.3727 40.7247 43.4989 40.716 43.6258C40.7074 43.6604 40.691 43.6926 40.6682 43.72C40.6453 43.7474 40.6165 43.7692 40.584 43.7838C40.5357 43.806 40.4845 43.8215 40.432 43.8298C40.2408 43.8861 40.0432 43.9177 39.844 43.9238Z" fill="#263238"/>
<path d="M38.132 40.1461C38.096 40.2461 37.732 40.1981 37.312 40.2501C36.892 40.3021 36.548 40.4201 36.492 40.3301C36.466 40.2861 36.526 40.1921 36.664 40.0961C36.847 39.9769 37.0554 39.9021 37.2724 39.8778C37.4894 39.8535 37.7092 39.8803 37.914 39.9561C38.068 40.0201 38.148 40.0981 38.132 40.1461Z" fill="#263238"/>
<path d="M41.628 40.114C41.566 40.208 41.262 40.17 40.914 40.222C40.566 40.274 40.278 40.38 40.196 40.304C40.16 40.268 40.196 40.178 40.31 40.078C40.4727 39.9528 40.6662 39.874 40.87 39.85C41.073 39.8185 41.2808 39.8442 41.47 39.924C41.6 40 41.654 40.068 41.628 40.114Z" fill="#263238"/>
<path d="M34.564 43.1999C34.522 43.1879 32.9 42.9479 33.176 44.5639C33.452 46.1799 34.976 45.5639 34.976 45.5179C34.976 45.4719 34.564 43.1999 34.564 43.1999Z" fill="#FFBF9D"/>
<path d="M34.3999 45.0001C34.3999 45.0001 34.3739 45.0241 34.3319 45.0541C34.273 45.0929 34.2015 45.108 34.1319 45.0961C33.9559 45.0621 33.7679 44.8161 33.7099 44.5261C33.6808 44.3889 33.6808 44.2472 33.7099 44.1101C33.7159 44.057 33.7347 44.0061 33.7646 43.9619C33.7946 43.9176 33.8349 43.8813 33.8819 43.8561C33.9119 43.8418 33.9459 43.8389 33.9779 43.8477C34.0098 43.8565 34.0375 43.8765 34.0559 43.9041C34.0859 43.9461 34.0819 43.9801 34.0899 43.9801C34.0979 43.9801 34.1199 43.9481 34.0899 43.8841C34.0745 43.8457 34.0463 43.8139 34.0099 43.7941C33.9857 43.7808 33.9589 43.7727 33.9314 43.7703C33.9039 43.7679 33.8761 43.7712 33.8499 43.7801C33.7866 43.8042 33.7304 43.844 33.6867 43.8958C33.643 43.9475 33.6131 44.0096 33.5999 44.0761C33.5559 44.2275 33.549 44.3874 33.5799 44.5421C33.6459 44.8661 33.8619 45.1421 34.1019 45.1701C34.1466 45.175 34.1919 45.1697 34.2342 45.1544C34.2765 45.1392 34.3147 45.1144 34.3459 45.0821C34.3999 45.0321 34.3999 45.0001 34.3999 45.0001Z" fill="#FF9A6C"/>
<path d="M40.51 37.1102C40.74 36.9102 39.82 36.2162 39.14 36.0422C38.112 35.7802 36.614 35.7802 35.784 36.1982C34.784 36.7022 34.006 37.3982 33.654 38.4822C33.3228 39.577 33.2828 40.7392 33.538 41.8542C33.5871 42.1983 33.7249 42.5236 33.938 42.7982C34.222 43.1142 34.57 43.2322 34.756 43.7562C34.7932 43.9309 34.8808 44.0909 35.008 44.2162C35.354 44.4762 35.654 44.1162 35.764 43.7882C35.998 43.0922 35.9 42.3302 35.802 41.6002C35.758 41.0781 35.6311 40.5664 35.426 40.0842C35.3 39.8282 35.13 39.5982 35.026 39.3362C34.9621 39.2088 34.9262 39.0691 34.9207 38.9267C34.9152 38.7842 34.9402 38.6422 34.994 38.5102C35.023 38.4546 35.0578 38.4023 35.098 38.3542C35.28 38.1177 35.5225 37.9347 35.7999 37.8245C36.0773 37.7143 36.3793 37.681 36.674 37.7282C37.622 37.8842 39.226 38.0782 39.568 37.6962C40.058 37.1442 40.144 36.8302 40.144 36.8302L40.51 37.1102Z" fill="#263238"/>
<path d="M33.456 43.338C33.42 43.316 33.376 43.32 33.342 43.298C31.152 41.832 32.32 39.8 32.246 39.266C32.146 38.514 31.446 39.62 31.156 38.666C30.774 37.386 32.032 36.576 33.6 35.704C34.258 35.338 35.96 34.944 37.524 34.986C38.924 35.022 39.988 35.828 40.632 36.482C40.7939 36.5248 40.9446 36.6019 41.074 36.708C41.39 37.108 41.316 37.308 41.316 37.308C41.316 37.308 38.066 36.29 35.95 38.826C33.834 41.362 34.604 43.064 33.95 43.21L33.456 43.338Z" fill="#455A64"/>
<path d="M34.348 36.708C34.3102 36.7379 34.2701 36.7647 34.228 36.788C34.188 36.814 34.14 36.844 34.086 36.882C34.032 36.92 33.968 36.96 33.902 37.012C33.7456 37.1315 33.5973 37.2611 33.458 37.4C33.2872 37.5684 33.1288 37.7489 32.984 37.94C32.8423 38.1309 32.714 38.3314 32.6 38.54C32.509 38.715 32.4289 38.8953 32.36 39.08C32.328 39.158 32.306 39.232 32.286 39.296C32.266 39.36 32.248 39.414 32.236 39.46C32.2283 39.5077 32.2162 39.5545 32.2 39.6C32.2067 39.5515 32.216 39.5035 32.228 39.456C32.2391 39.3993 32.2531 39.3433 32.27 39.288C32.29 39.222 32.308 39.148 32.338 39.068C32.4036 38.8803 32.4818 38.6972 32.572 38.52C32.6846 38.3038 32.8137 38.0965 32.958 37.9C33.1031 37.7067 33.2636 37.5254 33.438 37.358C33.5803 37.2214 33.7327 37.0957 33.894 36.982C33.9544 36.9368 34.0172 36.8948 34.082 36.856C34.138 36.818 34.188 36.79 34.228 36.768C34.2659 36.7442 34.3061 36.7241 34.348 36.708Z" fill="#263238"/>
<path d="M40.722 36.51C40.722 36.51 40.712 36.51 40.692 36.51L40.606 36.492C40.532 36.474 40.42 36.452 40.278 36.424C40.136 36.396 39.958 36.368 39.752 36.348C39.5188 36.3244 39.2843 36.3157 39.05 36.322C38.4394 36.3378 37.8359 36.4582 37.266 36.678C36.9281 36.8067 36.6033 36.9675 36.296 37.158C35.966 37.3636 35.6578 37.6021 35.376 37.87C35.0937 38.1412 34.8409 38.4415 34.622 38.766C34.4197 39.0706 34.2463 39.3933 34.104 39.73C33.8679 40.309 33.6981 40.9128 33.598 41.53C33.508 42.054 33.47 42.484 33.444 42.782C33.432 42.928 33.424 43.042 33.416 43.124C33.416 43.16 33.416 43.19 33.416 43.212C33.416 43.234 33.416 43.244 33.416 43.244C33.416 43.244 33.416 43.232 33.416 43.212C33.416 43.192 33.416 43.16 33.416 43.124C33.416 43.044 33.416 42.924 33.434 42.78C33.454 42.482 33.488 42.052 33.574 41.524C33.6708 40.9068 33.8385 40.3028 34.074 39.724C34.2154 39.383 34.3888 39.0562 34.592 38.748C34.8124 38.4211 35.0672 38.1187 35.352 37.846C35.636 37.5757 35.947 37.3351 36.28 37.128C36.5902 36.9371 36.9177 36.7758 37.258 36.646C37.8336 36.4275 38.4425 36.3097 39.058 36.298C39.2932 36.293 39.5284 36.3044 39.762 36.332C39.962 36.354 40.146 36.388 40.288 36.414C40.43 36.44 40.542 36.472 40.616 36.492L40.7 36.516L40.722 36.51Z" fill="#263238"/>
<path d="M34.3279 42.3502C34.1892 42.4052 34.0366 42.4149 33.8919 42.3782C33.741 42.3549 33.6011 42.285 33.4919 42.1782C33.6209 42.2375 33.7548 42.2857 33.8919 42.3222C34.036 42.346 34.182 42.3554 34.3279 42.3502Z" fill="#263238"/>
<path d="M34.902 40.7641C34.8466 40.776 34.7893 40.776 34.7339 40.7641C34.4588 40.715 34.2085 40.574 34.024 40.3641C33.9813 40.3249 33.9473 40.2772 33.924 40.2241C34.1787 40.5098 34.5241 40.6991 34.902 40.7601V40.7641Z" fill="#263238"/>
<path d="M36.016 38.7319C35.9009 38.5905 35.7767 38.4569 35.644 38.3319C35.5027 38.2259 35.3543 38.1297 35.2 38.0439C35.3754 38.099 35.5384 38.1881 35.6794 38.3062C35.8204 38.4242 35.9368 38.5689 36.022 38.7319H36.016Z" fill="#263238"/>
<path d="M37.316 37.7318C37.2497 37.5796 37.1735 37.432 37.088 37.2898C36.9923 37.1552 36.8881 37.027 36.776 36.9058C36.921 36.9943 37.0419 37.1173 37.128 37.2638C37.2271 37.4025 37.2916 37.563 37.316 37.7318Z" fill="#263238"/>
<path d="M39.444 37.1839C39.4392 37.0182 39.404 36.8548 39.34 36.7019C39.2628 36.556 39.1598 36.4252 39.036 36.3159C39.0834 36.332 39.1265 36.3587 39.162 36.3939C39.2552 36.4729 39.3303 36.5712 39.382 36.6819C39.4338 36.7929 39.4617 36.9135 39.464 37.0359C39.4694 37.0861 39.4626 37.1369 39.444 37.1839Z" fill="#263238"/>
<path d="M40.8 37.2599C40.7984 37.1301 40.789 37.0006 40.772 36.8719C40.7395 36.7469 40.6994 36.624 40.652 36.5039C40.742 36.6046 40.7999 36.73 40.818 36.8639C40.8508 36.9948 40.8446 37.1325 40.8 37.2599Z" fill="#263238"/>
<path d="M40.092 44.838C40.068 44.838 39.018 44.438 39.018 44.438C39.018 44.438 38.714 45.038 39.082 45.324C39.45 45.61 39.898 45.428 39.968 45.262C40.0208 45.1243 40.0623 44.9825 40.092 44.838Z" fill="#FF9A6C"/>
<path d="M39.856 45.3679C39.856 45.3679 39.822 45.4259 39.718 45.4579C39.5739 45.4912 39.4241 45.4912 39.28 45.4579C39.1336 45.4175 39.0057 45.3278 38.918 45.2039C38.8754 45.1264 38.8488 45.0412 38.8395 44.9533C38.8302 44.8654 38.8385 44.7766 38.864 44.6919C38.889 44.5887 38.9273 44.4892 38.978 44.3959L38.998 44.3579L39.04 44.3739C39.4165 44.5046 39.7828 44.6631 40.136 44.8479C39.7485 44.7527 39.3687 44.6283 39 44.4759L39.062 44.4539C39.017 44.5385 38.9834 44.6286 38.962 44.7219C38.917 44.8664 38.9299 45.0227 38.998 45.1579C39.0719 45.2648 39.1786 45.3449 39.302 45.3859C39.4324 45.4198 39.568 45.4293 39.702 45.4139C39.7541 45.4015 39.8056 45.3862 39.856 45.3679Z" fill="#263238"/>
<defs>
<linearGradient id="paint0_linear_1136_8963" x1="63" y1="0" x2="63" y2="125" gradientUnits="userSpaceOnUse">
<stop stop-color="#88FFAD" stop-opacity="0.19"/>
<stop offset="1" stop-color="#33CC7A"/>
</linearGradient>
</defs>
</svg>
