<svg width="126" height="125" viewBox="0 0 126 125" fill="none" xmlns="http://www.w3.org/2000/svg">
<path fill-rule="evenodd" clip-rule="evenodd" d="M113.698 71.5714C112.802 71.8214 111.542 71.9464 109.918 71.9464C108.266 71.9742 106.418 71.9603 104.374 71.9048C102.33 71.8492 100.286 71.8214 98.2421 71.8214C96.17 71.8492 94.294 72.002 92.6139 72.2798C90.9339 72.5298 89.5898 72.9743 88.5818 73.6132C87.5458 74.2521 86.8037 75.0715 86.3557 76.0716C85.8797 77.0438 85.6137 78.1966 85.5577 79.53C85.5017 80.8356 85.5577 82.2801 85.7257 83.8634C85.8937 85.4468 86.0757 87.1552 86.2717 88.9886C86.4957 90.822 86.6497 92.7387 86.7337 94.7387C86.8457 96.7388 86.8737 98.7666 86.8177 100.822C86.7617 102.878 86.6217 104.906 86.3977 106.906C86.1457 108.906 85.7817 110.809 85.3057 112.614C84.8577 114.392 84.2837 116.031 83.5836 117.531C82.8556 119.003 82.0156 120.253 81.0636 121.281C80.0836 122.337 79.0055 123.156 77.8295 123.74C76.6535 124.351 75.4214 124.74 74.1334 124.906C72.8454 125.073 71.5433 125.017 70.2273 124.74C68.8832 124.462 67.5672 123.976 66.2792 123.281C64.9911 122.615 63.7591 121.726 62.5831 120.614C61.407 119.531 60.301 118.253 59.265 116.781C58.2569 115.309 57.3609 113.684 56.5769 111.906C55.7929 110.1 55.1349 108.17 54.6028 106.114C54.0988 104.031 53.7488 101.836 53.5528 99.5305C53.3568 97.2527 53.3148 94.8776 53.4268 92.4053C53.5668 89.9608 53.7488 87.558 53.9728 85.1968C54.1968 82.8079 54.3368 80.6133 54.3928 78.6133C54.4488 76.5855 54.2808 74.8632 53.8888 73.4465C53.4968 72.0298 52.7548 71.0714 51.6628 70.5714C50.5427 70.0436 48.9887 70.0297 47.0006 70.5297C45.0126 71.0575 42.6885 71.9603 40.0284 73.2381C37.3964 74.4882 34.5963 75.9188 31.6282 77.5299C28.6601 79.1411 25.692 80.7245 22.7239 82.2801C19.7559 83.8357 16.9698 85.169 14.3657 86.2802C11.7616 87.3635 9.47958 88.0719 7.51952 88.4052C5.55947 88.7386 3.96342 88.7247 2.73139 88.3636C1.49935 88.0024 0.687332 87.3774 0.295321 86.4885C-0.124691 85.5996 -0.0966902 84.5301 0.379323 83.2801C0.855336 82.0301 1.79336 80.6967 3.1934 79.28C4.62144 77.8355 6.49749 76.3771 8.82156 74.9049C11.1456 73.4326 13.7077 71.9603 16.5078 70.4881C19.3079 69.0158 22.0939 67.5435 24.866 66.0713C27.6101 64.599 30.0882 63.1406 32.3002 61.6962C34.5123 60.2795 36.1643 58.8627 37.2564 57.446C38.3764 56.0293 38.7824 54.6543 38.4744 53.3209C38.1384 51.9598 37.2704 50.6403 35.8703 49.3625C34.4703 48.0847 32.7902 46.8624 30.8302 45.6957C28.8701 44.5012 26.9101 43.3762 24.95 42.3206C22.99 41.265 21.2819 40.2789 19.8259 39.3622C18.3698 38.4733 17.3758 37.6538 16.8438 36.9038C16.3118 36.1816 16.2138 35.5565 16.5498 35.0288C16.8858 34.501 17.5578 34.1121 18.5658 33.8621C19.5739 33.5843 20.8199 33.4454 22.3039 33.4454C23.788 33.4732 25.426 33.6537 27.2181 33.9871C28.9821 34.3204 30.8162 34.8204 32.7202 35.4871C34.6243 36.1816 36.5143 36.9455 38.3904 37.7788C40.2664 38.64 42.0865 39.5011 43.8505 40.3622C45.5866 41.2234 47.2106 42.0012 48.7227 42.6956C50.2067 43.3623 51.5228 43.8623 52.6708 44.1957C53.7908 44.529 54.6868 44.6124 55.3589 44.4457C56.0309 44.2512 56.5349 43.8068 56.8709 43.1123C57.1789 42.4178 57.3889 41.4734 57.5009 40.2789C57.5849 39.0566 57.6269 37.5983 57.6269 35.9038C57.5989 34.2093 57.5989 32.2648 57.6269 30.0703C57.6549 27.9036 57.7389 25.5285 57.8789 22.9451C58.0469 20.3617 58.2569 17.7505 58.509 15.1115C58.789 12.5003 59.083 10.0836 59.391 7.86133C59.727 5.61127 60.077 3.77788 60.441 2.36118C60.777 0.972249 61.099 0.19445 61.407 0.0277785C61.715 -0.138893 61.995 0.444457 62.2471 1.77783C62.5271 3.1112 62.7791 5.00014 63.0031 7.44465C63.2271 9.88916 63.4791 12.5837 63.7591 15.5282C64.0111 18.5005 64.3191 21.4173 64.6831 24.2785C65.0191 27.1674 65.4391 29.7369 65.9432 31.987C66.4472 34.2093 67.0492 35.8899 67.7492 37.0288C68.4492 38.1955 69.2613 38.8622 70.1853 39.0289C71.1093 39.1955 72.1453 39.015 73.2934 38.4872C74.4414 37.9316 75.7154 37.1538 77.1155 36.1538C78.5155 35.1538 80.0555 34.0704 81.7356 32.9037C83.3876 31.7092 85.1797 30.5286 87.1117 29.3619C89.0438 28.223 91.0459 27.1396 93.1179 26.1118C95.218 25.084 97.346 24.1673 99.5021 23.3618C101.658 22.5562 103.772 21.8895 105.844 21.3617C107.944 20.8339 109.946 20.5006 111.85 20.3617C113.783 20.195 115.561 20.2367 117.185 20.4867C118.837 20.7367 120.279 21.1673 121.511 21.7784C122.771 22.3895 123.779 23.1395 124.535 24.0284C125.291 24.9451 125.753 25.9591 125.921 27.0702C126.117 28.2091 125.949 29.4175 125.417 30.6953C124.913 31.9731 124.059 33.2926 122.855 34.6537C121.623 36.0427 120.195 37.4455 118.571 38.8622C116.947 40.3067 115.295 41.7651 113.614 43.2373C111.934 44.7096 110.422 46.1957 109.078 47.6958C107.734 49.1958 106.74 50.6959 106.096 52.1959C105.452 53.6682 105.284 55.1404 105.592 56.6127C105.872 58.0849 106.474 59.5017 107.398 60.8628C108.322 62.224 109.33 63.5018 110.422 64.6962C111.542 65.8907 112.522 66.9602 113.362 67.9047C114.203 68.8491 114.679 69.6269 114.791 70.2381C114.931 70.8492 114.567 71.2936 113.698 71.5714Z" fill="url(#paint0_linear_1136_7442)"/>
<path d="M100.822 60.6418L87.8484 62.6502C87.3528 62.7269 87.0132 63.1908 87.09 63.6864L88.3132 71.5882C88.39 72.0838 88.8539 72.4234 89.3495 72.3466L102.323 70.3382C102.818 70.2615 103.158 69.7976 103.081 69.302L101.858 61.4002C101.781 60.9046 101.317 60.565 100.822 60.6418Z" stroke="#263238" stroke-width="0.3" stroke-linecap="round" stroke-linejoin="round"/>
<path d="M87.2881 64.9618L102.056 62.6758" stroke="#263238" stroke-width="0.3" stroke-linecap="round" stroke-linejoin="round"/>
<path d="M100.901 65.2679L98.5157 65.6372L99.0475 69.0723L101.433 68.703L100.901 65.2679Z" stroke="#263238" stroke-width="0.3" stroke-linecap="round" stroke-linejoin="round"/>
<path d="M99.4841 66.1996C99.9881 65.5996 100.816 65.9996 100.622 67.8616L101.36 68.2276L101.432 68.6956L99.0481 69.0656L98.9501 68.4396L99.8501 68.0896C99.8501 68.0896 99.0101 66.7656 99.4841 66.1996Z" stroke="#263238" stroke-width="0.3" stroke-linecap="round" stroke-linejoin="round"/>
<path d="M94.3101 70.3996C94.3101 70.3996 96.0341 70.4136 95.5401 70.0696C95.0461 69.7256 94.9721 69.3776 95.3921 69.3716C95.8121 69.3656 96.5161 70.1716 96.4601 69.6796C96.4041 69.1876 96.7081 69.5076 96.7661 69.5396C96.8241 69.5716 97.3221 69.3716 97.3461 69.4296C97.3701 69.4876 97.3361 69.6496 98.9581 69.3996" stroke="#263238" stroke-width="0.3" stroke-linecap="round" stroke-linejoin="round"/>
<path d="M88.54 66.496L95.772 65.376" stroke="#263238" stroke-width="0.3" stroke-linecap="round" stroke-linejoin="round"/>
<path d="M88.6681 67.3158L92.9281 66.6558" stroke="#263238" stroke-width="0.3" stroke-linecap="round" stroke-linejoin="round"/>
<path d="M88.8921 68.7618L94.8341 67.8418" stroke="#263238" stroke-width="0.3" stroke-linecap="round" stroke-linejoin="round"/>
<path d="M90.7361 63.354L97.9881 62.23" stroke="#263238" stroke-width="0.3" stroke-linecap="round" stroke-linejoin="round"/>
<path d="M21.67 58.2878L37.884 55.0498L43.546 82.2338L26.312 85.9298L21.67 58.2878Z" stroke="#263238" stroke-width="0.3" stroke-linecap="round" stroke-linejoin="round"/>
<path d="M25.66 82.052L42.86 78.938" stroke="#263238" stroke-width="0.3" stroke-linecap="round" stroke-linejoin="round"/>
<path d="M40.822 76.626L32.608 78.142" stroke="#263238" stroke-width="0.3" stroke-linecap="round" stroke-linejoin="round"/>
<path d="M39.6041 75.2617L37.2041 75.6157" stroke="#263238" stroke-width="0.3" stroke-linecap="round" stroke-linejoin="round"/>
<path d="M39.9701 72.4858L27.7101 74.7858" stroke="#263238" stroke-width="0.3" stroke-linecap="round" stroke-linejoin="round"/>
<path d="M23.79 70.9156L40.572 67.9536" stroke="#263238" stroke-width="0.3" stroke-linecap="round" stroke-linejoin="round" stroke-dasharray="1 2"/>
<path d="M41.6221 81.354L31.4281 83.49" stroke="#263238" stroke-width="0.3" stroke-linecap="round" stroke-linejoin="round"/>
<path d="M41.318 80.4937L36.526 81.3536" stroke="#263238" stroke-width="0.3" stroke-linecap="round" stroke-linejoin="round"/>
<path d="M38.7261 66.1616L30.3201 67.8276" stroke="#263238" stroke-width="0.3" stroke-linecap="round" stroke-linejoin="round"/>
<path d="M38.062 64.2959L35.384 64.8219" stroke="#263238" stroke-width="0.3" stroke-linecap="round" stroke-linejoin="round"/>
<path d="M37.904 63L25.66 65.36" stroke="#263238" stroke-width="0.3" stroke-linecap="round" stroke-linejoin="round"/>
<path d="M36.7921 56.6919L33.4861 57.3759" stroke="#263238" stroke-width="0.3" stroke-linecap="round" stroke-linejoin="round"/>
<path d="M25.66 59.042L22.808 59.596" stroke="#263238" stroke-width="0.3" stroke-linecap="round" stroke-linejoin="round"/>
<path d="M23.8461 61.1677C23.9055 60.965 24.0077 60.7773 24.1457 60.6172C24.2837 60.4571 24.4543 60.3285 24.6461 60.2397" stroke="#263238" stroke-width="0.3" stroke-linecap="round" stroke-linejoin="round"/>
<path d="M25.114 62.9999C24.7599 62.9579 24.4325 62.7904 24.1914 62.5276C23.9503 62.2648 23.8115 61.9243 23.8 61.5679" stroke="#263238" stroke-width="0.3" stroke-linecap="round" stroke-linejoin="round"/>
<path d="M26.226 62.6597C26.023 62.8423 25.7703 62.9607 25.5 62.9997" stroke="#263238" stroke-width="0.3" stroke-linecap="round" stroke-linejoin="round"/>
<path d="M25.254 60.104C25.5115 60.1124 25.7625 60.1874 25.9824 60.3216C26.2023 60.4558 26.3838 60.6447 26.509 60.8698C26.6343 61.095 26.6991 61.3487 26.6972 61.6064C26.6953 61.864 26.6266 62.1168 26.498 62.34" stroke="#263238" stroke-width="0.3" stroke-linecap="round" stroke-linejoin="round"/>
<path d="M28.17 60.4797C27.904 60.3957 27.64 60.2997 27.37 60.2397" stroke="#263238" stroke-width="0.3" stroke-linecap="round" stroke-linejoin="round"/>
<path d="M30.4381 60.6719C30.2121 61.2099 28.9481 60.7199 28.5801 60.6079" stroke="#263238" stroke-width="0.3" stroke-linecap="round" stroke-linejoin="round"/>
<path d="M28.274 59.2437L30.638 59.7997C30.6 59.9577 30.57 60.1177 30.54 60.2757" stroke="#263238" stroke-width="0.3" stroke-linecap="round" stroke-linejoin="round"/>
<path d="M27.104 59.7998C27.356 59.1998 27.256 58.9998 27.884 59.1458" stroke="#263238" stroke-width="0.3" stroke-linecap="round" stroke-linejoin="round"/>
<path d="M55.95 102.254L59.0799 103.214L56.754 100.474C58.029 99.0565 58.7591 97.2321 58.814 95.3262" stroke="#263238" stroke-linecap="round" stroke-linejoin="round"/>
<path d="M52.152 103.462C53.2011 103.128 54.1912 102.63 55.086 101.988" stroke="#263238" stroke-linecap="round" stroke-linejoin="round"/>
<path d="M40.074 97.6421C40.996 102.084 45.904 104.82 51.038 103.756" stroke="#263238" stroke-linecap="round" stroke-linejoin="round"/>
<path d="M40.822 92.6343C40.625 93.0085 40.4578 93.3977 40.322 93.7983" stroke="#263238" stroke-linecap="round" stroke-linejoin="round"/>
<path d="M58.6639 93.7861C57.7439 89.3441 52.8339 86.6081 47.7019 87.6741C45.3715 88.1318 43.2713 89.3819 41.7579 91.2121" stroke="#263238" stroke-linecap="round" stroke-linejoin="round"/>
<path d="M53.2179 92.1582C51.7399 90.5482 49.7259 91.6642 48.8879 93.2982C47.5039 92.0982 45.2179 91.8042 44.4459 93.8502C43.1419 97.2962 47.6019 99.3982 49.6659 100.158C49.8999 100.246 50.0919 100.32 50.2519 100.374C50.3819 100.264 50.5339 100.124 50.7179 99.9562C52.3499 98.4822 55.7099 94.8742 53.2179 92.1582Z" stroke="#263238" stroke-linecap="round" stroke-linejoin="round"/>
<path d="M65.508 26.5998L62.486 25.3418L64.536 28.2938C63.1348 29.5818 62.2362 31.3253 62 33.2138" stroke="#263238" stroke-linecap="round" stroke-linejoin="round"/>
<path d="M69.4 25.7578C68.3241 25.9911 67.291 26.3905 66.338 26.9418" stroke="#263238" stroke-linecap="round" stroke-linejoin="round"/>
<path d="M80.866 32.7139C80.376 28.1999 75.754 24.9999 70.542 25.5739" stroke="#263238" stroke-linecap="round" stroke-linejoin="round"/>
<path d="M79.64 37.6256C79.8686 37.2718 80.0692 36.9007 80.24 36.5156" stroke="#263238" stroke-linecap="round" stroke-linejoin="round"/>
<path d="M62 34.7617C62.49 39.2717 67.112 42.4677 72.324 41.9017C74.6872 41.6695 76.8974 40.6273 78.58 38.9517" stroke="#263238" stroke-linecap="round" stroke-linejoin="round"/>
<path d="M73.6249 37.5217C75.9358 36.2847 76.8063 33.4086 75.5693 31.0977C74.3323 28.7868 71.4562 27.9163 69.1453 29.1533C66.8344 30.3903 65.9639 33.2664 67.2009 35.5773C68.4379 37.8882 71.314 38.7587 73.6249 37.5217Z" stroke="#263238" stroke-linecap="round" stroke-linejoin="round"/>
<path d="M69.582 33.9377L71.002 35.2777L73.37 31.1997" stroke="#263238" stroke-linecap="round" stroke-linejoin="round"/>
<path opacity="0.2" d="M77.318 78.5421C77.318 78.5421 76.606 87.1581 77.636 89.2481C78.666 91.3381 79.182 105.618 78.72 107.414C78.72 107.414 82.036 108.25 83.348 107.062C84.66 105.874 86.678 107.018 90.002 105.862C93.326 104.706 90.928 79.0481 90.928 79.0481L91.03 69.7141L85.548 64.8301L77.318 78.5421Z" fill="black" fill-opacity="0.7"/>
<path d="M81.738 82.6862C81.7173 82.7478 81.6839 82.8043 81.64 82.8522C80.932 83.5222 77.91 84.2662 75.314 84.8022C73.164 85.2482 71.314 85.5502 71.314 85.5502C71.314 85.5502 69.89 73.7162 69.89 72.4722C69.89 71.2282 67.594 51.0882 67.594 51.0882L73.098 50.8502L80.4 50.5342C80.4 50.5342 80.444 51.0722 80.518 52.0122C81 58.0002 82.656 80.3242 81.738 82.6862Z" fill="#3DAA5F"/>
<mask id="mask0_1136_7442" style="mask-type:luminance" maskUnits="userSpaceOnUse" x="67" y="50" width="16" height="36">
<path d="M81.738 82.6862C81.7173 82.7478 81.6839 82.8043 81.64 82.8522C80.932 83.5222 77.91 84.2662 75.314 84.8022C73.164 85.2482 71.314 85.5502 71.314 85.5502C71.314 85.5502 69.89 73.7162 69.89 72.4722C69.89 71.2282 67.594 51.0882 67.594 51.0882L73.098 50.8502L80.4 50.5342C80.4 50.5342 80.444 51.0722 80.518 52.0122C81 58.0002 82.656 80.3242 81.738 82.6862Z" fill="white"/>
</mask>
<g mask="url(#mask0_1136_7442)">
<path opacity="0.2" d="M81.738 82.6863L75.314 84.0003L72.888 84.4983C72.23 83.8523 71.728 83.8403 71.728 83.8403L71.528 82.0303L71.214 79.0683L68.45 53.0083C69.05 52.5943 69.346 51.6883 69.346 51.6883L73.046 51.5543L79.456 51.3203L80.514 52.0043C81 58.0003 82.656 80.3243 81.738 82.6863Z" fill="black" fill-opacity="0.7"/>
<path d="M81.738 82.6863L75.314 84.0003L72.888 84.4983C72.23 83.8523 71.728 83.8403 71.728 83.8403L71.528 82.0303L71.214 79.0683L68.45 53.0083C69.05 52.5943 69.346 51.6883 69.346 51.6883L73.046 51.5543L79.456 51.3203L80.514 52.0043C81 58.0003 82.656 80.3243 81.738 82.6863Z" stroke="#263238" stroke-width="0.3" stroke-linecap="round" stroke-linejoin="round"/>
<path d="M72.068 75.0143L74.212 75.0103L74.214 75.6803L73.618 75.8923L72.244 76.0423L72.068 75.0143Z" fill="#3DAA5F" stroke="#263238" stroke-width="0.3" stroke-linecap="round" stroke-linejoin="round"/>
<path d="M72.2 76.3943L73.776 76.3403L74.1799 76.5323L74.1599 77.4223L72.32 77.4423L72.2 76.3943Z" fill="#3DAA5F" stroke="#263238" stroke-width="0.3" stroke-linecap="round" stroke-linejoin="round"/>
<path d="M72.4519 77.816L74.2519 77.686L74.2319 78.36L73.3619 78.668L72.4419 78.616L72.4519 77.816Z" fill="#3DAA5F" stroke="#263238" stroke-width="0.3" stroke-linecap="round" stroke-linejoin="round"/>
<path d="M72.5599 78.9521L74.0139 79.0261L74.1459 79.3981L73.9339 79.8081L72.6339 79.8921L72.4099 79.2581L72.5599 78.9521Z" fill="#3DAA5F" stroke="#263238" stroke-width="0.3" stroke-linecap="round" stroke-linejoin="round"/>
<path d="M74.2359 80.2544L74.4359 80.8364C74.4679 80.8982 74.4845 80.9668 74.4845 81.0364C74.4845 81.106 74.4679 81.1746 74.4359 81.2364C74.3988 81.2789 74.3513 81.3112 74.298 81.3301C74.2448 81.349 74.1876 81.3539 74.132 81.3444C74.02 81.3344 73.9099 81.2964 73.7979 81.2904C73.4599 81.2764 73.1499 81.5544 72.8179 81.4904C72.6879 81.1304 72.3599 80.6024 72.8039 80.4404C72.8859 80.4144 74.2839 80.3864 74.2359 80.2544Z" fill="#3DAA5F" stroke="#263238" stroke-width="0.3" stroke-linecap="round" stroke-linejoin="round"/>
<path d="M74.23 81.8921C74.2617 82.0305 74.2844 82.1708 74.298 82.3121C74.3183 82.4014 74.3153 82.4945 74.2894 82.5824C74.2635 82.6703 74.2155 82.75 74.15 82.8141C74.0647 82.8609 73.9693 82.8863 73.872 82.8881L72.716 82.9921C72.6991 82.7738 72.6958 82.5548 72.706 82.3361C72.774 82.0761 72.726 82.0981 72.972 81.9921C73.362 81.8261 73.83 82.0901 74.23 81.8921Z" fill="#3DAA5F" stroke="#263238" stroke-width="0.3" stroke-linecap="round" stroke-linejoin="round"/>
<path d="M70.026 53.6001C70.026 53.6001 70.462 57.8141 70.482 58.6481" stroke="#263238" stroke-width="0.3" stroke-linecap="round" stroke-linejoin="round"/>
<path d="M70.9659 53.646L71.1699 55.968" stroke="#263238" stroke-width="0.3" stroke-linecap="round" stroke-linejoin="round"/>
<path d="M74.224 52.7681L74.488 55.4901L74.858 55.5261L74.738 52.7941L74.224 52.7681Z" fill="#3DAA5F" stroke="#263238" stroke-width="0.3" stroke-linecap="round" stroke-linejoin="round"/>
<path opacity="0.2" d="M81.7379 82.6862C81.7173 82.7478 81.6839 82.8043 81.6399 82.8522C80.9319 83.5222 77.9099 84.2662 75.3139 84.8022V83.0022L71.5359 82.0342L70.9659 81.8882L71.2219 79.0722L72.1999 68.3122L73.0539 51.5622L73.0899 50.8502L80.3999 50.5342C80.3999 50.5342 80.4439 51.0722 80.5179 52.0122C80.9999 58.0002 82.6559 80.3242 81.7379 82.6862Z" fill="black" fill-opacity="0.7"/>
</g>
<path d="M81.738 82.6862C81.7173 82.7478 81.6839 82.8043 81.64 82.8522C80.932 83.5222 77.91 84.2662 75.314 84.8022C73.164 85.2482 71.314 85.5502 71.314 85.5502C71.314 85.5502 69.89 73.7162 69.89 72.4722C69.89 71.2282 67.594 51.0882 67.594 51.0882L73.098 50.8502L80.4 50.5342C80.4 50.5342 80.444 51.0722 80.518 52.0122C81 58.0002 82.656 80.3242 81.738 82.6862Z" stroke="#263238" stroke-width="0.3" stroke-linecap="round" stroke-linejoin="round"/>
<path d="M85.612 109.54C85.658 109.118 84.994 103.064 84.982 102.406C84.95 100.606 84.44 98.2441 84.44 98.2441C83.728 96.4241 83.174 92.2301 81.274 89.5401C79.374 86.8501 79.376 83.6861 79.06 81.0001C78.744 78.3141 78.822 78.5461 78.902 76.1621C78.9597 74.3713 78.8802 72.5787 78.664 70.8001C78.506 69.2161 78.19 66.4301 78.664 65.1321C79.138 63.8341 80.378 63.5321 81.736 64.8321C83.094 66.1321 83.648 71.4621 83.648 72.1201C83.648 72.7781 83.648 74.8341 84.124 75.6261C84.124 75.6261 86.814 74.2501 86.814 73.8701C86.814 73.4901 86.734 70.1321 87.13 69.9521L85.548 64.8321L88.548 63.7661C89.1127 64.2726 89.6006 64.8588 89.996 65.5061C90.3347 66.0421 90.6181 66.611 90.842 67.2041C92.108 70.5621 94.142 72.9041 94.562 73.8701C94.982 74.8361 94.562 82.5081 94.562 83.9341C94.562 85.3601 93.642 91.9341 93.666 93.0401C93.684 93.8401 94.224 96.8161 94.762 99.0981C94.962 99.9781 96.176 106.354 96.362 106.86L85.612 109.54Z" fill="white"/>
<path opacity="0.4" d="M87.98 69.6141C87.96 70.0441 88.474 73.4721 88.474 73.4721C88.83 74.3261 86.886 77.2381 86.886 77.2381C86.466 77.4741 86.286 78.9381 86.286 78.9381C84.97 78.6461 81.956 75.6161 81.956 75.6161C81.956 75.6161 81.6 76.8581 81.2 79.9321C80.8 83.0061 83.336 90.3081 84.416 95.3501C85.496 100.392 84.982 102.4 84.982 102.4C84.95 100.6 84.44 98.2381 84.44 98.2381C83.728 96.4181 83.174 92.2241 81.274 89.5341C79.374 86.8441 79.376 83.6861 79.06 81.0001C78.744 78.3141 78.822 78.5461 78.902 76.1621C78.9597 74.3713 78.8802 72.5787 78.664 70.8001C78.506 69.2161 78.19 66.4301 78.664 65.1321C79.138 63.8341 80.378 63.5321 81.736 64.8321C83.094 66.1321 83.648 71.4621 83.648 72.1201C83.648 72.7781 83.648 74.8341 84.124 75.6261C84.124 75.6261 86.814 74.2501 86.814 73.8701C86.814 73.4901 86.734 70.1321 87.13 69.9521L85.548 64.8321L88.548 63.7661C89.1127 64.2726 89.6006 64.8588 89.996 65.5061C89.026 67.4461 88 69.3461 87.98 69.6141Z" fill="#3DAA5F"/>
<path opacity="0.4" d="M93.024 93.5699C93.156 92.3699 93.55 89.5179 93.8 87.7379C93.494 89.1279 93 89.8319 93 89.8319C93 89.8319 93.852 79.6319 93.936 79.0099C94.02 78.3879 94.88 75.5919 94.564 73.8599C94.984 74.8239 94.564 82.4979 94.564 83.9239C94.564 85.3499 93.644 91.9239 93.668 93.0299C93.686 93.8299 94.544 98.9279 95.082 101.21C93.926 99.5299 92.892 94.7759 93.024 93.5699Z" fill="#3DAA5F"/>
<path d="M96.358 106.85C95.726 105.03 93.696 94.1299 93.672 93.0299C93.648 91.9299 94.568 85.3479 94.568 83.9239C94.568 82.4999 94.988 74.8239 94.568 73.8599C94.148 72.8959 92.114 70.5519 90.848 67.1939C90.3695 65.8808 89.5828 64.7018 88.554 63.7559L85.554 64.8219L87.136 69.9419C86.736 70.1219 86.82 73.4799 86.82 73.8599C86.82 74.2399 84.13 75.6159 84.13 75.6159C83.654 74.8159 83.654 72.7679 83.654 72.1099C83.654 71.4519 83.1 66.1199 81.742 64.8219C80.384 63.5239 79.142 63.8219 78.67 65.1219C78.198 66.4219 78.512 69.2059 78.67 70.7899C78.8865 72.5705 78.966 74.3651 78.908 76.1579C78.828 78.5419 78.748 78.3059 79.066 80.9959C79.384 83.6859 79.382 86.8499 81.28 89.5399C83.178 92.2299 83.734 96.4239 84.446 98.2439C84.446 98.2439 85.79 107.958 85.618 109.54" stroke="#263238" stroke-width="0.3" stroke-linecap="round" stroke-linejoin="round"/>
<path d="M84.124 75.6162C84.124 75.6162 84.598 77.8302 85.666 78.9382" stroke="#263238" stroke-width="0.3" stroke-linecap="round" stroke-linejoin="round"/>
<path d="M84.412 76.626C84.412 76.626 86.412 77.238 87.248 77.276" stroke="#263238" stroke-width="0.3" stroke-linecap="round" stroke-linejoin="round"/>
<path d="M86.814 73.86C86.814 73.86 88.238 73.202 89.148 73.598" stroke="#263238" stroke-width="0.3" stroke-linecap="round" stroke-linejoin="round"/>
<path d="M87.13 69.9421C87.13 69.9421 88.238 69.8401 88.474 69.2861" stroke="#263238" stroke-width="0.3" stroke-linecap="round" stroke-linejoin="round"/>
<path d="M81.64 90.104C81.64 90.104 83.768 92.746 84.4 94.09" stroke="#263238" stroke-width="0.3" stroke-linecap="round" stroke-linejoin="round"/>
<path d="M94.0141 78.542C93.6581 80.64 93.182 86.376 93.024 87.404" stroke="#263238" stroke-width="0.3" stroke-linecap="round" stroke-linejoin="round"/>
<path d="M94.6939 74.5859C94.7539 76.4859 94.2939 77.4739 94.2939 77.4739" stroke="#263238" stroke-width="0.3" stroke-linecap="round" stroke-linejoin="round"/>
<path d="M78.336 48L93 51.868C93 51.868 87.846 67.51 86.8 69.45L85.052 83.086C85.052 83.086 75.684 82.674 71.376 81.372C71.376 81.372 74.1 67.172 74.246 65.278C74.392 63.384 78.336 48 78.336 48Z" fill="#3DAA5F"/>
<mask id="mask1_1136_7442" style="mask-type:luminance" maskUnits="userSpaceOnUse" x="71" y="48" width="22" height="36">
<path d="M78.336 48L93 51.868C93 51.868 87.846 67.51 86.8 69.45L85.052 83.086C85.052 83.086 75.684 82.674 71.376 81.372C71.376 81.372 74.1 67.172 74.246 65.278C74.392 63.384 78.336 48 78.336 48Z" fill="white"/>
</mask>
<g mask="url(#mask1_1136_7442)">
<path opacity="0.2" d="M75.182 64.4378L78.414 50.6198C78.414 50.6198 79.804 49.9298 80.342 49.2998L90.848 52.2878C90.848 52.2878 90.88 53.3178 91.482 53.9778L86.18 69.2558L84.894 80.5178C84.894 80.5178 83.184 80.6538 83.02 81.9178C83.02 81.9178 77.476 82.2178 73.758 81.2378C73.758 81.2378 73.32 79.8718 72.65 79.0078L75.182 64.4378Z" fill="black" fill-opacity="0.7"/>
<path d="M75.182 64.4378L78.414 50.6198C78.414 50.6198 79.804 49.9298 80.342 49.2998L90.848 52.2878C90.848 52.2878 90.88 53.3178 91.482 53.9778L86.18 69.2558L84.894 80.5178C84.894 80.5178 83.184 80.6538 83.02 81.9178C83.02 81.9178 77.476 82.2178 73.758 81.2378C73.758 81.2378 73.32 79.8718 72.65 79.0078L75.182 64.4378Z" stroke="#263238" stroke-width="0.3" stroke-linecap="round" stroke-linejoin="round"/>
<path d="M77.872 65.1556C77.872 65.1556 78.826 61.5556 82.186 62.2016C85.546 62.8476 83.648 67.2836 83.648 67.2836C83.648 67.2836 83.668 70.8636 80.942 70.3696C78.578 69.9416 77.318 68.6436 77.872 65.1556Z" fill="#3DAA5F" stroke="#263238" stroke-width="0.3" stroke-linecap="round" stroke-linejoin="round"/>
<path d="M79.6921 51.9336C79.6921 51.9336 78.6761 56.0476 78.4141 56.8396" stroke="#263238" stroke-width="0.3" stroke-linecap="round" stroke-linejoin="round"/>
<path d="M80.562 52.29L79.97 54.546" stroke="#263238" stroke-width="0.3" stroke-linecap="round" stroke-linejoin="round"/>
<path d="M87.98 53.8716L90.002 54.5836L89.78 55.2176H89.148L87.802 54.9016L87.98 53.8716Z" fill="#3DAA5F" stroke="#263238" stroke-width="0.3" stroke-linecap="round" stroke-linejoin="round"/>
<path d="M87.644 55.2178L89.148 55.6918L89.464 56.0078L89.148 56.8398L87.406 56.2458L87.644 55.2178Z" fill="#3DAA5F" stroke="#263238" stroke-width="0.3" stroke-linecap="round" stroke-linejoin="round"/>
<path d="M87.406 56.6416L89.148 57.1216L88.902 57.7496H87.98L87.13 57.3936L87.406 56.6416Z" fill="#3DAA5F" stroke="#263238" stroke-width="0.3" stroke-linecap="round" stroke-linejoin="round"/>
<path d="M87.13 57.75L88.474 58.304V58.698L88.138 59.016L86.886 58.66V57.986L87.13 57.75Z" fill="#3DAA5F" stroke="#263238" stroke-width="0.3" stroke-linecap="round" stroke-linejoin="round"/>
<path d="M88.2761 59.536V60.152C88.2865 60.2198 88.2808 60.2892 88.2597 60.3545C88.2385 60.4197 88.2023 60.4792 88.1541 60.528C88.1044 60.5551 88.0487 60.5693 87.9921 60.5693C87.9354 60.5693 87.8797 60.5551 87.8301 60.528C87.7281 60.48 87.6301 60.408 87.5341 60.366C87.2201 60.24 86.8341 60.398 86.5341 60.23C86.5341 59.848 86.4001 59.242 86.8721 59.23C86.9501 59.236 88.2761 59.676 88.2761 59.536Z" fill="#3DAA5F" stroke="#263238" stroke-width="0.3" stroke-linecap="round" stroke-linejoin="round"/>
<path d="M87.722 61.0777C87.7069 61.2187 87.6815 61.3585 87.646 61.4957C87.602 61.6737 87.516 61.8717 87.338 61.9197C87.2421 61.9357 87.1438 61.9274 87.052 61.8957L85.928 61.5997C85.9823 61.3893 86.0491 61.1823 86.128 60.9797C86.28 60.7577 86.228 60.7617 86.494 60.7437C86.926 60.7257 87.278 61.1317 87.722 61.0777Z" fill="#3DAA5F" stroke="#263238" stroke-width="0.3" stroke-linecap="round" stroke-linejoin="round"/>
<path d="M83.9261 52.5679L83.2521 55.2179L83.5881 55.3759L84.4001 52.7639L83.9261 52.5679Z" fill="#3DAA5F" stroke="#263238" stroke-width="0.3" stroke-linecap="round" stroke-linejoin="round"/>
<path d="M75.48 70.3638L77.556 70.9018L77.388 71.5498L76.758 71.6058L75.39 71.4038L75.48 70.3638Z" fill="#3DAA5F" stroke="#263238" stroke-width="0.3" stroke-linecap="round" stroke-linejoin="round"/>
<path d="M75.2601 71.7339L76.7981 72.0779L77.1421 72.3659L76.8981 73.2219L75.1121 72.7779L75.2601 71.7339Z" fill="#3DAA5F" stroke="#263238" stroke-width="0.3" stroke-linecap="round" stroke-linejoin="round"/>
<path d="M75.1461 73.1738L76.9221 73.5018L76.7301 74.1478L75.8121 74.2278L74.9341 73.9458L75.1461 73.1738Z" fill="#3DAA5F" stroke="#263238" stroke-width="0.3" stroke-linecap="round" stroke-linejoin="round"/>
<path d="M74.9641 74.2998L76.3521 74.7378L76.3861 75.1318L76.0781 75.4758L74.8001 75.2278L74.7421 74.5578L74.9641 74.2998Z" fill="#3DAA5F" stroke="#263238" stroke-width="0.3" stroke-linecap="round" stroke-linejoin="round"/>
<path d="M76.258 75.9818L76.312 76.5958C76.3284 76.6626 76.3288 76.7324 76.3132 76.7995C76.2976 76.8666 76.2663 76.929 76.222 76.9818C76.1749 77.013 76.1207 77.0317 76.0644 77.0363C76.0081 77.0408 75.9515 77.031 75.9 77.0078C75.794 76.9698 75.7 76.9057 75.59 76.8737C75.268 76.7737 74.896 76.9637 74.59 76.8217C74.554 76.4417 74.372 75.8497 74.84 75.8037C74.912 75.7997 76.27 76.1218 76.258 75.9818Z" fill="#3DAA5F" stroke="#263238" stroke-width="0.3" stroke-linecap="round" stroke-linejoin="round"/>
<path d="M75.84 77.5658C75.8372 77.7113 75.8238 77.8563 75.8 77.9998C75.77 78.1798 75.702 78.3858 75.53 78.4478C75.4355 78.4719 75.3365 78.4719 75.242 78.4478L74.098 78.2478C74.1365 78.0329 74.188 77.8206 74.252 77.6118C74.384 77.3778 74.332 77.3858 74.596 77.3458C75.016 77.2838 75.4 77.6578 75.84 77.5658Z" fill="#3DAA5F" stroke="#263238" stroke-width="0.3" stroke-linecap="round" stroke-linejoin="round"/>
<path d="M84.124 79.508C84.124 79.508 84.6 74.2 84.6 73.666" stroke="#263238" stroke-width="0.3" stroke-linecap="round" stroke-linejoin="round"/>
<path d="M83.1741 79.2698C83.1741 79.2698 83.3741 76.5098 83.4101 76.0298" stroke="#263238" stroke-width="0.3" stroke-linecap="round" stroke-linejoin="round"/>
<path d="M79.464 77.2759L78.822 80.4179H79.464L79.93 77.2759H79.464Z" fill="#3DAA5F" stroke="#263238" stroke-width="0.3" stroke-linecap="round" stroke-linejoin="round"/>
<path opacity="0.2" d="M86.8341 69.3719C85.4461 69.0819 84.2081 68.6559 83.2921 68.0419C83.2921 68.0419 83.9561 69.9499 86.3101 73.2019L85.0441 83.0859C85.0441 83.0859 78.9301 82.8179 74.3101 82.0279C75.7301 78.0279 78.3101 70.4479 78.0041 68.9459C77.5901 66.8839 79.0521 64.4499 79.0521 64.4499C83.6741 63.6179 88.1561 60.1239 91.2321 57.1699C89.6661 61.7999 87.5281 67.9999 86.8341 69.3719Z" fill="black" fill-opacity="0.7"/>
</g>
<path d="M78.336 48L93 51.868C93 51.868 87.846 67.51 86.8 69.45L85.052 83.086C85.052 83.086 75.684 82.674 71.376 81.372C71.376 81.372 74.1 67.172 74.246 65.278C74.392 63.384 78.336 48 78.336 48Z" stroke="#263238" stroke-width="0.3" stroke-linecap="round" stroke-linejoin="round"/>
<path d="M86.466 79.1381L84.4 94.0901C83.94 93.1121 82.686 91.4441 82.038 90.6101C81.798 90.2981 81.638 90.1041 81.638 90.1041L81.272 89.5401C79.374 86.8501 79.374 83.6861 79.058 80.9961C78.742 78.3061 78.82 78.5421 78.9 76.1581C78.9582 74.3687 78.8793 72.5775 78.664 70.8001C78.506 69.2161 78.19 66.4301 78.664 65.1321C78.896 64.4961 79.314 64.1001 79.838 64.0161C80.362 63.9321 81.038 64.1721 81.736 64.8321C83.094 66.1301 83.648 71.4621 83.648 72.1201C83.648 72.7781 83.648 74.8341 84.124 75.6261C84.124 75.6161 85.4 78.0301 86.466 79.1381Z" fill="white"/>
<path opacity="0.4" d="M81.116 88.4741C81.548 89.0261 81.842 89.8221 82.038 90.6101C81.798 90.2981 81.638 90.1041 81.638 90.1041L81.272 89.5401C79.374 86.8501 79.374 83.6861 79.058 80.9961C78.742 78.3061 78.82 78.5421 78.9 76.1581C78.9582 74.3687 78.8793 72.5775 78.664 70.8001C78.506 69.2161 78.19 66.4301 78.664 65.1321C78.896 64.4961 79.314 64.1001 79.838 64.0161C80.838 64.3001 81.838 65.3181 82.186 67.0601C82.786 69.9841 80.08 67.6221 79.454 70.1001C78.828 72.5781 79.738 73.2461 80.112 73.8701C80.486 74.4941 80.008 75.8701 79.454 77.7181C78.9 79.5661 79.93 86.9561 81.116 88.4741Z" fill="#3DAA5F"/>
<path d="M86.466 79.1379C85.398 78.0299 84.124 75.6159 84.124 75.6159C83.648 74.8159 83.648 72.7679 83.648 72.1099C83.648 71.4519 83.094 66.1199 81.736 64.8219C80.378 63.5239 79.136 63.8219 78.664 65.1219C78.192 66.4219 78.506 69.2059 78.664 70.7899C78.8805 72.5705 78.96 74.3651 78.902 76.1579C78.822 78.5419 78.742 78.3059 79.06 80.9959C79.378 83.6859 79.376 86.8499 81.274 89.5399L81.64 90.1039C81.64 90.1039 83.768 92.7459 84.4 94.0899" stroke="#263238" stroke-width="0.3" stroke-linecap="round" stroke-linejoin="round"/>
<path d="M79.464 72.8101C79.464 72.8101 81.278 71.8721 82.186 71.9521" stroke="#263238" stroke-width="0.3" stroke-linecap="round" stroke-linejoin="round"/>
<path opacity="0.2" d="M51.762 47.1619C51.762 47.1619 47.174 42.1099 46.858 41.7999C46.542 41.4899 46.304 36.1019 45.432 33.7299C44.56 31.3579 44.138 17.4299 44.138 17.4299C44.138 17.4299 43.308 16.4019 40.968 16.9559C38.628 17.5099 36.334 16.4799 33.724 17.9839C31.114 19.4879 36.176 40.9999 36.176 40.9999L41.314 57.3739L51.762 47.1619Z" fill="black" fill-opacity="0.7"/>
<path d="M54.9141 47.2C54.9141 47.2 52.8581 60.334 50.7141 62.074C49.4761 63.074 47.546 63.534 45.834 63.474C44.594 63.43 43.466 63.118 42.802 62.552C41.22 61.206 39.002 60.494 37.898 59.624C36.794 58.754 36.79 55.668 36.078 53.056C35.366 50.444 34.336 50.366 34.1 47.756C33.864 45.146 32.912 37.156 31.192 34.938C29.472 32.72 29.432 30.982 28.72 28.726C28.008 26.47 22.8 18.308 22.8 18.308L35.496 15.708C35.496 15.708 36.744 20.874 38.08 25.088C38.714 27.088 39.368 28.876 39.916 29.792C40.9683 31.5638 41.8798 33.4155 42.642 35.33C44.0781 36.834 44.864 40.166 45.102 43.084L48.502 44.98C51.116 45.694 54.9141 47.2 54.9141 47.2Z" fill="white"/>
<path opacity="0.4" d="M54.9141 47.1998C54.9141 47.1998 52.8581 60.3338 50.7141 62.0738C49.4761 63.0738 47.5461 63.5338 45.8341 63.4738C41.7741 62.4738 40.6821 60.2098 40.1321 59.6618C39.4001 58.9318 38.4381 54.4838 38.9661 51.8958C39.4941 49.3078 39.1141 48.3498 38.6781 47.0858C37.7121 44.2858 40.6581 42.7778 40.9621 41.7178C41.2661 40.6578 41.1621 34.7298 39.8361 32.8018C39.1321 31.7758 37.3181 26.4878 38.0821 25.0918C38.7161 27.0918 39.3701 28.8798 39.9181 29.7958C40.9703 31.5676 41.8818 33.4193 42.6441 35.3338C44.0801 36.8378 44.8661 40.1698 45.1041 43.0878L48.5041 44.9838C51.1161 45.6938 54.9141 47.1998 54.9141 47.1998Z" fill="#3DAA5F"/>
<path d="M39.41 46.2759C39.41 46.2759 38.694 47.1179 38.062 47.1179" stroke="#263238" stroke-width="0.3" stroke-linecap="round" stroke-linejoin="round"/>
<path d="M40.968 49.1221C40.968 49.1221 40.198 50.7581 38.968 51.1221" stroke="#263238" stroke-width="0.3" stroke-linecap="round" stroke-linejoin="round"/>
<path d="M39.6001 58.7099C39.6001 58.7099 41.3421 57.9579 41.6181 56.6919" stroke="#263238" stroke-width="0.3" stroke-linecap="round" stroke-linejoin="round"/>
<path d="M48.5061 44.9819C48.5061 44.9819 48.0701 45.5359 48.0701 45.9819" stroke="#263238" stroke-width="0.3" stroke-linecap="round" stroke-linejoin="round"/>
<path d="M35.504 15.708C35.504 15.708 38.22 26.942 39.924 29.8C40.9763 31.5718 41.8878 33.4235 42.65 35.338C44.086 36.842 44.872 40.176 45.11 43.094L48.51 44.99C51.12 45.702 54.91 47.206 54.91 47.206C54.91 47.206 52.854 60.34 50.71 62.08C48.566 63.82 44.4 63.892 42.8 62.548C41.2 61.204 39 60.49 37.896 59.62C36.792 58.75 36.788 55.664 36.076 53.052C35.364 50.44 34.334 50.362 34.098 47.752C33.862 45.142 32.91 37.152 31.19 34.934C29.47 32.716 29.43 30.978 28.718 28.722C28.006 26.466 22.8 18.308 22.8 18.308" stroke="#263238" stroke-width="0.3" stroke-linecap="round" stroke-linejoin="round"/>
<path d="M59.7241 46.3481L38.7261 78.6701L43.6821 79.2221L58.7401 79.8481L60.2821 51.0981L59.7241 46.3481Z" fill="#263238" stroke="#263238" stroke-width="0.3" stroke-linecap="round" stroke-linejoin="round"/>
<path d="M59.7241 46.346L57.7841 79.296L38.7261 78.67L40.2301 53.422L40.6981 45.582L49.0021 45.916L59.7241 46.346Z" fill="#757575"/>
<mask id="mask2_1136_7442" style="mask-type:luminance" maskUnits="userSpaceOnUse" x="38" y="45" width="22" height="35">
<path d="M59.7241 46.346L57.7841 79.296L38.7261 78.67L40.2301 53.422L40.6981 45.582L49.0021 45.916L59.7241 46.346Z" fill="white"/>
</mask>
<g mask="url(#mask2_1136_7442)">
<path d="M54.9321 75.5018C56.2134 75.5018 57.2521 74.4631 57.2521 73.1818C57.2521 71.9005 56.2134 70.8618 54.9321 70.8618C53.6508 70.8618 52.6121 71.9005 52.6121 73.1818C52.6121 74.4631 53.6508 75.5018 54.9321 75.5018Z" fill="#BFBFBF" stroke="#263238" stroke-width="0.3" stroke-miterlimit="10"/>
<path d="M54.2781 71.6421L55.8501 71.8481" stroke="#263238" stroke-width="0.3" stroke-linecap="round" stroke-linejoin="round"/>
<path d="M53.8561 72.0239L56.2181 72.2539" stroke="#263238" stroke-width="0.3" stroke-linecap="round" stroke-linejoin="round"/>
<path d="M53.594 74.3521L55.958 74.582" stroke="#263238" stroke-width="0.3" stroke-linecap="round" stroke-linejoin="round"/>
<path d="M54.6281 72.5501C54.693 72.5662 54.7616 72.5568 54.8197 72.5236C54.8779 72.4905 54.9209 72.4362 54.9401 72.3721L55.1161 72.3901L54.9381 74.0601L54.6761 74.0321L54.8121 72.7581L54.6121 72.7361L54.6281 72.5501Z" fill="#263238"/>
<path d="M55.5021 72.6198C55.6061 72.6198 55.6541 72.6978 55.6421 72.8078V72.8278L55.5401 72.8178V72.7998C55.5401 72.7518 55.5281 72.7298 55.4941 72.7258C55.4601 72.7218 55.4381 72.7398 55.4341 72.7878C55.4301 72.8358 55.4461 72.8778 55.5101 72.9458C55.5425 72.9733 55.568 73.0082 55.5844 73.0475C55.6007 73.0868 55.6075 73.1294 55.6041 73.1718C55.5921 73.2818 55.5321 73.3378 55.4261 73.3258C55.3201 73.3138 55.2741 73.2458 55.2841 73.1378V73.0958L55.3841 73.1058V73.1558C55.3841 73.2038 55.3981 73.2238 55.4321 73.2278C55.4661 73.2318 55.4901 73.2158 55.4941 73.1678C55.4981 73.1198 55.4821 73.0778 55.4181 73.0098C55.3856 72.9823 55.3601 72.9475 55.3437 72.9082C55.3274 72.8689 55.3206 72.8263 55.3241 72.7838C55.3381 72.6638 55.4001 72.5998 55.5021 72.6198Z" fill="#263238"/>
<path d="M55.6901 72.6479L56.0221 72.682L56.0101 72.7799L55.8981 72.768L55.8361 73.352L55.7301 73.3419L55.7921 72.756L55.6801 72.744L55.6901 72.6479Z" fill="#263238"/>
<path d="M50.0677 47.8088L46.3472 46.9969C46.2512 46.976 46.1563 47.0368 46.1354 47.1329L45.6293 49.4523C45.6083 49.5484 45.6692 49.6432 45.7652 49.6642L49.4857 50.476C49.5817 50.497 49.6766 50.4361 49.6975 50.3401L50.2037 48.0207C50.2246 47.9246 50.1637 47.8298 50.0677 47.8088Z" fill="white" stroke="#263238" stroke-width="0.3" stroke-linecap="round" stroke-linejoin="round"/>
<path d="M47.0001 49.2841L46.9861 49.2701C46.9861 49.2701 46.9861 49.2461 46.9761 49.2361C46.9665 49.2271 46.959 49.2162 46.9541 49.2041C46.9532 49.2002 46.9532 49.1961 46.9541 49.1921C46.9541 49.1921 46.9641 49.1921 46.9701 49.1781C46.975 49.1751 46.9792 49.1711 46.9823 49.1662C46.9854 49.1614 46.9874 49.1559 46.9881 49.1501C46.9873 49.1468 46.9873 49.1434 46.9881 49.1401H47.0001C47.0001 49.1021 46.9761 49.0741 46.9521 49.0441C46.8941 48.9721 46.8821 48.9361 46.8941 48.8881C46.9061 48.8401 46.9261 48.8261 46.9601 48.8321C46.9941 48.8381 47.0081 48.8621 46.9981 48.9101V48.9381L47.0981 48.9601V48.9381C47.1116 48.9028 47.111 48.8636 47.0965 48.8286C47.082 48.7936 47.0547 48.7655 47.0201 48.7501L47.0321 48.7021L46.9461 48.6821L46.9361 48.7321C46.8581 48.7321 46.8081 48.7821 46.7881 48.8721C46.7804 48.9124 46.7832 48.9539 46.7962 48.9928C46.8091 49.0316 46.8318 49.0665 46.8621 49.0941C46.9201 49.1641 46.9321 49.2041 46.9201 49.2501C46.9081 49.2961 46.8861 49.3121 46.8521 49.3041C46.8181 49.2961 46.8021 49.2741 46.8121 49.2281L46.8241 49.1741L46.7241 49.1521V49.1981C46.7158 49.2163 46.7113 49.236 46.7107 49.256C46.7102 49.276 46.7137 49.2959 46.7209 49.3146C46.7282 49.3332 46.7391 49.3502 46.7531 49.3645C46.767 49.3789 46.7837 49.3903 46.8021 49.3981V49.4461L46.8881 49.4661L46.8981 49.4161H46.9501C46.9658 49.4106 46.9801 49.4018 46.9921 49.3901C47.0043 49.3778 47.0144 49.3637 47.0221 49.3481C47.0001 49.2961 47.0001 49.2901 47.0001 49.2841Z" fill="#263238"/>
<path d="M47.5501 49.2518C47.5492 49.2358 47.5451 49.2202 47.5381 49.2058C47.5361 49.1979 47.5361 49.1897 47.5381 49.1818C47.5412 49.1758 47.5461 49.1709 47.5521 49.1678C47.6061 49.1198 47.5401 49.0558 47.4881 49.0438C47.4701 49.0393 47.4513 49.0396 47.4334 49.0445C47.4156 49.0494 47.3993 49.0588 47.3861 49.0718L47.4281 48.9158L47.6121 48.9558L47.6321 48.8598L47.3561 48.7998C47.3503 48.8132 47.3462 48.8273 47.3441 48.8418C47.3441 48.8558 47.3621 48.8598 47.3621 48.8758C47.3621 48.8918 47.3621 48.8898 47.3621 48.8978C47.3657 48.9095 47.3736 48.9195 47.3841 48.9258C47.3941 48.9258 47.4041 48.9438 47.4021 48.9558C47.4035 48.9597 47.4035 48.9639 47.4021 48.9678C47.3945 48.9862 47.3812 49.0016 47.3641 49.0118C47.3562 49.0133 47.3491 49.0176 47.3441 49.0238V49.0358C47.3441 49.0498 47.3281 49.0578 47.3161 49.0658C47.3041 49.0738 47.2741 49.1378 47.2621 49.1818L47.3621 49.2038V49.1838C47.3721 49.1358 47.3981 49.1238 47.4301 49.1298C47.4621 49.1358 47.4821 49.1598 47.4701 49.2078L47.4381 49.3558C47.4381 49.4018 47.4041 49.4158 47.3701 49.4078C47.3361 49.3998 47.3201 49.3798 47.3301 49.3318L47.3441 49.2698L47.2441 49.2478L47.2321 49.3038C47.2243 49.3255 47.2213 49.3486 47.2232 49.3716C47.2251 49.3945 47.2319 49.4168 47.2431 49.437C47.2543 49.4571 47.2696 49.4746 47.2881 49.4884C47.3066 49.5021 47.3278 49.5117 47.3504 49.5166C47.3729 49.5215 47.3962 49.5215 47.4187 49.5167C47.4413 49.5118 47.4625 49.5022 47.481 49.4885C47.4995 49.4748 47.5149 49.4573 47.5261 49.4372C47.5374 49.4171 47.5442 49.3948 47.5461 49.3718C47.5532 49.3322 47.5545 49.2918 47.5501 49.2518Z" fill="#263238"/>
<path d="M48.856 49.5321C48.8542 49.5163 48.8501 49.5008 48.844 49.4861C48.8421 49.4782 48.8421 49.47 48.844 49.4621C48.8471 49.456 48.852 49.4511 48.858 49.4481C48.91 49.4001 48.844 49.3361 48.794 49.3241C48.7761 49.3196 48.7572 49.3198 48.7394 49.3247C48.7215 49.3296 48.7052 49.3391 48.692 49.3521L48.734 49.1961L48.918 49.2361L48.938 49.1401L48.662 49.0801C48.6553 49.0932 48.6512 49.1074 48.65 49.1221C48.65 49.1361 48.666 49.1401 48.668 49.1561C48.67 49.1721 48.668 49.1701 48.668 49.1781C48.6717 49.1898 48.6795 49.1998 48.69 49.2061C48.7 49.2061 48.71 49.2241 48.708 49.2361C48.706 49.2481 48.708 49.2361 48.708 49.2481C48.7003 49.267 48.6862 49.2826 48.668 49.2921C48.6609 49.2941 48.6547 49.2983 48.65 49.3041C48.65 49.3041 48.65 49.3041 48.65 49.3161C48.65 49.3281 48.636 49.3381 48.624 49.3461C48.612 49.3541 48.582 49.4181 48.57 49.4621L48.67 49.4841V49.4641C48.68 49.4161 48.706 49.4041 48.738 49.4101C48.77 49.4161 48.788 49.4401 48.778 49.4881L48.746 49.6361C48.746 49.6821 48.712 49.6961 48.678 49.6881C48.644 49.6801 48.628 49.6601 48.638 49.6121L48.652 49.5501L48.552 49.5281L48.54 49.5841C48.534 49.6051 48.5323 49.6272 48.5352 49.6489C48.538 49.6706 48.5452 49.6915 48.5564 49.7103C48.5677 49.7291 48.5826 49.7453 48.6004 49.7581C48.6182 49.7709 48.6384 49.7799 48.6597 49.7846C48.6811 49.7892 48.7032 49.7894 48.7247 49.7852C48.7462 49.781 48.7666 49.7724 48.7846 49.76C48.8026 49.7476 48.8179 49.7316 48.8295 49.713C48.8411 49.6945 48.8488 49.6737 48.852 49.6521C48.86 49.6126 48.8614 49.572 48.856 49.5321Z" fill="#263238"/>
<path d="M47.7781 49.0541C47.7881 49.0061 47.8141 48.9921 47.8461 49.0001C47.8563 49.0015 47.8658 49.0065 47.8727 49.0141C47.8797 49.0218 47.8837 49.0317 47.8841 49.0421H47.9181C47.9192 49.0479 47.9216 49.0534 47.9251 49.0582C47.9285 49.063 47.933 49.0671 47.9381 49.0701C47.9501 49.0801 47.9661 49.0861 47.9801 49.0961C47.9867 49.075 47.9887 49.0529 47.9861 49.031C47.9835 49.0091 47.9763 48.988 47.965 48.9691C47.9537 48.9502 47.9384 48.9339 47.9204 48.9214C47.9023 48.9088 47.8817 48.9001 47.8601 48.8961C47.838 48.8887 47.8146 48.8864 47.7915 48.8895C47.7685 48.8926 47.7464 48.901 47.7271 48.9139C47.7078 48.9269 47.6917 48.9441 47.6801 48.9642C47.6685 48.9843 47.6616 49.0069 47.6601 49.0301C47.6591 49.0427 47.6591 49.0554 47.6601 49.0681C47.6601 49.1001 47.6601 49.0901 47.6921 49.1021C47.7241 49.1141 47.7341 49.1301 47.7061 49.1401H47.7241C47.7241 49.1401 47.7241 49.1541 47.7241 49.1601C47.7241 49.1661 47.7241 49.1701 47.7141 49.1781C47.7159 49.1833 47.7159 49.1889 47.7141 49.1941C47.7141 49.1941 47.6981 49.2201 47.6941 49.2241C47.6882 49.234 47.68 49.2422 47.6701 49.2481C47.6441 49.2641 47.6321 49.2481 47.6241 49.2881C47.6161 49.3281 47.6141 49.3321 47.6101 49.3521C47.6024 49.374 47.5994 49.3972 47.6014 49.4204C47.6034 49.4435 47.6103 49.4659 47.6216 49.4862C47.6329 49.5065 47.6483 49.5241 47.6669 49.5379C47.6856 49.5518 47.7069 49.5615 47.7296 49.5665C47.7522 49.5715 47.7757 49.5716 47.7984 49.5669C47.8211 49.5621 47.8426 49.5526 47.8613 49.539C47.8801 49.5253 47.8957 49.5078 47.9072 49.4877C47.9188 49.4675 47.9259 49.4452 47.9281 49.4221L47.9601 49.2821H47.9481C47.9244 49.2714 47.9016 49.2587 47.8801 49.2441L47.8621 49.2281L47.8221 49.4081C47.8221 49.4561 47.7861 49.4701 47.7541 49.4621C47.7221 49.4541 47.7041 49.4321 47.7141 49.3841L47.7721 49.1121C47.7708 49.0952 47.775 49.0783 47.7841 49.0641L47.7781 49.0541Z" fill="#263238"/>
<path d="M48.27 49.3838H48.28C48.28 49.3738 48.28 49.3638 48.28 49.3498H48.324L48.358 49.1958C48.3657 49.1739 48.3686 49.1507 48.3666 49.1275C48.3647 49.1044 48.3578 49.082 48.3465 49.0617C48.3352 49.0414 48.3197 49.0238 48.3011 49.01C48.2825 48.9961 48.2611 48.9864 48.2385 48.9814C48.2158 48.9764 48.1924 48.9763 48.1697 48.981C48.1469 48.9858 48.1255 48.9953 48.1067 49.0089C48.088 49.0226 48.0723 49.0401 48.0608 49.0602C48.0493 49.0804 48.0422 49.1027 48.04 49.1258V49.1538C48.054 49.1658 48.062 49.1858 48.076 49.1958C48.09 49.2058 48.112 49.1958 48.106 49.2298C48.1 49.2638 48.094 49.2578 48.106 49.2678C48.118 49.2778 48.12 49.2678 48.122 49.2818C48.1244 49.285 48.1257 49.2888 48.1257 49.2928C48.1257 49.2968 48.1244 49.3007 48.122 49.3038C48.122 49.3038 48.108 49.3038 48.106 49.3218C48.104 49.3398 48.106 49.3518 48.094 49.3558C48.082 49.3598 48.056 49.3318 48.034 49.3338C48.0261 49.3361 48.019 49.3405 48.0134 49.3465C48.0077 49.3524 48.0038 49.3598 48.002 49.3678C47.9918 49.4018 47.9844 49.4366 47.98 49.4718C47.9727 49.493 47.9702 49.5155 47.9726 49.5377C47.975 49.56 47.9823 49.5814 47.9939 49.6005C48.0056 49.6196 48.0213 49.6359 48.04 49.6483C48.0587 49.6606 48.0798 49.6686 48.102 49.6718C48.1247 49.6779 48.1485 49.6789 48.1717 49.6748C48.1948 49.6706 48.2168 49.6614 48.236 49.6478C48.2537 49.6325 48.2686 49.6143 48.28 49.5938C48.289 49.5836 48.2939 49.5704 48.2939 49.5568C48.2939 49.5432 48.289 49.5301 48.28 49.5198H48.27L48.256 49.4718C48.256 49.4718 48.256 49.4718 48.27 49.4598C48.284 49.4478 48.27 49.4218 48.29 49.4078C48.31 49.3938 48.266 49.3878 48.27 49.3838ZM48.186 49.5198C48.176 49.5678 48.15 49.5818 48.116 49.5738C48.082 49.5658 48.066 49.5438 48.076 49.4958L48.156 49.1358C48.166 49.0878 48.19 49.0738 48.224 49.0818C48.258 49.0898 48.274 49.1118 48.264 49.1598L48.186 49.5198Z" fill="#263238"/>
<path d="M48.448 49.6319L48.426 49.7339L48.324 49.7119L48.346 49.6099L48.448 49.6319Z" fill="#263238"/>
<path d="M49.284 49.4541C49.296 49.4541 49.296 49.4081 49.3 49.3921C49.3077 49.3702 49.3107 49.3469 49.3087 49.3238C49.3067 49.3007 49.2998 49.2783 49.2885 49.258C49.2773 49.2377 49.2618 49.2201 49.2432 49.2062C49.2245 49.1924 49.2032 49.1827 49.1805 49.1777C49.1579 49.1727 49.1344 49.1726 49.1117 49.1773C49.089 49.1821 49.0676 49.1916 49.0488 49.2052C49.03 49.2189 49.0144 49.2364 49.0029 49.2565C48.9914 49.2767 48.9843 49.299 48.982 49.3221L48.952 49.4561C48.978 49.4801 48.952 49.5181 48.964 49.5461C48.976 49.5741 48.964 49.5461 48.964 49.5581C48.964 49.5701 48.934 49.5761 48.934 49.5921C48.934 49.5921 48.918 49.6161 48.908 49.6281C48.9017 49.6376 48.8983 49.6487 48.898 49.6601C48.8904 49.682 48.8874 49.7053 48.8894 49.7284C48.8914 49.7515 48.8982 49.774 48.9095 49.7942C48.9208 49.8145 48.9363 49.8321 48.9549 49.846C48.9735 49.8598 48.9949 49.8696 49.0175 49.8746C49.0402 49.8796 49.0637 49.8797 49.0864 49.8749C49.1091 49.8702 49.1305 49.8607 49.1493 49.847C49.1681 49.8334 49.1837 49.8159 49.1952 49.7957C49.2067 49.7756 49.2138 49.7532 49.216 49.7301L49.24 49.6201C49.24 49.5921 49.276 49.5181 49.24 49.4961C49.204 49.4741 49.224 49.4961 49.22 49.4821C49.2176 49.4775 49.2163 49.4723 49.2163 49.4671C49.2163 49.4619 49.2176 49.4567 49.22 49.4521C49.244 49.4321 49.262 49.4661 49.284 49.4541ZM49.162 49.6301C49.162 49.6421 49.142 49.6461 49.132 49.6621C49.1243 49.682 49.1196 49.7029 49.118 49.7241C49.108 49.7721 49.082 49.7841 49.05 49.7781C49.018 49.7721 48.998 49.7481 49.01 49.7001C49.01 49.6861 49.028 49.6461 49.024 49.6341C49.02 49.6221 49.004 49.6341 48.996 49.6101C48.99 49.5892 48.99 49.567 48.996 49.5461C48.997 49.5415 48.997 49.5367 48.996 49.5321C48.996 49.5321 48.986 49.5141 48.996 49.5061C48.996 49.5061 48.996 49.4801 48.996 49.4621C49.06 49.4861 49.058 49.3881 49.068 49.3481C49.078 49.3081 49.104 49.2861 49.136 49.2941C49.168 49.3021 49.186 49.3241 49.176 49.3701C49.1625 49.4109 49.1544 49.4532 49.152 49.4961C49.1604 49.4974 49.1681 49.5015 49.1739 49.5076C49.1797 49.5138 49.1833 49.5217 49.184 49.5301C49.182 49.5407 49.182 49.5515 49.184 49.5621C49.184 49.5621 49.184 49.5801 49.184 49.5881C49.184 49.5961 49.172 49.5881 49.164 49.5881C49.1585 49.5903 49.1536 49.5938 49.1498 49.5983C49.1459 49.6029 49.1433 49.6083 49.142 49.6141L49.162 49.6301Z" fill="#263238"/>
<path d="M48.166 48L48.842 48.148" stroke="#263238" stroke-width="0.3" stroke-linecap="round" stroke-linejoin="round"/>
<path d="M46.63 47.6641L47.83 47.9281" stroke="#263238" stroke-width="0.3" stroke-linecap="round" stroke-linejoin="round"/>
<path d="M46.53 48.1279L47.322 48.2999" stroke="#263238" stroke-width="0.3" stroke-linecap="round" stroke-linejoin="round"/>
<path opacity="0.4" d="M39.6 78.3782C40.651 78.1033 41.7317 77.9582 42.818 77.9462C44.77 77.8982 46.018 78.2682 47.618 77.4762C49.218 76.6842 50.256 78.1102 51.786 77.3182C53.316 76.5262 54.026 75.2582 54.91 75.2862C55.794 75.3142 57.11 61.1482 57.534 58.7102C57.958 56.2722 58.86 49.4762 59.17 48.0962L57.428 78.8102L39.6 78.3782Z" fill="white"/>
<path d="M39.684 72.334L44.562 78.268L39.41 77.948L39.684 72.334Z" fill="#3DAA5F" stroke="#263238" stroke-width="0.3" stroke-linecap="round" stroke-linejoin="round"/>
<path d="M52.6301 60.6002L52.5521 62.8582C52.5412 63.1732 52.4684 63.4831 52.3378 63.77C52.2072 64.0569 52.0213 64.3153 51.7909 64.5304C51.5604 64.7454 51.2898 64.913 50.9945 65.0234C50.6993 65.1339 50.3851 65.1851 50.0701 65.1742L47.7501 65.0922C47.4341 65.0814 47.1235 65.0082 46.8359 64.877C46.5483 64.7457 46.2895 64.559 46.0743 64.3274C45.859 64.0959 45.6917 63.8241 45.5819 63.5277C45.472 63.2313 45.4218 62.9161 45.4341 62.6002L45.5381 59.6602C45.5605 59.0242 45.8345 58.4232 46.3 57.9893C46.7654 57.5554 47.3841 57.324 48.0201 57.3462L50.3401 57.4262C50.4041 57.4262 50.4681 57.4262 50.5401 57.4402C50.2154 57.7525 50.0105 58.1686 49.961 58.6164C49.9114 59.0641 50.0203 59.515 50.2688 59.8907C50.5173 60.2664 50.8897 60.5432 51.3211 60.6728C51.7525 60.8024 52.2156 60.7767 52.6301 60.6002Z" fill="#3DAA5F" stroke="#263238" stroke-width="0.3" stroke-linecap="round" stroke-linejoin="round"/>
<path d="M53.0481 58.6503C53.0408 58.8673 52.9693 59.0774 52.8427 59.2538C52.7161 59.4303 52.5399 59.5652 52.3366 59.6416C52.1333 59.7179 51.9118 59.7322 51.7004 59.6827C51.4889 59.6332 51.2968 59.5221 51.1485 59.3634C51.0002 59.2047 50.9023 59.0056 50.8671 58.7913C50.832 58.577 50.8612 58.357 50.9511 58.1593C51.0409 57.9616 51.1874 57.7949 51.372 57.6805C51.5566 57.566 51.771 57.5089 51.9881 57.5163C52.2788 57.5267 52.5535 57.6519 52.7522 57.8644C52.9509 58.0769 53.0572 58.3595 53.0481 58.6503Z" fill="#3DAA5F" stroke="#263238" stroke-width="0.3" stroke-linecap="round" stroke-linejoin="round"/>
<path opacity="0.4" d="M46.094 62.8802L49.504 59.9642C49.504 59.9642 49.072 58.4022 49.504 57.9082H47.866C47.4715 57.9069 47.0914 58.0563 46.8034 58.3257C46.5153 58.5952 46.341 58.9645 46.316 59.3582L46.094 62.8802Z" fill="white"/>
<path opacity="0.4" d="M51.4861 58.7099L52.2161 57.9099C52.2161 57.9099 51.7621 57.6039 51.4861 57.9099C51.2101 58.2159 51.4861 58.7099 51.4861 58.7099Z" fill="white"/>
<path d="M51.13 76.1318L56.628 76.3698" stroke="#263238" stroke-width="0.3" stroke-linecap="round" stroke-linejoin="round"/>
<path d="M49.2261 76.686L56.6281 77.082" stroke="#263238" stroke-width="0.3" stroke-linecap="round" stroke-linejoin="round"/>
<path d="M54.6901 78.2681H56.6281" stroke="#263238" stroke-width="0.3" stroke-linecap="round" stroke-linejoin="round"/>
<path opacity="0.2" d="M47.952 58.074C45.116 59.438 42.044 54.66 40.968 54.002C40.7027 53.8346 40.4554 53.6402 40.23 53.422L40.698 45.582L49 45.916C48.946 47.084 48.964 48.374 49.224 49.116C49.784 50.734 50.786 56.712 47.952 58.074Z" fill="black" fill-opacity="0.7"/>
<path opacity="0.4" d="M44.774 58.318C44.774 58.318 47.0421 59.302 48.0701 58.718C49.0981 58.134 50.2061 57.018 50.3641 54.54C50.3641 54.54 51.7141 58.03 48.9921 59.076C46.2701 60.122 44.774 58.318 44.774 58.318Z" fill="white"/>
<path opacity="0.4" d="M43.89 59.7139C43.89 59.7139 48.49 60.9499 50.458 58.7139C50.458 58.7139 50.194 59.9559 48.07 60.3139C45.946 60.6719 43.89 59.7139 43.89 59.7139Z" fill="white"/>
<path opacity="0.4" d="M51.2881 51.7241C50.9381 51.1021 51.3681 56.6921 51.3681 56.6921C51.3681 56.6921 52.0001 53.0001 51.2881 51.7241Z" fill="white"/>
</g>
<path d="M59.7241 46.346L57.7841 79.296L38.7261 78.67L40.2301 53.422L40.6981 45.582L49.0021 45.916L59.7241 46.346Z" stroke="#263238" stroke-width="0.3" stroke-linecap="round" stroke-linejoin="round"/>
<path opacity="0.4" d="M58.76 79.4721L58.066 79.2961L59.724 49.1221L60.018 51.1141L58.76 79.4721Z" fill="white"/>
<path d="M47.952 58.0742C47.6897 58.2136 47.3981 58.2886 47.1011 58.2931C46.8042 58.2977 46.5104 58.2315 46.244 58.1002C45.783 57.8583 45.411 57.4758 45.182 57.0082C44.392 55.5842 42.254 52.3402 41.86 51.4082C41.466 50.4762 40.594 47.8402 39.724 46.7342C38.854 45.6282 38.378 43.9642 38.378 43.9642L38.062 27.8242C38.536 30.1582 39.842 32.8082 39.842 32.8082C40.9767 33.3986 41.9408 34.2705 42.642 35.3402C42.8461 35.5576 43.029 35.794 43.188 36.0462C44.48 38.0462 45.106 41.6462 45.174 44.4462C45.254 47.6122 46.282 49.0462 47.944 51.8042C49.606 54.5622 49.032 57.4602 47.952 58.0742Z" fill="white"/>
<path opacity="0.4" d="M47.952 58.0739C47.6887 58.2099 47.3974 58.2831 47.1011 58.2876C46.8048 58.2921 46.5114 58.2279 46.244 58.0999C47.152 57.8519 48.344 57.3859 48.07 56.6999C47.64 55.6039 46.382 57.2299 45.75 56.6999C45.118 56.1699 42.822 53.1299 44.28 51.7919C45.738 50.4539 45.28 48.2099 44.28 47.5779C43.28 46.9459 43.93 45.4399 44.246 43.0699C44.446 41.6359 43.76 38.3879 43.196 36.0439C44.488 38.0439 45.114 41.6439 45.182 44.4439C45.262 47.6099 46.29 49.0439 47.952 51.8019C49.614 54.5599 49.032 57.4979 47.952 58.0739Z" fill="#3DAA5F"/>
<path d="M38.062 27.814C38.536 30.148 39.842 32.798 39.842 32.798C40.9767 33.3884 41.9408 34.2602 42.642 35.33C44.304 37.07 45.096 41.264 45.174 44.428C45.252 47.592 46.282 49.028 47.944 51.786C49.606 54.544 49.144 57.42 47.944 58.074C47.108 58.532 45.966 58.432 45.174 57.008C44.382 55.584 42.246 52.34 41.852 51.408C41.458 50.476 40.586 47.84 39.716 46.734C38.846 45.628 38.37 43.964 38.37 43.964" stroke="#263238" stroke-width="0.3" stroke-linecap="round" stroke-linejoin="round"/>
<path d="M43.2001 51.1142C43.2001 51.1142 44.4921 50.9982 45.0841 50.5142" stroke="#263238" stroke-width="0.3" stroke-linecap="round" stroke-linejoin="round"/>
<path d="M37.904 44.2822C37.904 44.2822 37.652 44.8822 38.972 45.4822" stroke="#263238" stroke-width="0.3" stroke-linecap="round" stroke-linejoin="round"/>
<defs>
<linearGradient id="paint0_linear_1136_7442" x1="63" y1="0" x2="63" y2="125" gradientUnits="userSpaceOnUse">
<stop stop-color="#88FFAD" stop-opacity="0.19"/>
<stop offset="1" stop-color="#33CC7A"/>
</linearGradient>
</defs>
</svg>
