<svg width="126" height="128" viewBox="0 0 126 128" fill="none" xmlns="http://www.w3.org/2000/svg">
  <path fill-rule="evenodd" clip-rule="evenodd" d="M113.698 71.5714C112.802 71.8214 111.542 71.9464 109.918 71.9464C108.266 71.9742 106.418 71.9603 104.374 71.9048C102.33 71.8492 100.286 71.8214 98.2421 71.8214C96.17 71.8492 94.294 72.002 92.6139 72.2798C90.9339 72.5298 89.5898 72.9743 88.5818 73.6132C87.5458 74.2521 86.8037 75.0715 86.3557 76.0716C85.8797 77.0438 85.6137 78.1966 85.5577 79.53C85.5017 80.8356 85.5577 82.2801 85.7257 83.8634C85.8937 85.4468 86.0757 87.1552 86.2717 88.9886C86.4957 90.822 86.6497 92.7387 86.7337 94.7387C86.8457 96.7388 86.8737 98.7666 86.8177 100.822C86.7617 102.878 86.6217 104.906 86.3977 106.906C86.1457 108.906 85.7817 110.809 85.3057 112.614C84.8577 114.392 84.2837 116.031 83.5836 117.531C82.8556 119.003 82.0156 120.253 81.0636 121.281C80.0836 122.337 79.0055 123.156 77.8295 123.74C76.6535 124.351 75.4214 124.74 74.1334 124.906C72.8454 125.073 71.5433 125.017 70.2273 124.74C68.8832 124.462 67.5672 123.976 66.2792 123.281C64.9911 122.615 63.7591 121.726 62.5831 120.614C61.407 119.531 60.301 118.253 59.265 116.781C58.2569 115.309 57.3609 113.684 56.5769 111.906C55.7929 110.1 55.1349 108.17 54.6028 106.114C54.0988 104.031 53.7488 101.836 53.5528 99.5305C53.3568 97.2527 53.3148 94.8776 53.4268 92.4053C53.5668 89.9608 53.7488 87.558 53.9728 85.1968C54.1968 82.8079 54.3368 80.6133 54.3928 78.6133C54.4488 76.5855 54.2808 74.8632 53.8888 73.4465C53.4968 72.0298 52.7548 71.0714 51.6628 70.5714C50.5427 70.0436 48.9887 70.0297 47.0006 70.5297C45.0126 71.0575 42.6885 71.9603 40.0284 73.2381C37.3964 74.4882 34.5963 75.9188 31.6282 77.5299C28.6601 79.1411 25.692 80.7245 22.7239 82.2801C19.7559 83.8357 16.9698 85.169 14.3657 86.2802C11.7616 87.3635 9.47958 88.0719 7.51952 88.4052C5.55947 88.7386 3.96342 88.7247 2.73139 88.3636C1.49935 88.0024 0.687332 87.3774 0.295321 86.4885C-0.124691 85.5996 -0.0966902 84.5301 0.379323 83.2801C0.855336 82.0301 1.79336 80.6967 3.1934 79.28C4.62144 77.8355 6.49749 76.3771 8.82156 74.9049C11.1456 73.4326 13.7077 71.9603 16.5078 70.4881C19.3079 69.0158 22.0939 67.5435 24.866 66.0713C27.6101 64.599 30.0882 63.1406 32.3002 61.6962C34.5123 60.2795 36.1643 58.8627 37.2564 57.446C38.3764 56.0293 38.7824 54.6543 38.4744 53.3209C38.1384 51.9598 37.2704 50.6403 35.8703 49.3625C34.4703 48.0847 32.7902 46.8624 30.8302 45.6957C28.8701 44.5012 26.9101 43.3762 24.95 42.3206C22.99 41.265 21.2819 40.2789 19.8259 39.3622C18.3698 38.4733 17.3758 37.6538 16.8438 36.9038C16.3118 36.1816 16.2138 35.5565 16.5498 35.0288C16.8858 34.501 17.5578 34.1121 18.5658 33.8621C19.5739 33.5843 20.8199 33.4454 22.3039 33.4454C23.788 33.4732 25.426 33.6537 27.2181 33.9871C28.9821 34.3204 30.8162 34.8204 32.7202 35.4871C34.6243 36.1816 36.5143 36.9455 38.3904 37.7788C40.2664 38.64 42.0865 39.5011 43.8505 40.3622C45.5866 41.2234 47.2106 42.0012 48.7227 42.6956C50.2067 43.3623 51.5228 43.8623 52.6708 44.1957C53.7908 44.529 54.6868 44.6124 55.3589 44.4457C56.0309 44.2512 56.5349 43.8068 56.8709 43.1123C57.1789 42.4178 57.3889 41.4734 57.5009 40.2789C57.5849 39.0566 57.6269 37.5983 57.6269 35.9038C57.5989 34.2093 57.5989 32.2648 57.6269 30.0703C57.6549 27.9036 57.7389 25.5285 57.8789 22.9451C58.0469 20.3617 58.2569 17.7505 58.509 15.1115C58.789 12.5003 59.083 10.0836 59.391 7.86133C59.727 5.61127 60.077 3.77788 60.441 2.36118C60.777 0.972249 61.099 0.19445 61.407 0.0277785C61.715 -0.138893 61.995 0.444457 62.2471 1.77783C62.5271 3.1112 62.7791 5.00014 63.0031 7.44465C63.2271 9.88916 63.4791 12.5837 63.7591 15.5282C64.0111 18.5005 64.3191 21.4173 64.6831 24.2785C65.0191 27.1674 65.4391 29.7369 65.9432 31.987C66.4472 34.2093 67.0492 35.8899 67.7492 37.0288C68.4492 38.1955 69.2613 38.8622 70.1853 39.0289C71.1093 39.1955 72.1453 39.015 73.2934 38.4872C74.4414 37.9316 75.7154 37.1538 77.1155 36.1538C78.5155 35.1538 80.0555 34.0704 81.7356 32.9037C83.3876 31.7092 85.1797 30.5286 87.1117 29.3619C89.0438 28.223 91.0459 27.1396 93.1179 26.1118C95.218 25.084 97.346 24.1673 99.5021 23.3618C101.658 22.5562 103.772 21.8895 105.844 21.3617C107.944 20.8339 109.946 20.5006 111.85 20.3617C113.783 20.195 115.561 20.2367 117.185 20.4867C118.837 20.7367 120.279 21.1673 121.511 21.7784C122.771 22.3895 123.779 23.1395 124.535 24.0284C125.291 24.9451 125.753 25.9591 125.921 27.0702C126.117 28.2091 125.949 29.4175 125.417 30.6953C124.913 31.9731 124.059 33.2926 122.855 34.6537C121.623 36.0427 120.195 37.4455 118.571 38.8622C116.947 40.3067 115.295 41.7651 113.614 43.2373C111.934 44.7096 110.422 46.1957 109.078 47.6958C107.734 49.1958 106.74 50.6959 106.096 52.1959C105.452 53.6682 105.284 55.1404 105.592 56.6127C105.872 58.0849 106.474 59.5017 107.398 60.8628C108.322 62.224 109.33 63.5018 110.422 64.6962C111.542 65.8907 112.522 66.9602 113.362 67.9047C114.203 68.8491 114.679 69.6269 114.791 70.2381C114.931 70.8492 114.567 71.2936 113.698 71.5714Z" fill="url(#paint0_linear_0_1)"/>
  <path d="M69.3421 125.5C95.3602 125.5 116.452 113.322 116.452 98.3001C116.452 83.278 95.3602 71.1001 69.3421 71.1001C43.3239 71.1001 22.2321 83.278 22.2321 98.3001C22.2321 113.322 43.3239 125.5 69.3421 125.5Z" fill="#F5F5F5"/>
  <path d="M47.2481 119.786L29.624 109.612C29.074 109.294 29.074 108.78 29.624 108.462L60.532 90.6159C60.8417 90.4579 61.1844 90.3755 61.5321 90.3755C61.8797 90.3755 62.2224 90.4579 62.5321 90.6159L80.148 100.8C80.698 101.118 80.698 101.632 80.148 101.95L49.24 119.786C48.9314 119.943 48.5902 120.024 48.244 120.024C47.8979 120.024 47.5567 119.943 47.2481 119.786Z" fill="#E0E0E0"/>
  <path d="M46.964 107.726C46.964 107.726 46.826 103.126 44.858 99.4141C42.89 95.7021 39.962 93.2301 37.08 92.7581C34.198 92.2861 31.632 94.7581 34.584 96.8541C37.536 98.9501 42.896 101.276 44.862 108.344L46.964 107.726Z" fill="#3DAA5F"/>
  <g opacity="0.15">
  <path d="M46.964 107.726C46.964 107.726 46.826 103.126 44.858 99.4141C42.89 95.7021 39.962 93.2301 37.08 92.7581C34.198 92.2861 31.632 94.7581 34.584 96.8541C37.536 98.9501 42.896 101.276 44.862 108.344L46.964 107.726Z" fill="black"/>
  </g>
  <path d="M46.2119 106.474H46.2439C46.264 106.468 46.2826 106.458 46.2986 106.444C46.3147 106.431 46.3279 106.414 46.3374 106.396C46.3469 106.377 46.3526 106.357 46.354 106.336C46.3555 106.315 46.3527 106.294 46.3459 106.274C43.9119 98.4741 38.3459 94.8421 35.7459 94.0101C35.7259 94.0015 35.7044 93.9973 35.6826 93.9976C35.6609 93.9979 35.6394 94.0027 35.6197 94.0118C35.5999 94.0208 35.5822 94.0339 35.5678 94.0502C35.5534 94.0665 35.5426 94.0856 35.536 94.1063C35.5294 94.1271 35.5272 94.1489 35.5296 94.1706C35.532 94.1922 35.5388 94.2131 35.5498 94.2319C35.5607 94.2507 35.5754 94.267 35.593 94.2798C35.6106 94.2925 35.6307 94.3015 35.6519 94.3061C38.2019 95.1221 43.6519 98.6921 46.0519 106.368C46.0635 106.401 46.0854 106.429 46.1143 106.448C46.1431 106.467 46.1774 106.476 46.2119 106.474Z" fill="white"/>
  <path d="M32 103.874C32.2 104.456 32.778 104.804 33.322 105.086C33.866 105.368 34.46 105.67 34.722 106.226C35.238 107.35 34.084 108.754 34.65 109.856C34.886 110.316 35.382 110.594 35.882 110.734C36.3011 110.833 36.725 110.911 37.152 110.968C37.3562 110.984 37.5613 110.988 37.766 110.978C38.366 110.948 39.002 110.978 39.512 111.332C40.312 111.888 40.474 112.982 40.912 113.856C41.1844 114.373 41.5658 114.825 42.0299 115.18C42.494 115.536 43.0297 115.786 43.6 115.914C44.548 116.132 46 116.052 46.298 115.65C46.516 115.344 46.044 114.318 46.068 113.942C46.1277 112.979 46.0962 112.013 45.974 111.056C45.8995 110.622 45.8786 110.181 45.912 109.742C45.962 109.252 46.008 108.76 46.05 108.27C46.098 107.738 46.262 107.332 46.12 106.78C45.9624 106.256 45.7264 105.759 45.42 105.306C45.14 104.85 44.8553 104.396 44.566 103.944C44.2461 103.397 43.8591 102.893 43.414 102.442C43.0105 102.068 42.5353 101.781 42.0171 101.597C41.4989 101.413 40.9487 101.336 40.4 101.372C39.492 101.438 38.572 101.858 37.654 101.73C36.736 101.602 35.908 101.282 34.986 101.26C34.024 101.236 33.01 101.55 32.386 102.32C32.026 102.752 31.822 103.346 32 103.874Z" fill="#3DAA5F"/>
  <path d="M45.724 113.2C45.7602 113.194 45.7924 113.173 45.8138 113.143C45.8351 113.114 45.8438 113.076 45.838 113.04C44.396 104.48 35.712 102.44 33.638 102.402C33.6014 102.402 33.5663 102.417 33.5404 102.443C33.5145 102.468 33.5 102.504 33.5 102.54C33.5 102.577 33.5145 102.612 33.5404 102.638C33.5663 102.664 33.6014 102.678 33.638 102.678C35.666 102.722 44.162 104.712 45.572 113.078C45.5737 113.096 45.5791 113.114 45.5877 113.13C45.5963 113.146 45.6081 113.16 45.6222 113.171C45.6364 113.183 45.6527 113.191 45.6702 113.196C45.6877 113.201 45.706 113.202 45.724 113.2Z" fill="white"/>
  <path d="M36.346 108.042C36.3737 108.039 36.4 108.029 36.422 108.012C36.446 107.99 38.898 105.99 42.568 106.888C42.6038 106.897 42.6416 106.891 42.6731 106.872C42.7046 106.853 42.7272 106.822 42.736 106.786C42.7447 106.75 42.7389 106.712 42.7198 106.681C42.7007 106.649 42.6698 106.627 42.634 106.618C38.822 105.688 36.27 107.778 36.244 107.8C36.2292 107.812 36.217 107.826 36.208 107.843C36.199 107.859 36.1935 107.877 36.1918 107.896C36.1902 107.915 36.1923 107.934 36.1982 107.952C36.2041 107.969 36.2135 107.986 36.226 108C36.2414 108.016 36.2602 108.028 36.281 108.035C36.3019 108.042 36.3241 108.045 36.346 108.042Z" fill="white"/>
  <path d="M78.048 33.6419L49.118 50.3439C48.8337 50.5303 48.5973 50.7809 48.4277 51.0756C48.2582 51.3702 48.1603 51.7005 48.142 52.0399V117.134C48.142 117.758 48.58 118.012 49.118 117.698L78.048 101C78.332 100.813 78.5683 100.563 78.7378 100.268C78.9073 99.9735 79.0053 99.6433 79.024 99.3039V34.1999C79.024 33.5819 78.586 33.3279 78.048 33.6419ZM77.616 94.6419C77.616 95.1759 77.242 95.5159 76.778 95.7819L50.29 111.082C49.828 111.348 49.452 111.132 49.452 110.596V56.6719C49.4679 56.3809 49.5521 56.0976 49.6977 55.8451C49.8432 55.5925 50.0461 55.3777 50.29 55.2179L76.778 39.9259C77.242 39.6579 77.616 39.8759 77.616 40.4099V94.6419Z" fill="#3DAA5F"/>
  <path opacity="0.5" d="M78.048 33.6419L49.118 50.3439C48.8337 50.5303 48.5973 50.7809 48.4277 51.0756C48.2582 51.3702 48.1603 51.7005 48.142 52.0399V117.134C48.142 117.758 48.58 118.012 49.118 117.698L78.048 101C78.332 100.813 78.5683 100.563 78.7378 100.268C78.9073 99.9735 79.0053 99.6433 79.024 99.3039V34.1999C79.024 33.5819 78.586 33.3279 78.048 33.6419ZM77.616 94.6419C77.616 95.1759 77.242 95.5159 76.778 95.7819L50.29 111.082C49.828 111.348 49.452 111.132 49.452 110.596V56.6719C49.4679 56.3809 49.5521 56.0976 49.6977 55.8451C49.8432 55.5925 50.0461 55.3777 50.29 55.2179L76.778 39.9259C77.242 39.6579 77.616 39.8759 77.616 40.4099V94.6419Z" fill="black"/>
  <path d="M49 117.76C48.7079 117.884 48.3924 117.942 48.0754 117.932C47.7583 117.922 47.4474 117.843 47.164 117.7L46.046 117.052C45.76 116.867 45.5218 116.618 45.3511 116.323C45.1804 116.029 45.082 115.698 45.064 115.358V50.266C45.0704 50.0137 45.1282 49.7653 45.234 49.536C45.2682 49.4553 45.3069 49.3765 45.35 49.3L48.43 51.078C48.3641 51.1928 48.3072 51.3125 48.26 51.436C48.1859 51.6276 48.146 51.8307 48.142 52.036V117.134C48.142 117.708 48.514 117.97 49 117.76Z" fill="#3DAA5F"/>
  <path opacity="0.6" d="M49 117.76C48.7079 117.884 48.3924 117.942 48.0754 117.932C47.7583 117.922 47.4474 117.843 47.164 117.7L46.046 117.052C45.76 116.867 45.5218 116.618 45.3511 116.323C45.1804 116.029 45.082 115.698 45.064 115.358V50.266C45.0704 50.0137 45.1282 49.7653 45.234 49.536C45.2682 49.4553 45.3069 49.3765 45.35 49.3L48.43 51.078C48.3641 51.1928 48.3072 51.3125 48.26 51.436C48.1859 51.6276 48.146 51.8307 48.142 52.036V117.134C48.142 117.708 48.514 117.97 49 117.76Z" fill="black"/>
  <path d="M64.224 104.88C64.724 104.88 64.778 105.44 64.778 105.68C64.747 106.163 64.6044 106.633 64.3615 107.052C64.1186 107.471 63.782 107.829 63.378 108.096C63.2152 108.197 63.0294 108.256 62.838 108.266C62.338 108.266 62.284 107.704 62.284 107.466C62.3146 106.982 62.4569 106.512 62.6999 106.093C62.9428 105.674 63.2797 105.317 63.684 105.05C63.8464 104.948 64.0324 104.889 64.224 104.88ZM64.224 104.58C63.9797 104.589 63.7419 104.661 63.534 104.79C63.0863 105.084 62.7142 105.48 62.4478 105.945C62.1813 106.41 62.0279 106.931 62 107.466C62 108.164 62.348 108.568 62.854 108.568C63.0986 108.559 63.3365 108.486 63.544 108.356C63.9941 108.064 64.3687 107.669 64.6371 107.204C64.9054 106.739 65.0599 106.218 65.088 105.682C65.088 104.984 64.74 104.58 64.234 104.58H64.224Z" fill="#37474F"/>
  <path d="M63.562 43C63.924 42.8 64.218 42.96 64.218 43.378C64.2055 43.6055 64.1396 43.8269 64.0256 44.0243C63.9116 44.2216 63.7528 44.3894 63.562 44.514C63.2 44.714 62.906 44.554 62.906 44.134C62.9184 43.9067 62.9842 43.6855 63.0982 43.4884C63.2122 43.2914 63.3711 43.124 63.562 43Z" fill="#37474F"/>
  <path d="M60.038 47.0539L67.128 42.9579C67.43 42.7839 67.676 42.9079 67.676 43.2339C67.6623 43.4179 67.6056 43.5961 67.5104 43.7542C67.4152 43.9123 67.2842 44.0458 67.128 44.1439L60.038 48.2399C59.734 48.4139 59.49 48.2899 59.49 47.9619C59.5038 47.7782 59.5606 47.6004 59.6558 47.4426C59.751 47.2849 59.8819 47.1518 60.038 47.0539Z" fill="#37474F"/>
  <path d="M77.6159 94.646C77.6159 95.18 77.2419 95.52 76.7779 95.786L50.2899 111.082C49.8279 111.348 49.4519 111.132 49.4519 110.596V56.672C49.4679 56.3809 49.552 56.0977 49.6976 55.8451C49.8432 55.5925 50.0461 55.3777 50.2899 55.218L76.7779 39.926C77.2419 39.658 77.6159 39.876 77.6159 40.41V94.646Z" fill="#3DAA5F"/>
  <path opacity="0.8" d="M77.6159 94.646C77.6159 95.18 77.2419 95.52 76.7779 95.786L50.2899 111.082C49.8279 111.348 49.4519 111.132 49.4519 110.596V56.672C49.4679 56.3809 49.552 56.0977 49.6976 55.8451C49.8432 55.5925 50.0461 55.3777 50.2899 55.218L76.7779 39.926C77.2419 39.658 77.6159 39.876 77.6159 40.41V94.646Z" fill="white"/>
  <path d="M71.842 96.0919L52.242 107.408C51.872 107.622 51.572 107.334 51.572 106.764V105.6C51.572 105.03 51.872 104.4 52.242 104.182L71.842 92.8659C72.212 92.6519 72.512 92.9399 72.512 93.5099V94.6719C72.512 95.2439 72.212 95.8779 71.842 96.0919Z" fill="white"/>
  <path d="M73.558 94.584V92.4C73.558 92.116 73.646 91.984 73.944 91.958L76.014 91.834C76.228 91.874 76.288 92.06 76.148 92.248L73.81 94.768C73.678 94.908 73.558 94.87 73.558 94.584Z" fill="#3DAA5F"/>
  <path d="M79.016 34.05C78.946 33.542 78.538 33.358 78.048 33.65L49.118 50.344C48.8285 50.5241 48.5907 50.7763 48.428 51.076L45.348 49.298C45.5129 49.0002 45.752 48.7501 46.042 48.572L74.968 31.866C75.2714 31.712 75.6068 31.6318 75.947 31.6318C76.2872 31.6318 76.6226 31.712 76.926 31.866L78.048 32.51C78.3098 32.6828 78.5317 32.9096 78.6986 33.1752C78.8656 33.4408 78.9738 33.7391 79.016 34.05Z" fill="#3DAA5F"/>
  <path opacity="0.3" d="M79.016 34.05C78.946 33.542 78.538 33.358 78.048 33.65L49.118 50.344C48.8285 50.5241 48.5907 50.7763 48.428 51.076L45.348 49.298C45.5129 49.0002 45.752 48.7501 46.042 48.572L74.968 31.866C75.2714 31.712 75.6068 31.6318 75.947 31.6318C76.2872 31.6318 76.6226 31.712 76.926 31.866L78.048 32.51C78.3098 32.6828 78.5317 32.9096 78.6986 33.1752C78.8656 33.4408 78.9738 33.7391 79.016 34.05Z" fill="black"/>
  <path d="M69.738 94.3359L69.032 93.9359C68.957 93.8862 68.8945 93.8196 68.8497 93.7415C68.8049 93.6634 68.779 93.5759 68.774 93.4859V75.3159C68.7791 75.2258 68.8052 75.1381 68.8504 75.0599C68.8956 74.9818 68.9585 74.9153 69.034 74.8659L105.074 54.0659C105.154 54.0245 105.244 54.0029 105.334 54.0029C105.424 54.0029 105.514 54.0245 105.594 54.0659L106.298 54.4659C106.374 54.5152 106.437 54.5816 106.482 54.6598C106.527 54.738 106.553 54.8258 106.558 54.9159V73.0779C106.553 73.1681 106.527 73.2559 106.482 73.3342C106.437 73.4124 106.374 73.4788 106.298 73.5279L70.26 94.3279C70.1797 94.37 70.0907 94.3926 70 94.394C69.9093 94.3954 69.8196 94.3755 69.738 94.3359Z" fill="#37474F"/>
  <path d="M70.258 75.5739L106.296 54.7739C106.44 54.6919 106.556 54.7579 106.556 54.9239V73.0859C106.551 73.1761 106.525 73.264 106.48 73.3422C106.435 73.4204 106.372 73.4868 106.296 73.5359L70.258 94.3359C70.114 94.4179 69.998 94.3499 69.998 94.1859V76.0239C70.0028 75.9337 70.0288 75.8459 70.074 75.7677C70.1192 75.6895 70.1823 75.6231 70.258 75.5739Z" fill="#455A64"/>
  <path d="M70.2 94.3618C70.1256 94.3892 70.0462 94.4008 69.9671 94.396C69.8879 94.3912 69.8106 94.37 69.74 94.3338L69.036 93.9338C68.9605 93.8843 68.8977 93.8178 68.8526 93.7397C68.8074 93.6615 68.7812 93.5739 68.776 93.4838V75.3158C68.7788 75.2253 68.805 75.1372 68.852 75.0598L70.076 75.7658C70.029 75.8432 70.0028 75.9313 70 76.0218V94.1838C70 94.3258 70.082 94.3998 70.2 94.3618Z" fill="#263238"/>
  <path d="M71.8761 83.2979L73.8761 82.1419C74.1161 82.0039 74.3101 82.1019 74.3101 82.3599C74.2995 82.5056 74.2547 82.6468 74.1793 82.7719C74.1039 82.897 74 83.0025 73.8761 83.0799L71.8761 84.2359C71.6381 84.3739 71.4441 84.2759 71.4441 84.0159C71.4549 83.8708 71.4996 83.7302 71.5746 83.6055C71.6497 83.4808 71.7529 83.3754 71.8761 83.2979Z" fill="#E0E0E0"/>
  <path d="M75.3641 81.2819L80.4601 78.3399C80.6981 78.2019 80.8921 78.2999 80.8921 78.5599C80.8812 78.705 80.8365 78.8456 80.7615 78.9703C80.6865 79.095 80.5832 79.2003 80.4601 79.2779L75.3621 82.2219C75.1241 82.3599 74.9301 82.2619 74.9301 82.0019C74.9406 81.8562 74.9854 81.715 75.0608 81.5899C75.1363 81.4648 75.2402 81.3592 75.3641 81.2819Z" fill="#E0E0E0"/>
  <path d="M81.7321 77.6L87.2261 74.432C87.4661 74.294 87.6601 74.392 87.6601 74.65C87.6495 74.7957 87.6047 74.9368 87.5293 75.0619C87.4539 75.187 87.35 75.2926 87.2261 75.37L81.7321 78.538C81.4921 78.676 81.2981 78.578 81.2981 78.32C81.3087 78.1743 81.3535 78.0331 81.4289 77.908C81.5043 77.7829 81.6082 77.6773 81.7321 77.6Z" fill="#E0E0E0"/>
  <path d="M71.874 77.6699L76.972 74.7279C77.21 74.5899 77.404 74.6879 77.404 74.9459C77.3935 75.0913 77.3489 75.2323 77.2739 75.3574C77.1989 75.4825 77.0954 75.5881 76.972 75.6659L71.874 78.5999C71.636 78.7379 71.442 78.6399 71.442 78.3799C71.454 78.2361 71.4993 78.0971 71.5743 77.9739C71.6493 77.8507 71.7519 77.7466 71.874 77.6699Z" fill="#E0E0E0"/>
  <path d="M78.2441 74L82.9561 71.28C83.1961 71.142 83.3881 71.24 83.3881 71.5C83.3777 71.6453 83.3332 71.786 83.2581 71.9108C83.1831 72.0356 83.0796 72.1409 82.9561 72.218L78.2421 74.94C78.0041 75.078 77.8101 74.98 77.8101 74.72C77.8206 74.5743 77.8654 74.4332 77.9409 74.3081C78.0163 74.183 78.1202 74.0774 78.2441 74Z" fill="#E0E0E0"/>
  <path d="M84.256 70.518L87.364 68.718C87.602 68.58 87.796 68.678 87.796 68.938C87.7852 69.0832 87.7405 69.2237 87.6655 69.3484C87.5904 69.4731 87.4872 69.5785 87.364 69.656L84.256 71.456C84.016 71.594 83.822 71.496 83.822 71.236C83.8329 71.0907 83.8779 70.9499 83.9533 70.8252C84.0287 70.7004 84.1324 70.5952 84.256 70.518Z" fill="#E0E0E0"/>
  <path d="M71.874 86.108L76.972 83.166C77.21 83.028 77.404 83.126 77.404 83.386C77.3932 83.5312 77.3485 83.6717 77.2735 83.7964C77.1984 83.9211 77.0952 84.0265 76.972 84.104L71.874 87.048C71.636 87.186 71.442 87.088 71.442 86.828C71.4525 86.6825 71.4971 86.5416 71.5721 86.4165C71.6472 86.2914 71.7506 86.1858 71.874 86.108Z" fill="#E0E0E0"/>
  <path d="M78.2441 82.4319L82.9561 79.7119C83.1961 79.5719 83.3881 79.6719 83.3881 79.9299C83.3779 80.0755 83.3334 80.2165 83.2584 80.3417C83.1833 80.4668 83.0797 80.5724 82.9561 80.6499L78.2421 83.3699C78.0041 83.5079 77.8101 83.4099 77.8101 83.1519C77.8206 83.0062 77.8654 82.865 77.9409 82.7399C78.0163 82.6148 78.1202 82.5093 78.2441 82.4319Z" fill="#E0E0E0"/>
  <path d="M84.256 78.9558L87.364 77.1658C87.602 77.0278 87.796 77.1258 87.796 77.3838C87.7855 77.5293 87.741 77.6703 87.6659 77.7954C87.5909 77.9204 87.4875 78.0261 87.364 78.1038L84.256 79.9038C84.016 80.0418 83.822 79.9438 83.822 79.6838C83.8314 79.5368 83.8756 79.394 83.9511 79.2674C84.0265 79.1408 84.1311 79.034 84.256 78.9558Z" fill="#E0E0E0"/>
  <path d="M71.874 80.484L81.484 74.938C81.724 74.8 81.918 74.898 81.918 75.158C81.9071 75.3034 81.8622 75.4441 81.7868 75.5688C81.7114 75.6936 81.6077 75.7988 81.484 75.876L71.874 81.424C71.636 81.562 71.442 81.464 71.442 81.204C71.4525 81.0585 71.4971 80.9175 71.5721 80.7925C71.6472 80.6674 71.7506 80.5617 71.874 80.484Z" fill="#E0E0E0"/>
  <path d="M82.8781 74.13L87.2201 71.63C87.4601 71.492 87.6541 71.59 87.6541 71.848C87.6435 71.9937 87.5987 72.1348 87.5233 72.2599C87.4479 72.385 87.344 72.4906 87.2201 72.568L82.8781 75.068C82.6381 75.208 82.4441 75.108 82.4441 74.85C82.4547 74.7043 82.4995 74.5631 82.5749 74.438C82.6503 74.3129 82.7542 74.2073 82.8781 74.13Z" fill="#E0E0E0"/>
  <path d="M105.744 73.8459L106.034 76.2459C106.041 76.3013 106.032 76.3575 106.009 76.4081C105.985 76.4587 105.948 76.5018 105.902 76.5326C105.855 76.5633 105.801 76.5805 105.745 76.5821C105.689 76.5838 105.634 76.5699 105.586 76.5419L103.29 75.2259L105.744 73.8459Z" fill="#455A64"/>
  <path d="M73.8781 87.848C73.8414 87.8319 73.8018 87.8232 73.7617 87.8226C73.7216 87.8219 73.6818 87.8292 73.6446 87.8441C73.6073 87.859 73.5734 87.8812 73.5448 87.9093C73.5163 87.9374 73.4936 87.971 73.4781 88.008L72.3461 90.702L72.0761 90.44C72.0179 90.3916 71.9436 90.367 71.8681 90.3711C71.7925 90.3752 71.7213 90.4077 71.6687 90.4621C71.6161 90.5165 71.586 90.5887 71.5844 90.6643C71.5828 90.74 71.6098 90.8134 71.6601 90.87L72.2441 91.438C72.2979 91.4901 72.3693 91.5201 72.4441 91.522C72.4641 91.5239 72.4841 91.5239 72.5041 91.522C72.5517 91.5125 72.5963 91.4915 72.6339 91.4608C72.6716 91.4301 72.7012 91.3907 72.7201 91.346L74.0221 88.246C74.0556 88.1741 74.0592 88.0918 74.0323 88.0173C74.0053 87.9427 73.9498 87.8818 73.8781 87.848Z" fill="#3DAA5F"/>
  <path d="M76.414 86.374C76.3773 86.3576 76.3377 86.3488 76.2976 86.348C76.2574 86.3472 76.2175 86.3544 76.1801 86.3694C76.1428 86.3843 76.1089 86.4066 76.0804 86.4348C76.0518 86.4631 76.0293 86.4969 76.014 86.534L74.882 89.228L74.612 88.966C74.5843 88.9355 74.5505 88.9111 74.5129 88.8942C74.4752 88.8774 74.4345 88.8685 74.3933 88.868C74.3521 88.8676 74.3112 88.8757 74.2732 88.8918C74.2353 88.9078 74.201 88.9316 74.1726 88.9615C74.1442 88.9914 74.1223 89.0268 74.1082 89.0656C74.0942 89.1043 74.0882 89.1456 74.0908 89.1867C74.0934 89.2279 74.1044 89.2681 74.1232 89.3048C74.142 89.3415 74.1681 89.3739 74.2 89.4L74.784 89.968C74.8194 90.0018 74.8625 90.0265 74.9095 90.0401C74.9565 90.0537 75.0061 90.0557 75.054 90.046C75.1018 90.0362 75.1464 90.0148 75.184 89.9838C75.2217 89.9527 75.2512 89.913 75.27 89.868L76.572 86.77C76.5878 86.7337 76.5963 86.6946 76.5969 86.6549C76.5975 86.6153 76.5903 86.5759 76.5756 86.5391C76.5609 86.5023 76.5391 86.4687 76.5113 86.4404C76.4836 86.4121 76.4505 86.3895 76.414 86.374Z" fill="#3DAA5F"/>
  <path d="M97.4201 60.6499C93.3921 62.9779 90.1261 68.6319 90.1261 73.2839C90.1261 77.9359 93.4001 79.8219 97.4201 77.4959C101.44 75.1699 104.718 69.5119 104.714 64.8619C104.71 60.2119 101.444 58.3239 97.4201 60.6499Z" fill="#3DAA5F"/>
  <path opacity="0.4" d="M97.4201 60.6499C93.3921 62.9779 90.1261 68.6319 90.1261 73.2839C90.1261 77.9359 93.4001 79.8219 97.4201 77.4959C101.44 75.1699 104.718 69.5119 104.714 64.8619C104.71 60.2119 101.444 58.3239 97.4201 60.6499Z" fill="white"/>
  <path d="M82.6001 71.042C83.4665 72.5496 84.4091 74.0122 85.4241 75.424C85.6741 75.76 86.3781 76.686 86.7461 76.778C87.2161 76.894 87.6141 76.524 87.8621 76.352C88.7101 75.762 93.0981 71.4 93.0981 71.4C94.4641 69.496 94.1201 68.282 93.9341 68.282C93.7481 68.282 92.3481 67.914 91.1501 69.082C90.2421 69.968 87.1401 73.174 87.1401 73.174C86.4081 72.314 85.9281 71.888 85.1981 71.026C84.8421 70.606 84.3021 70.154 84.2761 69.578C84.2791 69.3139 84.3032 69.0504 84.3481 68.79C84.3903 68.1875 84.3513 67.5821 84.2321 66.99C84.2295 66.9632 84.2227 66.9368 84.2121 66.912C84.1931 66.8784 84.1625 66.8529 84.1261 66.84C84.0586 66.8206 83.9866 66.8242 83.9214 66.8503C83.8562 66.8764 83.8016 66.9234 83.7661 66.984C83.6977 67.1064 83.6606 67.2438 83.6581 67.384C83.6538 67.5219 83.6233 67.6576 83.5681 67.784C83.5561 67.8098 83.5383 67.8324 83.5161 67.85C83.4906 67.8651 83.4617 67.8734 83.4321 67.874C83.2641 67.874 83.1761 67.692 83.1141 67.56C82.9704 67.2515 82.8539 66.9309 82.7661 66.602C82.7061 66.376 82.6021 66.158 82.5241 65.934C82.4938 65.8006 82.4242 65.6793 82.3241 65.586C82.1421 65.454 81.8861 65.528 81.6861 65.628C81.5738 65.683 81.4678 65.75 81.3701 65.828C81.0835 66.0914 80.894 66.4437 80.8321 66.828C80.7521 67.2739 80.7824 67.7325 80.9201 68.164C81.0929 68.7697 81.3778 69.3375 81.7601 69.838C82.0401 70.238 82.3481 70.62 82.6001 71.042Z" fill="#FFA8A7"/>
  <path d="M94.3241 68.2761C94.3241 68.2761 92.9581 67.7381 91.7241 68.5341C90.4901 69.3301 87.1401 73.1761 87.1401 73.1761L86.2981 72.2401C86.2981 72.2401 85.8521 73.8941 84.4561 74.0401C84.4561 74.0401 85.5521 75.8281 86.1641 76.4881C86.7761 77.1481 87.2641 77.0261 87.9641 76.4881C88.6641 75.9501 92.0761 72.8001 92.0761 72.8001C92.8359 72.3313 93.4492 71.6589 93.8465 70.8594C94.2438 70.0598 94.4093 69.1649 94.3241 68.2761Z" fill="#3DAA5F"/>
  <path opacity="0.25" d="M94.3241 68.2761C94.3241 68.2761 92.9581 67.7381 91.7241 68.5341C90.4901 69.3301 87.1401 73.1761 87.1401 73.1761L86.2981 72.2401C86.2981 72.2401 85.8521 73.8941 84.4561 74.0401C84.4561 74.0401 85.5521 75.8281 86.1641 76.4881C86.7761 77.1481 87.2641 77.0261 87.9641 76.4881C88.6641 75.9501 92.0761 72.8001 92.0761 72.8001C92.8359 72.3313 93.4492 71.6589 93.8465 70.8594C94.2438 70.0598 94.4093 69.1649 94.3241 68.2761Z" fill="black"/>
  <path d="M101.248 72.3861L101.188 74.1121C101.038 74.3121 100.882 74.4941 100.724 74.6781C99.7879 75.7954 98.6711 76.7479 97.4201 77.4961C95.1181 78.8261 93.0661 78.7781 91.7301 77.6261C91.7121 75.5261 91.7161 72.9281 91.8281 71.7561C92.0281 69.6201 92.7461 68.5341 93.8281 68.2981C94.3441 68.1841 98.2121 68.5361 98.2121 68.5361L100.354 69.0721C100.4 69.094 100.445 69.1187 100.488 69.1461C100.816 69.3461 100.978 69.7201 101.148 70.2581C101.27 70.6481 101.248 71.6601 101.248 72.3861Z" fill="#F5F5F5"/>
  <path d="M97.9781 62.2001C97.941 62.7175 97.751 63.2123 97.4324 63.6216C97.1137 64.031 96.6807 64.3366 96.1883 64.4996C95.6958 64.6626 95.166 64.6758 94.666 64.5374C94.166 64.399 93.7184 64.1154 93.3798 63.7223C93.0413 63.3293 92.827 62.8446 92.7642 62.3296C92.7013 61.8147 92.7928 61.2927 93.027 60.8297C93.2611 60.3668 93.6274 59.9839 94.0794 59.7293C94.5315 59.4748 95.0489 59.3602 95.5661 59.4001C96.2566 59.4533 96.8979 59.7777 97.3499 60.3024C97.8019 60.827 98.0278 61.5093 97.9781 62.2001Z" fill="#263238"/>
  <path d="M99.7401 64.2C99.7401 64.2 99.1641 66.158 98.9681 66.472C98.8394 66.6641 98.6418 66.7994 98.4161 66.85L98.5541 65.45L99.7401 64.2Z" fill="#263238"/>
  <path d="M99.412 61.3101C99.4345 61.2485 99.4696 61.1923 99.5151 61.1451C99.5605 61.098 99.6154 61.0608 99.676 61.0361C99.7577 61.0114 99.8441 61.0066 99.928 61.0221C100.458 61.0921 100.766 61.5681 100.796 62.0781C100.802 62.4524 100.729 62.8237 100.582 63.1681C100.494 63.4392 100.354 63.6906 100.17 63.9081C100.082 64.0058 99.9741 64.0842 99.854 64.1383C99.7338 64.1923 99.6038 64.2209 99.472 64.2221C99.2934 64.2066 99.1135 64.212 98.936 64.2381C98.996 63.8727 99.0574 63.5081 99.12 63.1441L99.27 62.2481C99.292 62.1161 99.32 61.9841 99.336 61.8481C99.3389 61.6698 99.3631 61.4926 99.408 61.3201L99.412 61.3101Z" fill="#263238"/>
  <path d="M98.6961 64.2201C98.8481 64.3281 99.0961 64.0381 99.3141 63.8461C99.5321 63.6541 100.192 63.4221 100.462 64.1241C100.732 64.8261 100.062 65.7021 99.5361 65.8241C98.6421 66.0241 98.5541 65.4601 98.5541 65.4601L98.2461 68.7001C97.0461 70.0081 94.0201 69.9601 95.3861 68.6021L95.4861 67.3461C95.0921 67.3777 94.6959 67.3677 94.3041 67.3161C93.6681 67.1681 93.3041 66.6301 93.1621 65.9161C92.9341 64.7741 92.8841 63.8641 93.3181 61.6881C93.7941 59.3021 96.5961 59.4881 98.0361 60.5601C99.4761 61.6321 98.6961 64.2201 98.6961 64.2201Z" fill="#FFA8A7"/>
  <path d="M99.6762 62.222C99.7402 61.992 99.6262 61.756 99.6762 61.522C99.7262 61.288 99.8762 61.192 99.9602 61.002C100.114 60.638 99.9122 60.35 99.6282 60.118C98.5102 59.208 96.9302 59.132 95.6722 58.432C95.4906 58.3178 95.2992 58.2201 95.1002 58.14C94.9999 58.1013 94.8926 58.0839 94.7852 58.0887C94.6778 58.0935 94.5726 58.1205 94.4762 58.168C94.3942 58.2218 94.3238 58.2915 94.2692 58.3729C94.2146 58.4543 94.1768 58.5458 94.1582 58.642C94.1326 58.8356 94.1239 59.031 94.1322 59.226C93.9482 59.226 93.7842 59.1 93.5962 59.082C93.3947 59.0596 93.1909 59.0943 93.0082 59.182C92.8852 59.2334 92.7841 59.3261 92.7222 59.444C92.6849 59.538 92.6692 59.6392 92.6762 59.74C92.6863 60.0641 92.7737 60.381 92.9309 60.6644C93.0881 60.9479 93.3107 61.1898 93.5802 61.37C93.7683 61.49 93.9696 61.588 94.1802 61.662C94.533 61.804 94.9098 61.8774 95.2902 61.878C95.6736 61.877 96.0432 61.7346 96.3282 61.478C96.4984 61.8322 96.7792 62.1214 97.1282 62.302C97.3048 62.389 97.4995 62.4327 97.6963 62.4295C97.8931 62.4264 98.0864 62.3765 98.2602 62.284C98.2822 62.816 98.3462 63.344 98.3782 63.884C98.3682 64.0565 98.4247 64.2261 98.5362 64.358C98.8462 64.646 99.1142 64.004 99.3022 63.858C99.4122 63.772 99.4222 63.556 99.4362 63.432C99.4502 63.308 99.4622 63.174 99.4662 63.046C99.4518 62.9635 99.4451 62.8798 99.4462 62.796C99.5062 62.584 99.6242 62.412 99.6762 62.222Z" fill="#263238"/>
  <path d="M99.9461 61.2341L100.946 60.7881C100.92 60.7208 100.881 60.6594 100.831 60.6076C100.78 60.5558 100.72 60.5148 100.654 60.487C100.587 60.4591 100.516 60.445 100.444 60.4456C100.371 60.4461 100.3 60.4613 100.234 60.4901C100.1 60.5537 99.9954 60.6663 99.9418 60.8047C99.8882 60.9431 99.8898 61.0968 99.9461 61.2341Z" fill="#263238"/>
  <path d="M95.4861 67.346C95.4861 67.346 96.9421 67.166 97.4641 66.946C97.7701 66.8151 98.0294 66.5948 98.2081 66.314C98.1101 66.6014 97.955 66.8661 97.7521 67.092C97.3521 67.534 95.4561 67.736 95.4561 67.736L95.4861 67.346Z" fill="#F28F8F"/>
  <path d="M95.8401 63.64C95.8383 63.6964 95.8531 63.7521 95.8827 63.8001C95.9122 63.8482 95.9553 63.8865 96.0064 63.9103C96.0575 63.9341 96.1145 63.9423 96.1703 63.934C96.2261 63.9257 96.2783 63.9012 96.3202 63.8636C96.3622 63.8259 96.3922 63.7768 96.4065 63.7222C96.4209 63.6676 96.4188 63.6101 96.4007 63.5567C96.3826 63.5032 96.3492 63.4563 96.3046 63.4217C96.2601 63.3871 96.2063 63.3664 96.1501 63.362C96.1115 63.3599 96.0728 63.3654 96.0363 63.3782C95.9998 63.391 95.9662 63.4109 95.9374 63.4367C95.9086 63.4625 95.8852 63.4938 95.8685 63.5287C95.8518 63.5636 95.8422 63.6014 95.8401 63.64Z" fill="#263238"/>
  <path d="M96.2281 62.5782L96.8161 62.9642C96.8667 62.8833 96.8839 62.786 96.8641 62.6928C96.8443 62.5995 96.7891 62.5175 96.7101 62.4642C96.6713 62.4389 96.6278 62.4217 96.5822 62.4138C96.5366 62.4058 96.4898 62.4072 96.4447 62.4179C96.3996 62.4285 96.3572 62.4482 96.32 62.4758C96.2828 62.5033 96.2515 62.5382 96.2281 62.5782Z" fill="#263238"/>
  <path d="M95.8581 65.52L95.0381 65.758C95.0516 65.8128 95.0759 65.8643 95.1096 65.9095C95.1433 65.9547 95.1858 65.9927 95.2345 66.0213C95.2831 66.0498 95.337 66.0683 95.3929 66.0756C95.4489 66.083 95.5057 66.079 95.5601 66.064C95.6703 66.0293 95.7629 65.9533 95.8185 65.8519C95.874 65.7506 95.8882 65.6316 95.8581 65.52Z" fill="#F28F8F"/>
  <path d="M93.4261 62.6001L94.0261 62.2121C94.0028 62.172 93.9715 62.1372 93.9342 62.1097C93.8969 62.0821 93.8544 62.0625 93.8093 62.052C93.7641 62.0415 93.7173 62.0404 93.6717 62.0487C93.6261 62.0569 93.5827 62.0744 93.5441 62.1001C93.4639 62.1522 93.4069 62.2333 93.3849 62.3264C93.363 62.4195 93.3777 62.5175 93.4261 62.6001Z" fill="#263238"/>
  <path d="M93.5401 63.382C93.5383 63.4384 93.5531 63.494 93.5826 63.5421C93.6122 63.5901 93.6552 63.6284 93.7063 63.6522C93.7575 63.676 93.8145 63.6843 93.8703 63.676C93.9261 63.6677 93.9782 63.6432 94.0202 63.6055C94.0622 63.5679 94.0922 63.5187 94.1065 63.4641C94.1208 63.4096 94.1188 63.352 94.1007 63.2986C94.0825 63.2452 94.0491 63.1983 94.0046 63.1637C93.96 63.1291 93.9063 63.1083 93.8501 63.104C93.8114 63.1018 93.7728 63.1073 93.7363 63.1201C93.6998 63.1329 93.6662 63.1528 93.6374 63.1786C93.6086 63.2045 93.5851 63.2357 93.5684 63.2706C93.5518 63.3055 93.5421 63.3433 93.5401 63.382Z" fill="#263238"/>
  <path d="M94.8981 63.22L94.6701 64.942L93.7921 64.564L94.8981 63.22Z" fill="#F28F8F"/>
  <path d="M103.2 70.8621C102.645 72.0144 101.968 73.104 101.18 74.1121C101.03 74.3121 100.874 74.4941 100.716 74.6781C99.7021 72.8781 99.4561 69.8781 100.004 68.9861L100.57 69.0721C101.118 69.1422 101.643 69.341 102.1 69.652C102.557 69.9631 102.934 70.3777 103.2 70.8621Z" fill="#3DAA5F"/>
  <g opacity="0.25">
  <path d="M103.2 70.8621C102.645 72.0144 101.968 73.104 101.18 74.1121C101.03 74.3121 100.874 74.4941 100.716 74.6781C99.7021 72.8781 99.4561 69.8781 100.004 68.9861L100.57 69.0721C101.118 69.1422 101.643 69.341 102.1 69.652C102.557 69.9631 102.934 70.3777 103.2 70.8621Z" fill="black"/>
  </g>
  <path d="M52.678 77.916L51.972 77.516C51.8964 77.4667 51.8334 77.4003 51.7882 77.3221C51.743 77.2439 51.7169 77.1561 51.712 77.066V58.898C51.7168 58.8078 51.7428 58.7199 51.788 58.6417C51.8332 58.5635 51.8962 58.4971 51.972 58.448L88.01 37.648C88.0907 37.6075 88.1798 37.5864 88.27 37.5864C88.3603 37.5864 88.4493 37.6075 88.53 37.648L89.236 38.048C89.3117 38.0972 89.3747 38.1637 89.4199 38.2419C89.4651 38.32 89.4912 38.4078 89.496 38.498V56.66C89.4913 56.7502 89.4653 56.838 89.4201 56.9162C89.3749 56.9944 89.3118 57.0608 89.236 57.11L53.2 77.916C53.1194 77.9577 53.0299 77.9795 52.939 77.9795C52.8482 77.9795 52.7587 77.9577 52.678 77.916Z" fill="#3DAA5F"/>
  <path opacity="0.4" d="M89.486 38.42C89.452 38.312 89.352 38.278 89.236 38.348L53.2 59.154C53.1231 59.2043 53.0598 59.2731 53.016 59.354L51.79 58.648C51.8332 58.5667 51.8966 58.4978 51.974 58.448L88.014 37.648C88.0947 37.6075 88.1838 37.5864 88.274 37.5864C88.3643 37.5864 88.4533 37.6075 88.534 37.648L89.238 38.048C89.3022 38.0901 89.3573 38.1448 89.3999 38.2087C89.4425 38.2726 89.4718 38.3445 89.486 38.42Z" fill="white"/>
  <path d="M53.2001 59.156L89.2381 38.356C89.3821 38.274 89.4981 38.34 89.4981 38.506V56.66C89.4933 56.7502 89.4673 56.838 89.4221 56.9162C89.3769 56.9944 89.3139 57.0608 89.2381 57.11L53.2001 77.916C53.0561 78 52.9401 77.932 52.9401 77.766V59.6C52.9457 59.5108 52.9722 59.4242 53.0173 59.3471C53.0625 59.27 53.1251 59.2045 53.2001 59.156Z" fill="#3DAA5F"/>
  <path opacity="0.15" d="M53.136 77.9441C53.0619 77.9714 52.9829 77.983 52.904 77.9782C52.8252 77.9734 52.7482 77.9522 52.678 77.9161L51.974 77.5161C51.8985 77.4666 51.8357 77.4001 51.7906 77.322C51.7454 77.2438 51.7192 77.1562 51.714 77.0661V58.8981C51.7161 58.8078 51.7416 58.7196 51.788 58.6421L53.014 59.3481C52.9664 59.4253 52.9396 59.5135 52.936 59.6041V77.7661C52.936 77.9081 53.022 77.9781 53.136 77.9441Z" fill="black"/>
  <path d="M53.75 77.5999V79.4519C53.7497 79.5162 53.7701 79.5788 53.8081 79.6306C53.8461 79.6824 53.8998 79.7206 53.9611 79.7397C54.0225 79.7587 54.0883 79.7575 54.149 79.7363C54.2096 79.7151 54.2619 79.675 54.298 79.6219L57 75.7219L53.75 77.5999Z" fill="#3DAA5F"/>
  <path d="M71.246 57.178L73.246 56.022C73.484 55.884 73.678 55.982 73.678 56.242C73.6672 56.3871 73.6225 56.5277 73.5475 56.6524C73.4724 56.7771 73.3692 56.8825 73.246 56.96L71.246 58.116C71.006 58.254 70.812 58.156 70.812 57.898C70.8226 57.7523 70.8674 57.6111 70.9428 57.486C71.0182 57.3609 71.1221 57.2554 71.246 57.178Z" fill="#FAFAFA"/>
  <path d="M74.7321 55.164L79.8281 52.222C80.0681 52.084 80.2621 52.182 80.2621 52.44C80.2515 52.5857 80.2067 52.7268 80.1313 52.852C80.0559 52.9771 79.952 53.0826 79.8281 53.16L74.7321 56.102C74.4921 56.24 74.2981 56.142 74.2981 55.882C74.309 55.7366 74.3539 55.5959 74.4293 55.4711C74.5047 55.3464 74.6085 55.2412 74.7321 55.164Z" fill="#FAFAFA"/>
  <path d="M81.1001 51.486L86.8521 48.168C87.0901 48.03 87.2841 48.128 87.2841 48.388C87.2733 48.5331 87.2286 48.6737 87.1535 48.7984C87.0785 48.9231 86.9753 49.0284 86.8521 49.106L81.1001 52.424C80.8621 52.562 80.6681 52.464 80.6681 52.206C80.6786 52.0605 80.7232 51.9195 80.7982 51.7945C80.8733 51.6694 80.9767 51.5637 81.1001 51.486Z" fill="#FAFAFA"/>
  <path d="M71.2441 51.5499L76.3401 48.5999C76.5801 48.4619 76.7721 48.5599 76.7721 48.8199C76.7617 48.9651 76.7172 49.1059 76.6421 49.2307C76.5671 49.3554 76.4636 49.4607 76.3401 49.5379L71.2441 52.4799C71.0041 52.6179 70.8101 52.5199 70.8101 52.2619C70.8218 52.1176 70.8672 51.978 70.9426 51.8544C71.0179 51.7307 71.1212 51.6265 71.2441 51.5499Z" fill="#FAFAFA"/>
  <path d="M77.612 47.8739L82.324 45.1519C82.564 45.0139 82.758 45.1119 82.758 45.3719C82.7471 45.5172 82.7021 45.658 82.6267 45.7827C82.5513 45.9075 82.4476 46.0127 82.324 46.0899L77.612 48.8119C77.372 48.9499 77.178 48.8519 77.178 48.5919C77.1892 48.4466 77.2342 48.306 77.3096 48.1813C77.385 48.0566 77.4885 47.9513 77.612 47.8739Z" fill="#FAFAFA"/>
  <path d="M83.624 44.4L86.988 42.458C87.228 42.32 87.422 42.418 87.422 42.678C87.4118 42.8241 87.3671 42.9656 87.2917 43.0911C87.2162 43.2166 87.1122 43.3224 86.988 43.4L83.624 45.342C83.386 45.48 83.192 45.382 83.192 45.124C83.2019 44.9778 83.2462 44.8361 83.3213 44.7103C83.3963 44.5844 83.5001 44.4781 83.624 44.4Z" fill="#FAFAFA"/>
  <path d="M71.2441 59.9999L76.3401 57.0579C76.5801 56.9199 76.7721 57.0179 76.7721 57.2759C76.7619 57.4215 76.7174 57.5626 76.6424 57.6877C76.5673 57.8128 76.4637 57.9184 76.3401 57.9959L71.2441 60.9379C71.0041 61.0759 70.8101 60.9779 70.8101 60.7179C70.8209 60.5726 70.8659 60.4318 70.9413 60.3071C71.0167 60.1823 71.1204 60.0771 71.2441 59.9999Z" fill="#FAFAFA"/>
  <path d="M77.612 56.3119L82.324 53.5999C82.564 53.4619 82.758 53.5599 82.758 53.8179C82.7474 53.9636 82.7026 54.1048 82.6272 54.2299C82.5518 54.355 82.4479 54.4605 82.324 54.5379L77.612 57.2579C77.372 57.3959 77.178 57.2979 77.178 57.0399C77.1876 56.8929 77.232 56.7503 77.3074 56.6237C77.3829 56.4972 77.4872 56.3903 77.612 56.3119Z" fill="#FAFAFA"/>
  <path d="M83.624 52.8381L86.988 50.8961C87.228 50.7581 87.422 50.8561 87.422 51.1141C87.4115 51.2598 87.3666 51.4009 87.2912 51.526C87.2158 51.6511 87.1119 51.7567 86.988 51.8341L83.624 53.7761C83.386 53.9141 83.192 53.8161 83.192 53.5561C83.2028 53.4109 83.2475 53.2704 83.3226 53.1457C83.3976 53.0209 83.5009 52.9156 83.624 52.8381Z" fill="#FAFAFA"/>
  <path d="M71.2441 54.3659L80.8441 48.8179C81.0821 48.6799 81.2761 48.7779 81.2761 49.0379C81.2653 49.183 81.2205 49.3236 81.1455 49.4483C81.0705 49.573 80.9672 49.6784 80.8441 49.7559L71.2441 55.3039C71.0041 55.4419 70.8101 55.3439 70.8101 55.0839C70.8209 54.9385 70.8659 54.7978 70.9413 54.673C71.0167 54.5483 71.1204 54.4431 71.2441 54.3659Z" fill="#FAFAFA"/>
  <path d="M82.246 48.0119L86.846 45.3599C87.086 45.2219 87.28 45.3199 87.28 45.5779C87.2694 45.7236 87.2246 45.8648 87.1492 45.9899C87.0738 46.115 86.9699 46.2205 86.846 46.2979L82.246 48.9499C82.006 49.0879 81.812 48.9899 81.814 48.7299C81.8248 48.5848 81.8695 48.4442 81.9445 48.3195C82.0196 48.1948 82.1228 48.0895 82.246 48.0119Z" fill="#FAFAFA"/>
  <path d="M85.25 55.014C85.2133 54.9979 85.1737 54.9892 85.1336 54.9886C85.0935 54.9879 85.0537 54.9952 85.0165 55.0101C84.9792 55.025 84.9453 55.0472 84.9168 55.0753C84.8882 55.1035 84.8655 55.137 84.85 55.174L83.718 57.87L83.456 57.6C83.3985 57.5475 83.3227 57.5195 83.2449 57.5219C83.167 57.5243 83.0932 57.5568 83.0389 57.6126C82.9846 57.6685 82.9541 57.7433 82.954 57.8212C82.9538 57.899 82.984 57.9739 83.038 58.03L83.624 58.598C83.6771 58.6514 83.7488 58.6822 83.824 58.684C83.844 58.686 83.8641 58.686 83.884 58.684C83.9319 58.6744 83.9767 58.6532 84.0144 58.6221C84.0521 58.5911 84.0815 58.5512 84.1 58.506L85.41 55.4C85.4383 55.3274 85.4374 55.2468 85.4076 55.1749C85.3777 55.1029 85.3213 55.0453 85.25 55.014Z" fill="#455A64"/>
  <path d="M87.7881 53.54C87.7514 53.5236 87.7118 53.5148 87.6716 53.514C87.6315 53.5132 87.5915 53.5204 87.5542 53.5354C87.5169 53.5503 87.483 53.5726 87.4544 53.6009C87.4259 53.6291 87.4033 53.6629 87.3881 53.7L86.2621 56.4L86.0001 56.132C85.9425 56.0796 85.8668 56.0516 85.789 56.0539C85.7111 56.0563 85.6372 56.0888 85.5829 56.1447C85.5286 56.2005 85.4982 56.2753 85.498 56.3532C85.4979 56.4311 85.528 56.506 85.5821 56.562L86.1661 57.13C86.1936 57.1576 86.2264 57.1794 86.2625 57.1941C86.2985 57.2089 86.3371 57.2163 86.3761 57.216H86.4341C86.482 57.2058 86.5267 57.1844 86.5646 57.1534C86.6025 57.1224 86.6325 57.0829 86.6521 57.038L87.9541 53.938C87.97 53.9011 87.9783 53.8613 87.9786 53.8211C87.9788 53.7809 87.9709 53.741 87.9555 53.7039C87.94 53.6667 87.9172 53.6331 87.8884 53.6049C87.8597 53.5768 87.8255 53.5547 87.7881 53.54Z" fill="#455A64"/>
  <path d="M61.8521 55.1299C57.8241 57.4579 54.5581 63.1119 54.5601 67.7639C54.5621 72.4159 57.8261 74.3019 61.8541 71.9759C65.8821 69.6499 69.1501 63.9919 69.1461 59.3419C69.1421 54.6919 65.8761 52.7999 61.8521 55.1299Z" fill="#455A64"/>
  <path d="M64.9 66.2001C63.54 66.1441 59.928 65.6841 59.928 65.6841C58.8513 64.9827 57.9819 64.006 57.4101 62.8553C56.8383 61.7046 56.5848 60.4218 56.676 59.1401L56.756 58.0161C56.8237 56.9796 57.2425 55.9972 57.9435 55.2308C58.6445 54.4644 59.5857 53.9597 60.612 53.8001C61.2321 53.7062 61.8653 53.7529 62.4649 53.9368C63.0645 54.1206 63.6151 54.4369 64.0759 54.8623C64.5368 55.2876 64.8962 55.8111 65.1274 56.394C65.3587 56.977 65.4559 57.6045 65.412 58.2301C65.372 58.7821 65.432 59.2861 65.812 59.7181C66.0304 59.9353 66.2726 60.1272 66.534 60.2901C66.9053 60.5313 67.2287 60.8391 67.488 61.1981C67.6163 61.3786 67.7062 61.5837 67.7519 61.8004C67.7977 62.0172 67.7984 62.241 67.754 62.4581C67.6772 62.7342 67.5232 62.9826 67.31 63.1741C67.2714 63.2009 67.2448 63.2419 67.236 63.2881C67.2374 63.3215 67.2477 63.354 67.266 63.3821C67.59 63.9701 67.686 64.7281 67.34 65.3041C67.1041 65.6633 66.7506 65.9292 66.34 66.0561C65.9342 66.1804 65.5101 66.2345 65.086 66.2161C65.038 66.2001 64.968 66.2001 64.9 66.2001Z" fill="#263238"/>
  <path d="M58.53 66.236C58.4289 66.989 58.036 67.6721 57.436 68.138C57.2386 68.2931 57.0188 68.4172 56.784 68.506L55.758 71.688C55.002 70.798 54.558 69.464 54.558 67.76C54.5633 67.0747 54.6303 66.3913 54.758 65.718C55.284 64.414 55.958 63.87 57.426 63.718C57.498 63.762 58.778 64.632 58.53 66.236Z" fill="#FFA8A7"/>
  <path d="M74.2 66.0899C73.3346 67.5977 72.3927 69.0602 71.378 70.4719C71.126 70.8079 70.422 71.7359 70.054 71.8259C69.586 71.9419 69.188 71.5719 68.938 71.3999C68.09 70.8119 63.702 66.4499 63.702 66.4499C62.336 64.5459 62.68 63.3319 62.866 63.3299C63.052 63.3279 64.452 62.9619 65.65 64.1299C66.558 65.0159 69.66 68.2219 69.66 68.2219C70.392 67.3619 70.872 66.9359 71.602 66.0739C71.958 65.6539 72.5 65.2019 72.524 64.6239C72.5215 64.3598 72.4981 64.0963 72.454 63.8359C72.4098 63.2335 72.4482 62.6279 72.568 62.0359C72.5704 62.009 72.5771 61.9826 72.588 61.9579C72.6076 61.9247 72.6379 61.8993 72.674 61.8859C72.7413 61.8663 72.8131 61.8696 72.8783 61.8953C72.9434 61.921 72.9982 61.9677 73.034 62.0279C73.1027 62.1503 73.1404 62.2876 73.144 62.4279C73.1475 62.5656 73.1774 62.7014 73.232 62.8279C73.2435 62.8539 73.2614 62.8766 73.284 62.8939C73.3094 62.9108 73.3395 62.9192 73.37 62.9179C73.536 62.9179 73.626 62.7379 73.686 62.6059C73.8306 62.297 73.9471 61.9757 74.034 61.6459C74.094 61.4199 74.198 61.2019 74.276 60.9779C74.3065 60.8451 74.3762 60.7246 74.476 60.6319C74.656 60.4979 74.912 60.5719 75.114 60.6739C75.2254 60.7293 75.3307 60.7963 75.428 60.8739C75.7156 61.1365 75.9053 61.4891 75.966 61.8739C76.0469 62.319 76.0167 62.7772 75.878 63.2079C75.7064 63.814 75.4214 64.3821 75.038 64.8819C74.766 65.2859 74.456 65.6679 74.2 66.0899Z" fill="#FFA8A7"/>
  <path d="M64.438 68.9178L64.388 69.9879C63.6354 70.7602 62.7833 71.4287 61.854 71.9759C61.0291 72.4759 60.1112 72.8032 59.156 72.9378C58.4842 73.0286 57.8004 72.9509 57.166 72.7118L57.316 72.2398L56.78 68.5099C56.8602 68.4336 56.9313 68.3484 56.992 68.2558C57.022 68.2139 57.052 68.1679 57.086 68.1139C57.1248 68.0539 57.1602 67.9918 57.192 67.9279C57.216 67.8839 57.238 67.8379 57.262 67.7879C57.286 67.7379 57.308 67.6878 57.332 67.6338L57.372 67.5439C57.396 67.4839 57.42 67.4179 57.444 67.3439C57.4519 67.325 57.4586 67.3056 57.464 67.2858C57.5773 66.9443 57.6576 66.5927 57.704 66.2358C57.904 64.7538 57.536 63.8659 57.418 63.7139C57.48 63.6939 58.844 63.6178 58.844 63.6178L61.578 63.2979L62.888 63.3479C63.8858 63.9643 64.6575 64.8869 65.088 65.9779C65.786 67.6958 64.438 68.9178 64.438 68.9178Z" fill="#FAFAFA"/>
  <path opacity="0.1" d="M59.156 72.9379C58.4842 73.0286 57.8004 72.951 57.166 72.7119L57.316 72.2399L56.78 68.5099C56.8602 68.4336 56.9313 68.3484 56.992 68.2559C57.022 68.2139 57.052 68.1679 57.086 68.1139C57.1248 68.0539 57.1602 67.9918 57.192 67.9279C57.216 67.8839 57.238 67.8379 57.262 67.7879C57.286 67.7379 57.308 67.6879 57.332 67.6339L57.372 67.5439C57.396 67.4839 57.42 67.4179 57.444 67.3439C57.4519 67.325 57.4586 67.3056 57.464 67.2859C57.452 67.4859 57.436 67.7979 57.432 68.1359C57.4263 68.5179 57.4437 68.8999 57.484 69.2799C57.604 70.2559 58.65 72.3839 59.06 72.7219C59.0955 72.7445 59.1235 72.777 59.1406 72.8154C59.1576 72.8538 59.163 72.8964 59.156 72.9379Z" fill="black"/>
  <path d="M64.3 56.27C64.558 56.578 64.878 57.36 64.614 59.85C64.39 61.96 63.662 62.426 63.306 62.548C62.95 62.67 62.294 62.522 61.658 62.362L61.572 63.392C62.1823 63.87 62.7053 64.4499 63.118 65.106C63.606 65.946 61.274 66.106 59.898 64.808C59.162 64.114 58.698 63.624 58.698 63.624L58.968 60.572C58.968 60.572 58.568 60.91 57.968 60.294C57.476 59.786 57.368 58.988 57.81 58.6C57.9256 58.5089 58.0612 58.4466 58.2057 58.4183C58.3501 58.39 58.4992 58.3964 58.6406 58.437C58.7821 58.4776 58.9118 58.5513 59.0192 58.652C59.1265 58.7527 59.2084 58.8775 59.258 59.016C59.258 59.016 60.284 59.14 61.716 58.5C63.148 57.86 64.14 57.082 64.3 56.27Z" fill="#FFA8A7"/>
  <path d="M62.4 59.178C62.4015 59.2149 62.3954 59.2517 62.382 59.2862C62.3685 59.3206 62.3481 59.3519 62.3221 59.3781C62.296 59.4042 62.2647 59.4247 62.2304 59.4382C62.196 59.4518 62.1592 59.458 62.1222 59.4566C62.0853 59.4553 62.0491 59.4463 62.0158 59.4302C61.9825 59.4141 61.9529 59.3914 61.9288 59.3633C61.9048 59.3353 61.8868 59.3026 61.876 59.2672C61.8652 59.2319 61.8618 59.1947 61.866 59.158C61.8645 59.1211 61.8707 59.0842 61.8841 59.0498C61.8975 59.0154 61.9179 58.9841 61.944 58.9579C61.9701 58.9318 62.0013 58.9113 62.0357 58.8977C62.0701 58.8842 62.1069 58.878 62.1438 58.8793C62.1808 58.8807 62.217 58.8897 62.2503 58.9058C62.2836 58.9218 62.3132 58.9446 62.3372 58.9727C62.3613 59.0007 62.3793 59.0334 62.3901 59.0688C62.4009 59.1041 62.4043 59.1413 62.4 59.178Z" fill="#263238"/>
  <path d="M62.1001 60.8521L62.7861 61.1341C62.7697 61.1802 62.7441 61.2225 62.7109 61.2586C62.6778 61.2946 62.6377 61.3236 62.593 61.3437C62.5484 61.3639 62.5002 61.3749 62.4512 61.3759C62.4022 61.377 62.3536 61.3682 62.3081 61.3501C62.2175 61.308 62.1459 61.2336 62.1074 61.1414C62.0689 61.0493 62.0663 60.946 62.1001 60.8521Z" fill="#F28F8F"/>
  <path d="M64.584 58.642L64 58.348C64.0171 58.3088 64.0421 58.2736 64.0734 58.2444C64.1046 58.2152 64.1415 58.1927 64.1818 58.1783C64.2221 58.1639 64.2648 58.1578 64.3075 58.1605C64.3502 58.1632 64.3919 58.1746 64.43 58.194C64.5082 58.2347 64.5677 58.3039 64.5964 58.3873C64.6251 58.4707 64.6206 58.5618 64.584 58.642Z" fill="#263238"/>
  <path d="M64.3 59.2739C64.2961 59.3258 64.277 59.3754 64.2452 59.4166C64.2133 59.4578 64.1701 59.4887 64.1208 59.5055C64.0715 59.5223 64.0184 59.5243 63.968 59.5113C63.9176 59.4982 63.8722 59.4706 63.8373 59.432C63.8024 59.3933 63.7797 59.3453 63.7718 59.2938C63.764 59.2423 63.7714 59.1897 63.7932 59.1424C63.815 59.0951 63.8502 59.0553 63.8945 59.0278C63.9387 59.0004 63.99 58.9865 64.042 58.9879C64.0778 58.9897 64.1128 58.9985 64.1451 59.0139C64.1774 59.0292 64.2064 59.0508 64.2304 59.0774C64.2543 59.1039 64.2728 59.135 64.2848 59.1687C64.2967 59.2024 64.3019 59.2382 64.3 59.2739Z" fill="#263238"/>
  <path d="M63.232 58.8921L63.074 60.6221L63.938 60.4321L63.232 58.8921Z" fill="#F28F8F"/>
  <path d="M61.658 62.3619C60.984 62.2159 59.62 61.6979 59.458 61.1279C59.5221 61.415 59.6729 61.6755 59.89 61.8739C60.278 62.2739 61.632 62.7839 61.632 62.7839L61.658 62.3619Z" fill="#F28F8F"/>
  <path d="M59.1021 59.7819C59.2437 59.7819 59.3795 59.7256 59.4796 59.6255C59.5798 59.5253 59.6361 59.3895 59.6361 59.2479C59.6361 59.1062 59.5798 58.9704 59.4796 58.8703C59.3795 58.7701 59.2437 58.7139 59.1021 58.7139V59.7819Z" fill="#263238"/>
  <path d="M92.452 94.376L100.912 88.958L104.638 90.154L92.452 94.376Z" fill="#3DAA5F"/>
  <path d="M92.452 94.3761L99.764 88.2781L98.138 86.4021L92.452 94.3761Z" fill="#3DAA5F"/>
  <path d="M99.764 88.2781V89.6941L92.452 94.3761L99.764 88.2781Z" fill="#3DAA5F"/>
  <path opacity="0.3" d="M99.764 88.2781V89.6941L92.452 94.3761L99.764 88.2781Z" fill="black"/>
  <path d="M110.224 51.1161L103.984 47.1201L101.236 48.0021L110.224 51.1161Z" fill="#3DAA5F"/>
  <path d="M110.224 51.1161L104.83 46.6181L106.03 45.2341L110.224 51.1161Z" fill="#3DAA5F"/>
  <path d="M104.83 46.6182V47.6622L110.224 51.1162L104.83 46.6182Z" fill="#3DAA5F"/>
  <path opacity="0.3" d="M104.83 46.6182V47.6622L110.224 51.1162L104.83 46.6182Z" fill="black"/>
  <path d="M103.726 46.3161C103.683 46.3161 103.641 46.3021 103.606 46.2761C103.528 46.2161 103.448 46.1581 103.368 46.1001C103.346 46.0848 103.328 46.0654 103.314 46.043C103.3 46.0207 103.291 45.9957 103.287 45.9697C103.282 45.9437 103.283 45.9171 103.289 45.8914C103.295 45.8657 103.307 45.8415 103.322 45.8201C103.337 45.7988 103.357 45.7808 103.379 45.767C103.402 45.7532 103.427 45.7441 103.453 45.74C103.479 45.7359 103.505 45.737 103.531 45.7432C103.557 45.7494 103.581 45.7606 103.602 45.7761C103.684 45.8341 103.766 45.8941 103.846 45.9561C103.88 45.9813 103.904 46.0164 103.917 46.0565C103.929 46.0966 103.929 46.1396 103.916 46.1794C103.902 46.2192 103.877 46.2538 103.843 46.2784C103.809 46.3029 103.768 46.3161 103.726 46.3161Z" fill="#E0E0E0"/>
  <path d="M102.6 45.5441C102.563 45.5442 102.526 45.5338 102.494 45.5141C102.317 45.4021 102.137 45.2941 101.954 45.1901C101.908 45.1635 101.874 45.1198 101.86 45.0684C101.846 45.017 101.853 44.9622 101.88 44.9161C101.907 44.8699 101.95 44.8362 102.002 44.8223C102.053 44.8084 102.108 44.8155 102.154 44.8421C102.342 44.9501 102.526 45.0601 102.708 45.1741C102.745 45.197 102.774 45.2314 102.789 45.272C102.805 45.3127 102.807 45.3573 102.795 45.3992C102.783 45.441 102.758 45.4778 102.723 45.504C102.688 45.5301 102.646 45.5442 102.602 45.5441H102.6ZM101.114 44.7241C101.084 44.7243 101.055 44.7175 101.028 44.7041C100.84 44.6141 100.646 44.5261 100.456 44.4461C100.431 44.4365 100.408 44.422 100.388 44.4034C100.369 44.3847 100.354 44.3624 100.343 44.3376C100.332 44.3129 100.327 44.2862 100.327 44.2593C100.327 44.2324 100.332 44.2058 100.343 44.181C100.353 44.1562 100.369 44.1338 100.388 44.1151C100.407 44.0964 100.43 44.0818 100.455 44.0722C100.481 44.0626 100.507 44.0582 100.534 44.0592C100.561 44.0602 100.588 44.0666 100.612 44.0781C100.812 44.1621 101.012 44.2501 101.2 44.3441C101.241 44.3638 101.273 44.3966 101.293 44.4373C101.313 44.478 101.318 44.5242 101.308 44.5682C101.298 44.6123 101.273 44.6517 101.238 44.68C101.203 44.7083 101.159 44.7238 101.114 44.7241ZM99.542 44.0861C99.5203 44.0857 99.4988 44.0823 99.478 44.0761C99.278 44.0101 99.078 43.9481 98.878 43.8921C98.8506 43.8871 98.8246 43.8765 98.8016 43.861C98.7786 43.8454 98.759 43.8252 98.7442 43.8017C98.7295 43.7782 98.7197 43.7518 98.7157 43.7244C98.7116 43.6969 98.7134 43.6688 98.7208 43.642C98.7282 43.6153 98.7411 43.5903 98.7586 43.5688C98.7762 43.5472 98.7981 43.5296 98.8228 43.517C98.8476 43.5044 98.8747 43.4971 98.9025 43.4956C98.9302 43.494 98.958 43.4983 98.984 43.5081C99.184 43.5641 99.398 43.6281 99.602 43.6961C99.6272 43.7042 99.6505 43.7173 99.6705 43.7345C99.6906 43.7517 99.7071 43.7727 99.719 43.7963C99.7309 43.82 99.738 43.8457 99.7399 43.8721C99.7418 43.8985 99.7384 43.925 99.73 43.9501C99.717 43.9885 99.6927 44.0221 99.6602 44.0464C99.6277 44.0707 99.5885 44.0845 99.548 44.0861H99.542ZM92.248 44.0461C92.2058 44.046 92.1647 44.0327 92.1306 44.0079C92.0965 43.9831 92.0711 43.9482 92.058 43.9081C92.0415 43.8579 92.0455 43.8033 92.0691 43.7561C92.0927 43.7089 92.134 43.673 92.184 43.6561C92.384 43.5861 92.596 43.5241 92.802 43.4561C92.8273 43.4491 92.8538 43.4472 92.8799 43.4504C92.906 43.4537 92.9312 43.4621 92.954 43.4751C92.9769 43.4881 92.9969 43.5055 93.013 43.5262C93.0292 43.547 93.041 43.5707 93.048 43.5961C93.055 43.6214 93.0569 43.6479 93.0536 43.674C93.0504 43.7001 93.042 43.7252 93.029 43.7481C93.016 43.7709 92.9986 43.791 92.9778 43.8071C92.9571 43.8233 92.9333 43.8351 92.908 43.8421C92.708 43.8981 92.508 43.9581 92.308 44.0241C92.2914 44.0345 92.2731 44.0419 92.254 44.0461H92.248ZM97.9 43.6601H97.862C97.662 43.6221 97.45 43.5881 97.246 43.5621C97.2197 43.5587 97.1944 43.5501 97.1714 43.5369C97.1485 43.5237 97.1283 43.5061 97.1122 43.4851C97.096 43.4641 97.0842 43.4402 97.0773 43.4146C97.0704 43.389 97.0686 43.3623 97.072 43.3361C97.0754 43.3098 97.084 43.2845 97.0972 43.2615C97.1104 43.2386 97.128 43.2184 97.149 43.2023C97.1699 43.1861 97.1939 43.1742 97.2195 43.1673C97.245 43.1604 97.2717 43.1587 97.298 43.1621C97.51 43.1901 97.724 43.2241 97.936 43.2641C97.989 43.2688 98.038 43.2945 98.0721 43.3354C98.1063 43.3763 98.1228 43.429 98.118 43.4821C98.1132 43.5351 98.0876 43.5841 98.0467 43.6182C98.0058 43.6523 97.953 43.6688 97.9 43.6641V43.6601ZM93.9 43.6281C93.8737 43.6303 93.8473 43.6273 93.8222 43.6193C93.797 43.6114 93.7737 43.5985 93.7536 43.5815C93.7334 43.5645 93.7168 43.5437 93.7047 43.5203C93.6926 43.4969 93.6852 43.4713 93.683 43.4451C93.6808 43.4188 93.6837 43.3924 93.6917 43.3672C93.6997 43.3421 93.7126 43.3188 93.7296 43.2987C93.7465 43.2785 93.7673 43.2619 93.7908 43.2498C93.8142 43.2377 93.8397 43.2303 93.866 43.2281C94.078 43.1921 94.294 43.1601 94.508 43.1361C94.561 43.13 94.6143 43.1452 94.6561 43.1784C94.698 43.2116 94.7249 43.26 94.731 43.3131C94.7371 43.3661 94.7219 43.4194 94.6887 43.4612C94.6555 43.503 94.607 43.53 94.554 43.5361C94.354 43.5601 94.14 43.5901 93.934 43.6261L93.9 43.6281ZM96.224 43.4701C96.024 43.4701 95.806 43.4701 95.598 43.4701C95.5449 43.4701 95.4941 43.449 95.4566 43.4115C95.4191 43.374 95.398 43.3231 95.398 43.2701C95.398 43.217 95.4191 43.1662 95.4566 43.1286C95.4941 43.0911 95.5449 43.0701 95.598 43.0701C95.816 43.0701 96.03 43.0701 96.246 43.0701C96.299 43.0701 96.3499 43.0911 96.3874 43.1286C96.4249 43.1662 96.446 43.217 96.446 43.2701C96.446 43.3231 96.4249 43.374 96.3874 43.4115C96.3499 43.449 96.299 43.4701 96.246 43.4701H96.224Z" fill="#E0E0E0"/>
  <path d="M90.988 44.5522C90.9428 44.5519 90.8991 44.5364 90.8639 44.5081C90.8287 44.4798 90.8041 44.4404 90.7941 44.3963C90.7841 44.3523 90.7894 44.3061 90.809 44.2654C90.8286 44.2247 90.8614 44.1919 90.902 44.1722L91.18 44.0462C91.204 44.0355 91.2299 44.0297 91.2562 44.0291C91.2825 44.0285 91.3086 44.033 91.3331 44.0425C91.3577 44.052 91.3801 44.0662 91.3991 44.0843C91.4181 44.1024 91.4334 44.1241 91.444 44.1482C91.4547 44.1722 91.4604 44.1981 91.4611 44.2244C91.4617 44.2506 91.4572 44.2768 91.4477 44.3013C91.4382 44.3258 91.424 44.3482 91.4059 44.3673C91.3877 44.3863 91.366 44.4015 91.342 44.4122C91.252 44.4502 91.162 44.4922 91.072 44.5342C91.0456 44.5462 91.017 44.5523 90.988 44.5522Z" fill="#E0E0E0"/>
  <path d="M102.234 87.532C102.192 87.5318 102.151 87.5182 102.117 87.4932C102.083 87.4683 102.058 87.4332 102.045 87.3931C102.032 87.3529 102.032 87.3097 102.045 87.2697C102.058 87.2296 102.084 87.1948 102.118 87.17L102.362 86.996C102.383 86.9804 102.407 86.9691 102.433 86.9628C102.459 86.9565 102.485 86.9554 102.511 86.9593C102.538 86.9633 102.563 86.9724 102.585 86.9861C102.608 86.9998 102.627 87.0178 102.643 87.039C102.659 87.0603 102.67 87.0845 102.676 87.1101C102.683 87.1357 102.684 87.1624 102.68 87.1884C102.676 87.2145 102.667 87.2396 102.653 87.2622C102.639 87.2847 102.621 87.3044 102.6 87.32L102.356 87.496C102.32 87.521 102.278 87.5336 102.234 87.532Z" fill="#E0E0E0"/>
  <path d="M103.282 86.768C103.251 86.768 103.22 86.7608 103.193 86.7469C103.165 86.733 103.141 86.7128 103.122 86.688C103.09 86.6456 103.077 86.5922 103.084 86.5397C103.092 86.4872 103.12 86.4398 103.162 86.408L103.636 86.048C103.678 86.0194 103.73 86.008 103.78 86.016C103.83 86.0241 103.875 86.051 103.907 86.0913C103.938 86.1316 103.952 86.1822 103.947 86.2329C103.942 86.2836 103.918 86.3305 103.88 86.364C103.722 86.486 103.564 86.608 103.402 86.728C103.367 86.754 103.325 86.768 103.282 86.768ZM104.54 85.786C104.499 85.7857 104.459 85.7727 104.426 85.749C104.392 85.7252 104.367 85.6917 104.353 85.6531C104.339 85.6144 104.338 85.5725 104.349 85.5329C104.36 85.4934 104.382 85.4582 104.414 85.432L104.872 85.052C104.892 85.0325 104.915 85.0173 104.941 85.0073C104.966 84.9973 104.994 84.9927 105.022 84.9938C105.049 84.995 105.076 85.0018 105.101 85.0139C105.126 85.0261 105.148 85.0432 105.166 85.0642C105.184 85.0853 105.197 85.1098 105.205 85.1363C105.213 85.1627 105.215 85.1905 105.212 85.2179C105.208 85.2453 105.199 85.2717 105.185 85.2955C105.171 85.3193 105.152 85.3399 105.13 85.356C104.978 85.486 104.822 85.614 104.666 85.742C104.63 85.7706 104.586 85.7862 104.54 85.786ZM105.752 84.748C105.712 84.7483 105.672 84.7363 105.638 84.7136C105.605 84.6909 105.579 84.6585 105.564 84.6208C105.55 84.5831 105.547 84.5418 105.556 84.5023C105.565 84.4629 105.586 84.4272 105.616 84.4C105.764 84.266 105.91 84.132 106.052 84C106.071 83.9812 106.093 83.9664 106.117 83.9562C106.141 83.9461 106.168 83.9408 106.194 83.9408C106.22 83.9408 106.247 83.9461 106.271 83.9562C106.295 83.9664 106.317 83.9812 106.336 84C106.373 84.0375 106.394 84.0882 106.394 84.141C106.394 84.1938 106.373 84.2445 106.336 84.282C106.19 84.42 106.044 84.556 105.894 84.692C105.856 84.7287 105.805 84.7488 105.752 84.748ZM106.9 83.64C106.848 83.6403 106.798 83.6202 106.76 83.584C106.723 83.5465 106.702 83.4958 106.702 83.443C106.702 83.3902 106.723 83.3395 106.76 83.302C106.898 83.158 107.034 83.014 107.16 82.87C107.197 82.8349 107.245 82.815 107.296 82.8145C107.347 82.814 107.396 82.8328 107.434 82.8672C107.471 82.9015 107.494 82.9489 107.498 82.9995C107.502 83.0502 107.486 83.1004 107.454 83.14C107.32 83.288 107.182 83.434 107.042 83.58C107.024 83.5989 107.001 83.6139 106.977 83.6242C106.953 83.6345 106.926 83.6399 106.9 83.64ZM107.962 82.452C107.915 82.4521 107.87 82.4358 107.834 82.406C107.814 82.3893 107.797 82.3688 107.784 82.3456C107.772 82.3224 107.764 82.297 107.761 82.2708C107.759 82.2446 107.761 82.2181 107.769 82.193C107.777 82.1678 107.789 82.1443 107.806 82.124C107.932 81.97 108.054 81.816 108.172 81.66C108.205 81.6204 108.252 81.5951 108.303 81.5893C108.354 81.5835 108.406 81.5977 108.447 81.6289C108.488 81.6601 108.515 81.7059 108.523 81.7568C108.531 81.8076 108.519 81.8597 108.49 81.902C108.37 82.062 108.244 82.22 108.116 82.378C108.097 82.4009 108.074 82.4195 108.047 82.4323C108.021 82.4451 107.992 82.4518 107.962 82.452ZM108.906 81.166C108.87 81.1659 108.835 81.1562 108.804 81.1379C108.773 81.1195 108.748 81.0933 108.731 81.0618C108.714 81.0303 108.705 80.9947 108.706 80.9589C108.708 80.923 108.719 80.8882 108.738 80.858C108.846 80.694 108.95 80.526 109.05 80.358C109.062 80.3325 109.078 80.3097 109.099 80.2911C109.12 80.2724 109.145 80.2584 109.171 80.2499C109.198 80.2413 109.226 80.2385 109.254 80.2415C109.282 80.2446 109.309 80.2534 109.333 80.2675C109.357 80.2815 109.378 80.3005 109.394 80.3232C109.411 80.3459 109.422 80.3717 109.428 80.3991C109.434 80.4265 109.434 80.4548 109.428 80.4822C109.422 80.5095 109.41 80.5354 109.394 80.558C109.292 80.732 109.184 80.906 109.074 81.074C109.056 81.1022 109.031 81.1253 109.002 81.1414C108.972 81.1575 108.939 81.1659 108.906 81.166ZM109.692 79.78C109.662 79.7791 109.633 79.7723 109.606 79.76C109.582 79.7486 109.561 79.7327 109.543 79.7131C109.526 79.6934 109.512 79.6705 109.503 79.6456C109.494 79.6207 109.491 79.5943 109.492 79.5679C109.494 79.5415 109.5 79.5157 109.512 79.492C109.598 79.314 109.678 79.134 109.752 78.956C109.762 78.9317 109.777 78.9096 109.796 78.8911C109.814 78.8725 109.836 78.8578 109.861 78.8477C109.885 78.8377 109.911 78.8326 109.937 78.8326C109.964 78.8327 109.99 78.8379 110.014 78.848C110.038 78.8581 110.06 78.8729 110.079 78.8915C110.098 78.9102 110.112 78.9323 110.122 78.9566C110.132 78.981 110.137 79.007 110.137 79.0333C110.137 79.0596 110.132 79.0857 110.122 79.11C110.046 79.294 109.962 79.48 109.872 79.666C109.856 79.7 109.83 79.7288 109.798 79.749C109.767 79.7691 109.73 79.7799 109.692 79.78ZM110.272 78.296C110.253 78.2988 110.233 78.2988 110.214 78.296C110.164 78.2803 110.122 78.2455 110.097 78.1991C110.072 78.1527 110.067 78.0984 110.082 78.048C110.138 77.86 110.19 77.67 110.234 77.482C110.246 77.4303 110.278 77.3855 110.324 77.3576C110.369 77.3296 110.423 77.3208 110.475 77.333C110.527 77.3452 110.572 77.3774 110.599 77.4226C110.627 77.4678 110.636 77.5223 110.624 77.574C110.578 77.774 110.524 77.974 110.464 78.174C110.448 78.2114 110.421 78.2432 110.387 78.2649C110.353 78.2867 110.313 78.2976 110.272 78.296Z" fill="#E0E0E0"/>
  <path d="M110.6 76.7361H110.574C110.522 76.7291 110.474 76.7017 110.442 76.6597C110.41 76.6177 110.395 76.5646 110.402 76.5121C110.414 76.4161 110.424 76.3121 110.432 76.2221C110.437 76.1691 110.462 76.1201 110.503 76.086C110.544 76.0518 110.597 76.0353 110.65 76.0401C110.703 76.0449 110.752 76.0705 110.786 76.1114C110.82 76.1523 110.837 76.2051 110.832 76.2581C110.822 76.3601 110.81 76.4581 110.798 76.5621C110.792 76.6102 110.768 76.6543 110.732 76.6863C110.695 76.7184 110.649 76.736 110.6 76.7361Z" fill="#E0E0E0"/>
  <defs>
  <linearGradient id="paint0_linear_0_1" x1="63" y1="0" x2="63" y2="125" gradientUnits="userSpaceOnUse">
  <stop stop-color="#88FFAD" stop-opacity="0.19"/>
  <stop offset="1" stop-color="#33CC7A"/>
  </linearGradient>
  </defs>
  </svg>
  