<svg width="128" height="133" viewBox="0 0 128 133" fill="none" xmlns="http://www.w3.org/2000/svg">
<path fill-rule="evenodd" clip-rule="evenodd" d="M114.198 71.5714C113.302 71.8214 112.042 71.9464 110.418 71.9464C108.766 71.9742 106.918 71.9603 104.874 71.9048C102.83 71.8492 100.786 71.8214 98.7421 71.8214C96.67 71.8492 94.794 72.002 93.1139 72.2798C91.4339 72.5298 90.0898 72.9743 89.0818 73.6132C88.0458 74.2521 87.3037 75.0715 86.8557 76.0716C86.3797 77.0438 86.1137 78.1966 86.0577 79.53C86.0017 80.8356 86.0577 82.2801 86.2257 83.8634C86.3937 85.4468 86.5757 87.1552 86.7717 88.9886C86.9957 90.822 87.1497 92.7387 87.2337 94.7387C87.3457 96.7388 87.3737 98.7666 87.3177 100.822C87.2617 102.878 87.1217 104.906 86.8977 106.906C86.6457 108.906 86.2817 110.809 85.8057 112.614C85.3577 114.392 84.7837 116.031 84.0836 117.531C83.3556 119.003 82.5156 120.253 81.5636 121.281C80.5836 122.337 79.5055 123.156 78.3295 123.74C77.1535 124.351 75.9214 124.74 74.6334 124.906C73.3454 125.073 72.0433 125.017 70.7273 124.74C69.3832 124.462 68.0672 123.976 66.7792 123.281C65.4911 122.615 64.2591 121.726 63.0831 120.614C61.907 119.531 60.801 118.253 59.765 116.781C58.7569 115.309 57.8609 113.684 57.0769 111.906C56.2929 110.1 55.6349 108.17 55.1028 106.114C54.5988 104.031 54.2488 101.836 54.0528 99.5305C53.8568 97.2527 53.8148 94.8776 53.9268 92.4053C54.0668 89.9608 54.2488 87.558 54.4728 85.1968C54.6968 82.8079 54.8368 80.6133 54.8928 78.6133C54.9488 76.5855 54.7808 74.8632 54.3888 73.4465C53.9968 72.0298 53.2548 71.0714 52.1628 70.5714C51.0427 70.0436 49.4887 70.0297 47.5006 70.5297C45.5126 71.0575 43.1885 71.9603 40.5284 73.2381C37.8964 74.4882 35.0963 75.9188 32.1282 77.5299C29.1601 79.1411 26.192 80.7245 23.2239 82.2801C20.2559 83.8357 17.4698 85.169 14.8657 86.2802C12.2616 87.3635 9.97958 88.0719 8.01952 88.4052C6.05947 88.7386 4.46342 88.7247 3.23139 88.3636C1.99935 88.0024 1.18733 87.3774 0.795321 86.4885C0.375309 85.5996 0.40331 84.5301 0.879323 83.2801C1.35534 82.0301 2.29336 80.6967 3.6934 79.28C5.12144 77.8355 6.99749 76.3771 9.32156 74.9049C11.6456 73.4326 14.2077 71.9603 17.0078 70.4881C19.8079 69.0158 22.5939 67.5435 25.366 66.0713C28.1101 64.599 30.5882 63.1406 32.8002 61.6962C35.0123 60.2795 36.6643 58.8627 37.7564 57.446C38.8764 56.0293 39.2824 54.6543 38.9744 53.3209C38.6384 51.9598 37.7704 50.6403 36.3703 49.3625C34.9703 48.0847 33.2902 46.8624 31.3302 45.6957C29.3701 44.5012 27.4101 43.3762 25.45 42.3206C23.49 41.265 21.7819 40.2789 20.3259 39.3622C18.8698 38.4733 17.8758 37.6538 17.3438 36.9038C16.8118 36.1816 16.7138 35.5565 17.0498 35.0288C17.3858 34.501 18.0578 34.1121 19.0658 33.8621C20.0739 33.5843 21.3199 33.4454 22.8039 33.4454C24.288 33.4732 25.926 33.6537 27.7181 33.9871C29.4821 34.3204 31.3162 34.8204 33.2202 35.4871C35.1243 36.1816 37.0143 36.9455 38.8904 37.7788C40.7664 38.64 42.5865 39.5011 44.3505 40.3622C46.0866 41.2234 47.7106 42.0012 49.2227 42.6956C50.7067 43.3623 52.0228 43.8623 53.1708 44.1957C54.2908 44.529 55.1868 44.6124 55.8589 44.4457C56.5309 44.2512 57.0349 43.8068 57.3709 43.1123C57.6789 42.4178 57.8889 41.4734 58.0009 40.2789C58.0849 39.0566 58.1269 37.5983 58.1269 35.9038C58.0989 34.2093 58.0989 32.2648 58.1269 30.0703C58.1549 27.9036 58.2389 25.5285 58.3789 22.9451C58.5469 20.3617 58.7569 17.7505 59.009 15.1115C59.289 12.5003 59.583 10.0836 59.891 7.86133C60.227 5.61127 60.577 3.77788 60.941 2.36118C61.277 0.972249 61.599 0.19445 61.907 0.0277785C62.215 -0.138893 62.495 0.444457 62.7471 1.77783C63.0271 3.1112 63.2791 5.00014 63.5031 7.44465C63.7271 9.88916 63.9791 12.5837 64.2591 15.5282C64.5111 18.5005 64.8191 21.4173 65.1831 24.2785C65.5191 27.1674 65.9391 29.7369 66.4432 31.987C66.9472 34.2093 67.5492 35.8899 68.2492 37.0288C68.9492 38.1955 69.7613 38.8622 70.6853 39.0289C71.6093 39.1955 72.6453 39.015 73.7934 38.4872C74.9414 37.9316 76.2154 37.1538 77.6155 36.1538C79.0155 35.1538 80.5555 34.0704 82.2356 32.9037C83.8876 31.7092 85.6797 30.5286 87.6117 29.3619C89.5438 28.223 91.5459 27.1396 93.6179 26.1118C95.718 25.084 97.846 24.1673 100.002 23.3618C102.158 22.5562 104.272 21.8895 106.344 21.3617C108.444 20.8339 110.446 20.5006 112.35 20.3617C114.283 20.195 116.061 20.2367 117.685 20.4867C119.337 20.7367 120.779 21.1673 122.011 21.7784C123.271 22.3895 124.279 23.1395 125.035 24.0284C125.791 24.9451 126.253 25.9591 126.421 27.0702C126.617 28.2091 126.449 29.4175 125.917 30.6953C125.413 31.9731 124.559 33.2926 123.355 34.6537C122.123 36.0427 120.695 37.4455 119.071 38.8622C117.447 40.3067 115.795 41.7651 114.114 43.2373C112.434 44.7096 110.922 46.1957 109.578 47.6958C108.234 49.1958 107.24 50.6959 106.596 52.1959C105.952 53.6682 105.784 55.1404 106.092 56.6127C106.372 58.0849 106.974 59.5017 107.898 60.8628C108.822 62.224 109.83 63.5018 110.922 64.6962C112.042 65.8907 113.022 66.9602 113.862 67.9047C114.703 68.8491 115.179 69.6269 115.291 70.2381C115.431 70.8492 115.067 71.2936 114.198 71.5714Z" fill="url(#paint0_linear_1128_6840)"/>
<path d="M112.9 72.93L110.622 70.652H99.652V61.636H114.962V70.636H112.9V72.93ZM99.852 70.452H110.7L112.7 72.452V70.452H114.762V61.836H99.852V70.452Z" fill="#EBEBEB"/>
<path d="M104.45 66.144C104.45 66.2856 104.408 66.424 104.329 66.5418C104.251 66.6595 104.139 66.7513 104.008 66.8055C103.877 66.8597 103.733 66.8738 103.594 66.8462C103.455 66.8186 103.328 66.7504 103.228 66.6503C103.128 66.5501 103.059 66.4226 103.032 66.2837C103.004 66.1448 103.018 66.0008 103.072 65.87C103.127 65.7391 103.218 65.6273 103.336 65.5486C103.454 65.47 103.592 65.428 103.734 65.428C103.924 65.428 104.106 65.5034 104.24 65.6377C104.375 65.772 104.45 65.9541 104.45 66.144Z" fill="#EBEBEB"/>
<path d="M108.024 66.144C108.024 66.2856 107.982 66.424 107.903 66.5418C107.825 66.6595 107.713 66.7513 107.582 66.8055C107.451 66.8597 107.307 66.8738 107.168 66.8462C107.029 66.8186 106.902 66.7504 106.802 66.6503C106.701 66.5501 106.633 66.4226 106.606 66.2837C106.578 66.1448 106.592 66.0008 106.646 65.87C106.701 65.7391 106.792 65.6273 106.91 65.5486C107.028 65.47 107.166 65.428 107.308 65.428C107.498 65.4285 107.679 65.5041 107.814 65.6383C107.948 65.7724 108.023 65.9542 108.024 66.144Z" fill="#EBEBEB"/>
<path d="M111.596 66.144C111.596 66.2856 111.554 66.424 111.475 66.5418C111.397 66.6595 111.285 66.7513 111.154 66.8055C111.023 66.8597 110.879 66.8738 110.74 66.8462C110.601 66.8186 110.474 66.7504 110.374 66.6503C110.274 66.5501 110.205 66.4226 110.178 66.2837C110.15 66.1448 110.164 66.0008 110.218 65.87C110.273 65.7391 110.364 65.6273 110.482 65.5486C110.6 65.47 110.738 65.428 110.88 65.428C111.07 65.428 111.252 65.5034 111.386 65.6377C111.521 65.772 111.596 65.9541 111.596 66.144Z" fill="#EBEBEB"/>
<path d="M42.1 85.6481V83.3681H40.038V74.3521H55.348V83.3681H44.378L42.1 85.6481ZM40.238 83.1641H42.3V85.1641L44.3 83.1641H55.152V74.5521H40.238V83.1641Z" fill="#EBEBEB"/>
<path d="M50.5499 78.86C50.5499 79.0017 50.5919 79.1401 50.6706 79.2578C50.7493 79.3756 50.8611 79.4673 50.9919 79.5215C51.1228 79.5757 51.2667 79.5899 51.4056 79.5623C51.5445 79.5347 51.6721 79.4665 51.7722 79.3663C51.8723 79.2662 51.9405 79.1386 51.9682 78.9997C51.9958 78.8608 51.9816 78.7169 51.9274 78.586C51.8732 78.4552 51.7815 78.3434 51.6637 78.2647C51.546 78.186 51.4075 78.144 51.2659 78.144C51.076 78.144 50.8939 78.2195 50.7596 78.3538C50.6254 78.488 50.5499 78.6701 50.5499 78.86Z" fill="#EBEBEB"/>
<path d="M46.976 78.86C46.976 79.0017 47.0179 79.1401 47.0966 79.2578C47.1753 79.3756 47.2871 79.4673 47.418 79.5215C47.5488 79.5757 47.6927 79.5899 47.8316 79.5623C47.9705 79.5347 48.0981 79.4665 48.1982 79.3663C48.2984 79.2662 48.3666 79.1386 48.3942 78.9997C48.4218 78.8608 48.4076 78.7169 48.3535 78.586C48.2993 78.4552 48.2075 78.3434 48.0897 78.2647C47.972 78.186 47.8336 78.144 47.692 78.144C47.5021 78.144 47.3199 78.2195 47.1857 78.3538C47.0514 78.488 46.976 78.6701 46.976 78.86Z" fill="#EBEBEB"/>
<path d="M43.4039 78.86C43.4039 79.0017 43.4459 79.1401 43.5246 79.2578C43.6033 79.3756 43.7151 79.4673 43.8459 79.5215C43.9768 79.5757 44.1207 79.5899 44.2596 79.5623C44.3985 79.5347 44.5261 79.4665 44.6262 79.3663C44.7264 79.2662 44.7945 79.1386 44.8222 78.9997C44.8498 78.8608 44.8356 78.7169 44.7814 78.586C44.7272 78.4552 44.6355 78.3434 44.5177 78.2647C44.4 78.186 44.2615 78.144 44.1199 78.144C43.93 78.144 43.7479 78.2195 43.6136 78.3538C43.4794 78.488 43.4039 78.6701 43.4039 78.86Z" fill="#EBEBEB"/>
<path d="M94.45 45.2241H60.546C59.628 45.2331 58.751 45.6061 58.1079 46.2613C57.4647 46.9164 57.108 47.8001 57.116 48.7181V118.518C57.1117 119.434 57.47 120.314 58.1127 120.967C58.7554 121.619 59.6302 121.991 60.546 122H94.45C95.3684 121.991 96.2457 121.618 96.8895 120.963C97.5332 120.308 97.8909 119.425 97.884 118.506V48.7061C97.8882 47.7896 97.5293 46.9088 96.8858 46.2562C96.2422 45.6037 95.3664 45.2326 94.45 45.2241ZM95.74 116.354C95.74 118.192 94.364 119.678 92.666 119.678H62.336C60.634 119.678 59.258 118.192 59.258 116.354V51.3641C59.258 47.6221 60.634 47.4381 62.336 47.4381H68.41C68.762 47.4381 69.052 47.8381 69.052 48.3381V48.5521C69.052 49.7181 69.69 49.7221 70.474 49.7221H84.524C85.314 49.7221 85.946 49.7221 85.946 48.5521V48.3381C85.946 47.8401 86.232 47.4381 86.59 47.4381H92.666C94.364 47.4381 95.74 47.9361 95.74 51.3641V116.354Z" fill="#37474F"/>
<path d="M79.4159 48.266H75.5819C75.551 48.266 75.5203 48.2599 75.4916 48.2481C75.463 48.2362 75.437 48.2188 75.4151 48.1969C75.3932 48.175 75.3758 48.149 75.3639 48.1204C75.3521 48.0917 75.3459 48.061 75.3459 48.03C75.3475 47.9685 75.3731 47.91 75.4172 47.867C75.4612 47.8241 75.5204 47.8 75.5819 47.8H79.4159C79.4471 47.8 79.478 47.8062 79.5067 47.8182C79.5355 47.8302 79.5616 47.8478 79.5835 47.8699C79.6055 47.892 79.6228 47.9183 79.6346 47.9471C79.6463 47.976 79.6522 48.0069 79.652 48.038C79.6499 48.0992 79.6241 48.1572 79.5801 48.1998C79.536 48.2423 79.4772 48.2661 79.4159 48.266Z" fill="#263238"/>
<path d="M95.74 51.3642V116.364C95.74 118.202 94.364 119.688 92.668 119.688H62.336C60.636 119.688 59.26 118.202 59.26 116.364V51.3642C59.26 47.6222 60.636 47.4382 62.336 47.4382H68.41C68.764 47.4382 69.052 47.8382 69.052 48.3382V48.5522C69.052 49.7182 69.69 49.7222 70.474 49.7222H84.524C85.314 49.7222 85.946 49.7222 85.946 48.5522V48.3382C85.946 47.8402 86.232 47.4382 86.59 47.4382H92.668C94.364 47.4382 95.74 47.9362 95.74 51.3642Z" fill="white"/>
<path d="M95.74 51.3642V57.8542H59.26V51.3642C59.26 47.6222 60.636 47.4382 62.336 47.4382H68.41C68.764 47.4382 69.052 47.8382 69.052 48.3382V48.5522C69.052 49.7162 69.69 49.7202 70.474 49.7202H84.526C85.316 49.7202 85.948 49.7202 85.948 48.5522V48.3382C85.948 47.8402 86.232 47.4382 86.592 47.4382H92.668C94.364 47.4382 95.74 47.9362 95.74 51.3642Z" fill="#3DAA5F"/>
<path d="M62.952 55.7021L61.874 54.6921L62.952 53.6841L63.118 53.8621L62.232 54.6921L63.118 55.5241L62.952 55.7021Z" fill="white"/>
<path d="M92.914 54.0641C92.914 54.106 92.9016 54.147 92.8783 54.1818C92.855 54.2167 92.8219 54.2439 92.7831 54.2599C92.7444 54.276 92.7018 54.2802 92.6606 54.272C92.6195 54.2638 92.5817 54.2436 92.5521 54.214C92.5224 54.1843 92.5022 54.1465 92.4941 54.1054C92.4859 54.0643 92.4901 54.0217 92.5061 53.9829C92.5222 53.9442 92.5493 53.9111 92.5842 53.8878C92.6191 53.8645 92.6601 53.8521 92.702 53.8521C92.7582 53.8521 92.8121 53.8744 92.8519 53.9141C92.8917 53.9539 92.914 54.0078 92.914 54.0641Z" fill="white"/>
<path d="M92.914 54.8181C92.9128 54.8597 92.8995 54.9 92.8756 54.934C92.8516 54.9681 92.8183 54.9943 92.7795 55.0095C92.7408 55.0247 92.6985 55.0281 92.6578 55.0195C92.6172 55.0108 92.58 54.9903 92.5508 54.9606C92.5217 54.931 92.5019 54.8934 92.494 54.8526C92.4861 54.8117 92.4903 54.7695 92.5062 54.7311C92.5221 54.6926 92.549 54.6597 92.5834 54.6365C92.6179 54.6132 92.6584 54.6005 92.7 54.6001C92.7286 54.5996 92.757 54.6049 92.7835 54.6157C92.81 54.6265 92.834 54.6426 92.854 54.663C92.8741 54.6834 92.8897 54.7077 92.9001 54.7344C92.9104 54.7611 92.9151 54.7896 92.914 54.8181Z" fill="white"/>
<path d="M92.914 55.5721C92.914 55.614 92.9016 55.6549 92.8784 55.6897C92.8552 55.7245 92.8222 55.7517 92.7836 55.7678C92.745 55.7839 92.7024 55.7882 92.6614 55.7802C92.6203 55.7722 92.5825 55.7522 92.5528 55.7227C92.5231 55.6933 92.5027 55.6557 92.4943 55.6147C92.4859 55.5737 92.4898 55.5312 92.5056 55.4924C92.5213 55.4536 92.5482 55.4204 92.5828 55.3968C92.6174 55.3733 92.6582 55.3605 92.7 55.3601C92.7281 55.3596 92.756 55.3647 92.7821 55.3751C92.8081 55.3856 92.8318 55.4012 92.8518 55.4209C92.8717 55.4407 92.8875 55.4643 92.8982 55.4902C92.9089 55.5162 92.9143 55.5441 92.914 55.5721Z" fill="white"/>
<path d="M67.362 48.8981L67.304 48.9561C67.292 48.9681 67.282 48.9801 67.27 48.9901C67.1957 48.9157 67.1074 48.8567 67.0103 48.8164C66.9132 48.7762 66.8091 48.7555 66.704 48.7555C66.5988 48.7555 66.4947 48.7762 66.3976 48.8164C66.3005 48.8567 66.2123 48.9157 66.138 48.9901C66.1284 48.9778 66.1176 48.9664 66.106 48.9561C66.088 48.9361 66.068 48.9181 66.048 48.8981L66.122 48.8321C66.1744 48.7883 66.2322 48.7514 66.294 48.7221C66.3657 48.687 66.4416 48.6614 66.52 48.6461L66.634 48.6321H66.734H66.812C66.8806 48.6395 66.9479 48.6563 67.012 48.6821C67.0614 48.6991 67.109 48.7213 67.154 48.7481C67.2019 48.7746 67.2468 48.8061 67.288 48.8421L67.35 48.8981H67.362Z" fill="white"/>
<path d="M66.3239 49.1741L66.2319 49.0821C66.3578 48.9574 66.5278 48.8875 66.7049 48.8875C66.8821 48.8875 67.0521 48.9574 67.1779 49.0821L67.0839 49.1741C66.9828 49.074 66.8463 49.0178 66.7039 49.0178C66.5616 49.0178 66.425 49.074 66.3239 49.1741Z" fill="white"/>
<path d="M66.992 49.2681L66.898 49.3601C66.872 49.3336 66.8408 49.3129 66.8064 49.2991C66.772 49.2853 66.7351 49.2788 66.698 49.2801C66.661 49.279 66.6241 49.2855 66.5897 49.2993C66.5553 49.313 66.5241 49.3337 66.498 49.3601L66.406 49.2681C66.4434 49.2278 66.4888 49.1957 66.5392 49.1737C66.5896 49.1517 66.644 49.1404 66.699 49.1404C66.754 49.1404 66.8084 49.1517 66.8588 49.1737C66.9092 49.1957 66.9546 49.2278 66.992 49.2681Z" fill="white"/>
<path d="M66.788 49.4441C66.788 49.455 66.7858 49.4659 66.7815 49.476C66.7773 49.486 66.7711 49.4952 66.7633 49.5028C66.7554 49.5104 66.7461 49.5164 66.736 49.5204C66.7258 49.5244 66.7149 49.5264 66.704 49.5261C66.6822 49.5261 66.6614 49.5175 66.646 49.5021C66.6306 49.4867 66.622 49.4659 66.622 49.4441C66.6217 49.4332 66.6236 49.4223 66.6276 49.4121C66.6316 49.4019 66.6376 49.3927 66.6453 49.3848C66.6529 49.377 66.662 49.3708 66.6721 49.3665C66.6822 49.3623 66.693 49.3601 66.704 49.3601C66.7263 49.3601 66.7476 49.369 66.7634 49.3847C66.7791 49.4005 66.788 49.4218 66.788 49.4441Z" fill="white"/>
<path d="M61.6379 49.0762C61.6379 49.0284 61.6521 48.9816 61.6787 48.9418C61.7053 48.902 61.7431 48.871 61.7873 48.8526C61.8315 48.8343 61.8802 48.8295 61.9272 48.8389C61.9741 48.8482 62.0172 48.8713 62.0511 48.9051C62.0849 48.939 62.108 48.9821 62.1173 49.029C62.1266 49.076 62.1218 49.1246 62.1035 49.1688C62.0852 49.2131 62.0542 49.2509 62.0144 49.2774C61.9746 49.304 61.9278 49.3182 61.8799 49.3182C61.8158 49.3182 61.7542 49.2927 61.7088 49.2473C61.6634 49.202 61.6379 49.1404 61.6379 49.0762Z" fill="white"/>
<path d="M62.4 49.0762C62.4 49.0284 62.4142 48.9816 62.4408 48.9418C62.4674 48.902 62.5052 48.871 62.5494 48.8526C62.5936 48.8343 62.6423 48.8295 62.6892 48.8389C62.7362 48.8482 62.7793 48.8713 62.8131 48.9051C62.847 48.939 62.87 48.9821 62.8794 49.029C62.8887 49.076 62.8839 49.1246 62.8656 49.1688C62.8473 49.2131 62.8163 49.2509 62.7765 49.2774C62.7367 49.304 62.6899 49.3182 62.642 49.3182C62.5778 49.3182 62.5163 49.2927 62.4709 49.2473C62.4255 49.202 62.4 49.1404 62.4 49.0762Z" fill="white"/>
<path d="M63.16 49.0762C63.16 49.0284 63.1742 48.9816 63.2008 48.9418C63.2274 48.902 63.2652 48.871 63.3094 48.8526C63.3536 48.8343 63.4023 48.8295 63.4492 48.8389C63.4962 48.8482 63.5393 48.8713 63.5732 48.9051C63.607 48.939 63.63 48.9821 63.6394 49.029C63.6487 49.076 63.6439 49.1246 63.6256 49.1688C63.6073 49.2131 63.5763 49.2509 63.5365 49.2774C63.4967 49.304 63.4499 49.3182 63.402 49.3182C63.3379 49.3182 63.2763 49.2927 63.2309 49.2473C63.1855 49.202 63.16 49.1404 63.16 49.0762Z" fill="white"/>
<path d="M63.922 49.0762C63.922 49.0284 63.9362 48.9816 63.9628 48.9418C63.9894 48.902 64.0272 48.871 64.0714 48.8526C64.1156 48.8343 64.1643 48.8295 64.2112 48.8389C64.2582 48.8482 64.3013 48.8713 64.3351 48.9051C64.369 48.939 64.392 48.9821 64.4013 49.029C64.4107 49.076 64.4059 49.1246 64.3876 49.1688C64.3693 49.2131 64.3382 49.2509 64.2984 49.2774C64.2586 49.304 64.2119 49.3182 64.164 49.3182C64.0998 49.3182 64.0383 49.2927 63.9929 49.2473C63.9475 49.202 63.922 49.1404 63.922 49.0762Z" fill="white"/>
<path d="M64.684 49.0762C64.684 49.0284 64.6982 48.9816 64.7247 48.9418C64.7513 48.902 64.7891 48.871 64.8333 48.8526C64.8776 48.8343 64.9262 48.8295 64.9732 48.8389C65.0201 48.8482 65.0632 48.8713 65.0971 48.9051C65.1309 48.939 65.154 48.9821 65.1633 49.029C65.1726 49.076 65.1679 49.1246 65.1495 49.1688C65.1312 49.2131 65.1002 49.2509 65.0604 49.2774C65.0206 49.304 64.9738 49.3182 64.926 49.3182C64.8618 49.3182 64.8002 49.2927 64.7548 49.2473C64.7095 49.202 64.684 49.1404 64.684 49.0762Z" fill="white"/>
<path d="M93.0039 49.6002H91.0339V48.6902H93.0039V49.6002ZM91.1359 49.4962H92.8999V48.8002H91.1359V49.4962Z" fill="white"/>
<path d="M92.466 48.8462H91.198V49.4482H92.466V48.8462Z" fill="white"/>
<path d="M93.18 48.9041H93.004V49.3921H93.18V48.9041Z" fill="white"/>
<path d="M63.9059 116.166H63.7279V116.986H63.3939V116.568H62.8039V116.986H62.4719V116.166H62.2939L63.0999 115.334L63.9059 116.166Z" fill="#EBEBEB"/>
<path d="M92.782 115.334H90.838V115.612H92.782V115.334Z" fill="#EBEBEB"/>
<path d="M92.782 116.02H90.838V116.298H92.782V116.02Z" fill="#EBEBEB"/>
<path d="M92.782 116.708H90.838V116.986H92.782V116.708Z" fill="#EBEBEB"/>
<path d="M78.108 116.188L77.556 116.778L77.004 116.188L77.1 116.096L77.556 116.582L78.012 116.096L78.108 116.188Z" fill="#EBEBEB"/>
<path d="M77.556 117.388C77.3583 117.388 77.1649 117.33 77.0005 117.22C76.836 117.11 76.7078 116.954 76.6322 116.771C76.5565 116.588 76.5367 116.387 76.5752 116.193C76.6138 115.999 76.7091 115.821 76.8489 115.681C76.9888 115.541 77.167 115.446 77.3609 115.407C77.5549 115.369 77.756 115.389 77.9387 115.464C78.1214 115.54 78.2776 115.668 78.3875 115.833C78.4974 115.997 78.556 116.19 78.556 116.388C78.556 116.653 78.4507 116.908 78.2631 117.095C78.0756 117.283 77.8212 117.388 77.556 117.388ZM77.556 115.512C77.3836 115.512 77.215 115.563 77.0716 115.659C76.9282 115.755 76.8164 115.891 76.7504 116.05C76.6844 116.21 76.6671 116.385 76.7008 116.554C76.7344 116.723 76.8175 116.879 76.9394 117.001C77.0614 117.123 77.2168 117.206 77.3859 117.239C77.5551 117.273 77.7304 117.256 77.8897 117.19C78.0491 117.124 78.1853 117.012 78.2811 116.869C78.3769 116.725 78.428 116.557 78.428 116.384C78.4275 116.153 78.3355 115.932 78.172 115.768C78.0086 115.605 77.7871 115.513 77.556 115.512Z" fill="#EBEBEB"/>
<path d="M73.984 54.226V55.27C73.9829 55.2958 73.9719 55.3203 73.9533 55.3382C73.9347 55.356 73.9098 55.366 73.884 55.366C73.8583 55.366 73.8337 55.356 73.8154 55.338C73.797 55.3201 73.7865 55.2957 73.786 55.27V54.524L73.532 54.878C73.5231 54.891 73.5112 54.9017 73.4972 54.909C73.4833 54.9163 73.4677 54.9201 73.452 54.92C73.4362 54.9199 73.4208 54.9161 73.4068 54.9088C73.3929 54.9015 73.381 54.8909 73.372 54.878L73.118 54.524V55.27C73.118 55.2965 73.1074 55.322 73.0887 55.3407C73.0699 55.3595 73.0445 55.37 73.018 55.37C72.9914 55.37 72.966 55.3595 72.9473 55.3407C72.9285 55.322 72.918 55.2965 72.918 55.27V54.226C72.918 54.2 72.9283 54.1751 72.9467 54.1567C72.9651 54.1383 72.99 54.128 73.016 54.128C73.0315 54.1277 73.0468 54.1314 73.0605 54.1388C73.0742 54.1461 73.0857 54.1569 73.094 54.17L73.446 54.658L73.798 54.17C73.8068 54.157 73.8188 54.1463 73.8327 54.139C73.8467 54.1317 73.8622 54.1279 73.878 54.128C73.8914 54.1275 73.9047 54.1296 73.9173 54.1342C73.9299 54.1389 73.9414 54.1459 73.9513 54.155C73.9611 54.1641 73.9691 54.1751 73.9747 54.1873C73.9803 54.1994 73.9835 54.2126 73.984 54.226Z" fill="white"/>
<path d="M74.324 55.2702V54.2262C74.3237 54.2133 74.326 54.2004 74.3309 54.1884C74.3357 54.1764 74.3429 54.1654 74.3521 54.1563C74.3612 54.1471 74.3721 54.1399 74.3841 54.1351C74.3962 54.1303 74.409 54.1279 74.422 54.1282H75C75.0265 54.1282 75.0519 54.1387 75.0707 54.1575C75.0894 54.1762 75.1 54.2017 75.1 54.2282C75.1 54.2547 75.0894 54.2802 75.0707 54.2989C75.0519 54.3177 75.0265 54.3282 75 54.3282H74.52V54.6522H74.932C74.9578 54.6527 74.9824 54.6632 75.0007 54.6815C75.019 54.6997 75.0294 54.7244 75.03 54.7502C75.03 54.7762 75.0196 54.8011 75.0013 54.8195C74.9829 54.8379 74.958 54.8482 74.932 54.8482H74.52V55.1742H75C75.0265 55.1742 75.0519 55.1847 75.0707 55.2035C75.0894 55.2222 75.1 55.2477 75.1 55.2742C75.1 55.3007 75.0894 55.3262 75.0707 55.3449C75.0519 55.3637 75.0265 55.3742 75 55.3742H74.426C74.4122 55.3751 74.3983 55.373 74.3854 55.3681C74.3725 55.3632 74.3608 55.3555 74.3511 55.3456C74.3414 55.3357 74.3339 55.3239 74.3293 55.3109C74.3246 55.2979 74.3228 55.284 74.324 55.2702Z" fill="white"/>
<path d="M75.3339 55.0581C75.3498 55.0396 75.3723 55.0281 75.3965 55.0258C75.4208 55.0236 75.4449 55.0308 75.4639 55.0461C75.5588 55.127 75.6775 55.1748 75.8019 55.1821C75.8801 55.1838 75.9569 55.1614 76.0219 55.1181C76.0431 55.1057 76.0612 55.0886 76.0747 55.0682C76.0882 55.0477 76.0969 55.0244 76.0999 55.0001C76.1011 54.9801 76.0955 54.9604 76.0839 54.9441C76.0711 54.9223 76.0533 54.9038 76.0319 54.8901C75.9572 54.8477 75.8751 54.8198 75.7899 54.8081C75.7112 54.7947 75.6346 54.7712 75.5619 54.7381C75.4949 54.7093 75.4378 54.6612 75.3979 54.6001C75.37 54.5573 75.3554 54.5072 75.3559 54.4561C75.3579 54.4047 75.3717 54.3545 75.3963 54.3094C75.421 54.2642 75.4558 54.2255 75.4979 54.1961C75.5879 54.1344 75.6949 54.1023 75.8039 54.1041C75.9438 54.1109 76.0783 54.1597 76.1899 54.2441C76.2096 54.2578 76.223 54.2787 76.2275 54.3022C76.232 54.3257 76.2271 54.3501 76.2139 54.3701C76.2077 54.3804 76.1993 54.3893 76.1895 54.3962C76.1796 54.4032 76.1684 54.408 76.1566 54.4104C76.1448 54.4129 76.1326 54.4129 76.1208 54.4104C76.109 54.4079 76.0978 54.4031 76.0879 54.3961C76.0069 54.3306 75.9078 54.2915 75.8039 54.2841C75.7326 54.282 75.6624 54.3031 75.6039 54.3441C75.5844 54.3559 75.5681 54.3723 75.5563 54.3918C75.5444 54.4113 75.5374 54.4333 75.5359 54.4561C75.5351 54.4732 75.54 54.4901 75.5499 54.5041C75.5621 54.5223 75.5777 54.5379 75.5959 54.5501C75.6642 54.5901 75.7396 54.6166 75.8179 54.6281C75.9017 54.6437 75.9836 54.6686 76.0619 54.7021C76.1335 54.7337 76.1945 54.785 76.2379 54.8501C76.2669 54.8947 76.2821 54.9469 76.2819 55.0001C76.2802 55.0548 76.2653 55.1082 76.2385 55.1559C76.2117 55.2036 76.1738 55.2442 76.1279 55.2741C76.0328 55.3415 75.9185 55.3765 75.8019 55.3741C75.6353 55.3674 75.4756 55.3055 75.3479 55.1981C75.3374 55.1901 75.3287 55.18 75.3222 55.1685C75.3157 55.157 75.3117 55.1443 75.3104 55.1311C75.3091 55.118 75.3105 55.1047 75.3146 55.0921C75.3186 55.0796 75.3252 55.068 75.3339 55.0581Z" fill="white"/>
<path d="M76.4999 55.0581C76.5155 55.0398 76.5376 55.0283 76.5615 55.026C76.5854 55.0238 76.6093 55.031 76.6279 55.0461C76.723 55.1267 76.8416 55.1744 76.9659 55.1821C77.0446 55.1831 77.1219 55.1608 77.1879 55.1181C77.2098 55.1043 77.2281 55.0855 77.2413 55.0632C77.2545 55.041 77.2623 55.0159 77.264 54.9901C77.2642 54.9703 77.2586 54.9508 77.2479 54.9341C77.2348 54.9118 77.2163 54.8932 77.1939 54.8801C77.1194 54.8374 77.0372 54.8095 76.9519 54.7981C76.8727 54.7844 76.7954 54.7609 76.7219 54.7281C76.6557 54.6979 76.599 54.6502 76.5579 54.5901C76.5315 54.5467 76.5177 54.4969 76.5179 54.4461C76.5199 54.3947 76.5337 54.3445 76.5583 54.2994C76.583 54.2543 76.6178 54.2155 76.6599 54.1861C76.7497 54.124 76.8568 54.0918 76.9659 54.0941C77.1052 54.1008 77.2391 54.1496 77.3499 54.2341C77.3699 54.2476 77.3838 54.2683 77.3886 54.2918C77.3935 54.3154 77.3889 54.3399 77.3759 54.3601C77.3697 54.3704 77.3613 54.3793 77.3515 54.3863C77.3416 54.3932 77.3304 54.398 77.3186 54.4005C77.3068 54.4029 77.2946 54.4029 77.2828 54.4004C77.271 54.398 77.2598 54.3931 77.2499 54.3861C77.1689 54.3207 77.0698 54.2816 76.9659 54.2741C76.8946 54.2726 76.8247 54.2936 76.7659 54.3341C76.7469 54.3463 76.7311 54.3628 76.7196 54.3822C76.7081 54.4017 76.7014 54.4236 76.6999 54.4461C76.6994 54.4629 76.7035 54.4795 76.7119 54.4941C76.7249 54.5123 76.7412 54.5279 76.7599 54.5401C76.8282 54.5802 76.9036 54.6067 76.9819 54.6181C77.0658 54.6335 77.1477 54.6583 77.2259 54.6921C77.298 54.7237 77.3597 54.775 77.4039 54.8401C77.4313 54.8854 77.4458 54.9372 77.4459 54.9901C77.4443 55.0446 77.4296 55.0979 77.4032 55.1455C77.3767 55.1932 77.3393 55.2339 77.2939 55.2641C77.1981 55.3315 77.0831 55.3666 76.9659 55.3641C76.7999 55.3574 76.6408 55.2955 76.514 55.1881C76.4952 55.1725 76.4833 55.1502 76.4806 55.1259C76.478 55.1017 76.485 55.0774 76.4999 55.0581Z" fill="white"/>
<path d="M78.322 55.0741H77.9L77.814 55.3041C77.8067 55.3225 77.794 55.3383 77.7776 55.3493C77.7612 55.3604 77.7418 55.3662 77.722 55.3661H77.688C77.6634 55.3567 77.6436 55.3379 77.6327 55.314C77.6218 55.29 77.6209 55.2628 77.63 55.2381L78.02 54.1961C78.0278 54.1777 78.0409 54.162 78.0576 54.1509C78.0744 54.1399 78.0939 54.134 78.114 54.1341C78.1341 54.1335 78.1539 54.1391 78.1708 54.1502C78.1876 54.1613 78.2006 54.1773 78.208 54.1961L78.608 55.2381C78.6164 55.263 78.6149 55.2903 78.6037 55.3142C78.5926 55.338 78.5726 55.3566 78.548 55.3661H78.516C78.4961 55.3665 78.4766 55.3608 78.4601 55.3497C78.4436 55.3386 78.431 55.3227 78.424 55.3041L78.322 55.0741ZM78.25 54.8741L78.106 54.4941L77.964 54.8741H78.25Z" fill="white"/>
<path d="M78.7219 54.732C78.7248 54.6109 78.7613 54.493 78.8274 54.3914C78.8934 54.2898 78.9864 54.2085 79.0959 54.1567C79.2054 54.1048 79.3271 54.0844 79.4476 54.0977C79.568 54.111 79.6824 54.1575 79.7779 54.232C79.7887 54.2399 79.7978 54.2499 79.8047 54.2614C79.8116 54.2728 79.8161 54.2856 79.8179 54.2988C79.8198 54.312 79.819 54.3255 79.8155 54.3384C79.8121 54.3514 79.8061 54.3635 79.7979 54.374C79.7807 54.3949 79.7561 54.4083 79.7292 54.4112C79.7023 54.4142 79.6753 54.4066 79.6539 54.39C79.5743 54.3283 79.4766 54.2946 79.3759 54.294C79.3168 54.2928 79.2581 54.3037 79.2034 54.3261C79.1488 54.3484 79.0992 54.3818 79.0579 54.424C79.0156 54.463 78.9819 54.5103 78.9588 54.563C78.9357 54.6156 78.9237 54.6725 78.9237 54.73C78.9237 54.7875 78.9357 54.8444 78.9588 54.8971C78.9819 54.9498 79.0156 54.9971 79.0579 55.036C79.0992 55.0783 79.1488 55.1116 79.2034 55.134C79.2581 55.1564 79.3168 55.1673 79.3759 55.166C79.4611 55.1646 79.5445 55.1412 79.6179 55.098V54.856H79.3639C79.3372 54.8555 79.3118 54.8445 79.2931 54.8255C79.2744 54.8064 79.2639 54.7807 79.2639 54.754C79.2639 54.741 79.2665 54.7281 79.2716 54.7161C79.2766 54.704 79.284 54.6932 79.2933 54.684C79.3026 54.6749 79.3137 54.6677 79.3258 54.6629C79.3379 54.6581 79.3509 54.6558 79.3639 54.656H79.7159C79.7292 54.6555 79.7425 54.6576 79.755 54.6623C79.7674 54.6669 79.7788 54.674 79.7885 54.6832C79.7982 54.6923 79.806 54.7033 79.8114 54.7154C79.8168 54.7276 79.8197 54.7407 79.8199 54.754V55.154C79.8211 55.164 79.8211 55.1741 79.8199 55.184C79.8143 55.2018 79.8021 55.2168 79.7859 55.226C79.6908 55.3006 79.5769 55.3472 79.4569 55.3608C79.3368 55.3743 79.2154 55.3543 79.1061 55.3028C78.9968 55.2514 78.9039 55.1706 78.8378 55.0695C78.7718 54.9683 78.7351 54.8508 78.7319 54.73L78.7219 54.732Z" fill="white"/>
<path d="M80.218 55.2702V54.2262C80.218 54.2002 80.2283 54.1753 80.2467 54.1569C80.2651 54.1385 80.29 54.1282 80.316 54.1282H80.9C80.9265 54.1282 80.952 54.1387 80.9707 54.1575C80.9895 54.1762 81 54.2017 81 54.2282C81 54.2547 80.9895 54.2801 80.9707 54.2989C80.952 54.3176 80.9265 54.3282 80.9 54.3282H80.422V54.6522H80.834C80.8595 54.6532 80.8836 54.6639 80.9015 54.6821C80.9193 54.7003 80.9295 54.7247 80.93 54.7502C80.93 54.7758 80.92 54.8005 80.902 54.8188C80.8841 54.8371 80.8597 54.8477 80.834 54.8482H80.422V55.1742H80.9C80.9265 55.1742 80.952 55.1847 80.9707 55.2035C80.9895 55.2222 81 55.2477 81 55.2742C81 55.3007 80.9895 55.3261 80.9707 55.3449C80.952 55.3636 80.9265 55.3742 80.9 55.3742H80.328C80.3137 55.376 80.2991 55.3746 80.2853 55.3701C80.2716 55.3656 80.259 55.3581 80.2484 55.3482C80.2379 55.3382 80.2297 55.3261 80.2245 55.3126C80.2192 55.2991 80.217 55.2846 80.218 55.2702Z" fill="white"/>
<path d="M81.23 55.0581C81.2455 55.0398 81.2676 55.0282 81.2916 55.026C81.3155 55.0238 81.3393 55.031 81.358 55.0461C81.4528 55.127 81.5715 55.1748 81.696 55.1821C81.7747 55.183 81.8519 55.1608 81.918 55.1181C81.9399 55.1042 81.9582 55.0854 81.9714 55.0632C81.9846 55.0409 81.9923 55.0159 81.994 54.9901C81.9942 54.9702 81.9887 54.9508 81.978 54.9341C81.9636 54.9128 81.9453 54.8944 81.924 54.8801C81.8494 54.8373 81.7672 54.8095 81.682 54.7981C81.6034 54.7841 81.5269 54.7606 81.454 54.7281C81.3873 54.6987 81.3304 54.6508 81.29 54.5901C81.2636 54.5467 81.2497 54.4968 81.25 54.4461C81.252 54.3949 81.2656 54.3449 81.2899 54.2999C81.3142 54.2548 81.3484 54.2159 81.39 54.1861C81.48 54.1244 81.5869 54.0923 81.696 54.0941C81.8358 54.1009 81.9703 54.1496 82.082 54.2341C82.1019 54.2475 82.1158 54.2682 82.1207 54.2918C82.1255 54.3153 82.121 54.3398 82.108 54.3601C82.1017 54.3704 82.0934 54.3793 82.0835 54.3862C82.0737 54.3932 82.0625 54.398 82.0506 54.4004C82.0388 54.4029 82.0266 54.4029 82.0148 54.4004C82.003 54.3979 81.9918 54.393 81.982 54.3861C81.9002 54.3206 81.8005 54.2815 81.696 54.2741C81.6247 54.2725 81.5547 54.2935 81.496 54.3341C81.4766 54.3459 81.4605 54.3623 81.449 54.3818C81.4375 54.4013 81.431 54.4234 81.43 54.4461C81.4285 54.463 81.4328 54.4799 81.442 54.4941C81.4544 54.5128 81.4708 54.5285 81.49 54.5401C81.5577 54.5798 81.6324 54.6063 81.71 54.6181C81.7939 54.6334 81.8757 54.6583 81.954 54.6921C82.0257 54.7242 82.0873 54.7754 82.132 54.8401C82.1593 54.8853 82.1738 54.9372 82.174 54.9901C82.1723 55.0445 82.1577 55.0978 82.1312 55.1455C82.1048 55.1932 82.0673 55.2338 82.022 55.2641C81.926 55.3312 81.8112 55.3663 81.694 55.3641C81.5279 55.3574 81.3689 55.2954 81.242 55.1881C81.2235 55.1722 81.212 55.1497 81.2097 55.1255C81.2075 55.1012 81.2148 55.0771 81.23 55.0581Z" fill="white"/>
<path d="M118.454 106.234C116.3 109.154 114.052 112.54 113.5 116.2C113.5 116.254 113.582 116.272 113.594 116.218C113.843 115.219 114.162 114.24 114.548 113.286C115.966 112.896 117.348 112.576 118.1 111.17C118.86 109.724 118.762 107.84 118.618 106.264C118.612 106.182 118.5 106.178 118.454 106.234Z" fill="#3DAA5F"/>
<path d="M114.574 113.262C115.542 111.088 116.784 108.906 118.364 107.12C118.376 107.108 118.392 107.12 118.382 107.138C117.348 108.41 116.562 109.796 115.794 111.206C116.508 110.482 117.29 109.832 117.966 109.064C117.978 109.05 118 109.064 117.988 109.086C117.316 109.886 116.588 110.766 115.708 111.362C115.473 111.796 115.237 112.23 114.998 112.664C115.056 112.63 115.118 112.602 115.178 112.572V112.588C115.112 112.622 115.046 112.656 114.978 112.686C114.864 112.886 114.752 113.096 114.634 113.302C114.616 113.348 114.552 113.308 114.574 113.262Z" fill="#263238"/>
<path d="M115.3 112.504C115.879 112.179 116.432 111.809 116.954 111.398C116.968 111.388 116.988 111.408 116.974 111.42C116.469 111.856 115.915 112.234 115.324 112.544C115.3 112.558 115.268 112.518 115.3 112.504Z" fill="#263238"/>
<path d="M113.254 115.658C113.254 115.702 113.334 115.7 113.334 115.658C113.344 114.458 113.334 113.242 113.352 112.03C113.662 111.406 114.324 111.062 114.786 110.562C115.118 110.197 115.405 109.794 115.644 109.362C116.2 108.333 116.54 107.201 116.644 106.036C116.772 104.746 116.282 100.492 115.738 100.636C115.456 100.714 114.538 102.822 114.302 103.518C113.91 104.667 113.623 105.849 113.444 107.05C113.002 109.89 113.038 112.8 113.254 115.658Z" fill="#3DAA5F"/>
<path d="M113.246 110.456C113.312 108.93 113.656 107.39 113.976 105.91C114.324 104.31 114.728 102.816 115.548 101.394C115.564 101.368 115.602 101.394 115.59 101.418C115.042 102.524 114.618 103.687 114.326 104.886C114.382 104.8 114.448 104.718 114.506 104.636C114.528 104.604 114.58 104.636 114.558 104.668C114.485 104.797 114.399 104.918 114.302 105.03H114.292C114.01 106.17 113.806 107.334 113.632 108.498C113.646 108.482 113.658 108.466 113.672 108.452C113.686 108.438 113.696 108.452 113.69 108.466L113.62 108.582C113.532 109.172 113.452 109.76 113.37 110.344C114.42 109.446 115.318 108.388 115.824 107.084C115.824 107.084 115.836 107.084 115.834 107.084C115.338 108.436 114.556 109.64 113.354 110.46L113.288 110.93C113.288 110.964 113.23 110.954 113.232 110.93C113.232 110.79 113.232 110.65 113.244 110.512C113.24 110.509 113.236 110.504 113.234 110.499C113.231 110.494 113.23 110.489 113.23 110.483C113.23 110.478 113.232 110.472 113.235 110.468C113.237 110.463 113.241 110.459 113.246 110.456Z" fill="#263238"/>
<path d="M113.74 108.246C114.561 107.083 115.277 105.85 115.88 104.56C115.882 104.556 115.885 104.554 115.888 104.552C115.892 104.551 115.896 104.551 115.899 104.553C115.902 104.554 115.905 104.557 115.906 104.561C115.908 104.564 115.908 104.568 115.906 104.572C115.426 105.925 114.706 107.18 113.78 108.278C113.762 108.3 113.724 108.27 113.74 108.246Z" fill="#263238"/>
<path d="M114.808 104.264C115.14 103.676 115.49 103.104 115.808 102.504C115.808 102.488 115.84 102.504 115.832 102.518C115.576 103.144 115.251 103.74 114.862 104.294C114.858 104.301 114.851 104.306 114.843 104.309C114.836 104.311 114.827 104.31 114.82 104.306C114.813 104.302 114.808 104.295 114.805 104.287C114.803 104.28 114.804 104.271 114.808 104.264Z" fill="#263238"/>
<path d="M114.678 104.52V104.532C114.678 104.532 114.672 104.52 114.678 104.52Z" fill="#263238"/>
<path d="M112.438 112.17C112.422 112.969 112.328 113.765 112.156 114.546C112.17 114.632 112.182 114.718 112.194 114.806C112.44 113.943 112.583 113.054 112.62 112.158C112.627 112.145 112.631 112.131 112.631 112.117C112.631 112.103 112.627 112.088 112.62 112.076C112.655 110.875 112.566 109.673 112.354 108.49C111.982 106.274 111.166 104.148 109.62 102.49C109.607 102.479 109.592 102.471 109.576 102.467C109.56 102.463 109.543 102.463 109.526 102.466C109.51 102.47 109.494 102.477 109.481 102.487C109.468 102.498 109.457 102.511 109.45 102.526C108.826 104.112 109.05 106.004 109.574 107.584C109.864 108.439 110.277 109.248 110.8 109.984C111.332 110.726 112.008 111.358 112.438 112.17Z" fill="#3DAA5F"/>
<path d="M109.806 103.226C111.27 105.604 112.288 108.426 112.406 111.226C112.406 111.276 112.326 111.29 112.318 111.238C112.285 110.986 112.247 110.736 112.204 110.488C111.604 109.908 110.976 109.288 110.542 108.57C110.542 108.558 110.554 108.544 110.564 108.554C111.066 109.172 111.605 109.759 112.178 110.312C112.072 109.69 111.948 109.08 111.802 108.478L111.686 108.342C111.66 108.312 111.702 108.268 111.728 108.298L111.764 108.338C111.558 107.512 111.302 106.7 110.998 105.906C110.626 105.462 110.21 105.078 109.938 104.542C109.937 104.541 109.937 104.539 109.936 104.538C109.936 104.536 109.936 104.535 109.936 104.534C109.937 104.532 109.937 104.531 109.938 104.53C109.939 104.529 109.94 104.528 109.941 104.527C109.942 104.526 109.944 104.525 109.945 104.525C109.946 104.525 109.948 104.525 109.949 104.525C109.951 104.525 109.952 104.526 109.953 104.527C109.954 104.528 109.955 104.529 109.956 104.53C110.176 104.836 110.386 105.146 110.634 105.43C110.732 105.542 110.834 105.648 110.944 105.758C110.606 104.897 110.205 104.062 109.744 103.26C109.728 103.224 109.784 103.2 109.806 103.226Z" fill="#263238"/>
<path d="M110.1 106.158C110.572 106.796 111.112 107.404 111.552 108.062C111.564 108.08 111.536 108.1 111.522 108.086C110.961 107.512 110.473 106.871 110.068 106.178C110.056 106.156 110.088 106.14 110.1 106.158Z" fill="#263238"/>
<path d="M111.62 108.21L111.64 108.23C111.642 108.233 111.643 108.237 111.642 108.24C111.642 108.244 111.64 108.247 111.638 108.25C111.635 108.252 111.632 108.254 111.628 108.254C111.625 108.255 111.621 108.254 111.618 108.252L111.598 108.23C111.584 108.216 111.606 108.2 111.62 108.21Z" fill="#263238"/>
<path d="M107.51 107.8C107.683 109.127 108.218 110.38 109.056 111.424C109.401 111.834 109.828 112.167 110.31 112.402C110.852 112.672 111.42 112.98 111.982 113.202C112.251 113.882 112.452 114.586 112.582 115.306L112.636 115.12C112.276 112.024 110.272 109.378 107.71 107.68C107.69 107.665 107.666 107.656 107.641 107.655C107.616 107.654 107.591 107.66 107.57 107.673C107.548 107.686 107.531 107.705 107.521 107.727C107.51 107.75 107.506 107.775 107.51 107.8Z" fill="#3DAA5F"/>
<path d="M108.396 108.71C108.378 108.694 108.396 108.662 108.422 108.676C109.83 109.723 110.953 111.106 111.688 112.7C111.706 112.742 111.648 112.78 111.624 112.738C111.504 112.528 111.384 112.326 111.26 112.126C110.674 112.016 110.122 111.604 109.686 111.214C109.676 111.204 109.686 111.186 109.704 111.196C109.927 111.4 110.176 111.575 110.444 111.716C110.687 111.827 110.935 111.925 111.188 112.01C110.97 111.666 110.744 111.336 110.508 111.01C109.877 110.77 109.285 110.437 108.752 110.022C108.75 110.021 108.748 110.019 108.747 110.018C108.746 110.016 108.745 110.014 108.744 110.012C108.744 110.01 108.744 110.008 108.744 110.006C108.744 110.004 108.745 110.002 108.746 110C108.747 109.998 108.748 109.996 108.75 109.995C108.752 109.994 108.754 109.993 108.756 109.992C108.758 109.992 108.76 109.992 108.762 109.992C108.764 109.992 108.766 109.993 108.768 109.994C109.296 110.314 109.842 110.606 110.402 110.868C110.045 110.397 109.659 109.948 109.248 109.524C109.048 109.418 108.848 109.312 108.648 109.2C108.632 109.2 108.648 109.164 108.66 109.17C108.822 109.228 108.976 109.305 109.12 109.4C108.9 109.166 108.652 108.936 108.396 108.71Z" fill="#263238"/>
<path d="M108.45 109.78C108.485 109.8 108.519 109.824 108.55 109.85C108.55 109.85 108.55 109.87 108.536 109.866C108.501 109.849 108.466 109.83 108.434 109.808C108.416 109.8 108.432 109.768 108.45 109.78Z" fill="#263238"/>
<path d="M116.626 122.004H109.606L110.172 115.61L110.296 114.2H115.936L116.06 115.61L116.626 122.004Z" fill="#455A64"/>
<path d="M116.06 115.61H110.172L110.296 114.2H115.936L116.06 115.61Z" fill="#263238"/>
<path d="M116.27 113.214H109.96V114.61H116.27V113.214Z" fill="#455A64"/>
<g opacity="0.9">
<path d="M118.722 85.0501H71.5879V75.1321H113.738V81.8661L118.722 85.0501Z" fill="white"/>
<path d="M118.722 85.15H71.4879V75.032H113.838V81.812L119.064 85.15H118.722ZM71.6879 84.95H118.38L113.638 81.922V75.232H71.6879V84.95Z" fill="#3DAA5F"/>
</g>
<path d="M108.57 77.468H74.782V77.868H108.57V77.468Z" fill="#3DAA5F"/>
<path d="M100.306 79.73H74.782V80.13H100.306V79.73Z" fill="#3DAA5F"/>
<path d="M106.36 81.99H74.782V82.39H106.36V81.99Z" fill="#3DAA5F"/>
<g opacity="0.9">
<path d="M118.722 53.26H71.5879V43.342H113.738V50.076L118.722 53.26Z" fill="white"/>
<path d="M119.064 53.3599H71.4879V43.2419H113.838V50.0199L119.064 53.3599ZM71.6879 53.1599H118.38L113.638 50.1299V43.4419H71.6879V53.1599Z" fill="#3DAA5F"/>
</g>
<path d="M108.57 45.676H74.782V46.076H108.57V45.676Z" fill="#3DAA5F"/>
<path d="M100.306 47.938H74.782V48.338H100.306V47.938Z" fill="#3DAA5F"/>
<path d="M106.36 50.2H74.782V50.6H106.36V50.2Z" fill="#3DAA5F"/>
<path opacity="0.8" d="M41.262 102.846H78.272V89.1279H41.262V102.846Z" fill="#3DAA5F"/>
<path opacity="0.8" d="M36.278 102.846L41.262 97.8621V102.846H36.278Z" fill="#3DAA5F"/>
<path d="M75.918 91.2659H43.616V91.6659H75.918V91.2659Z" fill="white"/>
<path d="M68.02 93.5259H43.616V93.9259H68.02V93.5259Z" fill="white"/>
<path d="M73.806 95.7878H43.616V96.1878H73.806V95.7878Z" fill="white"/>
<path d="M62.022 98.05H43.616V98.45H62.022V98.05Z" fill="white"/>
<path d="M75.918 100.31H43.616V100.71H75.918V100.31Z" fill="white"/>
<path opacity="0.8" d="M41.262 71.0559H84.222V57.3379H41.262V71.0559Z" fill="#3DAA5F"/>
<path opacity="0.8" d="M36.278 71.0558L41.262 66.0698V71.0558H36.278Z" fill="#3DAA5F"/>
<path d="M81.4899 59.4739H43.9939V59.8739H81.4899V59.4739Z" fill="white"/>
<path d="M72.3199 61.7358H43.9939V62.1358H72.3199V61.7358Z" fill="white"/>
<path d="M79.0379 63.9958H43.9939V64.3958H79.0379V63.9958Z" fill="white"/>
<path d="M65.3599 66.2581H43.9939V66.6581H65.3599V66.2581Z" fill="white"/>
<path d="M81.4899 68.52H43.9939V68.92H81.4899V68.52Z" fill="white"/>
<path opacity="0.8" d="M104.222 106.924H41.262V119.296H104.222V106.924Z" fill="#3DAA5F"/>
<path opacity="0.8" d="M36.278 119.296L41.262 114.312V119.296H36.278Z" fill="#3DAA5F"/>
<path d="M87.1379 109.852H43.9939V110.252H87.1379V109.852Z" fill="white"/>
<path d="M97.3679 112.114H43.9939V112.514H97.3679V112.114Z" fill="white"/>
<path d="M76.5359 114.374H43.9939V114.774H76.5359V114.374Z" fill="white"/>
<path d="M101.104 116.636H43.9939V117.036H101.104V116.636Z" fill="white"/>
<path d="M108.02 107.072C107.452 107.29 90.93 107.59 90.284 107.22C90.214 107.18 90.234 106.45 89.99 104.564C89.978 104.474 89.602 104.124 89.014 103.63C86.804 101.778 81.614 97.8739 81.614 97.8739L89.858 90.7119L97.858 98.5659L99.924 100.6C99.924 100.6 106.674 104.246 107.342 104.726C108.01 105.206 108.59 106.852 108.02 107.072Z" fill="#F7A9A0"/>
<path d="M108.02 107.07C107.45 107.29 90.93 107.59 90.284 107.22C90.214 107.18 90.234 106.45 89.99 104.564C89.978 104.474 89.602 104.124 89.012 103.63C88.244 102.986 87.88 102.692 86.736 101.802L97.218 97.948L97.846 98.566L99.924 100.6C99.924 100.6 106.674 104.244 107.342 104.726C108.01 105.208 108.59 106.852 108.02 107.07Z" fill="#EBEBEB"/>
<path d="M109.158 107.298C108.584 107.498 90.982 107.698 90.348 107.298C90.2 107.208 90.064 106.186 89.948 104.784C89.934 104.608 88.148 103.184 87.908 102.92L98.7 99.2878L100.062 100.57C100.062 100.57 108 104.264 108.65 104.77C109.3 105.276 109.732 107.1 109.158 107.298Z" fill="#3DAA5F"/>
<path opacity="0.4" d="M109.158 107.298C108.584 107.498 90.982 107.698 90.348 107.298C90.2 107.208 90.064 106.186 89.948 104.784C89.934 104.608 88.148 103.184 87.908 102.92L98.7 99.2878L100.062 100.57C100.062 100.57 108 104.264 108.65 104.77C109.3 105.276 109.732 107.1 109.158 107.298Z" fill="black"/>
<path d="M108.914 106.642C106.15 106.606 93.8819 106.724 91.1459 106.898C91.1239 106.898 91.1239 106.916 91.1459 106.916C93.8859 107.012 106.146 106.804 108.916 106.688C108.974 106.684 108.972 106.642 108.914 106.642Z" fill="#263238"/>
<path d="M100.942 100.686C99.8519 100.496 98.5219 100.686 97.6999 101.464C97.6679 101.494 97.7119 101.54 97.7479 101.528C98.7862 101.179 99.8591 100.943 100.948 100.824C100.964 100.821 100.979 100.811 100.989 100.798C100.999 100.785 101.004 100.769 101.003 100.752C101.003 100.736 100.996 100.72 100.985 100.708C100.974 100.696 100.958 100.688 100.942 100.686Z" fill="#263238"/>
<path d="M101.732 101.15C100.642 100.96 99.3139 101.15 98.4919 101.928C98.4599 101.958 98.5039 102.004 98.5379 101.992C99.5763 101.643 100.649 101.407 101.738 101.288C101.754 101.284 101.769 101.275 101.779 101.262C101.789 101.249 101.794 101.233 101.793 101.216C101.793 101.2 101.786 101.184 101.775 101.172C101.764 101.16 101.748 101.152 101.732 101.15Z" fill="#263238"/>
<path d="M102.524 101.616C101.434 101.416 100.104 101.616 99.2819 102.392C99.2499 102.422 99.2939 102.468 99.3299 102.456C100.368 102.107 101.441 101.871 102.53 101.752C102.548 101.751 102.565 101.743 102.577 101.73C102.589 101.717 102.596 101.699 102.595 101.681C102.594 101.663 102.586 101.646 102.573 101.634C102.56 101.622 102.542 101.615 102.524 101.616Z" fill="#263238"/>
<path d="M103.314 102.08C102.224 101.88 100.896 102.08 100.074 102.856C100.042 102.886 100.084 102.932 100.12 102.92C101.159 102.572 102.231 102.336 103.32 102.216C103.338 102.215 103.355 102.207 103.367 102.194C103.379 102.18 103.386 102.163 103.385 102.145C103.384 102.127 103.376 102.11 103.363 102.098C103.35 102.085 103.332 102.079 103.314 102.08Z" fill="#263238"/>
<path d="M102.922 98.1479C102.488 97.5639 101.694 97.8379 101.244 98.2239C100.485 98.9029 99.9175 99.769 99.5979 100.736C99.5964 100.74 99.5959 100.745 99.5964 100.749C99.5969 100.754 99.5985 100.758 99.601 100.762C99.6036 100.766 99.6069 100.769 99.6109 100.772C99.6149 100.774 99.6193 100.776 99.6239 100.776C99.6235 100.797 99.628 100.818 99.6371 100.837C99.6462 100.856 99.6596 100.873 99.6763 100.886C99.693 100.899 99.7125 100.908 99.7333 100.912C99.7541 100.916 99.7755 100.915 99.7959 100.91C100.692 100.566 101.69 100.31 102.452 99.7099C102.9 99.3479 103.332 98.6999 102.922 98.1479ZM101.046 100.112C100.61 100.292 100.168 100.448 99.7399 100.644C100.048 100.145 100.382 99.6623 100.74 99.1979C100.914 98.9749 101.104 98.7643 101.308 98.5679C101.628 98.2699 102.908 97.6279 102.726 98.8239C102.622 99.4839 101.566 99.8979 101.046 100.112Z" fill="#263238"/>
<path d="M96.8299 100.484C97.7319 100.856 98.7619 100.824 99.7159 100.906C99.7372 100.906 99.7582 100.901 99.7772 100.892C99.7961 100.882 99.8126 100.868 99.8251 100.851C99.8376 100.834 99.8458 100.814 99.8491 100.793C99.8524 100.772 99.8506 100.75 99.8439 100.73C99.8483 100.729 99.8523 100.726 99.8555 100.723C99.8587 100.72 99.8611 100.716 99.8625 100.712C99.8639 100.707 99.8642 100.703 99.8634 100.698C99.8626 100.694 99.8607 100.69 99.8579 100.686C99.2835 99.8453 98.4978 99.1707 97.5799 98.73C97.0399 98.482 96.2019 98.44 95.9479 99.13C95.6999 99.766 96.2999 100.268 96.8299 100.484ZM96.3299 99.714C95.8259 98.616 97.2299 98.878 97.6199 99.076C97.8704 99.2082 98.1116 99.3572 98.3419 99.522C98.8239 99.858 99.2519 100.254 99.6979 100.636C99.2299 100.566 98.7619 100.538 98.2979 100.488C97.7359 100.426 96.6079 100.32 96.3299 99.714Z" fill="#263238"/>
<path d="M97.9599 98.1259L87.7599 103.408C87.7599 103.408 77.1519 93.7999 76.1799 93.7259C75.2079 93.6519 60.9239 103.346 53.7319 103.376C46.2859 103.4 45.8999 95.5999 45.8999 95.5999L56.7639 93.1059C64.5959 89.2459 72.7539 82.3059 78.0879 82.9599C83.8999 83.6659 97.9599 98.1259 97.9599 98.1259Z" fill="#263238"/>
<path d="M95.4699 96.7819C93.7499 97.6319 94.2319 97.3659 92.5219 98.2339C91.6839 98.6579 87.4699 100.786 86.7539 101.312C86.7379 101.324 86.7539 101.35 86.7719 101.344C87.6139 101.062 91.7719 98.8459 92.6099 98.4059C94.3059 97.5059 93.8099 97.7459 95.4939 96.8299C95.497 96.8283 95.4999 96.8261 95.5022 96.8235C95.5045 96.8208 95.5062 96.8177 95.5074 96.8144C95.5085 96.811 95.5089 96.8075 95.5087 96.804C95.5084 96.8005 95.5075 96.797 95.5059 96.7939C95.5043 96.7907 95.5021 96.7879 95.4995 96.7856C95.4968 96.7833 95.4937 96.7815 95.4904 96.7804C95.487 96.7793 95.4835 96.7789 95.48 96.7791C95.4765 96.7794 95.473 96.7803 95.4699 96.7819Z" fill="#37474F"/>
<path d="M85.964 100.974C83.964 99.2159 77.444 93.4979 77.178 93.2839C76.9723 93.0876 76.744 92.9164 76.498 92.7739C76.3963 92.7342 76.2868 92.7183 76.178 92.7273C76.0692 92.7363 75.9638 92.77 75.87 92.8259C75.568 92.9659 75.27 93.1199 74.974 93.2679L73.206 94.1299C70.924 95.2439 68.654 96.3879 66.352 97.4639C64.14 98.5019 62.552 99.4759 60.25 100.274C57.9525 101.085 55.5761 101.651 53.16 101.964C52.864 102 52.56 102.032 52.266 102.06C52.2625 102.061 52.2594 102.063 52.2572 102.066C52.2551 102.069 52.2539 102.073 52.2539 102.077C52.2539 102.081 52.2551 102.084 52.2572 102.087C52.2594 102.09 52.2625 102.093 52.266 102.094C54.6367 101.954 56.9807 101.519 59.244 100.8C61.532 100.096 63.086 99.1819 65.26 98.1819C67.514 97.1439 69.734 96.0359 71.956 94.9319C73.128 94.3499 74.298 93.7599 75.474 93.1839C75.742 93.0539 76.122 92.7699 76.426 92.9099C76.5539 92.9812 76.6722 93.0686 76.778 93.1699L77.178 93.4959C77.682 93.9139 85.684 100.806 85.946 101.006C85.956 101.016 85.984 101 85.964 100.974Z" fill="#37474F"/>
<path d="M45.8879 95.6C45.8879 95.6 44.6679 102.646 48.1919 105.414C51.7159 108.182 77.5259 107.85 81.4419 106.584C85.3579 105.318 85.4799 99 81.1999 97.538C77.1279 96.138 59.7999 95.468 59.3759 95.298C59.2699 95.254 60.9119 94.27 60.9059 94.21L56.9639 93.01L45.8879 95.6Z" fill="#263238"/>
<path d="M51.234 95.4278C51.234 95.3978 51.184 95.4058 51.184 95.4278C51.1836 96.2466 50.8947 97.0389 50.368 97.6658C49.768 98.3578 48.884 98.7458 48.084 99.1498C48.006 99.1898 48.064 99.3098 48.144 99.2858C48.6368 99.1346 49.1116 98.93 49.56 98.6758C49.9713 98.4569 50.3335 98.1561 50.624 97.7918C50.8836 97.4613 51.0718 97.0806 51.1768 96.6737C51.2817 96.2669 51.3012 95.8426 51.234 95.4278Z" fill="#37474F"/>
<path d="M59.0999 94.5539C58.9219 94.3259 58.7259 94.1079 58.5399 93.8859C58.0999 93.3619 57.6559 92.8339 57.1939 92.3279C57.1499 92.2799 57.0639 92.3479 57.1039 92.3999C57.4159 92.7999 57.7459 93.1999 58.0699 93.5999C58.2359 93.7999 58.4019 93.9999 58.5699 94.1999C58.7456 94.3837 58.9024 94.5847 59.0379 94.7999C59.1579 95.0259 58.9999 95.2179 58.7659 95.2439C58.5594 95.2512 58.3577 95.1797 58.2019 95.0439C57.8526 94.7338 57.5332 94.3917 57.2479 94.0219C57.0619 93.8219 56.8759 93.6039 56.6859 93.3979C56.4959 93.1919 56.2719 92.9699 56.0719 92.7519C56.0599 92.7379 56.0339 92.7519 56.0459 92.7719C56.2219 93.0119 56.3819 93.2619 56.5579 93.5039C56.7339 93.7459 56.9099 93.9799 57.0899 94.2159C57.2699 94.4519 57.4379 94.6579 57.6219 94.8719C57.7731 95.0615 57.9549 95.2244 58.1599 95.3539C58.4939 95.5539 59.0759 95.5939 59.2539 95.1539C59.2853 95.0493 59.2875 94.9382 59.2604 94.8324C59.2332 94.7267 59.1778 94.6304 59.0999 94.5539Z" fill="#37474F"/>
<path d="M80.8999 106.61C79.5519 106.636 78.2039 106.714 76.8559 106.744C75.5079 106.774 74.1799 106.78 72.8419 106.766C70.1552 106.742 67.4706 106.638 64.7879 106.454C62.0799 106.266 59.1579 105.996 56.4679 105.624C55.1799 105.446 53.8679 105.296 52.6019 105.024C51.4581 104.806 50.4006 104.265 49.5539 103.466C47.8099 101.776 47.1339 99.2899 46.8539 96.9159C46.8179 96.5979 46.7879 96.2779 46.7619 95.9579C46.7607 95.9544 46.7584 95.9513 46.7553 95.9491C46.7523 95.947 46.7486 95.9458 46.7449 95.9458C46.7412 95.9458 46.7375 95.947 46.7345 95.9491C46.7314 95.9513 46.7291 95.9544 46.7279 95.9579C46.8859 98.3919 47.2639 100.93 48.7959 102.888C49.4446 103.744 50.3086 104.413 51.2999 104.826C52.4999 105.31 53.8419 105.426 55.1139 105.594C57.8159 105.962 60.7499 106.244 63.4659 106.456C66.1819 106.668 68.9419 106.8 71.6839 106.84C74.4259 106.88 77.1699 106.84 79.9099 106.706C80.2439 106.69 80.5779 106.67 80.9099 106.642C80.9141 106.641 80.9177 106.638 80.9198 106.634C80.9218 106.63 80.9222 106.625 80.9209 106.621C80.9196 106.617 80.9166 106.613 80.9127 106.611C80.9087 106.609 80.9041 106.609 80.8999 106.61Z" fill="#37474F"/>
<path d="M72.404 96.2538C71.556 96.1298 70.708 96.0078 69.856 95.9178C69.004 95.8278 68.13 95.7518 67.268 95.6778C65.56 95.5338 63.848 95.4038 62.136 95.3238C61.162 95.2778 60.19 95.2738 59.218 95.2858C59.186 95.2858 59.188 95.3298 59.218 95.3338C60.93 95.4878 62.642 95.5958 64.358 95.7098C66.074 95.8238 67.778 95.9738 69.484 96.1358C70.452 96.2298 71.422 96.2998 72.39 96.3798C72.462 96.3858 72.476 96.2638 72.404 96.2538Z" fill="#37474F"/>
<path d="M61.1 94.124C60.4167 94.4184 59.7597 94.7704 59.136 95.176C58.5003 95.556 57.8928 95.9811 57.318 96.448C57.3 96.462 57.318 96.482 57.338 96.474C58.006 96.166 58.646 95.78 59.282 95.41C59.9251 95.047 60.5462 94.6463 61.142 94.21C61.19 94.182 61.164 94.1 61.1 94.124Z" fill="#37474F"/>
<path d="M55.4859 80.294C55.7139 84.306 56.8859 90.694 58.9159 91.036C60.7639 91.35 65.4839 88.846 67.4059 88.096C69.3279 87.346 66.2499 82.406 65.1339 82.896C63.4079 83.668 60.7659 85.132 60.4019 84.936C59.9479 84.692 59.5559 83.392 57.4579 79.382C56.5979 77.752 55.3879 78.586 55.4859 80.294Z" fill="#F7A9A0"/>
<path d="M67.2999 81.6239C68.1639 81.4879 69.1459 81.2619 70.0459 81.4479C70.9459 81.6339 71.4719 82.9639 71.4079 83.3039C71.3439 83.6439 70.6079 85.7039 69.7059 85.5419C68.8039 85.3799 69.6519 83.8399 69.6539 83.6459C69.6559 83.4519 69.6659 83.2079 69.4919 83.1939C69.3179 83.1799 66.0759 84.0379 66.0759 84.0379L67.2999 81.6239Z" fill="#F7A9A0"/>
<path d="M67.3239 81.76C67.3739 81.76 69.9699 81.266 70.8679 81.45C71.7659 81.634 72.2939 82.966 72.2319 83.306C72.1699 83.646 71.4319 85.706 70.5299 85.544C69.6279 85.382 70.4759 83.842 70.4759 83.65C70.4759 83.458 70.4879 83.21 70.3139 83.196C70.1399 83.182 66.8999 84.04 66.8999 84.04L67.3239 81.76Z" fill="#F7A9A0"/>
<path d="M70.244 85.372C70.1783 85.193 70.161 84.9998 70.194 84.812C70.2102 84.6158 70.2575 84.4234 70.334 84.242C70.4134 84.0889 70.4803 83.9298 70.534 83.766C70.564 83.5988 70.5509 83.4267 70.496 83.266C70.45 83.126 70.31 83.144 70.188 83.164C70.0082 83.1964 69.8305 83.2398 69.656 83.294C69.468 83.346 69.28 83.404 69.094 83.462C68.8973 83.5123 68.7042 83.5758 68.516 83.652C68.5134 83.653 68.5112 83.6548 68.5096 83.6571C68.508 83.6594 68.5072 83.6622 68.5072 83.665C68.5072 83.6678 68.508 83.6705 68.5096 83.6728C68.5112 83.6751 68.5134 83.6769 68.516 83.678C68.684 83.652 68.848 83.6 69.012 83.558C69.176 83.516 69.386 83.462 69.572 83.418C69.758 83.374 69.92 83.324 70.096 83.286C70.1766 83.2569 70.263 83.2473 70.348 83.258C70.414 83.286 70.416 83.458 70.42 83.52C70.4281 83.6883 70.3864 83.8553 70.3 84C70.2232 84.1522 70.1616 84.3117 70.116 84.476C70.0696 84.6308 70.0526 84.7929 70.066 84.954C70.0964 85.1017 70.144 85.2454 70.208 85.382C70.222 85.4 70.254 85.4 70.244 85.372Z" fill="#263238"/>
<path d="M64.022 83.5999C64.022 83.5999 66.946 81.7879 67.55 81.4319C68.764 80.7179 73.496 79.7399 74.12 79.7899C74.744 79.8399 74.732 81.1359 71.504 81.8859C69.804 82.2859 69.356 83.1299 69.294 83.6339C69.232 84.1379 69.534 85.1579 70.378 85.2919C71.222 85.4259 71.994 84.3019 72.792 84.3099C73.59 84.3179 72.816 85.6359 72.12 86.3519C71.4018 87.0353 70.5043 87.5007 69.532 87.6939C68.754 87.8319 66.332 88.3819 66.332 88.3819L64.022 83.5999Z" fill="#F7A9A0"/>
<path d="M71.53 84.8899C71.168 85.0759 70.75 85.3259 70.33 85.2639C69.91 85.2019 69.668 84.8639 69.53 84.4819C69.3756 84.0968 69.3756 83.667 69.53 83.2819C69.695 82.9374 69.9553 82.6472 70.28 82.4459C70.678 82.2034 71.1092 82.0202 71.56 81.9019C71.58 81.9019 71.56 81.8659 71.548 81.8699C71.128 81.9719 69.836 82.2399 69.398 83.2559C69.2445 83.6518 69.2495 84.0917 69.412 84.4839C69.534 84.8519 69.746 85.2259 70.146 85.3339C70.636 85.4659 71.146 85.1339 71.546 84.9079C71.57 84.8959 71.548 84.8799 71.53 84.8899Z" fill="#263238"/>
<path d="M64.08 83.2759L66.74 89.7779C66.74 89.7779 60.188 91.9979 58.608 91.1499C57.028 90.3019 55.39 85.0159 55.132 80.5999C54.874 76.1839 57.164 78.2819 57.932 79.7739C58.7 81.2659 60.316 84.6899 60.444 84.6719C60.572 84.6539 64.08 83.2759 64.08 83.2759Z" fill="#37474F"/>
<path d="M64.8699 90.3518C64.4699 90.4698 64.0259 90.5898 63.5639 90.7078L61.3979 84.3078C61.7819 84.1658 62.2259 83.9918 62.6439 83.8298C63.3299 85.8358 64.1619 88.2658 64.8699 90.3518Z" fill="#3DAA5F"/>
<path d="M63.064 90.8318L62.642 90.9278L60.5 84.6518L60.9 84.5078C61.576 86.4718 62.378 88.8138 63.064 90.8318Z" fill="#3DAA5F"/>
<path d="M62.18 91.0258C60.728 91.3258 59.326 91.4798 58.666 91.1778L58.608 91.1498C57.03 90.2998 55.39 85.0178 55.13 80.5998C55.0778 80.0055 55.1054 79.4068 55.212 78.8198C55.212 78.7978 55.222 78.7778 55.226 78.7578C55.23 78.7378 55.244 78.6918 55.254 78.6598C55.264 78.6278 55.254 78.6338 55.266 78.6198C55.278 78.6058 55.286 78.5578 55.296 78.5298L62.18 91.0258Z" fill="#263238"/>
<path d="M64.7579 88.8179C64.6779 88.5899 64.5959 88.3619 64.5139 88.1359C64.3499 87.6799 63.3539 84.9799 62.9139 84.1359C62.9039 84.1139 62.8699 84.1359 62.8759 84.1539C63.1159 85.0779 64.1739 87.7439 64.3499 88.1839C64.4399 88.4099 64.5319 88.6339 64.6239 88.8579C64.7159 89.0819 64.8379 89.2979 64.9299 89.5219C64.9399 89.5439 64.9759 89.5359 64.9659 89.5119C64.8999 89.2839 64.8379 89.0459 64.7579 88.8179Z" fill="#263238"/>
<path d="M60.806 94.9619L45.574 95.8479C45.594 95.5359 48.174 84.1659 52.374 78.8899C53.496 77.4899 55.926 76.4339 57.084 78.9279C58.31 81.5619 61.014 94.7699 60.806 94.9619Z" fill="#455A64"/>
<path d="M56.1239 81.0099C55.2339 81.0279 54.0579 79.4099 53.7079 78.2439C53.6859 78.1639 53.9599 77.4279 54.2499 76.5199C54.4239 75.9679 54.6059 75.3479 54.7299 74.7719C54.7559 74.6519 58.1579 76.4299 58.1579 76.4299C57.7965 77.107 57.5191 77.8256 57.3319 78.5699C57.315 78.6495 57.3057 78.7306 57.3039 78.8119C57.3049 78.8252 57.3049 78.8386 57.3039 78.8519C57.2779 79.3179 56.9859 80.9999 56.1239 81.0099Z" fill="#F7A9A0"/>
<path d="M54.95 74.834C54.906 75.846 55.006 78.332 56.926 78.794C57.0486 78.8246 57.1738 78.844 57.3 78.852C57.3027 78.8388 57.3027 78.8252 57.3 78.812C57.302 78.7307 57.3107 78.6498 57.326 78.57C57.514 77.8256 57.792 77.107 58.154 76.43C58.154 76.43 55.7 75.148 54.95 74.834Z" fill="#263238"/>
<path d="M55.2499 70.316C54.5379 71.488 54.2759 75.334 54.9739 76.382C55.9739 77.904 58.1019 78.562 59.5099 77.242C60.8779 75.964 61.1299 70.946 60.3099 69.944C59.0999 68.47 56.2999 68.582 55.2499 70.316Z" fill="#F7A9A0"/>
<path d="M58.2759 73.474C58.2759 73.464 58.2559 73.486 58.2559 73.496C58.2559 73.756 58.2099 74.054 57.9719 74.132V74.146C58.2619 74.116 58.3179 73.72 58.2759 73.474Z" fill="#263238"/>
<path d="M58.054 73.2C57.638 73.152 57.576 73.988 57.962 74.032C58.348 74.076 58.404 73.234 58.054 73.2Z" fill="#263238"/>
<path d="M59.7259 73.5999C59.7259 73.5999 59.7439 73.6139 59.7439 73.6239C59.7159 73.8819 59.7279 74.1819 59.9559 74.2859V74.2999C59.6699 74.2279 59.6579 73.8299 59.7259 73.5999Z" fill="#263238"/>
<path d="M59.9759 73.3359C60.3959 73.3359 60.3759 74.1719 59.9759 74.1739C59.5759 74.1759 59.6259 73.3359 59.9759 73.3359Z" fill="#263238"/>
<path d="M57.7939 72.6479C57.9099 72.6279 58.0139 72.5899 58.1259 72.5599C58.2473 72.5442 58.3604 72.4895 58.4479 72.4039C58.4699 72.3716 58.4807 72.3329 58.4785 72.2939C58.4763 72.2548 58.4614 72.2176 58.4359 72.1879C58.3765 72.137 58.3047 72.1028 58.2277 72.0887C58.1508 72.0747 58.0715 72.0813 57.9979 72.1079C57.8376 72.1371 57.6944 72.2265 57.5979 72.3579C57.5765 72.389 57.565 72.4259 57.5648 72.4637C57.5647 72.5015 57.5759 72.5384 57.5971 72.5697C57.6182 72.601 57.6483 72.6252 57.6834 72.6392C57.7186 72.6531 57.7571 72.6562 57.7939 72.6479Z" fill="#263238"/>
<path d="M60.398 72.948C60.2858 72.9254 60.175 72.8967 60.066 72.862C59.9441 72.8487 59.8301 72.7952 59.742 72.71C59.7183 72.679 59.7054 72.641 59.7054 72.602C59.7054 72.563 59.7183 72.525 59.742 72.494C59.8007 72.4426 59.872 72.4077 59.9486 72.393C60.0252 72.3782 60.1044 72.3841 60.178 72.41C60.3376 72.4385 60.4805 72.5264 60.578 72.656C60.5938 72.6867 60.6015 72.7209 60.6002 72.7554C60.599 72.79 60.5888 72.8235 60.5706 72.8529C60.5525 72.8824 60.5271 72.9066 60.4968 72.9232C60.4665 72.9399 60.4325 72.9484 60.398 72.948Z" fill="#263238"/>
<path d="M57.588 75.7519C57.618 75.8319 57.64 75.9339 57.724 75.9799C57.8125 76.0177 57.9078 76.0367 58.004 76.0359C58.004 76.0359 58.018 76.0479 58.004 76.0519C57.9495 76.0843 57.8874 76.1015 57.824 76.1015C57.7606 76.1015 57.6985 76.0843 57.644 76.0519C57.6017 76.0172 57.5707 75.9708 57.5547 75.9185C57.5386 75.8662 57.5384 75.8104 57.554 75.7579C57.562 75.7359 57.582 75.7399 57.588 75.7519Z" fill="#263238"/>
<path d="M57.9959 75.092C58.0538 75.1993 58.1332 75.2934 58.2293 75.3684C58.3253 75.4435 58.4358 75.4978 58.5539 75.528C58.6576 75.5557 58.7647 75.5685 58.8719 75.566C58.8919 75.568 58.912 75.568 58.9319 75.566H58.9899C59.0038 75.5641 59.0167 75.5578 59.0267 75.5481C59.0368 75.5384 59.0435 75.5258 59.0459 75.512V75.484V75.462C59.0659 75.262 59.0699 74.958 59.0699 74.958C59.1399 75 59.4999 75.196 59.4999 75.09C59.5445 74.1902 59.4969 73.2881 59.3579 72.398C59.3579 72.368 59.3079 72.372 59.3099 72.398C59.2639 73.23 59.3659 74.064 59.3339 74.9C59.2084 74.8298 59.0738 74.7773 58.9339 74.744C58.9039 74.744 58.9339 75.332 58.9219 75.42C58.9224 75.4233 58.9224 75.4267 58.9219 75.43C58.7574 75.4344 58.5936 75.4057 58.4404 75.3456C58.2872 75.2854 58.1476 75.1951 58.0299 75.08C58.0039 75.054 57.9819 75.07 57.9959 75.092Z" fill="#263238"/>
<path d="M58.6599 75.5298C58.5315 75.6385 58.3772 75.7122 58.2119 75.7438C58.1217 75.7566 58.0297 75.742 57.9479 75.7018C57.7699 75.6098 57.8039 75.4358 57.8699 75.3018C57.9075 75.2302 57.9531 75.1631 58.0059 75.1018C58.173 75.3102 58.4021 75.4601 58.6599 75.5298Z" fill="#263238"/>
<path d="M58.2119 75.744C58.1217 75.7568 58.0297 75.7422 57.9479 75.702C57.7699 75.61 57.8039 75.436 57.8699 75.302C57.968 75.327 58.055 75.3841 58.117 75.4641C58.1789 75.5442 58.2124 75.6427 58.2119 75.744Z" fill="#FF9BBC"/>
<path d="M54.3179 73.1239C55.2699 73.4379 56.0699 72.4099 56.0799 71.4219C56.0799 71.4219 58.5719 72.4219 59.2219 70.3799C59.332 70.7072 59.5212 71.0023 59.7728 71.2388C60.0243 71.4754 60.3305 71.6461 60.6639 71.7359L60.7579 72.5719C61.0419 72.5619 61.5139 71.8819 61.0159 71.1279C61.0159 71.1279 61.2339 70.0839 60.6299 69.2719C60.4704 69.0412 60.2473 68.8617 59.9878 68.7552C59.7283 68.6487 59.4435 68.6198 59.1679 68.6719C58.8015 68.2329 58.2786 67.9539 57.7099 67.8939C57.411 67.8655 57.1096 67.9094 56.8311 68.0218C56.5527 68.1342 56.3053 68.3119 56.1099 68.5399C56.1099 68.5399 54.7699 68.4599 54.3219 69.3119C54.1898 69.551 54.1096 69.8154 54.0865 70.0876C54.0634 70.3599 54.098 70.6339 54.1879 70.8919C54.1879 70.8919 53.7759 71.1679 53.7419 71.9839C53.7279 72.5099 54.0319 73.0299 54.3179 73.1239Z" fill="#263238"/>
<path d="M59.212 70.1819C59.1886 70.3543 59.1477 70.5238 59.09 70.6879C59.0361 70.8514 58.963 71.0078 58.872 71.1539C58.695 71.4458 58.4142 71.6601 58.086 71.7539C57.7534 71.8339 57.4065 71.8339 57.074 71.7539C56.908 71.7079 56.738 71.6699 56.574 71.6139C56.41 71.5579 56.248 71.4899 56.08 71.4339C56.234 71.5159 56.394 71.5899 56.552 71.6699C56.71 71.7499 56.884 71.7879 57.052 71.8459C57.399 71.9459 57.7658 71.9562 58.118 71.8759C58.4723 71.7737 58.772 71.5358 58.952 71.2139C59.1243 70.8973 59.2137 70.5423 59.212 70.1819Z" fill="#263238"/>
<path d="M60.2379 71.716C59.9799 71.5481 59.7515 71.3386 59.5619 71.096C59.47 70.9734 59.3953 70.8388 59.3399 70.696C59.2845 70.5522 59.2455 70.4026 59.2239 70.25C59.1976 70.4087 59.2064 70.5712 59.2499 70.726C59.2925 70.8838 59.3652 71.0318 59.4639 71.162C59.5608 71.291 59.6776 71.4037 59.8099 71.496C59.9388 71.5935 60.0836 71.6679 60.2379 71.716Z" fill="#263238"/>
<path d="M55.2739 73.5098C55.2739 73.5098 54.7179 72.1218 54.1059 72.2918C53.4939 72.4618 53.7199 74.3418 54.3059 74.7258C54.377 74.7803 54.4585 74.8199 54.5453 74.8421C54.6321 74.8644 54.7225 74.8688 54.8111 74.8552C54.8997 74.8415 54.9846 74.8101 55.0607 74.7628C55.1368 74.7154 55.2025 74.6532 55.2539 74.5798L55.2739 73.5098Z" fill="#F7A9A0"/>
<path d="M54.184 72.8298C54.184 72.8298 54.168 72.8298 54.184 72.8458C54.584 73.1298 54.728 73.5978 54.784 74.0658C54.7686 74.015 54.7423 73.9682 54.7069 73.9286C54.6716 73.8889 54.6281 73.8575 54.5794 73.8363C54.5307 73.8152 54.4779 73.805 54.4249 73.8062C54.3718 73.8075 54.3196 73.8204 54.272 73.8438C54.258 73.8438 54.272 73.8698 54.272 73.8698C54.3551 73.8647 54.4378 73.8849 54.5092 73.9278C54.5806 73.9706 54.6374 74.0341 54.672 74.1098C54.7284 74.2384 54.7713 74.3724 54.8 74.5098C54.812 74.5538 54.888 74.5498 54.884 74.5098V74.4998C55.038 73.9278 54.782 73.0278 54.184 72.8298Z" fill="#263238"/>
<path d="M51.6039 81.4459C51.5439 85.4819 53.4659 93.4079 55.4759 94.4939C57.8039 95.7519 66.9119 94.6039 68.8279 93.6819C69.5919 93.3159 66.8279 88.3179 65.9259 88.4699C62.1859 89.1059 58.9599 89.1899 58.5659 88.7999C57.9659 88.1999 55.8899 83.6299 54.5219 80.7779C52.8039 77.1999 51.6319 79.6359 51.6039 81.4459Z" fill="#F7A9A0"/>
<path d="M68.586 93.7578C68.986 93.6938 71.986 92.2718 72.926 91.5198C73.9369 90.7464 74.815 89.8136 75.526 88.7578C76.646 87.0838 77.262 85.8198 77.184 85.1878C77.094 84.4558 77.054 84.3318 74.67 87.0118C73.322 88.5278 72.304 88.5378 71.456 88.3638C69.3682 87.9342 67.2077 88.0117 65.156 88.5898C65.156 88.5898 67.018 94.0098 68.586 93.7578Z" fill="#F7A9A0"/>
<path d="M78.92 83.1719L73.3 88.0639C73.2201 88.1304 73.1232 88.1729 73.0202 88.1867C72.9173 88.2005 72.8125 88.185 72.718 88.1419L69.744 86.4979C69.7062 86.4795 69.674 86.4512 69.6507 86.4162C69.6275 86.3811 69.614 86.3404 69.6118 86.2984C69.6095 86.2564 69.6186 86.2145 69.638 86.1771C69.6573 86.1398 69.6863 86.1083 69.722 86.0859L75.342 81.1999C75.4216 81.133 75.5186 81.0902 75.6217 81.0764C75.7247 81.0626 75.8296 81.0784 75.924 81.1219L78.9 82.7599C78.9377 82.7786 78.9697 82.8069 78.9928 82.8421C79.0159 82.8773 79.0291 82.918 79.0311 82.96C79.0332 83.0021 79.0239 83.0439 79.0044 83.0811C78.9849 83.1184 78.9557 83.1497 78.92 83.1719Z" fill="#37474F"/>
<path d="M78.632 82.6119L75.656 80.9679C75.5616 80.9243 75.4567 80.9085 75.3537 80.9223C75.2506 80.9361 75.1536 80.979 75.074 81.0459L69.46 85.9379C69.4242 85.9598 69.395 85.991 69.3754 86.0281C69.3558 86.0652 69.3465 86.1069 69.3485 86.1488C69.3506 86.1907 69.3639 86.2313 69.387 86.2663C69.4101 86.3014 69.4423 86.3295 69.48 86.3479L72.454 87.9999C72.5485 88.0429 72.6533 88.0585 72.7562 88.0447C72.8592 88.0309 72.9562 87.9883 73.036 87.9219L78.652 83.0299C78.6893 83.0081 78.7198 82.9766 78.7404 82.9386C78.761 82.9007 78.7708 82.8579 78.7687 82.8148C78.7667 82.7717 78.7528 82.73 78.7287 82.6942C78.7046 82.6585 78.6712 82.63 78.632 82.6119ZM73.032 87.6599C72.9595 87.7227 72.8708 87.7639 72.7761 87.7787C72.6813 87.7936 72.5843 87.7815 72.496 87.7439L69.834 86.2719C69.684 86.1899 69.684 86.0179 69.834 85.8899L75.062 81.3359C75.362 81.0739 75.498 81.1359 75.648 81.2099L76.18 81.5039C76.212 81.5219 76.204 81.5639 76.164 81.5979L76.148 81.6139C76.054 81.6959 76.11 81.7259 76.178 81.7639L77.41 82.4459C77.4412 82.4724 77.4815 82.486 77.5224 82.4838C77.5633 82.4815 77.6019 82.4637 77.63 82.4339L77.646 82.4179C77.6631 82.4018 77.684 82.3904 77.7068 82.3848C77.7296 82.3792 77.7534 82.3795 77.776 82.3859L78.308 82.6819C78.458 82.7639 78.538 82.8659 78.262 83.1059L73.032 87.6599Z" fill="#263238"/>
<path d="M77.0679 82.0958L76.7319 81.9098C76.7199 81.9098 76.7199 81.8918 76.7319 81.8818C76.7378 81.8778 76.7448 81.8757 76.7519 81.8757C76.759 81.8757 76.766 81.8778 76.7719 81.8818L77.1079 82.0678C77.1199 82.0678 77.1199 82.0858 77.1079 82.0958C77.1018 82.0991 77.0949 82.1009 77.0879 82.1009C77.0809 82.1009 77.074 82.0991 77.0679 82.0958Z" fill="white"/>
<path d="M78.2499 83.1059L73.0219 87.6599C72.9494 87.7227 72.8607 87.7639 72.766 87.7788C72.6712 87.7936 72.5742 87.7815 72.4859 87.7439L69.8239 86.2719C69.6739 86.1899 69.6739 86.0179 69.8239 85.8899L75.0519 81.3359C75.3539 81.0739 75.4879 81.1359 75.6379 81.2099L76.1699 81.5039C76.2019 81.5219 76.1939 81.5639 76.1539 81.5979L76.1379 81.6139C76.0439 81.6959 76.0999 81.7259 76.1679 81.7639L77.3999 82.4459C77.4312 82.4725 77.4714 82.4861 77.5123 82.4838C77.5533 82.4816 77.5918 82.4637 77.6199 82.4339L77.6359 82.4179C77.653 82.4018 77.6739 82.3904 77.6967 82.3848C77.7195 82.3792 77.7433 82.3796 77.7659 82.3859L78.2979 82.6819C78.4459 82.7639 78.5259 82.8659 78.2499 83.1059Z" fill="white"/>
<path d="M78.2499 83.1059L77.8599 83.4459L74.6599 81.6759L75.0499 81.3359C75.3499 81.0739 75.4859 81.1359 75.6359 81.2099L76.1679 81.5039C76.1999 81.5219 76.1919 81.5639 76.1519 81.5979L76.1359 81.6139C76.0419 81.6959 76.0979 81.7259 76.1659 81.7639L77.3979 82.4459C77.4291 82.4725 77.4694 82.4861 77.5103 82.4838C77.5512 82.4816 77.5898 82.4637 77.6179 82.4339L77.6359 82.4179C77.6526 82.4018 77.6732 82.3904 77.6956 82.3848C77.7181 82.3792 77.7416 82.3796 77.7639 82.3859L78.2959 82.6819C78.4459 82.7639 78.5259 82.8659 78.2499 83.1059Z" fill="#3DAA5F"/>
<path d="M75.174 81.6879L75.162 81.5659L75.336 81.5479L75.338 81.5678L75.192 81.5819L75.204 81.6839L75.174 81.6879Z" fill="white"/>
<path d="M77.9359 83.0519C77.9304 83.0549 77.9242 83.0564 77.9179 83.0564C77.9116 83.0564 77.9055 83.0549 77.8999 83.0519C77.8973 83.0509 77.8951 83.0491 77.8935 83.0468C77.892 83.0444 77.8911 83.0417 77.8911 83.0389C77.8911 83.0361 77.892 83.0334 77.8935 83.0311C77.8951 83.0287 77.8973 83.0269 77.8999 83.0259C77.9053 83.0225 77.9116 83.0208 77.9179 83.0208C77.9243 83.0208 77.9305 83.0225 77.9359 83.0259C77.9359 83.0259 77.9459 83.0439 77.9359 83.0519Z" fill="white"/>
<path d="M77.876 83.1059C77.8706 83.1092 77.8643 83.111 77.858 83.111C77.8516 83.111 77.8454 83.1092 77.84 83.1059C77.84 83.1059 77.84 83.0899 77.84 83.0799C77.8454 83.0765 77.8516 83.0747 77.858 83.0747C77.8643 83.0747 77.8706 83.0765 77.876 83.0799C77.878 83.0813 77.8797 83.0833 77.8809 83.0856C77.882 83.0878 77.8826 83.0903 77.8826 83.0929C77.8826 83.0954 77.882 83.0979 77.8809 83.1002C77.8797 83.1024 77.878 83.1044 77.876 83.1059Z" fill="white"/>
<path d="M77.816 83.1578C77.8106 83.1612 77.8043 83.163 77.798 83.163C77.7916 83.163 77.7854 83.1612 77.78 83.1578C77.7779 83.1566 77.7762 83.1548 77.775 83.1527C77.7738 83.1506 77.7732 83.1482 77.7732 83.1458C77.7732 83.1434 77.7738 83.141 77.775 83.1389C77.7762 83.1368 77.7779 83.1351 77.78 83.1338C77.7854 83.1304 77.7916 83.1287 77.798 83.1287C77.8043 83.1287 77.8106 83.1304 77.816 83.1338C77.824 83.1378 77.824 83.1498 77.816 83.1578Z" fill="white"/>
<path d="M75.96 81.5558H75.944C75.943 81.5466 75.9398 81.5377 75.9346 81.53C75.9293 81.5223 75.9223 81.5161 75.914 81.5118C75.8912 81.5046 75.8668 81.5046 75.844 81.5118V81.4998H75.88C75.8885 81.4978 75.8974 81.4978 75.906 81.4998H75.918L75.934 81.5138V81.5258C75.9349 81.5298 75.9349 81.5339 75.934 81.5378L75.96 81.5558Z" fill="white"/>
<path d="M75.8459 81.5238V81.5138C75.8617 81.5097 75.8782 81.5097 75.8939 81.5138C75.903 81.5162 75.9111 81.5213 75.9172 81.5285C75.9233 81.5356 75.927 81.5445 75.9279 81.5538H75.9119C75.9114 81.5475 75.9092 81.5415 75.9057 81.5363C75.9022 81.531 75.8975 81.5267 75.8919 81.5238C75.8769 81.5196 75.861 81.5196 75.8459 81.5238Z" fill="white"/>
<path d="M75.8999 81.5639H75.8859C75.8852 81.5606 75.8837 81.5574 75.8817 81.5546C75.8796 81.5519 75.877 81.5496 75.8739 81.5479C75.8667 81.5459 75.8591 81.5459 75.8519 81.5479C75.8719 81.5319 75.8999 81.5439 75.8999 81.5639Z" fill="white"/>
<path d="M75.864 81.5657C75.864 81.5657 75.864 81.5657 75.85 81.5657C75.836 81.5657 75.85 81.5657 75.85 81.5557C75.852 81.5543 75.8545 81.5535 75.857 81.5535C75.8595 81.5535 75.8619 81.5543 75.864 81.5557C75.864 81.5557 75.868 81.5617 75.864 81.5657Z" fill="white"/>
<path d="M75.442 81.2899C75.4483 81.286 75.4556 81.2839 75.463 81.2839C75.4704 81.2839 75.4777 81.286 75.484 81.2899C75.496 81.2899 75.496 81.3079 75.484 81.3179C75.4777 81.3218 75.4704 81.3238 75.463 81.3238C75.4556 81.3238 75.4483 81.3218 75.442 81.3179C75.4399 81.3162 75.4382 81.3141 75.4371 81.3116C75.4359 81.3092 75.4353 81.3066 75.4353 81.3039C75.4353 81.3012 75.4359 81.2986 75.4371 81.2961C75.4382 81.2937 75.4399 81.2916 75.442 81.2899Z" fill="white"/>
<path d="M75.5099 81.3278C75.5159 81.3239 75.5228 81.3218 75.5299 81.3218C75.5371 81.3218 75.544 81.3239 75.5499 81.3278C75.5619 81.3278 75.5619 81.3478 75.5499 81.3578C75.5438 81.3612 75.5369 81.3629 75.5299 81.3629C75.523 81.3629 75.5161 81.3612 75.5099 81.3578C75.5069 81.3567 75.5042 81.3547 75.5024 81.352C75.5005 81.3493 75.4995 81.3461 75.4995 81.3428C75.4995 81.3396 75.5005 81.3364 75.5024 81.3337C75.5042 81.331 75.5069 81.329 75.5099 81.3278Z" fill="white"/>
<path d="M75.5759 81.3638C75.5819 81.3601 75.5888 81.3582 75.5959 81.3582C75.603 81.3582 75.6099 81.3601 75.6159 81.3638C75.6279 81.3638 75.6299 81.3818 75.6159 81.3918C75.61 81.3958 75.603 81.3979 75.5959 81.3979C75.5888 81.3979 75.5818 81.3958 75.5759 81.3918C75.5738 81.3902 75.5721 81.388 75.571 81.3856C75.5698 81.3832 75.5692 81.3805 75.5692 81.3778C75.5692 81.3752 75.5698 81.3725 75.571 81.3701C75.5721 81.3677 75.5738 81.3655 75.5759 81.3638Z" fill="white"/>
<path d="M75.644 81.3999C75.6499 81.3959 75.6569 81.3938 75.664 81.3938C75.6711 81.3938 75.6781 81.3959 75.684 81.3999C75.6865 81.4012 75.6886 81.4033 75.69 81.4057C75.6915 81.4082 75.6922 81.411 75.6922 81.4139C75.6922 81.4167 75.6915 81.4195 75.69 81.422C75.6886 81.4245 75.6865 81.4265 75.684 81.4279C75.6777 81.4318 75.6704 81.4338 75.663 81.4338C75.6556 81.4338 75.6483 81.4318 75.642 81.4279C75.6396 81.4263 75.6376 81.4241 75.6363 81.4216C75.6351 81.419 75.6345 81.4161 75.6347 81.4133C75.6349 81.4104 75.6359 81.4077 75.6375 81.4053C75.6391 81.4029 75.6414 81.4011 75.644 81.3999Z" fill="white"/>
<path d="M75.7099 81.438C75.7159 81.434 75.7228 81.4319 75.7299 81.4319C75.7371 81.4319 75.744 81.434 75.7499 81.438C75.7619 81.438 75.7639 81.456 75.7499 81.466C75.744 81.4699 75.7371 81.472 75.7299 81.472C75.7228 81.472 75.7159 81.4699 75.7099 81.466C75.7078 81.4643 75.7062 81.4621 75.705 81.4597C75.7038 81.4573 75.7032 81.4546 75.7032 81.452C75.7032 81.4493 75.7038 81.4466 75.705 81.4442C75.7062 81.4418 75.7078 81.4396 75.7099 81.438Z" fill="white"/>
<path d="M78.1519 82.8498L77.9779 82.7538L78.0459 82.6938L78.2219 82.7918L78.1519 82.8498ZM77.9979 82.7518L78.1519 82.8358L78.2059 82.7878L78.0539 82.7038L77.9979 82.7518Z" fill="white"/>
<path d="M78.166 82.77L78.054 82.708L78.006 82.75L78.118 82.812L78.166 82.77Z" fill="white"/>
<path d="M78.1839 82.8438L78.1699 82.8338L78.2079 82.7998L78.2239 82.8078L78.1839 82.8438Z" fill="white"/>
<path d="M70.36 86.1139L70.336 86.0999L70.234 86.1899L70.188 86.1639L70.24 86.1179L70.16 86.0739L70.108 86.1199L70.062 86.0939L70.164 86.0059L70.14 85.9919L70.354 85.9619L70.36 86.1139Z" fill="#EBEBEB"/>
<path d="M72.8779 87.406L72.6119 87.26L72.6479 87.23L72.9119 87.376L72.8779 87.406Z" fill="#EBEBEB"/>
<path d="M72.792 87.482L72.526 87.336L72.562 87.304L72.826 87.452L72.792 87.482Z" fill="#EBEBEB"/>
<path d="M72.7059 87.5559L72.4399 87.4099L72.4759 87.3799L72.7399 87.5259L72.7059 87.5559Z" fill="#EBEBEB"/>
<path d="M71.5639 86.7579L71.4159 86.7799L71.4139 86.6759L71.4379 86.6719L71.4399 86.7599L71.5619 86.7419L71.5639 86.7579Z" fill="#EBEBEB"/>
<path d="M71.442 86.9619C71.3919 86.963 71.3423 86.9513 71.298 86.9279C71.2691 86.9128 71.2443 86.8909 71.2259 86.864C71.2074 86.8372 71.1958 86.8062 71.192 86.7739C71.1892 86.7395 71.1948 86.7049 71.2084 86.6732C71.222 86.6415 71.2431 86.6136 71.27 86.5919C71.3193 86.5504 71.3795 86.5242 71.4434 86.5164C71.5074 86.5086 71.5722 86.5195 71.63 86.5479C71.6592 86.5627 71.6844 86.5845 71.7032 86.6114C71.722 86.6382 71.734 86.6693 71.738 86.7019C71.7404 86.7364 71.7343 86.771 71.7204 86.8027C71.7065 86.8344 71.685 86.8623 71.658 86.8839C71.5978 86.9352 71.5211 86.9629 71.442 86.9619ZM71.496 86.7119C71.4623 86.7117 71.4294 86.7222 71.402 86.7419C71.4195 86.7562 71.4414 86.764 71.464 86.764C71.4866 86.764 71.5085 86.7562 71.526 86.7419C71.5311 86.7383 71.5353 86.7335 71.538 86.7279C71.5267 86.7197 71.5137 86.7143 71.5 86.7119H71.496Z" fill="#EBEBEB"/>
<path d="M76.2139 82.1859C76.237 82.1681 76.2645 82.157 76.2934 82.1538C76.3223 82.1506 76.3516 82.1555 76.3779 82.1679C76.3873 82.1717 76.3956 82.1777 76.4022 82.1853C76.4088 82.193 76.4135 82.2021 76.4159 82.2119C76.4159 82.2119 76.4159 82.2259 76.4019 82.2279C76.3879 82.2299 76.3819 82.2279 76.3799 82.2279C76.3781 82.221 76.3749 82.2146 76.3704 82.2091C76.3659 82.2036 76.3603 82.1991 76.3539 82.1959C76.3358 82.1874 76.3158 82.184 76.2959 82.1859C76.2762 82.1893 76.2577 82.1976 76.2419 82.2099C76.2354 82.2147 76.2302 82.2211 76.2267 82.2284C76.2233 82.2357 76.2216 82.2438 76.2219 82.2519C76.2225 82.2597 76.2252 82.2672 76.2298 82.2736C76.2344 82.28 76.2407 82.2849 76.2479 82.2879C76.2629 82.297 76.2804 82.3012 76.2979 82.2999C76.2979 82.2999 76.3139 82.2999 76.3139 82.3119C76.3139 82.3239 76.3139 82.3259 76.2939 82.3259C76.2696 82.3268 76.2454 82.3213 76.2239 82.3099C76.2108 82.3064 76.199 82.2989 76.1903 82.2884C76.1815 82.2779 76.1762 82.265 76.1751 82.2514C76.174 82.2378 76.1772 82.2242 76.1841 82.2125C76.1911 82.2008 76.2015 82.1915 76.2139 82.1859Z" fill="white"/>
<path d="M76.338 82.3479L76.466 82.2379C76.4696 82.2356 76.4738 82.2344 76.478 82.2344C76.4823 82.2344 76.4864 82.2356 76.49 82.2379C76.4917 82.2388 76.4931 82.24 76.4941 82.2416C76.4951 82.2432 76.4957 82.2451 76.4957 82.2469C76.4957 82.2488 76.4951 82.2507 76.4941 82.2522C76.4931 82.2538 76.4917 82.2551 76.49 82.2559L76.438 82.3019L76.498 82.3359L76.55 82.2899C76.5539 82.2874 76.5584 82.2861 76.563 82.2861C76.5676 82.2861 76.5721 82.2874 76.576 82.2899C76.5777 82.2908 76.5791 82.292 76.5801 82.2936C76.5811 82.2952 76.5817 82.2971 76.5817 82.2989C76.5817 82.3008 76.5811 82.3027 76.5801 82.3042C76.5791 82.3058 76.5777 82.3071 76.576 82.3079L76.45 82.4199C76.4461 82.4224 76.4416 82.4238 76.437 82.4238C76.4324 82.4238 76.4279 82.4224 76.424 82.4199C76.4223 82.4191 76.4209 82.4178 76.4199 82.4162C76.4189 82.4147 76.4184 82.4128 76.4184 82.4109C76.4184 82.4091 76.4189 82.4072 76.4199 82.4056C76.4209 82.404 76.4223 82.4028 76.424 82.4019L76.476 82.3579L76.416 82.3239L76.364 82.3699C76.3601 82.3724 76.3556 82.3738 76.351 82.3738C76.3464 82.3738 76.3419 82.3724 76.338 82.3699C76.3359 82.369 76.3341 82.3675 76.3328 82.3655C76.3315 82.3636 76.3308 82.3613 76.3308 82.3589C76.3308 82.3566 76.3315 82.3543 76.3328 82.3524C76.3341 82.3504 76.3359 82.3489 76.338 82.3479Z" fill="white"/>
<path d="M76.598 82.458L76.54 82.426L76.5 82.444C76.497 82.446 76.4935 82.447 76.49 82.447C76.4864 82.447 76.4829 82.446 76.48 82.444C76.48 82.444 76.48 82.43 76.48 82.426L76.66 82.344C76.6631 82.3425 76.6665 82.3418 76.67 82.3418C76.6734 82.3418 76.6768 82.3425 76.68 82.344V82.358L76.606 82.498C76.6023 82.5001 76.5982 82.5012 76.594 82.5012C76.5898 82.5012 76.5856 82.5001 76.582 82.498V82.486L76.598 82.458ZM76.612 82.432L76.638 82.382L76.574 82.412L76.612 82.432Z" fill="white"/>
<path d="M76.8339 82.4599L76.7959 82.4379L76.6819 82.5379C76.678 82.5402 76.6735 82.5414 76.6689 82.5414C76.6643 82.5414 76.6599 82.5402 76.6559 82.5379C76.6542 82.5371 76.6528 82.5358 76.6518 82.5342C76.6508 82.5326 76.6503 82.5308 76.6503 82.5289C76.6503 82.527 76.6508 82.5252 76.6518 82.5236C76.6528 82.522 76.6542 82.5207 76.6559 82.5199L76.7699 82.4199L76.7339 82.3999C76.7322 82.3991 76.7308 82.3978 76.7298 82.3962C76.7288 82.3946 76.7283 82.3928 76.7283 82.3909C76.7283 82.389 76.7288 82.3872 76.7298 82.3856C76.7308 82.384 76.7322 82.3827 76.7339 82.3819C76.7379 82.3796 76.7423 82.3784 76.7469 82.3784C76.7515 82.3784 76.756 82.3796 76.7599 82.3819L76.8599 82.4379C76.8616 82.4387 76.863 82.44 76.864 82.4416C76.865 82.4432 76.8655 82.445 76.8655 82.4469C76.8655 82.4488 76.865 82.4506 76.864 82.4522C76.863 82.4538 76.8616 82.4551 76.8599 82.4559C76.8562 82.4585 76.8519 82.4602 76.8474 82.4609C76.8429 82.4616 76.8383 82.4613 76.8339 82.4599Z" fill="white"/>
<path d="M72.8259 83.7698L75.1159 85.0358L75.7759 84.4618L73.4859 83.1958L72.8259 83.7698Z" fill="#455A64"/>
<path d="M75.328 85.1539L75.116 85.0359L75.318 84.8599L75.328 85.1539Z" fill="#455A64"/>
<path d="M75.518 84.4999L73.49 83.3779L73.504 83.3679L75.53 84.4879L75.518 84.4999Z" fill="white"/>
<path d="M75.03 84.3258L73.424 83.4378L73.4359 83.4258L75.042 84.3138L75.03 84.3258Z" fill="white"/>
<path d="M75.148 84.5839L73.288 83.5559L73.3 83.5439L75.16 84.5739L75.148 84.5839Z" fill="white"/>
<path d="M75.248 84.736L73.22 83.614L73.232 83.604L75.26 84.724L75.248 84.736Z" fill="white"/>
<path d="M75.18 84.7939L73.152 83.6739L73.166 83.6619L75.192 84.7839L75.18 84.7939Z" fill="white"/>
<path d="M74.5499 84.5419L73.0859 83.7319L73.0979 83.7219L74.5619 84.5319L74.5499 84.5419Z" fill="white"/>
<path d="M71.2699 85.126L73.5599 86.392L74.2179 85.818L71.9299 84.552L71.2699 85.126Z" fill="#455A64"/>
<path d="M73.7719 86.5098L73.5599 86.3918L73.7619 86.2158L73.7719 86.5098Z" fill="#455A64"/>
<path d="M73.962 85.8559L71.934 84.7339L71.946 84.7239L73.974 85.8439L73.962 85.8559Z" fill="white"/>
<path d="M73.472 85.682L71.866 84.794L71.88 84.782L73.486 85.67L73.472 85.682Z" fill="white"/>
<path d="M73.5919 85.9399L71.7319 84.9119L71.7439 84.8999L73.6039 85.9279L73.5919 85.9399Z" fill="white"/>
<path d="M73.6899 86.09L71.6639 84.97L71.6759 84.96L73.7039 86.08L73.6899 86.09Z" fill="white"/>
<path d="M73.6239 86.1498L71.5959 85.0298L71.6079 85.0178L73.6359 86.1378L73.6239 86.1498Z" fill="white"/>
<path d="M72.994 85.8979L71.528 85.0879L71.542 85.0779L73.006 85.8879L72.994 85.8979Z" fill="white"/>
<path d="M76.6419 84.01L74.3519 82.744L74.9079 82.26L77.1979 83.526L76.6419 84.01Z" fill="#3DAA5F"/>
<path d="M74.1399 82.6259L74.3519 82.7439L74.5539 82.5679L74.1399 82.6259Z" fill="#3DAA5F"/>
<path d="M76.6139 83.3679L74.9259 82.4339L74.9399 82.4219L76.6279 83.3559L76.6139 83.3679Z" fill="white"/>
<path d="M76.8859 83.6139L74.8579 82.4919L74.8719 82.4819L76.8979 83.6019L76.8859 83.6139Z" fill="white"/>
<path d="M76.818 83.6718L74.792 82.5518L74.804 82.5398L76.83 83.6618L76.818 83.6718Z" fill="white"/>
<path d="M76.59 83.6419L74.724 82.6099L74.736 82.5999L76.602 83.6319L76.59 83.6419Z" fill="white"/>
<path d="M76.682 83.79L74.656 82.67L74.668 82.658L76.696 83.78L76.682 83.79Z" fill="white"/>
<path d="M76.086 83.5558L74.588 82.7278L74.6 82.7178L76.098 83.5458L76.086 83.5558Z" fill="white"/>
<path d="M76.138 84.4478L73.85 83.1818L74.262 82.8218L76.552 84.0878L76.138 84.4478Z" fill="#3DAA5F"/>
<path d="M73.6379 83.0639L73.8499 83.1819L74.0519 83.0059L73.6379 83.0639Z" fill="#3DAA5F"/>
<path d="M76.3039 84.1138L74.2799 82.9958L74.2939 82.9858L76.3159 84.1038L76.3039 84.1138Z" fill="white"/>
<path d="M75.8779 83.9759L74.2119 83.0559L74.2259 83.0439L75.8899 83.9659L75.8779 83.9759Z" fill="white"/>
<path d="M75.978 84.128L74.146 83.114L74.158 83.104L75.99 84.116L75.978 84.128Z" fill="white"/>
<path d="M75.492 83.9539L74.078 83.1739L74.09 83.1619L75.504 83.9439L75.492 83.9539Z" fill="white"/>
<path d="M74.5859 85.7998L72.2959 84.5338L72.8779 84.0278L75.1659 85.2938L74.5859 85.7998Z" fill="#3DAA5F"/>
<path d="M72.084 84.4179L72.296 84.5339L72.498 84.3579L72.084 84.4179Z" fill="#3DAA5F"/>
<path d="M74.6099 85.436L72.6959 84.378L72.7079 84.366L74.6219 85.424L74.6099 85.436Z" fill="white"/>
<path d="M74.3859 85.4078L72.6279 84.4358L72.6399 84.4258L74.3979 85.3978L74.3859 85.4078Z" fill="white"/>
<path d="M74.634 85.2558L72.83 84.2598L72.844 84.2478L74.648 85.2458L74.634 85.2558Z" fill="white"/>
<path d="M74.8999 85.3079L72.8979 84.1999L72.9099 84.1899L74.9119 85.2959L74.8999 85.3079Z" fill="white"/>
<path d="M74.3799 85.5019L72.5599 84.4959L72.5719 84.4839L74.3939 85.4899L74.3799 85.5019Z" fill="white"/>
<path d="M73.1159 87.0798L70.8259 85.8138L71.3119 85.3918L73.5999 86.6578L73.1159 87.0798Z" fill="#3DAA5F"/>
<path d="M70.614 85.6979L70.826 85.8139L71.03 85.6379L70.614 85.6979Z" fill="#3DAA5F"/>
<path d="M73.36 86.684L71.334 85.564L71.346 85.552L73.374 86.674L73.36 86.684Z" fill="white"/>
<path d="M73.294 86.7418L71.266 85.6218L71.278 85.6118L73.306 86.7318L73.294 86.7418Z" fill="white"/>
<path d="M73.064 86.7139L71.198 85.6819L71.212 85.6699L73.078 86.7019L73.064 86.7139Z" fill="white"/>
<path d="M73.158 86.86L71.132 85.74L71.144 85.73L73.17 86.85L73.158 86.86Z" fill="white"/>
<path d="M72.562 86.6258L71.064 85.7998L71.076 85.7878L72.574 86.6158L72.562 86.6258Z" fill="white"/>
<path d="M71.9 88.428C71.018 88.278 74.21 87.028 74.438 86.028C74.666 85.028 73.638 85.168 72.76 85.59C69.724 87.056 67.728 86.59 66.024 88.208C64.32 89.826 71.9 88.428 71.9 88.428Z" fill="#F7A9A0"/>
<path d="M69.46 86.714C68.8593 86.7509 68.2658 86.8645 67.694 87.052C67.1742 87.2553 66.6987 87.5576 66.294 87.942C66.276 87.958 66.294 87.99 66.316 87.974C67.202 87.222 68.354 86.974 69.458 86.74C69.478 86.736 69.476 86.712 69.46 86.714Z" fill="#263238"/>
<path d="M58.7999 88.5999C59.4479 88.9119 64.4579 88.4919 64.4579 88.4919L65.9299 95.4659C65.9299 95.4659 57.2719 95.8539 55.4599 94.8219C53.6479 93.7899 51.8599 86.6479 51.5939 82.6419C51.3459 78.8759 52.9939 76.7579 54.8779 80.9599C54.8779 80.9539 58.4599 88.4299 58.7999 88.5999Z" fill="#37474F"/>
<path d="M64.352 95.5098C63.798 95.5198 63.134 95.5298 62.416 95.5318L61.168 88.6878C61.818 88.6658 62.498 88.6258 63.068 88.5898C63.456 90.6738 63.928 93.1998 64.352 95.5098Z" fill="#3DAA5F"/>
<path d="M61.666 95.5259H61.046L59.798 88.7139H60.398C60.784 90.7539 61.246 93.2419 61.666 95.5259Z" fill="#3DAA5F"/>
<path d="M55.3959 94.5998C53.9259 93.4658 52.7339 88.7438 52.5079 87.8178C52.3639 87.2178 52.2419 86.6278 52.1239 86.0298C51.8899 84.8298 51.6919 83.6298 51.5239 82.4298C51.5239 82.4256 51.5222 82.4215 51.5192 82.4185C51.5162 82.4155 51.5122 82.4138 51.5079 82.4138C51.5037 82.4138 51.4996 82.4155 51.4966 82.4185C51.4936 82.4215 51.4919 82.4256 51.4919 82.4298C51.5419 83.3458 51.6379 84.2618 51.7759 85.1718C51.6396 84.8162 51.5241 84.4529 51.4299 84.0838C51.4299 84.0658 51.3959 84.0838 51.3979 84.0838C51.4809 84.5175 51.6152 84.9398 51.7979 85.3418C51.9419 86.2558 52.1279 87.1638 52.3579 88.0598C52.4259 88.3178 53.7479 94.0758 55.4699 94.9098C56.0699 95.1978 58.2559 95.4438 58.7339 95.4258C58.7539 95.4258 58.7639 95.4018 58.7339 95.3958C58.1199 95.2658 55.9199 94.9998 55.3959 94.5998Z" fill="#263238"/>
<path d="M64.2839 94.3418C64.2459 94.1038 64.2039 93.8659 64.1639 93.6279C64.0819 93.1519 63.5759 90.3178 63.2959 89.4098C63.2938 89.4052 63.2901 89.4014 63.2856 89.3992C63.281 89.397 63.2758 89.3964 63.2708 89.3976C63.2658 89.3988 63.2615 89.4016 63.2584 89.4057C63.2553 89.4097 63.2537 89.4148 63.2539 89.4198C63.3279 90.3718 63.8999 93.1818 63.9979 93.6459C64.0459 93.8839 64.0979 94.1198 64.1499 94.3578C64.2019 94.5958 64.2819 94.8278 64.3339 95.0658C64.3339 95.0878 64.3759 95.0858 64.3719 95.0658C64.3319 94.8238 64.3219 94.5818 64.2839 94.3418Z" fill="#263238"/>
<path d="M64.458 88.4979C64.058 88.4419 60.338 88.6059 59.518 88.6359C59.318 88.6639 59.1145 88.6544 58.918 88.6079C58.7371 88.5147 58.5952 88.3601 58.518 88.1719C58.318 87.8319 56.214 83.6259 56.046 83.4059C55.982 83.3239 55.924 83.2999 55.974 83.4299C56.062 83.6519 58.096 87.7979 58.288 88.1299C58.48 88.4619 58.632 88.7579 59.018 88.8139C59.19 88.8379 64.2 88.6559 64.454 88.5999C64.5 88.5999 64.52 88.5059 64.458 88.4979Z" fill="#263238"/>
<defs>
<linearGradient id="paint0_linear_1128_6840" x1="63.5" y1="0" x2="63.5" y2="125" gradientUnits="userSpaceOnUse">
<stop stop-color="#88FFAD" stop-opacity="0.19"/>
<stop offset="1" stop-color="#33CC7A"/>
</linearGradient>
</defs>
</svg>
