<svg width="40" height="40" viewBox="0 0 40 40" fill="none" xmlns="http://www.w3.org/2000/svg">
<g clip-path="url(#clip0_198_250)">
<path d="M39.0697 9.13681C38.9841 9.00657 38.8502 8.91579 38.6975 8.88431L31.2081 7.33985C31.0508 7.30719 30.887 7.34071 30.755 7.43212C30.6229 7.52345 30.5341 7.66509 30.509 7.82368L26.2143 35.028L24.6373 34.779C24.4675 34.7523 24.2945 34.8011 24.1638 34.9127C24.0331 35.0244 23.9579 35.1876 23.9579 35.3595C23.9579 35.3595 23.8791 37.6201 23.8695 37.7138C23.8389 38.0137 24.0402 38.2882 24.3355 38.3491L32.2835 39.988C32.3228 39.9962 32.3627 40.0001 32.4023 40.0001C32.5162 40.0001 32.6288 39.967 32.7253 39.9034C32.8555 39.8176 32.9463 39.6838 32.9779 39.5311L39.1547 9.57845C39.186 9.42587 39.1555 9.26704 39.0697 9.13681Z" fill="#F94A46"/>
<path d="M32.966 7.70235L31.2081 7.33985C31.0508 7.30719 30.887 7.34071 30.755 7.43212C30.6229 7.52345 30.5341 7.66509 30.509 7.82368L26.2143 35.028L24.6373 34.779C24.4675 34.7523 24.2945 34.8011 24.1638 34.9127C24.0331 35.0244 23.9579 35.1876 23.9579 35.3595C23.9579 35.3595 23.8791 37.6201 23.8695 37.7138C23.8389 38.0137 24.0402 38.2882 24.3355 38.3491L28.0083 39.1065L32.966 7.70235Z" fill="#C43B3B"/>
<path d="M32.1524 3.84786C32.0607 3.72185 31.9227 3.63732 31.7688 3.61302L8.92715 0.00715402C8.77324 -0.0170648 8.61582 0.0207478 8.48988 0.112389C8.36379 0.204029 8.27941 0.342077 8.25504 0.495983L7.42004 5.78506C7.39324 5.95474 7.44207 6.12779 7.55371 6.25842C7.66535 6.38912 7.82863 6.46435 8.00051 6.46435H23.9579V35.3593C23.9579 35.6485 24.1683 35.8946 24.4539 35.9398L26.6114 36.2804C26.642 36.2853 26.6725 36.2876 26.703 36.2876C26.8265 36.2876 26.9476 36.2488 27.0487 36.1753C27.1748 36.0836 27.2591 35.9456 27.2835 35.7917L32.2575 4.28521C32.2819 4.1313 32.244 3.97396 32.1524 3.84786Z" fill="#9FBC22"/>
<path d="M7.42002 5.78498C7.38283 6.02084 7.49158 6.26287 7.71198 6.38905C7.80385 6.4417 7.91002 6.46428 8.01596 6.46428H23.9579V35.3593C23.9579 35.6484 24.1683 35.8946 24.454 35.9397L26.2304 36.2202V5.03303C26.2304 4.63693 25.9094 4.31592 25.5133 4.31592H7.65198L7.42002 5.78498Z" fill="#96AA21"/>
<path d="M24.5457 5.28906H1.42115C1.09662 5.28906 0.833496 5.55219 0.833496 5.87672V31.9561C0.833496 32.1919 0.974356 32.4049 1.19131 32.497L14.8836 38.3141C14.9563 38.345 15.0345 38.3609 15.1134 38.3609H24.5457C24.8703 38.3609 25.1333 38.0978 25.1333 37.7733V5.87672C25.1333 5.55211 24.8702 5.28906 24.5457 5.28906Z" fill="#FFBB33"/>
<path d="M15.6786 37.6125L13.5485 30.1266C13.468 29.8436 13.1906 29.6639 12.8994 29.7057L1.33701 31.3746C1.07607 31.4122 0.872088 31.619 0.838182 31.8805C0.804198 32.1419 0.948495 32.394 1.19115 32.4971L14.8834 38.3142C14.9574 38.3456 15.0356 38.361 15.1132 38.361C15.2538 38.361 15.3927 38.3105 15.5022 38.2139C15.6719 38.0641 15.7405 37.8303 15.6786 37.6125Z" fill="#EF9506"/>
</g>
<defs>
<clipPath id="clip0_198_250">
<rect width="40" height="40" fill="white"/>
</clipPath>
</defs>
</svg>
