<svg width="38" height="40" viewBox="0 0 38 40" fill="none" xmlns="http://www.w3.org/2000/svg">
<path d="M37.5569 30.3448C35.4466 23.2483 34.0121 7.36553 33.5638 1.89656C33.4739 0.821731 32.5734 -0.00373834 31.4948 1.2733e-05H29.7017C29.4606 -1.67015e-05 29.2641 0.193426 29.2604 0.434496V0.779323C28.7086 13.9242 9.15001 13.9242 8.5707 0.779323C8.5707 0.662082 8.5707 0.551737 8.5707 0.434496C8.56754 0.20377 8.3872 0.0144128 8.15691 1.2733e-05H6.3638C5.28522 -0.00373834 4.38471 0.821731 4.29484 1.89656C3.86035 7.36553 2.42587 23.2483 0.315527 30.3448C-0.146542 31.9035 -1.06378 38.6207 5.83277 39.3104C12.7293 40 18.2466 40 18.2466 40H19.6259C19.6259 40 25.1431 40 32.0397 39.3104C38.9362 38.6207 38.019 31.9035 37.5569 30.3448Z" fill="#84B5CB"/>
<path d="M29.281 0.800049C28.7223 20 9.14993 20 8.59131 0.800049C9.15683 13.9449 28.7154 13.9449 29.281 0.800049Z" fill="#3B97D3" fill-opacity="0.15"/>
<path d="M6.10859 37.2414H6.03963C3.71549 37.0069 3.01894 35.9724 2.78445 35.6276C1.79825 34.1517 2.03273 31.8207 2.3017 30.9241C2.35532 30.6698 2.54741 30.4672 2.79856 30.4001C3.0497 30.333 3.31723 30.4128 3.49054 30.6066C3.66385 30.8003 3.71349 31.0751 3.61894 31.3172C3.40514 32.0069 3.27411 33.8759 3.93618 34.8621C4.07411 35.069 4.4948 35.6965 6.17756 35.8621C6.35959 35.8812 6.52656 35.9719 6.64169 36.1142C6.75681 36.2564 6.81065 36.4387 6.79135 36.6207C6.75607 36.9718 6.46145 37.2396 6.10859 37.2414Z" fill="#9FC9D3"/>
<path d="M31.7637 37.2415C31.4082 37.2432 31.1096 36.9745 31.0741 36.6208C31.0549 36.4377 31.1096 36.2545 31.2262 36.112C31.3428 35.9695 31.5115 35.8796 31.6948 35.8622C33.3775 35.6966 33.7637 35.069 33.9362 34.8622C34.6258 33.8759 34.4672 32.0346 34.2534 31.3173C34.1998 31.1417 34.2184 30.952 34.3052 30.7902C34.3919 30.6284 34.5396 30.5078 34.7155 30.4553C35.0811 30.3486 35.464 30.5586 35.5706 30.9242C35.8396 31.8208 36.0741 34.1518 35.0879 35.6277C34.8534 35.9725 34.1568 37.007 31.8327 37.2415H31.7637Z" fill="#9FC9D3"/>
</svg>
