<svg width="4889" height="1433" viewBox="0 0 4889 1433" fill="none" xmlns="http://www.w3.org/2000/svg">
<g filter="url(#filter0_d_344_3193)">
<path d="M800.676 1.15918C817.136 1.40177 830.171 15.1449 829.542 31.5948C828.933 47.5386 815.686 60.0683 799.733 59.7903L752.182 58.9614L814.063 433.688H1130C1146.57 433.688 1160 447.119 1160 463.688C1160 464.477 1159.97 465.258 1159.91 466.032C1159.94 469.26 1159.18 472.55 1157.53 475.623C1156.6 477.781 1155.41 479.806 1154.02 481.665L1095.45 581.971C1094.45 583.683 1093.24 585.191 1091.86 586.482C1086.47 594.45 1077.35 599.688 1067 599.688H85.169L145.404 953.688H167.744C184.312 953.688 197.744 967.119 197.744 983.688C197.744 1000.26 184.312 1013.69 167.744 1013.69H118.285C103.114 1013.69 90.5852 1001.84 89.7437 986.688L89.5151 982.575L22.869 586.51C22.5981 584.9 22.4846 583.303 22.5168 581.734C20.8983 578.047 20 573.972 20 569.688C20 553.119 33.4315 539.688 50 539.688H1050.99L1078.37 493.688H798C789.906 493.688 782.561 490.483 777.165 485.273C767.781 479.733 760.944 470.233 759.059 458.871L689.94 42.3115C689.467 39.4614 689.42 36.648 689.751 33.9326C689.653 32.6937 689.64 31.4322 689.719 30.1544C690.776 13.0257 705.106 -0.249345 722.266 0.00355381L800.676 1.15918Z" fill="#232323"/>
<path d="M1030 234.034C1030 212.771 1047.24 195.534 1068.5 195.534H1595.5C1616.76 195.534 1634 212.771 1634 234.034C1634 234.725 1633.98 235.412 1633.95 236.095C1634.26 241.418 1633.08 246.927 1630.13 252.002L1293.53 832.331C1290.96 836.76 1287.64 840.48 1283.82 843.425C1276.84 853.178 1265.41 859.534 1252.5 859.534H977.765L1036.51 925.627L1112.71 925.768C1116.15 925.774 1119.48 926.23 1122.64 927.079C1130.46 927.397 1138.25 930.103 1144.86 935.334L1642.64 1329.66C1661.27 1344.41 1660.42 1372.94 1640.97 1386.56C1628.2 1395.5 1611.11 1395.07 1598.81 1385.51L1106.69 1002.76L1024.5 1002.61C1020.85 1002.6 1017.32 1002.08 1013.97 1001.13C1004.78 1000.14 995.921 995.872 989.301 988.423L867.576 851.463C862.076 845.274 858.934 837.805 858.088 830.158C857.377 827.233 857 824.178 857 821.034C857 799.771 874.237 782.534 895.5 782.534H1234.06L1537.6 272.534H1068.5C1047.24 272.534 1030 255.297 1030 234.034Z" fill="#232323"/>
<path d="M359.66 1000.63C357.46 1000.63 355.847 999.681 354.82 997.774L315.66 929.574C314.633 927.961 313.68 926.347 312.8 924.734C312.067 923.121 311.26 921.434 310.38 919.674L309.5 919.894C309.793 921.801 309.94 923.781 309.94 925.834V1039.13C309.94 1042.36 307.007 1043.97 301.14 1043.97H299.6C293.733 1043.97 290.8 1042.36 290.8 1039.13V893.934C290.8 890.707 293.733 889.094 299.6 889.094H307.52C310.16 889.094 312.213 889.461 313.68 890.194C315.147 890.927 316.173 891.881 316.76 893.054L358.34 965.214C359.513 967.121 360.613 969.321 361.64 971.814C362.667 974.307 363.473 976.727 364.06 979.074C364.793 976.581 365.82 974.014 367.14 971.374C368.607 968.587 369.853 966.314 370.88 964.554L411.36 893.054C412.093 891.881 413.12 890.927 414.44 890.194C415.907 889.461 417.96 889.094 420.6 889.094H427.86C433.727 889.094 436.66 890.707 436.66 893.934V1039.13C436.66 1042.36 433.727 1043.97 427.86 1043.97H426.32C420.453 1043.97 417.52 1042.36 417.52 1039.13V927.154C417.667 925.101 417.813 923.121 417.96 921.214L417.08 920.994C416.2 922.754 415.32 924.441 414.44 926.054C413.707 927.667 412.827 929.281 411.8 930.894L373.3 997.774C372.273 999.681 370.66 1000.63 368.46 1000.63H359.66Z" fill="#232323"/>
<path fill-rule="evenodd" clip-rule="evenodd" d="M468.51 1043.97C462.203 1043.97 459.05 1042.73 459.05 1040.23C459.05 1039.79 459.124 1039.35 459.27 1038.91L459.71 1037.15L511.85 892.614C512.583 890.267 515.517 889.094 520.65 889.094H527.03C532.164 889.094 535.097 890.267 535.83 892.614L587.97 1037.37C588.41 1038.4 588.63 1039.35 588.63 1040.23C588.63 1042.73 585.477 1043.97 579.17 1043.97H577.41C575.21 1043.97 573.303 1043.75 571.69 1043.31C570.077 1042.73 569.05 1041.77 568.61 1040.45L555.63 1004.37H490.95L478.41 1040.45C477.97 1041.77 476.943 1042.73 475.33 1043.31C473.717 1043.75 471.81 1043.97 469.61 1043.97H468.51ZM497.11 987.654H549.69L526.59 922.094C526.003 920.041 525.49 917.914 525.05 915.714C524.61 913.514 524.243 911.387 523.95 909.334H523.51C523.07 911.387 522.557 913.514 521.97 915.714C521.53 917.914 520.943 920.041 520.21 922.094L497.11 987.654Z" fill="#232323"/>
<path fill-rule="evenodd" clip-rule="evenodd" d="M621.472 1043.97C615.605 1043.97 612.672 1042.36 612.672 1039.13V896.134C612.672 891.734 614.872 889.534 619.272 889.534H656.232C673.392 889.534 686.519 892.541 695.612 898.554C704.705 904.567 709.252 914.541 709.252 928.474C709.252 937.861 706.979 945.634 702.432 951.794C697.885 957.954 691.725 962.574 683.952 965.654V966.534C688.645 968.001 692.385 971.154 695.172 975.994C698.105 980.687 700.965 986.701 703.752 994.034L720.912 1037.37C721.352 1038.69 721.572 1039.72 721.572 1040.45C721.572 1042.8 718.492 1043.97 712.332 1043.97H710.132C707.932 1043.97 706.025 1043.68 704.412 1043.09C702.799 1042.36 701.772 1041.48 701.332 1040.45L684.612 997.334C681.385 988.681 677.279 982.961 672.292 980.174C667.305 977.241 660.485 975.774 651.832 975.774H632.032V1039.13C632.032 1042.36 629.099 1043.97 623.232 1043.97H621.472ZM632.032 959.054H661.072C666.352 959.054 671.119 957.807 675.372 955.314C679.625 952.821 682.999 949.521 685.492 945.414C687.985 941.307 689.232 936.834 689.232 931.994C689.232 923.047 686.519 916.521 681.092 912.414C675.665 908.307 668.479 906.254 659.532 906.254H632.032V959.054Z" fill="#232323"/>
<path d="M785.449 1043.97C779.583 1043.97 776.649 1042.36 776.649 1039.13V906.254H734.409C731.476 906.254 730.009 904.054 730.009 899.654V896.134C730.009 891.734 731.476 889.534 734.409 889.534H837.589C840.523 889.534 841.989 891.734 841.989 896.134V899.654C841.989 904.054 840.523 906.254 837.589 906.254H796.009V1039.13C796.009 1042.36 793.076 1043.97 787.209 1043.97H785.449Z" fill="#232323"/>
<path d="M1768.2 1047.53C1768.2 1065.53 1777.2 1074.53 1795.2 1074.53H2110.2C2122.2 1074.53 2128.2 1065.53 2128.2 1047.53V1033.13C2128.2 1015.13 2122.2 1006.13 2110.2 1006.13H1847.4V786.534H2082.3C2094.3 786.534 2100.3 777.534 2100.3 759.534V745.134C2100.3 727.134 2094.3 718.134 2082.3 718.134H1847.4V512.934H2109.3C2121.3 512.934 2127.3 503.934 2127.3 485.934V471.534C2127.3 453.534 2121.3 444.534 2109.3 444.534H1795.2C1777.2 444.534 1768.2 453.534 1768.2 471.534V1047.53Z" fill="#232323"/>
<path d="M2293.71 1002.53C2341.11 1054.13 2414.01 1079.93 2512.41 1079.93C2535.21 1079.93 2556.51 1078.13 2576.31 1074.53C2596.11 1071.53 2613.81 1067.33 2629.41 1061.93C2645.61 1056.53 2659.11 1050.83 2669.91 1044.83C2678.91 1040.03 2685.81 1034.93 2690.61 1029.53C2696.01 1024.13 2698.71 1019.33 2698.71 1015.13C2698.71 1011.53 2696.91 1005.83 2693.31 998.034C2689.71 990.234 2685.51 983.034 2680.71 976.434C2675.91 969.834 2671.41 966.534 2667.21 966.534C2663.61 966.534 2655.21 970.434 2642.01 978.234C2629.41 985.434 2612.31 992.934 2590.71 1000.73C2569.71 1007.93 2543.61 1011.53 2512.41 1011.53C2441.61 1011.53 2389.11 991.434 2354.91 951.234C2321.31 910.434 2304.51 846.834 2304.51 760.434C2304.51 671.634 2321.61 607.434 2355.81 567.834C2390.61 527.634 2444.01 507.534 2516.01 507.534C2544.81 507.534 2568.81 510.834 2588.01 517.434C2607.81 524.034 2623.11 530.634 2633.91 537.234C2645.31 543.834 2652.51 547.134 2655.51 547.134C2659.71 547.134 2663.91 543.834 2668.11 537.234C2672.91 530.634 2677.11 523.134 2680.71 514.734C2684.31 506.334 2686.11 499.734 2686.11 494.934C2686.11 487.734 2678.91 479.934 2664.51 471.534C2654.31 465.534 2641.41 460.134 2625.81 455.334C2610.21 450.534 2592.81 446.634 2573.61 443.634C2554.41 440.634 2534.61 439.134 2514.21 439.134C2319.81 439.134 2222.61 545.934 2222.61 759.534C2222.61 869.334 2246.31 950.334 2293.71 1002.53Z" fill="#232323"/>
<path d="M2940.04 1056.53C2940.04 1069.73 2952.04 1076.33 2976.04 1076.33H2983.24C3007.24 1076.33 3019.24 1069.73 3019.24 1056.53V754.134L3208.24 474.234C3210.04 471.234 3211.54 468.534 3212.74 466.134C3214.54 463.134 3215.44 460.434 3215.44 458.034C3215.44 448.434 3203.74 443.334 3180.34 442.734H3174.04C3165.04 442.734 3156.64 443.634 3148.84 445.434C3141.64 447.234 3136.54 450.534 3133.54 455.334L2982.34 677.634L2834.74 456.234C2831.14 450.834 2826.04 447.234 2819.44 445.434C2813.44 443.634 2805.64 442.734 2796.04 442.734H2786.14C2771.14 442.734 2760.34 444.234 2753.74 447.234C2747.74 449.634 2744.74 453.234 2744.74 458.034C2744.74 462.234 2747.14 467.634 2751.94 474.234L2940.04 751.434V1056.53Z" fill="#232323"/>
<path d="M3319.47 1047.53C3319.47 1065.53 3328.47 1074.53 3346.47 1074.53H3661.47C3673.47 1074.53 3679.47 1065.53 3679.47 1047.53V1033.13C3679.47 1015.13 3673.47 1006.13 3661.47 1006.13H3398.67V786.534H3633.57C3645.57 786.534 3651.57 777.534 3651.57 759.534V745.134C3651.57 727.134 3645.57 718.134 3633.57 718.134H3398.67V512.934H3660.57C3672.57 512.934 3678.57 503.934 3678.57 485.934V471.534C3678.57 453.534 3672.57 444.534 3660.57 444.534H3346.47C3328.47 444.534 3319.47 453.534 3319.47 471.534V1047.53Z" fill="#232323"/>
<path d="M3844.98 1002.53C3892.38 1054.13 3965.28 1079.93 4063.68 1079.93C4086.48 1079.93 4107.78 1078.13 4127.58 1074.53C4147.38 1071.53 4165.08 1067.33 4180.68 1061.93C4196.88 1056.53 4210.38 1050.83 4221.18 1044.83C4230.18 1040.03 4237.08 1034.93 4241.88 1029.53C4247.28 1024.13 4249.98 1019.33 4249.98 1015.13C4249.98 1011.53 4248.18 1005.83 4244.58 998.034C4240.98 990.234 4236.78 983.034 4231.98 976.434C4227.18 969.834 4222.68 966.534 4218.48 966.534C4214.88 966.534 4206.48 970.434 4193.28 978.234C4180.68 985.434 4163.58 992.934 4141.98 1000.73C4120.98 1007.93 4094.88 1011.53 4063.68 1011.53C3992.88 1011.53 3940.38 991.434 3906.18 951.234C3872.58 910.434 3855.78 846.834 3855.78 760.434C3855.78 671.634 3872.88 607.434 3907.08 567.834C3941.88 527.634 3995.28 507.534 4067.28 507.534C4096.08 507.534 4120.08 510.834 4139.28 517.434C4159.08 524.034 4174.38 530.634 4185.18 537.234C4196.58 543.834 4203.78 547.134 4206.78 547.134C4210.98 547.134 4215.18 543.834 4219.38 537.234C4224.18 530.634 4228.38 523.134 4231.98 514.734C4235.58 506.334 4237.38 499.734 4237.38 494.934C4237.38 487.734 4230.18 479.934 4215.78 471.534C4205.58 465.534 4192.68 460.134 4177.08 455.334C4161.48 450.534 4144.08 446.634 4124.88 443.634C4105.68 440.634 4085.88 439.134 4065.48 439.134C3871.08 439.134 3773.88 545.934 3773.88 759.534C3773.88 869.334 3797.58 950.334 3844.98 1002.53Z" fill="#232323"/>
<path fill-rule="evenodd" clip-rule="evenodd" d="M4384.63 998.034C4432.03 1052.63 4500.73 1079.93 4590.73 1079.93C4681.33 1079.93 4750.33 1052.63 4797.73 998.034C4845.13 942.834 4868.83 862.734 4868.83 757.734C4868.83 652.134 4845.13 572.634 4797.73 519.234C4750.33 465.834 4681.33 439.134 4590.73 439.134C4500.73 439.134 4432.03 465.834 4384.63 519.234C4337.23 572.634 4313.53 652.134 4313.53 757.734C4313.53 862.734 4337.23 942.834 4384.63 998.034ZM4736.53 946.734C4702.93 989.934 4654.33 1011.53 4590.73 1011.53C4527.13 1011.53 4478.53 989.934 4444.93 946.734C4411.93 903.534 4395.43 840.534 4395.43 757.734C4395.43 674.934 4411.93 612.534 4444.93 570.534C4478.53 528.534 4527.13 507.534 4590.73 507.534C4654.33 507.534 4702.93 528.534 4736.53 570.534C4770.13 612.534 4786.93 674.934 4786.93 757.734C4786.93 840.534 4770.13 903.534 4736.53 946.734Z" fill="#232323"/>
</g>
<defs>
<filter id="filter0_d_344_3193" x="0" y="0" width="4888.83" height="1432.99" filterUnits="userSpaceOnUse" color-interpolation-filters="sRGB">
<feFlood flood-opacity="0" result="BackgroundImageFix"/>
<feColorMatrix in="SourceAlpha" type="matrix" values="0 0 0 0 0 0 0 0 0 0 0 0 0 0 0 0 0 0 127 0" result="hardAlpha"/>
<feOffset dy="20"/>
<feGaussianBlur stdDeviation="10"/>
<feComposite in2="hardAlpha" operator="out"/>
<feColorMatrix type="matrix" values="0 0 0 0 0 0 0 0 0 0 0 0 0 0 0 0 0 0 0.25 0"/>
<feBlend mode="normal" in2="BackgroundImageFix" result="effect1_dropShadow_344_3193"/>
<feBlend mode="normal" in="SourceGraphic" in2="effect1_dropShadow_344_3193" result="shape"/>
</filter>
</defs>
</svg>
