<svg width="663" height="763" viewBox="0 0 663 763" fill="none" xmlns="http://www.w3.org/2000/svg">
<g clip-path="url(#clip0_396_880)">
<rect x="73.5" y="1.5" width="528" height="760" rx="28.5" fill="#F8F8F8" fill-opacity="0.6" stroke="#F8F8F8" stroke-width="3"/>
<g clip-path="url(#clip1_396_880)">
<path d="M628.63 415.082C628.213 414.84 627.783 414.62 627.34 414.423C620.63 411.462 615.19 413.829 611.99 418.283C608.79 422.738 607.84 425.104 605.6 423.035C603.36 420.965 599.84 417.986 594.73 420.659C589.62 423.331 590.57 425.995 587.73 426.589C584.89 427.183 582.94 424.51 578.46 425.401C573.98 426.292 571.46 429.558 570.46 430.152C569.46 430.746 561.82 433.419 561.82 433.419H661.26C661.26 433.419 659.67 425.067 654.55 422.738C649.43 420.408 645.6 424.51 642.72 426.292C639.84 428.074 639.2 426.589 639.2 426.589C637.368 423.436 635.091 420.525 632.43 417.931" stroke="#263238" stroke-linecap="round" stroke-linejoin="round"/>
<path d="M269.93 424.501C269.515 424.259 269.084 424.042 268.64 423.851C261.93 420.882 256.49 423.257 253.29 427.702C250.09 432.147 249.14 434.532 246.9 432.454C244.66 430.375 241.14 427.424 236 430.078C230.86 432.732 231.84 435.423 229 436.008C226.16 436.593 224.2 433.92 219.72 434.848C215.24 435.776 212.72 438.996 211.72 439.59C210.72 440.184 203.09 442.857 203.09 442.857H302.53C302.53 442.857 300.93 434.505 295.81 432.175C290.69 429.846 286.87 433.92 284 435.72C281.13 437.521 280.48 436.008 280.48 436.008C278.652 432.853 276.375 429.941 273.71 427.35" stroke="#263238" stroke-linecap="round" stroke-linejoin="round"/>
<path d="M257 347.449C256.202 346.99 255.377 346.572 254.53 346.196C241.65 340.507 231.23 345.055 225.1 353.62C218.97 362.186 217.1 366.705 212.83 362.724C208.56 358.743 201.83 353.054 191.98 358.177C182.13 363.299 183.98 368.385 178.49 369.554C173 370.723 169.29 365.573 160.71 367.28C152.13 368.988 147.21 375.215 145.37 376.384C143.53 377.553 128.81 382.639 128.81 382.639H319.52C319.52 382.639 316.46 366.705 306.64 362.158C296.82 357.611 289.47 365.545 284 368.96C278.53 372.375 277.26 369.526 277.26 369.526C273.746 363.475 269.373 357.888 264.26 352.915" stroke="#263238" stroke-linecap="round" stroke-linejoin="round"/>
<path d="M249 587.246C120.88 603.474 13.6 654.223 -57.7 723.842V764.818H692.06V692.804C581.93 609.389 417.65 565.935 249 587.246Z" fill="#6AE536" stroke="#263238" stroke-miterlimit="10"/>
<path d="M139.43 764.818L132.16 744.806L100.76 741.999L80.63 755.575C80.63 755.575 70.46 761.975 65.16 764.316C64.7497 764.503 64.3291 764.671 63.9 764.818H139.43Z" fill="white" stroke="#263238" stroke-miterlimit="10"/>
<path d="M141.06 762.953L133.79 742.941L102.39 740.134L82.26 753.71C82.26 753.71 72.09 760.11 66.79 762.46C66.4366 762.618 66.0166 762.783 65.53 762.953H141.06Z" fill="white" stroke="#263238" stroke-miterlimit="10"/>
<path d="M71.3 726.841L66.87 741.825L86.3 739.366L111.68 704.762L111.76 691.186L143.34 685.481L148.82 674.611L181.34 667.946L181.2 653.547L205 649.68C205 649.68 220.46 640.94 223.89 640.537C227.32 640.135 244.37 642.183 244.37 642.183L264 649.844L288 646.809L306.27 635.162L333 633.479C333 633.479 340.7 635.893 346.41 635.171C352.12 634.449 367.8 626.522 367.8 626.522L404.73 637.118L420.34 642.777L423.48 655.101L441.05 654.571L444.88 646.452L461 649.506L461.54 656.226L428.94 667.142L453 682.757L498.34 693.984L519.69 708.246L545.24 706.728L548.86 697.787L557.59 694.989L523.67 682.318L505 682.958L519 677.792L501.7 665.587L520.92 662.305L548.58 668.979L559.34 687.977L574.64 697.064L591 719.573L619.51 729.529L626.43 756.654L655.87 765.65L656.17 768H683.54L663 752.019L652.13 727.947L673.34 727.801L672.34 719.445L657.27 720.505L668.8 714.801L681.04 707.313L678.94 699.085L661.87 687.675L654.42 670.36C546.34 603.931 399.42 571.421 249 590.428C180.64 599.086 118.25 617.581 64.06 643.454L93.85 653.51L81.63 670.323L60.75 676.366L64.13 698.838L55.61 702.495L46.49 712.981L51.41 727.609L71.3 726.841Z" fill="white" stroke="#263238" stroke-miterlimit="10"/>
<path d="M71.3 723.669L66.87 738.653L86.3 736.194L111.68 701.59L111.76 688.004L143.34 682.309L148.82 671.438L181.34 664.774L181.2 650.365L205 646.507C205 646.507 220.46 637.758 223.89 637.365C227.32 636.972 244.37 639.01 244.37 639.01L264 646.663L288 643.646L306.27 631.998L333 630.289C333 630.289 340.7 632.711 346.41 631.989C352.12 631.267 367.8 623.34 367.8 623.34L404.73 633.936L420.34 639.596L423.48 651.919L441.05 651.389L444.88 643.271L461 646.324L461.54 653.035L428.93 663.951L453 679.575L498.34 690.793L519.69 705.064L545.25 703.519L548.87 694.578L557.6 691.78L523.68 679.109L504.97 679.776L518.97 674.611L501.7 662.378L520.92 659.096L548.58 665.77L559.34 684.786L574.64 693.874L591 716.382L619.51 726.347L626.43 753.464L655.88 762.496L656.18 764.846H683.55L663 748.838L652.13 724.766L673.34 724.62L672.34 716.263L657.27 717.315L668.8 711.619L681.04 704.131L678.94 695.903L661.87 684.494L654.42 667.178C546.34 600.75 399.42 568.194 249 587.246C180.68 595.895 118.29 614.39 64.1 640.318L93.89 650.374L81.67 667.187L60.79 673.23L64.17 695.757L55.65 699.414L46.53 709.909L51.45 724.537L71.3 723.669Z" fill="white" stroke="#263238" stroke-miterlimit="10"/>
<path d="M297.48 763.74L308.35 746.25L328.65 756.398L348.19 764.819H441.53L437.05 751.16L444.91 735.737L428.56 722.535L347.03 708.264L314.09 713.283L310.08 729.913L293.63 720.963L269.54 728.258L274.18 755.667L297.48 763.74Z" fill="white" stroke="#263238" stroke-miterlimit="10"/>
<path d="M297.17 761.463L308.04 743.965L328.33 754.122L347.88 762.542H441.21L436.74 748.874L444.6 733.46L428.25 720.259L346.72 705.987L313.78 711.006L309.77 727.627L293.32 718.686L269.23 725.982L273.87 753.381L297.17 761.463Z" fill="white" stroke="#263238" stroke-miterlimit="10"/>
<path d="M494.9 732.802L476.92 731.687L464.37 742.602L478.45 765.422L493.31 763.539L494.9 732.802Z" fill="white" stroke="#263238" stroke-miterlimit="10"/>
<path d="M494.9 730.233L476.92 729.117L464.37 740.043L478.45 762.862L493.31 760.979L494.9 730.233Z" fill="white" stroke="#263238" stroke-miterlimit="10"/>
<path d="M605.19 734.95L562.55 725.077L552.03 716.236L543.52 719.856L555.72 735.279L568.03 755.777L586.43 758.538L589.02 754.817L575.59 743.791L607.41 748.243L605.19 734.95Z" fill="white" stroke="#263238" stroke-miterlimit="10"/>
<path d="M605.19 732.957L562.55 723.084L552.03 714.243L543.52 717.863L555.72 733.286L568.03 753.784L586.43 756.535L589.02 752.824L575.59 741.798L607.41 746.25L605.19 732.957Z" fill="white" stroke="#263238" stroke-miterlimit="10"/>
<path d="M420 582.289C420 582.289 417.19 592.079 416.92 592.701C416.65 593.323 408.11 600.014 407.31 600.635C406.51 601.257 405.31 603.985 406.64 605.47C407.97 606.955 413.18 607.085 417.19 607.206C421.2 607.326 426.94 605.35 428.68 604.848C430.42 604.347 432.95 604.598 434.29 602.742C435.404 600.941 435.87 598.857 435.62 596.793C435.49 595.179 435.09 592.209 435.36 591.225C435.63 590.242 436.43 584.776 436.43 584.776C436.43 584.776 424.5 579.069 420 582.289Z" fill="#263238" stroke="#263238" stroke-miterlimit="10"/>
<path d="M428.64 604.848C430.38 604.357 432.91 604.598 434.25 602.742C434.861 601.841 435.266 600.834 435.44 599.781C432.76 600.088 428.32 602.148 425.03 603.493C421.74 604.839 419.03 603.623 414.21 603.623C411.482 603.623 408.757 603.468 406.05 603.159C405.961 603.56 405.964 603.974 406.059 604.374C406.153 604.774 406.338 605.15 406.6 605.479C407.93 606.964 413.14 607.094 417.15 607.215C421.16 607.335 426.9 605.349 428.64 604.848Z" fill="white" stroke="#263238" stroke-miterlimit="10"/>
<path d="M442 484.487L430 538.162L420.39 577.946C420.39 577.946 418.52 579.44 418.92 580.062C419.323 580.784 419.68 581.528 419.99 582.289C419.99 582.289 425.33 582.66 425.99 582.781C428.438 583.776 430.804 584.936 433.07 586.251C434.4 587.124 437.61 586.01 438.14 585.017C438.67 584.024 437.61 579.932 437.61 579.932L437.88 574.976L448.16 539.526L467 500.847L471 501.469L481.82 538.533L506.54 538.162L497.05 486.194L443.35 479.494L442 484.487Z" fill="#263238" stroke="#263238" stroke-miterlimit="10"/>
<path d="M485.21 408.697C485.21 408.697 459.78 407.444 455.72 409.078C451.66 410.711 427.58 426.273 426.23 428.027C424.88 429.781 423.53 432.296 423.93 434.05C424.33 435.804 426.23 441.474 426.23 441.474L438.41 438.207L437.86 434.31C437.86 434.31 440.16 435.693 441.65 435.238C443.14 434.783 456.8 430.598 456.8 430.598L451 460.043L440.17 481.629C440.17 481.629 439.77 485.396 443.17 489.665C446.57 493.934 453.72 498.453 453.72 498.453L462.65 490.547L465.9 502.611C465.9 502.611 481.32 501.237 487.67 497.34C491.886 494.628 495.667 491.375 498.9 487.679L494.84 469.119L502.28 454.93L503.5 476.144L501.34 495.975L513.24 497.609C513.24 497.609 517.98 480.032 518.38 477.397C518.78 474.761 522.44 445.761 520.68 439.117C519.28 433.614 516.063 428.654 511.48 424.928L507.97 422.144L485.21 408.697Z" fill="#6AE536" stroke="#263238" stroke-miterlimit="10"/>
<path d="M492.31 469.24C492.31 469.24 481.07 476.914 466.65 478.52" stroke="#263238" stroke-miterlimit="10"/>
<path d="M488.5 467.857C488.5 467.857 485.74 470.418 474.07 472.581" stroke="#263238" stroke-miterlimit="10"/>
<path d="M488.46 408.697C487.731 408.419 486.937 408.319 486.155 408.407C485.372 408.494 484.627 408.767 483.99 409.198C481.99 410.702 475.2 426.023 475.2 426.023L481.56 426.645L480.2 430.412L485.62 438.198L499.14 434.301L499.95 431.414C499.95 431.414 505.1 436.695 505.64 435.813C506.18 434.932 506.45 423.007 506.45 423.007C506.45 423.007 508.88 419.239 504.69 413.847C500.5 408.456 488.46 408.697 488.46 408.697Z" stroke="#263238" stroke-miterlimit="10"/>
<path d="M489.26 405.997C489.26 405.997 488.18 403.324 487.03 405.328C485.88 407.333 486.6 410.534 486.6 410.534C484.736 412.568 483.45 415.002 482.86 417.615C481.56 422.422 485.86 431.099 486.31 431.906C486.76 432.714 486.74 436.843 486.74 436.843L495.67 429.763C496.382 430.079 497.174 430.209 497.96 430.139C498.746 430.068 499.496 429.8 500.13 429.364C502.72 427.897 507.03 425.225 509.19 422.292C511.35 419.36 516.39 411.342 516.39 411.342L497.11 402.368L489.26 405.997Z" fill="white" stroke="#263238" stroke-miterlimit="10"/>
<path d="M489.26 405.997L491.06 409.17C491.06 409.17 489.62 412.335 490.34 412.502C491.06 412.669 492.86 410.841 492.86 410.841C492.86 410.841 494.48 410.841 495.02 410.173C495.551 409.421 496.032 408.64 496.46 407.834C496.46 407.834 502.57 408.335 504.37 409.17C506.17 410.005 508.87 412.669 512.29 413.003C515.71 413.337 518.58 413.003 520.02 410.34C521.46 407.676 520.74 403.992 520.74 403.992C520.74 403.992 520.02 397.31 517.32 395.315C514.62 393.32 513.32 393.979 513.32 393.979C513.32 393.979 507.92 389.636 505.58 389.803C504.92 389.84 504.283 390.047 503.743 390.402C503.202 390.756 502.779 391.242 502.52 391.807C502.52 391.807 500.9 391.306 496.77 392.643C492.64 393.979 491.37 398.647 491.19 400.317C490.738 402.262 490.092 404.163 489.26 405.997Z" fill="#263238" stroke="#263238" stroke-miterlimit="10"/>
<path d="M495.67 416.947C496.33 415.583 500.81 417.875 502.86 420.019" stroke="#263238" stroke-miterlimit="10"/>
<path d="M506 420.148C506 420.148 509.31 419.48 510.89 419.889" stroke="#263238" stroke-miterlimit="10"/>
<path d="M497.25 419.072C497.473 419.647 497.925 420.12 498.513 420.395C499.101 420.669 499.78 420.724 500.41 420.548" stroke="#263238" stroke-miterlimit="10"/>
<path d="M499.55 424.427C500.13 425.494 502.72 427.099 503.72 426.162C504.72 425.225 505.02 421.754 505.02 421.754" stroke="#263238" stroke-miterlimit="10"/>
<path d="M495.23 422.784C495.295 423.319 495.481 423.836 495.774 424.3C496.067 424.765 496.462 425.167 496.933 425.482C497.404 425.797 497.94 426.016 498.508 426.127C499.076 426.238 499.662 426.237 500.23 426.125" stroke="#263238" stroke-miterlimit="10"/>
<path d="M506.31 421.086C506.31 421.086 507.03 422.942 509.31 421.355" stroke="#263238" stroke-miterlimit="10"/>
<path d="M487.32 411.648L488.47 412.455C488.47 412.455 488 415.88 488 418.144C488 420.408 490.88 425.485 491.74 427.22C492.6 428.955 495.63 429.753 495.63 429.753" stroke="#263238" stroke-miterlimit="10"/>
<path d="M491.78 427.229L488.76 428.835" stroke="#263238" stroke-miterlimit="10"/>
<path d="M456.8 430.542C458.493 427.413 459.461 423.989 459.64 420.492" stroke="#263238" stroke-miterlimit="10"/>
<path d="M502 456.025C502 456.025 506.2 450.754 507.14 445.102" stroke="#263238" stroke-miterlimit="10"/>
<path d="M438.41 438.198L444.63 451.376C444.63 451.376 449.63 454.512 450.04 454.893C450.45 455.273 451.8 458.28 451.39 459.162C450.98 460.043 449.63 456.146 448.69 456.647C448.208 456.931 447.809 457.319 447.525 457.778C447.241 458.237 447.081 458.753 447.06 459.282C447.2 460.043 451.26 467.198 450.85 467.449C450.517 467.658 450.14 467.8 449.743 467.864C449.346 467.928 448.94 467.913 448.55 467.82C447.47 467.569 447.47 467.319 446.79 467.319C445.388 467.349 443.986 467.265 442.6 467.068C441.52 466.818 439.35 464.182 438.81 463.3C438.27 462.419 437.46 454.893 437.46 454.893L426.23 441.465C426.23 441.465 432.72 436.314 438.41 438.198Z" fill="white" stroke="#263238" stroke-miterlimit="10"/>
<path d="M443.14 459.793C443.14 459.793 445.85 464.182 446.25 465.184C446.515 465.875 446.696 466.591 446.79 467.319" stroke="#263238" stroke-miterlimit="10"/>
<path d="M440.43 462.178C440.43 462.178 442.6 465.565 444.9 466.948" stroke="#263238" stroke-miterlimit="10"/>
<path d="M457.678 473.248L455.482 474.192L483.504 530.341L485.7 529.397L457.678 473.248Z" fill="white" stroke="#263238" stroke-miterlimit="10"/>
<path d="M454.74 474.492L446.68 459.022C446.562 458.797 446.494 458.552 446.48 458.302C446.467 458.052 446.508 457.802 446.602 457.567C446.695 457.332 446.839 457.117 447.024 456.935C447.209 456.753 447.433 456.607 447.68 456.508C448.159 456.298 448.708 456.273 449.206 456.438C449.705 456.603 450.113 456.945 450.34 457.389L458.4 472.896L454.74 474.492Z" fill="#263238" stroke="#263238" stroke-miterlimit="10"/>
<path d="M499 522.535C499 522.535 484.44 530.72 479.23 535.926C474.02 541.132 458.52 557.622 455.85 560.221C453.18 562.819 448.23 569.148 446.77 570.429C445.31 571.709 443.16 571.542 443.83 574.512C444.5 577.482 444.9 577.741 444.9 578.484C444.9 579.226 444.76 581.704 444.76 581.704C444.76 581.704 438.48 587.782 437.68 589.518C436.88 591.253 437.68 594.724 438.62 596.58C439.56 598.436 441.42 599.679 441.42 600.051C441.42 600.422 439.82 605.507 439.42 606.871C439.02 608.236 440.22 611.456 440.22 611.456C440.22 611.456 437.15 615.669 439.29 617.655C441.43 619.641 445.29 620.012 445.96 619.511C446.63 619.01 492.72 617.284 496.32 615.919C499.92 614.555 503.14 613.191 505.81 610.221C507.282 608.534 508.987 607.033 510.88 605.758C510.88 605.758 513.29 603.651 513.29 601.535C513.29 599.42 513.02 598.937 513.15 598.315C513.45 597.643 513.857 597.017 514.36 596.459L515.29 593.239C515.29 593.239 514.49 593.981 515.96 586.789C517.43 579.597 517.7 577.741 517.7 577.741L517.43 573.157L516.89 568.443C516.89 568.443 512.35 547.489 509.95 542.041C507.55 536.594 506.21 532.993 505.95 532.242C505.714 530.763 505.58 529.272 505.55 527.778C505.55 527.778 507.96 523.936 507.55 523.073C507.14 522.21 500.24 520.799 499 522.535Z" fill="#9C9C9C" stroke="#263238" stroke-miterlimit="10"/>
<path d="M501.31 495.938L500.47 509.088C500.47 509.088 497.61 517.848 497.86 519.463C498.11 521.078 500.96 525.226 500.96 525.226C500.96 525.226 501.83 527.416 502.58 526.609C503.33 525.801 503.94 525.347 503.58 523.955L503.21 522.572C503.21 522.572 505.82 523.268 505.94 524.307C506.06 525.347 505.32 528.344 506.19 528.567C507.06 528.789 509.92 523.379 510.19 522.692C510.46 522.006 508.19 518.98 507.7 517.96C507.21 516.939 505.22 514.619 505.22 513.932C505.22 513.245 513.22 497.572 513.22 497.572L501.31 495.938Z" fill="white" stroke="#263238" stroke-miterlimit="10"/>
<path d="M503.2 522.572L501.46 518.888" stroke="#263238" stroke-miterlimit="10"/>
<path d="M492.76 537.912C492.276 539.336 491.872 540.782 491.55 542.246C491.351 543.458 491.084 544.66 490.75 545.846L489.95 547.21C489.95 547.21 487.15 549.317 487.15 550.551C487.267 551.928 487.487 553.295 487.81 554.644C487.81 554.644 494.89 556.5 495.81 556.5C496.73 556.5 497.81 555.256 497.81 555.256C497.81 555.256 498.61 556.62 499.55 556.62C500.49 556.62 501.69 556.119 501.82 556.62C501.95 557.121 502.35 558.105 502.35 558.105C503.192 557.041 503.954 555.925 504.63 554.764C505.16 553.641 506.36 554.142 505.43 552.036C505.035 550.906 504.349 549.884 503.43 549.057C503.03 548.686 504.23 548.936 503.03 548.686C502.107 548.492 501.211 548.199 500.36 547.814C499.583 547.479 498.825 547.107 498.09 546.7L497.56 544.723C497.56 544.723 497.96 542.737 497.96 542.236C497.893 541.728 497.759 541.229 497.56 540.751L496.22 539.888L492.76 537.912Z" fill="white" stroke="#263238" stroke-miterlimit="10"/>
<path d="M496.23 541.262C496.23 541.262 494.63 546.468 494.36 546.96C494.09 547.452 497.7 551.303 498.1 551.303C498.5 551.303 501.71 550.43 502.24 550.802C502.967 551.506 503.514 552.353 503.84 553.279" stroke="#263238" stroke-miterlimit="10"/>
<path d="M495 552.166C494.33 551.674 492.86 551.544 491.39 549.558C490.156 548.116 489.496 546.323 489.52 544.482L489.65 543.118L492.33 541.382C492.33 541.382 492.46 541.382 492.19 540.139C491.92 538.895 491.34 538.97 491.34 538.97L486.4 529.068L482.74 530.645L487.68 540.538C487.68 540.538 486.45 544.853 487.52 548.073C488.59 551.293 492.99 553.53 493.8 553.53C494.61 553.53 495.7 552.704 495 552.166Z" fill="#263238" stroke="#263238" stroke-miterlimit="10"/>
<path d="M499.69 525.987L493.45 534.589" stroke="#263238" stroke-miterlimit="10"/>
<path d="M500.7 529.272L500.03 541.791" stroke="#263238" stroke-miterlimit="10"/>
<path d="M471.83 583.866C474.87 584.71 477.819 585.813 480.64 587.161" stroke="#263238" stroke-miterlimit="10"/>
<path d="M448.27 580.906C454.457 580.829 460.633 581.405 466.68 582.623" stroke="#263238" stroke-miterlimit="10"/>
<path d="M472 581.37C472 581.37 486.33 585.75 493.41 591.383" stroke="#263238" stroke-miterlimit="10"/>
<path d="M441.36 598.269C442.927 594.907 445.358 591.954 448.44 589.666" stroke="#263238" stroke-miterlimit="10"/>
<path d="M450.3 586.223C450.3 586.223 445.74 588.877 444.06 591.068" stroke="#263238" stroke-miterlimit="10"/>
<path d="M461.81 561.307L459.06 564.007" stroke="#263238" stroke-miterlimit="10"/>
<path d="M482.83 540.38C482.83 540.38 472.03 551.164 464.45 558.69" stroke="#263238" stroke-miterlimit="10"/>
<path d="M514.41 576.962C514.403 579.541 514.159 582.115 513.68 584.655" stroke="#263238" stroke-miterlimit="10"/>
<path d="M505.76 543.823C505.76 543.823 512.5 567.134 513.85 572.146C513.93 572.415 513.99 572.693 514.05 572.981" stroke="#263238" stroke-miterlimit="10"/>
<path d="M499.24 568.378C502.01 568.935 502.9 569.956 502.9 569.956" stroke="#263238" stroke-miterlimit="10"/>
<path d="M463.28 569.167C463.28 569.167 477.1 570.735 488.57 568.703C490.633 568.318 492.727 568.098 494.83 568.044" stroke="#263238" stroke-miterlimit="10"/>
<path d="M491.77 565.102C491.77 565.102 482.33 566.03 478.77 566.67" stroke="#263238" stroke-miterlimit="10"/>
<path d="M216 517.709C216 517.709 208.22 524.762 209.12 527.611C210.02 530.46 227.75 551.451 227.75 551.451C227.75 551.451 230.28 555.98 231.91 558.328C233.54 560.676 237.52 563.2 238.78 562.689C240.04 562.179 245.3 557.66 246.02 556.648C246.74 555.636 242.4 552.788 240.41 551.785C238.42 550.783 231.91 547.424 230.1 543.22C228.29 539.016 222.64 529.504 222.64 529.504L225.89 519.769L216 517.709Z" fill="white" stroke="#263238" stroke-miterlimit="10"/>
<path d="M238.73 562.689C240 562.188 245.25 557.66 245.97 556.648C246.69 555.636 242.35 552.788 240.36 551.785C238.71 550.95 233.95 548.491 231.36 545.289L226.49 549.985L227.72 551.461C227.72 551.461 230.25 555.989 231.88 558.337C233.51 560.685 237.47 563.2 238.73 562.689Z" fill="#6AE536" stroke="#263238" stroke-miterlimit="10"/>
<path d="M239.82 555.145C239.82 555.145 235.3 560.341 235.12 562.188C234.94 564.035 233.85 571.422 233.85 571.422C233.85 571.422 226.07 581.324 226.07 583.838C226.07 586.353 233.13 592.237 237.83 595.587C242.53 598.937 262.83 602.139 265.68 602.139C268.53 602.139 289.74 600.626 291.37 598.779C293 596.932 293.37 591.726 291.37 587.198C289.37 582.669 276.17 572.257 275.09 571.255C274.01 570.252 271.09 560.007 268.22 557.66C265.35 555.312 252.66 554.801 250.67 554.968C248.68 555.135 241.45 554.968 239.82 555.145Z" fill="#9C9C9C" stroke="#263238" stroke-miterlimit="10"/>
<path d="M275.86 595.643C283.01 598.668 285.47 599.763 287.2 597.925C288.365 596.802 289.039 595.317 289.09 593.759" stroke="#263238" stroke-miterlimit="10"/>
<path d="M239.79 557.567C239.79 557.567 237.04 565.77 238.2 571.422C239.36 577.073 261.25 589.583 271.69 593.889L272.64 594.288" stroke="#263238" stroke-miterlimit="10"/>
<path d="M270.41 576.683C272.25 578.985 273.72 580.711 273.72 580.711" stroke="#263238" stroke-miterlimit="10"/>
<path d="M251 557.567C251 557.567 262.45 565.77 265.64 570.345C266.64 571.793 267.83 573.352 268.97 574.818" stroke="#263238" stroke-miterlimit="10"/>
<path d="M247.77 557.966C247.77 557.966 252.99 564.564 254.87 570.215" stroke="#263238" stroke-miterlimit="10"/>
<path d="M234.43 572.368C234.049 573.911 234.209 575.527 234.887 576.979C235.565 578.432 236.726 579.645 238.2 580.442" stroke="#263238" stroke-miterlimit="10"/>
<path d="M236.56 551.284L242.17 550.607C242.17 550.607 246.17 554.133 247.05 554.467C247.93 554.801 249.22 556.323 247.96 556.815C246.7 557.307 242.35 554.634 242.35 554.634C241.017 555.086 239.609 555.316 238.19 555.312L236.56 555.145" fill="#6AE536"/>
<path d="M236.56 551.284L242.17 550.607C242.17 550.607 246.17 554.133 247.05 554.467C247.93 554.801 249.22 556.323 247.96 556.815C246.7 557.307 242.35 554.634 242.35 554.634C241.017 555.086 239.609 555.316 238.19 555.312L236.56 555.145" stroke="#263238" stroke-miterlimit="10"/>
<path d="M244.7 491.716C244.7 491.716 234.89 487.438 218.02 481.415C201.15 475.392 188.31 473.648 174.02 476.868C159.73 480.088 149.36 487.308 149.93 500.021C150.5 512.735 165.08 548.064 164.07 550.347C163.06 552.63 153.68 560.555 150.94 569.213C148.2 577.871 144.6 599.058 144.17 600.672C143.74 602.287 140.7 601.47 140.42 605.758C140.14 610.045 139 614.592 139 615.808C139 617.024 148 617.952 155 618.592C162 619.232 168.42 619.13 170.44 617.525C172.46 615.919 172.31 614.314 171.01 613.813C168.231 612.451 165.815 610.529 163.94 608.189C161.49 605.108 158.03 603.243 157.6 601.229C157.17 599.215 158.6 593.87 158.6 593.87C158.6 593.87 166.82 574.326 170.71 568.443C174.6 562.559 181.53 558.532 182.71 552.11C183.441 547.008 183.732 541.86 183.58 536.715C183.58 536.715 190.94 551.711 191.51 554.523C192.08 557.335 187.51 561.344 189.51 572.155C191.51 582.966 194.27 600.793 194.51 601.591C194.75 602.389 192.78 602.129 192.92 604.672C193.06 607.215 192.06 614.713 192.78 615.112C193.5 615.511 201.29 615.919 204.32 615.251C207.35 614.583 214.27 613.776 216.43 614.323C218.59 614.871 225.81 615.121 227.54 613.915C229.27 612.708 229.27 609.098 228.69 609.098C225.871 608.514 223.187 607.471 220.76 606.018C217.01 603.883 209.65 602.139 208.36 600.533C207.07 598.928 206.63 598.13 206.63 597.452C206.63 596.775 207.35 579.115 206.77 574.568C206.19 570.02 207.35 557.567 207.35 554.356C207.35 551.145 209.22 547.804 208.07 542.041C206.92 536.278 202.16 520.632 201 517.282C199.84 513.932 198 509.116 198 509.116C200.897 512.539 204.522 515.373 208.65 517.44C212.236 519.09 216.058 520.255 220 520.901L233 530.534L236.17 521.699L236.75 518.359C238.035 517.321 239.241 516.201 240.36 515.009C241.94 513.273 244.11 511.659 245.36 509.385C246.61 507.111 244.7 491.716 244.7 491.716Z" fill="white" stroke="#263238" stroke-miterlimit="10"/>
<path d="M206.77 574.568C206.19 570.02 207.35 557.567 207.35 554.356C207.35 551.145 209.22 547.804 208.07 542.041C206.92 536.278 202.16 520.632 201 517.282C199.84 513.932 198 509.116 198 509.116C199.565 510.945 201.332 512.618 203.27 514.108L200.1 504.309C200.1 504.309 186.28 503.381 179.37 498.091C174.37 494.323 169.77 484.171 167.55 478.714C156.75 482.529 149.49 489.331 149.97 500.058C150.55 512.772 165.12 548.101 164.11 550.384C163.1 552.667 153.72 560.592 150.98 569.25C148.98 575.579 146.54 588.497 145.18 595.689C146.736 597.236 148.72 598.356 150.916 598.927C153.112 599.498 155.434 599.499 157.63 598.928C157.857 597.228 158.191 595.543 158.63 593.879C158.63 593.879 166.85 574.336 170.74 568.452C174.63 562.569 181.56 558.541 182.74 552.119C183.471 547.017 183.762 541.869 183.61 536.724C183.61 536.724 190.97 551.72 191.54 554.532C192.11 557.344 187.54 561.353 189.54 572.164C190.92 579.542 192.63 590.139 193.67 596.413C198.13 597.072 203.04 596.997 206.79 594.798C206.88 589.546 207.22 578.103 206.77 574.568Z" fill="#263238" stroke="#263238" stroke-miterlimit="10"/>
<path d="M218 481.415C201.13 475.392 188.29 473.648 174 476.868C167.28 478.38 161.42 480.784 157.16 484.227C156.38 486.918 156.97 490.723 162.32 495.465C173.14 504.968 178.18 508.717 186.26 508.717C194.34 508.717 196.79 507.51 196.79 507.51C196.79 507.51 197.67 509.218 198.79 511.222C198.32 510.016 198 509.088 198 509.088C200.894 512.521 204.519 515.364 208.65 517.44C212.236 519.09 216.058 520.255 220 520.901L233 530.534L236.17 521.699L236.75 518.359C238.035 517.321 239.241 516.201 240.36 515.009C241.94 513.273 244.11 511.659 245.36 509.385C246.61 507.111 244.64 491.753 244.64 491.753C244.64 491.753 234.89 487.438 218 481.415Z" fill="#6AE536" stroke="#263238" stroke-miterlimit="10"/>
<path d="M251.19 493.191C251.19 493.191 254.94 487.837 264.61 487.308C274.28 486.779 280.76 488.774 285.23 499.372C289.7 509.97 286.96 516.633 286.96 520.113C286.96 523.593 288.69 532.965 286.82 535.889C284.95 538.812 282.06 539.768 281.91 541.373C281.867 541.828 281.967 542.285 282.198 542.688C282.428 543.092 282.78 543.425 283.21 543.647C283.21 543.647 281.48 544.992 277.15 542.31C272.82 539.628 273.15 536.288 272.97 534.413C272.79 532.539 270.97 535.619 266.91 533.745C262.85 531.87 263.91 527.991 264.03 526.785C264.15 525.579 262.44 525.718 260.13 525.05C257.82 524.381 256.53 519.296 257.25 516.753C257.97 514.211 256.38 510.99 253.64 510.99C250.9 510.99 249.32 507.38 249.32 502.694C249.428 499.458 250.059 496.254 251.19 493.191Z" fill="#263238" stroke="#263238" stroke-miterlimit="10"/>
<path d="M279.6 512.865C278.9 514.498 277.561 515.824 275.85 516.577C272.85 518.053 270.66 518.053 269.51 519.361C268.36 520.669 268.51 522.711 267.63 522.971C266.75 523.231 264.46 522.043 264.46 522.043C264.46 522.043 262.01 522.451 258.55 522.85C255.09 523.249 253.5 522.451 253.21 520.707C252.92 518.962 252.92 512.28 253.64 510.935C254.103 510.097 254.634 509.293 255.23 508.531C255.23 508.531 253.93 505.051 256.38 503.307C258.83 501.562 260.28 502.239 260.86 503.715C261.16 504.865 261.108 506.07 260.71 507.195L265.33 505.988C265.33 505.988 268.33 509.06 271.24 510.137C274.15 511.213 278.88 510.406 278.88 510.406L279.6 512.865Z" fill="white" stroke="#263238" stroke-miterlimit="10"/>
<path d="M261.14 521.152C261.229 520.238 261.574 519.362 262.14 518.609" stroke="#263238" stroke-miterlimit="10"/>
<path d="M269.94 516.614L267.06 516.883C266.789 516.747 266.553 516.559 266.367 516.332C266.181 516.104 266.049 515.842 265.981 515.564C265.913 515.285 265.909 514.996 265.971 514.717C266.033 514.437 266.159 514.172 266.34 513.941" stroke="#263238" stroke-miterlimit="10"/>
<path d="M269.22 513.273C269.22 513.273 271.96 514.34 271.38 516.753" stroke="#263238" stroke-miterlimit="10"/>
<path d="M258.26 492.792C258.26 492.792 253.36 492.393 251.19 493.191C249.02 493.989 244.7 491.716 244.7 491.716C244.7 491.716 242.25 491.456 241.7 496.402C241.331 499.284 241.991 502.199 243.58 504.699C243.58 504.699 240.12 502.564 240.41 505.775C240.7 508.986 243.72 513.004 244.59 513.941C245.46 514.879 242.86 513.672 243.59 516.076C244.32 518.479 249.5 521.161 251.81 521.57C254.12 521.978 254.41 520.762 254.55 515.816C254.552 513.391 254.793 510.971 255.27 508.587C255.27 508.587 253.68 502.564 255.85 499.882C258.02 497.2 261.76 496.402 262.05 493.73" fill="#263238"/>
<path d="M258.26 492.792C258.26 492.792 253.36 492.393 251.19 493.191C249.02 493.989 244.7 491.716 244.7 491.716C244.7 491.716 242.25 491.456 241.7 496.402C241.331 499.284 241.991 502.199 243.58 504.699C243.58 504.699 240.12 502.564 240.41 505.775C240.7 508.986 243.72 513.004 244.59 513.941C245.46 514.879 242.86 513.672 243.59 516.076C244.32 518.479 249.5 521.161 251.81 521.57C254.12 521.978 254.41 520.762 254.55 515.816C254.552 513.391 254.793 510.971 255.27 508.587C255.27 508.587 253.68 502.564 255.85 499.882C258.02 497.2 261.76 496.402 262.05 493.73" stroke="#263238" stroke-miterlimit="10"/>
<path d="M181.24 488.839C181.24 488.839 189.32 500.216 194.51 504.615" stroke="#263238" stroke-miterlimit="10"/>
<path d="M188.6 488.44C188.6 488.44 190.18 496.068 193.21 501.024" stroke="#263238" stroke-miterlimit="10"/>
<path d="M167.68 493.795C167.68 493.795 179.94 503.696 190.33 504.235" stroke="#263238" stroke-miterlimit="10"/>
<path d="M217.15 509.45L220.33 518.953" stroke="#263238" stroke-miterlimit="10"/>
<path d="M170.43 617.534C172.43 615.929 172.3 614.323 171 613.822C168.221 612.46 165.805 610.539 163.93 608.198C161.48 605.117 158.02 603.252 157.59 601.238C157.567 601.128 157.55 601.016 157.54 600.904C156.23 600.784 153.93 600.7 152.59 601.313C150.59 602.241 150.86 604.523 148.48 604.523C146.1 604.523 145.48 603.92 145.35 603.02C145.175 602.369 144.752 601.799 144.16 601.415L143.85 601.257C142.95 602.185 140.67 602.111 140.43 605.795C140.14 610.073 138.98 614.62 138.98 615.827C138.98 617.033 147.98 617.97 154.98 618.611C161.98 619.251 168.41 619.139 170.43 617.534Z" fill="white" stroke="#263238" stroke-miterlimit="10"/>
<path d="M228.69 609.098C225.871 608.514 223.187 607.471 220.76 606.018C217.09 603.92 209.96 602.213 208.46 600.635C206.924 601.663 205.262 602.52 203.51 603.187C200.81 604.115 196.92 604.189 196.38 603.187C195.933 602.503 195.284 601.952 194.51 601.6C194.8 602.408 192.78 602.139 192.92 604.681C193.06 607.224 192.06 614.722 192.78 615.121C193.5 615.52 201.29 615.929 204.32 615.26C207.35 614.592 214.27 613.785 216.43 614.332C218.59 614.88 225.81 615.13 227.54 613.924C229.27 612.718 229.27 609.098 228.69 609.098Z" fill="white" stroke="#263238" stroke-miterlimit="10"/>
<path d="M221.05 517.486C221.05 517.486 219.05 537.967 220.47 549.474C221.89 560.982 224.37 592.441 224.37 592.441L231.72 591.364L230.72 547.999L233.46 529.532L221.05 517.486Z" fill="white" stroke="#263238" stroke-miterlimit="10"/>
<path d="M238.05 603.846C238.05 603.846 243.85 604.923 245.16 604.653C246.47 604.384 250.96 603.725 251.54 603.577C252.12 603.428 258.21 601.563 259.95 603.447C261.69 605.331 261.95 609.498 259.66 611.521C257.37 613.544 252.84 613.943 248.78 613.377C244.72 612.811 243.11 612.514 240.66 612.3C238.21 612.087 239.55 610.797 236.34 611.548C233.13 612.3 226.89 612.161 223.99 611.892C221.09 611.623 217.61 609.878 218.34 605.164C219.07 600.45 222.43 599.883 223.5 600.57C224.57 601.257 238.05 603.846 238.05 603.846Z" fill="white" stroke="#263238" stroke-miterlimit="10"/>
<path d="M260.82 604.923C260.82 604.923 266.18 604.793 266.32 605.461C266.449 606.545 266.351 607.641 266.03 608.69C265.74 609.228 261.4 609.368 261.4 609.368L260.82 604.923Z" fill="#6AE536" stroke="#263238" stroke-miterlimit="10"/>
<path d="M231.58 588.692L222.92 590.965C222.92 590.965 222.49 599.132 223.5 600.598C224.394 602.225 225.117 603.928 225.66 605.683C225.66 605.683 225.81 610.37 226.39 611.576C226.97 612.783 229.52 612.402 230.86 612.913C232.47 613.534 234.86 609.247 235.27 607.836C235.47 607.103 236.48 610.769 236.34 611.548C236.318 611.761 236.376 611.973 236.503 612.151C236.63 612.328 236.82 612.46 237.039 612.523C237.259 612.586 237.495 612.577 237.708 612.498C237.921 612.418 238.099 612.273 238.21 612.087C239.06 609.841 239.113 607.402 238.36 605.127C237.49 603.271 233.31 594.687 233.02 593.749C232.73 592.812 231.58 588.692 231.58 588.692Z" fill="#6AE536" stroke="#263238" stroke-miterlimit="10"/>
<path d="M231.79 607.901C231.745 609.013 231.594 610.118 231.34 611.205C230.998 611.801 230.548 612.338 230.01 612.792" stroke="#263238" stroke-miterlimit="10"/>
<path d="M228.89 607.456C228.89 607.456 228.75 610.147 228.6 610.899C228.438 611.503 228.189 612.083 227.86 612.625" stroke="#263238" stroke-miterlimit="10"/>
<path d="M371.41 597.053H313.24L308.1 500.819H376.55L371.41 597.053Z" fill="#6AE536" stroke="#263238" stroke-miterlimit="10"/>
<path d="M380 498.574H304.65V503.065H380V498.574Z" fill="#6AE536" stroke="#263238" stroke-miterlimit="10"/>
<path d="M370.83 547.136L361.2 561.566C360.789 562.219 360.191 562.753 359.472 563.11C358.754 563.467 357.943 563.633 357.13 563.589C355.07 563.589 353.01 563.589 350.75 563.589V567.868L350.43 567.932C349.87 567.004 349.31 566.16 348.76 565.269C347.33 562.958 345.89 560.629 344.5 558.309C344.4 558.144 344.338 557.961 344.319 557.773C344.3 557.584 344.324 557.393 344.39 557.214C346.39 553.734 348.39 550.273 350.55 546.551V551.785H359.8L352.61 540.13L364.3 533.847C366.49 537.559 368.66 541.215 370.83 544.872V547.136Z" fill="white"/>
<path d="M336.26 518.479C336.765 518.575 337.276 518.643 337.79 518.684C342.33 518.748 346.88 518.823 351.42 518.851C352.315 518.796 353.206 518.99 353.982 519.406C354.759 519.822 355.384 520.443 355.78 521.189C356.78 522.841 357.78 524.428 358.89 526.117L363 523.936L363.16 524.057C362.14 525.795 361.117 527.524 360.09 529.244C359.2 530.766 358.31 532.288 357.38 533.782C357.293 533.938 357.173 534.076 357.027 534.188C356.881 534.299 356.712 534.382 356.53 534.432C352.28 534.664 348.04 534.831 343.7 534.803C345.19 533.977 346.7 533.16 348.27 532.307L343.57 524.883C341.14 528.938 338.8 532.854 336.44 536.78L324.68 530.757C325.28 529.755 325.83 528.808 326.39 527.861C327.45 526.089 328.59 524.344 329.55 522.525C329.991 521.579 330.644 520.73 331.464 520.034C332.285 519.338 333.254 518.811 334.31 518.489L336.26 518.479Z" fill="white"/>
<path d="M319.82 538.376L315.71 536.065V535.87H320.26C322.33 535.87 324.4 535.981 326.46 535.87C327.103 535.772 327.763 535.876 328.335 536.165C328.907 536.454 329.36 536.912 329.62 537.466C331.5 540.529 333.56 543.498 335.43 546.663L330.74 544.046L326.1 551.516H340.6V564.035H338.6C335.6 564.035 332.52 564.035 329.47 564.035C328.286 564.078 327.116 563.796 326.105 563.223C325.094 562.65 324.289 561.812 323.79 560.815C321.45 556.611 319.11 552.407 316.68 548.24C316.15 547.48 315.878 546.59 315.899 545.685C315.921 544.78 316.234 543.902 316.8 543.164C317.83 541.642 318.75 540.046 319.82 538.376Z" fill="white"/>
</g>
<path d="M146.304 63.576C147.499 63.7893 148.512 64.4187 149.344 65.464C150.176 66.5093 150.592 67.6933 150.592 69.016C150.592 70.1467 150.293 71.1707 149.696 72.088C149.12 72.984 148.277 73.6987 147.168 74.232C146.059 74.744 144.768 75 143.296 75H134.4V52.76H142.88C144.395 52.76 145.696 53.016 146.784 53.528C147.872 54.04 148.693 54.7333 149.248 55.608C149.803 56.4613 150.08 57.4213 150.08 58.488C150.08 59.768 149.739 60.8347 149.056 61.688C148.373 62.5413 147.456 63.1707 146.304 63.576ZM138.048 62.104H142.56C143.755 62.104 144.683 61.8373 145.344 61.304C146.027 60.7493 146.368 59.96 146.368 58.936C146.368 57.9333 146.027 57.1547 145.344 56.6C144.683 56.024 143.755 55.736 142.56 55.736H138.048V62.104ZM142.976 72.024C144.213 72.024 145.184 71.7253 145.888 71.128C146.592 70.5307 146.944 69.6987 146.944 68.632C146.944 67.544 146.571 66.68 145.824 66.04C145.077 65.4 144.085 65.08 142.848 65.08H138.048V72.024H142.976ZM170.716 65.752C170.716 66.4133 170.674 67.0107 170.588 67.544H157.116C157.223 68.952 157.746 70.0827 158.684 70.936C159.623 71.7893 160.775 72.216 162.14 72.216C164.103 72.216 165.49 71.3947 166.3 69.752H170.236C169.703 71.3733 168.732 72.7067 167.324 73.752C165.938 74.776 164.21 75.288 162.14 75.288C160.455 75.288 158.94 74.9147 157.596 74.168C156.274 73.4 155.228 72.3333 154.46 70.968C153.714 69.5813 153.34 67.9813 153.34 66.168C153.34 64.3547 153.703 62.7653 154.428 61.4C155.175 60.0133 156.21 58.9467 157.532 58.2C158.876 57.4533 160.412 57.08 162.14 57.08C163.804 57.08 165.287 57.4427 166.588 58.168C167.89 58.8933 168.903 59.9173 169.628 61.24C170.354 62.5413 170.716 64.0453 170.716 65.752ZM166.908 64.6C166.887 63.256 166.407 62.1787 165.468 61.368C164.53 60.5573 163.367 60.152 161.98 60.152C160.722 60.152 159.644 60.5573 158.748 61.368C157.852 62.1573 157.319 63.2347 157.148 64.6H166.908ZM177.954 59.928C178.488 59.032 179.192 58.3387 180.066 57.848C180.962 57.336 182.018 57.08 183.234 57.08V60.856H182.306C180.877 60.856 179.789 61.2187 179.042 61.944C178.317 62.6693 177.954 63.928 177.954 65.72V75H174.306V57.368H177.954V59.928ZM192.988 75.288C191.601 75.288 190.353 75.0427 189.244 74.552C188.156 74.04 187.292 73.3573 186.652 72.504C186.012 71.6293 185.67 70.6587 185.628 69.592H189.404C189.468 70.3387 189.82 70.968 190.46 71.48C191.121 71.9707 191.942 72.216 192.924 72.216C193.948 72.216 194.737 72.024 195.292 71.64C195.868 71.2347 196.156 70.7227 196.156 70.104C196.156 69.4427 195.836 68.952 195.196 68.632C194.577 68.312 193.585 67.96 192.22 67.576C190.897 67.2133 189.82 66.8613 188.988 66.52C188.156 66.1787 187.43 65.656 186.812 64.952C186.214 64.248 185.916 63.32 185.916 62.168C185.916 61.2293 186.193 60.376 186.748 59.608C187.302 58.8187 188.092 58.2 189.116 57.752C190.161 57.304 191.356 57.08 192.7 57.08C194.705 57.08 196.316 57.592 197.532 58.616C198.769 59.6187 199.43 60.9947 199.516 62.744H195.868C195.804 61.9547 195.484 61.3253 194.908 60.856C194.332 60.3867 193.553 60.152 192.572 60.152C191.612 60.152 190.876 60.3333 190.364 60.696C189.852 61.0587 189.596 61.5387 189.596 62.136C189.596 62.6053 189.766 63 190.108 63.32C190.449 63.64 190.865 63.896 191.356 64.088C191.846 64.2587 192.572 64.4827 193.532 64.76C194.812 65.1013 195.857 65.4533 196.668 65.816C197.5 66.1573 198.214 66.6693 198.812 67.352C199.409 68.0347 199.718 68.9413 199.74 70.072C199.74 71.0747 199.462 71.9707 198.908 72.76C198.353 73.5493 197.564 74.168 196.54 74.616C195.537 75.064 194.353 75.288 192.988 75.288ZM205.537 55.032C204.876 55.032 204.321 54.808 203.873 54.36C203.425 53.912 203.201 53.3573 203.201 52.696C203.201 52.0347 203.425 51.48 203.873 51.032C204.321 50.584 204.876 50.36 205.537 50.36C206.177 50.36 206.721 50.584 207.169 51.032C207.617 51.48 207.841 52.0347 207.841 52.696C207.841 53.3573 207.617 53.912 207.169 54.36C206.721 54.808 206.177 55.032 205.537 55.032ZM207.329 57.368V75H203.681V57.368H207.329ZM221.239 57.08C222.583 57.08 223.777 57.368 224.823 57.944C225.889 58.52 226.721 59.3733 227.319 60.504C227.937 61.6347 228.247 63 228.247 64.6V75H224.631V65.144C224.631 63.5653 224.236 62.36 223.447 61.528C222.657 60.6747 221.58 60.248 220.215 60.248C218.849 60.248 217.761 60.6747 216.951 61.528C216.161 62.36 215.767 63.5653 215.767 65.144V75H212.119V51.32H215.767V59.416C216.385 58.6693 217.164 58.0933 218.103 57.688C219.063 57.2827 220.108 57.08 221.239 57.08ZM246.436 61.88V64.952H233.284V61.88H246.436ZM255.267 59.992C255.885 59.1387 256.728 58.4453 257.795 57.912C258.883 57.3573 260.088 57.08 261.411 57.08C262.968 57.08 264.376 57.4533 265.635 58.2C266.893 58.9467 267.885 60.0133 268.611 61.4C269.336 62.7653 269.699 64.3333 269.699 66.104C269.699 67.8747 269.336 69.464 268.611 70.872C267.885 72.2587 266.883 73.3467 265.603 74.136C264.344 74.904 262.947 75.288 261.411 75.288C260.045 75.288 258.829 75.0213 257.763 74.488C256.717 73.9547 255.885 73.272 255.267 72.44V75H251.619V51.32H255.267V59.992ZM265.987 66.104C265.987 64.888 265.731 63.8427 265.219 62.968C264.728 62.072 264.067 61.4 263.235 60.952C262.424 60.4827 261.549 60.248 260.611 60.248C259.693 60.248 258.819 60.4827 257.987 60.952C257.176 61.4213 256.515 62.104 256.003 63C255.512 63.896 255.267 64.952 255.267 66.168C255.267 67.384 255.512 68.4507 256.003 69.368C256.515 70.264 257.176 70.9467 257.987 71.416C258.819 71.8853 259.693 72.12 260.611 72.12C261.549 72.12 262.424 71.8853 263.235 71.416C264.067 70.9253 264.728 70.2213 265.219 69.304C265.731 68.3867 265.987 67.32 265.987 66.104ZM289.466 65.752C289.466 66.4133 289.424 67.0107 289.338 67.544H275.866C275.973 68.952 276.496 70.0827 277.434 70.936C278.373 71.7893 279.525 72.216 280.89 72.216C282.853 72.216 284.24 71.3947 285.05 69.752H288.986C288.453 71.3733 287.482 72.7067 286.074 73.752C284.688 74.776 282.96 75.288 280.89 75.288C279.205 75.288 277.69 74.9147 276.346 74.168C275.024 73.4 273.978 72.3333 273.21 70.968C272.464 69.5813 272.09 67.9813 272.09 66.168C272.09 64.3547 272.453 62.7653 273.178 61.4C273.925 60.0133 274.96 58.9467 276.282 58.2C277.626 57.4533 279.162 57.08 280.89 57.08C282.554 57.08 284.037 57.4427 285.338 58.168C286.64 58.8933 287.653 59.9173 288.378 61.24C289.104 62.5413 289.466 64.0453 289.466 65.752ZM285.658 64.6C285.637 63.256 285.157 62.1787 284.218 61.368C283.28 60.5573 282.117 60.152 280.73 60.152C279.472 60.152 278.394 60.5573 277.498 61.368C276.602 62.1573 276.069 63.2347 275.898 64.6H285.658ZM296.704 59.928C297.238 59.032 297.942 58.3387 298.816 57.848C299.712 57.336 300.768 57.08 301.984 57.08V60.856H301.056C299.627 60.856 298.539 61.2187 297.792 61.944C297.067 62.6693 296.704 63.928 296.704 65.72V75H293.056V57.368H296.704V59.928ZM311.738 75.288C310.351 75.288 309.103 75.0427 307.994 74.552C306.906 74.04 306.042 73.3573 305.402 72.504C304.762 71.6293 304.42 70.6587 304.378 69.592H308.154C308.218 70.3387 308.57 70.968 309.21 71.48C309.871 71.9707 310.692 72.216 311.674 72.216C312.698 72.216 313.487 72.024 314.042 71.64C314.618 71.2347 314.906 70.7227 314.906 70.104C314.906 69.4427 314.586 68.952 313.946 68.632C313.327 68.312 312.335 67.96 310.97 67.576C309.647 67.2133 308.57 66.8613 307.738 66.52C306.906 66.1787 306.18 65.656 305.562 64.952C304.964 64.248 304.666 63.32 304.666 62.168C304.666 61.2293 304.943 60.376 305.498 59.608C306.052 58.8187 306.842 58.2 307.866 57.752C308.911 57.304 310.106 57.08 311.45 57.08C313.455 57.08 315.066 57.592 316.282 58.616C317.519 59.6187 318.18 60.9947 318.266 62.744H314.618C314.554 61.9547 314.234 61.3253 313.658 60.856C313.082 60.3867 312.303 60.152 311.322 60.152C310.362 60.152 309.626 60.3333 309.114 60.696C308.602 61.0587 308.346 61.5387 308.346 62.136C308.346 62.6053 308.516 63 308.858 63.32C309.199 63.64 309.615 63.896 310.106 64.088C310.596 64.2587 311.322 64.4827 312.282 64.76C313.562 65.1013 314.607 65.4533 315.418 65.816C316.25 66.1573 316.964 66.6693 317.562 67.352C318.159 68.0347 318.468 68.9413 318.49 70.072C318.49 71.0747 318.212 71.9707 317.658 72.76C317.103 73.5493 316.314 74.168 315.29 74.616C314.287 75.064 313.103 75.288 311.738 75.288ZM324.287 55.032C323.626 55.032 323.071 54.808 322.623 54.36C322.175 53.912 321.951 53.3573 321.951 52.696C321.951 52.0347 322.175 51.48 322.623 51.032C323.071 50.584 323.626 50.36 324.287 50.36C324.927 50.36 325.471 50.584 325.919 51.032C326.367 51.48 326.591 52.0347 326.591 52.696C326.591 53.3573 326.367 53.912 325.919 54.36C325.471 54.808 324.927 55.032 324.287 55.032ZM326.079 57.368V75H322.431V57.368H326.079ZM339.989 57.08C341.333 57.08 342.527 57.368 343.573 57.944C344.639 58.52 345.471 59.3733 346.069 60.504C346.687 61.6347 346.997 63 346.997 64.6V75H343.381V65.144C343.381 63.5653 342.986 62.36 342.197 61.528C341.407 60.6747 340.33 60.248 338.965 60.248C337.599 60.248 336.511 60.6747 335.701 61.528C334.911 62.36 334.517 63.5653 334.517 65.144V75H330.869V51.32H334.517V59.416C335.135 58.6693 335.914 58.0933 336.853 57.688C337.813 57.2827 338.858 57.08 339.989 57.08ZM155.744 105.08C157.131 105.08 158.368 105.368 159.456 105.944C160.565 106.52 161.429 107.373 162.048 108.504C162.688 109.635 163.008 111 163.008 112.6V123H159.392V113.144C159.392 111.565 158.997 110.36 158.208 109.528C157.419 108.675 156.341 108.248 154.976 108.248C153.611 108.248 152.523 108.675 151.712 109.528C150.923 110.36 150.528 111.565 150.528 113.144V123H146.912V113.144C146.912 111.565 146.517 110.36 145.728 109.528C144.939 108.675 143.861 108.248 142.496 108.248C141.131 108.248 140.043 108.675 139.232 109.528C138.443 110.36 138.048 111.565 138.048 113.144V123H134.4V105.368H138.048V107.384C138.645 106.659 139.403 106.093 140.32 105.688C141.237 105.283 142.219 105.08 143.264 105.08C144.672 105.08 145.931 105.379 147.04 105.976C148.149 106.573 149.003 107.437 149.6 108.568C150.133 107.501 150.965 106.659 152.096 106.04C153.227 105.4 154.443 105.08 155.744 105.08ZM183.81 113.752C183.81 114.413 183.767 115.011 183.682 115.544H170.21C170.317 116.952 170.839 118.083 171.778 118.936C172.717 119.789 173.869 120.216 175.234 120.216C177.197 120.216 178.583 119.395 179.394 117.752H183.33C182.797 119.373 181.826 120.707 180.418 121.752C179.031 122.776 177.303 123.288 175.234 123.288C173.549 123.288 172.034 122.915 170.69 122.168C169.367 121.4 168.322 120.333 167.554 118.968C166.807 117.581 166.434 115.981 166.434 114.168C166.434 112.355 166.797 110.765 167.522 109.4C168.269 108.013 169.303 106.947 170.626 106.2C171.97 105.453 173.506 105.08 175.234 105.08C176.898 105.08 178.381 105.443 179.682 106.168C180.983 106.893 181.997 107.917 182.722 109.24C183.447 110.541 183.81 112.045 183.81 113.752ZM180.002 112.6C179.981 111.256 179.501 110.179 178.562 109.368C177.623 108.557 176.461 108.152 175.074 108.152C173.815 108.152 172.738 108.557 171.842 109.368C170.946 110.157 170.413 111.235 170.242 112.6H180.002ZM196.296 105.08C197.683 105.08 198.92 105.368 200.008 105.944C201.117 106.52 201.981 107.373 202.6 108.504C203.219 109.635 203.528 111 203.528 112.6V123H199.912V113.144C199.912 111.565 199.517 110.36 198.728 109.528C197.939 108.675 196.861 108.248 195.496 108.248C194.131 108.248 193.043 108.675 192.232 109.528C191.443 110.36 191.048 111.565 191.048 113.144V123H187.4V105.368H191.048V107.384C191.645 106.659 192.403 106.093 193.32 105.688C194.259 105.283 195.251 105.08 196.296 105.08ZM215.285 105.08C216.651 105.08 217.856 105.357 218.901 105.912C219.968 106.445 220.8 107.117 221.397 107.928V105.368H225.077V123.288C225.077 124.909 224.736 126.349 224.053 127.608C223.371 128.888 222.379 129.891 221.077 130.616C219.797 131.341 218.261 131.704 216.469 131.704C214.08 131.704 212.096 131.139 210.517 130.008C208.939 128.899 208.043 127.384 207.829 125.464H211.445C211.723 126.381 212.309 127.117 213.205 127.672C214.123 128.248 215.211 128.536 216.469 128.536C217.941 128.536 219.125 128.088 220.021 127.192C220.939 126.296 221.397 124.995 221.397 123.288V120.344C220.779 121.176 219.936 121.88 218.869 122.456C217.824 123.011 216.629 123.288 215.285 123.288C213.749 123.288 212.341 122.904 211.061 122.136C209.803 121.347 208.8 120.259 208.053 118.872C207.328 117.464 206.965 115.875 206.965 114.104C206.965 112.333 207.328 110.765 208.053 109.4C208.8 108.035 209.803 106.979 211.061 106.232C212.341 105.464 213.749 105.08 215.285 105.08ZM221.397 114.168C221.397 112.952 221.141 111.896 220.629 111C220.139 110.104 219.488 109.421 218.677 108.952C217.867 108.483 216.992 108.248 216.053 108.248C215.115 108.248 214.24 108.483 213.429 108.952C212.619 109.4 211.957 110.072 211.445 110.968C210.955 111.843 210.709 112.888 210.709 114.104C210.709 115.32 210.955 116.387 211.445 117.304C211.957 118.221 212.619 118.925 213.429 119.416C214.261 119.885 215.136 120.12 216.053 120.12C216.992 120.12 217.867 119.885 218.677 119.416C219.488 118.947 220.139 118.264 220.629 117.368C221.141 116.451 221.397 115.384 221.397 114.168ZM245.837 105.368V123H242.189V120.92C241.613 121.645 240.855 122.221 239.917 122.648C238.999 123.053 238.018 123.256 236.973 123.256C235.586 123.256 234.338 122.968 233.229 122.392C232.141 121.816 231.277 120.963 230.637 119.832C230.018 118.701 229.709 117.336 229.709 115.736V105.368H233.325V115.192C233.325 116.771 233.719 117.987 234.509 118.84C235.298 119.672 236.375 120.088 237.741 120.088C239.106 120.088 240.183 119.672 240.973 118.84C241.783 117.987 242.189 116.771 242.189 115.192V105.368H245.837ZM259.546 105.08C260.933 105.08 262.17 105.368 263.258 105.944C264.367 106.52 265.231 107.373 265.85 108.504C266.469 109.635 266.778 111 266.778 112.6V123H263.162V113.144C263.162 111.565 262.767 110.36 261.978 109.528C261.189 108.675 260.111 108.248 258.746 108.248C257.381 108.248 256.293 108.675 255.482 109.528C254.693 110.36 254.298 111.565 254.298 113.144V123H250.65V105.368H254.298V107.384C254.895 106.659 255.653 106.093 256.57 105.688C257.509 105.283 258.501 105.08 259.546 105.08ZM275.687 108.344V118.104C275.687 118.765 275.837 119.245 276.135 119.544C276.455 119.821 276.989 119.96 277.735 119.96H279.975V123H277.095C275.453 123 274.194 122.616 273.319 121.848C272.445 121.08 272.007 119.832 272.007 118.104V108.344H269.927V105.368H272.007V100.984H275.687V105.368H279.975V108.344H275.687ZM299.306 105.368V123H295.658V120.92C295.082 121.645 294.324 122.221 293.386 122.648C292.468 123.053 291.487 123.256 290.442 123.256C289.055 123.256 287.807 122.968 286.698 122.392C285.61 121.816 284.746 120.963 284.106 119.832C283.487 118.701 283.178 117.336 283.178 115.736V105.368H286.794V115.192C286.794 116.771 287.188 117.987 287.978 118.84C288.767 119.672 289.844 120.088 291.21 120.088C292.575 120.088 293.652 119.672 294.442 118.84C295.252 117.987 295.658 116.771 295.658 115.192V105.368H299.306ZM313.015 105.08C314.401 105.08 315.639 105.368 316.727 105.944C317.836 106.52 318.7 107.373 319.319 108.504C319.937 109.635 320.247 111 320.247 112.6V123H316.631V113.144C316.631 111.565 316.236 110.36 315.447 109.528C314.657 108.675 313.58 108.248 312.215 108.248C310.849 108.248 309.761 108.675 308.951 109.528C308.161 110.36 307.767 111.565 307.767 113.144V123H304.119V105.368H307.767V107.384C308.364 106.659 309.121 106.093 310.039 105.688C310.977 105.283 311.969 105.08 313.015 105.08ZM332.004 105.08C333.369 105.08 334.575 105.357 335.62 105.912C336.687 106.445 337.519 107.117 338.116 107.928V105.368H341.796V123.288C341.796 124.909 341.455 126.349 340.772 127.608C340.089 128.888 339.097 129.891 337.796 130.616C336.516 131.341 334.98 131.704 333.188 131.704C330.799 131.704 328.815 131.139 327.236 130.008C325.657 128.899 324.761 127.384 324.548 125.464H328.164C328.441 126.381 329.028 127.117 329.924 127.672C330.841 128.248 331.929 128.536 333.188 128.536C334.66 128.536 335.844 128.088 336.74 127.192C337.657 126.296 338.116 124.995 338.116 123.288V120.344C337.497 121.176 336.655 121.88 335.588 122.456C334.543 123.011 333.348 123.288 332.004 123.288C330.468 123.288 329.06 122.904 327.78 122.136C326.521 121.347 325.519 120.259 324.772 118.872C324.047 117.464 323.684 115.875 323.684 114.104C323.684 112.333 324.047 110.765 324.772 109.4C325.519 108.035 326.521 106.979 327.78 106.232C329.06 105.464 330.468 105.08 332.004 105.08ZM338.116 114.168C338.116 112.952 337.86 111.896 337.348 111C336.857 110.104 336.207 109.421 335.396 108.952C334.585 108.483 333.711 108.248 332.772 108.248C331.833 108.248 330.959 108.483 330.148 108.952C329.337 109.4 328.676 110.072 328.164 110.968C327.673 111.843 327.428 112.888 327.428 114.104C327.428 115.32 327.673 116.387 328.164 117.304C328.676 118.221 329.337 118.925 330.148 119.416C330.98 119.885 331.855 120.12 332.772 120.12C333.711 120.12 334.585 119.885 335.396 119.416C336.207 118.947 336.857 118.264 337.348 117.368C337.86 116.451 338.116 115.384 338.116 114.168ZM353.564 114.2L361.692 123H356.764L350.236 115.416V123H346.588V99.32H350.236V113.08L356.636 105.368H361.692L353.564 114.2ZM363.09 114.104C363.09 112.333 363.453 110.765 364.178 109.4C364.925 108.035 365.928 106.979 367.186 106.232C368.466 105.464 369.874 105.08 371.41 105.08C372.797 105.08 374.002 105.357 375.026 105.912C376.072 106.445 376.904 107.117 377.522 107.928V105.368H381.202V123H377.522V120.376C376.904 121.208 376.061 121.901 374.994 122.456C373.928 123.011 372.712 123.288 371.346 123.288C369.832 123.288 368.445 122.904 367.186 122.136C365.928 121.347 364.925 120.259 364.178 118.872C363.453 117.464 363.09 115.875 363.09 114.104ZM377.522 114.168C377.522 112.952 377.266 111.896 376.754 111C376.264 110.104 375.613 109.421 374.802 108.952C373.992 108.483 373.117 108.248 372.178 108.248C371.24 108.248 370.365 108.483 369.554 108.952C368.744 109.4 368.082 110.072 367.57 110.968C367.08 111.843 366.834 112.888 366.834 114.104C366.834 115.32 367.08 116.387 367.57 117.304C368.082 118.221 368.744 118.925 369.554 119.416C370.386 119.885 371.261 120.12 372.178 120.12C373.117 120.12 373.992 119.885 374.802 119.416C375.613 118.947 376.264 118.264 376.754 117.368C377.266 116.451 377.522 115.384 377.522 114.168ZM394.89 105.08C396.276 105.08 397.514 105.368 398.602 105.944C399.711 106.52 400.575 107.373 401.194 108.504C401.812 109.635 402.122 111 402.122 112.6V123H398.506V113.144C398.506 111.565 398.111 110.36 397.322 109.528C396.532 108.675 395.455 108.248 394.09 108.248C392.724 108.248 391.636 108.675 390.826 109.528C390.036 110.36 389.642 111.565 389.642 113.144V123H385.994V105.368H389.642V107.384C390.239 106.659 390.996 106.093 391.914 105.688C392.852 105.283 393.844 105.08 394.89 105.08ZM410.775 118.616L406.903 127.448H404.535L406.807 118.616H410.775ZM133.184 162.104C133.184 160.333 133.547 158.765 134.272 157.4C135.019 156.035 136.021 154.979 137.28 154.232C138.56 153.464 139.979 153.08 141.536 153.08C142.688 153.08 143.819 153.336 144.928 153.848C146.059 154.339 146.955 155 147.616 155.832V147.32H151.296V171H147.616V168.344C147.019 169.197 146.187 169.901 145.12 170.456C144.075 171.011 142.869 171.288 141.504 171.288C139.968 171.288 138.56 170.904 137.28 170.136C136.021 169.347 135.019 168.259 134.272 166.872C133.547 165.464 133.184 163.875 133.184 162.104ZM147.616 162.168C147.616 160.952 147.36 159.896 146.848 159C146.357 158.104 145.707 157.421 144.896 156.952C144.085 156.483 143.211 156.248 142.272 156.248C141.333 156.248 140.459 156.483 139.648 156.952C138.837 157.4 138.176 158.072 137.664 158.968C137.173 159.843 136.928 160.888 136.928 162.104C136.928 163.32 137.173 164.387 137.664 165.304C138.176 166.221 138.837 166.925 139.648 167.416C140.48 167.885 141.355 168.12 142.272 168.12C143.211 168.12 144.085 167.885 144.896 167.416C145.707 166.947 146.357 166.264 146.848 165.368C147.36 164.451 147.616 163.384 147.616 162.168ZM157.944 151.032C157.282 151.032 156.728 150.808 156.28 150.36C155.832 149.912 155.608 149.357 155.608 148.696C155.608 148.035 155.832 147.48 156.28 147.032C156.728 146.584 157.282 146.36 157.944 146.36C158.584 146.36 159.128 146.584 159.576 147.032C160.024 147.48 160.248 148.035 160.248 148.696C160.248 149.357 160.024 149.912 159.576 150.36C159.128 150.808 158.584 151.032 157.944 151.032ZM159.736 153.368V171H156.088V153.368H159.736ZM188.39 155.384C188.39 156.515 188.123 157.581 187.59 158.584C187.056 159.587 186.203 160.408 185.03 161.048C183.856 161.667 182.352 161.976 180.518 161.976H176.486V171H172.838V148.76H180.518C182.224 148.76 183.664 149.059 184.838 149.656C186.032 150.232 186.918 151.021 187.494 152.024C188.091 153.027 188.39 154.147 188.39 155.384ZM180.518 159C181.904 159 182.939 158.691 183.622 158.072C184.304 157.432 184.646 156.536 184.646 155.384C184.646 152.952 183.27 151.736 180.518 151.736H176.486V159H180.518ZM195.517 155.928C196.05 155.032 196.754 154.339 197.629 153.848C198.525 153.336 199.581 153.08 200.797 153.08V156.856H199.869C198.439 156.856 197.351 157.219 196.605 157.944C195.879 158.669 195.517 159.928 195.517 161.72V171H191.869V153.368H195.517V155.928ZM211.798 171.288C210.134 171.288 208.63 170.915 207.286 170.168C205.942 169.4 204.886 168.333 204.118 166.968C203.35 165.581 202.966 163.981 202.966 162.168C202.966 160.376 203.361 158.787 204.15 157.4C204.939 156.013 206.017 154.947 207.382 154.2C208.747 153.453 210.273 153.08 211.958 153.08C213.643 153.08 215.169 153.453 216.534 154.2C217.899 154.947 218.977 156.013 219.766 157.4C220.555 158.787 220.95 160.376 220.95 162.168C220.95 163.96 220.545 165.549 219.734 166.936C218.923 168.323 217.814 169.4 216.406 170.168C215.019 170.915 213.483 171.288 211.798 171.288ZM211.798 168.12C212.737 168.12 213.611 167.896 214.422 167.448C215.254 167 215.926 166.328 216.438 165.432C216.95 164.536 217.206 163.448 217.206 162.168C217.206 160.888 216.961 159.811 216.47 158.936C215.979 158.04 215.329 157.368 214.518 156.92C213.707 156.472 212.833 156.248 211.894 156.248C210.955 156.248 210.081 156.472 209.27 156.92C208.481 157.368 207.851 158.04 207.382 158.936C206.913 159.811 206.678 160.888 206.678 162.168C206.678 164.067 207.158 165.539 208.118 166.584C209.099 167.608 210.326 168.12 211.798 168.12ZM232.108 162.072L237.804 171H233.676L229.868 165.016L226.284 171H222.476L228.172 162.328L222.476 153.368H226.604L230.412 159.352L233.996 153.368H237.804L232.108 162.072ZM248.173 171.288C246.509 171.288 245.005 170.915 243.661 170.168C242.317 169.4 241.261 168.333 240.493 166.968C239.725 165.581 239.341 163.981 239.341 162.168C239.341 160.376 239.736 158.787 240.525 157.4C241.314 156.013 242.392 154.947 243.757 154.2C245.122 153.453 246.648 153.08 248.333 153.08C250.018 153.08 251.544 153.453 252.909 154.2C254.274 154.947 255.352 156.013 256.141 157.4C256.93 158.787 257.325 160.376 257.325 162.168C257.325 163.96 256.92 165.549 256.109 166.936C255.298 168.323 254.189 169.4 252.781 170.168C251.394 170.915 249.858 171.288 248.173 171.288ZM248.173 168.12C249.112 168.12 249.986 167.896 250.797 167.448C251.629 167 252.301 166.328 252.813 165.432C253.325 164.536 253.581 163.448 253.581 162.168C253.581 160.888 253.336 159.811 252.845 158.936C252.354 158.04 251.704 157.368 250.893 156.92C250.082 156.472 249.208 156.248 248.269 156.248C247.33 156.248 246.456 156.472 245.645 156.92C244.856 157.368 244.226 158.04 243.757 158.936C243.288 159.811 243.053 160.888 243.053 162.168C243.053 164.067 243.533 165.539 244.493 166.584C245.474 167.608 246.701 168.12 248.173 168.12ZM270.78 166.04C272.828 164.269 274.438 162.819 275.612 161.688C276.806 160.536 277.798 159.341 278.588 158.104C279.377 156.867 279.772 155.629 279.772 154.392C279.772 153.112 279.462 152.109 278.844 151.384C278.246 150.659 277.297 150.296 275.996 150.296C274.737 150.296 273.756 150.701 273.052 151.512C272.369 152.301 272.006 153.368 271.964 154.712H268.444C268.508 152.28 269.233 150.424 270.62 149.144C272.028 147.843 273.809 147.192 275.964 147.192C278.289 147.192 280.102 147.832 281.404 149.112C282.726 150.392 283.388 152.099 283.388 154.232C283.388 155.768 282.993 157.251 282.204 158.68C281.436 160.088 280.508 161.357 279.42 162.488C278.353 163.597 276.988 164.888 275.324 166.36L273.884 167.64H284.028V170.68H268.476V168.024L270.78 166.04ZM287.233 159.032C287.233 155.341 287.851 152.461 289.089 150.392C290.347 148.301 292.502 147.256 295.553 147.256C298.603 147.256 300.747 148.301 301.985 150.392C303.243 152.461 303.873 155.341 303.873 159.032C303.873 162.765 303.243 165.688 301.985 167.8C300.747 169.891 298.603 170.936 295.553 170.936C292.502 170.936 290.347 169.891 289.089 167.8C287.851 165.688 287.233 162.765 287.233 159.032ZM300.289 159.032C300.289 157.304 300.171 155.843 299.937 154.648C299.723 153.453 299.275 152.483 298.593 151.736C297.91 150.968 296.897 150.584 295.553 150.584C294.209 150.584 293.195 150.968 292.513 151.736C291.83 152.483 291.371 153.453 291.137 154.648C290.923 155.843 290.817 157.304 290.817 159.032C290.817 160.824 290.923 162.328 291.137 163.544C291.35 164.76 291.798 165.741 292.481 166.488C293.185 167.235 294.209 167.608 295.553 167.608C296.897 167.608 297.91 167.235 298.593 166.488C299.297 165.741 299.755 164.76 299.969 163.544C300.182 162.328 300.289 160.824 300.289 159.032ZM309.749 166.04C311.797 164.269 313.407 162.819 314.581 161.688C315.775 160.536 316.767 159.341 317.557 158.104C318.346 156.867 318.741 155.629 318.741 154.392C318.741 153.112 318.431 152.109 317.813 151.384C317.215 150.659 316.266 150.296 314.965 150.296C313.706 150.296 312.725 150.701 312.021 151.512C311.338 152.301 310.975 153.368 310.933 154.712H307.413C307.477 152.28 308.202 150.424 309.589 149.144C310.997 147.843 312.778 147.192 314.933 147.192C317.258 147.192 319.071 147.832 320.373 149.112C321.695 150.392 322.357 152.099 322.357 154.232C322.357 155.768 321.962 157.251 321.173 158.68C320.405 160.088 319.477 161.357 318.389 162.488C317.322 163.597 315.957 164.888 314.293 166.36L312.853 167.64H322.997V170.68H307.445V168.024L309.749 166.04ZM325.753 166.136V163.384L336.505 147.96H340.921V162.968H343.897V166.136H340.921V171H337.337V166.136H325.753ZM337.497 151.672L329.945 162.968H337.497V151.672Z" fill="#232323"/>
</g>
<g filter="url(#filter0_d_396_880)">
<rect x="427" y="117" width="226" height="126" rx="20" fill="#DCFCCB" shape-rendering="crispEdges"/>
<path d="M469.075 174.112C468.328 174.112 467.656 173.984 467.059 173.728C466.462 173.461 465.992 173.088 465.651 172.608C465.31 172.128 465.139 171.568 465.139 170.928H467.091C467.134 171.408 467.32 171.803 467.651 172.112C467.992 172.421 468.467 172.576 469.075 172.576C469.704 172.576 470.195 172.427 470.547 172.128C470.899 171.819 471.075 171.424 471.075 170.944C471.075 170.571 470.963 170.267 470.739 170.032C470.526 169.797 470.254 169.616 469.923 169.488C469.603 169.36 469.155 169.221 468.579 169.072C467.854 168.88 467.262 168.688 466.803 168.496C466.355 168.293 465.971 167.984 465.651 167.568C465.331 167.152 465.171 166.597 465.171 165.904C465.171 165.264 465.331 164.704 465.651 164.224C465.971 163.744 466.419 163.376 466.995 163.12C467.571 162.864 468.238 162.736 468.995 162.736C470.072 162.736 470.952 163.008 471.635 163.552C472.328 164.085 472.712 164.821 472.787 165.76H470.771C470.739 165.355 470.547 165.008 470.195 164.72C469.843 164.432 469.379 164.288 468.803 164.288C468.28 164.288 467.854 164.421 467.523 164.688C467.192 164.955 467.027 165.339 467.027 165.84C467.027 166.181 467.128 166.464 467.331 166.688C467.544 166.901 467.811 167.072 468.131 167.2C468.451 167.328 468.888 167.467 469.443 167.616C470.179 167.819 470.776 168.021 471.235 168.224C471.704 168.427 472.099 168.741 472.419 169.168C472.75 169.584 472.915 170.144 472.915 170.848C472.915 171.413 472.76 171.947 472.451 172.448C472.152 172.949 471.71 173.355 471.123 173.664C470.547 173.963 469.864 174.112 469.075 174.112ZM478.891 174.144C478.059 174.144 477.307 173.957 476.635 173.584C475.963 173.2 475.435 172.667 475.051 171.984C474.667 171.291 474.475 170.491 474.475 169.584C474.475 168.688 474.673 167.893 475.067 167.2C475.462 166.507 476.001 165.973 476.683 165.6C477.366 165.227 478.129 165.04 478.971 165.04C479.814 165.04 480.577 165.227 481.259 165.6C481.942 165.973 482.481 166.507 482.875 167.2C483.27 167.893 483.467 168.688 483.467 169.584C483.467 170.48 483.265 171.275 482.859 171.968C482.454 172.661 481.899 173.2 481.195 173.584C480.502 173.957 479.734 174.144 478.891 174.144ZM478.891 172.56C479.361 172.56 479.798 172.448 480.203 172.224C480.619 172 480.955 171.664 481.211 171.216C481.467 170.768 481.595 170.224 481.595 169.584C481.595 168.944 481.473 168.405 481.227 167.968C480.982 167.52 480.657 167.184 480.251 166.96C479.846 166.736 479.409 166.624 478.939 166.624C478.47 166.624 478.033 166.736 477.627 166.96C477.233 167.184 476.918 167.52 476.683 167.968C476.449 168.405 476.331 168.944 476.331 169.584C476.331 170.533 476.571 171.269 477.051 171.792C477.542 172.304 478.155 172.56 478.891 172.56ZM487.094 162.16V174H485.27V162.16H487.094ZM497.473 165.184V174H495.649V172.96C495.361 173.323 494.982 173.611 494.513 173.824C494.054 174.027 493.564 174.128 493.041 174.128C492.348 174.128 491.724 173.984 491.169 173.696C490.625 173.408 490.193 172.981 489.873 172.416C489.564 171.851 489.409 171.168 489.409 170.368V165.184H491.217V170.096C491.217 170.885 491.414 171.493 491.809 171.92C492.204 172.336 492.742 172.544 493.425 172.544C494.108 172.544 494.646 172.336 495.041 171.92C495.446 171.493 495.649 170.885 495.649 170.096V165.184H497.473ZM503.08 174.144C502.386 174.144 501.762 174.021 501.208 173.776C500.664 173.52 500.232 173.179 499.912 172.752C499.592 172.315 499.421 171.829 499.4 171.296H501.288C501.32 171.669 501.496 171.984 501.816 172.24C502.146 172.485 502.557 172.608 503.048 172.608C503.56 172.608 503.954 172.512 504.232 172.32C504.52 172.117 504.664 171.861 504.664 171.552C504.664 171.221 504.504 170.976 504.184 170.816C503.874 170.656 503.378 170.48 502.696 170.288C502.034 170.107 501.496 169.931 501.08 169.76C500.664 169.589 500.301 169.328 499.992 168.976C499.693 168.624 499.544 168.16 499.544 167.584C499.544 167.115 499.682 166.688 499.96 166.304C500.237 165.909 500.632 165.6 501.144 165.376C501.666 165.152 502.264 165.04 502.936 165.04C503.938 165.04 504.744 165.296 505.352 165.808C505.97 166.309 506.301 166.997 506.344 167.872H504.52C504.488 167.477 504.328 167.163 504.04 166.928C503.752 166.693 503.362 166.576 502.872 166.576C502.392 166.576 502.024 166.667 501.768 166.848C501.512 167.029 501.384 167.269 501.384 167.568C501.384 167.803 501.469 168 501.64 168.16C501.81 168.32 502.018 168.448 502.264 168.544C502.509 168.629 502.872 168.741 503.352 168.88C503.992 169.051 504.514 169.227 504.92 169.408C505.336 169.579 505.693 169.835 505.992 170.176C506.29 170.517 506.445 170.971 506.456 171.536C506.456 172.037 506.317 172.485 506.04 172.88C505.762 173.275 505.368 173.584 504.856 173.808C504.354 174.032 503.762 174.144 503.08 174.144ZM509.355 164.016C509.024 164.016 508.747 163.904 508.523 163.68C508.299 163.456 508.187 163.179 508.187 162.848C508.187 162.517 508.299 162.24 508.523 162.016C508.747 161.792 509.024 161.68 509.355 161.68C509.675 161.68 509.947 161.792 510.171 162.016C510.395 162.24 510.507 162.517 510.507 162.848C510.507 163.179 510.395 163.456 510.171 163.68C509.947 163.904 509.675 164.016 509.355 164.016ZM510.251 165.184V174H508.427V165.184H510.251ZM523.986 162.88V164.368H521.026V174H519.202V164.368H516.226V162.88H523.986ZM533.913 169.376C533.913 169.707 533.891 170.005 533.849 170.272H527.113C527.166 170.976 527.427 171.541 527.897 171.968C528.366 172.395 528.942 172.608 529.625 172.608C530.606 172.608 531.299 172.197 531.705 171.376H533.673C533.406 172.187 532.921 172.853 532.217 173.376C531.523 173.888 530.659 174.144 529.625 174.144C528.782 174.144 528.025 173.957 527.353 173.584C526.691 173.2 526.169 172.667 525.785 171.984C525.411 171.291 525.225 170.491 525.225 169.584C525.225 168.677 525.406 167.883 525.769 167.2C526.142 166.507 526.659 165.973 527.321 165.6C527.993 165.227 528.761 165.04 529.625 165.04C530.457 165.04 531.198 165.221 531.849 165.584C532.499 165.947 533.006 166.459 533.369 167.12C533.731 167.771 533.913 168.523 533.913 169.376ZM532.009 168.8C531.998 168.128 531.758 167.589 531.289 167.184C530.819 166.779 530.238 166.576 529.545 166.576C528.915 166.576 528.377 166.779 527.929 167.184C527.481 167.579 527.214 168.117 527.129 168.8H532.009ZM537.532 166.48C537.841 166.075 538.262 165.733 538.796 165.456C539.329 165.179 539.932 165.04 540.604 165.04C541.372 165.04 542.07 165.232 542.7 165.616C543.34 165.989 543.841 166.517 544.204 167.2C544.566 167.883 544.748 168.667 544.748 169.552C544.748 170.437 544.566 171.232 544.204 171.936C543.841 172.629 543.34 173.173 542.7 173.568C542.07 173.952 541.372 174.144 540.604 174.144C539.932 174.144 539.334 174.011 538.812 173.744C538.289 173.467 537.862 173.125 537.532 172.72V178.192H535.708V165.184H537.532V166.48ZM542.892 169.552C542.892 168.944 542.764 168.421 542.508 167.984C542.262 167.536 541.932 167.2 541.516 166.976C541.11 166.741 540.673 166.624 540.204 166.624C539.745 166.624 539.308 166.741 538.892 166.976C538.486 167.211 538.156 167.552 537.9 168C537.654 168.448 537.532 168.976 537.532 169.584C537.532 170.192 537.654 170.725 537.9 171.184C538.156 171.632 538.486 171.973 538.892 172.208C539.308 172.443 539.745 172.56 540.204 172.56C540.673 172.56 541.11 172.443 541.516 172.208C541.932 171.963 542.262 171.611 542.508 171.152C542.764 170.693 542.892 170.16 542.892 169.552ZM545.944 169.552C545.944 168.667 546.125 167.883 546.488 167.2C546.861 166.517 547.362 165.989 547.992 165.616C548.632 165.232 549.336 165.04 550.104 165.04C550.797 165.04 551.4 165.179 551.912 165.456C552.434 165.723 552.85 166.059 553.16 166.464V165.184H555V174H553.16V172.688C552.85 173.104 552.429 173.451 551.896 173.728C551.362 174.005 550.754 174.144 550.072 174.144C549.314 174.144 548.621 173.952 547.992 173.568C547.362 173.173 546.861 172.629 546.488 171.936C546.125 171.232 545.944 170.437 545.944 169.552ZM553.16 169.584C553.16 168.976 553.032 168.448 552.776 168C552.53 167.552 552.205 167.211 551.8 166.976C551.394 166.741 550.957 166.624 550.488 166.624C550.018 166.624 549.581 166.741 549.176 166.976C548.77 167.2 548.44 167.536 548.184 167.984C547.938 168.421 547.816 168.944 547.816 169.552C547.816 170.16 547.938 170.693 548.184 171.152C548.44 171.611 548.77 171.963 549.176 172.208C549.592 172.443 550.029 172.56 550.488 172.56C550.957 172.56 551.394 172.443 551.8 172.208C552.205 171.973 552.53 171.632 552.776 171.184C553.032 170.725 553.16 170.192 553.16 169.584ZM559.523 166.672V171.552C559.523 171.883 559.598 172.123 559.747 172.272C559.907 172.411 560.174 172.48 560.547 172.48H561.667V174H560.227C559.406 174 558.777 173.808 558.339 173.424C557.902 173.04 557.683 172.416 557.683 171.552V166.672H556.643V165.184H557.683V162.992H559.523V165.184H561.667V166.672H559.523ZM573.633 174L569.329 169.024V174H567.505V162.88H569.329V167.952L573.649 162.88H575.937L571.105 168.448L576.017 174H573.633ZM585.71 169.376C585.71 169.707 585.688 170.005 585.646 170.272H578.91C578.963 170.976 579.224 171.541 579.694 171.968C580.163 172.395 580.739 172.608 581.422 172.608C582.403 172.608 583.096 172.197 583.502 171.376H585.47C585.203 172.187 584.718 172.853 584.014 173.376C583.32 173.888 582.456 174.144 581.422 174.144C580.579 174.144 579.822 173.957 579.15 173.584C578.488 173.2 577.966 172.667 577.582 171.984C577.208 171.291 577.022 170.491 577.022 169.584C577.022 168.677 577.203 167.883 577.566 167.2C577.939 166.507 578.456 165.973 579.118 165.6C579.79 165.227 580.558 165.04 581.422 165.04C582.254 165.04 582.995 165.221 583.646 165.584C584.296 165.947 584.803 166.459 585.166 167.12C585.528 167.771 585.71 168.523 585.71 169.376ZM583.806 168.8C583.795 168.128 583.555 167.589 583.086 167.184C582.616 166.779 582.035 166.576 581.342 166.576C580.712 166.576 580.174 166.779 579.726 167.184C579.278 167.579 579.011 168.117 578.926 168.8H583.806ZM589.329 162.16V174H587.505V162.16H589.329ZM595.547 174.144C594.715 174.144 593.963 173.957 593.291 173.584C592.619 173.2 592.091 172.667 591.707 171.984C591.323 171.291 591.131 170.491 591.131 169.584C591.131 168.688 591.329 167.893 591.723 167.2C592.118 166.507 592.657 165.973 593.339 165.6C594.022 165.227 594.785 165.04 595.627 165.04C596.47 165.04 597.233 165.227 597.915 165.6C598.598 165.973 599.137 166.507 599.531 167.2C599.926 167.893 600.123 168.688 600.123 169.584C600.123 170.48 599.921 171.275 599.515 171.968C599.11 172.661 598.555 173.2 597.851 173.584C597.158 173.957 596.39 174.144 595.547 174.144ZM595.547 172.56C596.017 172.56 596.454 172.448 596.859 172.224C597.275 172 597.611 171.664 597.867 171.216C598.123 170.768 598.251 170.224 598.251 169.584C598.251 168.944 598.129 168.405 597.883 167.968C597.638 167.52 597.313 167.184 596.907 166.96C596.502 166.736 596.065 166.624 595.595 166.624C595.126 166.624 594.689 166.736 594.283 166.96C593.889 167.184 593.574 167.52 593.339 167.968C593.105 168.405 592.987 168.944 592.987 169.584C592.987 170.533 593.227 171.269 593.707 171.792C594.198 172.304 594.811 172.56 595.547 172.56ZM603.751 162.16V174H601.927V162.16H603.751ZM605.537 169.552C605.537 168.667 605.719 167.883 606.081 167.2C606.455 166.517 606.956 165.989 607.585 165.616C608.225 165.232 608.929 165.04 609.697 165.04C610.391 165.04 610.993 165.179 611.505 165.456C612.028 165.723 612.444 166.059 612.753 166.464V165.184H614.593V174H612.753V172.688C612.444 173.104 612.023 173.451 611.489 173.728C610.956 174.005 610.348 174.144 609.665 174.144C608.908 174.144 608.215 173.952 607.585 173.568C606.956 173.173 606.455 172.629 606.081 171.936C605.719 171.232 605.537 170.437 605.537 169.552ZM612.753 169.584C612.753 168.976 612.625 168.448 612.369 168C612.124 167.552 611.799 167.211 611.393 166.976C610.988 166.741 610.551 166.624 610.081 166.624C609.612 166.624 609.175 166.741 608.769 166.976C608.364 167.2 608.033 167.536 607.777 167.984C607.532 168.421 607.409 168.944 607.409 169.552C607.409 170.16 607.532 170.693 607.777 171.152C608.033 171.611 608.364 171.963 608.769 172.208C609.185 172.443 609.623 172.56 610.081 172.56C610.551 172.56 610.988 172.443 611.393 172.208C611.799 171.973 612.124 171.632 612.369 171.184C612.625 170.725 612.753 170.192 612.753 169.584ZM507.692 198.112C506.945 198.112 506.273 197.984 505.676 197.728C505.079 197.461 504.609 197.088 504.268 196.608C503.927 196.128 503.756 195.568 503.756 194.928H505.708C505.751 195.408 505.937 195.803 506.268 196.112C506.609 196.421 507.084 196.576 507.692 196.576C508.321 196.576 508.812 196.427 509.164 196.128C509.516 195.819 509.692 195.424 509.692 194.944C509.692 194.571 509.58 194.267 509.356 194.032C509.143 193.797 508.871 193.616 508.54 193.488C508.22 193.36 507.772 193.221 507.196 193.072C506.471 192.88 505.879 192.688 505.42 192.496C504.972 192.293 504.588 191.984 504.268 191.568C503.948 191.152 503.788 190.597 503.788 189.904C503.788 189.264 503.948 188.704 504.268 188.224C504.588 187.744 505.036 187.376 505.612 187.12C506.188 186.864 506.855 186.736 507.612 186.736C508.689 186.736 509.569 187.008 510.252 187.552C510.945 188.085 511.329 188.821 511.404 189.76H509.388C509.356 189.355 509.164 189.008 508.812 188.72C508.46 188.432 507.996 188.288 507.42 188.288C506.897 188.288 506.471 188.421 506.14 188.688C505.809 188.955 505.644 189.339 505.644 189.84C505.644 190.181 505.745 190.464 505.948 190.688C506.161 190.901 506.428 191.072 506.748 191.2C507.068 191.328 507.505 191.467 508.06 191.616C508.796 191.819 509.393 192.021 509.852 192.224C510.321 192.427 510.716 192.741 511.036 193.168C511.367 193.584 511.532 194.144 511.532 194.848C511.532 195.413 511.377 195.947 511.068 196.448C510.769 196.949 510.327 197.355 509.74 197.664C509.164 197.963 508.481 198.112 507.692 198.112ZM513.076 193.552C513.076 192.667 513.258 191.883 513.62 191.2C513.994 190.517 514.495 189.989 515.124 189.616C515.764 189.232 516.468 189.04 517.236 189.04C517.93 189.04 518.532 189.179 519.044 189.456C519.567 189.723 519.983 190.059 520.292 190.464V189.184H522.132V198H520.292V196.688C519.983 197.104 519.562 197.451 519.028 197.728C518.495 198.005 517.887 198.144 517.204 198.144C516.447 198.144 515.754 197.952 515.124 197.568C514.495 197.173 513.994 196.629 513.62 195.936C513.258 195.232 513.076 194.437 513.076 193.552ZM520.292 193.584C520.292 192.976 520.164 192.448 519.908 192C519.663 191.552 519.338 191.211 518.932 190.976C518.527 190.741 518.09 190.624 517.62 190.624C517.151 190.624 516.714 190.741 516.308 190.976C515.903 191.2 515.572 191.536 515.316 191.984C515.071 192.421 514.948 192.944 514.948 193.552C514.948 194.16 515.071 194.693 515.316 195.152C515.572 195.611 515.903 195.963 516.308 196.208C516.724 196.443 517.162 196.56 517.62 196.56C518.09 196.56 518.527 196.443 518.932 196.208C519.338 195.973 519.663 195.632 519.908 195.184C520.164 194.725 520.292 194.192 520.292 193.584ZM535.2 189.04C535.893 189.04 536.512 189.184 537.056 189.472C537.611 189.76 538.043 190.187 538.352 190.752C538.672 191.317 538.832 192 538.832 192.8V198H537.024V193.072C537.024 192.283 536.827 191.68 536.432 191.264C536.037 190.837 535.499 190.624 534.816 190.624C534.133 190.624 533.589 190.837 533.184 191.264C532.789 191.68 532.592 192.283 532.592 193.072V198H530.784V193.072C530.784 192.283 530.587 191.68 530.192 191.264C529.797 190.837 529.259 190.624 528.576 190.624C527.893 190.624 527.349 190.837 526.944 191.264C526.549 191.68 526.352 192.283 526.352 193.072V198H524.528V189.184H526.352V190.192C526.651 189.829 527.029 189.547 527.488 189.344C527.947 189.141 528.437 189.04 528.96 189.04C529.664 189.04 530.293 189.189 530.848 189.488C531.403 189.787 531.829 190.219 532.128 190.784C532.395 190.251 532.811 189.829 533.376 189.52C533.941 189.2 534.549 189.04 535.2 189.04ZM542.977 190.48C543.286 190.075 543.708 189.733 544.241 189.456C544.774 189.179 545.377 189.04 546.049 189.04C546.817 189.04 547.516 189.232 548.145 189.616C548.785 189.989 549.286 190.517 549.649 191.2C550.012 191.883 550.193 192.667 550.193 193.552C550.193 194.437 550.012 195.232 549.649 195.936C549.286 196.629 548.785 197.173 548.145 197.568C547.516 197.952 546.817 198.144 546.049 198.144C545.377 198.144 544.78 198.011 544.257 197.744C543.734 197.467 543.308 197.125 542.977 196.72V202.192H541.153V189.184H542.977V190.48ZM548.337 193.552C548.337 192.944 548.209 192.421 547.953 191.984C547.708 191.536 547.377 191.2 546.961 190.976C546.556 190.741 546.118 190.624 545.649 190.624C545.19 190.624 544.753 190.741 544.337 190.976C543.932 191.211 543.601 191.552 543.345 192C543.1 192.448 542.977 192.976 542.977 193.584C542.977 194.192 543.1 194.725 543.345 195.184C543.601 195.632 543.932 195.973 544.337 196.208C544.753 196.443 545.19 196.56 545.649 196.56C546.118 196.56 546.556 196.443 546.961 196.208C547.377 195.963 547.708 195.611 547.953 195.152C548.209 194.693 548.337 194.16 548.337 193.552ZM551.389 193.552C551.389 192.667 551.57 191.883 551.933 191.2C552.306 190.517 552.808 189.989 553.437 189.616C554.077 189.232 554.781 189.04 555.549 189.04C556.242 189.04 556.845 189.179 557.357 189.456C557.88 189.723 558.296 190.059 558.605 190.464V189.184H560.445V198H558.605V196.688C558.296 197.104 557.874 197.451 557.341 197.728C556.808 198.005 556.2 198.144 555.517 198.144C554.76 198.144 554.066 197.952 553.437 197.568C552.808 197.173 552.306 196.629 551.933 195.936C551.57 195.232 551.389 194.437 551.389 193.552ZM558.605 193.584C558.605 192.976 558.477 192.448 558.221 192C557.976 191.552 557.65 191.211 557.245 190.976C556.84 190.741 556.402 190.624 555.933 190.624C555.464 190.624 555.026 190.741 554.621 190.976C554.216 191.2 553.885 191.536 553.629 191.984C553.384 192.421 553.261 192.944 553.261 193.552C553.261 194.16 553.384 194.693 553.629 195.152C553.885 195.611 554.216 195.963 554.621 196.208C555.037 196.443 555.474 196.56 555.933 196.56C556.402 196.56 556.84 196.443 557.245 196.208C557.65 195.973 557.976 195.632 558.221 195.184C558.477 194.725 558.605 194.192 558.605 193.584ZM567.401 189.04C568.073 189.04 568.67 189.184 569.193 189.472C569.726 189.76 570.142 190.187 570.441 190.752C570.75 191.317 570.905 192 570.905 192.8V198H569.097V193.072C569.097 192.283 568.899 191.68 568.505 191.264C568.11 190.837 567.571 190.624 566.889 190.624C566.206 190.624 565.662 190.837 565.257 191.264C564.862 191.68 564.665 192.283 564.665 193.072V198H562.841V186.16H564.665V190.208C564.974 189.835 565.363 189.547 565.833 189.344C566.313 189.141 566.835 189.04 567.401 189.04ZM575.519 186.88L575.311 194.64H573.791L573.583 186.88H575.519ZM574.607 198.112C574.277 198.112 573.999 198 573.775 197.776C573.551 197.552 573.439 197.275 573.439 196.944C573.439 196.613 573.551 196.336 573.775 196.112C573.999 195.888 574.277 195.776 574.607 195.776C574.927 195.776 575.199 195.888 575.423 196.112C575.647 196.336 575.759 196.613 575.759 196.944C575.759 197.275 575.647 197.552 575.423 197.776C575.199 198 574.927 198.112 574.607 198.112Z" fill="black"/>
</g>
<g filter="url(#filter1_d_396_880)">
<rect y="276" width="271" height="60" rx="20" fill="#F0FEE7" shape-rendering="crispEdges"/>
<path d="M21.264 300.88V308.896C21.264 309.888 20.96 310.672 20.352 311.248C19.7547 311.824 18.9653 312.112 17.984 312.112C17.0027 312.112 16.208 311.824 15.6 311.248C15.0027 310.672 14.704 309.888 14.704 308.896H16.544C16.5547 309.387 16.6773 309.776 16.912 310.064C17.1573 310.352 17.5147 310.496 17.984 310.496C18.4533 310.496 18.8107 310.352 19.056 310.064C19.3013 309.765 19.424 309.376 19.424 308.896V300.88H21.264ZM32.2153 303.184V312H30.3913V310.96C30.1033 311.323 29.7246 311.611 29.2553 311.824C28.7966 312.027 28.3059 312.128 27.7833 312.128C27.0899 312.128 26.4659 311.984 25.9113 311.696C25.3673 311.408 24.9353 310.981 24.6153 310.416C24.3059 309.851 24.1513 309.168 24.1513 308.368V303.184H25.9593V308.096C25.9593 308.885 26.1566 309.493 26.5513 309.92C26.9459 310.336 27.4846 310.544 28.1673 310.544C28.8499 310.544 29.3886 310.336 29.7833 309.92C30.1886 309.493 30.3913 308.885 30.3913 308.096V303.184H32.2153ZM34.0139 307.552C34.0139 306.667 34.1952 305.883 34.5579 305.2C34.9312 304.517 35.4325 303.989 36.0619 303.616C36.7019 303.232 37.4059 303.04 38.1739 303.04C38.8672 303.04 39.4699 303.179 39.9819 303.456C40.5045 303.723 40.9205 304.059 41.2299 304.464V303.184H43.0699V312H41.2299V310.688C40.9205 311.104 40.4992 311.451 39.9659 311.728C39.4325 312.005 38.8245 312.144 38.1419 312.144C37.3845 312.144 36.6912 311.952 36.0619 311.568C35.4325 311.173 34.9312 310.629 34.5579 309.936C34.1952 309.232 34.0139 308.437 34.0139 307.552ZM41.2299 307.584C41.2299 306.976 41.1019 306.448 40.8459 306C40.6005 305.552 40.2752 305.211 39.8699 304.976C39.4645 304.741 39.0272 304.624 38.5579 304.624C38.0885 304.624 37.6512 304.741 37.2459 304.976C36.8405 305.2 36.5099 305.536 36.2539 305.984C36.0085 306.421 35.8859 306.944 35.8859 307.552C35.8859 308.16 36.0085 308.693 36.2539 309.152C36.5099 309.611 36.8405 309.963 37.2459 310.208C37.6619 310.443 38.0992 310.56 38.5579 310.56C39.0272 310.56 39.4645 310.443 39.8699 310.208C40.2752 309.973 40.6005 309.632 40.8459 309.184C41.1019 308.725 41.2299 308.192 41.2299 307.584ZM47.2896 300.16V312H45.4656V300.16H47.2896ZM57.5046 312.112C56.758 312.112 56.086 311.984 55.4886 311.728C54.8913 311.461 54.422 311.088 54.0806 310.608C53.7393 310.128 53.5686 309.568 53.5686 308.928H55.5206C55.5633 309.408 55.75 309.803 56.0806 310.112C56.422 310.421 56.8966 310.576 57.5046 310.576C58.134 310.576 58.6246 310.427 58.9766 310.128C59.3286 309.819 59.5046 309.424 59.5046 308.944C59.5046 308.571 59.3926 308.267 59.1686 308.032C58.9553 307.797 58.6833 307.616 58.3526 307.488C58.0326 307.36 57.5846 307.221 57.0086 307.072C56.2833 306.88 55.6913 306.688 55.2326 306.496C54.7846 306.293 54.4006 305.984 54.0806 305.568C53.7606 305.152 53.6006 304.597 53.6006 303.904C53.6006 303.264 53.7606 302.704 54.0806 302.224C54.4006 301.744 54.8486 301.376 55.4246 301.12C56.0006 300.864 56.6673 300.736 57.4246 300.736C58.502 300.736 59.382 301.008 60.0646 301.552C60.758 302.085 61.142 302.821 61.2166 303.76H59.2006C59.1686 303.355 58.9766 303.008 58.6246 302.72C58.2726 302.432 57.8086 302.288 57.2326 302.288C56.71 302.288 56.2833 302.421 55.9526 302.688C55.622 302.955 55.4566 303.339 55.4566 303.84C55.4566 304.181 55.558 304.464 55.7606 304.688C55.974 304.901 56.2406 305.072 56.5606 305.2C56.8806 305.328 57.318 305.467 57.8726 305.616C58.6086 305.819 59.206 306.021 59.6646 306.224C60.134 306.427 60.5286 306.741 60.8486 307.168C61.1793 307.584 61.3446 308.144 61.3446 308.848C61.3446 309.413 61.19 309.947 60.8806 310.448C60.582 310.949 60.1393 311.355 59.5526 311.664C58.9766 311.963 58.294 312.112 57.5046 312.112ZM62.8889 307.552C62.8889 306.667 63.0702 305.883 63.4329 305.2C63.8062 304.517 64.3075 303.989 64.9369 303.616C65.5769 303.232 66.2809 303.04 67.0489 303.04C67.7422 303.04 68.3449 303.179 68.8569 303.456C69.3795 303.723 69.7955 304.059 70.1049 304.464V303.184H71.9449V312H70.1049V310.688C69.7955 311.104 69.3742 311.451 68.8409 311.728C68.3075 312.005 67.6995 312.144 67.0169 312.144C66.2595 312.144 65.5662 311.952 64.9369 311.568C64.3075 311.173 63.8062 310.629 63.4329 309.936C63.0702 309.232 62.8889 308.437 62.8889 307.552ZM70.1049 307.584C70.1049 306.976 69.9769 306.448 69.7209 306C69.4755 305.552 69.1502 305.211 68.7449 304.976C68.3395 304.741 67.9022 304.624 67.4329 304.624C66.9635 304.624 66.5262 304.741 66.1209 304.976C65.7155 305.2 65.3849 305.536 65.1289 305.984C64.8835 306.421 64.7609 306.944 64.7609 307.552C64.7609 308.16 64.8835 308.693 65.1289 309.152C65.3849 309.611 65.7155 309.963 66.1209 310.208C66.5369 310.443 66.9742 310.56 67.4329 310.56C67.9022 310.56 68.3395 310.443 68.7449 310.208C69.1502 309.973 69.4755 309.632 69.7209 309.184C69.9769 308.725 70.1049 308.192 70.1049 307.584ZM85.0126 303.04C85.706 303.04 86.3246 303.184 86.8686 303.472C87.4233 303.76 87.8553 304.187 88.1646 304.752C88.4846 305.317 88.6446 306 88.6446 306.8V312H86.8366V307.072C86.8366 306.283 86.6393 305.68 86.2446 305.264C85.85 304.837 85.3113 304.624 84.6286 304.624C83.946 304.624 83.402 304.837 82.9966 305.264C82.602 305.68 82.4046 306.283 82.4046 307.072V312H80.5966V307.072C80.5966 306.283 80.3993 305.68 80.0046 305.264C79.61 304.837 79.0713 304.624 78.3886 304.624C77.706 304.624 77.162 304.837 76.7566 305.264C76.362 305.68 76.1646 306.283 76.1646 307.072V312H74.3406V303.184H76.1646V304.192C76.4633 303.829 76.842 303.547 77.3006 303.344C77.7593 303.141 78.25 303.04 78.7726 303.04C79.4766 303.04 80.106 303.189 80.6606 303.488C81.2153 303.787 81.642 304.219 81.9406 304.784C82.2073 304.251 82.6233 303.829 83.1886 303.52C83.754 303.2 84.362 303.04 85.0126 303.04ZM92.7896 304.48C93.099 304.075 93.5203 303.733 94.0536 303.456C94.587 303.179 95.1896 303.04 95.8616 303.04C96.6296 303.04 97.3283 303.232 97.9576 303.616C98.5976 303.989 99.099 304.517 99.4616 305.2C99.8243 305.883 100.006 306.667 100.006 307.552C100.006 308.437 99.8243 309.232 99.4616 309.936C99.099 310.629 98.5976 311.173 97.9576 311.568C97.3283 311.952 96.6296 312.144 95.8616 312.144C95.1896 312.144 94.5923 312.011 94.0696 311.744C93.547 311.467 93.1203 311.125 92.7896 310.72V316.192H90.9656V303.184H92.7896V304.48ZM98.1496 307.552C98.1496 306.944 98.0216 306.421 97.7656 305.984C97.5203 305.536 97.1896 305.2 96.7736 304.976C96.3683 304.741 95.931 304.624 95.4616 304.624C95.003 304.624 94.5656 304.741 94.1496 304.976C93.7443 305.211 93.4136 305.552 93.1576 306C92.9123 306.448 92.7896 306.976 92.7896 307.584C92.7896 308.192 92.9123 308.725 93.1576 309.184C93.4136 309.632 93.7443 309.973 94.1496 310.208C94.5656 310.443 95.003 310.56 95.4616 310.56C95.931 310.56 96.3683 310.443 96.7736 310.208C97.1896 309.963 97.5203 309.611 97.7656 309.152C98.0216 308.693 98.1496 308.16 98.1496 307.552ZM101.201 307.552C101.201 306.667 101.383 305.883 101.745 305.2C102.119 304.517 102.62 303.989 103.249 303.616C103.889 303.232 104.593 303.04 105.361 303.04C106.055 303.04 106.657 303.179 107.169 303.456C107.692 303.723 108.108 304.059 108.417 304.464V303.184H110.257V312H108.417V310.688C108.108 311.104 107.687 311.451 107.153 311.728C106.62 312.005 106.012 312.144 105.329 312.144C104.572 312.144 103.879 311.952 103.249 311.568C102.62 311.173 102.119 310.629 101.745 309.936C101.383 309.232 101.201 308.437 101.201 307.552ZM108.417 307.584C108.417 306.976 108.289 306.448 108.033 306C107.788 305.552 107.463 305.211 107.057 304.976C106.652 304.741 106.215 304.624 105.745 304.624C105.276 304.624 104.839 304.741 104.433 304.976C104.028 305.2 103.697 305.536 103.441 305.984C103.196 306.421 103.073 306.944 103.073 307.552C103.073 308.16 103.196 308.693 103.441 309.152C103.697 309.611 104.028 309.963 104.433 310.208C104.849 310.443 105.287 310.56 105.745 310.56C106.215 310.56 106.652 310.443 107.057 310.208C107.463 309.973 107.788 309.632 108.033 309.184C108.289 308.725 108.417 308.192 108.417 307.584ZM117.213 303.04C117.885 303.04 118.482 303.184 119.005 303.472C119.538 303.76 119.954 304.187 120.253 304.752C120.562 305.317 120.717 306 120.717 306.8V312H118.909V307.072C118.909 306.283 118.712 305.68 118.317 305.264C117.922 304.837 117.384 304.624 116.701 304.624C116.018 304.624 115.474 304.837 115.069 305.264C114.674 305.68 114.477 306.283 114.477 307.072V312H112.653V300.16H114.477V304.208C114.786 303.835 115.176 303.547 115.645 303.344C116.125 303.141 116.648 303.04 117.213 303.04ZM133.716 303.04C134.409 303.04 135.028 303.184 135.572 303.472C136.126 303.76 136.558 304.187 136.868 304.752C137.188 305.317 137.348 306 137.348 306.8V312H135.54V307.072C135.54 306.283 135.342 305.68 134.948 305.264C134.553 304.837 134.014 304.624 133.332 304.624C132.649 304.624 132.105 304.837 131.7 305.264C131.305 305.68 131.108 306.283 131.108 307.072V312H129.3V307.072C129.3 306.283 129.102 305.68 128.708 305.264C128.313 304.837 127.774 304.624 127.092 304.624C126.409 304.624 125.865 304.837 125.46 305.264C125.065 305.68 124.868 306.283 124.868 307.072V312H123.044V303.184H124.868V304.192C125.166 303.829 125.545 303.547 126.004 303.344C126.462 303.141 126.953 303.04 127.476 303.04C128.18 303.04 128.809 303.189 129.364 303.488C129.918 303.787 130.345 304.219 130.644 304.784C130.91 304.251 131.326 303.829 131.892 303.52C132.457 303.2 133.065 303.04 133.716 303.04ZM147.653 303.184V312H145.829V310.96C145.541 311.323 145.162 311.611 144.693 311.824C144.234 312.027 143.743 312.128 143.221 312.128C142.527 312.128 141.903 311.984 141.349 311.696C140.805 311.408 140.373 310.981 140.053 310.416C139.743 309.851 139.589 309.168 139.589 308.368V303.184H141.397V308.096C141.397 308.885 141.594 309.493 141.989 309.92C142.383 310.336 142.922 310.544 143.605 310.544C144.287 310.544 144.826 310.336 145.221 309.92C145.626 309.493 145.829 308.885 145.829 308.096V303.184H147.653ZM152.059 309.808L150.123 314.224H148.939L150.075 309.808H152.059ZM163.761 306.288C164.359 306.395 164.865 306.709 165.281 307.232C165.697 307.755 165.905 308.347 165.905 309.008C165.905 309.573 165.756 310.085 165.457 310.544C165.169 310.992 164.748 311.349 164.193 311.616C163.639 311.872 162.993 312 162.257 312H157.809V300.88H162.049C162.807 300.88 163.457 301.008 164.001 301.264C164.545 301.52 164.956 301.867 165.233 302.304C165.511 302.731 165.649 303.211 165.649 303.744C165.649 304.384 165.479 304.917 165.137 305.344C164.796 305.771 164.337 306.085 163.761 306.288ZM159.633 305.552H161.889C162.487 305.552 162.951 305.419 163.281 305.152C163.623 304.875 163.793 304.48 163.793 303.968C163.793 303.467 163.623 303.077 163.281 302.8C162.951 302.512 162.487 302.368 161.889 302.368H159.633V305.552ZM162.097 310.512C162.716 310.512 163.201 310.363 163.553 310.064C163.905 309.765 164.081 309.349 164.081 308.816C164.081 308.272 163.895 307.84 163.521 307.52C163.148 307.2 162.652 307.04 162.033 307.04H159.633V310.512H162.097ZM167.28 307.552C167.28 306.667 167.461 305.883 167.824 305.2C168.197 304.517 168.698 303.989 169.328 303.616C169.968 303.232 170.672 303.04 171.44 303.04C172.133 303.04 172.736 303.179 173.248 303.456C173.77 303.723 174.186 304.059 174.496 304.464V303.184H176.336V312H174.496V310.688C174.186 311.104 173.765 311.451 173.232 311.728C172.698 312.005 172.09 312.144 171.408 312.144C170.65 312.144 169.957 311.952 169.328 311.568C168.698 311.173 168.197 310.629 167.824 309.936C167.461 309.232 167.28 308.437 167.28 307.552ZM174.496 307.584C174.496 306.976 174.368 306.448 174.112 306C173.866 305.552 173.541 305.211 173.136 304.976C172.73 304.741 172.293 304.624 171.824 304.624C171.354 304.624 170.917 304.741 170.512 304.976C170.106 305.2 169.776 305.536 169.52 305.984C169.274 306.421 169.152 306.944 169.152 307.552C169.152 308.16 169.274 308.693 169.52 309.152C169.776 309.611 170.106 309.963 170.512 310.208C170.928 310.443 171.365 310.56 171.824 310.56C172.293 310.56 172.73 310.443 173.136 310.208C173.541 309.973 173.866 309.632 174.112 309.184C174.368 308.725 174.496 308.192 174.496 307.584ZM183.179 303.04C183.873 303.04 184.491 303.184 185.035 303.472C185.59 303.76 186.022 304.187 186.331 304.752C186.641 305.317 186.795 306 186.795 306.8V312H184.987V307.072C184.987 306.283 184.79 305.68 184.395 305.264C184.001 304.837 183.462 304.624 182.779 304.624C182.097 304.624 181.553 304.837 181.147 305.264C180.753 305.68 180.555 306.283 180.555 307.072V312H178.731V303.184H180.555V304.192C180.854 303.829 181.233 303.547 181.691 303.344C182.161 303.141 182.657 303.04 183.179 303.04ZM191.25 304.672V309.552C191.25 309.883 191.325 310.123 191.474 310.272C191.634 310.411 191.901 310.48 192.274 310.48H193.394V312H191.954C191.133 312 190.503 311.808 190.066 311.424C189.629 311.04 189.41 310.416 189.41 309.552V304.672H188.37V303.184H189.41V300.992H191.25V303.184H193.394V304.672H191.25ZM203.059 303.184V312H201.235V310.96C200.947 311.323 200.568 311.611 200.099 311.824C199.64 312.027 199.15 312.128 198.627 312.128C197.934 312.128 197.31 311.984 196.755 311.696C196.211 311.408 195.779 310.981 195.459 310.416C195.15 309.851 194.995 309.168 194.995 308.368V303.184H196.803V308.096C196.803 308.885 197 309.493 197.395 309.92C197.79 310.336 198.328 310.544 199.011 310.544C199.694 310.544 200.232 310.336 200.627 309.92C201.032 309.493 201.235 308.885 201.235 308.096V303.184H203.059ZM216.326 309.728H211.67L210.87 312H208.966L212.95 300.864H215.062L219.046 312H217.126L216.326 309.728ZM215.814 308.24L214.006 303.072L212.182 308.24H215.814ZM222.602 300.16V312H220.778V300.16H222.602ZM224.389 307.552C224.389 306.667 224.57 305.883 224.933 305.2C225.306 304.517 225.808 303.989 226.437 303.616C227.077 303.232 227.781 303.04 228.549 303.04C229.242 303.04 229.845 303.179 230.357 303.456C230.88 303.723 231.296 304.059 231.605 304.464V303.184H233.445V312H231.605V310.688C231.296 311.104 230.874 311.451 230.341 311.728C229.808 312.005 229.2 312.144 228.517 312.144C227.76 312.144 227.066 311.952 226.437 311.568C225.808 311.173 225.306 310.629 224.933 309.936C224.57 309.232 224.389 308.437 224.389 307.552ZM231.605 307.584C231.605 306.976 231.477 306.448 231.221 306C230.976 305.552 230.65 305.211 230.245 304.976C229.84 304.741 229.402 304.624 228.933 304.624C228.464 304.624 228.026 304.741 227.621 304.976C227.216 305.2 226.885 305.536 226.629 305.984C226.384 306.421 226.261 306.944 226.261 307.552C226.261 308.16 226.384 308.693 226.629 309.152C226.885 309.611 227.216 309.963 227.621 310.208C228.037 310.443 228.474 310.56 228.933 310.56C229.402 310.56 229.84 310.443 230.245 310.208C230.65 309.973 230.976 309.632 231.221 309.184C231.477 308.725 231.605 308.192 231.605 307.584ZM246.513 303.04C247.206 303.04 247.825 303.184 248.369 303.472C248.923 303.76 249.355 304.187 249.665 304.752C249.985 305.317 250.145 306 250.145 306.8V312H248.337V307.072C248.337 306.283 248.139 305.68 247.745 305.264C247.35 304.837 246.811 304.624 246.129 304.624C245.446 304.624 244.902 304.837 244.497 305.264C244.102 305.68 243.905 306.283 243.905 307.072V312H242.097V307.072C242.097 306.283 241.899 305.68 241.505 305.264C241.11 304.837 240.571 304.624 239.889 304.624C239.206 304.624 238.662 304.837 238.257 305.264C237.862 305.68 237.665 306.283 237.665 307.072V312H235.841V303.184H237.665V304.192C237.963 303.829 238.342 303.547 238.801 303.344C239.259 303.141 239.75 303.04 240.273 303.04C240.977 303.04 241.606 303.189 242.161 303.488C242.715 303.787 243.142 304.219 243.441 304.784C243.707 304.251 244.123 303.829 244.689 303.52C245.254 303.2 245.862 303.04 246.513 303.04ZM254.754 300.88L254.546 308.64H253.026L252.818 300.88H254.754ZM253.842 312.112C253.511 312.112 253.234 312 253.01 311.776C252.786 311.552 252.674 311.275 252.674 310.944C252.674 310.613 252.786 310.336 253.01 310.112C253.234 309.888 253.511 309.776 253.842 309.776C254.162 309.776 254.434 309.888 254.658 310.112C254.882 310.336 254.994 310.613 254.994 310.944C254.994 311.275 254.882 311.552 254.658 311.776C254.434 312 254.162 312.112 253.842 312.112Z" fill="black"/>
</g>
<defs>
<filter id="filter0_d_396_880" x="397" y="117" width="266" height="166" filterUnits="userSpaceOnUse" color-interpolation-filters="sRGB">
<feFlood flood-opacity="0" result="BackgroundImageFix"/>
<feColorMatrix in="SourceAlpha" type="matrix" values="0 0 0 0 0 0 0 0 0 0 0 0 0 0 0 0 0 0 127 0" result="hardAlpha"/>
<feOffset dx="-10" dy="20"/>
<feGaussianBlur stdDeviation="10"/>
<feComposite in2="hardAlpha" operator="out"/>
<feColorMatrix type="matrix" values="0 0 0 0 0 0 0 0 0 0 0 0 0 0 0 0 0 0 0.25 0"/>
<feBlend mode="normal" in2="BackgroundImageFix" result="effect1_dropShadow_396_880"/>
<feBlend mode="normal" in="SourceGraphic" in2="effect1_dropShadow_396_880" result="shape"/>
</filter>
<filter id="filter1_d_396_880" x="0" y="276" width="337" height="119" filterUnits="userSpaceOnUse" color-interpolation-filters="sRGB">
<feFlood flood-opacity="0" result="BackgroundImageFix"/>
<feColorMatrix in="SourceAlpha" type="matrix" values="0 0 0 0 0 0 0 0 0 0 0 0 0 0 0 0 0 0 127 0" result="hardAlpha"/>
<feMorphology radius="12" operator="erode" in="SourceAlpha" result="effect1_dropShadow_396_880"/>
<feOffset dx="48" dy="41"/>
<feGaussianBlur stdDeviation="15"/>
<feComposite in2="hardAlpha" operator="out"/>
<feColorMatrix type="matrix" values="0 0 0 0 0.137255 0 0 0 0 0.137255 0 0 0 0 0.137255 0 0 0 0.3 0"/>
<feBlend mode="normal" in2="BackgroundImageFix" result="effect1_dropShadow_396_880"/>
<feBlend mode="normal" in="SourceGraphic" in2="effect1_dropShadow_396_880" result="shape"/>
</filter>
<clipPath id="clip0_396_880">
<rect width="531" height="763" fill="white" transform="translate(72)"/>
</clipPath>
<clipPath id="clip1_396_880">
<rect x="-58" y="304" width="750" height="464" rx="20" fill="white"/>
</clipPath>
</defs>
</svg>
