<svg width="35" height="37" viewBox="0 0 35 37" fill="none" xmlns="http://www.w3.org/2000/svg">
<path d="M1.73392 20.8705C1.7397 22.7498 2.40367 24.0749 3.4747 24.6955L23.8212 36.5201C22.7502 35.8965 22.0862 34.5743 22.0804 32.695C22.0688 28.9075 24.7334 24.2943 28.0302 22.389C29.6901 21.4334 31.1942 21.3439 32.2767 21.9732L11.9303 10.1488C10.8477 9.51941 9.34366 9.60892 7.68372 10.5673C4.38694 12.4698 1.72239 17.0829 1.73392 20.8705Z" fill="#F1C40F"/>
<path d="M1.73392 20.8705C1.7397 22.7498 2.40367 24.0749 3.4747 24.6955L16.2735 32.1337C15.2025 31.5101 14.5385 30.188 14.5328 28.3086C14.5212 24.5211 17.1858 19.9079 20.4825 18.0026C22.1425 17.0471 23.6465 16.9576 24.7291 17.5869L11.9303 10.1488C10.8477 9.51941 9.34365 9.60892 7.68372 10.5673C4.38694 12.4698 1.72239 17.0829 1.73392 20.8705Z" fill="#474B59"/>
<path d="M28.0311 22.3904C24.7337 24.2941 22.0699 28.9081 22.0806 32.695C22.0913 36.4797 24.7726 38.0077 28.07 36.1039C31.3674 34.2002 34.0294 29.5873 34.0187 25.8025C34.008 22.0157 31.3285 20.4866 28.0311 22.3904Z" fill="#C6A51A"/>
<path d="M27.3807 35.2666C30.5118 33.4588 33.0509 29.0625 33.0407 25.4668C33.0371 24.1724 32.7084 23.1737 32.1157 22.5496C32.9595 23.1114 33.437 24.2426 33.4414 25.8042C33.4516 29.4 30.9125 33.7962 27.7814 35.604C26.9408 36.0892 26.1141 36.3457 25.3906 36.3457C24.6491 36.3457 24.0372 36.0868 23.5815 35.6066C23.9749 35.8688 24.4474 36.0083 24.9899 36.0083C25.7134 36.0083 26.5401 35.7517 27.3807 35.2666Z" fill="#3F434F"/>
<path d="M22.658 32.6934C22.6478 29.0964 25.1878 24.6987 28.3199 22.8904C29.16 22.4053 29.9863 22.1489 30.7094 22.1489C31.2509 22.1489 31.7227 22.288 32.1157 22.5496C32.7084 23.1737 33.037 24.1724 33.0407 25.4668C33.0508 29.0626 30.5117 33.4588 27.3806 35.2666C26.54 35.7518 25.7133 36.0083 24.9898 36.0083C24.4473 36.0083 23.9749 35.8689 23.5815 35.6066C22.9897 34.9829 22.6617 33.9855 22.658 32.6934Z" fill="#5B5E71"/>
<path d="M17.8753 4.89662L17.8089 30.5953C17.806 31.8338 16.9919 33.0722 15.3637 34.0191C12.09 35.9215 6.76381 35.9215 3.46415 34.0162C2.27766 33.3291 1.51552 32.4919 1.18353 31.6086C1.04786 31.2593 0.981445 30.9013 0.981445 30.5462L1.04497 5.78575L1.04786 4.8562C1.04786 5.20839 1.11425 5.56059 1.24705 5.90702C1.57903 6.79039 2.34116 7.63335 3.53054 8.32042C6.8302 10.2228 12.1564 10.2228 15.4301 8.32042C15.5109 8.27422 15.5889 8.22803 15.6639 8.17896C17.1362 7.25517 17.8724 6.07733 17.8753 4.89662Z" fill="#525566"/>
<path d="M15.6784 2.54102L15.6639 8.17903L15.612 28.2368C15.6091 29.4782 14.795 30.7166 13.1668 31.6606C9.89314 33.5631 4.56692 33.5631 1.26726 31.6606C1.23838 31.6433 1.21241 31.6289 1.18353 31.6087C1.04786 31.2593 0.981445 30.9014 0.981445 30.5463L1.04497 5.78582C1.11136 5.82625 1.17775 5.86955 1.24705 5.90708C1.27591 5.92729 1.30766 5.94462 1.33654 5.96194C4.63331 7.86725 9.95954 7.86725 13.2332 5.96194C14.8614 5.01793 15.6755 3.77948 15.6784 2.54102Z" fill="#5B5E71"/>
<path d="M17.8762 4.89761L17.8095 13.7072C17.8059 14.9469 16.9913 16.1847 15.3645 17.13C12.0904 19.0328 6.7626 19.0328 3.4652 17.129C1.80614 16.1712 0.977895 14.9143 0.981457 13.6594L1.04816 4.84985C1.04461 6.10472 1.87286 7.36162 3.53192 8.31947C6.82932 10.2232 12.1571 10.2232 15.4312 8.32048C17.058 7.37511 17.8727 6.13734 17.8762 4.89761Z" fill="#D6B218"/>
<path d="M1.04785 4.8562C1.04785 5.20839 1.11425 5.56059 1.24705 5.90702C1.17775 5.86949 1.11136 5.82618 1.04497 5.78575L1.02475 14.1547C0.995892 13.9902 0.981445 13.8227 0.981445 13.6582L1.04785 4.8562Z" fill="#C6A51A"/>
<path d="M17.8753 4.89673L17.8089 13.7074C17.806 14.8737 17.0843 16.0399 15.6409 16.9608L15.664 8.17907C17.1363 7.25528 17.8724 6.07744 17.8753 4.89673Z" fill="#C6A51A"/>
<path d="M15.3924 1.42687C18.6898 3.33062 18.7053 6.41773 15.4312 8.32045C12.157 10.2232 6.82926 10.2232 3.53186 8.31944C0.234457 6.41568 0.218934 3.33071 3.49307 1.42799C6.76721 -0.474732 12.0949 -0.476886 15.3924 1.42687Z" fill="#F1C40F"/>
<path d="M3.7846 2.54971C5.27998 1.68077 7.28923 1.20156 9.43704 1.20156C11.5849 1.20156 13.597 1.68077 15.1039 2.54971C16.3845 3.28933 17.1424 4.22078 17.2748 5.20017C17.289 5.09559 17.2982 4.99061 17.2979 4.88505C17.2979 3.79383 16.5185 2.74302 15.1039 1.92603C13.597 1.05709 11.5849 0.577881 9.43705 0.577881C7.28924 0.577881 5.27999 1.05709 3.78461 1.92603C2.39024 2.73724 1.62524 3.7794 1.62524 4.86197C1.62553 4.96534 1.63499 5.06819 1.64908 5.17068C1.7825 4.20235 2.52611 3.28187 3.7846 2.54971Z" fill="#3F434F"/>
<path d="M3.81932 7.8182C5.32914 8.69001 7.34417 9.16924 9.49198 9.16924C11.6369 9.16924 13.6433 8.69001 15.1415 7.82108C16.3977 7.09138 17.1434 6.17093 17.2749 5.20027C17.1425 4.22088 16.3846 3.28942 15.104 2.54981C13.5971 1.68087 11.5849 1.20166 9.43712 1.20166C7.28931 1.20166 5.28006 1.68087 3.78468 2.54981C2.5262 3.28197 1.78259 4.20245 1.64917 5.17079C1.7838 6.1501 2.54139 7.08123 3.81932 7.8182Z" fill="#5B5E71"/>
<path d="M6.59302 3.72501L6.59983 5.13029C6.60101 5.54733 6.87513 5.96374 7.42274 6.28198C8.52676 6.92356 10.3177 6.92258 11.4272 6.28199C11.9862 5.95928 12.2659 5.5356 12.2647 5.11256L12.2579 3.70728C12.2591 4.13031 11.9794 4.55399 11.4204 4.87671C10.3109 5.51729 8.51995 5.51827 7.41594 4.87669C6.86832 4.55845 6.5942 4.14204 6.59302 3.72501Z" fill="#C4C6C6"/>
<path d="M7.429 2.5571C6.31948 3.19768 6.31363 4.23604 7.41594 4.87664C8.51996 5.51823 10.3109 5.51724 11.4204 4.87666C12.5299 4.23608 12.5392 3.19771 11.4352 2.55613C10.3329 1.91553 8.53851 1.91652 7.429 2.5571Z" fill="#F4F4F4"/>
<path d="M7.07265 25.4375L9.99998 19.0601H6.08496L10.7703 11.4114L8.6216 18.0479H12.7072L7.07265 25.4375Z" fill="#ECF0F1"/>
<path d="M26.1387 30.3955C26.1387 30.9043 26.3178 31.2584 26.6027 31.4253L27.6145 32.0121C27.3255 31.8453 27.1464 31.4871 27.1464 30.9823C27.1423 29.9688 27.8547 28.7395 28.7379 28.2307C29.1857 27.9702 29.5887 27.9457 29.8817 28.1167L28.8741 27.5298C28.581 27.363 28.1739 27.3874 27.7302 27.6438C26.8429 28.1567 26.1346 29.386 26.1387 30.3955Z" fill="#F4F4F4"/>
<path d="M28.7399 28.229C29.6209 27.7204 30.3431 28.123 30.3459 29.1353C30.3488 30.1537 29.6313 31.3905 28.7503 31.8992C27.864 32.4108 27.1496 32.0007 27.1467 30.9824C27.1439 29.9701 27.8536 28.7407 28.7399 28.229Z" fill="#C4C6C6"/>
</svg>
