<svg width="41" height="40" viewBox="0 0 41 40" fill="none" xmlns="http://www.w3.org/2000/svg">
<g clip-path="url(#clip0_198_267)">
<path d="M26.5096 28.114V23.4265H4.96875V26.4083C4.96875 27.3504 5.73244 28.114 6.67444 28.114H7.10956V25.232C7.10956 25.1141 7.20519 25.0185 7.32312 25.0185H11.9783C12.0963 25.0185 12.1919 25.1141 12.1919 25.232V28.114H26.5096Z" fill="#86A0AF"/>
<path d="M34.4688 23.4265V28.1081C35.3438 28.0353 36.0312 27.3021 36.0312 26.4083V23.4265H34.4688Z" fill="#86A0AF"/>
<path d="M16.1846 32.1357L17.4054 28.114H23.5946L24.8154 32.1357H16.1846Z" fill="#D0E2E7"/>
<path d="M23.5946 28.114H21.4741L21.9033 29.5279C22.1084 30.2037 21.6027 30.8857 20.8964 30.8857H16.564L16.1846 32.1357H24.8154L23.5946 28.114Z" fill="#B4D0D5"/>
<path d="M20.5 26.566C20.9396 26.566 21.296 26.2096 21.296 25.7701C21.296 25.3305 20.9396 24.9741 20.5 24.9741C20.0605 24.9741 19.7041 25.3305 19.7041 25.7701C19.7041 26.2096 20.0605 26.566 20.5 26.566Z" fill="#617881"/>
<path d="M26.2919 32.1355H14.7082C14.588 32.1355 14.4905 32.233 14.4905 32.3532V33.6503C14.4905 33.7706 14.588 33.8681 14.7082 33.8681H26.2919C26.4121 33.8681 26.5096 33.7706 26.5096 33.6503V32.3532C26.5096 32.233 26.4121 32.1355 26.2919 32.1355Z" fill="#D0E2E7"/>
<path d="M10.4828 23.4265H8.81879C8.70085 23.4265 8.60522 23.5221 8.60522 23.6401V25.0184H10.6964V23.6401C10.6963 23.5221 10.6007 23.4265 10.4828 23.4265Z" fill="#D0E2E7"/>
<path d="M12.192 25.2319C12.192 25.1139 12.0964 25.0183 11.9784 25.0183H7.32318C7.20524 25.0183 7.10962 25.1139 7.10962 25.2319V29.4432H12.192V25.2319Z" fill="#FFD064"/>
<path d="M7.10962 29.4431V33.6544C7.10962 33.7724 7.20524 33.868 7.32318 33.868H11.9784C12.0963 33.868 12.1919 33.7724 12.1919 33.6544V29.4431H7.10962Z" fill="#617881"/>
<path d="M25.3851 6.13159H6.67444C5.73244 6.13159 4.96875 6.89522 4.96875 7.83728V23.4263H6.53125V7.83728C6.53125 7.75822 6.59538 7.69409 6.67444 7.69409H24.9706L25.4804 6.26678C25.5039 6.2009 25.4551 6.13159 25.3851 6.13159Z" fill="#617881"/>
<path d="M34.3255 6.13159H28.5219C28.4791 6.13159 28.441 6.15847 28.4266 6.19872L27.8926 7.69409H34.3255C34.4046 7.69409 34.4687 7.75822 34.4687 7.83728V23.4263H36.0312V7.83728C36.0311 6.89522 35.2675 6.13159 34.3255 6.13159Z" fill="#617881"/>
<path d="M33.1635 33.8681H27.8146C27.0938 33.8681 26.5095 33.2838 26.5095 32.563V22.3395C26.5095 21.6187 27.0938 21.0344 27.8146 21.0344H33.1635C33.8843 21.0344 34.4686 21.6187 34.4686 22.3395V32.563C34.4686 33.2838 33.8843 33.8681 33.1635 33.8681Z" fill="#617881"/>
<path d="M28.072 32.1196V22.7829C28.072 22.6802 28.1553 22.5969 28.258 22.5969H32.7201C32.8229 22.5969 32.9061 22.6802 32.9061 22.7829V32.1196C32.9061 32.2224 32.8228 32.3056 32.7201 32.3056H28.2581C28.1553 32.3057 28.072 32.2224 28.072 32.1196Z" fill="#ECF9F9"/>
<path d="M32.7202 22.5969H31.0312V29.7456C31.0312 30.6417 30.3048 31.3682 29.4086 31.3682H28.072V32.1197C28.072 32.2224 28.1553 32.3057 28.258 32.3057H32.7201C32.8229 32.3057 32.9061 32.2224 32.9061 32.1197V22.7829C32.9062 22.6802 32.8229 22.5969 32.7202 22.5969Z" fill="#E2F4F9"/>
<path d="M34.3256 7.69415H27.8926L27.2282 9.55459C27.1446 9.78853 27.3181 10.0347 27.5665 10.0347H28.828C29.1115 10.0347 29.2833 10.3477 29.1311 10.5868L25.9102 15.646C25.7917 15.8321 25.5864 15.9448 25.3657 15.9448C24.9194 15.9448 24.6078 15.5026 24.7579 15.0823L25.8004 12.1632C25.8215 12.104 25.7776 12.0417 25.7148 12.0417H23.9277C23.6792 12.0417 23.5058 11.7956 23.5894 11.5617L24.9706 7.69409H6.67444C6.5955 7.69409 6.53125 7.75834 6.53125 7.83728V23.4263H26.5096V22.3395C26.5096 21.6187 27.0939 21.0344 27.8147 21.0344H33.1636C33.8844 21.0344 34.4687 21.6187 34.4687 22.3395V7.83734C34.4688 7.7584 34.4046 7.69415 34.3256 7.69415Z" fill="#ECF9F9"/>
<path d="M26.0954 22.1764H6.53125V23.4264H26.5096V22.3396C26.5096 22.279 26.5137 22.2194 26.5217 22.1611C26.3809 22.1713 26.2388 22.1764 26.0954 22.1764Z" fill="#E2F4F9"/>
<path d="M34.3255 7.69409H31.9687V16.303C31.9687 18.244 31.0272 19.965 29.5759 21.0344H33.1636C33.8844 21.0344 34.4687 21.6187 34.4687 22.3395V7.83728C34.4687 7.75834 34.4045 7.69409 34.3255 7.69409Z" fill="#E2F4F9"/>
<path d="M20.5 27.035C21.1974 27.035 21.7647 26.4677 21.7647 25.7703C21.7647 25.0729 21.1974 24.5056 20.5 24.5056C19.8027 24.5056 19.2354 25.0729 19.2354 25.7703C19.2354 26.4677 19.8027 27.035 20.5 27.035ZM20.5 25.4431C20.6805 25.4431 20.8272 25.5899 20.8272 25.7702C20.8272 25.9506 20.6804 26.0974 20.5 26.0974C20.3197 26.0974 20.1729 25.9506 20.1729 25.7702C20.1729 25.5899 20.3196 25.4431 20.5 25.4431Z" fill="#171717"/>
<path d="M34.3256 5.66284H28.522C28.2816 5.66284 28.0659 5.81497 27.9853 6.04109C27.3231 7.89497 27.6123 7.08528 26.7869 9.39678C26.5944 9.9354 26.9945 10.5034 27.5666 10.5034H28.6286L25.5149 15.3943C25.4042 15.5628 25.1274 15.4438 25.1995 15.2399L26.2421 12.3207C26.3719 11.9567 26.1014 11.573 25.7149 11.573H24.0831C25.6357 7.22565 25.1624 8.55115 25.9217 6.42465C26.0543 6.05397 25.7789 5.66284 25.3851 5.66284H6.67444C5.47544 5.66284 4.5 6.63834 4.5 7.83728V26.4082C4.5 27.596 5.45725 28.5643 6.64081 28.5823V30.573C6.64081 30.832 6.85069 31.0418 7.10956 31.0418C7.36844 31.0418 7.57831 30.832 7.57831 30.573V29.912H11.7232V33.3994H7.57831V32.7605C7.57831 32.5016 7.36844 32.2918 7.10956 32.2918C6.85069 32.2918 6.64081 32.5016 6.64081 32.7605V33.6545C6.64081 34.0308 6.94687 34.3369 7.32312 34.3369H11.9783C12.3546 34.3369 12.6606 34.0308 12.6606 33.6545V28.5827H16.7732L15.8369 31.6668H14.7081C14.3296 31.6668 14.0216 31.9748 14.0216 32.3533V33.6504C14.0216 34.029 14.3296 34.3369 14.7081 34.3369H26.2917C26.5211 34.3369 26.7245 34.2238 26.8493 34.0505C27.1273 34.2316 27.4589 34.3369 27.8146 34.3369H33.1635C34.1416 34.3369 34.9374 33.5412 34.9374 32.563V28.4945C35.8413 28.2269 36.4999 27.3816 36.4999 26.4082V7.83728C36.5 6.63834 35.5246 5.66284 34.3256 5.66284ZM28.781 6.60034H34.3256C35.0076 6.60034 35.5625 7.15522 35.5625 7.83728V22.9577H34.9375V7.83728C34.9375 7.4999 34.6629 7.22534 34.3256 7.22534H28.5578L28.781 6.60034ZM5.4375 7.83728C5.4375 7.15522 5.99238 6.60034 6.67444 6.60034H24.8634L24.6403 7.22534H6.67444C6.337 7.22534 6.0625 7.4999 6.0625 7.83728V9.45059C6.0625 9.70953 6.27237 9.91934 6.53125 9.91934C6.79012 9.91934 7 9.70953 7 9.45059V8.16284H24.3054L23.1479 11.404C22.9557 11.9427 23.3557 12.5105 23.9277 12.5105H25.1787L24.3166 14.9247C24.1949 15.2654 24.2467 15.6455 24.4552 15.9413C24.6636 16.237 25.0041 16.4136 25.3659 16.4136C25.7488 16.4136 26.1001 16.2207 26.3057 15.8977L29.5265 10.8386C29.6889 10.5836 29.6994 10.2606 29.5539 9.99559C29.4084 9.73059 29.1304 9.56597 28.8281 9.56597H27.722L28.223 8.1629H34V20.7757C33.7507 20.6418 33.4658 20.5658 33.1636 20.5658H27.8147C26.8366 20.5658 26.0408 21.3615 26.0408 22.3397V22.9578H7V11.6382C7 11.3792 6.79012 11.1694 6.53125 11.1694C6.27237 11.1694 6.0625 11.3792 6.0625 11.6382V22.9577H5.4375V7.83728ZM25.163 31.6668L24.2267 28.5827H26.0408V31.6668H25.163ZM9.07387 23.8952H10.2276V24.5496H9.07387V23.8952ZM5.4375 26.4082V23.8952H8.13637V24.5496H7.32312C6.94687 24.5496 6.64081 24.8557 6.64081 25.2319V27.6447C5.97425 27.6268 5.4375 27.079 5.4375 26.4082ZM7.57831 28.9745V25.4871H11.7232V28.9745H7.57831ZM11.9783 24.5496H11.1651V23.8952H26.0408V27.6452C24.5181 27.6452 14.8191 27.6452 12.6606 27.6452V25.2319C12.6607 24.8557 12.3546 24.5496 11.9783 24.5496ZM17.753 28.5827H23.247L24.1833 31.6668H16.8167L17.753 28.5827ZM26.0408 33.3995H14.9592V32.6043C15.358 32.6043 26.0515 32.6043 26.0408 32.6043V33.3995ZM33.1636 33.3995H27.8147C27.3535 33.3995 26.9783 33.0242 26.9783 32.563V22.3397C26.9783 21.8785 27.3535 21.5032 27.8147 21.5032H33.1636C33.6248 21.5032 34 21.8785 34 22.3397V32.563C34 33.0242 33.6248 33.3995 33.1636 33.3995ZM35.5625 26.4082C35.5625 26.862 35.3111 27.2668 34.9375 27.482V23.8952H35.5625V26.4082Z" fill="#171717"/>
<path d="M10.3856 26.762H10.1194V26.4958C10.1194 26.2369 9.90952 26.0271 9.65065 26.0271C9.39177 26.0271 9.1819 26.2369 9.1819 26.4958V26.762H8.91577C8.6569 26.762 8.44702 26.9718 8.44702 27.2308C8.44702 27.4897 8.6569 27.6995 8.91577 27.6995H9.1819V27.9657C9.1819 28.2247 9.39177 28.4345 9.65065 28.4345C9.90952 28.4345 10.1194 28.2247 10.1194 27.9657V27.6995H10.3856C10.6445 27.6995 10.8543 27.4897 10.8543 27.2308C10.8543 26.9718 10.6445 26.762 10.3856 26.762Z" fill="#171717"/>
<path d="M10.3856 32.1245C10.6445 32.1245 10.8543 31.9147 10.8543 31.6558C10.8543 31.3968 10.6445 31.187 10.3856 31.187H8.91577C8.6569 31.187 8.44702 31.3968 8.44702 31.6558C8.44702 31.9147 8.6569 32.1245 8.91577 32.1245H10.3856Z" fill="#171717"/>
<path d="M33.375 22.783C33.375 22.422 33.0812 22.1282 32.7201 22.1282H28.2581C27.8971 22.1282 27.6033 22.4219 27.6033 22.783V32.1197C27.6033 32.4807 27.897 32.7745 28.2581 32.7745H32.7202C33.0812 32.7745 33.375 32.4807 33.375 32.1197V31.2294C33.375 30.9704 33.1652 30.7606 32.9063 30.7606C32.6473 30.7606 32.4375 30.9704 32.4375 31.2294V31.837H28.5408V24.6885H28.886L29.6486 25.4513C29.8318 25.6344 30.1285 25.6343 30.3116 25.4513C30.4946 25.2682 30.4946 24.9714 30.3116 24.7884L29.4116 23.8884C29.3236 23.8005 29.2045 23.7511 29.0801 23.7511H28.5408V23.0658H32.4375V24.361L30.397 26.4014C30.214 26.5845 30.214 26.8813 30.397 27.0644L30.8923 27.5595L29.7413 28.7104C29.5583 28.8935 29.5583 29.1903 29.7413 29.3734C29.9245 29.5564 30.2212 29.5564 30.4043 29.3734L31.8866 27.891C32.0697 27.7079 32.0697 27.4111 31.8866 27.228L31.3914 26.7329L32.4375 25.6868V29.0419C32.4375 29.3008 32.6473 29.5106 32.9062 29.5106C33.1651 29.5106 33.375 29.3008 33.375 29.0419V22.783Z" fill="#171717"/>
</g>
<defs>
<clipPath id="clip0_198_267">
<rect width="32" height="32" fill="white" transform="translate(4.5 4)"/>
</clipPath>
</defs>
</svg>
