<svg width="21" height="21" viewBox="0 0 21 21" fill="none" xmlns="http://www.w3.org/2000/svg">
<g clip-path="url(#clip0_1119_11724)">
<g clip-path="url(#clip1_1119_11724)">
<g clip-path="url(#clip2_1119_11724)">
<path d="M10.5 0.319946C7.783 0.319946 7.444 0.329946 6.378 0.379946C5.313 0.429946 4.588 0.596946 3.95 0.844946C3.29 1.09895 2.734 1.44295 2.178 1.99795C1.6695 2.49785 1.276 3.10254 1.025 3.76995C0.778 4.40695 0.609999 5.13295 0.559999 6.19795C0.512999 7.26395 0.5 7.60295 0.5 10.3199C0.5 13.0369 0.51 13.3759 0.559999 14.4419C0.609999 15.5069 0.778 16.2319 1.025 16.8699C1.2753 17.5377 1.6689 18.1425 2.178 18.6419C2.678 19.1502 3.2827 19.5437 3.95 19.7949C4.587 20.0419 5.313 20.2099 6.378 20.2599C7.444 20.3069 7.783 20.3199 10.5 20.3199C13.217 20.3199 13.556 20.3099 14.622 20.2599C15.687 20.2099 16.412 20.0419 17.05 19.7949C17.7177 19.5444 18.3225 19.1508 18.822 18.6419C19.3306 18.1421 19.7241 17.5374 19.975 16.8699C20.223 16.2329 20.39 15.5069 20.44 14.4419C20.487 13.3759 20.5 13.0369 20.5 10.3199C20.5 7.60295 20.49 7.26395 20.44 6.19795C20.39 5.13195 20.223 4.40795 19.975 3.76995C19.7248 3.10213 19.3312 2.49727 18.822 1.99795C18.3223 1.48918 17.7176 1.09568 17.05 0.844946C16.412 0.596946 15.688 0.429946 14.622 0.379946C13.556 0.332946 13.217 0.319946 10.5 0.319946ZM10.5 5.31995C11.8261 5.31995 13.0978 5.84673 14.0355 6.78442C14.9732 7.7221 15.5 8.99387 15.5 10.3199C15.5 11.646 14.9732 12.9178 14.0355 13.8554C13.0978 14.7931 11.8261 15.3199 10.5 15.3199C9.1739 15.3199 7.9021 14.7931 6.9645 13.8554C6.0268 12.9178 5.5 11.646 5.5 10.3199C5.5 8.99387 6.0268 7.7221 6.9645 6.78442C7.9021 5.84673 9.1739 5.31995 10.5 5.31995ZM4 5.06995C4 4.73843 4.1317 4.42049 4.3661 4.18607C4.6005 3.95165 4.9185 3.81995 5.25 3.81995C5.5815 3.81995 5.8995 3.95165 6.1339 4.18607C6.3683 4.42049 6.5 4.73843 6.5 5.06995C6.5 5.40147 6.3683 5.71941 6.1339 5.95383C5.8995 6.18825 5.5815 6.31995 5.25 6.31995C4.9185 6.31995 4.6005 6.18825 4.3661 5.95383C4.1317 5.71941 4 5.40147 4 5.06995ZM10.5 7.31995C9.7044 7.31995 8.9413 7.63602 8.3787 8.19863C7.8161 8.76124 7.5 9.5243 7.5 10.3199C7.5 11.1155 7.8161 11.8786 8.3787 12.4412C8.9413 13.0038 9.7044 13.3199 10.5 13.3199C11.2957 13.3199 12.0587 13.0038 12.6213 12.4412C13.1839 11.8786 13.5 11.1155 13.5 10.3199C13.5 9.5243 13.1839 8.76124 12.6213 8.19863C12.0587 7.63602 11.2957 7.31995 10.5 7.31995Z" fill="#F8F8F8"/>
</g>
</g>
</g>
<defs>
<clipPath id="clip0_1119_11724">
<rect width="20" height="20" fill="white" transform="matrix(-1 0 0 1 20.5 0.319946)"/>
</clipPath>
<clipPath id="clip1_1119_11724">
<rect width="20" height="20" fill="white" transform="matrix(-1 0 0 1 20.5 0.319946)"/>
</clipPath>
<clipPath id="clip2_1119_11724">
<rect width="20" height="20" fill="white" transform="matrix(-1 0 0 1 20.5 0.319946)"/>
</clipPath>
</defs>
</svg>
