<svg width="40" height="40" viewBox="0 0 40 40" fill="none" xmlns="http://www.w3.org/2000/svg">
<g clip-path="url(#clip0_198_152)">
<path d="M22.6635 24.8573C22.8459 24.7618 23.0158 24.5909 23.0055 24.5938C28.1031 23.1898 31.875 18.2992 31.875 12.5C31.875 8.59219 29.4156 1.16875 29.3109 0.854687C29.1406 0.344531 28.6633 0 28.125 0H11.875C11.3367 0 10.8594 0.344531 10.6891 0.854687C10.5844 1.16875 8.125 8.59219 8.125 12.5C8.125 18.4932 12.1556 23.3392 16.9961 24.5941C17.0913 24.698 17.2045 24.7882 17.3365 24.8573C18.2084 25.314 18.75 26.2092 18.75 27.1937V35C18.75 36.3785 17.6285 37.5 16.25 37.5H13.75C13.0596 37.5 12.5 38.0597 12.5 38.75C12.5 39.4403 13.0596 40 13.75 40H26.25C26.9404 40 27.5 39.4403 27.5 38.75C27.5 38.0597 26.9404 37.5 26.25 37.5H23.75C22.3715 37.5 21.25 36.3785 21.25 35V27.1937C21.25 26.2092 21.7916 25.314 22.6635 24.8573ZM10.625 12.5C10.625 9.86367 12.0041 5.00195 12.7875 2.5H27.2125C27.9914 4.99437 29.2577 9.47039 29.3648 12.093C29.6382 17.5998 25.4045 22.5 20 22.5C14.8305 22.5 10.625 18.0141 10.625 12.5Z" fill="#35CC33"/>
<path d="M26.875 12.5C26.875 11.0891 26.3125 8.32578 25.3547 5H14.6445C13.6875 8.32266 13.125 11.0867 13.125 12.5C13.125 16.6352 16.2094 20 20 20C23.7906 20 26.875 16.6352 26.875 12.5Z" fill="#35CC33"/>
</g>
<defs>
<clipPath id="clip0_198_152">
<rect width="40" height="40" fill="white"/>
</clipPath>
</defs>
</svg>
