<svg width="40" height="40" viewBox="0 0 40 40" fill="none" xmlns="http://www.w3.org/2000/svg">
<path d="M13.75 26.25H3.75C2.36937 26.25 1.25 25.1306 1.25 23.75V3.75C1.25 2.36937 2.36937 1.25 3.75 1.25H23.75C25.1306 1.25 26.25 2.36937 26.25 3.75V13.75L13.75 26.25Z" fill="#9D9DA0"/>
<path d="M22.5 1.25H16.25L1.25 16.25V22.5L22.5 1.25Z" fill="#CCCCCC"/>
<path d="M5.625 6.875C6.31536 6.875 6.875 6.31536 6.875 5.625C6.875 4.93464 6.31536 4.375 5.625 4.375C4.93464 4.375 4.375 4.93464 4.375 5.625C4.375 6.31536 4.93464 6.875 5.625 6.875Z" fill="#66676C"/>
<path d="M5.625 23.125C6.31536 23.125 6.875 22.5654 6.875 21.875C6.875 21.1846 6.31536 20.625 5.625 20.625C4.93464 20.625 4.375 21.1846 4.375 21.875C4.375 22.5654 4.93464 23.125 5.625 23.125Z" fill="#66676C"/>
<path d="M36.25 38.75H16.25C14.8694 38.75 13.75 37.6306 13.75 36.25V16.25C13.75 14.8694 14.8694 13.75 16.25 13.75H36.25C37.6306 13.75 38.75 14.8694 38.75 16.25V36.25C38.75 37.6306 37.6306 38.75 36.25 38.75Z" fill="#8A8B8E"/>
<path d="M1.25 18.75L18.75 1.25H23.125L1.25 23.125V18.75Z" fill="#AEAEAF"/>
<path d="M35 13.75H28.75L13.75 28.75V35L35 13.75Z" fill="#AEAEAF"/>
<path d="M13.75 31.25L31.25 13.75H35.625L13.75 35.625V31.25Z" fill="#98999B"/>
<path d="M38.75 26.25V20.625L20.625 38.75H26.25L38.75 26.25Z" fill="#9D9DA0"/>
<path d="M21.875 6.875C22.5654 6.875 23.125 6.31536 23.125 5.625C23.125 4.93464 22.5654 4.375 21.875 4.375C21.1846 4.375 20.625 4.93464 20.625 5.625C20.625 6.31536 21.1846 6.875 21.875 6.875Z" fill="#66676C"/>
<path d="M18.125 19.375C18.8154 19.375 19.375 18.8154 19.375 18.125C19.375 17.4346 18.8154 16.875 18.125 16.875C17.4346 16.875 16.875 17.4346 16.875 18.125C16.875 18.8154 17.4346 19.375 18.125 19.375Z" fill="#66676C"/>
<path d="M18.125 35.625C18.8154 35.625 19.375 35.0654 19.375 34.375C19.375 33.6846 18.8154 33.125 18.125 33.125C17.4346 33.125 16.875 33.6846 16.875 34.375C16.875 35.0654 17.4346 35.625 18.125 35.625Z" fill="#66676C"/>
<path d="M34.375 19.375C35.0654 19.375 35.625 18.8154 35.625 18.125C35.625 17.4346 35.0654 16.875 34.375 16.875C33.6846 16.875 33.125 17.4346 33.125 18.125C33.125 18.8154 33.6846 19.375 34.375 19.375Z" fill="#66676C"/>
<path d="M34.375 35.625C35.0654 35.625 35.625 35.0654 35.625 34.375C35.625 33.6846 35.0654 33.125 34.375 33.125C33.6846 33.125 33.125 33.6846 33.125 34.375C33.125 35.0654 33.6846 35.625 34.375 35.625Z" fill="#66676C"/>
<path d="M38.75 26.25L26.25 38.75H23.125L38.75 23.125V26.25Z" fill="#86878C"/>
</svg>
