<svg width="41" height="40" viewBox="0 0 41 40" fill="none" xmlns="http://www.w3.org/2000/svg">
<path d="M2.74873 33.7485C2.91711 33.959 3.13392 34.1256 3.38065 34.2341C3.62738 34.3427 3.8967 34.3899 4.16564 34.3718C4.43458 34.3538 4.69516 34.2709 4.92513 34.1303C5.1551 33.9897 5.34764 33.7955 5.48632 33.5644L7.99994 29.375L8.03493 29.354C9.00098 28.7744 10.0835 28.4162 11.2047 28.3052C12.3258 28.1941 13.4576 28.3331 14.5185 28.712C17.989 29.9515 21.7748 29.9917 25.2708 28.8264C27.6513 28.0329 29.801 26.6681 31.5319 24.8513C33.2627 23.0346 34.5219 20.8214 35.1993 18.4053L38.6249 6.18677L34.7068 8.4155C32.7885 9.50668 30.6656 10.19 28.4709 10.4228C26.2763 10.6555 24.0573 10.4326 21.9528 9.76801C20.3465 9.26077 18.6415 9.14895 16.9827 9.44208C15.3239 9.7352 13.7605 10.4246 12.4253 11.4516C11.2329 12.3689 10.2524 13.5325 9.55064 14.8632C8.84889 16.1939 8.44242 17.6602 8.35898 19.1623L8.08741 24.0504C8.0297 25.0891 7.75991 26.1051 7.29465 27.0356L6.74994 28.125L2.95319 31.4472C2.62927 31.7306 2.42722 32.1281 2.38913 32.5568C2.35104 32.9855 2.47985 33.4124 2.74873 33.7485Z" fill="#A0CC00"/>
<path d="M21.7199 25.0362C21.6223 25.1529 21.484 25.228 21.333 25.2463C21.182 25.2646 21.0297 25.2247 20.9071 25.1346C19.8474 24.3618 18.6274 23.8372 17.3374 23.5996C16.0475 23.3621 14.7206 23.4177 13.4551 23.7623L10.668 24.5215C10.5922 24.5421 10.5132 24.5476 10.4353 24.5377C10.3574 24.5277 10.2822 24.5026 10.2141 24.4636C10.1459 24.4246 10.0861 24.3725 10.0381 24.3104C9.99009 24.2483 9.95477 24.1773 9.93417 24.1016L9.91985 24.0489C9.87829 23.896 9.89915 23.7328 9.97785 23.5953C10.0566 23.4577 10.1866 23.3571 10.3395 23.3154L13.1262 22.5564C14.5739 22.1621 16.0919 22.0988 17.5674 22.3711C19.043 22.6433 20.4383 23.2443 21.65 24.1293C21.7158 24.1777 21.7709 24.239 21.8121 24.3094C21.8533 24.3799 21.8796 24.4581 21.8894 24.5391C21.8993 24.6201 21.8924 24.7023 21.8692 24.7806C21.8461 24.8588 21.8072 24.9315 21.7549 24.9942L21.7199 25.0362Z" fill="#85B200"/>
<path d="M28.604 20.6585C28.5229 20.7891 28.3944 20.8833 28.2455 20.9214C28.0965 20.9594 27.9386 20.9384 27.8048 20.8628C24.8265 19.1572 21.3302 18.591 17.9658 19.2693L16.0665 19.6491C16.0539 19.6517 16.0413 19.6546 16.0288 19.658L14.247 20.1363C14.0939 20.1774 13.9308 20.156 13.7935 20.0768C13.6562 19.9976 13.5559 19.8671 13.5148 19.714L13.5007 19.6612C13.4803 19.5854 13.4751 19.5063 13.4853 19.4285C13.4955 19.3507 13.5209 19.2756 13.5602 19.2076C13.5994 19.1396 13.6516 19.08 13.7138 19.0322C13.7761 18.9844 13.8471 18.9493 13.9229 18.929L15.7243 18.4454L15.8014 18.4274L17.7207 18.0435C21.3786 17.306 25.1799 17.9208 28.4188 19.7739C28.4891 19.8137 28.5507 19.8672 28.5999 19.9314C28.649 19.9956 28.6846 20.069 28.7046 20.1473C28.7247 20.2256 28.7286 20.3072 28.7163 20.3871C28.704 20.4669 28.6757 20.5435 28.633 20.6121L28.604 20.6585Z" fill="#85B200"/>
<path d="M30.4408 17.8939C29.7866 17.8937 29.1332 17.8471 28.4856 17.7544L26.6616 17.4938L23.1071 16.9573C22.9504 16.9336 22.8094 16.8486 22.7153 16.7211C22.6212 16.5935 22.5817 16.4338 22.6053 16.2771L22.6135 16.2231C22.6252 16.1455 22.6521 16.0709 22.6926 16.0037C22.7331 15.9365 22.7865 15.8779 22.8496 15.8313C22.9128 15.7847 22.9845 15.751 23.0607 15.7321C23.1369 15.7133 23.2161 15.7096 23.2937 15.7213L26.8433 16.2571L28.6624 16.5169C30.0786 16.7206 31.5194 16.679 32.9215 16.3937C33.0717 16.3641 33.2275 16.3934 33.3567 16.4756C33.4859 16.5578 33.5784 16.6866 33.6151 16.8353L33.6283 16.8881C33.6478 16.9668 33.6511 17.0485 33.6382 17.1285C33.6252 17.2085 33.5961 17.285 33.5527 17.3534C33.5093 17.4218 33.4524 17.4807 33.3856 17.5265C33.3188 17.5724 33.2434 17.6042 33.164 17.62C32.2677 17.802 31.3554 17.8938 30.4408 17.8939Z" fill="#85B200"/>
<path d="M12.1363 20.6407C12.0039 20.7276 11.8425 20.7584 11.6874 20.7263C11.5324 20.6943 11.3964 20.6021 11.3093 20.4699L11.0762 20.1163C10.4065 19.1189 10.1505 17.9002 10.3624 16.7176C10.3775 16.6331 10.4107 16.5528 10.4596 16.4823C10.5084 16.4117 10.572 16.3524 10.6458 16.3086C10.7196 16.2647 10.802 16.2373 10.8873 16.2281C10.9727 16.2189 11.0591 16.2281 11.1405 16.2553L11.1927 16.2727C11.3296 16.3193 11.4451 16.4136 11.5181 16.5384C11.5912 16.6632 11.6169 16.81 11.5906 16.9522C11.4411 17.8127 11.6294 18.6978 12.1162 19.4229L12.2699 19.6533L12.3547 19.7824C12.3977 19.8481 12.4274 19.9215 12.4421 19.9986C12.4568 20.0757 12.4562 20.155 12.4402 20.2318C12.4243 20.3087 12.3933 20.3816 12.3492 20.4465C12.305 20.5114 12.2486 20.567 12.1829 20.6101L12.1363 20.6407Z" fill="#85B200"/>
<path d="M16.7773 18.3679H16.7227C16.5642 18.3679 16.4121 18.3049 16.3001 18.1928C16.188 18.0807 16.125 17.9287 16.125 17.7702V15.3784C16.1236 14.0061 16.4736 12.6563 17.1416 11.4575C17.1816 11.385 17.2363 11.3217 17.302 11.2714C17.3678 11.2211 17.4432 11.185 17.5236 11.1653C17.604 11.1457 17.6876 11.1429 17.7692 11.1571C17.8507 11.1714 17.9284 11.2024 17.9974 11.2482L18.0431 11.2787C18.1683 11.3627 18.2572 11.4908 18.2921 11.6374C18.327 11.7841 18.3053 11.9385 18.2313 12.0699C17.6686 13.0818 17.3739 14.2206 17.375 15.3784V17.7702C17.375 17.9287 17.312 18.0807 17.1999 18.1928C17.0879 18.3049 16.9358 18.3679 16.7773 18.3679Z" fill="#85B200"/>
<path d="M21.4615 15.9521L21.4097 15.9348C21.3352 15.91 21.2664 15.8708 21.2071 15.8194C21.1478 15.7679 21.0992 15.7053 21.0641 15.6351C21.029 15.5649 21.008 15.4885 21.0025 15.4102C20.9969 15.3319 21.0068 15.2533 21.0316 15.1788L21.1571 14.8025C21.5391 13.6658 22.3496 12.723 23.4162 12.1748C23.4929 12.1355 23.5772 12.1133 23.6633 12.1097C23.7494 12.106 23.8352 12.121 23.915 12.1536C23.9948 12.1863 24.0665 12.2357 24.1254 12.2987C24.1843 12.3616 24.2288 12.4365 24.2561 12.5183L24.2733 12.57C24.3178 12.707 24.3119 12.8553 24.2565 12.9882C24.2011 13.1212 24.1 13.2299 23.9714 13.2947C23.2027 13.6943 22.6189 14.3765 22.3429 15.1978L22.2175 15.5741C22.1674 15.7245 22.0595 15.8488 21.9178 15.9197C21.776 15.9906 21.6119 16.0022 21.4615 15.9521Z" fill="#85B200"/>
<path d="M38.625 6.18677L34.7633 11.5641C33.4441 13.4011 31.7066 14.8976 29.6943 15.9298C27.682 16.962 25.4529 17.5003 23.1914 17.5001C20.7311 17.5001 18.3128 18.1372 16.172 19.3494C14.0311 20.5616 12.2407 22.3076 10.975 24.4172L7.99997 29.3751L5.48669 33.5641C5.36253 33.7712 5.195 33.9488 4.99562 34.0849C4.79623 34.221 4.56973 34.3123 4.33169 34.3525C4.09365 34.3927 3.84973 34.3808 3.61672 34.3177C3.3837 34.2546 3.16712 34.1418 2.98188 33.987C2.79664 33.8322 2.64713 33.6391 2.54365 33.421C2.44017 33.2029 2.38517 32.965 2.38243 32.7236C2.3797 32.4822 2.42929 32.2431 2.5278 32.0227C2.62632 31.8023 2.77141 31.6059 2.95309 31.4469L6.74997 28.1251L9.33981 23.1805C10.6324 20.7132 12.5755 18.6467 14.9586 17.2047C17.3417 15.7627 20.074 15.0003 22.8593 15.0001C26.5749 15 30.163 13.6447 32.9508 11.1883L38.625 6.18677Z" fill="#85B200"/>
<path d="M7.99997 29.375L5.48669 33.5641C5.36253 33.7711 5.195 33.9488 4.99562 34.0849C4.79623 34.221 4.56973 34.3123 4.33169 34.3524C4.09365 34.3926 3.84973 34.3808 3.61672 34.3177C3.3837 34.2546 3.16712 34.1418 2.98188 33.987C2.79664 33.8322 2.64713 33.6391 2.54365 33.421C2.44017 33.2029 2.38517 32.9649 2.38243 32.7236C2.3797 32.4822 2.42929 32.243 2.5278 32.0227C2.62632 31.8023 2.77141 31.6058 2.95309 31.4469L6.74997 28.125L7.99997 29.375Z" fill="#719600"/>
</svg>
