<svg width="40" height="40" viewBox="0 0 40 40" fill="none" xmlns="http://www.w3.org/2000/svg">
<path d="M13.1919 40H5.37941C4.71316 40 4.18089 39.4452 4.20855 38.7795L5.77105 1.12328C5.79707 0.495547 6.31355 0 6.94191 0H11.6294C12.2577 0 12.7743 0.495547 12.8003 1.12328L14.3628 38.7795C14.3903 39.4452 13.8582 40 13.1919 40Z" fill="#607882"/>
<path d="M12.8005 1.12328C12.7745 0.495547 12.2579 0 11.6296 0H9.28589V40H13.1921C13.8584 40 14.3907 39.4452 14.363 38.7795L12.8005 1.12328Z" fill="#485959"/>
<path d="M0.760654 34.392C1.27409 34.9273 1.99214 35.2344 2.73425 35.2344H15.8371C16.5853 35.2344 17.3092 34.9227 17.8235 34.3791C18.3377 33.8356 18.6087 33.0954 18.5673 32.3484L18.418 29.6608L17.4217 27.1094L18.1524 24.8791L17.8867 20.0973L16.953 17.5L17.621 15.3157L17.3554 10.5341L15.3905 8.98438L16.6376 5.8632C16.1374 5.19547 15.3406 4.76562 14.4482 4.76562H4.12315C2.67269 4.76562 1.47347 5.90008 1.393 7.34836L1.24636 9.98727L1.953 12.4219L0.972139 14.9238L0.698467 19.85L1.40612 22.1875L0.424795 24.7762L0.151123 29.7025L1.328 32.3438L0.760654 34.392Z" fill="#F37BB6"/>
<path d="M18.5675 32.3484L18.4182 29.6608L17.4219 27.1094L18.1525 24.8791L17.8869 20.0973L16.9532 17.5L17.6212 15.3157L17.3556 10.5341L15.3907 8.98438L16.6378 5.8632C16.1375 5.19547 15.3407 4.76562 14.4484 4.76562H9.28589V35.2344H15.8373C16.5855 35.2344 17.3095 34.9227 17.8237 34.3791C18.3379 33.8356 18.6089 33.0954 18.5675 32.3484Z" fill="#ED3C94"/>
<path d="M0.00414978 32.3484C-0.0373346 33.0955 0.233759 33.8357 0.747978 34.3792C0.752119 34.3836 0.756572 34.3877 0.76079 34.392L18.4181 29.6608L18.1524 24.8792L0.151181 29.7026L0.00414978 32.3484Z" fill="#ED3C94"/>
<path d="M0.424805 24.7762L17.8867 20.0973L17.6211 15.3157L0.698477 19.85L0.424805 24.7762Z" fill="#ED3C94"/>
<path d="M17.1785 7.34844C17.1476 6.79125 16.9504 6.28086 16.6376 5.86328L1.24646 9.98727L0.972168 14.9239L17.3554 10.5341L17.1785 7.34844Z" fill="#ED3C94"/>
<path d="M18.1525 24.8792L9.28589 27.2549V32.1077L18.4182 29.6608L18.1525 24.8792Z" fill="#C3126A"/>
<path d="M17.6212 15.3157L9.28589 17.5491V22.4019L17.8868 20.0973L17.6212 15.3157Z" fill="#C3126A"/>
<path d="M17.1784 7.34844C17.1474 6.79125 16.9503 6.28086 16.6375 5.86328L9.28564 7.8332V12.6964L17.3553 10.5341L17.1784 7.34844Z" fill="#C3126A"/>
<path d="M34.6206 40H26.8081C26.1419 40 25.6096 39.4452 25.6373 38.7795L27.1998 1.12328C27.2258 0.495547 27.7423 0 28.3706 0H33.0581C33.6864 0 34.203 0.495547 34.229 1.12328L35.7915 38.7795C35.8191 39.4452 35.2869 40 34.6206 40Z" fill="#607882"/>
<path d="M34.229 1.12328C34.2029 0.495547 33.6864 0 33.0581 0H30.7144V40H34.6206C35.2869 40 35.8191 39.4452 35.7915 38.7795L34.229 1.12328Z" fill="#485959"/>
<path d="M22.1891 34.392C22.7026 34.9273 23.4206 35.2344 24.1627 35.2344H37.2655C38.0137 35.2344 38.7377 34.9227 39.2519 34.3791C39.7662 33.8356 40.0372 33.0954 39.9958 32.3484L39.8465 29.6608L38.8502 27.1094L39.5808 24.8791L39.3152 20.0973L38.3815 17.5L39.0495 15.3157L38.7839 10.5341L36.819 8.98438L38.0661 5.8632C37.5658 5.19547 36.769 4.76562 35.8767 4.76562H25.5516C24.1012 4.76562 22.9019 5.90008 22.8215 7.34836L22.6748 9.98727L23.3815 12.4219L22.4006 14.9238L22.1269 19.85L22.8346 22.1875L21.8533 24.7762L21.5796 29.7025L22.7565 32.3438L22.1891 34.392Z" fill="#FFE89C"/>
<path d="M39.9959 32.3484L39.8466 29.6608L38.8504 27.1094L39.581 24.8791L39.3154 20.0973L38.3816 17.5L39.0497 15.3157L38.784 10.5341L36.8191 8.98438L38.0662 5.8632C37.566 5.19547 36.7692 4.76562 35.8769 4.76562H30.7144V35.2344H37.2658C38.014 35.2344 38.7379 34.9227 39.2522 34.3791C39.7664 33.8356 40.0374 33.0954 39.9959 32.3484Z" fill="#FFB655"/>
<path d="M21.4326 32.3484C21.3911 33.0955 21.6622 33.8357 22.1764 34.3792C22.1806 34.3836 22.185 34.3877 22.1893 34.392L39.8465 29.6608L39.5809 24.8792L21.5796 29.7026L21.4326 32.3484Z" fill="#FFB655"/>
<path d="M21.8533 24.7762L39.3151 20.0973L39.0495 15.3157L22.1269 19.85L21.8533 24.7762Z" fill="#FFB655"/>
<path d="M38.607 7.34844C38.576 6.79125 38.3789 6.28086 38.0661 5.86328L22.6749 9.98727L22.4006 14.9239L38.7839 10.5341L38.607 7.34844Z" fill="#FFB655"/>
<path d="M39.5809 24.8792L30.7144 27.2549V32.1077L39.8466 29.6608L39.5809 24.8792Z" fill="#FF8859"/>
<path d="M39.0497 15.3157L30.7144 17.5491V22.4019L39.3153 20.0973L39.0497 15.3157Z" fill="#FF8859"/>
<path d="M38.6068 7.34844C38.5759 6.79125 38.3788 6.28086 38.066 5.86328L30.7141 7.8332V12.6964L38.7838 10.5341L38.6068 7.34844Z" fill="#FF8859"/>
</svg>
