<svg width="20" height="21" viewBox="0 0 20 21" fill="none" xmlns="http://www.w3.org/2000/svg">
<g clip-path="url(#clip0_1119_11735)">
<g clip-path="url(#clip1_1119_11735)">
<g clip-path="url(#clip2_1119_11735)">
<path d="M19.996 20.3199L18.644 15.3519C19.5348 13.8248 20.0029 12.0879 20 10.3199C20 4.79695 15.523 0.319946 10 0.319946C4.477 0.319946 0 4.79695 0 10.3199C0 15.8429 4.477 20.3199 10 20.3199C11.7672 20.3228 13.5033 19.8551 15.03 18.9649L19.996 20.3199ZM13.609 5.62795C13.7381 5.63597 13.8643 5.66998 13.98 5.72795C14.0885 5.78938 14.1875 5.86617 14.274 5.95595C14.394 6.06895 14.462 6.16695 14.535 6.26195C14.9046 6.74295 15.1034 7.33337 15.1 7.93995C15.098 8.42995 14.97 8.90695 14.77 9.35295C14.361 10.2549 13.688 11.2099 12.799 12.0949C12.585 12.3079 12.376 12.5219 12.151 12.7209C11.0476 13.6924 9.7327 14.3929 8.311 14.7669L7.742 14.8539C7.557 14.8639 7.372 14.8499 7.186 14.8409C6.8947 14.8259 6.6104 14.747 6.353 14.6099C6.187 14.5219 6.109 14.4779 5.97 14.3899C5.97 14.3899 5.927 14.3619 5.845 14.2999C5.71 14.1999 5.627 14.1289 5.515 14.0119C5.432 13.9259 5.36 13.8249 5.305 13.7099C5.227 13.5469 5.149 13.2359 5.117 12.9769C5.093 12.7789 5.1 12.6709 5.103 12.6039C5.107 12.4969 5.196 12.3859 5.293 12.3389L5.875 12.0779C5.875 12.0779 6.745 11.6989 7.276 11.4569C7.332 11.4325 7.392 11.4186 7.453 11.4159C7.5214 11.4089 7.5905 11.4166 7.6557 11.4385C7.7209 11.4604 7.7807 11.496 7.831 11.5429V11.5409C7.836 11.5409 7.903 11.5979 8.626 12.4739C8.6675 12.5297 8.7246 12.5718 8.7902 12.595C8.8557 12.6181 8.9267 12.6212 8.994 12.6039C9.0591 12.5865 9.123 12.5644 9.185 12.5379C9.309 12.4859 9.352 12.4659 9.437 12.4289L9.442 12.4269C10.0141 12.1771 10.5438 11.8397 11.012 11.4269C11.138 11.3169 11.255 11.1969 11.375 11.0809C11.7684 10.7041 12.1113 10.278 12.395 9.81295L12.454 9.71795C12.4964 9.65411 12.5306 9.58525 12.556 9.51295C12.594 9.36595 12.495 9.24795 12.495 9.24795C12.495 9.24795 12.252 8.98195 12.139 8.83795C12.0449 8.71827 11.9571 8.59377 11.876 8.46495C11.758 8.27495 11.721 8.07995 11.783 7.92895C12.063 7.24495 12.353 6.56395 12.651 5.88795C12.71 5.75395 12.885 5.65795 13.044 5.63895C13.098 5.63295 13.152 5.62695 13.206 5.62295C13.3403 5.61628 13.4749 5.61861 13.609 5.62795Z" fill="#F8F8F8"/>
</g>
</g>
</g>
<defs>
<clipPath id="clip0_1119_11735">
<rect width="20" height="20" fill="white" transform="matrix(-1 0 0 1 20 0.319946)"/>
</clipPath>
<clipPath id="clip1_1119_11735">
<rect width="20" height="20" fill="white" transform="matrix(-1 0 0 1 20 0.319946)"/>
</clipPath>
<clipPath id="clip2_1119_11735">
<rect width="20" height="20" fill="white" transform="matrix(-1 0 0 1 20 0.319946)"/>
</clipPath>
</defs>
</svg>
