<svg width="531" height="622" viewBox="0 0 531 622" fill="none" xmlns="http://www.w3.org/2000/svg">
  <rect x="1.5" y="1.5" width="528" height="516" rx="28.5" fill="#F8F8F8" fill-opacity="0.6" stroke="#F8F8F8" stroke-width="3"/>
  <path d="M469.62 323.044C469.62 323.044 469.62 317.351 461.855 309.461C454.091 301.57 449.166 296.993 449.166 296.993C449.166 296.993 445.306 310.019 452.493 317.954C457.77 323.528 463.491 328.639 469.598 333.234L469.62 323.044Z" fill="#6AE536"/>
  <path d="M458.417 358.408C458.417 358.408 458.417 352.715 450.652 344.825C442.888 336.935 437.985 332.357 437.985 332.357C437.985 332.357 434.114 345.383 441.312 353.319C446.589 358.892 452.31 364.003 458.417 368.598V358.408Z" fill="#6AE536"/>
  <path d="M469.132 332.688C469.132 332.688 469.72 327.063 478.217 320.015C486.713 312.968 492.115 309.005 492.115 309.005C492.115 309.005 494.611 322.372 486.669 329.5C480.849 334.471 474.634 338.935 468.089 342.844L469.132 332.688Z" fill="#6AE536"/>
  <path d="M455.599 374.451C455.599 374.451 456.708 368.917 465.926 362.826C475.144 356.734 480.867 353.376 480.867 353.376C480.867 353.376 481.977 366.947 473.358 373.153C467.06 377.47 460.423 381.241 453.514 384.425L455.599 374.451Z" fill="#6AE536"/>
  <path d="M458.139 419.994C458.139 419.994 458.139 414.301 465.904 406.399C473.669 398.497 478.582 393.943 478.582 393.943C478.582 393.943 482.454 406.968 475.255 414.893C469.98 420.472 464.259 425.587 458.15 430.184L458.139 419.994Z" fill="#6AE536"/>
  <path d="M458.017 431.106C458.017 431.106 458.794 425.504 452.249 416.532C445.705 407.56 441.412 402.346 441.412 402.346C441.412 402.346 435.789 414.677 441.789 423.569C446.238 429.858 451.191 435.753 456.598 441.194L458.017 431.106Z" fill="#6AE536"/>
  <path d="M450.397 464.045C450.397 464.045 450.397 458.352 458.162 450.462C465.926 442.572 470.851 437.995 470.851 437.995C470.851 437.995 474.711 451.02 467.523 458.956C462.245 464.531 456.524 469.646 450.419 474.247L450.397 464.045Z" fill="#6AE536"/>
  <path d="M455.555 493.91C455.555 493.91 454.157 488.434 459.67 478.756C465.183 469.078 468.877 463.408 468.877 463.408C468.877 463.408 475.821 474.998 470.84 484.54C467.114 491.304 462.844 497.737 458.073 503.77L455.555 493.91Z" fill="#6AE536"/>
  <path d="M470.319 321.598C469.931 327.493 469.227 333.362 468.211 339.178C465.15 355.368 457.518 365.82 454.468 380.44C451.418 395.059 460.18 413.902 457.796 432.689C455.411 451.475 448.334 461.916 450.364 474.452C452.394 486.988 463.087 520.94 463.087 520.94" stroke="#263238" stroke-linecap="round" stroke-linejoin="round"/>
  <path d="M469.065 336.456L477.385 329.898" stroke="#263238" stroke-linecap="round" stroke-linejoin="round"/>
  <path d="M469.454 328.908L465.959 322.543" stroke="#263238" stroke-linecap="round" stroke-linejoin="round"/>
  <path d="M454.934 379.768C454.934 379.768 461.9 374.405 469.065 369.042" stroke="#263238" stroke-linecap="round" stroke-linejoin="round"/>
  <path d="M458.417 368.598C458.417 368.598 452.604 356.917 446.027 349.174" stroke="#263238" stroke-linecap="round" stroke-linejoin="round"/>
  <path d="M458.417 428.055C462.39 420.517 467.412 413.613 473.325 407.56" stroke="#263238" stroke-linecap="round" stroke-linejoin="round"/>
  <path d="M457.064 436.002C454.95 430.891 452.423 425.97 449.51 421.292C445.45 415.132 444.862 414.335 444.862 414.335" stroke="#263238" stroke-linecap="round" stroke-linejoin="round"/>
  <path d="M450.397 474.452C452.166 469.964 454.264 465.621 456.675 461.461C459.088 457.594 461.807 453.938 464.806 450.53" stroke="#263238" stroke-linecap="round" stroke-linejoin="round"/>
  <path d="M458.073 503.77C457.669 499.479 458.389 495.155 460.158 491.246C463.064 485.485 466.348 477.936 467.701 474.953" stroke="#263238" stroke-linecap="round" stroke-linejoin="round"/>
  <path d="M406.594 398.702C406.594 398.702 405.995 395.15 409.999 389.309C414.003 383.468 416.654 380.087 416.654 380.087C416.654 380.087 420.448 387.829 416.788 393.59C414.069 397.677 411.023 401.523 407.681 405.09L406.594 398.702Z" fill="#6AE536"/>
  <path d="M417.364 419.629C417.364 419.629 416.765 416.077 420.77 410.236C424.774 404.395 427.425 401.014 427.425 401.014C427.425 401.014 431.219 408.756 427.558 414.529C424.838 418.61 421.791 422.453 418.451 426.017L417.364 419.629Z" fill="#6AE536"/>
  <path d="M407.914 404.691C407.914 404.691 406.96 401.276 400.881 397.757C394.803 394.239 391.009 392.395 391.009 392.395C391.009 392.395 390.854 401.059 396.555 404.634C400.729 407.101 405.096 409.207 409.611 410.931L407.914 404.691Z" fill="#6AE536"/>
  <path d="M420.825 429.376C420.825 429.376 419.516 426.028 413.127 423.227C406.738 420.426 402.745 418.969 402.745 418.969C402.745 418.969 403.477 427.599 409.555 430.537C413.96 432.54 418.52 434.163 423.188 435.387L420.825 429.376Z" fill="#6AE536"/>
  <path d="M424.042 458.216C424.042 458.216 423.454 454.663 417.764 450.553C412.073 446.443 408.491 444.154 408.491 444.154C408.491 444.154 407.448 452.751 412.783 456.918C416.681 459.831 420.811 462.402 425.129 464.603L424.042 458.216Z" fill="#6AE536"/>
  <path d="M425.306 465.172C425.306 465.172 424.197 461.757 427.38 455.381C430.564 449.005 432.671 445.282 432.671 445.282C432.671 445.282 437.497 452.386 434.679 458.637C432.557 463.075 430.074 467.321 427.258 471.332L425.306 465.172Z" fill="#6AE536"/>
  <path d="M435.001 493.808C435.001 493.808 435.4 490.233 440.847 485.838C446.293 481.443 449.72 478.904 449.72 478.904C449.72 478.904 451.24 487.432 446.149 491.906C442.42 495.038 438.442 497.845 434.258 500.298L435.001 493.808Z" fill="#6AE536"/>
  <path d="M433.548 484.972C433.548 484.972 432.949 481.42 427.27 477.31C421.59 473.199 418.019 470.911 418.019 470.911C418.019 470.911 416.976 479.507 422.311 483.686C426.212 486.594 430.341 489.165 434.657 491.371L433.548 484.972Z" fill="#6AE536"/>
  <path d="M433.548 504.283C433.548 504.283 433.836 500.685 429.355 495.231C424.874 489.777 421.967 486.635 421.967 486.635C421.967 486.635 418.828 494.673 422.966 500.104C425.998 503.929 429.338 507.486 432.949 510.738L433.548 504.283Z" fill="#6AE536"/>
  <path d="M406.006 397.86C406.874 401.515 407.937 405.118 409.189 408.653C412.817 418.468 418.706 424.172 422.167 432.996C425.628 441.82 422.167 454.629 425.584 466.14C429 477.651 434.657 483.412 434.657 491.496C434.657 499.58 431.596 522.067 431.596 522.067" stroke="#263238" stroke-linecap="round" stroke-linejoin="round"/>
  <path d="M408.368 407.037L402.456 403.86" stroke="#263238" stroke-linecap="round" stroke-linejoin="round"/>
  <path d="M407.326 402.346L408.834 397.974" stroke="#263238" stroke-linecap="round" stroke-linejoin="round"/>
  <path d="M421.801 432.632C421.801 432.632 416.865 430.047 411.818 427.474" stroke="#263238" stroke-linecap="round" stroke-linejoin="round"/>
  <path d="M418.44 426.017C419.895 421.326 421.809 416.797 424.153 412.502" stroke="#263238" stroke-linecap="round" stroke-linejoin="round"/>
  <path d="M424.73 463.294C421.438 459.019 417.56 455.256 413.216 452.124" stroke="#263238" stroke-linecap="round" stroke-linejoin="round"/>
  <path d="M426.416 468.121C427.205 464.686 428.27 461.323 429.599 458.068C431.496 453.752 431.817 453.183 431.817 453.183" stroke="#263238" stroke-linecap="round" stroke-linejoin="round"/>
  <path d="M434.391 497.633C436.314 495.187 438.445 492.92 440.758 490.859C442.229 489.747 443.609 488.513 444.884 487.17" stroke="#263238" stroke-linecap="round" stroke-linejoin="round"/>
  <path d="M434.657 491.496C433.072 488.872 431.296 486.376 429.344 484.027C427.421 481.873 425.329 479.885 423.088 478.084" stroke="#263238" stroke-linecap="round" stroke-linejoin="round"/>
  <path d="M432.949 510.738C432.75 508 431.843 505.367 430.32 503.11C427.891 499.819 425.029 495.447 423.864 493.728" stroke="#263238" stroke-linecap="round" stroke-linejoin="round"/>
  <path d="M91.5396 349.106L86.6812 334.862L91.5396 340.908L87.7238 319.537L93.6249 334.862L95.7103 304.929L99.1821 333.428L102.998 327.735V334.862L107.512 325.241L105.083 341.978L109.243 339.132L102.654 348.389L91.5396 349.106Z" fill="#6AE536"/>
  <path d="M106.814 345.542H88.7666L92.0166 382.944H103.564L106.814 345.542Z" fill="#263238" stroke="#263238" stroke-linecap="round" stroke-linejoin="round"/>
  <path d="M140.667 382.523H79.1829V516.192H140.667V382.523Z" fill="white" stroke="#263238" stroke-linecap="round" stroke-linejoin="round"/>
  <path d="M144.028 382.523H109.92V516.192H144.028V382.523Z" fill="white" stroke="#263238" stroke-linecap="round" stroke-linejoin="round"/>
  <path d="M140.191 382.523H109.92V516.192H140.191V382.523Z" fill="#263238" stroke="#263238" stroke-linecap="round" stroke-linejoin="round"/>
  <path d="M136.785 485.109H109.92V512.48H136.785V485.109Z" fill="#6AE536" stroke="#263238" stroke-linecap="round" stroke-linejoin="round"/>
  <path d="M136.785 486.589H109.92V490.096H136.785V486.589Z" fill="white" stroke="#263238" stroke-linecap="round" stroke-linejoin="round"/>
  <path d="M136.785 506.742H109.92V510.249H136.785V506.742Z" fill="white" stroke="#263238" stroke-linecap="round" stroke-linejoin="round"/>
  <path d="M115.011 485.678V520.291" stroke="#263238" stroke-linecap="round" stroke-linejoin="round"/>
  <path d="M124.384 485.678V520.291" stroke="#263238" stroke-linecap="round" stroke-linejoin="round"/>
  <path d="M132.614 485.678V520.291" stroke="#263238" stroke-linecap="round" stroke-linejoin="round"/>
  <path d="M136.785 387.487H109.92V427.736H136.785V387.487Z" fill="#6AE536" stroke="#263238" stroke-linecap="round" stroke-linejoin="round"/>
  <path d="M136.785 389.172H109.92V393.157H136.785V389.172Z" fill="white" stroke="#263238" stroke-linecap="round" stroke-linejoin="round"/>
  <path d="M136.785 414.973H109.92V418.958H136.785V414.973Z" fill="white" stroke="#263238" stroke-linecap="round" stroke-linejoin="round"/>
  <path d="M115.011 388.125V427.463" stroke="#263238" stroke-linecap="round" stroke-linejoin="round"/>
  <path d="M124.384 388.125V427.463" stroke="#263238" stroke-linecap="round" stroke-linejoin="round"/>
  <path d="M132.614 388.125V427.463" stroke="#263238" stroke-linecap="round" stroke-linejoin="round"/>
  <path d="M136.785 435.991H109.92V476.239H136.785V435.991Z" fill="#6AE536" stroke="#263238" stroke-linecap="round" stroke-linejoin="round"/>
  <path d="M136.785 437.676H109.92V441.661H136.785V437.676Z" fill="white" stroke="#263238" stroke-linecap="round" stroke-linejoin="round"/>
  <path d="M136.785 463.476H109.92V467.461H136.785V463.476Z" fill="white" stroke="#263238" stroke-linecap="round" stroke-linejoin="round"/>
  <path d="M115.011 436.64V475.966" stroke="#263238" stroke-linecap="round" stroke-linejoin="round"/>
  <path d="M124.384 436.64V475.966" stroke="#263238" stroke-linecap="round" stroke-linejoin="round"/>
  <path d="M132.614 436.64V475.966" stroke="#263238" stroke-linecap="round" stroke-linejoin="round"/>
  <path d="M140.656 427.178H109.92V431.755H140.656V427.178Z" fill="white" stroke="#263238" stroke-linecap="round" stroke-linejoin="round"/>
  <path d="M140.656 475.989H109.92V480.566H140.656V475.989Z" fill="white" stroke="#263238" stroke-linecap="round" stroke-linejoin="round"/>
  <path d="M140.656 382.523V516.181" stroke="#263238" stroke-linecap="round" stroke-linejoin="round"/>
  <path d="M105.583 382.523V516.181H109.92V387.487H140.124V382.466L105.583 382.523Z" fill="white" stroke="#263238" stroke-linecap="round" stroke-linejoin="round"/>
  <path d="M109.92 387.487V382.523" stroke="#263238" stroke-linecap="round" stroke-linejoin="round"/>
  <path d="M140.423 321.12C137.195 314.732 135.842 310.155 135.842 309.096C135.842 307.001 140.279 305.749 140.279 305.749C147.201 301.992 179.756 307.423 194.409 309.928C202.612 311.395 210.91 312.233 219.234 312.432C219.234 312.432 221.264 310.77 223.671 308.675C226.078 306.58 237.503 292.803 241.984 291.596C246.465 290.39 250.525 293.27 250.525 293.27C250.525 293.27 257.857 297.824 256.626 298.701C255.395 299.578 237.503 315.404 233.021 318.33C228.54 321.256 219.189 320.004 211.048 321.678C204.037 323.112 175.641 324.888 169.13 325.435C164.24 326.625 159.108 326.187 154.477 324.182" fill="white"/>
  <mask id="mask0_71_4052" style="mask-type:luminance" maskUnits="userSpaceOnUse" x="135" y="291" width="122" height="36">
  <path d="M140.423 321.12C137.195 314.732 135.842 310.155 135.842 309.096C135.842 307.001 140.279 305.749 140.279 305.749C147.201 301.992 179.756 307.423 194.409 309.928C202.612 311.395 210.91 312.233 219.234 312.432C219.234 312.432 221.264 310.77 223.671 308.675C226.078 306.58 237.503 292.803 241.984 291.596C246.465 290.39 250.525 293.27 250.525 293.27C250.525 293.27 257.857 297.824 256.626 298.701C255.395 299.578 237.503 315.404 233.021 318.33C228.54 321.256 219.189 320.004 211.048 321.678C204.037 323.112 175.641 324.888 169.13 325.435C164.24 326.625 159.108 326.187 154.477 324.182" fill="white"/>
  </mask>
  <g mask="url(#mask0_71_4052)">
  <path d="M250.603 293.225C250.603 293.225 246.532 290.299 242.062 291.551C237.591 292.804 226.189 306.592 223.748 308.63C221.308 310.668 219.311 312.387 219.311 312.387C210.987 312.187 202.689 311.35 194.487 309.882C179.834 307.377 147.278 301.912 140.357 305.704C140.357 305.704 135.92 306.956 135.92 309.051C136.074 310.222 136.368 311.369 136.796 312.467L137.406 312.694C137.406 312.694 145.537 311.818 163.085 312.25C180.633 312.683 221.219 315.154 223.826 316.122C224.935 316.554 232.8 314.733 241.518 311.567C248.174 306 255.994 299.043 256.781 298.553C257.935 297.813 250.603 293.225 250.603 293.225Z" fill="#6AE536"/>
  <path opacity="0.5" d="M250.603 293.225C250.603 293.225 246.532 290.299 242.062 291.551C237.591 292.804 226.189 306.592 223.748 308.63C221.308 310.668 219.311 312.387 219.311 312.387C210.987 312.187 202.689 311.35 194.487 309.882C179.834 307.377 147.278 301.912 140.357 305.704C140.357 305.704 135.92 306.956 135.92 309.051C136.074 310.222 136.368 311.369 136.796 312.467L137.406 312.694C137.406 312.694 145.537 311.818 163.085 312.25C180.633 312.683 221.219 315.154 223.826 316.122C224.935 316.554 232.8 314.733 241.518 311.567C248.174 306 255.994 299.043 256.781 298.553C257.935 297.813 250.603 293.225 250.603 293.225Z" fill="white"/>
  </g>
  <path d="M140.423 321.12C137.195 314.732 135.842 310.155 135.842 309.096C135.842 307.001 140.279 305.749 140.279 305.749C147.201 301.992 179.756 307.423 194.409 309.928C202.612 311.395 210.91 312.233 219.234 312.432C219.234 312.432 221.264 310.77 223.671 308.675C226.078 306.58 237.503 292.803 241.984 291.596C246.465 290.39 250.525 293.27 250.525 293.27C250.525 293.27 257.857 297.824 256.626 298.701C255.395 299.578 237.503 315.404 233.021 318.33C228.54 321.256 219.189 320.004 211.048 321.678C204.037 323.112 175.641 324.888 169.13 325.435C164.24 326.625 159.108 326.187 154.477 324.182" stroke="#263238" stroke-linecap="round" stroke-linejoin="round"/>
  <path d="M301.162 358.26C301.898 356.826 303.002 355.625 304.355 354.788C305.708 353.951 307.258 353.51 308.837 353.512H382.823C382.823 353.512 388.169 353.512 386.572 363.942C384.975 374.371 363.034 438.052 357.732 457.305C352.43 476.558 351.31 517.137 351.31 517.137H262.572C262.572 517.137 269.604 420.096 301.162 358.26Z" fill="white"/>
  <mask id="mask1_71_4052" style="mask-type:luminance" maskUnits="userSpaceOnUse" x="262" y="353" width="125" height="165">
  <path d="M301.162 358.26C301.898 356.826 303.002 355.625 304.355 354.788C305.708 353.951 307.258 353.51 308.837 353.512H382.823C382.823 353.512 388.169 353.512 386.572 363.942C384.975 374.371 363.034 438.052 357.732 457.305C352.43 476.558 351.31 517.137 351.31 517.137H262.572C262.572 517.137 269.604 420.096 301.162 358.26Z" fill="white"/>
  </mask>
  <g mask="url(#mask1_71_4052)">
  <path opacity="0.16" d="M334.483 353.512H308.837C307.258 353.51 305.708 353.951 304.355 354.788C303.002 355.625 301.898 356.826 301.162 358.26C269.604 420.096 262.494 517.103 262.494 517.103H302.293L312.11 478.835L353.04 487.5C353.329 484.289 353.661 481.021 354.05 477.799L353.151 467.552C353.151 467.552 344.765 458.5 342.125 456.235C339.485 453.969 341.238 449.881 340.794 432.222C340.351 414.563 324.91 401.868 319.164 390.994C313.419 380.121 322.259 373.323 330.201 362.45C333.03 358.522 334.183 355.63 334.483 353.512Z" fill="black"/>
  </g>
  <path d="M301.162 358.26C301.898 356.826 303.002 355.625 304.355 354.788C305.708 353.951 307.258 353.51 308.837 353.512H382.823C382.823 353.512 388.169 353.512 386.572 363.942C384.975 374.371 363.034 438.052 357.732 457.305C352.43 476.558 351.31 517.137 351.31 517.137H262.572C262.572 517.137 269.604 420.096 301.162 358.26Z" stroke="#263238" stroke-linecap="round" stroke-linejoin="round"/>
  <path d="M369.989 371.627C362.513 389.537 346.695 460.436 344.122 517.103H351.265C351.265 517.103 352.374 476.478 357.688 457.271C363.001 438.063 384.964 374.371 386.528 363.907C388.092 353.444 382.778 353.478 382.778 353.478C382.778 353.478 375.99 357.269 369.989 371.627Z" fill="#263238" stroke="#263238" stroke-linecap="round" stroke-linejoin="round"/>
  <path d="M240.021 335.83C240.021 335.83 228.219 328.725 223.749 316.201C219.278 303.677 258.745 283.615 275.882 282.363C293.02 281.11 297.856 285.699 308.05 303.665C318.244 321.632 325.143 346.271 319.852 358.385C314.561 370.5 305.61 373.426 312.087 383.434C318.565 393.442 336.912 421.861 335.692 435.228C334.472 448.595 321.86 460.277 303.524 461.552C285.189 462.827 260.786 451.521 240.442 433.087C220.099 414.654 225.379 387.544 232.678 378.777C239.977 370.01 250.991 366.663 251.801 357.896C252.611 349.129 240.021 335.83 240.021 335.83Z" fill="#263238" stroke="#263238" stroke-linecap="round" stroke-linejoin="round"/>
  <path d="M290.324 316.007C296.591 327.985 304.434 344.028 306.885 353.717C311.167 370.682 289.137 381.362 295.249 389.525" stroke="white" stroke-linecap="round" stroke-linejoin="round"/>
  <path d="M281.783 300.318C281.783 300.318 284.224 304.588 287.596 310.872" stroke="white" stroke-linecap="round" stroke-linejoin="round"/>
  <path d="M314.661 330.456C315.384 332.701 315.853 335.024 316.058 337.379" stroke="white" stroke-linecap="round" stroke-linejoin="round"/>
  <path d="M286.021 294.09C286.021 294.09 305.299 308.709 312.997 326.209" stroke="white" stroke-linecap="round" stroke-linejoin="round"/>
  <path d="M259.266 305.054C245.501 309.017 225.701 315.45 227.309 319.161" stroke="white" stroke-linecap="round" stroke-linejoin="round"/>
  <path d="M271.989 301.57C271.989 301.57 269.049 302.322 264.668 303.529" stroke="white" stroke-linecap="round" stroke-linejoin="round"/>
  <path d="M254.962 294.192C262.847 291.642 271.106 290.524 279.365 290.89" stroke="white" stroke-linecap="round" stroke-linejoin="round"/>
  <path d="M249.349 296.549C250.596 295.882 251.886 295.304 253.209 294.819" stroke="white" stroke-linecap="round" stroke-linejoin="round"/>
  <path d="M140.423 321.12C138.555 317.608 137.067 313.897 135.986 310.053C137.062 313.899 138.55 317.611 140.423 321.12ZM135.864 309.404C135.864 309.472 135.864 309.552 135.864 309.654C135.887 309.552 135.875 309.472 135.864 309.404ZM140.423 321.108C144.572 329.174 149.733 336.646 155.775 343.333C170.428 359.626 212.756 402.243 216.783 405.169C220.809 408.096 219.633 416.441 216.783 424.798C213.932 433.156 203.35 445.293 203.76 458.637C204.171 471.981 208.197 492.475 207.831 496.654C207.465 500.833 197.282 515.042 197.282 515.042H302.282C302.282 515.042 289.193 497.963 289.193 492.123C289.193 486.282 307.162 411.443 307.972 406.012C308.782 400.581 305.532 396.824 299.021 396.402C292.509 395.981 267.685 390.55 266.465 386.372C265.245 382.193 272.976 366.321 272.976 366.321L248.573 367.574C248.573 367.574 247.353 378.436 245.722 380.531C244.092 382.626 241.651 378.436 235.95 375.521C230.249 372.606 219.312 370.09 215.196 366.742C211.081 363.395 172.058 325.754 172.058 325.754" fill="white"/>
  <mask id="mask2_71_4052" style="mask-type:luminance" maskUnits="userSpaceOnUse" x="135" y="309" width="174" height="207">
  <path d="M140.423 321.12C138.555 317.608 137.067 313.897 135.986 310.053C137.062 313.899 138.55 317.611 140.423 321.12ZM135.864 309.404C135.864 309.472 135.864 309.552 135.864 309.654C135.887 309.552 135.875 309.472 135.864 309.404ZM140.423 321.108C144.572 329.174 149.733 336.646 155.775 343.333C170.428 359.626 212.756 402.243 216.783 405.169C220.809 408.096 219.633 416.441 216.783 424.798C213.932 433.156 203.35 445.293 203.76 458.637C204.171 471.981 208.197 492.475 207.831 496.654C207.465 500.833 197.282 515.042 197.282 515.042H302.282C302.282 515.042 289.193 497.963 289.193 492.123C289.193 486.282 307.162 411.443 307.972 406.012C308.782 400.581 305.532 396.824 299.021 396.402C292.509 395.981 267.685 390.55 266.465 386.372C265.245 382.193 272.976 366.321 272.976 366.321L248.573 367.574C248.573 367.574 247.353 378.436 245.722 380.531C244.092 382.626 241.651 378.436 235.95 375.521C230.249 372.606 219.312 370.09 215.196 366.742C211.081 363.395 172.058 325.754 172.058 325.754" fill="white"/>
  </mask>
  <g mask="url(#mask2_71_4052)">
  <path d="M221.43 369.965C223.46 373.608 225.49 376.899 225.49 376.899C225.49 376.899 232.334 380.849 234.042 380.849C235.75 380.849 246.022 386.542 246.022 386.542C246.022 386.542 254.585 384.345 251.568 376.876C250.616 374.964 249.414 373.194 247.996 371.616C247.486 374.929 246.665 379.267 245.7 380.508C244.07 382.591 241.629 378.413 235.928 375.498C232.234 373.608 226.255 371.877 221.43 369.965Z" fill="#6AE536"/>
  <path d="M200.532 353.057C187.965 341.113 172.058 325.799 172.058 325.799L162.807 324.433L161.698 325.071C161.698 325.071 187.809 348.787 193.367 351.429C195.615 352.489 198.058 353.044 200.532 353.057Z" fill="#6AE536"/>
  <path d="M213.699 365.422L212.7 364.511C213.211 365.376 213.499 365.923 213.499 365.923L213.699 365.422Z" fill="#6AE536"/>
  <g opacity="0.5">
  <path d="M221.43 369.965C223.46 373.608 225.49 376.899 225.49 376.899C225.49 376.899 232.334 380.849 234.042 380.849C235.75 380.849 246.022 386.542 246.022 386.542C246.022 386.542 254.585 384.345 251.568 376.876C250.616 374.964 249.414 373.194 247.996 371.616C247.486 374.929 246.665 379.267 245.7 380.508C244.07 382.591 241.629 378.413 235.928 375.498C232.234 373.608 226.255 371.877 221.43 369.965Z" fill="white"/>
  <path d="M200.532 353.057C187.965 341.113 172.058 325.799 172.058 325.799L162.807 324.433L161.698 325.071C161.698 325.071 187.809 348.787 193.367 351.429C195.615 352.489 198.058 353.044 200.532 353.057Z" fill="white"/>
  <path d="M213.699 365.422L212.7 364.511C213.211 365.376 213.499 365.923 213.499 365.923L213.699 365.422Z" fill="white"/>
  </g>
  </g>
  <path d="M135.842 309.096C135.837 309.176 135.837 309.256 135.842 309.335M135.986 310.053C137.067 313.897 138.555 317.608 140.423 321.12C138.55 317.611 137.062 313.899 135.986 310.053ZM135.986 310.053C135.956 309.945 135.933 309.834 135.92 309.723M140.423 321.108C144.572 329.174 149.733 336.646 155.775 343.333C170.428 359.626 212.756 402.243 216.783 405.169C220.809 408.096 219.633 416.441 216.783 424.798C213.932 433.156 203.35 445.293 203.76 458.637C204.171 471.981 208.197 492.475 207.831 496.654C207.465 500.833 197.282 515.042 197.282 515.042H302.282C302.282 515.042 289.193 497.963 289.193 492.123C289.193 486.282 307.162 411.443 307.972 406.012C308.782 400.581 305.532 396.824 299.021 396.402C292.509 395.981 267.685 390.55 266.465 386.372C265.245 382.193 272.976 366.321 272.976 366.321L248.573 367.574C248.573 367.574 247.353 378.436 245.722 380.531C244.092 382.626 241.651 378.436 235.95 375.521C230.249 372.606 219.312 370.09 215.196 366.742C211.081 363.395 172.058 325.754 172.058 325.754M135.864 309.404C135.864 309.472 135.864 309.552 135.864 309.654C135.887 309.552 135.875 309.472 135.864 309.404Z" stroke="#263238" stroke-linecap="round" stroke-linejoin="round"/>
  <path d="M172.058 325.799C172.058 325.799 159.058 326.05 151.804 319.913" stroke="#263238" stroke-linecap="round" stroke-linejoin="round"/>
  <path d="M266.476 386.371C265.256 382.204 272.987 366.321 272.987 366.321L248.584 367.574C248.584 367.574 247.364 378.436 245.733 380.531C244.103 382.626 241.662 378.436 235.961 375.521C235.528 375.293 235.051 375.077 234.563 374.86L233.088 398.668C233.088 398.668 235.229 421.724 260.896 417.341C271.29 415.565 282.382 406.046 291.955 395.343C282.105 393.488 267.408 389.571 266.476 386.371Z" fill="white"/>
  <mask id="mask3_71_4052" style="mask-type:luminance" maskUnits="userSpaceOnUse" x="233" y="366" width="59" height="52">
  <path d="M266.476 386.371C265.256 382.204 272.987 366.321 272.987 366.321L248.584 367.574C248.584 367.574 247.364 378.436 245.733 380.531C244.103 382.626 241.662 378.436 235.961 375.521C235.528 375.293 235.051 375.077 234.563 374.86L233.088 398.668C233.088 398.668 235.229 421.724 260.896 417.341C271.29 415.565 282.382 406.046 291.955 395.343C282.105 393.488 267.408 389.571 266.476 386.371Z" fill="white"/>
  </mask>
  <g mask="url(#mask3_71_4052)">
  <path d="M265.788 369.475C265.788 369.475 264.313 377.969 263.126 387.362C261.939 396.755 261.063 403.746 261.063 403.746L266.476 386.372L272.577 367.961C272.577 367.961 266.675 367.961 265.788 369.475Z" fill="#6AE536"/>
  <path opacity="0.5" d="M265.788 369.475C265.788 369.475 264.313 377.969 263.126 387.362C261.939 396.755 261.063 403.746 261.063 403.746L266.476 386.372L272.577 367.961C272.577 367.961 266.675 367.961 265.788 369.475Z" fill="white"/>
  </g>
  <path d="M266.476 386.371C265.256 382.204 272.987 366.321 272.987 366.321L248.584 367.574C248.584 367.574 247.364 378.436 245.733 380.531C244.103 382.626 241.662 378.436 235.961 375.521C235.528 375.293 235.051 375.077 234.563 374.86L233.088 398.668C233.088 398.668 235.229 421.724 260.896 417.341C271.29 415.565 282.382 406.046 291.955 395.343C282.105 393.488 267.408 389.571 266.476 386.371Z" stroke="#263238" stroke-linecap="round" stroke-linejoin="round"/>
  <path d="M245.722 380.531C244.092 382.614 241.651 378.436 235.95 375.521C232.356 373.665 226.633 371.98 221.896 370.158C220.554 366.89 218.779 362.632 217.637 360.059C215.607 355.505 212.346 358.385 212.346 358.385C210.644 356.399 209.269 354.142 208.275 351.702C206.245 347.148 202.984 347.523 198.514 346.692C194.043 345.861 184.67 337.083 184.67 337.083C184.67 337.083 180.289 333.667 178.481 331.97C176.373 336.229 171.326 343.72 160.412 348.4C177.815 367.061 213.122 402.517 216.827 405.181C220.898 408.096 219.678 416.453 216.827 424.81C213.976 433.167 203.394 445.304 203.805 458.648C204.215 471.993 208.242 492.487 207.875 496.666C207.509 500.389 199.39 512.059 197.626 514.564L201.764 515.042H223.305C223.183 503.839 223.194 458.113 230.659 439.896C239.211 418.958 245.722 380.531 245.722 380.531Z" fill="#6AE536"/>
  <mask id="mask4_71_4052" style="mask-type:luminance" maskUnits="userSpaceOnUse" x="160" y="331" width="86" height="185">
  <path d="M245.722 380.531C244.092 382.614 241.651 378.436 235.95 375.521C232.356 373.665 226.633 371.98 221.896 370.158C220.554 366.89 218.779 362.632 217.637 360.059C215.607 355.505 212.346 358.385 212.346 358.385C210.644 356.399 209.269 354.142 208.275 351.702C206.245 347.148 202.984 347.523 198.514 346.692C194.043 345.861 184.67 337.083 184.67 337.083C184.67 337.083 180.289 333.667 178.481 331.97C176.373 336.229 171.326 343.72 160.412 348.4C177.815 367.061 213.122 402.517 216.827 405.181C220.898 408.096 219.678 416.453 216.827 424.81C213.976 433.167 203.394 445.304 203.805 458.648C204.215 471.993 208.242 492.487 207.875 496.666C207.509 500.389 199.39 512.059 197.626 514.564L201.764 515.042H223.305C223.183 503.839 223.194 458.113 230.659 439.896C239.211 418.958 245.722 380.531 245.722 380.531Z" fill="white"/>
  </mask>
  <g mask="url(#mask4_71_4052)">
  <path opacity="0.16" d="M235.95 375.521C232.356 373.665 226.633 371.98 221.896 370.158C220.554 366.89 218.779 362.632 217.637 360.059C215.607 355.505 212.346 358.385 212.346 358.385C210.644 356.399 209.269 354.142 208.275 351.702C206.245 347.148 202.984 347.523 198.514 346.692C194.044 345.861 184.671 337.083 184.671 337.083C184.671 337.083 180.289 333.667 178.481 331.97C177.579 333.778 176.505 335.491 175.275 337.083C182.552 343.402 190.583 350.096 193.389 351.429C198.935 354.059 200.233 351.861 204.481 354.503C208.73 357.144 213.466 365.889 213.466 365.889C213.466 365.889 216.04 358.852 218.18 363.691C220.321 368.53 225.457 376.864 225.457 376.864C225.457 376.864 232.301 380.815 234.009 380.815C235.351 380.815 241.929 384.322 244.724 385.836C245.345 382.5 245.689 380.497 245.689 380.497C244.092 382.614 241.652 378.436 235.95 375.521Z" fill="black"/>
  </g>
  <path d="M245.722 380.531C244.092 382.614 241.651 378.436 235.95 375.521C232.356 373.665 226.633 371.98 221.896 370.158C220.554 366.89 218.779 362.632 217.637 360.059C215.607 355.505 212.346 358.385 212.346 358.385C210.644 356.399 209.269 354.142 208.275 351.702C206.245 347.148 202.984 347.523 198.514 346.692C194.043 345.861 184.67 337.083 184.67 337.083C184.67 337.083 180.289 333.667 178.481 331.97C176.373 336.229 171.326 343.72 160.412 348.4C177.815 367.061 213.122 402.517 216.827 405.181C220.898 408.096 219.678 416.453 216.827 424.81C213.976 433.167 203.394 445.304 203.805 458.648C204.215 471.993 208.242 492.487 207.875 496.666C207.509 500.389 199.39 512.059 197.626 514.564L201.764 515.042H223.305C223.183 503.839 223.194 458.113 230.659 439.896C239.211 418.958 245.722 380.531 245.722 380.531Z" stroke="#263238" stroke-linecap="round" stroke-linejoin="round"/>
  <path d="M246.011 379.073C246.011 379.073 240.952 377.479 237.836 380.28C234.719 383.081 230.071 397.45 227.331 413.037C225.643 422.111 226.808 431.501 230.659 439.85C230.659 439.85 237.059 422.624 239 414.232C240.941 405.841 246.011 379.073 246.011 379.073Z" fill="#6AE536"/>
  <mask id="mask5_71_4052" style="mask-type:luminance" maskUnits="userSpaceOnUse" x="226" y="378" width="21" height="62">
  <path d="M246.011 379.073C246.011 379.073 240.952 377.479 237.836 380.28C234.719 383.081 230.071 397.45 227.331 413.037C225.643 422.111 226.808 431.501 230.659 439.85C230.659 439.85 237.059 422.624 239 414.232C240.941 405.841 246.011 379.073 246.011 379.073Z" fill="white"/>
  </mask>
  <g mask="url(#mask5_71_4052)">
  <path opacity="0.16" d="M236.305 381.612C236.305 381.612 239.965 380.701 241.474 381.225C242.744 381.784 243.932 382.524 245.001 383.423L246.011 379.073C244.497 378.279 242.779 377.989 241.097 378.242C238.579 378.766 236.305 381.612 236.305 381.612Z" fill="black"/>
  </g>
  <path d="M246.011 379.073C246.011 379.073 240.952 377.479 237.836 380.28C234.719 383.081 230.071 397.45 227.331 413.037C225.643 422.111 226.808 431.501 230.659 439.85C230.659 439.85 237.059 422.624 239 414.232C240.941 405.841 246.011 379.073 246.011 379.073Z" stroke="#263238" stroke-linecap="round" stroke-linejoin="round"/>
  <path d="M211.946 380.44L218.457 407.595L203.804 373.335" stroke="#263238" stroke-linecap="round" stroke-linejoin="round"/>
  <path d="M254.84 515.042H302.293C302.293 515.042 289.204 497.963 289.204 492.123C289.204 486.282 307.174 411.443 307.983 406.012C308.793 400.581 305.543 396.824 299.032 396.402C292.521 395.981 267.696 390.55 266.476 386.372C266.476 386.372 257.114 420.21 253.864 443.187C251.069 462.895 253.964 503.793 254.84 515.042Z" fill="#6AE536"/>
  <mask id="mask6_71_4052" style="mask-type:luminance" maskUnits="userSpaceOnUse" x="252" y="386" width="57" height="130">
  <path d="M254.84 515.042H302.293C302.293 515.042 289.204 497.963 289.204 492.123C289.204 486.282 307.174 411.443 307.983 406.012C308.793 400.581 305.543 396.824 299.032 396.402C292.521 395.981 267.696 390.55 266.476 386.372C266.476 386.372 257.114 420.21 253.864 443.187C251.069 462.895 253.964 503.793 254.84 515.042Z" fill="white"/>
  </mask>
  <g mask="url(#mask6_71_4052)">
  <path opacity="0.16" d="M299.032 396.402C293.696 396.061 276.071 392.349 269.205 388.728L271.7 394.649C276.222 397.111 281.086 398.847 286.12 399.795C294.384 401.31 302.071 401.014 307.096 408.597L307.34 408.972C307.65 407.515 307.861 406.49 307.928 406.012C308.804 400.581 305.543 396.824 299.032 396.402Z" fill="black"/>
  </g>
  <path d="M254.84 515.042H302.293C302.293 515.042 289.204 497.963 289.204 492.123C289.204 486.282 307.174 411.443 307.983 406.012C308.793 400.581 305.543 396.824 299.032 396.402C292.521 395.981 267.696 390.55 266.476 386.372C266.476 386.372 257.114 420.21 253.864 443.187C251.069 462.895 253.964 503.793 254.84 515.042Z" stroke="#263238" stroke-linecap="round" stroke-linejoin="round"/>
  <path d="M266.476 386.372C266.476 386.372 253.919 427.36 253.864 443.187C253.864 443.187 271.7 421.018 274.03 405.443C276.359 389.867 266.476 386.372 266.476 386.372Z" fill="#6AE536"/>
  <mask id="mask7_71_4052" style="mask-type:luminance" maskUnits="userSpaceOnUse" x="253" y="386" width="22" height="58">
  <path d="M266.476 386.372C266.476 386.372 253.919 427.36 253.864 443.187C253.864 443.187 271.7 421.018 274.03 405.443C276.359 389.867 266.476 386.372 266.476 386.372Z" fill="white"/>
  </mask>
  <g mask="url(#mask7_71_4052)">
  <path opacity="0.16" d="M264.313 391.609C266.2 391.544 268.073 391.952 269.772 392.797C271.471 393.642 272.944 394.899 274.063 396.459C274.063 396.459 271.601 389.024 266.476 386.372L264.313 391.609Z" fill="black"/>
  </g>
  <path d="M266.476 386.372C266.476 386.372 253.919 427.36 253.864 443.187C253.864 443.187 271.7 421.018 274.03 405.443C276.359 389.867 266.476 386.372 266.476 386.372Z" stroke="#263238" stroke-linecap="round" stroke-linejoin="round"/>
  <path d="M400.526 507.334C400.526 507.334 409.722 507.721 415.745 508.609C419.761 509.168 423.805 509.499 427.857 509.6C427.857 509.6 424.53 502.7 420.98 500.753C417.431 498.806 410.997 495.322 405.606 496.096C400.215 496.87 392.506 502.449 393.15 504.226C393.793 506.002 396.666 506.799 400.526 507.334Z" fill="white"/>
  <mask id="mask8_71_4052" style="mask-type:luminance" maskUnits="userSpaceOnUse" x="393" y="495" width="35" height="15">
  <path d="M400.526 507.334C400.526 507.334 409.722 507.721 415.745 508.609C419.761 509.168 423.805 509.499 427.857 509.6C427.857 509.6 424.53 502.7 420.98 500.753C417.431 498.806 410.997 495.322 405.606 496.096C400.215 496.87 392.506 502.449 393.15 504.226C393.793 506.002 396.666 506.799 400.526 507.334Z" fill="white"/>
  </mask>
  <g mask="url(#mask8_71_4052)">
  <path d="M400.526 507.334C400.526 507.334 409.722 507.721 415.745 508.609C419.761 509.168 423.805 509.499 427.857 509.6C427.857 509.6 424.53 502.7 420.98 500.753C417.431 498.806 410.997 495.322 405.606 496.096C400.215 496.87 392.506 502.449 393.15 504.226C393.793 506.002 396.666 506.799 400.526 507.334Z" fill="#6AE536"/>
  <path opacity="0.5" d="M400.526 507.334C400.526 507.334 409.722 507.721 415.745 508.609C419.761 509.168 423.805 509.499 427.857 509.6C427.857 509.6 424.53 502.7 420.98 500.753C417.431 498.806 410.997 495.322 405.606 496.096C400.215 496.87 392.506 502.449 393.15 504.226C393.793 506.002 396.666 506.799 400.526 507.334Z" fill="white"/>
  </g>
  <path d="M400.526 507.334C400.526 507.334 409.722 507.721 415.745 508.609C419.761 509.168 423.805 509.499 427.857 509.6C427.857 509.6 424.53 502.7 420.98 500.753C417.431 498.806 410.997 495.322 405.606 496.096C400.215 496.87 392.506 502.449 393.15 504.226C393.793 506.002 396.666 506.799 400.526 507.334Z" stroke="#263238" stroke-linecap="round" stroke-linejoin="round"/>
  <path d="M415.8 504.51C415.8 504.51 423.088 500.628 424.907 500.685C426.726 500.742 438.817 509.133 438.218 510.476C437.811 511.099 437.224 511.575 436.539 511.837C435.854 512.098 435.106 512.132 434.402 511.934C433.06 511.285 424.918 507.732 424.918 507.732L419.594 509.019L415.8 504.51Z" fill="white"/>
  <mask id="mask9_71_4052" style="mask-type:luminance" maskUnits="userSpaceOnUse" x="415" y="500" width="24" height="13">
  <path d="M415.8 504.51C415.8 504.51 423.088 500.628 424.907 500.685C426.726 500.742 438.817 509.133 438.218 510.476C437.811 511.099 437.224 511.575 436.539 511.837C435.854 512.098 435.106 512.132 434.402 511.934C433.06 511.285 424.918 507.732 424.918 507.732L419.594 509.019L415.8 504.51Z" fill="white"/>
  </mask>
  <g mask="url(#mask9_71_4052)">
  <path d="M415.8 504.51C415.8 504.51 423.088 500.628 424.907 500.685C426.726 500.742 438.817 509.133 438.218 510.476C437.619 511.82 434.757 512.913 434.402 511.934C434.047 510.955 424.918 507.732 424.918 507.732L419.594 509.019L415.8 504.51Z" fill="#6AE536"/>
  <path opacity="0.5" d="M415.8 504.51C415.8 504.51 423.088 500.628 424.907 500.685C426.726 500.742 438.817 509.133 438.218 510.476C437.619 511.82 434.757 512.913 434.402 511.934C434.047 510.955 424.918 507.732 424.918 507.732L419.594 509.019L415.8 504.51Z" fill="white"/>
  </g>
  <path d="M415.8 504.51C415.8 504.51 423.088 500.628 424.907 500.685C426.726 500.742 438.817 509.133 438.218 510.476C437.811 511.099 437.224 511.575 436.539 511.837C435.854 512.098 435.106 512.132 434.402 511.934C433.06 511.285 424.918 507.732 424.918 507.732L419.594 509.019L415.8 504.51Z" stroke="#263238" stroke-linecap="round" stroke-linejoin="round"/>
  <path d="M410.598 498.123C410.598 498.123 420.315 497.804 422.245 498.806C424.175 499.808 432.893 515.156 431.585 516.272C430.276 517.388 426.66 517.057 426.77 515.816C426.881 514.575 418.74 506.355 418.74 506.355L412.406 504.931L410.598 498.123Z" fill="white"/>
  <mask id="mask10_71_4052" style="mask-type:luminance" maskUnits="userSpaceOnUse" x="410" y="498" width="22" height="19">
  <path d="M410.598 498.123C410.598 498.123 420.315 497.804 422.245 498.806C424.175 499.808 432.893 515.156 431.585 516.272C430.276 517.388 426.66 517.057 426.77 515.816C426.881 514.575 418.74 506.355 418.74 506.355L412.406 504.931L410.598 498.123Z" fill="white"/>
  </mask>
  <g mask="url(#mask10_71_4052)">
  <path d="M410.598 498.123C410.598 498.123 420.315 497.804 422.245 498.806C424.175 499.808 432.893 515.156 431.585 516.272C430.276 517.388 426.66 517.057 426.77 515.816C426.881 514.575 418.74 506.355 418.74 506.355L412.406 504.931L410.598 498.123Z" fill="#6AE536"/>
  <path opacity="0.5" d="M410.598 498.123C410.598 498.123 420.315 497.804 422.245 498.806C424.175 499.808 432.893 515.156 431.585 516.272C430.276 517.388 426.66 517.057 426.77 515.816C426.881 514.575 418.74 506.355 418.74 506.355L412.406 504.931L410.598 498.123Z" fill="white"/>
  </g>
  <path d="M410.598 498.123C410.598 498.123 420.315 497.804 422.245 498.806C424.175 499.808 432.893 515.156 431.585 516.272C430.276 517.388 426.66 517.057 426.77 515.816C426.881 514.575 418.74 506.355 418.74 506.355L412.406 504.931L410.598 498.123Z" stroke="#263238" stroke-linecap="round" stroke-linejoin="round"/>
  <path d="M404.841 496.062C404.841 496.062 414.68 495.732 416.632 496.757C418.584 497.781 427.414 513.3 426.083 514.439C424.752 515.577 421.113 515.224 421.224 513.972C421.335 512.719 413.094 504.396 413.094 504.396L406.682 502.95L404.841 496.062Z" fill="white"/>
  <mask id="mask11_71_4052" style="mask-type:luminance" maskUnits="userSpaceOnUse" x="404" y="496" width="23" height="20">
  <path d="M404.841 496.062C404.841 496.062 414.68 495.732 416.632 496.757C418.584 497.781 427.414 513.3 426.083 514.439C424.752 515.577 421.113 515.224 421.224 513.972C421.335 512.719 413.094 504.396 413.094 504.396L406.682 502.95L404.841 496.062Z" fill="white"/>
  </mask>
  <g mask="url(#mask11_71_4052)">
  <path d="M404.841 496.062C404.841 496.062 414.68 495.732 416.632 496.757C418.584 497.781 427.414 513.3 426.083 514.439C424.752 515.577 421.113 515.224 421.224 513.972C421.335 512.719 413.094 504.396 413.094 504.396L406.682 502.95L404.841 496.062Z" fill="#6AE536"/>
  <path opacity="0.5" d="M404.841 496.062C404.841 496.062 414.68 495.732 416.632 496.757C418.584 497.781 427.414 513.3 426.083 514.439C424.752 515.577 421.113 515.224 421.224 513.972C421.335 512.719 413.094 504.396 413.094 504.396L406.682 502.95L404.841 496.062Z" fill="white"/>
  </g>
  <path d="M404.841 496.062C404.841 496.062 414.68 495.732 416.632 496.757C418.584 497.781 427.414 513.3 426.083 514.439C424.752 515.577 421.113 515.224 421.224 513.972C421.335 512.719 413.094 504.396 413.094 504.396L406.682 502.95L404.841 496.062Z" stroke="#263238" stroke-linecap="round" stroke-linejoin="round"/>
  <path d="M292.975 438.2C300.096 449.46 314.394 477.993 318.565 481.204C325.076 486.213 368.602 498.373 372.795 501.698C376.988 505.023 376.7 508.359 380.671 509.577C384.642 510.795 399.528 514.291 405.207 514.837C410.886 515.384 408.346 511.774 408.346 511.774L398.662 504.943L407.104 502.802C407.104 502.802 415.567 513.254 417.153 513.824C418.74 514.393 421.535 513.824 421.357 512.537C421.047 510.476 412.018 493.614 408.812 492.897C405.606 492.179 386.15 494.946 386.15 494.946C386.15 494.946 345.342 466.698 344.61 465.696C344.61 465.696 342.17 458.591 340.173 455.665C338.176 452.739 336.912 453.582 336.912 453.582C336.912 453.582 337.733 449.813 336.512 448.561L330.001 441.877L329.768 442.196C328.659 439.919 327.55 437.323 326.33 434.363C322.924 426.131 310.867 403.029 308.837 399.693C307.318 397.199 294.584 395.412 288.128 394.66" fill="#6AE536"/>
  <mask id="mask12_71_4052" style="mask-type:luminance" maskUnits="userSpaceOnUse" x="288" y="394" width="134" height="121">
  <path d="M292.975 438.2C300.096 449.46 314.394 477.993 318.565 481.204C325.076 486.213 368.602 498.373 372.795 501.698C376.988 505.023 376.7 508.359 380.671 509.577C384.642 510.795 399.528 514.291 405.207 514.837C410.886 515.384 408.346 511.774 408.346 511.774L398.662 504.943L407.104 502.802C407.104 502.802 415.567 513.254 417.153 513.824C418.74 514.393 421.535 513.824 421.357 512.537C421.047 510.476 412.018 493.614 408.812 492.897C405.606 492.179 386.15 494.946 386.15 494.946C386.15 494.946 345.342 466.698 344.61 465.696C344.61 465.696 342.17 458.591 340.173 455.665C338.176 452.739 336.912 453.582 336.912 453.582C336.912 453.582 337.733 449.813 336.512 448.561L330.001 441.877L329.768 442.196C328.659 439.919 327.55 437.323 326.33 434.363C322.924 426.131 310.867 403.029 308.837 399.693C307.318 397.199 294.584 395.412 288.128 394.66" fill="white"/>
  </mask>
  <g mask="url(#mask12_71_4052)">
  <path opacity="0.16" d="M321.327 438.917C326.651 443.767 324.877 443.767 323.69 448.025C322.503 452.284 324.577 446.511 329.602 446.818C334.627 447.126 333.152 453.786 332.553 455.005C331.954 456.223 338.764 457.737 337.577 460.458C336.391 463.18 329.602 467.131 325.764 471.081C321.926 475.032 335.803 464.705 340.528 464.409C341.97 464.307 343.157 464.5 344.155 464.478C343.108 461.431 341.762 458.501 340.14 455.733C338.099 452.807 336.879 453.65 336.879 453.65C336.879 453.65 337.699 449.881 336.479 448.629L329.968 441.945L329.735 442.264C328.626 439.987 327.517 437.391 326.297 434.431C322.891 426.199 310.834 403.097 308.804 399.761C307.284 397.267 294.55 395.48 288.095 394.728L288.683 400L288.827 400.114C288.827 400.114 296.802 401.628 299.464 401.936C302.126 402.243 305.376 404.657 305.077 406.49C304.778 408.323 297.102 416.498 299.464 417.113C301.827 417.728 304.489 411.044 307.151 411.955C309.813 412.866 315.97 434.066 321.327 438.917Z" fill="black"/>
  </g>
  <path d="M292.975 438.2C300.096 449.46 314.394 477.993 318.565 481.204C325.076 486.213 368.602 498.373 372.795 501.698C376.988 505.023 376.7 508.359 380.671 509.577C384.642 510.795 399.528 514.291 405.207 514.837C410.886 515.384 408.346 511.774 408.346 511.774L398.662 504.943L407.104 502.802C407.104 502.802 415.567 513.254 417.153 513.824C418.74 514.393 421.535 513.824 421.357 512.537C421.047 510.476 412.018 493.614 408.812 492.897C405.606 492.179 386.15 494.946 386.15 494.946C386.15 494.946 345.342 466.698 344.61 465.696C344.61 465.696 342.17 458.591 340.173 455.665C338.176 452.739 336.912 453.582 336.912 453.582C336.912 453.582 337.733 449.813 336.512 448.561L330.001 441.877L329.768 442.196C328.659 439.919 327.55 437.323 326.33 434.363C322.924 426.131 310.867 403.029 308.837 399.693C307.318 397.199 294.584 395.412 288.128 394.66" stroke="#263238" stroke-linecap="round" stroke-linejoin="round"/>
  <path d="M293.086 422.749C292.787 423.774 292.532 424.798 292.332 425.846" stroke="#263238" stroke-linecap="round" stroke-linejoin="round"/>
  <path d="M303.868 403.906C300.382 407.984 297.443 412.521 295.127 417.398" stroke="#263238" stroke-linecap="round" stroke-linejoin="round"/>
  <path d="M320.163 468.554C323.158 464 327.927 458.227 333.185 456.576" stroke="#263238" stroke-linecap="round" stroke-linejoin="round"/>
  <path d="M316.846 474.156C316.846 474.156 317.378 473.086 318.332 471.469" stroke="#263238" stroke-linecap="round" stroke-linejoin="round"/>
  <path d="M316.846 466.96C316.846 466.96 322.292 452.978 327.739 449.38C333.185 445.782 330.068 452.978 330.068 452.978" stroke="#263238" stroke-linecap="round" stroke-linejoin="round"/>
  <path d="M372.795 501.709C376.999 505.045 376.7 508.37 380.671 509.588C384.642 510.807 399.528 514.302 405.207 514.849C410.886 515.395 408.346 511.786 408.346 511.786L398.663 504.954L407.104 502.814C407.104 502.814 415.567 513.266 417.153 513.835C418.74 514.404 421.757 514.609 421.357 512.549C420.581 508.564 412.018 493.625 408.812 492.908C405.606 492.191 386.151 494.958 386.151 494.958C386.151 494.958 348.98 468.77 344.909 465.935C329.125 467.495 321.616 475.977 318.454 481.067L318.565 481.158C325.076 486.213 368.603 498.373 372.795 501.709Z" fill="white"/>
  <mask id="mask13_71_4052" style="mask-type:luminance" maskUnits="userSpaceOnUse" x="318" y="465" width="104" height="50">
  <path d="M372.795 501.709C376.999 505.045 376.7 508.37 380.671 509.588C384.642 510.807 399.528 514.302 405.207 514.849C410.886 515.395 408.346 511.786 408.346 511.786L398.663 504.954L407.104 502.814C407.104 502.814 415.567 513.266 417.153 513.835C418.74 514.404 421.757 514.609 421.357 512.549C420.581 508.564 412.018 493.625 408.812 492.908C405.606 492.191 386.151 494.958 386.151 494.958C386.151 494.958 348.98 468.77 344.909 465.935C329.125 467.495 321.616 475.977 318.454 481.067L318.565 481.158C325.076 486.213 368.603 498.373 372.795 501.709Z" fill="white"/>
  </mask>
  <g mask="url(#mask13_71_4052)">
  <path d="M421.346 512.594C419.328 507.527 412.007 493.671 408.801 492.954C405.595 492.236 386.139 495.003 386.139 495.003C386.139 495.003 348.969 468.816 344.898 465.981C340.755 466.35 336.691 467.36 332.841 468.975C338.709 472.391 377.82 495.162 382.756 496.176C387.992 497.314 405.462 494.365 408.535 496.483C410.487 497.827 416.299 507.288 420.226 514.006C421.346 513.835 421.757 513.619 421.346 512.594Z" fill="#6AE536"/>
  <path opacity="0.5" d="M421.346 512.594C418.196 505.341 412.007 493.671 408.801 492.954C405.595 492.236 386.139 495.003 386.139 495.003C386.139 495.003 348.969 468.816 344.898 465.981C340.755 466.35 336.691 467.36 332.841 468.975C338.709 472.391 377.82 495.162 382.756 496.176C387.992 497.314 405.462 494.365 408.535 496.483C410.487 497.827 416.299 507.288 420.226 514.006C421.346 513.835 421.79 513.607 421.346 512.594Z" fill="white"/>
  </g>
  <path d="M372.795 501.709C376.999 505.045 376.7 508.37 380.671 509.588C384.642 510.807 399.528 514.302 405.207 514.849C410.886 515.395 408.346 511.786 408.346 511.786L398.663 504.954L407.104 502.814C407.104 502.814 415.567 513.266 417.153 513.835C418.74 514.404 421.757 514.609 421.357 512.549C420.581 508.564 412.018 493.625 408.812 492.908C405.606 492.191 386.151 494.958 386.151 494.958C386.151 494.958 348.98 468.77 344.909 465.935C329.125 467.495 321.616 475.977 318.454 481.067L318.565 481.158C325.076 486.213 368.603 498.373 372.795 501.709Z" stroke="#263238" stroke-linecap="round" stroke-linejoin="round"/>
  <path d="M274.762 302.891L241.352 317.203C240.947 323.23 239.493 329.134 237.059 334.635C233.11 343.208 235.418 359.433 239.211 368.188C243.005 376.944 259.721 373.517 265.833 372.424C269.978 371.615 274.038 370.398 277.956 368.792C279.741 369.498 281.671 369.726 283.565 369.455C285.459 369.184 287.254 368.423 288.783 367.243C288.783 367.243 270.902 315.723 274.762 302.891Z" fill="white"/>
  <mask id="mask14_71_4052" style="mask-type:luminance" maskUnits="userSpaceOnUse" x="235" y="302" width="54" height="73">
  <path d="M274.762 302.891L241.352 317.203C240.947 323.23 239.493 329.134 237.059 334.635C233.11 343.208 235.418 359.433 239.211 368.188C243.005 376.944 259.721 373.517 265.833 372.424C269.978 371.615 274.038 370.398 277.956 368.792C279.741 369.498 281.671 369.726 283.565 369.455C285.459 369.184 287.254 368.423 288.783 367.243C288.783 367.243 270.902 315.723 274.762 302.891Z" fill="white"/>
  </mask>
  <g mask="url(#mask14_71_4052)">
  <path d="M274.762 302.891L241.352 317.203C240.947 323.23 239.493 329.134 237.059 334.635C233.11 343.208 235.418 359.433 239.211 368.188C239.846 369.596 240.868 370.784 242.151 371.604V370.944C242.151 370.944 235.95 355.175 237.126 346.077C238.302 336.98 243.337 332.414 243.925 326.665C244.513 320.915 244.214 318.182 255.45 313.935C266.687 309.688 271.401 305.749 272.577 309.984C273.753 314.22 278.489 342.138 281.739 348.81C284.989 355.482 284.689 362.473 279.676 365.49C274.608 368.612 269.179 371.068 263.514 372.8L265.877 372.378C270.022 371.569 274.082 370.353 278.001 368.746C279.785 369.452 281.715 369.68 283.609 369.41C285.503 369.139 287.299 368.378 288.827 367.198C288.827 367.198 270.902 315.723 274.762 302.891Z" fill="#6AE536"/>
  <path opacity="0.5" d="M274.762 302.891L241.352 317.203C240.947 323.23 239.493 329.134 237.059 334.635C233.11 343.208 235.418 359.433 239.211 368.188C239.846 369.596 240.868 370.784 242.151 371.604V370.944C242.151 370.944 235.95 355.175 237.126 346.077C238.302 336.98 243.337 332.414 243.925 326.665C244.513 320.915 244.214 318.182 255.45 313.935C266.687 309.688 271.401 305.749 272.577 309.984C273.753 314.22 278.489 342.138 281.739 348.81C284.989 355.482 284.689 362.473 279.676 365.49C274.608 368.612 269.179 371.068 263.514 372.8L265.877 372.378C270.022 371.569 274.082 370.353 278.001 368.746C279.785 369.452 281.715 369.68 283.609 369.41C285.503 369.139 287.299 368.378 288.827 367.198C288.827 367.198 270.902 315.723 274.762 302.891Z" fill="white"/>
  </g>
  <path d="M274.762 302.891L241.352 317.203C240.947 323.23 239.493 329.134 237.059 334.635C233.11 343.208 235.418 359.433 239.211 368.188C243.005 376.944 259.721 373.517 265.833 372.424C269.978 371.615 274.038 370.398 277.956 368.792C279.741 369.498 281.671 369.726 283.565 369.455C285.459 369.184 287.254 368.423 288.783 367.243C288.783 367.243 270.902 315.723 274.762 302.891Z" stroke="#263238" stroke-linecap="round" stroke-linejoin="round"/>
  <path d="M257.879 325.332C257.97 327.349 257.726 329.366 257.158 331.299C256.271 333.576 247.896 342.525 248.151 343.493C248.407 344.461 249.161 347.569 250.647 347.865" stroke="#263238" stroke-linecap="round" stroke-linejoin="round"/>
  <path d="M267.164 333.337C268.328 330.946 272.155 333.28 272.1 338.665" stroke="#263238" stroke-linecap="round" stroke-linejoin="round"/>
  <path d="M248.196 326.3C248.196 326.3 251.457 324.831 254.374 330.251" stroke="#263238" stroke-linecap="round" stroke-linejoin="round"/>
  <path d="M262.527 341.227C266.295 341.422 269.878 342.964 272.654 345.588" stroke="#263238" stroke-width="0.5" stroke-linecap="round" stroke-linejoin="round"/>
  <path d="M244.258 334.111C246.206 334.378 248.11 334.918 249.915 335.716" stroke="#263238" stroke-width="0.5" stroke-linecap="round" stroke-linejoin="round"/>
  <path d="M257.513 320.277C256.652 319.81 255.697 319.554 254.723 319.53C253.749 319.507 252.783 319.715 251.901 320.141C248.917 321.609 247.087 323.226 247.286 321.347C247.486 319.469 250.991 317.397 252.045 317.123C253.099 316.85 257.813 316.099 257.513 320.277Z" fill="#263238"/>
  <path d="M265.877 316.03C268.986 318.613 271.457 321.913 273.087 325.663C275.305 331.356 277.058 325.139 275.305 321.416C273.553 317.693 268.484 313.73 265.877 316.03Z" fill="#263238"/>
  <path d="M289.27 376.978C289.27 379.631 287.806 381.783 286.009 381.783C284.212 381.783 282.759 379.631 282.759 376.978C282.759 374.325 284.212 367.574 286.009 367.574C287.806 367.574 289.27 374.325 289.27 376.978Z" fill="#6AE536" stroke="#263238" stroke-linecap="round" stroke-linejoin="round"/>
  <path d="M267.452 332.301C267.324 332.649 267.224 333.006 267.152 333.371C266.831 335.056 266.509 338.574 267.152 338.722C267.796 338.87 269.371 335.58 269.648 333.895C269.711 333.564 269.748 333.229 269.759 332.893C269.002 332.649 268.232 332.451 267.452 332.301Z" fill="#263238"/>
  <path d="M248.529 325.97C248.43 326.268 248.352 326.572 248.296 326.881C247.963 328.566 247.974 332.266 248.673 332.403C249.372 332.54 250.514 329.078 250.836 327.393C250.916 326.984 250.961 326.569 250.969 326.152C250.175 325.928 249.346 325.866 248.529 325.97Z" fill="#263238"/>
  <path d="M267.164 333.394L268.273 331.276C270.031 331.627 271.625 332.573 272.798 333.963" stroke="#263238" stroke-width="0.75" stroke-linecap="round" stroke-linejoin="round"/>
  <path d="M248.529 325.97L249.638 324.638C249.638 324.638 250.115 324.399 252.733 325.617" stroke="#263238" stroke-width="0.75" stroke-linecap="round" stroke-linejoin="round"/>
  <path d="M244.325 356.848C244.325 356.848 246.188 353.33 248.684 353.33C251.18 353.33 253.043 359.08 253.043 359.08" stroke="#263238" stroke-linecap="round" stroke-linejoin="round"/>
  <path d="M164.005 508.575C161.594 508.452 159.224 507.873 157.017 506.867C156.71 506.75 156.428 506.57 156.19 506.338C155.952 506.106 155.763 505.827 155.634 505.518C155.504 505.208 155.438 504.875 155.438 504.538C155.438 504.201 155.505 503.868 155.634 503.559C155.764 503.249 155.954 502.97 156.192 502.738C156.43 502.507 156.711 502.327 157.019 502.21C157.327 502.094 157.655 502.043 157.982 502.06C158.31 502.078 158.631 502.164 158.925 502.313C161.144 503.281 164.017 503.884 164.782 503.542C166.191 501.926 168.354 492.157 165.558 487.443C164.926 486.396 164.338 486.202 163.95 486.156C162.364 485.929 160.012 487.602 159.18 488.434C158.949 488.658 158.676 488.833 158.379 488.949C158.081 489.066 157.764 489.121 157.446 489.111C157.128 489.101 156.814 489.028 156.524 488.894C156.233 488.76 155.971 488.569 155.753 488.331C155.534 488.093 155.364 487.814 155.25 487.508C155.137 487.203 155.084 486.877 155.093 486.551C155.102 486.224 155.174 485.902 155.304 485.604C155.435 485.306 155.621 485.037 155.853 484.813C156.285 484.38 160.29 480.68 164.56 481.272C165.619 481.431 166.629 481.838 167.51 482.462C168.391 483.086 169.12 483.91 169.64 484.87C173.756 491.758 170.938 504.863 167.777 507.459C166.678 508.257 165.349 508.65 164.005 508.575Z" fill="white"/>
  <mask id="mask15_71_4052" style="mask-type:luminance" maskUnits="userSpaceOnUse" x="155" y="481" width="17" height="28">
  <path d="M164.005 508.575C161.594 508.452 159.224 507.873 157.017 506.867C156.71 506.75 156.428 506.57 156.19 506.338C155.952 506.106 155.763 505.827 155.634 505.518C155.504 505.208 155.438 504.875 155.438 504.538C155.438 504.201 155.505 503.868 155.634 503.559C155.764 503.249 155.954 502.97 156.192 502.738C156.43 502.507 156.711 502.327 157.019 502.21C157.327 502.094 157.655 502.043 157.982 502.06C158.31 502.078 158.631 502.164 158.925 502.313C161.144 503.281 164.017 503.884 164.782 503.542C166.191 501.926 168.354 492.157 165.558 487.443C164.926 486.396 164.338 486.202 163.95 486.156C162.364 485.929 160.012 487.602 159.18 488.434C158.949 488.658 158.676 488.833 158.379 488.949C158.081 489.066 157.764 489.121 157.446 489.111C157.128 489.101 156.814 489.028 156.524 488.894C156.233 488.76 155.971 488.569 155.753 488.331C155.534 488.093 155.364 487.814 155.25 487.508C155.137 487.203 155.084 486.877 155.093 486.551C155.102 486.224 155.174 485.902 155.304 485.604C155.435 485.306 155.621 485.037 155.853 484.813C156.285 484.38 160.29 480.68 164.56 481.272C165.619 481.431 166.629 481.838 167.51 482.462C168.391 483.086 169.12 483.91 169.64 484.87C173.756 491.758 170.938 504.863 167.777 507.459C166.678 508.257 165.349 508.65 164.005 508.575Z" fill="white"/>
  </mask>
  <g mask="url(#mask15_71_4052)">
  <path d="M167.256 486.692C166.965 485.984 166.509 485.361 165.929 484.877C165.349 484.392 164.662 484.062 163.928 483.913C161.155 483.458 158.548 486.316 158.26 486.635C157.995 486.962 157.831 487.364 157.789 487.788C157.748 488.212 157.83 488.639 158.027 489.014C158.463 488.924 158.866 488.711 159.191 488.399C160.023 487.602 162.375 485.929 163.961 486.122C164.349 486.122 164.937 486.361 165.57 487.409C168.365 492.077 166.202 501.892 164.793 503.508C164.028 503.85 161.166 503.246 158.936 502.279C158.662 502.16 158.369 502.095 158.071 502.085C158.091 502.397 158.187 502.699 158.35 502.964C158.513 503.228 158.737 503.447 159.003 503.599C160.405 504.368 161.953 504.819 163.54 504.92C164.445 504.965 165.332 504.646 166.013 504.032C168.099 502.062 169.94 491.986 167.256 486.692Z" fill="#6AE536"/>
  <path opacity="0.5" d="M167.256 486.692C166.965 485.984 166.509 485.361 165.929 484.877C165.349 484.392 164.662 484.062 163.928 483.913C161.155 483.458 158.548 486.316 158.26 486.635C157.995 486.962 157.831 487.364 157.789 487.788C157.748 488.212 157.83 488.639 158.027 489.014C158.463 488.924 158.866 488.711 159.191 488.399C160.023 487.602 162.375 485.929 163.961 486.122C164.349 486.122 164.937 486.361 165.57 487.409C168.365 492.077 166.202 501.892 164.793 503.508C164.028 503.85 161.166 503.246 158.936 502.279C158.662 502.16 158.369 502.095 158.071 502.085C158.091 502.397 158.187 502.699 158.35 502.964C158.513 503.228 158.737 503.447 159.003 503.599C160.405 504.368 161.953 504.819 163.54 504.92C164.445 504.965 165.332 504.646 166.013 504.032C168.099 502.062 169.94 491.986 167.256 486.692Z" fill="white"/>
  </g>
  <path d="M164.005 508.575C161.594 508.452 159.224 507.873 157.017 506.867C156.71 506.75 156.428 506.57 156.19 506.338C155.952 506.106 155.763 505.827 155.634 505.518C155.504 505.208 155.438 504.875 155.438 504.538C155.438 504.201 155.505 503.868 155.634 503.559C155.764 503.249 155.954 502.97 156.192 502.738C156.43 502.507 156.711 502.327 157.019 502.21C157.327 502.094 157.655 502.043 157.982 502.06C158.31 502.078 158.631 502.164 158.925 502.313C161.144 503.281 164.017 503.884 164.782 503.542C166.191 501.926 168.354 492.157 165.558 487.443C164.926 486.396 164.338 486.202 163.95 486.156C162.364 485.929 160.012 487.602 159.18 488.434C158.949 488.658 158.676 488.833 158.379 488.949C158.081 489.066 157.764 489.121 157.446 489.111C157.128 489.101 156.814 489.028 156.524 488.894C156.233 488.76 155.971 488.569 155.753 488.331C155.534 488.093 155.364 487.814 155.25 487.508C155.137 487.203 155.084 486.877 155.093 486.551C155.102 486.224 155.174 485.902 155.304 485.604C155.435 485.306 155.621 485.037 155.853 484.813C156.285 484.38 160.29 480.68 164.56 481.272C165.619 481.431 166.629 481.838 167.51 482.462C168.391 483.086 169.12 483.91 169.64 484.87C173.756 491.758 170.938 504.863 167.777 507.459C166.678 508.257 165.349 508.65 164.005 508.575Z" stroke="#263238" stroke-linecap="round" stroke-linejoin="round"/>
  <path d="M159.768 479.2H133.091V515.543H159.768V479.2Z" fill="white"/>
  <mask id="mask16_71_4052" style="mask-type:luminance" maskUnits="userSpaceOnUse" x="133" y="479" width="27" height="37">
  <path d="M159.768 479.2H133.091V515.543H159.768V479.2Z" fill="white"/>
  </mask>
  <g mask="url(#mask16_71_4052)">
  <path d="M144.017 479.2H133.091V515.543H144.017V479.2Z" fill="#6AE536"/>
  <path opacity="0.5" d="M144.017 479.2H133.091V515.543H144.017V479.2Z" fill="white"/>
  </g>
  <path d="M159.768 479.2H133.091V515.543H159.768V479.2Z" stroke="#263238" stroke-linecap="round" stroke-linejoin="round"/>
  <path d="M306.364 515.042H192.402L188.686 450.735C188.583 450.112 188.613 449.473 188.775 448.862C188.936 448.252 189.224 447.685 189.619 447.2C190.015 446.715 190.508 446.324 191.065 446.054C191.622 445.783 192.229 445.64 192.845 445.634H305.876C306.496 445.634 307.108 445.772 307.67 446.04C308.233 446.307 308.731 446.697 309.132 447.183C309.532 447.668 309.824 448.238 309.988 448.852C310.152 449.465 310.183 450.108 310.08 450.735L306.364 515.042Z" fill="#263238" stroke="#263238" stroke-linecap="round" stroke-linejoin="round"/>
  <path d="M198.014 447.172H305.055C305.66 447.165 306.258 447.295 306.809 447.551C307.36 447.807 307.85 448.183 308.244 448.654C308.638 449.125 308.927 449.678 309.091 450.276C309.255 450.873 309.289 451.5 309.192 452.113" stroke="white" stroke-linecap="round" stroke-linejoin="round"/>
  <path d="M189.518 451.1C189.607 450.024 190.088 449.022 190.865 448.293C191.643 447.565 192.659 447.165 193.711 447.172" stroke="white" stroke-linecap="round" stroke-linejoin="round"/>
  <path d="M306.841 508.78H191.925V515.042H306.841V508.78Z" fill="white" stroke="#263238" stroke-linecap="round" stroke-linejoin="round"/>
  <path d="M248.972 485.599C253.469 485.599 257.114 483.356 257.114 480.589C257.114 477.822 253.469 475.579 248.972 475.579C244.476 475.579 240.831 477.822 240.831 480.589C240.831 483.356 244.476 485.599 248.972 485.599Z" fill="white" stroke="#263238" stroke-linecap="round" stroke-linejoin="round"/>
  <path d="M369.191 118.749H163.285C156.344 118.749 150.717 124.525 150.717 131.649V252.919C150.717 260.043 156.344 265.819 163.285 265.819H369.191C376.131 265.819 381.758 260.043 381.758 252.919V131.649C381.758 124.525 376.131 118.749 369.191 118.749Z" fill="#6AE536"/>
  <path d="M271.671 203.266C290.349 200.185 303.057 182.145 300.055 162.973C297.053 143.801 279.478 130.757 260.801 133.838C242.123 136.919 229.415 154.959 232.417 174.131C235.418 193.303 252.993 206.347 271.671 203.266Z" fill="#263238"/>
  <path d="M265.977 175.052L254.563 190.092C254.175 190.718 253.641 191.236 253.01 191.597C252.379 191.959 251.67 192.154 250.947 192.165C249.955 192.178 248.998 191.79 248.285 191.083C247.922 190.741 247.635 190.323 247.443 189.858C247.252 189.392 247.161 188.89 247.175 188.384C247.211 187.253 247.6 186.163 248.285 185.276L261.296 168.755L249.094 152.223C248.527 151.447 248.216 150.506 248.207 149.536C248.204 148.958 248.318 148.385 248.541 147.854C248.765 147.323 249.093 146.845 249.505 146.451C249.892 146.036 250.357 145.706 250.871 145.481C251.386 145.256 251.94 145.14 252.5 145.141C253.216 145.153 253.918 145.349 254.542 145.711C255.166 146.073 255.692 146.59 256.071 147.213L267.097 162.117L278.189 147.464C278.586 146.78 279.141 146.208 279.804 145.797C280.468 145.385 281.22 145.149 281.994 145.107C282.474 145.106 282.95 145.206 283.391 145.402C283.832 145.598 284.228 145.885 284.556 146.246C284.906 146.584 285.185 146.991 285.375 147.443C285.566 147.896 285.665 148.383 285.666 148.876C285.654 149.758 285.357 150.611 284.823 151.301L271.767 168.448L284.379 185.527C284.975 186.29 285.307 187.235 285.322 188.214C285.325 188.779 285.209 189.339 284.981 189.854C284.753 190.369 284.419 190.827 284.002 191.197C283.188 192 282.103 192.449 280.974 192.449C280.253 192.44 279.547 192.245 278.919 191.883C278.291 191.521 277.762 191.003 277.38 190.377L265.977 175.052Z" fill="white"/>
  <path d="M331.499 240.349H200.932C198.284 240.349 195.745 239.269 193.873 237.348C192.001 235.426 190.949 232.82 190.949 230.102C190.949 227.384 192.001 224.778 193.873 222.856C195.745 220.934 198.284 219.855 200.932 219.855H331.499C334.147 219.855 336.686 220.934 338.558 222.856C340.43 224.778 341.482 227.384 341.482 230.102C341.482 232.82 340.43 235.426 338.558 237.348C336.686 239.269 334.147 240.349 331.499 240.349Z" fill="white"/>
  <path d="M218.824 233.404C218.737 233.404 218.65 233.386 218.57 233.35C218.49 233.315 218.418 233.264 218.358 233.199C218.292 233.132 218.241 233.052 218.206 232.964C218.172 232.876 218.156 232.781 218.158 232.686C218.158 232.526 218.2 232.369 218.28 232.231L219.278 230.637H217.237C217.143 230.642 217.049 230.626 216.961 230.591C216.873 230.556 216.793 230.501 216.727 230.432C216.613 230.296 216.551 230.122 216.551 229.942C216.551 229.763 216.613 229.589 216.727 229.453C216.793 229.384 216.873 229.329 216.961 229.294C217.049 229.259 217.143 229.243 217.237 229.248L219.245 229.305L218.358 227.825C218.269 227.673 218.219 227.501 218.214 227.324C218.211 227.229 218.227 227.134 218.262 227.046C218.296 226.958 218.348 226.878 218.413 226.811C218.475 226.746 218.55 226.695 218.632 226.659C218.713 226.624 218.801 226.606 218.89 226.606C219.014 226.605 219.136 226.64 219.241 226.709C219.346 226.778 219.428 226.877 219.478 226.994L220.454 228.781L221.386 227.073C221.445 226.94 221.538 226.827 221.655 226.744C221.772 226.662 221.91 226.614 222.052 226.606C222.139 226.606 222.225 226.625 222.305 226.66C222.385 226.695 222.457 226.747 222.517 226.811C222.582 226.874 222.634 226.95 222.668 227.034C222.703 227.119 222.719 227.21 222.717 227.301C222.716 227.463 222.669 227.621 222.584 227.756L221.608 229.362L223.638 229.305C223.732 229.299 223.827 229.315 223.915 229.35C224.003 229.385 224.082 229.44 224.148 229.51C224.262 229.646 224.325 229.82 224.325 229.999C224.325 230.179 224.262 230.353 224.148 230.489C224.082 230.559 224.003 230.614 223.915 230.649C223.827 230.684 223.732 230.7 223.638 230.694H221.586L222.495 232.151C222.598 232.327 222.655 232.527 222.662 232.732C222.665 232.824 222.65 232.916 222.617 233.002C222.585 233.088 222.536 233.167 222.473 233.233C222.415 233.297 222.344 233.348 222.266 233.383C222.188 233.418 222.104 233.437 222.018 233.438C221.881 233.434 221.747 233.391 221.633 233.312C221.52 233.234 221.43 233.123 221.375 232.994L220.454 231.32L219.534 232.994C219.467 233.126 219.364 233.235 219.238 233.308C219.112 233.38 218.968 233.414 218.824 233.404Z" fill="black"/>
  <path d="M229.006 233.404C228.919 233.404 228.833 233.386 228.753 233.35C228.673 233.315 228.6 233.264 228.54 233.199C228.475 233.132 228.423 233.052 228.389 232.964C228.355 232.876 228.338 232.781 228.341 232.686C228.341 232.526 228.383 232.369 228.463 232.231L229.461 230.637H227.42C227.326 230.642 227.231 230.626 227.143 230.591C227.056 230.556 226.976 230.501 226.91 230.432C226.796 230.296 226.733 230.122 226.733 229.942C226.733 229.763 226.796 229.589 226.91 229.453C226.976 229.384 227.056 229.329 227.143 229.294C227.231 229.259 227.326 229.243 227.42 229.248L229.428 229.305L228.485 227.768C228.396 227.616 228.346 227.444 228.341 227.267C228.338 227.172 228.355 227.078 228.389 226.989C228.423 226.901 228.475 226.821 228.54 226.754C228.603 226.689 228.677 226.638 228.759 226.602C228.841 226.567 228.929 226.549 229.017 226.55C229.142 226.548 229.264 226.583 229.368 226.652C229.473 226.721 229.555 226.82 229.605 226.937L230.581 228.724L231.513 227.016C231.572 226.883 231.665 226.77 231.782 226.687C231.9 226.605 232.037 226.557 232.179 226.55C232.266 226.55 232.352 226.568 232.432 226.603C232.512 226.638 232.584 226.69 232.645 226.754C232.71 226.817 232.761 226.893 232.795 226.977C232.83 227.062 232.846 227.153 232.844 227.244C232.843 227.406 232.797 227.564 232.711 227.699L231.735 229.305L233.765 229.248C233.859 229.242 233.954 229.258 234.042 229.293C234.13 229.328 234.21 229.383 234.275 229.453C234.389 229.589 234.452 229.763 234.452 229.942C234.452 230.122 234.389 230.296 234.275 230.432C234.21 230.502 234.13 230.557 234.042 230.592C233.954 230.627 233.859 230.643 233.765 230.637H231.713L232.622 232.094C232.725 232.27 232.782 232.47 232.789 232.675C232.792 232.767 232.777 232.859 232.744 232.945C232.712 233.031 232.663 233.11 232.6 233.176C232.542 233.24 232.471 233.291 232.393 233.326C232.315 233.361 232.231 233.38 232.145 233.381C232.008 233.379 231.874 233.336 231.759 233.257C231.645 233.178 231.556 233.067 231.502 232.937L230.581 231.263L229.661 232.937C229.606 233.07 229.516 233.185 229.4 233.268C229.284 233.351 229.147 233.398 229.006 233.404Z" fill="black"/>
  <path d="M239.189 233.404C239.102 233.404 239.016 233.386 238.936 233.35C238.856 233.315 238.783 233.264 238.723 233.199C238.658 233.132 238.606 233.052 238.572 232.964C238.537 232.876 238.521 232.781 238.524 232.686C238.523 232.526 238.566 232.369 238.646 232.231L239.644 230.637H237.603C237.509 230.642 237.414 230.626 237.326 230.591C237.238 230.556 237.159 230.501 237.093 230.432C236.979 230.296 236.916 230.122 236.916 229.942C236.916 229.763 236.979 229.589 237.093 229.453C237.159 229.384 237.238 229.329 237.326 229.294C237.414 229.259 237.509 229.243 237.603 229.248L239.611 229.305L238.668 227.768C238.579 227.616 238.529 227.444 238.524 227.267C238.521 227.172 238.537 227.078 238.572 226.989C238.606 226.901 238.658 226.821 238.723 226.754C238.785 226.689 238.86 226.638 238.942 226.602C239.024 226.567 239.111 226.549 239.2 226.55C239.324 226.548 239.446 226.583 239.551 226.652C239.656 226.721 239.738 226.82 239.788 226.937L240.764 228.724L241.696 227.016C241.755 226.883 241.848 226.77 241.965 226.687C242.082 226.605 242.22 226.557 242.362 226.55C242.449 226.55 242.535 226.568 242.615 226.603C242.695 226.638 242.767 226.69 242.827 226.754C242.892 226.817 242.944 226.893 242.978 226.977C243.013 227.062 243.029 227.153 243.027 227.244C243.026 227.406 242.979 227.564 242.894 227.699L241.918 229.305L243.948 229.248C244.042 229.242 244.137 229.258 244.225 229.293C244.313 229.328 244.392 229.383 244.458 229.453C244.572 229.589 244.635 229.763 244.635 229.942C244.635 230.122 244.572 230.296 244.458 230.432C244.392 230.502 244.313 230.557 244.225 230.592C244.137 230.627 244.042 230.643 243.948 230.637H241.896L242.805 232.094C242.908 232.27 242.965 232.47 242.972 232.675C242.975 232.767 242.96 232.859 242.927 232.945C242.895 233.031 242.846 233.11 242.783 233.176C242.725 233.24 242.654 233.291 242.576 233.326C242.498 233.361 242.414 233.38 242.328 233.381C242.191 233.379 242.057 233.336 241.942 233.257C241.828 233.178 241.739 233.067 241.685 232.937L240.764 231.263L239.844 232.937C239.789 233.07 239.698 233.185 239.582 233.268C239.467 233.351 239.33 233.398 239.189 233.404Z" fill="black"/>
  <path d="M249.416 233.404C249.329 233.404 249.243 233.386 249.163 233.35C249.083 233.315 249.01 233.264 248.95 233.199C248.885 233.132 248.833 233.052 248.799 232.964C248.764 232.876 248.748 232.781 248.751 232.686C248.751 232.526 248.793 232.369 248.873 232.231L249.871 230.637H247.83C247.736 230.642 247.641 230.626 247.553 230.591C247.465 230.556 247.386 230.501 247.32 230.432C247.206 230.296 247.143 230.122 247.143 229.942C247.143 229.763 247.206 229.589 247.32 229.453C247.386 229.384 247.465 229.329 247.553 229.294C247.641 229.259 247.736 229.243 247.83 229.248L249.838 229.305L248.895 227.768C248.806 227.616 248.756 227.444 248.751 227.267C248.748 227.172 248.764 227.078 248.799 226.989C248.833 226.901 248.885 226.821 248.95 226.754C249.012 226.689 249.087 226.638 249.169 226.602C249.251 226.567 249.338 226.549 249.427 226.55C249.551 226.548 249.674 226.583 249.778 226.652C249.883 226.721 249.965 226.82 250.015 226.937L250.991 228.724L251.923 227.016C251.982 226.883 252.075 226.77 252.192 226.687C252.31 226.605 252.447 226.557 252.589 226.55C252.676 226.55 252.762 226.568 252.842 226.603C252.922 226.638 252.994 226.69 253.054 226.754C253.119 226.817 253.171 226.893 253.205 226.977C253.24 227.062 253.256 227.153 253.254 227.244C253.253 227.406 253.207 227.564 253.121 227.699L252.145 229.305L254.175 229.248C254.269 229.242 254.364 229.258 254.452 229.293C254.54 229.328 254.619 229.383 254.685 229.453C254.799 229.589 254.862 229.763 254.862 229.942C254.862 230.122 254.799 230.296 254.685 230.432C254.619 230.502 254.54 230.557 254.452 230.592C254.364 230.627 254.269 230.643 254.175 230.637H252.123L253.032 232.094C253.135 232.27 253.192 232.47 253.199 232.675C253.202 232.767 253.187 232.859 253.154 232.945C253.122 233.031 253.073 233.11 253.01 233.176C252.952 233.24 252.881 233.291 252.803 233.326C252.725 233.361 252.641 233.38 252.555 233.381C252.418 233.378 252.285 233.334 252.171 233.255C252.057 233.177 251.967 233.066 251.912 232.937L250.991 231.263L250.071 232.937C250.016 233.07 249.925 233.185 249.81 233.268C249.694 233.351 249.557 233.398 249.416 233.404Z" fill="black"/>
  <path d="M259.554 233.404C259.467 233.404 259.381 233.386 259.301 233.35C259.221 233.315 259.149 233.264 259.089 233.199C259.023 233.132 258.971 233.052 258.937 232.964C258.903 232.876 258.886 232.781 258.889 232.686C258.894 232.527 258.936 232.371 259.011 232.231L260.009 230.637H257.968C257.874 230.642 257.78 230.626 257.692 230.591C257.604 230.556 257.524 230.501 257.458 230.432C257.344 230.296 257.281 230.122 257.281 229.942C257.281 229.763 257.344 229.589 257.458 229.453C257.524 229.384 257.604 229.329 257.692 229.294C257.78 229.259 257.874 229.243 257.968 229.248L259.976 229.305L259.033 227.768C258.944 227.616 258.894 227.444 258.889 227.267C258.886 227.172 258.903 227.078 258.937 226.989C258.971 226.901 259.023 226.821 259.089 226.754C259.151 226.689 259.225 226.638 259.307 226.603C259.389 226.567 259.477 226.549 259.565 226.55C259.69 226.548 259.812 226.583 259.916 226.652C260.021 226.721 260.103 226.82 260.153 226.937L261.129 228.724L262.061 227.016C262.12 226.883 262.213 226.77 262.33 226.687C262.448 226.605 262.585 226.557 262.727 226.55C262.814 226.548 262.901 226.566 262.981 226.601C263.061 226.636 263.133 226.689 263.193 226.754C263.258 226.817 263.309 226.893 263.343 226.977C263.378 227.062 263.395 227.153 263.392 227.244C263.391 227.406 263.345 227.564 263.259 227.699L262.283 229.305L264.313 229.248C264.407 229.242 264.502 229.258 264.59 229.293C264.678 229.328 264.758 229.383 264.823 229.453C264.937 229.589 265 229.763 265 229.942C265 230.122 264.937 230.296 264.823 230.432C264.758 230.502 264.678 230.557 264.59 230.592C264.502 230.627 264.407 230.643 264.313 230.637H262.261L263.17 232.094C263.273 232.27 263.33 232.47 263.337 232.675C263.34 232.767 263.325 232.859 263.293 232.945C263.26 233.031 263.211 233.11 263.148 233.176C263.09 233.24 263.019 233.291 262.941 233.326C262.863 233.361 262.779 233.38 262.694 233.381C262.556 233.378 262.423 233.334 262.309 233.255C262.195 233.177 262.105 233.066 262.05 232.937L261.129 231.263L260.209 232.937C260.154 233.07 260.064 233.185 259.948 233.268C259.832 233.351 259.695 233.398 259.554 233.404Z" fill="black"/>
  <path d="M269.737 233.404C269.65 233.404 269.564 233.386 269.484 233.35C269.404 233.315 269.331 233.264 269.271 233.199C269.206 233.132 269.154 233.052 269.12 232.964C269.086 232.876 269.069 232.781 269.072 232.686C269.077 232.527 269.119 232.371 269.194 232.231L270.192 230.637H268.162C268.066 230.643 267.97 230.628 267.88 230.592C267.79 230.557 267.708 230.502 267.641 230.432C267.527 230.296 267.464 230.122 267.464 229.942C267.464 229.763 267.527 229.589 267.641 229.453C267.708 229.383 267.79 229.328 267.88 229.293C267.97 229.257 268.066 229.242 268.162 229.248L270.159 229.305L269.216 227.768C269.127 227.616 269.077 227.444 269.072 227.267C269.069 227.172 269.086 227.078 269.12 226.989C269.154 226.901 269.206 226.821 269.271 226.754C269.334 226.689 269.408 226.638 269.49 226.603C269.572 226.567 269.66 226.549 269.748 226.55C269.873 226.548 269.995 226.583 270.099 226.652C270.204 226.721 270.286 226.82 270.336 226.937L271.312 228.724L272.244 227.016C272.303 226.883 272.396 226.77 272.513 226.687C272.631 226.605 272.768 226.557 272.91 226.55C272.997 226.548 273.084 226.566 273.164 226.601C273.244 226.636 273.316 226.689 273.376 226.754C273.441 226.817 273.492 226.893 273.526 226.977C273.561 227.062 273.577 227.153 273.575 227.244C273.574 227.406 273.528 227.564 273.442 227.699L272.466 229.305L274.496 229.248C274.59 229.242 274.685 229.258 274.773 229.293C274.861 229.328 274.941 229.383 275.006 229.453C275.12 229.589 275.183 229.763 275.183 229.942C275.183 230.122 275.12 230.296 275.006 230.432C274.941 230.502 274.861 230.557 274.773 230.592C274.685 230.627 274.59 230.643 274.496 230.637H272.444L273.353 232.094C273.456 232.27 273.513 232.47 273.52 232.675C273.523 232.767 273.508 232.859 273.475 232.945C273.443 233.031 273.394 233.11 273.331 233.176C273.273 233.24 273.202 233.291 273.124 233.326C273.046 233.361 272.962 233.38 272.876 233.381C272.739 233.378 272.606 233.334 272.492 233.255C272.378 233.177 272.288 233.066 272.233 232.937L271.312 231.263L270.392 232.937C270.337 233.07 270.246 233.185 270.131 233.268C270.015 233.351 269.878 233.398 269.737 233.404Z" fill="black"/>
  <path d="M279.92 233.404C279.833 233.404 279.746 233.386 279.666 233.35C279.586 233.315 279.514 233.264 279.454 233.199C279.388 233.132 279.337 233.052 279.302 232.964C279.268 232.876 279.252 232.781 279.254 232.686C279.254 232.526 279.296 232.369 279.376 232.231L280.375 230.637H278.334C278.239 230.642 278.145 230.626 278.057 230.591C277.969 230.556 277.889 230.501 277.823 230.432C277.709 230.296 277.647 230.122 277.647 229.942C277.647 229.763 277.709 229.589 277.823 229.453C277.889 229.384 277.969 229.329 278.057 229.294C278.145 229.259 278.239 229.243 278.334 229.248L280.341 229.305L279.365 227.825C279.276 227.673 279.227 227.501 279.221 227.324C279.218 227.229 279.235 227.134 279.269 227.046C279.304 226.958 279.355 226.878 279.421 226.811C279.483 226.746 279.557 226.695 279.639 226.659C279.721 226.624 279.809 226.606 279.898 226.606C280.022 226.605 280.144 226.64 280.248 226.709C280.353 226.778 280.435 226.877 280.486 226.994L281.462 228.781L282.393 227.073C282.452 226.94 282.545 226.827 282.663 226.744C282.78 226.662 282.917 226.614 283.059 226.606C283.146 226.605 283.233 226.623 283.313 226.658C283.393 226.693 283.466 226.746 283.525 226.811C283.59 226.874 283.641 226.95 283.676 227.034C283.71 227.119 283.727 227.21 283.724 227.301C283.723 227.463 283.677 227.621 283.591 227.756L282.615 229.362L284.645 229.305C284.74 229.299 284.834 229.315 284.922 229.35C285.01 229.385 285.09 229.44 285.155 229.51C285.269 229.646 285.332 229.82 285.332 229.999C285.332 230.179 285.269 230.353 285.155 230.489C285.09 230.559 285.01 230.614 284.922 230.649C284.834 230.684 284.74 230.7 284.645 230.694H282.593L283.503 232.151C283.605 232.327 283.663 232.527 283.669 232.732C283.672 232.824 283.657 232.916 283.625 233.002C283.592 233.088 283.543 233.167 283.48 233.233C283.422 233.297 283.352 233.348 283.274 233.383C283.195 233.418 283.111 233.437 283.026 233.438C282.888 233.434 282.755 233.391 282.641 233.312C282.527 233.234 282.437 233.123 282.382 232.994L281.462 231.32L280.541 232.994C280.481 233.112 280.393 233.212 280.284 233.284C280.175 233.356 280.049 233.397 279.92 233.404Z" fill="black"/>
  <path d="M290.103 233.404C290.015 233.404 289.929 233.386 289.849 233.35C289.769 233.315 289.697 233.264 289.637 233.199C289.571 233.132 289.519 233.052 289.485 232.964C289.451 232.876 289.434 232.781 289.437 232.686C289.442 232.527 289.484 232.371 289.559 232.231L290.557 230.637H288.527C288.433 230.644 288.338 230.63 288.25 230.594C288.161 230.559 288.082 230.503 288.017 230.432C287.896 230.299 287.829 230.124 287.829 229.942C287.829 229.761 287.896 229.586 288.017 229.453C288.082 229.382 288.161 229.326 288.25 229.291C288.338 229.255 288.433 229.241 288.527 229.248L290.524 229.305L289.581 227.768C289.492 227.616 289.443 227.444 289.437 227.267C289.434 227.174 289.449 227.081 289.482 226.994C289.515 226.907 289.564 226.828 289.627 226.761C289.69 226.694 289.766 226.641 289.849 226.604C289.933 226.568 290.023 226.549 290.114 226.55C290.238 226.548 290.36 226.583 290.464 226.652C290.569 226.721 290.651 226.82 290.702 226.937L291.678 228.724L292.609 227.016C292.668 226.883 292.761 226.77 292.879 226.687C292.996 226.605 293.133 226.557 293.275 226.55C293.362 226.547 293.45 226.564 293.53 226.599C293.611 226.634 293.682 226.687 293.741 226.754C293.806 226.817 293.857 226.893 293.892 226.977C293.926 227.062 293.943 227.153 293.94 227.244C293.939 227.406 293.893 227.564 293.807 227.699L292.831 229.305L294.861 229.248C294.956 229.242 295.05 229.258 295.138 229.293C295.226 229.328 295.306 229.383 295.371 229.453C295.485 229.589 295.548 229.763 295.548 229.942C295.548 230.122 295.485 230.296 295.371 230.432C295.306 230.502 295.226 230.557 295.138 230.592C295.05 230.627 294.956 230.643 294.861 230.637H292.809L293.719 232.094C293.821 232.27 293.878 232.47 293.885 232.675C293.888 232.765 293.874 232.854 293.843 232.938C293.812 233.022 293.766 233.099 293.706 233.165C293.646 233.23 293.574 233.283 293.495 233.32C293.415 233.357 293.329 233.378 293.242 233.381C293.104 233.378 292.971 233.334 292.857 233.255C292.743 233.177 292.653 233.066 292.598 232.937L291.678 231.263L290.757 232.937C290.702 233.07 290.612 233.185 290.496 233.268C290.38 233.351 290.244 233.398 290.103 233.404Z" fill="black"/>
  <path d="M300.285 233.404C300.198 233.404 300.112 233.386 300.032 233.35C299.952 233.315 299.88 233.264 299.82 233.199C299.754 233.132 299.702 233.052 299.668 232.964C299.634 232.876 299.617 232.781 299.62 232.686C299.625 232.527 299.667 232.371 299.742 232.231L300.74 230.637H298.699C298.606 230.643 298.514 230.627 298.427 230.592C298.341 230.556 298.263 230.502 298.2 230.432C298.079 230.299 298.012 230.124 298.012 229.942C298.012 229.761 298.079 229.586 298.2 229.453C298.263 229.383 298.341 229.329 298.427 229.293C298.514 229.258 298.606 229.242 298.699 229.248L300.707 229.305L299.764 227.768C299.675 227.616 299.625 227.444 299.62 227.267C299.617 227.174 299.632 227.081 299.665 226.994C299.698 226.907 299.747 226.828 299.81 226.761C299.873 226.694 299.949 226.641 300.032 226.604C300.116 226.568 300.206 226.549 300.296 226.55C300.421 226.548 300.543 226.583 300.647 226.652C300.752 226.721 300.834 226.82 300.884 226.937L301.861 228.724L302.792 227.016C302.851 226.883 302.944 226.77 303.061 226.687C303.179 226.605 303.316 226.557 303.458 226.55C303.545 226.547 303.632 226.564 303.713 226.599C303.793 226.634 303.865 226.687 303.924 226.754C303.989 226.817 304.04 226.893 304.074 226.977C304.109 227.062 304.126 227.153 304.123 227.244C304.122 227.406 304.076 227.564 303.99 227.699L303.014 229.305L305.044 229.248C305.138 229.242 305.233 229.258 305.321 229.293C305.409 229.328 305.489 229.383 305.554 229.453C305.668 229.589 305.731 229.763 305.731 229.942C305.731 230.122 305.668 230.296 305.554 230.432C305.489 230.502 305.409 230.557 305.321 230.592C305.233 230.627 305.138 230.643 305.044 230.637H302.992L303.901 232.094C304.004 232.27 304.061 232.47 304.068 232.675C304.071 232.765 304.057 232.854 304.026 232.938C303.995 233.022 303.949 233.099 303.889 233.165C303.829 233.23 303.757 233.283 303.678 233.32C303.598 233.357 303.512 233.378 303.425 233.381C303.287 233.378 303.154 233.334 303.04 233.255C302.926 233.177 302.836 233.066 302.781 232.937L301.861 231.263L300.94 232.937C300.885 233.07 300.795 233.185 300.679 233.268C300.563 233.351 300.426 233.398 300.285 233.404Z" fill="black"/>
  <path d="M310.424 233.404C310.336 233.404 310.25 233.386 310.17 233.35C310.09 233.315 310.018 233.264 309.958 233.199C309.892 233.132 309.841 233.052 309.806 232.964C309.772 232.876 309.755 232.781 309.758 232.686C309.763 232.527 309.805 232.371 309.88 232.231L310.878 230.637H308.837C308.745 230.643 308.652 230.627 308.566 230.592C308.479 230.556 308.402 230.502 308.338 230.432C308.217 230.299 308.15 230.124 308.15 229.942C308.15 229.761 308.217 229.586 308.338 229.453C308.402 229.383 308.479 229.329 308.566 229.293C308.652 229.258 308.745 229.242 308.837 229.248L310.845 229.305L309.902 227.768C309.813 227.616 309.764 227.444 309.758 227.267C309.755 227.172 309.772 227.078 309.806 226.989C309.841 226.901 309.892 226.821 309.958 226.754C310.02 226.689 310.094 226.638 310.176 226.602C310.258 226.567 310.346 226.549 310.435 226.55C310.559 226.548 310.681 226.583 310.785 226.652C310.89 226.721 310.972 226.82 311.023 226.937L311.999 228.724L312.93 227.016C312.989 226.883 313.082 226.77 313.2 226.687C313.317 226.605 313.454 226.557 313.596 226.55C313.683 226.547 313.771 226.564 313.851 226.599C313.932 226.634 314.004 226.687 314.062 226.754C314.127 226.817 314.178 226.893 314.213 226.977C314.247 227.062 314.264 227.153 314.261 227.244C314.26 227.406 314.214 227.564 314.128 227.699L313.152 229.305L315.182 229.248C315.277 229.242 315.371 229.258 315.459 229.293C315.547 229.328 315.627 229.383 315.692 229.453C315.806 229.589 315.869 229.763 315.869 229.942C315.869 230.122 315.806 230.296 315.692 230.432C315.627 230.502 315.547 230.557 315.459 230.592C315.371 230.627 315.277 230.643 315.182 230.637H313.13L314.04 232.094C314.142 232.27 314.2 232.47 314.206 232.675C314.209 232.767 314.194 232.859 314.162 232.945C314.129 233.031 314.08 233.11 314.017 233.176C313.959 233.24 313.889 233.291 313.81 233.326C313.732 233.361 313.648 233.38 313.563 233.381C313.425 233.378 313.292 233.334 313.178 233.255C313.064 233.177 312.974 233.066 312.919 232.937L311.999 231.263L311.078 232.937C311.023 233.07 310.933 233.185 310.817 233.268C310.701 233.351 310.565 233.398 310.424 233.404Z" fill="black"/>
  <path d="M345.32 258.589H358.886" stroke="white" stroke-width="3" stroke-linecap="round" stroke-linejoin="round"/>
  <path d="M157.162 156.06V248.547C157.162 251.225 158.198 253.794 160.043 255.688C161.888 257.582 164.391 258.646 167 258.646H332.442" stroke="white" stroke-width="3" stroke-linecap="round" stroke-linejoin="round"/>
  <path d="M157.162 131.535V145.403" stroke="white" stroke-width="3" stroke-linecap="round" stroke-linejoin="round"/>
  </svg>