<svg width="531" height="552" viewBox="0 0 531 552" fill="none" xmlns="http://www.w3.org/2000/svg">
  <g clip-path="url(#clip0_444_904)">
  <rect x="1.5" y="1.5" width="528" height="549" rx="28.5" fill="#F8F8F8" fill-opacity="0.6" stroke="#F8F8F8" stroke-width="3"/>
  <path d="M91.8499 142.66C82.9981 146.296 75.9499 153.295 72.2512 162.121C68.5525 170.947 68.5053 180.879 72.1199 189.74L94.5299 244.44L104.53 240.33L82.1299 185.62C79.5944 179.427 79.6229 172.481 82.209 166.309C84.7951 160.137 89.7271 155.245 95.9199 152.71C102.113 150.174 109.059 150.203 115.231 152.789C121.403 155.375 126.294 160.307 128.83 166.5L138.88 162.38C135.246 153.539 128.255 146.499 119.44 142.802C110.624 139.106 100.703 139.055 91.8499 142.66Z" fill="#6AE536"/>
  <g opacity="0.3">
  <path d="M91.8499 142.66C82.9981 146.296 75.9499 153.295 72.2512 162.121C68.5525 170.947 68.5053 180.879 72.1199 189.74L94.5299 244.44L104.53 240.33L82.1299 185.62C79.5944 179.427 79.6229 172.481 82.209 166.309C84.7951 160.137 89.7271 155.245 95.9199 152.71C102.113 150.174 109.059 150.203 115.231 152.789C121.403 155.375 126.294 160.307 128.83 166.5L138.88 162.38C135.246 153.539 128.255 146.499 119.44 142.802C110.624 139.106 100.703 139.055 91.8499 142.66Z" fill="black"/>
  </g>
  <path d="M157.615 190.19L78.3349 222.656C75.3654 223.872 73.944 227.265 75.1601 230.235L94.4118 277.245C95.6279 280.215 99.0209 281.636 101.99 280.42L181.27 247.954C184.239 246.738 185.661 243.345 184.445 240.375L165.193 193.364C163.977 190.395 160.584 188.974 157.615 190.19Z" fill="#6AE536"/>
  <g opacity="0.5">
  <path d="M134.23 224.7C133.662 223.297 132.713 222.08 131.49 221.187C130.268 220.294 128.82 219.76 127.311 219.645C125.801 219.53 124.29 219.839 122.946 220.537C121.603 221.235 120.481 222.295 119.707 223.596C118.933 224.897 118.538 226.388 118.566 227.902C118.594 229.416 119.044 230.891 119.865 232.163C120.687 233.435 121.847 234.452 123.215 235.1C124.584 235.748 126.106 236 127.61 235.83L132.21 247.08L136.32 245.4L131.71 234.15C133.102 233.065 134.102 231.554 134.557 229.848C135.012 228.142 134.897 226.335 134.23 224.7Z" fill="black"/>
  </g>
  <path d="M99.1598 275.18C98.9498 275.27 94.8398 265.7 89.9798 253.82C85.1198 241.94 81.3298 232.24 81.5398 232.15C81.7498 232.06 85.8598 241.63 90.7198 253.52C95.5798 265.41 99.3598 275.1 99.1598 275.18Z" fill="#FAFAFA"/>
  <path d="M124.76 239.85C124.394 239.875 124.027 239.828 123.68 239.71C122.709 239.452 121.783 239.051 120.93 238.52C119.483 237.667 118.242 236.504 117.298 235.115C116.353 233.725 115.728 232.144 115.467 230.484C115.206 228.825 115.316 227.128 115.788 225.516C116.261 223.904 117.084 222.416 118.2 221.16C118.839 220.378 119.598 219.703 120.45 219.16C121.05 218.79 121.45 218.65 121.45 218.69C120.447 219.547 119.511 220.48 118.65 221.48C117.659 222.706 116.936 224.127 116.528 225.65C116.12 227.173 116.036 228.765 116.281 230.322C116.526 231.88 117.094 233.369 117.95 234.693C118.806 236.017 119.93 237.147 121.25 238.01C122.372 238.711 123.545 239.326 124.76 239.85Z" fill="#FAFAFA"/>
  <path d="M60.9399 249.71L61.43 248.29L62.36 249.47C63.1079 250.399 64.1078 251.094 65.24 251.47L66.66 251.96L65.4799 252.89C64.5558 253.643 63.8626 254.641 63.4799 255.77L63 257.22L62 256.05C61.2455 255.123 60.2433 254.429 59.11 254.05L57.7 253.56L58.8699 252.63C59.8261 251.876 60.5447 250.862 60.9399 249.71Z" fill="#6AE536"/>
  <path d="M108.4 193.92L108.68 193.1L109.22 193.78C109.652 194.339 110.235 194.762 110.9 195L111.72 195.28L111.04 195.83C110.491 196.261 110.078 196.841 109.85 197.5L109.57 198.32L109 197.6C108.572 197.051 107.991 196.64 107.33 196.42L106.5 196.13L107.19 195.59C107.744 195.16 108.164 194.581 108.4 193.92Z" fill="#6AE536"/>
  <path d="M51.3299 200.87L52.1499 198.48L53.7199 200.48C54.9706 202.062 56.6511 203.249 58.5599 203.9L60.9399 204.72L58.9399 206.29C57.358 207.543 56.1678 209.222 55.5099 211.13L54.6899 213.51L53.1299 211.51C51.8798 209.925 50.1994 208.734 48.2899 208.08L45.9099 207.26L47.9099 205.7C49.4862 204.448 50.6726 202.773 51.3299 200.87Z" fill="#6AE536"/>
  <path d="M327.06 547.9L179.45 547.81C170.924 547.805 162.749 544.414 156.722 538.383C150.696 532.353 147.31 524.176 147.31 515.65L147.38 145.58C147.381 141.356 148.215 137.173 149.833 133.271C151.451 129.369 153.822 125.824 156.81 122.839C159.798 119.853 163.346 117.486 167.249 115.871C171.153 114.257 175.336 113.427 179.56 113.43L327.17 113.51C335.696 113.515 343.871 116.906 349.898 122.936C355.925 128.967 359.31 137.144 359.31 145.67L359.24 515.75C359.239 519.974 358.405 524.157 356.787 528.059C355.169 531.961 352.798 535.506 349.81 538.491C346.822 541.477 343.274 543.844 339.371 545.459C335.468 547.073 331.284 547.903 327.06 547.9Z" fill="#263238"/>
  <path d="M327 126.6H298.4C297.467 126.619 296.546 126.823 295.692 127.198C294.837 127.574 294.065 128.114 293.419 128.789C292.774 129.463 292.268 130.258 291.93 131.128C291.592 131.998 291.429 132.927 291.45 133.86V139C291.49 140.884 290.781 142.707 289.478 144.068C288.174 145.43 286.384 146.218 284.5 146.26H228.72C227.782 146.244 226.857 146.044 225.997 145.669C225.137 145.295 224.36 144.755 223.71 144.079C223.059 143.404 222.549 142.606 222.207 141.733C221.866 140.86 221.7 139.927 221.72 138.99V133.81C221.741 132.876 221.578 131.947 221.241 131.077C220.903 130.206 220.397 129.41 219.751 128.735C219.106 128.06 218.334 127.519 217.479 127.142C216.624 126.765 215.704 126.561 214.77 126.54H179.7C173.735 126.537 168.013 128.9 163.787 133.111C159.562 137.321 157.179 143.035 157.16 149L157.09 510.22C157.09 516.191 159.461 521.917 163.683 526.14C167.904 530.363 173.629 532.737 179.6 532.74L326.92 532.83C329.879 532.833 332.809 532.252 335.543 531.121C338.277 529.991 340.761 528.332 342.854 526.24C344.946 524.149 346.606 521.665 347.738 518.932C348.869 516.198 349.451 513.268 349.45 510.31L349.52 149.1C349.515 143.131 347.14 137.408 342.917 133.189C338.694 128.97 332.969 126.6 327 126.6Z" fill="white"/>
  <path d="M239.63 505.25C239.636 505.81 239.476 506.359 239.17 506.827C238.864 507.296 238.426 507.663 237.911 507.883C237.396 508.102 236.828 508.165 236.278 508.061C235.727 507.958 235.22 507.694 234.82 507.302C234.42 506.911 234.146 506.409 234.031 505.861C233.916 505.314 233.966 504.744 234.174 504.225C234.383 503.705 234.741 503.26 235.203 502.944C235.665 502.628 236.21 502.456 236.77 502.45C237.52 502.445 238.241 502.736 238.777 503.261C239.313 503.785 239.62 504.5 239.63 505.25Z" fill="#263238"/>
  <path d="M255.47 505.12C255.476 505.68 255.316 506.229 255.009 506.698C254.703 507.167 254.264 507.534 253.749 507.754C253.233 507.973 252.664 508.035 252.114 507.93C251.564 507.826 251.057 507.561 250.657 507.169C250.257 506.776 249.983 506.274 249.869 505.725C249.756 505.177 249.807 504.607 250.017 504.088C250.227 503.569 250.587 503.123 251.05 502.809C251.514 502.494 252.06 502.324 252.62 502.32C253.369 502.315 254.089 502.606 254.624 503.131C255.158 503.656 255.462 504.371 255.47 505.12Z" fill="#263238"/>
  <path d="M271.32 505C271.326 505.56 271.165 506.109 270.859 506.578C270.553 507.047 270.114 507.415 269.598 507.634C269.083 507.853 268.514 507.915 267.964 507.811C267.413 507.706 266.906 507.441 266.507 507.049C266.107 506.656 265.833 506.154 265.719 505.605C265.605 505.057 265.657 504.487 265.867 503.968C266.077 503.449 266.437 503.004 266.9 502.689C267.364 502.374 267.91 502.204 268.47 502.2C269.219 502.195 269.939 502.486 270.473 503.011C271.008 503.536 271.312 504.251 271.32 505Z" fill="#263238"/>
  <path d="M327.88 163.08C327.88 163.16 324.15 163.26 319.56 163.3C314.97 163.34 311.25 163.3 311.25 163.21C311.25 163.12 315 163 319.56 163C324.12 163 327.87 163 327.88 163.08Z" fill="#263238"/>
  <path d="M327.91 167.33C327.91 167.42 324.19 167.52 319.6 167.56C315.01 167.6 311.28 167.56 311.28 167.47C311.28 167.38 315 167.28 319.6 167.24C324.2 167.2 327.91 167.24 327.91 167.33Z" fill="#263238"/>
  <path d="M328 171.58C328 171.67 324.27 171.77 319.68 171.81C315.09 171.85 311.37 171.81 311.37 171.72C311.37 171.63 315.09 171.54 319.68 171.5C324.27 171.46 327.94 171.5 328 171.58Z" fill="#263238"/>
  <path d="M176.65 176.44H176.99H177.99L181.55 176.36L181.46 176.45C181.46 175.67 181.46 174.81 181.46 173.88C181.435 173.387 181.435 172.893 181.46 172.4C181.513 172.118 181.655 171.86 181.866 171.665C182.077 171.471 182.345 171.35 182.63 171.32C183.2 171.32 183.71 171.32 184.33 171.32C184.653 171.368 184.947 171.531 185.158 171.78C185.369 172.028 185.484 172.344 185.48 172.67C185.48 173.87 185.48 175.13 185.48 176.43L185.33 176.28H189.81L189.66 176.43C189.66 174.63 189.66 172.76 189.66 170.85C189.66 170.38 189.66 169.85 189.66 169.43C189.652 169.224 189.59 169.024 189.48 168.85C189.34 168.674 189.187 168.51 189.02 168.36C188.36 167.71 187.71 167.06 187.02 166.43L185.13 164.57C184.83 164.26 184.52 163.96 184.22 163.66C183.92 163.36 183.66 163.04 183.28 162.97C183.109 162.928 182.931 162.925 182.758 162.959C182.585 162.994 182.422 163.066 182.28 163.17C182.01 163.4 181.72 163.72 181.45 163.99L179.84 165.61C178.84 166.61 177.78 167.61 177.01 168.53C176.788 169.06 176.712 169.64 176.79 170.21C176.79 170.77 176.79 171.29 176.79 171.79C176.79 172.79 176.79 173.61 176.79 174.33C176.79 175.05 176.79 175.53 176.79 175.96C176.79 176.39 176.79 176.54 176.79 176.54C176.79 176.54 176.79 176.36 176.79 176C176.79 175.64 176.79 175 176.79 174.4C176.79 173.8 176.79 172.82 176.74 171.84C176.74 171.33 176.74 170.84 176.74 170.23C176.74 169.94 176.74 169.65 176.74 169.35C176.739 169.023 176.825 168.702 176.99 168.42C177.82 167.42 178.81 166.51 179.83 165.42L181.42 163.79C181.71 163.51 181.95 163.22 182.28 162.93C182.462 162.794 182.673 162.701 182.897 162.657C183.12 162.614 183.35 162.622 183.57 162.68C183.987 162.83 184.354 163.093 184.63 163.44L185.55 164.34L187.45 166.2L189.45 168.13C189.634 168.293 189.802 168.474 189.95 168.67C190.09 168.892 190.17 169.147 190.18 169.41C190.18 169.89 190.18 170.41 190.18 170.84C190.18 172.75 190.18 174.62 190.18 176.42V176.57H190.02H185.54H185.4V176.42C185.4 175.12 185.4 173.87 185.4 172.67C185.404 172.406 185.314 172.149 185.145 171.945C184.976 171.742 184.741 171.605 184.48 171.56C183.96 171.56 183.35 171.56 182.85 171.56C182.611 171.579 182.384 171.675 182.203 171.833C182.023 171.992 181.899 172.205 181.85 172.44C181.85 172.9 181.85 173.44 181.85 173.87C181.85 174.8 181.85 175.66 181.85 176.45V176.54H181.76H178.15H177C176.88 176.52 176.763 176.486 176.65 176.44Z" fill="#263238"/>
  <path d="M214.47 262.2C214.47 265.67 211.87 267.83 207.71 267.83H204.58V272.11H201V256.56H207.73C211.87 256.56 214.47 258.72 214.47 262.2ZM210.82 262.2C210.82 260.49 209.71 259.49 207.51 259.49H204.58V264.89H207.51C209.71 264.89 210.82 263.89 210.82 262.2Z" fill="#263238"/>
  <path d="M227.24 265.29V272.11H224V270.62C223.599 271.199 223.049 271.66 222.409 271.953C221.768 272.247 221.061 272.363 220.36 272.29C217.56 272.29 215.89 270.74 215.89 268.67C215.89 266.6 217.38 265.09 221.02 265.09H223.78C223.78 263.6 222.89 262.74 221.02 262.74C219.784 262.729 218.577 263.118 217.58 263.85L216.33 261.43C217.868 260.444 219.664 259.939 221.49 259.98C225.13 260 227.24 261.67 227.24 265.29ZM223.78 268.34V267.12H221.4C219.78 267.12 219.27 267.71 219.27 268.51C219.27 269.31 220 270 221.22 270C221.769 270.036 222.314 269.894 222.776 269.595C223.237 269.296 223.589 268.856 223.78 268.34Z" fill="#263238"/>
  <path d="M229.22 271L230.38 268.51C231.634 269.263 233.067 269.664 234.53 269.67C236.13 269.67 236.73 269.25 236.73 268.58C236.73 266.58 229.51 268.58 229.51 263.85C229.51 261.58 231.51 259.98 235.04 259.98C236.636 259.948 238.216 260.309 239.64 261.03L238.49 263.49C237.436 262.901 236.247 262.594 235.04 262.6C233.49 262.6 232.82 263.09 232.82 263.72C232.82 265.72 240.04 263.78 240.04 268.49C240.04 270.71 237.97 272.29 234.4 272.29C232.589 272.327 230.802 271.882 229.22 271Z" fill="#263238"/>
  <path d="M241 271L242.15 268.51C243.408 269.262 244.845 269.662 246.31 269.67C247.91 269.67 248.51 269.25 248.51 268.58C248.51 266.58 241.29 268.58 241.29 263.85C241.29 261.58 243.29 259.98 246.82 259.98C248.416 259.95 249.995 260.31 251.42 261.03L250.26 263.49C249.211 262.898 248.025 262.591 246.82 262.6C245.26 262.6 244.6 263.09 244.6 263.72C244.6 265.72 251.82 263.78 251.82 268.49C251.82 270.71 249.75 272.29 246.18 272.29C244.369 272.328 242.581 271.883 241 271Z" fill="#263238"/>
  <path d="M272.94 260.16L268.61 272.16H265.28L262.59 264.74L259.81 272.16H256.48L252.17 260.16H255.44L258.26 268.25L261.19 260.16H264.12L266.97 268.25L269.88 260.16H272.94Z" fill="#263238"/>
  <path d="M273.35 266.14C273.35 262.54 276.12 259.98 279.92 259.98C283.72 259.98 286.48 262.54 286.48 266.14C286.48 269.74 283.72 272.29 279.92 272.29C276.12 272.29 273.35 269.74 273.35 266.14ZM282.97 266.14C282.922 265.547 282.701 264.982 282.337 264.512C281.972 264.043 281.478 263.69 280.916 263.496C280.354 263.303 279.747 263.278 279.171 263.423C278.594 263.569 278.073 263.879 277.67 264.316C277.267 264.754 277 265.299 276.902 265.885C276.804 266.472 276.879 267.074 277.118 267.618C277.356 268.163 277.749 268.626 278.246 268.951C278.744 269.277 279.326 269.45 279.92 269.45C280.348 269.464 280.774 269.386 281.17 269.221C281.565 269.056 281.921 268.809 282.213 268.495C282.504 268.182 282.726 267.809 282.861 267.403C282.997 266.997 283.045 266.566 283 266.14H282.97Z" fill="#263238"/>
  <path d="M296.21 260V263.2C295.92 263.2 295.7 263.2 295.43 263.2C293.52 263.2 292.25 264.2 292.25 266.53V272.17H288.79V260.17H292.1V261.75C292.592 261.147 293.223 260.673 293.939 260.368C294.655 260.063 295.434 259.937 296.21 260Z" fill="#263238"/>
  <path d="M310.34 255.63V272.11H307V270.74C306.537 271.264 305.96 271.677 305.314 271.945C304.668 272.214 303.969 272.332 303.27 272.29C301.681 272.226 300.177 271.549 299.076 270.402C297.974 269.255 297.358 267.726 297.358 266.135C297.358 264.544 297.974 263.015 299.076 261.868C300.177 260.72 301.681 260.044 303.27 259.98C303.935 259.947 304.599 260.06 305.215 260.31C305.832 260.561 306.386 260.943 306.84 261.43V255.63H310.34ZM306.94 266.14C306.891 265.545 306.67 264.978 306.302 264.507C305.935 264.037 305.439 263.684 304.874 263.493C304.309 263.301 303.7 263.278 303.122 263.428C302.545 263.578 302.024 263.893 301.623 264.335C301.222 264.777 300.96 265.327 300.867 265.916C300.775 266.506 300.857 267.11 301.103 267.653C301.349 268.197 301.749 268.656 302.253 268.975C302.757 269.295 303.343 269.46 303.94 269.45C304.361 269.452 304.779 269.366 305.164 269.196C305.55 269.026 305.896 268.777 306.179 268.465C306.462 268.152 306.676 267.784 306.807 267.383C306.938 266.983 306.984 266.559 306.94 266.14Z" fill="#263238"/>
  <path d="M337 285C337 285.14 300 285.26 254.31 285.26C208.62 285.26 171.6 285.14 171.6 285C171.6 284.86 208.6 284.74 254.31 284.74C300.02 284.74 337 284.83 337 285Z" fill="#E0E0E0"/>
  <path d="M333.15 437.23C333.15 437.38 296.15 437.49 250.45 437.49C204.75 437.49 167.75 437.38 167.75 437.23C167.75 437.08 204.75 436.97 250.45 436.97C296.15 436.97 333.15 437.09 333.15 437.23Z" fill="#E0E0E0"/>
  <path d="M295.74 448.67C295.74 448.81 275.17 448.93 249.8 448.93C224.43 448.93 203.86 448.81 203.86 448.67C203.86 448.53 224.42 448.41 249.8 448.41C275.18 448.41 295.74 448.52 295.74 448.67Z" fill="#E0E0E0"/>
  <path d="M186.5 329.3L189.63 330.99L188.22 333.35L185.06 331.48L185.12 334.96H182.42V331.45L179.25 333.35L177.9 331L181 329.3L177.86 327.57L179.24 325.22L182.41 327.11V323.61H185.11L185.05 327.11L188.21 325.22L189.62 327.57L186.5 329.3Z" fill="#6AE536"/>
  <path d="M222.42 329.3L225.55 330.99L224.14 333.35L221 331.48V335H218.29V331.49L215.13 333.39L213.82 331L217 329.3L213.87 327.57L215.25 325.22L218.41 327.11V323.61H221L220.94 327.11L224.1 325.22L225.51 327.57L222.42 329.3Z" fill="#6AE536"/>
  <path d="M257.38 329.3L260.51 330.99L259.1 333.35L255.94 331.48L256 335H253.3V331.49L250.13 333.39L248.78 331L251.92 329.31L248.78 327.58L250.16 325.23L253.33 327.12V323.62H256L255.94 327.12L259.1 325.23L260.51 327.58L257.38 329.3Z" fill="#6AE536"/>
  <path d="M291.25 329.3L294.38 330.99L293 333.35L289.84 331.48L289.9 334.96H287.2V331.45L284.04 333.35L282.65 331L285.79 329.31L282.65 327.58L284.03 325.23L287.19 327.12V323.62H289.89L289.83 327.12L292.99 325.23L294.4 327.58L291.25 329.3Z" fill="#6AE536"/>
  <path d="M324.85 329.3L328 331L326.59 333.36L323.43 331.49L323.48 334.97H320.78V331.46L317.62 333.36L316.26 331L319.39 329.31L316.26 327.58L317.64 325.23L320.8 327.12V323.62H323.5L323.45 327.12L326.61 325.23L328.02 327.58L324.85 329.3Z" fill="#6AE536"/>
  <path d="M192.07 351.08H176.92C175.046 351.077 173.249 350.332 171.924 349.006C170.598 347.681 169.853 345.884 169.85 344.01V317.11C169.853 315.237 170.599 313.441 171.924 312.117C173.25 310.793 175.047 310.05 176.92 310.05H192.07C193.943 310.05 195.74 310.793 197.066 312.117C198.391 313.441 199.137 315.237 199.14 317.11V344C199.14 345.876 198.396 347.675 197.07 349.003C195.744 350.33 193.946 351.077 192.07 351.08ZM176.92 310.55C175.179 310.55 173.51 311.241 172.278 312.471C171.046 313.701 170.353 315.369 170.35 317.11V344C170.353 345.742 171.046 347.411 172.277 348.643C173.509 349.874 175.178 350.567 176.92 350.57H192.07C193.813 350.57 195.484 349.878 196.716 348.646C197.948 347.414 198.64 345.742 198.64 344V317.1C198.637 315.359 197.944 313.691 196.712 312.461C195.48 311.231 193.811 310.54 192.07 310.54L176.92 310.55Z" fill="#263238"/>
  <path d="M227.26 351.08H212.11C211.178 351.084 210.254 350.904 209.391 350.55C208.529 350.196 207.745 349.675 207.084 349.017C206.424 348.359 205.899 347.577 205.542 346.716C205.184 345.855 205 344.932 205 344V317.1C205.003 315.227 205.749 313.431 207.074 312.107C208.4 310.783 210.197 310.04 212.07 310.04H227.22C229.093 310.04 230.89 310.783 232.216 312.107C233.541 313.431 234.287 315.227 234.29 317.1V344C234.29 345.869 233.551 347.662 232.234 348.989C230.917 350.315 229.129 351.067 227.26 351.08ZM212.11 310.55C210.369 310.55 208.7 311.241 207.468 312.471C206.236 313.701 205.543 315.369 205.54 317.11V344C205.543 345.742 206.236 347.411 207.467 348.643C208.699 349.874 210.368 350.567 212.11 350.57H227.26C229.002 350.57 230.674 349.878 231.906 348.646C233.138 347.414 233.83 345.742 233.83 344V317.1C233.827 315.359 233.134 313.691 231.902 312.461C230.67 311.231 229.001 310.54 227.26 310.54L212.11 310.55Z" fill="#263238"/>
  <path d="M261.49 351.08H246.33C244.456 351.077 242.659 350.332 241.334 349.006C240.008 347.681 239.263 345.884 239.26 344.01V317.11C239.263 315.237 240.009 313.441 241.334 312.117C242.66 310.793 244.457 310.05 246.33 310.05H261.49C263.362 310.053 265.156 310.797 266.479 312.121C267.803 313.444 268.547 315.238 268.55 317.11V344C268.551 344.928 268.37 345.848 268.016 346.706C267.662 347.565 267.142 348.345 266.486 349.002C265.831 349.66 265.052 350.181 264.195 350.538C263.338 350.894 262.418 351.079 261.49 351.08ZM246.33 310.55C244.589 310.55 242.92 311.241 241.688 312.471C240.456 313.701 239.763 315.369 239.76 317.11V344C239.763 345.742 240.456 347.411 241.687 348.643C242.919 349.874 244.588 350.567 246.33 350.57H261.49C263.231 350.567 264.899 349.874 266.129 348.642C267.359 347.41 268.05 345.741 268.05 344V317.1C268.05 315.36 267.359 313.692 266.129 312.461C264.898 311.231 263.23 310.54 261.49 310.54L246.33 310.55Z" fill="#263238"/>
  <path d="M296.1 351.08H280.94C279.066 351.077 277.269 350.332 275.944 349.006C274.618 347.681 273.873 345.884 273.87 344.01V317.11C273.873 315.237 274.619 313.441 275.944 312.117C277.27 310.793 279.067 310.05 280.94 310.05H296.1C297.972 310.053 299.766 310.797 301.089 312.121C302.413 313.444 303.157 315.238 303.16 317.11V344C303.161 344.928 302.98 345.848 302.626 346.706C302.272 347.565 301.752 348.345 301.096 349.002C300.441 349.66 299.662 350.181 298.805 350.538C297.948 350.894 297.029 351.079 296.1 351.08ZM280.94 310.55C279.199 310.55 277.53 311.241 276.298 312.471C275.066 313.701 274.373 315.369 274.37 317.11V344C274.373 345.742 275.066 347.411 276.297 348.643C277.529 349.874 279.198 350.567 280.94 350.57H296.1C297.841 350.567 299.509 349.874 300.739 348.642C301.969 347.41 302.66 345.741 302.66 344V317.1C302.66 315.36 301.969 313.692 300.739 312.461C299.509 311.231 297.84 310.54 296.1 310.54L280.94 310.55Z" fill="#263238"/>
  <path d="M329.7 351.08H314.55C312.676 351.077 310.879 350.332 309.554 349.006C308.228 347.681 307.483 345.884 307.48 344.01V317.11C307.483 315.237 308.229 313.441 309.554 312.117C310.88 310.793 312.677 310.05 314.55 310.05H329.7C331.573 310.05 333.37 310.793 334.696 312.117C336.021 313.441 336.767 315.237 336.77 317.11V344C336.77 345.876 336.025 347.675 334.7 349.003C333.374 350.33 331.576 351.077 329.7 351.08ZM314.55 310.55C312.809 310.55 311.14 311.241 309.908 312.471C308.676 313.701 307.983 315.369 307.98 317.11V344C307.98 345.742 308.672 347.414 309.904 348.646C311.136 349.878 312.807 350.57 314.55 350.57H329.7C331.442 350.567 333.111 349.874 334.343 348.643C335.574 347.411 336.267 345.742 336.27 344V317.1C336.267 315.359 335.574 313.691 334.342 312.461C333.11 311.231 331.441 310.54 329.7 310.54L314.55 310.55Z" fill="#263238"/>
  <path d="M328.59 383.56H181.38C175.145 383.56 170.09 388.615 170.09 394.85V402.01C170.09 408.245 175.145 413.3 181.38 413.3H328.59C334.825 413.3 339.88 408.245 339.88 402.01V394.85C339.88 388.615 334.825 383.56 328.59 383.56Z" fill="#6AE536"/>
  <path d="M233.55 392.45H238.12C241.41 392.45 243.67 394.45 243.67 397.45C243.67 400.45 241.41 402.45 238.12 402.45H233.55V392.45ZM238 400.6C238.828 400.6 239.621 400.271 240.206 399.686C240.791 399.101 241.12 398.307 241.12 397.48C241.12 396.652 240.791 395.859 240.206 395.274C239.621 394.689 238.828 394.36 238 394.36H235.87V400.6H238Z" fill="white"/>
  <path d="M244.69 398.65C244.638 397.798 244.843 396.95 245.278 396.217C245.714 395.483 246.359 394.896 247.132 394.534C247.904 394.171 248.768 394.049 249.61 394.183C250.453 394.316 251.236 394.7 251.858 395.284C252.48 395.868 252.913 396.626 253.099 397.459C253.286 398.291 253.218 399.161 252.904 399.954C252.591 400.748 252.047 401.429 251.342 401.91C250.637 402.391 249.803 402.648 248.95 402.65C248.403 402.685 247.855 402.608 247.339 402.423C246.824 402.238 246.351 401.949 245.952 401.574C245.553 401.199 245.234 400.746 245.017 400.243C244.8 399.74 244.689 399.198 244.69 398.65ZM250.92 398.65C250.92 398.119 250.709 397.611 250.334 397.236C249.959 396.861 249.451 396.65 248.92 396.65C248.39 396.65 247.881 396.861 247.506 397.236C247.131 397.611 246.92 398.119 246.92 398.65C246.92 399.18 247.131 399.689 247.506 400.064C247.881 400.439 248.39 400.65 248.92 400.65C249.451 400.65 249.959 400.439 250.334 400.064C250.709 399.689 250.92 399.18 250.92 398.65Z" fill="white"/>
  <path d="M262.59 398.09V402.51H260.35V398.43C260.35 397.18 259.77 396.61 258.78 396.61C257.79 396.61 256.93 397.27 256.93 398.69V402.51H254.69V394.78H256.83V395.69C257.163 395.354 257.563 395.091 258.004 394.919C258.445 394.747 258.917 394.669 259.39 394.69C261.21 394.67 262.59 395.73 262.59 398.09Z" fill="white"/>
  <path d="M272.24 399.28H266.39C266.512 399.76 266.802 400.18 267.208 400.465C267.613 400.749 268.107 400.879 268.6 400.83C268.958 400.846 269.315 400.787 269.649 400.658C269.983 400.529 270.286 400.332 270.54 400.08L271.74 401.38C271.332 401.809 270.835 402.143 270.284 402.359C269.733 402.575 269.141 402.667 268.55 402.63C265.87 402.63 264.13 400.95 264.13 398.63C264.12 398.091 264.221 397.555 264.426 397.056C264.632 396.558 264.938 396.107 265.325 395.732C265.713 395.357 266.173 395.065 266.678 394.876C267.183 394.686 267.721 394.602 268.26 394.63C268.792 394.604 269.324 394.69 269.821 394.882C270.318 395.074 270.769 395.368 271.146 395.744C271.522 396.121 271.816 396.572 272.008 397.069C272.2 397.566 272.286 398.098 272.26 398.63C272.28 398.85 272.25 399.09 272.24 399.28ZM266.36 398H270.17C270.097 397.548 269.865 397.136 269.516 396.839C269.167 396.543 268.723 396.38 268.265 396.38C267.807 396.38 267.364 396.543 267.015 396.839C266.666 397.136 266.434 397.548 266.36 398Z" fill="white"/>
  <path d="M253.31 241.57C269.906 241.57 283.36 228.116 283.36 211.52C283.36 194.924 269.906 181.47 253.31 181.47C236.714 181.47 223.26 194.924 223.26 211.52C223.26 228.116 236.714 241.57 253.31 241.57Z" fill="#6AE536"/>
  <path d="M248 206.05H247.5V203.25C247.5 201.696 248.117 200.205 249.216 199.106C250.315 198.007 251.806 197.39 253.36 197.39C254.914 197.39 256.405 198.007 257.504 199.106C258.603 200.205 259.22 201.696 259.22 203.25V205.53H258.72V203.25C258.72 201.828 258.155 200.465 257.15 199.46C256.145 198.455 254.782 197.89 253.36 197.89C251.938 197.89 250.575 198.455 249.57 199.46C248.565 200.465 248 201.828 248 203.25V206.05Z" fill="white"/>
  <path d="M260.76 225.65H245.86C245.206 225.647 244.579 225.386 244.116 224.924C243.654 224.461 243.393 223.834 243.39 223.18V208.27C243.393 207.616 243.654 206.989 244.116 206.526C244.579 206.064 245.206 205.803 245.86 205.8H260.76C261.414 205.803 262.041 206.064 262.504 206.526C262.966 206.989 263.228 207.616 263.23 208.27V223.18C263.228 223.834 262.966 224.461 262.504 224.924C262.041 225.386 261.414 225.647 260.76 225.65ZM245.86 206.3C245.33 206.3 244.821 206.511 244.446 206.886C244.071 207.261 243.86 207.769 243.86 208.3V223.21C243.86 223.74 244.071 224.249 244.446 224.624C244.821 224.999 245.33 225.21 245.86 225.21H260.76C261.291 225.21 261.799 224.999 262.174 224.624C262.549 224.249 262.76 223.74 262.76 223.21V208.27C262.76 207.739 262.549 207.231 262.174 206.856C261.799 206.481 261.291 206.27 260.76 206.27L245.86 206.3Z" fill="white"/>
  <path d="M253.38 216.21C252.917 216.21 252.465 216.073 252.08 215.816C251.695 215.558 251.395 215.193 251.218 214.765C251.041 214.338 250.995 213.867 251.085 213.413C251.175 212.959 251.398 212.543 251.725 212.215C252.053 211.888 252.47 211.665 252.924 211.575C253.377 211.485 253.848 211.531 254.276 211.708C254.703 211.885 255.069 212.185 255.326 212.57C255.583 212.955 255.72 213.407 255.72 213.87C255.72 214.491 255.474 215.086 255.035 215.525C254.596 215.963 254.001 216.21 253.38 216.21ZM253.38 212.04C253.016 212.04 252.66 212.148 252.357 212.351C252.054 212.553 251.818 212.841 251.679 213.178C251.54 213.515 251.504 213.885 251.576 214.243C251.648 214.6 251.824 214.928 252.083 215.185C252.341 215.441 252.67 215.616 253.027 215.686C253.385 215.756 253.755 215.718 254.091 215.577C254.427 215.436 254.714 215.199 254.915 214.895C255.116 214.591 255.222 214.234 255.22 213.87C255.224 213.626 255.179 213.383 255.089 213.157C254.998 212.93 254.863 212.723 254.692 212.549C254.521 212.375 254.316 212.237 254.091 212.143C253.866 212.048 253.624 212 253.38 212V212.04Z" fill="white"/>
  <path d="M253.56 215.86H253.06V220.08H253.56V215.86Z" fill="white"/>
  <path d="M462.31 526.77L443.44 483.24L421.79 497.14L444.75 536.93L456.26 531.77L462.31 526.77Z" fill="#FFBE9D"/>
  <path d="M461.89 524.34L462.51 525.58C462.51 525.58 487.66 523.43 489.89 527.29L448.25 548L441.92 533.86C449.54 533.66 456.18 530.76 461.89 524.34Z" fill="#6AE536"/>
  <g opacity="0.6">
  <path d="M448.34 536.21C448 536.53 447.79 536.964 447.752 537.43C447.713 537.895 447.848 538.358 448.13 538.73C448.438 539.082 448.869 539.302 449.334 539.345C449.8 539.388 450.264 539.25 450.63 538.96C450.989 538.62 451.209 538.159 451.248 537.665C451.287 537.172 451.142 536.682 450.84 536.29C450.486 535.951 450.015 535.761 449.525 535.761C449.035 535.761 448.564 535.951 448.21 536.29" fill="white"/>
  </g>
  <g opacity="0.6">
  <path d="M448.25 548L446.73 544.6L487.19 526C487.19 526 489.45 525.89 489.89 527.3L448.25 548Z" fill="white"/>
  </g>
  <path d="M462.72 525.62C462.81 525.83 461.84 526.42 461.17 527.62C460.5 528.82 460.38 529.89 460.17 529.9C459.96 529.91 459.66 528.59 460.5 527.21C461.34 525.83 462.67 525.41 462.72 525.62Z" fill="#263238"/>
  <path d="M468 525.25C468.15 525.43 467.44 526.25 467.18 527.41C466.92 528.57 467.18 529.63 466.96 529.72C466.74 529.81 466.05 528.72 466.41 527.23C466.77 525.74 467.88 525.06 468 525.25Z" fill="#263238"/>
  <path d="M473.07 529.24C472.9 529.38 472.07 528.5 472.07 527.13C472.07 525.76 472.77 524.84 472.94 524.97C473.11 525.1 472.82 525.97 472.86 527.11C472.9 528.25 473.26 529.12 473.07 529.24Z" fill="#263238"/>
  <path d="M426.82 534.33L427.54 486.88L402.09 490.64L406.63 536.36L419.25 536.39L426.82 534.33Z" fill="#FFBE9D"/>
  <path d="M427.43 531.94L427.5 533.32C427.5 533.32 451.3 541.72 451.74 546.15L405.26 547.89L405.31 532.4C412.34 535.34 419.59 535.43 427.43 531.94Z" fill="#6AE536"/>
  <g opacity="0.6">
  <path d="M410.2 537.17C409.758 537.325 409.389 537.637 409.163 538.046C408.936 538.455 408.867 538.934 408.97 539.39C409.107 539.838 409.41 540.216 409.818 540.446C410.225 540.677 410.705 540.743 411.16 540.63C411.63 540.467 412.022 540.136 412.261 539.699C412.499 539.263 412.567 538.753 412.45 538.27C412.253 537.823 411.892 537.469 411.441 537.283C410.99 537.097 410.484 537.092 410.03 537.27" fill="white"/>
  </g>
  <g opacity="0.6">
  <path d="M405.26 547.89V544.17L449.8 543.86C449.8 543.86 451.91 544.68 451.73 546.15L405.26 547.89Z" fill="white"/>
  </g>
  <path d="M427.66 533.44C427.66 533.67 426.53 533.82 425.44 534.59C424.35 535.36 423.8 536.33 423.58 536.25C423.36 536.17 423.66 534.85 424.99 533.94C426.32 533.03 427.7 533.23 427.66 533.44Z" fill="#263238"/>
  <path d="M432.61 535.28C432.67 535.49 431.71 535.92 430.97 536.91C430.23 537.9 430.05 538.91 429.82 538.91C429.59 538.91 429.41 537.63 430.34 536.41C431.27 535.19 432.6 535.06 432.61 535.28Z" fill="#263238"/>
  <path d="M435.6 541C435.4 541.05 435.04 539.93 435.6 538.67C436.16 537.41 437.18 536.87 437.29 537.05C437.4 537.23 436.76 537.93 436.29 538.97C435.82 540.01 435.83 541 435.6 541Z" fill="#263238"/>
  <path d="M408.51 340.89L407.56 303.53L371.2 305.44L370 309.86C368.045 316.704 366.456 323.647 365.24 330.66C362.8 346.31 363.09 360.55 369.24 377.28C375.39 394.01 385 425.82 385 425.82L421.07 525.45L463.07 511.64L408.51 340.89Z" fill="#263238"/>
  <path d="M430.5 302.32L433.67 312.67C438.33 315.67 445.86 330.37 446.55 336.39C447.24 342.41 448.55 363.02 447.18 387.18C446.01 407.05 436.18 523.35 436.18 523.35L396.44 525.45L400.58 337.39L402.33 303.81L430.5 302.32Z" fill="#263238"/>
  <path d="M362.4 334.1C362.843 334.288 363.306 334.426 363.78 334.51C365.053 334.794 366.347 334.968 367.65 335.03C371.989 335.264 376.314 334.375 380.209 332.448C384.103 330.521 387.434 327.621 389.88 324.03C390.624 322.957 391.27 321.819 391.81 320.63C392.033 320.205 392.204 319.755 392.32 319.29C392.22 319.24 391.47 321.16 389.56 323.81C387.075 327.269 383.781 330.067 379.965 331.958C376.149 333.849 371.927 334.777 367.67 334.66C365.905 334.563 364.146 334.376 362.4 334.1Z" fill="#455A64"/>
  <path d="M429 314.12C429.028 314.421 429.106 314.715 429.23 314.99C429.488 315.756 429.796 316.504 430.15 317.23C432.47 322.093 436.099 326.214 440.63 329.13C441.308 329.57 442.013 329.967 442.74 330.32C442.998 330.474 443.278 330.589 443.57 330.66C443.62 330.57 442.51 329.97 440.85 328.8C436.511 325.771 432.961 321.745 430.5 317.06C429.53 315.27 429.07 314.09 429 314.12Z" fill="#455A64"/>
  <path d="M410.27 345.88C410.27 345.88 410.37 346.13 410.54 346.65L411.27 348.94C411.91 350.94 412.84 353.94 414.03 357.75C416.41 365.43 419.85 376.51 424.1 390.2C432.72 417.56 443.67 455.67 458.35 496.92C460.03 501.86 461.697 506.737 463.35 511.55L463.43 511.81L463.18 511.89L421.18 525.68L420.95 525.76L420.87 525.53L396.72 458.53L389.85 439.34C389.06 437.12 388.46 435.4 388.04 434.23C387.84 433.657 387.69 433.217 387.59 432.91L387.44 432.46C387.44 432.46 387.51 432.6 387.62 432.9C387.73 433.2 387.9 433.64 388.12 434.2L390 439.28C391.63 443.75 394 450.28 397 458.43L421.32 525.33L421.02 525.18L463.02 511.36L462.85 511.69C461.21 506.877 459.543 502 457.85 497.06C443.17 455.8 432.28 417.68 423.75 390.29C419.57 376.57 416.19 365.47 413.84 357.79C412.69 353.95 411.79 350.98 411.18 348.94C410.88 347.94 410.65 347.17 410.5 346.64C410.35 346.11 410.27 345.88 410.27 345.88Z" fill="#455A64"/>
  <path d="M446 237.45C446 237.45 444.1 226.82 438.65 221.73C433.2 216.64 410.49 210.88 410.49 210.88C410.49 210.88 410.76 218.77 405.68 220.88C400.3 223.13 394.92 222.37 390.68 217.88C388.125 215.089 386.343 211.68 385.51 207.99C385.51 207.99 358.59 211.92 354.76 219.22C350.93 226.52 346.92 254.22 346.92 254.22L371.31 258.07L370.52 305.45L434.62 302.08L431 257.87L448.58 259.44L446 237.45Z" fill="#455A64"/>
  <path d="M376.17 259.4C376.208 259.048 376.208 258.692 376.17 258.34C376.17 257.65 376.11 256.66 376.04 255.43C375.91 252.99 375.7 249.61 375.42 245.88C375.14 242.15 374.87 238.77 374.64 236.33C374.52 235.11 374.42 234.12 374.34 233.44C374.324 233.083 374.26 232.73 374.15 232.39C374.099 232.741 374.099 233.099 374.15 233.45C374.15 234.14 374.21 235.13 374.28 236.35C374.41 238.8 374.62 242.18 374.9 245.91C375.18 249.64 375.45 253.02 375.68 255.46C375.79 256.68 375.9 257.67 375.98 258.35C375.989 258.708 376.053 259.062 376.17 259.4Z" fill="#263238"/>
  <path d="M435.86 236.77C435.71 236.77 434.46 241.6 433.06 247.64C432.123 251.267 431.369 254.938 430.8 258.64C431.916 255.066 432.85 251.438 433.6 247.77C434.536 244.143 435.29 240.472 435.86 236.77Z" fill="#263238"/>
  <path d="M357.34 217.42C357.34 217.52 358.5 217.67 360.34 218.25C362.675 219.008 364.86 220.166 366.8 221.67C368.728 223.192 370.381 225.032 371.69 227.11C372.69 228.72 373.11 229.82 373.21 229.78C373.175 229.503 373.097 229.233 372.98 228.98C372.72 228.265 372.402 227.573 372.03 226.91C369.513 222.496 365.349 219.26 360.45 217.91C359.721 217.702 358.974 217.558 358.22 217.48C357.933 217.405 357.634 217.385 357.34 217.42Z" fill="#263238"/>
  <path d="M439.16 223.87C438.65 224.94 438.312 226.084 438.16 227.26C437.84 228.395 437.702 229.572 437.75 230.75C438.239 229.679 438.559 228.539 438.7 227.37C439.037 226.235 439.192 225.054 439.16 223.87Z" fill="#263238"/>
  <path d="M351.24 254.93C351.24 254.93 360.4 291.24 361.39 294.34C362.38 297.44 364.16 305.82 373 307.1C384.94 308.84 431.24 304.75 431.24 304.75L421.91 294.13L380.72 284.89L373.72 258.49L351.24 254.93Z" fill="#FFBE9D"/>
  <path d="M422.35 287.9C422.193 288.167 422.091 288.463 422.05 288.77C421.848 289.579 421.734 290.407 421.71 291.24C421.609 294.021 422.333 296.769 423.79 299.14C424.569 300.448 425.528 301.64 426.64 302.68C427.563 303.529 428.653 304.177 429.84 304.58C430.639 304.837 431.471 304.978 432.31 305C432.616 305.034 432.925 305.007 433.22 304.92C432.12 304.783 431.036 304.546 429.98 304.21C428.863 303.779 427.843 303.13 426.98 302.3C425.931 301.27 425.017 300.111 424.26 298.85C422.866 296.555 422.119 293.925 422.1 291.24C422.09 289.18 422.45 287.92 422.35 287.9Z" fill="#EB996E"/>
  <path d="M375.88 250.57C375.511 250.572 375.142 250.536 374.78 250.46L371.78 250.03C369.28 249.67 365.78 249.26 361.99 248.76C358.714 248.362 355.459 247.798 352.24 247.07C351.01 246.77 350.02 246.5 349.35 246.28C349.003 246.192 348.668 246.065 348.35 245.9C348.35 245.81 349.89 246.21 352.35 246.7C354.81 247.19 358.27 247.7 362.09 248.23C365.91 248.76 369.38 249.23 371.87 249.65C373.12 249.88 374.12 250.09 374.81 250.26C375.18 250.311 375.54 250.416 375.88 250.57Z" fill="#6AE536"/>
  <path d="M374 238.48C373.69 238.537 373.374 238.553 373.06 238.53C372.45 238.53 371.57 238.53 370.48 238.45C368.31 238.34 365.31 238.1 362.01 237.69C358.71 237.28 355.74 236.77 353.61 236.34C352.54 236.12 351.68 235.93 351.09 235.78C350.776 235.739 350.472 235.644 350.19 235.5C351.363 235.574 352.529 235.731 353.68 235.97C355.82 236.3 358.79 236.75 362.07 237.16C365.35 237.57 368.34 237.87 370.51 238.07C371.682 238.122 372.848 238.259 374 238.48Z" fill="#6AE536"/>
  <path d="M371.91 229.28C370.963 229.389 370.007 229.389 369.06 229.28C364.48 228.966 359.952 228.117 355.57 226.75C354.647 226.514 353.751 226.178 352.9 225.75C353.84 225.889 354.766 226.107 355.67 226.4C357.36 226.84 359.72 227.4 362.34 227.9C364.96 228.4 367.34 228.71 369.1 228.9C370.045 228.952 370.985 229.079 371.91 229.28Z" fill="#6AE536"/>
  <path d="M389 216.17C387.957 216.594 386.88 216.929 385.78 217.17C383.78 217.69 380.99 218.33 377.9 218.95C374.81 219.57 371.98 220.04 369.9 220.34C368.799 220.555 367.682 220.672 366.56 220.69C367.631 220.372 368.724 220.131 369.83 219.97L377.75 218.43L385.66 216.8C386.755 216.503 387.872 216.292 389 216.17Z" fill="#6AE536"/>
  <path d="M438.69 227C438.297 226.908 437.914 226.774 437.55 226.6L434.49 225.34C431.92 224.28 428.36 222.81 424.4 221.26C420.44 219.71 416.83 218.38 414.21 217.42L411.12 216.28C410.728 216.163 410.352 215.998 410 215.79C410.403 215.843 410.798 215.941 411.18 216.08C411.94 216.29 413.01 216.63 414.34 217.08C416.99 217.95 420.63 219.23 424.6 220.78C428.57 222.33 432.11 223.85 434.6 225.01C435.87 225.59 436.89 226.07 437.6 226.42C437.985 226.571 438.35 226.765 438.69 227Z" fill="#6AE536"/>
  <path d="M435.86 236.32C435.651 236.319 435.443 236.296 435.24 236.25L433.46 235.97L426.96 234.83C421.47 233.83 413.88 232.54 405.44 231.52C401.22 231.03 397.19 230.68 393.51 230.46C389.83 230.24 386.51 230.19 383.74 230.24C382.35 230.24 381.09 230.3 379.98 230.33C378.87 230.36 377.93 230.4 377.15 230.46L375.36 230.55C375.151 230.574 374.939 230.574 374.73 230.55C374.932 230.494 375.14 230.46 375.35 230.45L377.13 230.26C377.91 230.17 378.86 230.09 379.97 230.04C381.08 229.99 382.34 229.88 383.73 229.87C386.52 229.78 389.85 229.82 393.54 229.98C397.23 230.14 401.27 230.51 405.54 230.98C413.99 231.98 421.54 233.39 427.06 234.45C429.79 234.98 432.06 235.45 433.53 235.75L435.29 236.14C435.487 236.176 435.678 236.236 435.86 236.32Z" fill="#6AE536"/>
  <path d="M410 252.66C409.544 252.702 409.086 252.702 408.63 252.66C407.74 252.61 406.47 252.5 404.89 252.34C401.75 252.01 397.41 251.44 392.66 250.57C387.91 249.7 383.66 248.71 380.59 247.91C379.06 247.5 377.83 247.16 376.99 246.91C376.544 246.8 376.109 246.649 375.69 246.46C376.148 246.491 376.601 246.575 377.04 246.71L380.68 247.56C383.76 248.27 388.02 249.2 392.76 250.07C397.5 250.94 401.81 251.56 404.94 251.98L408.65 252.48C409.105 252.492 409.558 252.552 410 252.66Z" fill="#6AE536"/>
  <path d="M431.75 253C428.368 253.294 424.974 253.414 421.58 253.36C418.193 253.475 414.802 253.418 411.42 253.19C414.798 252.889 418.189 252.769 421.58 252.83C424.97 252.704 428.365 252.76 431.75 253Z" fill="#6AE536"/>
  <path d="M403.18 267.36C402.809 267.394 402.436 267.377 402.07 267.31C401.37 267.25 400.34 267.12 399.07 266.94C396.55 266.58 393.07 265.94 389.3 265.09C385.53 264.24 382.14 263.21 379.73 262.42C378.52 262.02 377.55 261.68 376.88 261.42C376.531 261.312 376.195 261.165 375.88 260.98C376.249 261.011 376.612 261.091 376.96 261.22L379.85 262.06C382.28 262.76 385.66 263.68 389.43 264.57C393.2 265.46 396.64 266.12 399.14 266.57L402.14 267.11C402.496 267.15 402.845 267.234 403.18 267.36Z" fill="#6AE536"/>
  <path d="M426.73 268.4C425.659 268.507 424.58 268.507 423.51 268.4C421.51 268.33 418.78 268.13 415.77 267.74C412.76 267.35 410.05 266.84 408.11 266.41C407.05 266.227 406.012 265.939 405.01 265.55C406.081 265.632 407.144 265.796 408.19 266.04C410.14 266.38 412.84 266.82 415.84 267.21C418.84 267.6 421.56 267.86 423.53 268.03C424.604 268.078 425.673 268.201 426.73 268.4Z" fill="#6AE536"/>
  <path d="M421.82 281.46C421.694 281.539 421.555 281.597 421.41 281.63C421.14 281.71 420.74 281.85 420.21 281.99C418.73 282.389 417.227 282.699 415.71 282.92C410.694 283.619 405.608 283.662 400.58 283.05C395.562 282.444 390.588 281.512 385.69 280.26C383.81 279.8 382.3 279.4 381.25 279.11C380.699 278.995 380.16 278.827 379.64 278.61C380.2 278.672 380.754 278.772 381.3 278.91L385.78 279.91C390.681 281.045 395.638 281.923 400.63 282.54C405.613 283.127 410.647 283.127 415.63 282.54C417.54 282.3 419.08 282.01 420.14 281.78C420.692 281.633 421.253 281.526 421.82 281.46Z" fill="#6AE536"/>
  <path d="M444.93 243.93C443.253 244.202 441.558 244.339 439.86 244.34C438.162 244.52 436.447 244.48 434.76 244.22C436.436 243.948 438.132 243.811 439.83 243.81C441.528 243.63 443.242 243.67 444.93 243.93Z" fill="#6AE536"/>
  <path d="M443.58 231.75C441.731 231.991 439.852 231.869 438.05 231.39C439.899 231.162 441.775 231.285 443.58 231.75Z" fill="#6AE536"/>
  <path d="M401.24 268.23C401.19 268.14 402.29 267.59 403.79 266.35C404.657 265.619 405.453 264.809 406.17 263.93C407.918 261.76 409.146 259.218 409.76 256.5C410.003 255.389 410.14 254.257 410.17 253.12C410.22 251.18 409.96 249.98 410.06 249.96C410.184 250.222 410.266 250.502 410.3 250.79C410.378 251.119 410.432 251.453 410.46 251.79C410.513 252.232 410.543 252.675 410.55 253.12C410.573 254.288 410.469 255.455 410.24 256.6C409.663 259.413 408.395 262.039 406.55 264.24C405.798 265.134 404.949 265.942 404.02 266.65C403.669 266.925 403.302 267.179 402.92 267.41C402.639 267.595 402.345 267.758 402.04 267.9C401.794 268.054 401.523 268.166 401.24 268.23Z" fill="#263238"/>
  <g opacity="0.3">
  <path d="M409.81 258.49L405.92 264.27C403.289 267.559 399.612 269.849 395.5 270.76C397.302 271.392 399.238 271.539 401.115 271.186C402.992 270.834 404.743 269.994 406.193 268.751C407.642 267.508 408.74 265.905 409.374 264.104C410.009 262.304 410.16 260.367 409.81 258.49Z" fill="black"/>
  </g>
  <path d="M421.34 198.24C425.052 198.564 428.779 197.807 432.07 196.06C427.23 193.06 424.18 187.8 422.7 182.31C421.22 176.82 419.32 167.46 419.27 161.78L410.41 201.15C415.08 202.205 419.96 201.825 424.41 200.06C423.79 200.026 423.187 199.843 422.652 199.526C422.118 199.209 421.668 198.768 421.34 198.24Z" fill="#263238"/>
  <path d="M396.06 203C394.133 198.576 393.396 193.726 393.92 188.93L376.06 182.16C375.238 187.018 373.285 191.615 370.36 195.58C369.27 197.06 367.97 198.78 368.48 200.58C368.703 201.178 369.074 201.709 369.558 202.123C370.043 202.538 370.625 202.822 371.25 202.95C372.507 203.165 373.792 203.165 375.05 202.95L372.77 205.44C380.449 203.963 388.241 203.147 396.06 203Z" fill="#263238"/>
  <path d="M397.57 144.16C391.94 143.58 387.18 146.05 382.69 149.49C378.215 153.029 374.929 157.851 373.27 163.31C371.404 169.028 371.446 175.198 373.39 180.89C374.384 183.711 375.939 186.302 377.962 188.506C379.985 190.709 382.434 192.48 385.16 193.71C392.64 196.91 401.83 195.02 407.99 189.71C414.15 184.4 417.32 176.04 417.1 167.89C417.03 162.237 415.179 156.75 411.81 152.21C410.111 149.972 407.971 148.107 405.521 146.731C403.072 145.354 400.365 144.496 397.57 144.21" fill="#263238"/>
  <path d="M383 164.14C383.67 161.96 383.2 159.6 383.37 157.32C383.76 152.32 387.51 148.05 392.01 145.81C396.21 143.72 401.5 143.81 406.8 145.11C410.479 145.964 413.837 147.851 416.48 150.55C418.172 152.386 419.399 154.601 420.058 157.009C420.717 159.417 420.79 161.948 420.27 164.39L394.58 162.39C392.442 164.642 389.949 166.527 387.2 167.97C386.393 168.394 385.49 168.601 384.58 168.57C384.111 168.545 383.66 168.383 383.283 168.104C382.906 167.825 382.62 167.441 382.46 167C382.16 166.08 382.67 165.09 383 164.14Z" fill="#263238"/>
  <path d="M407.78 152.1L385.87 158.26C384.838 158.397 383.895 158.915 383.227 159.713C382.558 160.511 382.213 161.53 382.26 162.57L385.68 210.64C385.915 213.921 387.222 217.035 389.4 219.5L391.7 222.09C396.94 228.01 406.7 226.74 409.92 219.53C410.115 219.12 410.256 218.686 410.34 218.24C410.412 217.877 410.459 217.509 410.48 217.14C410.706 214.707 410.676 212.257 410.39 209.83C410.33 205.54 410.28 203.78 410.28 203.83C410.28 203.88 419.28 202.08 420.86 190.22C421.64 184.31 421.09 174.69 420.38 166.82C419.75 159.74 414.82 151.16 407.78 152.1Z" fill="#FFBE9D"/>
  <path d="M416.17 174.38C416.181 174.776 416.038 175.161 415.771 175.454C415.505 175.746 415.135 175.924 414.74 175.95C414.548 175.971 414.354 175.953 414.17 175.897C413.985 175.842 413.814 175.749 413.666 175.626C413.517 175.503 413.395 175.352 413.307 175.181C413.218 175.009 413.165 174.822 413.15 174.63C413.133 174.236 413.272 173.851 413.535 173.558C413.798 173.265 414.166 173.086 414.56 173.06C414.753 173.038 414.948 173.055 415.134 173.11C415.321 173.165 415.494 173.256 415.644 173.379C415.794 173.502 415.918 173.654 416.008 173.826C416.099 173.998 416.154 174.187 416.17 174.38Z" fill="#263238"/>
  <path d="M418.43 171.88C418.24 172.08 417.07 171.26 415.43 171.31C413.79 171.36 412.63 172.21 412.43 172.01C412.23 171.81 412.52 171.56 413.03 171.17C413.721 170.663 414.553 170.384 415.41 170.37C416.261 170.343 417.098 170.588 417.8 171.07C418.34 171.44 418.52 171.79 418.43 171.88Z" fill="#263238"/>
  <path d="M400.73 175.19C400.744 175.585 400.603 175.97 400.338 176.263C400.073 176.556 399.704 176.734 399.31 176.76C399.118 176.781 398.923 176.763 398.738 176.707C398.553 176.652 398.381 176.56 398.232 176.437C398.083 176.314 397.96 176.162 397.87 175.991C397.781 175.82 397.726 175.633 397.71 175.44C397.696 175.045 397.837 174.66 398.102 174.367C398.367 174.074 398.736 173.896 399.13 173.87C399.322 173.849 399.516 173.867 399.701 173.923C399.887 173.978 400.059 174.07 400.208 174.193C400.357 174.316 400.48 174.468 400.57 174.639C400.659 174.81 400.714 174.997 400.73 175.19Z" fill="#263238"/>
  <path d="M402.4 172.61C402.22 172.81 401.05 172 399.4 172.04C397.75 172.08 396.6 172.94 396.4 172.74C396.2 172.54 396.49 172.3 397.01 171.9C397.701 171.393 398.533 171.114 399.39 171.1C400.238 171.075 401.071 171.32 401.77 171.8C402.31 172.17 402.49 172.52 402.4 172.61Z" fill="#263238"/>
  <path d="M408.64 184.55C409.493 184.256 410.38 184.071 411.28 184C411.7 184 412.09 183.85 412.15 183.57C412.172 183.138 412.064 182.71 411.84 182.34L410.52 179.2C408.69 174.73 407.36 171.05 407.52 170.98C407.68 170.91 409.33 174.47 411.16 178.98L412.42 182.14C412.697 182.635 412.79 183.213 412.68 183.77C412.627 183.921 412.538 184.057 412.422 184.167C412.305 184.276 412.164 184.356 412.01 184.4C411.782 184.467 411.547 184.504 411.31 184.51C410.425 184.636 409.528 184.65 408.64 184.55Z" fill="#263238"/>
  <path d="M410.28 203.82C404.721 204.05 399.207 202.735 394.35 200.02C394.35 200.02 398.54 208.09 410.35 206.67L410.28 203.82Z" fill="#EB996E"/>
  <path d="M408.06 188.5C407.738 188.121 407.324 187.831 406.859 187.656C406.394 187.481 405.892 187.427 405.4 187.5C405.043 187.534 404.696 187.64 404.382 187.812C404.067 187.984 403.791 188.218 403.57 188.5C403.349 188.783 403.223 189.128 403.209 189.487C403.195 189.846 403.293 190.2 403.49 190.5C403.762 190.782 404.111 190.977 404.493 191.063C404.875 191.148 405.274 191.119 405.64 190.98C406.406 190.689 407.107 190.247 407.7 189.68C407.875 189.542 408.027 189.376 408.15 189.19C408.209 189.099 408.24 188.993 408.24 188.885C408.24 188.777 408.209 188.671 408.15 188.58" fill="#EB996E"/>
  <path d="M403.88 185.8C404.14 185.8 404.19 187.55 405.74 188.8C407.29 190.05 409.17 189.8 409.19 190.02C409.21 190.24 408.78 190.37 407.98 190.41C406.943 190.454 405.923 190.132 405.1 189.5C404.314 188.889 403.797 187.996 403.66 187.01C403.57 186.24 403.75 185.8 403.88 185.8Z" fill="#263238"/>
  <path d="M402.55 167.67C402.4 168.12 400.76 167.95 398.86 168.24C396.96 168.53 395.42 169.08 395.15 168.69C395.03 168.5 395.29 168.08 395.9 167.63C396.72 167.09 397.655 166.747 398.63 166.63C399.608 166.488 400.605 166.581 401.54 166.9C402.25 167.12 402.61 167.46 402.55 167.67Z" fill="#263238"/>
  <path d="M417.76 164.76C417.49 165.14 416.35 164.76 415 164.76C413.65 164.76 412.51 165.08 412.24 164.7C412.12 164.51 412.29 164.14 412.78 163.77C413.438 163.329 414.213 163.094 415.005 163.094C415.797 163.094 416.572 163.329 417.23 163.77C417.72 164.2 417.89 164.58 417.76 164.76Z" fill="#263238"/>
  <path d="M378.67 161C380.53 154.08 389.98 144.21 397.14 144.38L408.85 150.7C408.567 152.661 407.76 154.509 406.514 156.049C405.268 157.589 403.629 158.764 401.77 159.45C399.77 160.16 397.37 160.45 396.25 162.22C395.13 163.99 395.94 166.59 394.88 168.47C393.42 171.07 389.1 171.15 388.04 173.94C387.57 175.15 387.91 176.57 387.42 177.78C386.78 179.39 382.87 181.58 381.19 181.13C379.51 180.68 379.38 177.86 378.77 176.41C378.012 174.774 377.842 172.927 378.29 171.18C378.86 167.8 377.78 164.28 378.67 161Z" fill="#263238"/>
  <path d="M386.14 182.28C386.14 181.4 385.04 179.35 384.14 179.28C381.81 178.98 377.64 179.28 377.75 185.17C377.92 193.23 385.97 191.41 385.98 191.17C385.99 190.93 386.22 185.32 386.14 182.28Z" fill="#FFBE9D"/>
  <path d="M383.48 188.13C383.48 188.13 383.34 188.23 383.11 188.35C382.773 188.485 382.397 188.485 382.06 188.35C381.2 188.06 380.46 186.72 380.39 185.27C380.354 184.585 380.474 183.902 380.74 183.27C380.805 183.019 380.93 182.788 381.105 182.597C381.279 182.405 381.497 182.259 381.74 182.17C381.901 182.122 382.074 182.133 382.228 182.201C382.382 182.269 382.507 182.389 382.58 182.54C382.69 182.76 382.65 182.92 382.69 182.94C382.73 182.96 382.86 182.8 382.79 182.47C382.738 182.272 382.622 182.096 382.46 181.97C382.35 181.886 382.224 181.826 382.09 181.793C381.956 181.761 381.816 181.756 381.68 181.78C381.352 181.855 381.048 182.011 380.796 182.235C380.544 182.459 380.353 182.743 380.24 183.06C379.91 183.762 379.759 184.535 379.8 185.31C379.88 186.94 380.74 188.44 381.91 188.75C382.128 188.81 382.356 188.82 382.578 188.778C382.8 188.737 383.009 188.645 383.19 188.51C383.47 188.33 383.51 188.15 383.48 188.13Z" fill="#EB996E"/>
  <path d="M376.81 159C376.67 156.48 373.43 155 370.94 154.63C368.41 154.363 365.869 155.024 363.79 156.49C362.55 157.28 361.31 158.37 361.12 159.83C360.93 161.29 362.43 162.92 363.77 162.31C363.119 162.578 362.535 162.987 362.061 163.507C361.586 164.027 361.232 164.646 361.024 165.319C360.817 165.991 360.76 166.702 360.859 167.399C360.957 168.096 361.209 168.763 361.595 169.351C361.981 169.94 362.493 170.436 363.093 170.804C363.693 171.172 364.367 171.403 365.067 171.481C365.767 171.558 366.475 171.48 367.141 171.251C367.807 171.023 368.415 170.65 368.92 170.16C368.372 172.536 367.028 174.654 365.11 176.16C367.208 176.315 369.31 175.915 371.205 175.001C373.1 174.087 374.721 172.691 375.906 170.953C377.091 169.214 377.799 167.195 377.957 165.097C378.116 162.999 377.72 160.897 376.81 159Z" fill="#263238"/>
  <path d="M362.78 193.52C362.78 193.14 363.83 192.96 365.26 192.52C367.086 192.013 368.8 191.165 370.31 190.02C371.79 188.832 373.029 187.373 373.96 185.72C374.73 184.43 375.14 183.5 375.52 183.56C375.9 183.62 376.12 184.69 375.72 186.41C375.124 188.675 373.804 190.683 371.961 192.127C370.117 193.572 367.852 194.373 365.51 194.41C363.74 194.38 362.74 193.87 362.78 193.52Z" fill="#263238"/>
  <path d="M372.07 172.15C371.781 171.386 371.626 170.577 371.61 169.76C371.328 165.79 372.385 161.84 374.61 158.54C375.03 157.837 375.568 157.211 376.2 156.69C374.658 158.933 373.468 161.398 372.67 164C372.058 166.671 371.856 169.419 372.07 172.15Z" fill="#6AE536"/>
  <path d="M406.36 148.4C407.31 151.62 412.56 155.49 414.91 157.9C419.39 162.48 420.32 164.04 420.99 174.9C422.71 171.02 423.99 167.24 423.54 163.02C423.165 158.747 421.245 154.758 418.14 151.8C416.576 150.356 414.697 149.296 412.652 148.704C410.608 148.113 408.453 148.005 406.36 148.39" fill="#263238"/>
  <path d="M458.9 242.43C458.9 242.43 453.52 264.79 451.31 274.43C449 284.7 443.86 308 430.22 304.6C419.84 302.04 422.15 288.6 422.15 288.6L431 257.87L439.2 258.8L446.73 240.26L454.85 231.71L458.9 242.43Z" fill="#FFBE9D"/>
  <path d="M425.77 289.4C425.314 287.773 425.221 286.066 425.5 284.4C425.843 282.615 426.493 280.903 427.42 279.34C428.613 277.434 429.951 275.622 431.42 273.92C432.897 272.192 434.234 270.349 435.42 268.41C436.364 266.813 437.173 265.141 437.84 263.41C438.285 262.244 438.659 261.052 438.96 259.84C439.095 259.401 439.179 258.948 439.21 258.49C439.023 258.907 438.869 259.338 438.75 259.78C438.48 260.61 438.08 261.78 437.47 263.26C436.762 264.949 435.929 266.584 434.98 268.15C433.777 270.049 432.44 271.861 430.98 273.57C429.495 275.295 428.157 277.142 426.98 279.09C426.041 280.711 425.407 282.49 425.11 284.34C424.918 285.592 424.972 286.869 425.27 288.1C425.353 288.442 425.464 288.776 425.6 289.1C425.69 289.3 425.75 289.41 425.77 289.4Z" fill="#EB996E"/>
  <path d="M446.1 242C446.1 241.6 446.3 235.09 446.43 233.39C446.534 232.314 446.836 231.267 447.32 230.3C447.506 229.946 447.771 229.639 448.094 229.404C448.417 229.168 448.79 229.009 449.184 228.94C449.577 228.87 449.982 228.892 450.366 229.003C450.75 229.114 451.104 229.311 451.4 229.58L451.55 229.71C452.322 228.199 453.418 226.877 454.76 225.84C456.67 224.59 458.24 223.74 459.88 224.72C460.328 224.942 460.71 225.277 460.987 225.693C461.265 226.109 461.428 226.591 461.46 227.09C461.46 227.09 463.89 226.76 464.94 227.74C465.99 228.72 464.94 231.68 464.94 231.68C464.94 231.68 467.1 231.02 467.63 232.6C467.895 233.693 467.73 234.845 467.17 235.82C467.17 235.82 468.87 236.34 469.07 237.59C469.27 238.84 467.37 240.21 467.37 240.21L461.44 244.93C460.65 247.395 459.036 249.513 456.87 250.93C452.75 252.51 446.1 242 446.1 242Z" fill="#FFBE9D"/>
  <path d="M450.62 234.91C450.68 234.91 450.67 235.16 450.49 235.46C450.267 235.859 449.914 236.17 449.49 236.34C449.049 236.488 448.571 236.488 448.13 236.34C447.8 236.23 447.64 236.07 447.67 236C447.7 235.93 448.48 236.11 449.3 235.79C450.12 235.47 450.48 234.84 450.62 234.91Z" fill="#EB996E"/>
  <path d="M455.32 229.09C455.23 229.21 454.66 228.81 454.56 228.03C454.46 227.25 454.89 226.72 455.01 226.81C455.13 226.9 455.01 227.38 455.09 227.96C455.17 228.54 455.43 229 455.32 229.09Z" fill="#EB996E"/>
  <path d="M465.23 231.62C465.23 231.62 464.81 232.23 463.92 233C462.745 233.972 461.512 234.874 460.23 235.7C459.539 236.245 458.731 236.621 457.87 236.8C457.5 236.862 457.12 236.826 456.769 236.694C456.418 236.562 456.108 236.34 455.87 236.05C455.719 235.842 455.624 235.597 455.596 235.341C455.568 235.085 455.607 234.826 455.71 234.59C455.87 234.27 456.07 234.19 456.09 234.22C456.11 234.25 455.98 234.38 455.9 234.67C455.854 234.871 455.855 235.08 455.901 235.281C455.948 235.482 456.04 235.67 456.17 235.83C456.385 236.044 456.651 236.201 456.943 236.285C457.235 236.369 457.544 236.377 457.84 236.31C458.617 236.115 459.343 235.757 459.97 235.26C461.46 234.26 462.79 233.39 463.72 232.7C464.187 232.292 464.693 231.93 465.23 231.62Z" fill="#EB996E"/>
  <path d="M467.13 235.79C465.33 236.907 463.44 237.87 461.48 238.67C460.727 239.09 459.89 239.336 459.03 239.39C458.649 239.409 458.27 239.315 457.943 239.119C457.615 238.923 457.353 238.635 457.19 238.29C457.13 238.151 457.1 238.001 457.1 237.85C457.1 237.699 457.13 237.549 457.19 237.41C457.277 237.205 457.428 237.034 457.62 236.92C457.95 236.74 458.16 236.84 458.15 236.86C458.14 236.88 457.96 236.86 457.74 237.09C457.604 237.214 457.513 237.378 457.478 237.558C457.444 237.739 457.469 237.925 457.55 238.09C457.7 238.345 457.92 238.551 458.184 238.684C458.449 238.817 458.746 238.871 459.04 238.84C459.824 238.759 460.583 238.517 461.27 238.13C463.156 237.192 465.116 236.41 467.13 235.79Z" fill="#EB996E"/>
  <path d="M464.25 241.12C464.25 241.18 463.93 241.43 463.25 241.59C462.864 241.681 462.467 241.721 462.07 241.71C461.561 241.72 461.056 241.607 460.6 241.38C460.456 241.293 460.339 241.167 460.263 241.017C460.187 240.866 460.155 240.698 460.17 240.53C460.204 240.261 460.315 240.007 460.49 239.8C460.739 239.491 461.025 239.212 461.34 238.97C461.88 238.57 462.28 238.44 462.34 238.5C462.4 238.56 462.06 238.81 461.62 239.26C461.363 239.516 461.129 239.793 460.92 240.09C460.69 240.42 460.61 240.76 460.92 240.93C461.301 241.105 461.712 241.203 462.13 241.22C462.493 241.255 462.858 241.255 463.22 241.22C463.84 241.16 464.22 241.05 464.25 241.12Z" fill="#EB996E"/>
  <path d="M458.62 242.11C458.652 241.202 458.428 240.304 457.973 239.517C457.519 238.731 456.852 238.088 456.05 237.662C455.247 237.237 454.341 237.046 453.435 237.111C452.529 237.177 451.659 237.496 450.926 238.032C450.193 238.568 449.625 239.3 449.288 240.144C448.951 240.987 448.858 241.909 449.021 242.802C449.183 243.696 449.593 244.526 450.205 245.198C450.817 245.87 451.605 246.355 452.48 246.6L452.43 247.95L453.75 248.95L452.36 249.73L452.3 251.42L453.62 252.42L452.23 253.2L452.18 254.65L452.98 255.25L452.14 255.72V256.57L453.14 257.71L455.14 256.52L455.52 246.52C456.415 246.174 457.187 245.57 457.739 244.785C458.291 244 458.597 243.069 458.62 242.11ZM453.91 238.39C454.184 238.4 454.45 238.491 454.673 238.652C454.896 238.813 455.066 239.037 455.162 239.294C455.258 239.552 455.275 239.832 455.212 240.099C455.148 240.367 455.007 240.609 454.806 240.797C454.605 240.984 454.353 241.107 454.081 241.151C453.81 241.195 453.532 241.158 453.282 241.044C453.032 240.929 452.821 240.744 452.677 240.51C452.532 240.276 452.46 240.005 452.47 239.73C452.476 239.547 452.519 239.368 452.595 239.202C452.67 239.036 452.778 238.886 452.912 238.762C453.046 238.637 453.203 238.54 453.374 238.476C453.545 238.413 453.727 238.383 453.91 238.39Z" fill="#263238"/>
  <path d="M453.91 238.39C453.91 238.39 453.79 238.39 453.58 238.45C453.28 238.521 453.013 238.69 452.82 238.93C452.67 239.126 452.578 239.359 452.552 239.604C452.526 239.848 452.569 240.096 452.674 240.318C452.78 240.54 452.945 240.729 453.151 240.864C453.357 240.999 453.596 241.075 453.842 241.083C454.088 241.091 454.331 241.03 454.546 240.909C454.76 240.788 454.936 240.61 455.056 240.394C455.176 240.179 455.234 239.935 455.224 239.689C455.214 239.443 455.136 239.205 455 239C454.825 238.746 454.572 238.557 454.28 238.46C454.08 238.4 453.95 238.4 453.95 238.38H454C454.086 238.369 454.174 238.369 454.26 238.38C454.57 238.462 454.843 238.649 455.03 238.91C455.171 239.106 455.261 239.334 455.291 239.573C455.321 239.813 455.289 240.056 455.2 240.28C455.094 240.546 454.909 240.773 454.67 240.93C454.417 241.103 454.116 241.191 453.81 241.18C453.501 241.169 453.204 241.06 452.96 240.87C452.736 240.688 452.569 240.445 452.48 240.17C452.411 239.94 452.4 239.697 452.447 239.461C452.494 239.226 452.598 239.006 452.75 238.82C452.962 238.575 453.251 238.409 453.57 238.35C453.653 238.342 453.737 238.342 453.82 238.35L453.91 238.39Z" fill="#263238"/>
  <path d="M458.62 242.11V242.21V242.5C458.581 242.868 458.5 243.23 458.38 243.58C458.18 244.146 457.874 244.668 457.48 245.12C456.943 245.744 456.254 246.219 455.48 246.5C455.38 249.09 455.26 252.5 455.12 256.5L453.12 257.7L452.12 256.56C452.12 256.29 452.12 256 452.12 255.71L452.96 255.24V255.34L452.15 254.73C452.15 254.28 452.15 253.73 452.2 253.28L453.59 252.51V252.61L452.27 251.61V251C452.27 250.58 452.27 250.17 452.32 249.76L453.71 248.98V249.08L452.39 248.08C452.39 247.62 452.39 247.17 452.44 246.73V246.79C451.695 246.577 451.011 246.193 450.44 245.67C450.162 245.418 449.917 245.133 449.71 244.82C449.211 244.092 448.921 243.241 448.869 242.36C448.818 241.479 449.009 240.601 449.42 239.82C449.787 239.107 450.325 238.496 450.986 238.042C451.646 237.587 452.409 237.304 453.206 237.215C454.003 237.127 454.809 237.238 455.553 237.537C456.297 237.836 456.956 238.315 457.47 238.93C457.896 239.429 458.213 240.011 458.4 240.64L458.46 240.82V241C458.46 241.12 458.51 241.22 458.52 241.33C458.53 241.44 458.57 241.7 458.57 241.84V242C458.574 242.033 458.574 242.067 458.57 242.1V241.68C458.57 241.54 458.57 241.37 458.51 241.17C458.495 241.062 458.472 240.955 458.44 240.85V240.67L458.38 240.49C458.191 239.871 457.875 239.298 457.45 238.81C456.887 238.152 456.158 237.655 455.34 237.37C454.475 237.08 453.545 237.042 452.66 237.262C451.775 237.481 450.97 237.948 450.34 238.608C449.711 239.268 449.282 240.094 449.105 240.988C448.928 241.883 449.009 242.81 449.34 243.66C449.465 244.013 449.633 244.349 449.84 244.66C450.044 244.966 450.286 245.245 450.56 245.49C451.114 246.003 451.783 246.377 452.51 246.58H452.56C452.56 247.03 452.56 247.48 452.51 247.93L453.84 248.93H453.91L453.83 248.98L452.44 249.75V249.7C452.44 250.11 452.44 250.53 452.44 250.94V251.39L453.76 252.39L453.83 252.45H453.75L452.36 253.23C452.36 253.73 452.36 254.23 452.31 254.68L453.12 255.28L453.19 255.34H453.11L452.27 255.82C452.27 256.11 452.27 256.4 452.27 256.66L453.27 257.8H453.2L455.2 256.61V256.66C455.36 252.66 455.49 249.22 455.59 246.66C456.337 246.381 457.004 245.92 457.53 245.32C457.918 244.871 458.222 244.356 458.43 243.8C458.555 243.45 458.642 243.088 458.69 242.72V242.44C458.695 242.326 458.671 242.212 458.62 242.11Z" fill="#263238"/>
  <path d="M458.12 241.84C458.154 240.929 457.932 240.027 457.477 239.237C457.023 238.447 456.355 237.801 455.55 237.373C454.746 236.946 453.837 236.753 452.928 236.818C452.019 236.883 451.146 237.203 450.41 237.741C449.675 238.279 449.106 239.013 448.768 239.86C448.431 240.706 448.339 241.631 448.502 242.527C448.666 243.424 449.079 244.256 449.694 244.929C450.309 245.601 451.101 246.087 451.98 246.33L451.93 247.67L453.25 248.67L451.86 249.44L451.8 251.13L453.12 252.13L451.73 252.9L451.67 254.35L452.48 254.96L451.63 255.43V256.27L452.63 257.41L454.63 256.22L455.01 246.22C455.903 245.879 456.675 245.281 457.228 244.501C457.782 243.722 458.092 242.796 458.12 241.84ZM453.41 238.12C453.592 238.126 453.772 238.169 453.938 238.245C454.104 238.321 454.254 238.428 454.378 238.562C454.503 238.696 454.6 238.853 454.663 239.024C454.727 239.195 454.757 239.377 454.75 239.56C454.743 239.743 454.7 239.922 454.623 240.088C454.546 240.254 454.438 240.403 454.304 240.527C454.17 240.651 454.012 240.747 453.841 240.81C453.67 240.873 453.487 240.902 453.305 240.895C453.122 240.888 452.943 240.845 452.777 240.768C452.611 240.692 452.462 240.583 452.338 240.449C452.214 240.315 452.118 240.158 452.055 239.986C451.991 239.815 451.963 239.633 451.97 239.45C451.985 239.083 452.146 238.737 452.416 238.488C452.685 238.239 453.043 238.106 453.41 238.12Z" fill="#6AE536"/>
  <path d="M453.41 238.12C453.297 238.114 453.183 238.114 453.07 238.12C452.773 238.192 452.509 238.361 452.32 238.6C452.179 238.774 452.083 238.98 452.043 239.201C452.003 239.421 452.019 239.648 452.09 239.86C452.175 240.121 452.337 240.349 452.555 240.515C452.773 240.681 453.036 240.777 453.31 240.79C453.581 240.794 453.848 240.718 454.076 240.57C454.304 240.422 454.483 240.21 454.59 239.96C454.662 239.786 454.698 239.599 454.693 239.411C454.689 239.223 454.646 239.037 454.566 238.867C454.486 238.696 454.371 238.545 454.229 238.421C454.086 238.298 453.92 238.205 453.74 238.15C453.631 238.118 453.521 238.091 453.41 238.07H453.5C453.583 238.06 453.667 238.06 453.75 238.07C454.065 238.148 454.341 238.336 454.53 238.6C454.746 238.913 454.83 239.3 454.763 239.674C454.695 240.049 454.482 240.382 454.17 240.6C453.914 240.775 453.609 240.862 453.3 240.85C452.993 240.834 452.7 240.722 452.46 240.53C452.263 240.397 452.104 240.214 452 240C451.94 239.809 451.921 239.607 451.943 239.408C451.966 239.209 452.031 239.017 452.133 238.845C452.234 238.672 452.371 238.523 452.534 238.407C452.698 238.291 452.883 238.21 453.08 238.17C453.166 238.156 453.254 238.156 453.34 238.17L453.41 238.12Z" fill="#263238"/>
  <path d="M458.12 241.84V241.94V242.22C458.08 242.591 458 242.957 457.88 243.31C457.672 243.872 457.367 244.393 456.98 244.85C456.437 245.468 455.75 245.942 454.98 246.23C454.89 248.82 454.77 252.23 454.63 256.23L452.63 257.42L451.63 256.28C451.63 256.02 451.63 255.73 451.63 255.44L452.47 254.96V255.06L451.67 254.46C451.67 254 451.67 253.51 451.72 253.01L453.11 252.23V252.33L451.79 251.33V250.88C451.79 250.47 451.79 250.05 451.84 249.64L453.23 248.87V248.97L451.91 247.97C451.91 247.52 451.91 247.07 451.96 246.62V246.68C451.212 246.475 450.526 246.091 449.96 245.56C449.68 245.308 449.431 245.023 449.22 244.71C449.011 244.398 448.84 244.062 448.71 243.71C448.471 243.093 448.36 242.435 448.383 241.774C448.405 241.113 448.562 240.464 448.842 239.865C449.122 239.266 449.521 238.73 450.014 238.289C450.507 237.848 451.084 237.512 451.71 237.3C452.736 236.958 453.844 236.958 454.87 237.3C455.669 237.515 456.402 237.928 457 238.5C457.422 239.002 457.739 239.583 457.93 240.21L457.99 240.4V240.58C457.99 240.69 458.04 240.8 458.05 240.9C458.06 241 458.1 241.28 458.1 241.41V241.84C458.102 241.803 458.102 241.767 458.1 241.73V241.42C458.1 241.28 458.1 241.11 458.05 240.9C458 240.69 458 240.7 457.98 240.58V240.41L457.92 240.22C457.723 239.602 457.404 239.031 456.98 238.54C456.421 237.879 455.691 237.385 454.87 237.11C453.865 236.769 452.775 236.769 451.77 237.11C450.609 237.519 449.645 238.351 449.07 239.44C448.757 240.046 448.575 240.711 448.537 241.392C448.499 242.072 448.606 242.753 448.85 243.39C448.983 243.741 449.154 244.076 449.36 244.39C449.564 244.696 449.806 244.975 450.08 245.22C450.636 245.731 451.304 246.105 452.03 246.31H452V246.36C452 246.8 452 247.25 452 247.71V247.66C452.44 247.98 452.88 248.32 453.32 248.66L453.4 248.72H453.32L451.93 249.5V249.45C451.93 249.86 451.93 250.27 451.88 250.69C451.88 250.84 451.88 250.99 451.88 251.13L453.2 252.13H453.28L453.2 252.18L451.81 252.95C451.81 253.45 451.81 253.95 451.75 254.4L452.56 255.01L452.63 255.06H452.55L451.7 255.53C451.7 255.82 451.7 256.11 451.7 256.37L452.7 257.52H452.63L454.63 256.33V256.38C454.78 252.38 454.92 248.94 455.02 246.38C455.769 246.093 456.438 245.63 456.97 245.03C457.355 244.579 457.659 244.064 457.87 243.51C457.996 243.164 458.083 242.805 458.13 242.44V242.15C458.101 242.104 458.085 242.051 458.084 241.996C458.082 241.942 458.094 241.888 458.12 241.84Z" fill="#263238"/>
  <path d="M457.54 241.88C457.526 241.544 457.485 241.21 457.42 240.88C457.338 240.48 457.193 240.095 456.99 239.74C456.739 239.267 456.4 238.846 455.99 238.5C455.442 238.045 454.787 237.739 454.086 237.609C453.386 237.48 452.664 237.532 451.99 237.76C451.601 237.879 451.234 238.058 450.9 238.29C450.728 238.408 450.564 238.539 450.41 238.68C450.256 238.827 450.113 238.984 449.98 239.15C449.416 239.853 449.093 240.718 449.059 241.619C449.025 242.519 449.281 243.406 449.79 244.15C449.915 244.327 450.048 244.497 450.19 244.66C450.334 244.81 450.487 244.951 450.65 245.08C450.95 245.334 451.287 245.54 451.65 245.69C452.35 245.974 453.112 246.067 453.86 245.96C454.508 245.871 455.126 245.628 455.66 245.25C456.105 244.937 456.488 244.543 456.79 244.09C457.012 243.746 457.184 243.372 457.3 242.98C457.392 242.652 457.459 242.318 457.5 241.98V242.26C457.5 242.35 457.5 242.46 457.5 242.59C457.5 242.72 457.45 242.86 457.4 243.03C457.291 243.431 457.119 243.813 456.89 244.16C456.593 244.625 456.209 245.029 455.76 245.35C455.214 245.739 454.583 245.993 453.92 246.09C453.157 246.205 452.377 246.115 451.66 245.83C451.273 245.677 450.912 245.464 450.59 245.2C450.423 245.065 450.263 244.921 450.11 244.77C449.963 244.608 449.829 244.434 449.71 244.25C449.189 243.491 448.926 242.584 448.96 241.664C448.995 240.743 449.324 239.859 449.9 239.14C450.036 238.967 450.183 238.804 450.34 238.65C450.501 238.508 450.671 238.378 450.85 238.26C451.338 237.921 451.892 237.688 452.477 237.578C453.061 237.467 453.662 237.482 454.24 237.62C454.896 237.765 455.507 238.067 456.02 238.5C456.431 238.856 456.77 239.287 457.02 239.77C457.214 240.135 457.356 240.525 457.44 240.93C457.472 241.078 457.492 241.229 457.5 241.38C457.509 241.49 457.509 241.6 457.5 241.71V241.98L457.54 241.88Z" fill="#263238"/>
  <path d="M455 239.58C454.987 239.449 454.967 239.319 454.94 239.19C454.865 238.836 454.666 238.521 454.38 238.3C454.187 238.145 453.961 238.035 453.72 237.98C453.444 237.922 453.157 237.94 452.89 238.03C452.591 238.119 452.328 238.301 452.14 238.55C451.934 238.81 451.818 239.129 451.81 239.46C451.797 239.786 451.886 240.108 452.065 240.381C452.245 240.654 452.505 240.863 452.81 240.98C453.056 241.078 453.321 241.114 453.585 241.087C453.848 241.059 454.1 240.967 454.32 240.82C454.616 240.614 454.834 240.315 454.94 239.97C454.979 239.842 455.009 239.712 455.03 239.58C455.03 239.58 455.03 239.58 455.03 239.69C455.023 239.791 455.006 239.892 454.98 239.99C454.883 240.352 454.664 240.67 454.36 240.89C454.146 241.042 453.899 241.142 453.64 241.18C453.327 241.229 453.007 241.189 452.717 241.063C452.426 240.937 452.178 240.732 452 240.47C451.795 240.177 451.69 239.827 451.7 239.47C451.714 239.106 451.844 238.756 452.07 238.47C452.277 238.208 452.56 238.017 452.88 237.92C453.17 237.835 453.479 237.835 453.77 237.92C454.022 237.98 454.258 238.096 454.46 238.26C454.759 238.515 454.955 238.871 455.01 239.26C455.023 239.36 455.023 239.46 455.01 239.56C455 239.55 455 239.58 455 239.58Z" fill="#263238"/>
  <path d="M454 256.45C454 256.45 454 254.16 454.13 251.35C454.26 248.54 454.35 246.25 454.38 246.25C454.41 246.25 454.38 248.53 454.25 251.35C454.12 254.17 454 256.45 454 256.45Z" fill="#263238"/>
  <path d="M453.83 238.6C453.728 238.65 453.617 238.675 453.505 238.675C453.392 238.675 453.281 238.65 453.18 238.6V232.45L453.83 232.5V238.6Z" fill="#E0E0E0"/>
  <path d="M453.5 238.7C453.385 238.697 453.273 238.67 453.17 238.62V232.43L453.87 232.48V238.62C453.755 238.676 453.628 238.703 453.5 238.7ZM453.21 238.58C453.302 238.624 453.403 238.647 453.505 238.647C453.607 238.647 453.708 238.624 453.8 238.58V232.52H453.2L453.21 238.58Z" fill="#263238"/>
  <path d="M451 229.43C451.544 229.895 452.123 230.32 452.73 230.7C453.033 230.896 453.286 231.16 453.47 231.471C453.654 231.781 453.763 232.13 453.79 232.49C453.737 232.857 453.592 233.205 453.368 233.5C453.144 233.796 452.849 234.03 452.51 234.18C452.047 234.429 451.54 234.585 451.017 234.638C450.494 234.69 449.965 234.64 449.462 234.488C448.959 234.337 448.49 234.088 448.083 233.755C447.676 233.423 447.338 233.013 447.09 232.55" fill="#FFBE9D"/>
  <path d="M447.13 232.55C447.548 232.994 448.003 233.403 448.49 233.77C449.031 234.115 449.65 234.321 450.29 234.37C451.068 234.429 451.847 234.258 452.53 233.88C452.858 233.732 453.132 233.485 453.312 233.172C453.491 232.86 453.568 232.498 453.53 232.14C453.33 231.547 452.94 231.037 452.42 230.69C451.47 230.05 450.94 229.49 451.02 229.43C451.1 229.37 451.61 229.8 452.63 230.38C453.268 230.735 453.756 231.311 454 232C454.105 232.457 454.03 232.937 453.79 233.34C453.545 233.752 453.201 234.095 452.79 234.34C452.012 234.777 451.116 234.958 450.23 234.86C449.505 234.784 448.815 234.514 448.23 234.08C447.3 233.33 447.08 232.56 447.13 232.55Z" fill="#EB996E"/>
  <path d="M457.16 226.88C455.998 228.229 454.991 229.705 454.16 231.28C453.893 231.763 453.739 232.299 453.71 232.85C453.698 233.127 453.759 233.402 453.888 233.648C454.016 233.894 454.206 234.101 454.44 234.25C454.654 234.351 454.888 234.404 455.125 234.404C455.362 234.404 455.596 234.351 455.81 234.25C456.231 234.044 456.617 233.77 456.95 233.44C458.324 232.187 459.57 230.8 460.67 229.3C460.956 228.951 461.18 228.555 461.33 228.13C461.409 227.918 461.443 227.692 461.429 227.467C461.416 227.241 461.355 227.021 461.25 226.82" fill="#FFBE9D"/>
  <path d="M461.26 226.81C461.26 226.81 461.51 227.01 461.54 227.55C461.507 228.292 461.217 228.999 460.72 229.55C460.114 230.418 459.445 231.24 458.72 232.01C458.32 232.45 457.88 232.9 457.41 233.34C456.935 233.862 456.356 234.278 455.71 234.56C455.336 234.68 454.934 234.68 454.56 234.56C454.18 234.435 453.864 234.166 453.68 233.81C453.539 233.495 453.466 233.155 453.466 232.81C453.466 232.465 453.539 232.125 453.68 231.81C454.095 230.824 454.633 229.893 455.28 229.04C455.818 228.233 456.457 227.497 457.18 226.85C456.7 227.686 456.169 228.49 455.59 229.26C455.009 230.106 454.526 231.016 454.15 231.97C454.036 232.22 453.977 232.491 453.977 232.765C453.977 233.039 454.036 233.31 454.15 233.56C454.287 233.797 454.506 233.975 454.767 234.06C455.027 234.145 455.309 234.131 455.56 234.02C456.127 233.76 456.637 233.39 457.06 232.93C457.53 232.5 457.97 232.07 458.37 231.65C459.18 230.8 459.86 230 460.37 229.3C460.848 228.813 461.169 228.192 461.29 227.52C461.302 227.283 461.292 227.045 461.26 226.81Z" fill="#EB996E"/>
  <path d="M99.6599 410.46C109.17 395.9 108.81 374.62 97.4399 361.46C93.9099 357.37 88.9799 353.82 83.5999 354.28C78.2199 354.74 73.6599 359.47 71.9999 364.74C70.3399 370.01 70.9099 375.74 71.8899 381.15C73.2699 388.77 75.5799 396.56 80.8899 402.22C86.1999 407.88 92.8899 414.17 99.7099 410.46" fill="#6AE536"/>
  <path d="M95.4099 480C97.1224 475.768 97.4586 471.104 96.3709 466.671C95.2831 462.237 92.8266 458.259 89.3499 455.3C87.1599 453.51 84.3499 452.13 81.5699 452.86C78.7899 453.59 76.9199 456.43 76.5699 459.3C76.3495 462.211 76.8403 465.131 77.9999 467.81C79.3999 471.6 81.2999 475.41 84.5299 477.81C87.7599 480.21 92.2899 482.53 95.4499 480" fill="#6AE536"/>
  <path d="M118.37 475.05C115.75 462.14 122.55 447.9 134.23 441.82C137.86 439.94 142.32 438.82 145.98 440.65C149.64 442.48 151.52 447.09 151.22 451.27C150.92 455.45 148.92 459.27 146.7 462.84C143.6 467.84 139.79 472.65 134.49 475.15C129.19 477.65 122.1 479.56 118.37 475.05Z" fill="#6AE536"/>
  <path d="M116.72 440.15C112.16 425.44 119.89 407.61 132.72 399.15C136.72 396.53 141.78 394.71 146.25 396.41C150.72 398.11 153.45 403.25 153.59 408.14C153.73 413.03 151.85 417.74 149.69 422.14C146.69 428.29 142.8 434.36 136.93 437.89C131.06 441.42 121.55 444.89 116.68 440.13" fill="#6AE536"/>
  <path d="M107.57 512C107.645 511.77 107.692 511.531 107.71 511.29C107.79 510.76 107.9 510.08 108.02 509.24C108.08 508.79 108.15 508.29 108.23 507.76C108.31 507.23 108.44 506.63 108.56 506.01C108.8 504.75 109.05 503.32 109.46 501.77C109.65 500.98 109.85 500.16 110.05 499.31C110.25 498.46 110.56 497.6 110.82 496.69C111.31 494.87 112.04 492.98 112.72 490.97C115.908 482.314 120.283 474.142 125.72 466.69C127.02 465.01 128.19 463.36 129.44 461.95C130.05 461.22 130.64 460.53 131.2 459.85L133 458C134.07 456.8 135.12 455.8 136 454.91L137.27 453.66L138.39 452.66L139.93 451.27C140.116 451.117 140.287 450.946 140.44 450.76C140.227 450.876 140.029 451.017 139.85 451.18L138.23 452.48L137.07 453.43L135.76 454.65C134.82 455.52 133.76 456.5 132.64 457.65L130.88 459.48C130.31 460.15 129.71 460.85 129.09 461.56C127.81 462.97 126.62 464.62 125.29 466.3C122.56 470.046 120.075 473.964 117.85 478.03C115.684 482.13 113.793 486.369 112.19 490.72C111.52 492.72 110.81 494.65 110.34 496.5C110.08 497.41 109.84 498.29 109.6 499.14C109.36 499.99 109.22 500.83 109.04 501.62C108.66 503.19 108.44 504.62 108.23 505.9C108.13 506.53 108.03 507.12 107.94 507.66C107.85 508.2 107.84 508.66 107.79 509.16C107.71 510 107.65 510.69 107.6 511.23C107.547 511.483 107.537 511.743 107.57 512Z" fill="#263238"/>
  <path d="M107.9 514.67C107.913 514.57 107.913 514.47 107.9 514.37C107.9 514.14 107.9 513.86 107.84 513.52C107.77 512.72 107.66 511.63 107.54 510.25C107.47 509.54 107.39 508.75 107.3 507.9C107.21 507.05 107.22 506.09 107.16 505.08C107.09 503.08 106.89 500.76 106.97 498.22C106.97 496.94 106.97 495.61 106.97 494.22C106.97 492.83 107.11 491.39 107.18 489.9C107.28 486.9 107.69 483.74 108.05 480.39C109.911 465.893 114.091 451.79 120.43 438.62C121.96 435.62 123.34 432.74 124.89 430.18C125.65 428.89 126.32 427.61 127.07 426.44L129.23 423.08C130.56 420.9 131.97 419.08 133.13 417.43C133.73 416.61 134.26 415.84 134.79 415.15L136.27 413.3L138.27 410.72L138.79 410.04C138.9 409.89 138.96 409.81 138.95 409.8C138.94 409.79 138.87 409.86 138.74 410L138.18 410.64L136.05 413.15L134.57 415C134.03 415.68 133.48 416.44 132.87 417.25C131.68 418.89 130.24 420.7 128.87 422.86L126.67 426.21C125.91 427.38 125.22 428.66 124.45 429.95C122.88 432.51 121.45 435.4 119.93 438.4C113.499 451.591 109.298 465.756 107.5 480.32C107.15 483.68 106.76 486.87 106.68 489.87C106.63 491.37 106.51 492.82 106.5 494.21C106.49 495.6 106.5 496.94 106.5 498.21C106.5 500.76 106.68 503.07 106.79 505.09C106.86 506.09 106.9 507.09 106.98 507.91C107.06 508.73 107.18 509.55 107.27 510.27C107.44 511.64 107.58 512.73 107.68 513.53C107.73 513.87 107.78 514.14 107.81 514.37C107.826 514.474 107.857 514.574 107.9 514.67Z" fill="#263238"/>
  <path d="M83.1199 371.86C83.1533 371.954 83.1969 372.045 83.2499 372.13C83.3599 372.33 83.4899 372.59 83.6599 372.89L85.2799 375.8C85.6299 376.43 86.0499 377.12 86.4599 377.9L87.7299 380.46L89.1999 383.4C89.6899 384.45 90.1999 385.58 90.6899 386.76C91.1799 387.94 91.7699 389.18 92.2999 390.48C92.8299 391.78 93.2999 393.17 93.8799 394.58L94.7099 396.74C94.9599 397.49 95.2199 398.24 95.4799 399.01C95.9899 400.54 96.4799 402.12 97.0699 403.73C99.0699 410.26 101 417.52 102.61 425.24C104.22 432.96 105.27 440.4 106.08 447.18C106.89 453.96 107.29 460.11 107.43 465.28C107.56 467.86 107.59 470.19 107.59 472.28C107.59 474.37 107.59 476.1 107.59 477.54C107.59 478.98 107.59 480.06 107.59 480.87V481.74C107.59 481.93 107.59 482.03 107.59 482.03C107.601 481.934 107.601 481.836 107.59 481.74C107.59 481.51 107.59 481.23 107.65 480.88C107.65 480.06 107.74 478.95 107.81 477.55C107.88 476.15 107.92 474.33 107.92 472.28C107.92 470.23 107.92 467.88 107.85 465.28C107.76 460.1 107.3 453.95 106.63 447.14C105.96 440.33 104.77 432.88 103.2 425.14C101.63 417.4 99.6499 410.14 97.5999 403.59L95.9999 398.83C95.7399 398.06 95.4799 397.3 95.2199 396.56L94.3699 394.4L92.7499 390.3C92.2099 388.99 91.6299 387.77 91.0999 386.58C90.5699 385.39 90.0999 384.27 89.5599 383.23C89.0199 382.19 88.5599 381.23 88.0499 380.3C87.5399 379.37 87.1299 378.54 86.7299 377.75C86.3299 376.96 85.8699 376.3 85.4999 375.68L83.7699 372.83C83.5899 372.53 83.4299 372.29 83.3099 372.1C83.1899 371.91 83.1299 371.85 83.1199 371.86Z" fill="#263238"/>
  <path d="M86.3599 461.18C86.643 461.8 86.9775 462.396 87.3599 462.96C88.0599 464.07 89.0099 465.72 90.1299 467.78C91.2499 469.84 92.4899 472.34 93.7399 475.17C94.9899 478 96.1699 481.17 97.2399 484.62C98.3099 488.07 99.0699 491.35 99.6799 494.39C100.29 497.43 100.68 500.2 100.87 502.54C101.06 504.88 101.25 506.76 101.3 508.07C101.301 508.74 101.357 509.409 101.47 510.07C101.54 509.406 101.563 508.737 101.54 508.07C101.54 506.75 101.54 504.84 101.31 502.5C101.09 499.747 100.733 497.007 100.24 494.29C99.6153 490.962 98.8108 487.671 97.8299 484.43C96.8182 481.202 95.6263 478.034 94.2599 474.94C92.9799 472.1 91.6999 469.6 90.5199 467.56C89.3399 465.52 88.3299 463.9 87.5199 462.83C87.1697 462.255 86.7822 461.704 86.3599 461.18Z" fill="#263238"/>
  <path d="M126.26 505.47H84.45L89.51 548.17H121.05L126.26 505.47Z" fill="#455A64"/>
  <path d="M124.73 543.56L121.18 548.17H89.5099L85.8599 543.71L124.73 543.56Z" fill="#263238"/>
  <path d="M86.0798 518C86.0798 518.17 94.7598 518.31 105.46 518.31C116.16 518.31 124.83 518.17 124.83 518C124.83 517.83 116.16 517.69 105.46 517.69C94.7598 517.69 86.0798 517.86 86.0798 518Z" fill="#FAFAFA"/>
  <path d="M86.0798 520.87C86.0798 521.04 94.7598 521.18 105.46 521.18C116.16 521.18 124.83 521.04 124.83 520.87C124.83 520.7 116.16 520.56 105.46 520.56C94.7598 520.56 86.0798 520.7 86.0798 520.87Z" fill="#FAFAFA"/>
  <path d="M86.5999 523.62C86.5999 523.8 94.9699 523.94 105.3 523.94C115.63 523.94 124 523.8 124 523.62C124 523.44 115.63 523.31 105.3 523.31C94.9699 523.31 86.5999 523.45 86.5999 523.62Z" fill="#FAFAFA"/>
  <path d="M119.87 413.44C119.855 413.576 119.855 413.714 119.87 413.85C119.87 414.16 119.92 414.55 119.96 415.01C120.07 416.08 120.21 417.52 120.39 419.26C120.77 422.85 121.33 427.81 121.97 433.26C121.97 433.47 121.97 433.68 122.04 433.87V434.06H122.23C127.6 434.14 132.43 434.19 135.92 434.21H140.05H141.17C141.43 434.21 141.56 434.21 141.56 434.21C141.436 434.177 141.308 434.161 141.18 434.16L140.06 434.11L135.93 433.98C132.44 433.88 127.61 433.78 122.23 433.7L122.44 433.88C122.44 433.69 122.44 433.48 122.37 433.27C121.73 427.8 121.13 422.85 120.67 419.27C120.44 417.53 120.25 416.1 120.1 415.03C120.04 414.57 119.98 414.19 119.93 413.88C119.938 413.731 119.918 413.581 119.87 413.44Z" fill="#263238"/>
  <path d="M129.38 400.67C129.357 400.809 129.357 400.951 129.38 401.09C129.38 401.41 129.38 401.81 129.38 402.29C129.38 403.39 129.38 404.88 129.38 406.7C129.44 410.42 129.54 415.56 129.68 421.23C129.68 421.46 129.68 421.69 129.68 421.9V422.12H129.9C134.577 421.758 139.271 421.651 143.96 421.8C145.75 421.8 147.2 421.93 148.2 421.98H149.35H149.75C149.75 421.98 149.62 421.98 149.36 421.9L148.21 421.77C147.21 421.67 145.77 421.55 143.97 421.45C139.271 421.218 134.561 421.282 129.87 421.64L130.1 421.85C130.1 421.64 130.1 421.41 130.1 421.18C129.96 415.5 129.81 410.37 129.68 406.65C129.61 404.84 129.55 403.35 129.51 402.25C129.51 401.77 129.51 401.37 129.44 401.05C129.432 400.922 129.411 400.794 129.38 400.67Z" fill="#263238"/>
  <path d="M140.5 396.32C140.384 396.723 140.297 397.134 140.24 397.55C140.08 398.41 139.88 399.55 139.62 400.91C139.08 403.75 138.23 407.66 137.04 411.91L136.91 412.36L137.34 412.16L137.84 411.91C141.362 410.241 145.131 409.151 149 408.68C150.49 408.5 151.7 408.43 152.53 408.4C152.964 408.419 153.4 408.396 153.83 408.33C153.721 408.312 153.609 408.312 153.5 408.33C153.28 408.33 152.95 408.28 152.5 408.28C151.311 408.257 150.122 408.308 148.94 408.43C145.021 408.822 141.2 409.895 137.65 411.6L137.14 411.85L137.44 412.09C138.457 408.439 139.281 404.737 139.91 401C140.15 399.57 140.31 398.41 140.4 397.61C140.479 397.185 140.512 396.752 140.5 396.32Z" fill="#263238"/>
  <path d="M81.46 474.17C81.46 474.23 82.68 474.11 84.63 474.03C87.166 473.933 89.7057 474.017 92.23 474.28C92.83 474.34 93.42 474.42 93.98 474.5H94.18V474.31C94.64 471.78 95.01 469.55 95.27 467.95C95.4405 467.099 95.5508 466.237 95.6 465.37C95.3357 466.197 95.1351 467.043 95 467.9C94.67 469.49 94.24 471.71 93.77 474.23L94.01 474.06C93.44 473.98 92.85 473.9 92.24 473.84C89.6956 473.568 87.1321 473.525 84.58 473.71C83.58 473.79 82.81 473.89 82.27 473.97C81.993 474.004 81.7211 474.072 81.46 474.17Z" fill="#263238"/>
  <path d="M77.5198 466.32C77.5198 466.39 78.6898 466.12 80.5798 465.88C83.0427 465.579 85.5316 465.556 87.9998 465.81L89.3098 465.97H89.5298V465.76C89.7898 463.16 89.9998 460.85 90.1398 459.2C90.2528 458.315 90.2963 457.422 90.2698 456.53C90.0733 457.4 89.9364 458.282 89.8598 459.17C89.6498 460.82 89.3898 463.12 89.1098 465.71L89.3498 465.53L87.9998 465.39C85.5017 465.129 82.9804 465.197 80.4998 465.59C79.7487 465.707 79.0043 465.864 78.2698 466.06C78.0105 466.117 77.7588 466.204 77.5198 466.32Z" fill="#263238"/>
  <path d="M74.6799 392C74.8125 392.087 74.9531 392.16 75.0999 392.22L76.3199 392.76L80.8399 394.68L95.8399 400.89L96.6499 401.22L96.8399 401.3L96.9199 401.11C99.3899 395.53 101.61 390.51 103.25 386.82L105.11 382.5L105.6 381.32C105.659 381.181 105.706 381.037 105.74 380.89C105.654 381.012 105.58 381.143 105.52 381.28C105.37 381.59 105.19 381.97 104.96 382.43L102.96 386.7L96.5099 400.94L96.7899 400.83L95.9799 400.5L80.9999 394.4L76.4299 392.6L75.1799 392.13C75.0203 392.063 74.8519 392.019 74.6799 392Z" fill="#263238"/>
  <path d="M71 373.93C71.1136 374.033 71.2376 374.123 71.37 374.2L72.47 374.91L76.55 377.45L90.16 385.76L90.38 385.89L90.47 385.65L90.72 384.99L96.43 369.59C97.12 367.66 97.69 366.07 98.11 364.91L98.55 363.63C98.612 363.483 98.6524 363.328 98.67 363.17C98.5927 363.308 98.5258 363.452 98.47 363.6L98 364.85C97.56 366 96.94 367.57 96.19 369.49C94.69 373.49 92.64 378.87 90.37 384.85C90.29 385.07 90.2 385.3 90.13 385.5L90.43 385.39L76.72 377.2L72.57 374.77L71.43 374.13C71.2946 374.047 71.1503 373.98 71 373.93Z" fill="#263238"/>
  <path d="M72.22 364.29C72.5013 364.497 72.8028 364.674 73.12 364.82C73.71 365.15 74.56 365.63 75.59 366.27C78.3236 367.962 80.8623 369.951 83.16 372.2L83.69 372.71L83.51 371.99C83.33 371.25 83.16 370.46 83.03 369.65C82.4566 365.936 82.6575 362.143 83.62 358.51C83.9209 357.409 84.278 356.324 84.69 355.26C84.8732 354.884 85.0238 354.492 85.14 354.09C84.91 354.443 84.7093 354.814 84.54 355.2C84.0681 356.246 83.664 357.322 83.33 358.42C82.2703 362.086 82.0246 365.939 82.61 369.71C82.74 370.54 82.92 371.34 83.11 372.1L83.46 371.9C81.1312 369.628 78.5356 367.647 75.73 366C74.67 365.39 73.8 364.94 73.19 364.66C72.8783 364.508 72.5536 364.384 72.22 364.29Z" fill="#263238"/>
  <path d="M119.93 458C119.957 458.365 120.02 458.727 120.12 459.08C120.26 459.77 120.47 460.77 120.7 462.01C121.303 465.284 121.68 468.595 121.83 471.92V472.11H122H122.94C127.09 472.36 130.84 472.57 133.56 472.69L136.78 472.82C137.172 472.857 137.567 472.857 137.96 472.82C137.576 472.733 137.184 472.683 136.79 472.67L133.58 472.4C130.86 472.2 127.11 471.95 122.97 471.7L122.03 471.65L122.23 471.85C122.083 468.539 121.671 465.245 121 462C120.73 460.75 120.48 459.76 120.28 459.08C120.199 458.709 120.082 458.348 119.93 458Z" fill="#263238"/>
  <path d="M128.14 446.26C128.127 446.625 128.151 446.99 128.21 447.35C128.3 448.12 128.41 449.12 128.55 450.35C128.85 452.86 129.3 456.35 129.83 460.27V460.44H130L131.34 460.53C135.59 460.82 139.42 461.26 142.19 461.62L145.47 462.06C145.866 462.134 146.267 462.174 146.67 462.18C146.287 462.047 145.892 461.953 145.49 461.9C144.73 461.74 143.61 461.54 142.23 461.32C139.47 460.89 135.63 460.4 131.37 460.11L130.02 460.02L130.22 460.2C129.68 456.29 129.22 452.8 128.8 450.3C128.61 449.11 128.46 448.12 128.34 447.35C128.314 446.98 128.247 446.615 128.14 446.26Z" fill="#263238"/>
  <path d="M137.81 441.18C137.75 441.18 138.01 442.33 138.3 444.18C138.701 446.627 138.928 449.1 138.98 451.58V451.81H139.22L139.92 451.72C142.538 451.404 145.173 451.247 147.81 451.25H150.22C150.512 451.284 150.808 451.284 151.1 451.25C150.817 451.166 150.525 451.119 150.23 451.11C149.66 451.05 148.84 450.98 147.82 450.95C145.165 450.854 142.507 450.968 139.87 451.29L139.16 451.38L139.4 451.59C139.345 449.091 139.074 446.602 138.59 444.15C138.4 443.22 138.22 442.47 138.08 441.96C138.029 441.688 137.938 441.425 137.81 441.18Z" fill="#263238"/>
  <path d="M82.73 453C83.2655 454.45 83.89 455.866 84.6 457.24C85.1807 458.673 85.8486 460.069 86.6 461.42C86.249 459.887 85.7117 458.403 85 457C84.4035 455.582 83.6416 454.239 82.73 453Z" fill="#263238"/>
  <path d="M77.48 458.53C79.0806 458.775 80.6664 459.109 82.23 459.53C83.7523 460.076 85.2415 460.711 86.69 461.43C85.4419 460.336 83.9558 459.549 82.35 459.13C80.7942 458.559 79.1278 458.354 77.48 458.53Z" fill="#263238"/>
  </g>
  <defs>
  <clipPath id="clip0_444_904">
  <rect width="531" height="552" fill="white"/>
  </clipPath>
  </defs>
  </svg>