<svg width="531" height="552" viewBox="0 0 531 552" fill="none" xmlns="http://www.w3.org/2000/svg">
  <g clip-path="url(#clip0_405_894)">
  <rect x="1.5" y="1.5" width="528" height="549" rx="28.5" fill="#F8F8F8" fill-opacity="0.6" stroke="#F8F8F8" stroke-width="3"/>
  <g clip-path="url(#clip1_405_894)">
  <path d="M177 376.246C48.8801 392.474 -58.3999 443.223 -129.7 512.842V553.818H620.06V481.804C509.93 398.389 345.65 354.935 177 376.246Z" fill="#6AE536" stroke="#263238" stroke-miterlimit="10"/>
  <path d="M67.4299 553.818L60.1599 533.806L28.7599 530.999L8.62991 544.575C8.62991 544.575 -1.5401 550.975 -6.8401 553.316C-7.2504 553.503 -7.67096 553.671 -8.1001 553.818H67.4299Z" fill="white" stroke="#263238" stroke-miterlimit="10"/>
  <path d="M69.06 551.953L61.79 531.941L30.39 529.134L10.26 542.71C10.26 542.71 0.0900316 549.11 -5.20997 551.46C-5.5633 551.618 -5.9833 551.783 -6.46997 551.953H69.06Z" fill="white" stroke="#263238" stroke-miterlimit="10"/>
  <path d="M-0.700005 515.841L-5.13 530.825L14.3 528.366L39.68 493.762L39.76 480.186L71.34 474.481L76.82 463.611L109.34 456.946L109.2 442.547L133 438.68C133 438.68 148.46 429.94 151.89 429.537C155.32 429.135 172.37 431.183 172.37 431.183L192 438.844L216 435.809L234.27 424.162L261 422.479C261 422.479 268.7 424.893 274.41 424.171C280.12 423.449 295.8 415.522 295.8 415.522L332.73 426.118L348.34 431.777L351.48 444.101L369.05 443.571L372.88 435.452L389 438.506L389.54 445.226L356.94 456.142L381 471.757L426.34 482.984L447.69 497.246L473.24 495.728L476.86 486.787L485.59 483.989L451.67 471.318L433 471.958L447 466.792L429.7 454.587L448.92 451.305L476.58 457.979L487.34 476.977L502.64 486.064L519 508.573L547.51 518.529L554.43 545.654L583.87 554.65L584.17 557H611.54L591 541.019L580.13 516.947L601.34 516.801L600.34 508.445L585.27 509.505L596.8 503.801L609.04 496.313L606.94 488.085L589.87 476.675L582.42 459.36C474.34 392.931 327.42 360.421 177 379.428C108.64 388.086 46.25 406.581 -7.94001 432.454L21.85 442.51L9.63 459.323L-11.25 465.366L-7.87001 487.838L-16.39 491.495L-25.51 501.981L-20.59 516.609L-0.700005 515.841Z" fill="white" stroke="#263238" stroke-miterlimit="10"/>
  <path d="M-0.699966 512.669L-5.12997 527.653L14.3 525.194L39.68 490.59L39.76 477.004L71.34 471.309L76.82 460.438L109.34 453.774L109.2 439.365L133 435.507C133 435.507 148.46 426.758 151.89 426.365C155.32 425.972 172.37 428.01 172.37 428.01L192 435.663L216 432.646L234.27 420.998L261 419.289C261 419.289 268.7 421.711 274.41 420.989C280.12 420.267 295.8 412.34 295.8 412.34L332.73 422.936L348.34 428.596L351.48 440.919L369.05 440.389L372.88 432.271L389 435.324L389.54 442.035L356.93 452.951L381 468.575L426.34 479.793L447.69 494.064L473.25 492.519L476.87 483.578L485.6 480.78L451.68 468.109L432.97 468.776L446.97 463.611L429.7 451.378L448.92 448.096L476.58 454.77L487.34 473.786L502.64 482.874L519 505.382L547.51 515.347L554.43 542.464L583.88 551.496L584.18 553.846H611.55L591 537.838L580.13 513.766L601.34 513.62L600.34 505.263L585.27 506.315L596.8 500.619L609.04 493.131L606.94 484.903L589.87 473.494L582.42 456.178C474.34 389.75 327.42 357.194 177 376.246C108.68 384.895 46.29 403.39 -7.89997 429.318L21.89 439.374L9.67003 456.187L-11.21 462.23L-7.82997 484.757L-16.35 488.414L-25.47 498.909L-20.55 513.537L-0.699966 512.669Z" fill="white" stroke="#263238" stroke-miterlimit="10"/>
  <path d="M225.48 552.74L236.35 535.25L256.65 545.398L276.19 553.819H369.53L365.05 540.16L372.91 524.737L356.56 511.535L275.03 497.264L242.09 502.283L238.08 518.913L221.63 509.963L197.54 517.258L202.18 544.667L225.48 552.74Z" fill="white" stroke="#263238" stroke-miterlimit="10"/>
  <path d="M225.17 550.463L236.04 532.965L256.33 543.122L275.88 551.542H369.21L364.74 537.874L372.6 522.46L356.25 509.259L274.72 494.987L241.78 500.007L237.77 516.627L221.32 507.686L197.23 514.982L201.87 542.381L225.17 550.463Z" fill="white" stroke="#263238" stroke-miterlimit="10"/>
  <path d="M422.9 521.802L404.92 520.687L392.37 531.602L406.45 554.422L421.31 552.539L422.9 521.802Z" fill="white" stroke="#263238" stroke-miterlimit="10"/>
  <path d="M422.9 519.233L404.92 518.117L392.37 529.043L406.45 551.862L421.31 549.979L422.9 519.233Z" fill="white" stroke="#263238" stroke-miterlimit="10"/>
  <path d="M533.19 523.95L490.55 514.077L480.03 505.236L471.52 508.856L483.72 524.279L496.03 544.777L514.43 547.538L517.02 543.817L503.59 532.791L535.41 537.243L533.19 523.95Z" fill="white" stroke="#263238" stroke-miterlimit="10"/>
  <path d="M533.19 521.957L490.55 512.084L480.03 503.243L471.52 506.863L483.72 522.286L496.03 542.784L514.43 545.535L517.02 541.824L503.59 530.798L535.41 535.25L533.19 521.957Z" fill="white" stroke="#263238" stroke-miterlimit="10"/>
  <path d="M144 306.709C144 306.709 136.22 313.762 137.12 316.611C138.02 319.46 155.75 340.451 155.75 340.451C155.75 340.451 158.28 344.98 159.91 347.328C161.54 349.676 165.52 352.2 166.78 351.689C168.04 351.179 173.3 346.66 174.02 345.648C174.74 344.636 170.4 341.788 168.41 340.785C166.42 339.783 159.91 336.424 158.1 332.22C156.29 328.016 150.64 318.504 150.64 318.504L153.89 308.769L144 306.709Z" fill="white" stroke="#263238" stroke-miterlimit="10"/>
  <path d="M166.73 351.689C168 351.188 173.25 346.66 173.97 345.648C174.69 344.636 170.35 341.788 168.36 340.785C166.71 339.95 161.95 337.491 159.36 334.289L154.49 338.985L155.72 340.461C155.72 340.461 158.25 344.989 159.88 347.337C161.51 349.685 165.47 352.2 166.73 351.689Z" fill="#6AE536" stroke="#263238" stroke-miterlimit="10"/>
  <path d="M167.82 344.145C167.82 344.145 163.3 349.341 163.12 351.188C162.94 353.035 161.85 360.422 161.85 360.422C161.85 360.422 154.07 370.324 154.07 372.838C154.07 375.353 161.13 381.237 165.83 384.587C170.53 387.937 190.83 391.139 193.68 391.139C196.53 391.139 217.74 389.626 219.37 387.779C221 385.932 221.37 380.726 219.37 376.198C217.37 371.669 204.17 361.257 203.09 360.255C202.01 359.252 199.09 349.007 196.22 346.66C193.35 344.312 180.66 343.801 178.67 343.968C176.68 344.135 169.45 343.968 167.82 344.145Z" fill="#9C9C9C" stroke="#263238" stroke-miterlimit="10"/>
  <path d="M203.86 384.643C211.01 387.668 213.47 388.763 215.2 386.925C216.365 385.802 217.039 384.317 217.09 382.759" stroke="#263238" stroke-miterlimit="10"/>
  <path d="M167.79 346.567C167.79 346.567 165.04 354.77 166.2 360.422C167.36 366.073 189.25 378.583 199.69 382.889L200.64 383.288" stroke="#263238" stroke-miterlimit="10"/>
  <path d="M198.41 365.683C200.25 367.985 201.72 369.711 201.72 369.711" stroke="#263238" stroke-miterlimit="10"/>
  <path d="M179 346.567C179 346.567 190.45 354.77 193.64 359.345C194.64 360.793 195.83 362.352 196.97 363.818" stroke="#263238" stroke-miterlimit="10"/>
  <path d="M175.77 346.966C175.77 346.966 180.99 353.564 182.87 359.215" stroke="#263238" stroke-miterlimit="10"/>
  <path d="M162.43 361.368C162.049 362.911 162.209 364.527 162.887 365.979C163.565 367.432 164.726 368.645 166.2 369.442" stroke="#263238" stroke-miterlimit="10"/>
  <path d="M164.56 340.284L170.17 339.607C170.17 339.607 174.17 343.133 175.05 343.467C175.93 343.801 177.22 345.323 175.96 345.815C174.7 346.307 170.35 343.634 170.35 343.634C169.017 344.086 167.609 344.316 166.19 344.312L164.56 344.145" fill="#6AE536"/>
  <path d="M164.56 340.284L170.17 339.607C170.17 339.607 174.17 343.133 175.05 343.467C175.93 343.801 177.22 345.323 175.96 345.815C174.7 346.307 170.35 343.634 170.35 343.634C169.017 344.086 167.609 344.316 166.19 344.312L164.56 344.145" stroke="#263238" stroke-miterlimit="10"/>
  <path d="M172.7 280.716C172.7 280.716 162.89 276.438 146.02 270.415C129.15 264.392 116.31 262.648 102.02 265.868C87.73 269.088 77.36 276.308 77.93 289.021C78.5 301.735 93.08 337.064 92.07 339.347C91.06 341.63 81.68 349.555 78.94 358.213C76.2 366.871 72.6 388.058 72.17 389.672C71.74 391.287 68.7 390.47 68.42 394.758C68.14 399.045 67 403.592 67 404.808C67 406.024 76 406.952 83 407.592C90 408.232 96.42 408.13 98.44 406.525C100.46 404.919 100.31 403.314 99.01 402.813C96.2309 401.451 93.8152 399.529 91.94 397.189C89.49 394.108 86.03 392.243 85.6 390.229C85.17 388.215 86.6 382.87 86.6 382.87C86.6 382.87 94.82 363.326 98.71 357.443C102.6 351.559 109.53 347.532 110.71 341.11C111.441 336.008 111.732 330.86 111.58 325.715C111.58 325.715 118.94 340.711 119.51 343.523C120.08 346.335 115.51 350.344 117.51 361.155C119.51 371.966 122.27 389.793 122.51 390.591C122.75 391.389 120.78 391.129 120.92 393.672C121.06 396.215 120.06 403.713 120.78 404.112C121.5 404.511 129.29 404.919 132.32 404.251C135.35 403.583 142.27 402.776 144.43 403.323C146.59 403.871 153.81 404.121 155.54 402.915C157.27 401.708 157.27 398.098 156.69 398.098C153.871 397.514 151.187 396.471 148.76 395.018C145.01 392.883 137.65 391.139 136.36 389.533C135.07 387.928 134.63 387.13 134.63 386.452C134.63 385.775 135.35 368.115 134.77 363.568C134.19 359.02 135.35 346.567 135.35 343.356C135.35 340.145 137.22 336.804 136.07 331.041C134.92 325.278 130.16 309.632 129 306.282C127.84 302.932 126 298.116 126 298.116C128.897 301.539 132.522 304.373 136.65 306.44C140.236 308.09 144.058 309.255 148 309.901L161 319.534L164.17 310.699L164.75 307.359C166.035 306.321 167.241 305.201 168.36 304.009C169.94 302.273 172.11 300.659 173.36 298.385C174.61 296.111 172.7 280.716 172.7 280.716Z" fill="white" stroke="#263238" stroke-miterlimit="10"/>
  <path d="M134.77 363.568C134.19 359.02 135.35 346.567 135.35 343.356C135.35 340.145 137.22 336.804 136.07 331.041C134.92 325.278 130.16 309.632 129 306.282C127.84 302.932 126 298.116 126 298.116C127.565 299.945 129.332 301.618 131.27 303.108L128.1 293.309C128.1 293.309 114.28 292.381 107.37 287.091C102.37 283.323 97.7699 273.171 95.5499 267.714C84.7499 271.529 77.4899 278.331 77.9699 289.058C78.5499 301.772 93.1199 337.101 92.1099 339.384C91.0999 341.667 81.7199 349.592 78.9799 358.25C76.9799 364.579 74.5399 377.497 73.1799 384.689C74.736 386.236 76.7202 387.356 78.9159 387.927C81.1116 388.498 83.4342 388.499 85.6299 387.928C85.8572 386.228 86.1911 384.543 86.6299 382.879C86.6299 382.879 94.8499 363.336 98.7399 357.452C102.63 351.569 109.56 347.541 110.74 341.119C111.471 336.017 111.762 330.869 111.61 325.724C111.61 325.724 118.97 340.72 119.54 343.532C120.11 346.344 115.54 350.353 117.54 361.164C118.92 368.542 120.63 379.139 121.67 385.413C126.13 386.072 131.04 385.997 134.79 383.798C134.88 378.546 135.22 367.103 134.77 363.568Z" fill="#263238" stroke="#263238" stroke-miterlimit="10"/>
  <path d="M146 270.415C129.13 264.392 116.29 262.648 102 265.868C95.28 267.38 89.42 269.784 85.16 273.227C84.38 275.918 84.97 279.723 90.32 284.465C101.14 293.968 106.18 297.717 114.26 297.717C122.34 297.717 124.79 296.51 124.79 296.51C124.79 296.51 125.67 298.218 126.79 300.222C126.32 299.016 126 298.088 126 298.088C128.894 301.521 132.519 304.364 136.65 306.44C140.236 308.09 144.058 309.255 148 309.901L161 319.534L164.17 310.699L164.75 307.359C166.035 306.321 167.241 305.201 168.36 304.009C169.94 302.273 172.11 300.659 173.36 298.385C174.61 296.111 172.64 280.753 172.64 280.753C172.64 280.753 162.89 276.438 146 270.415Z" fill="#6AE536" stroke="#263238" stroke-miterlimit="10"/>
  <path d="M179.19 282.191C179.19 282.191 182.94 276.837 192.61 276.308C202.28 275.779 208.76 277.774 213.23 288.372C217.7 298.97 214.96 305.633 214.96 309.113C214.96 312.593 216.69 321.965 214.82 324.889C212.95 327.812 210.06 328.768 209.91 330.373C209.867 330.828 209.967 331.285 210.198 331.688C210.429 332.092 210.78 332.425 211.21 332.647C211.21 332.647 209.48 333.992 205.15 331.31C200.82 328.628 201.15 325.288 200.97 323.413C200.79 321.539 198.97 324.619 194.91 322.745C190.85 320.87 191.91 316.991 192.03 315.785C192.15 314.579 190.44 314.718 188.13 314.05C185.82 313.381 184.53 308.296 185.25 305.753C185.97 303.211 184.38 299.99 181.64 299.99C178.9 299.99 177.32 296.38 177.32 291.694C177.428 288.458 178.059 285.254 179.19 282.191Z" fill="#263238" stroke="#263238" stroke-miterlimit="10"/>
  <path d="M207.6 301.865C206.901 303.498 205.561 304.824 203.85 305.577C200.85 307.053 198.66 307.053 197.51 308.361C196.36 309.669 196.51 311.711 195.63 311.971C194.75 312.231 192.46 311.043 192.46 311.043C192.46 311.043 190.01 311.451 186.55 311.85C183.09 312.249 181.5 311.451 181.21 309.707C180.92 307.962 180.92 301.28 181.64 299.935C182.103 299.097 182.634 298.293 183.23 297.531C183.23 297.531 181.93 294.051 184.38 292.307C186.83 290.562 188.28 291.239 188.86 292.715C189.16 293.865 189.108 295.07 188.71 296.195L193.33 294.988C193.33 294.988 196.33 298.06 199.24 299.137C202.15 300.213 206.88 299.406 206.88 299.406L207.6 301.865Z" fill="white" stroke="#263238" stroke-miterlimit="10"/>
  <path d="M189.14 310.152C189.229 309.238 189.574 308.362 190.14 307.609" stroke="#263238" stroke-miterlimit="10"/>
  <path d="M197.94 305.614L195.06 305.883C194.789 305.747 194.553 305.559 194.367 305.332C194.181 305.104 194.049 304.842 193.981 304.564C193.913 304.285 193.909 303.996 193.971 303.717C194.033 303.437 194.159 303.172 194.34 302.941" stroke="#263238" stroke-miterlimit="10"/>
  <path d="M197.22 302.273C197.22 302.273 199.96 303.34 199.38 305.753" stroke="#263238" stroke-miterlimit="10"/>
  <path d="M186.26 281.792C186.26 281.792 181.36 281.393 179.19 282.191C177.02 282.989 172.7 280.716 172.7 280.716C172.7 280.716 170.25 280.456 169.7 285.402C169.331 288.284 169.991 291.199 171.58 293.699C171.58 293.699 168.12 291.564 168.41 294.775C168.7 297.986 171.72 302.004 172.59 302.941C173.46 303.879 170.86 302.672 171.59 305.076C172.32 307.479 177.5 310.161 179.81 310.57C182.12 310.978 182.41 309.762 182.55 304.816C182.552 302.391 182.793 299.971 183.27 297.587C183.27 297.587 181.68 291.564 183.85 288.882C186.02 286.2 189.76 285.402 190.05 282.73" fill="#263238"/>
  <path d="M186.26 281.792C186.26 281.792 181.36 281.393 179.19 282.191C177.02 282.989 172.7 280.716 172.7 280.716C172.7 280.716 170.25 280.456 169.7 285.402C169.331 288.284 169.991 291.199 171.58 293.699C171.58 293.699 168.12 291.564 168.41 294.775C168.7 297.986 171.72 302.004 172.59 302.941C173.46 303.879 170.86 302.672 171.59 305.076C172.32 307.479 177.5 310.161 179.81 310.57C182.12 310.978 182.41 309.762 182.55 304.816C182.552 302.391 182.793 299.971 183.27 297.587C183.27 297.587 181.68 291.564 183.85 288.882C186.02 286.2 189.76 285.402 190.05 282.73" stroke="#263238" stroke-miterlimit="10"/>
  <path d="M109.24 277.839C109.24 277.839 117.32 289.216 122.51 293.615" stroke="#263238" stroke-miterlimit="10"/>
  <path d="M116.6 277.44C116.6 277.44 118.18 285.068 121.21 290.024" stroke="#263238" stroke-miterlimit="10"/>
  <path d="M95.6799 282.795C95.6799 282.795 107.94 292.696 118.33 293.235" stroke="#263238" stroke-miterlimit="10"/>
  <path d="M145.15 298.45L148.33 307.953" stroke="#263238" stroke-miterlimit="10"/>
  <path d="M98.43 406.534C100.43 404.929 100.3 403.323 99 402.822C96.2209 401.46 93.8052 399.539 91.93 397.198C89.48 394.117 86.02 392.252 85.59 390.238C85.5671 390.128 85.5504 390.016 85.54 389.904C84.23 389.784 81.93 389.7 80.59 390.313C78.59 391.241 78.86 393.523 76.48 393.523C74.1 393.523 73.48 392.92 73.35 392.02C73.1747 391.369 72.7521 390.799 72.16 390.415L71.85 390.257C70.95 391.185 68.67 391.111 68.43 394.795C68.14 399.073 66.98 403.62 66.98 404.827C66.98 406.033 75.98 406.97 82.98 407.611C89.98 408.251 96.41 408.139 98.43 406.534Z" fill="white" stroke="#263238" stroke-miterlimit="10"/>
  <path d="M156.69 398.098C153.871 397.514 151.187 396.471 148.76 395.018C145.09 392.92 137.96 391.213 136.46 389.635C134.924 390.663 133.262 391.52 131.51 392.187C128.81 393.115 124.92 393.189 124.38 392.187C123.933 391.503 123.284 390.952 122.51 390.6C122.8 391.408 120.78 391.139 120.92 393.681C121.06 396.224 120.06 403.722 120.78 404.121C121.5 404.52 129.29 404.929 132.32 404.26C135.35 403.592 142.27 402.785 144.43 403.332C146.59 403.88 153.81 404.13 155.54 402.924C157.27 401.718 157.27 398.098 156.69 398.098Z" fill="white" stroke="#263238" stroke-miterlimit="10"/>
  <path d="M149.05 306.486C149.05 306.486 147.05 326.967 148.47 338.474C149.89 349.982 152.37 381.441 152.37 381.441L159.72 380.364L158.72 336.999L161.46 318.532L149.05 306.486Z" fill="white" stroke="#263238" stroke-miterlimit="10"/>
  <path d="M166.05 392.846C166.05 392.846 171.85 393.923 173.16 393.653C174.47 393.384 178.96 392.725 179.54 392.577C180.12 392.428 186.21 390.563 187.95 392.447C189.69 394.331 189.95 398.498 187.66 400.521C185.37 402.544 180.84 402.943 176.78 402.377C172.72 401.811 171.11 401.514 168.66 401.3C166.21 401.087 167.55 399.797 164.34 400.548C161.13 401.3 154.89 401.161 151.99 400.892C149.09 400.623 145.61 398.878 146.34 394.164C147.07 389.45 150.43 388.883 151.5 389.57C152.57 390.257 166.05 392.846 166.05 392.846Z" fill="white" stroke="#263238" stroke-miterlimit="10"/>
  <path d="M188.82 393.923C188.82 393.923 194.18 393.793 194.32 394.461C194.449 395.545 194.351 396.641 194.03 397.69C193.74 398.228 189.4 398.368 189.4 398.368L188.82 393.923Z" fill="#6AE536" stroke="#263238" stroke-miterlimit="10"/>
  <path d="M159.58 377.692L150.92 379.965C150.92 379.965 150.49 388.132 151.5 389.598C152.394 391.225 153.117 392.928 153.66 394.683C153.66 394.683 153.81 399.37 154.39 400.576C154.97 401.783 157.52 401.402 158.86 401.913C160.47 402.534 162.86 398.247 163.27 396.836C163.47 396.103 164.48 399.769 164.34 400.548C164.318 400.761 164.376 400.973 164.503 401.151C164.63 401.328 164.82 401.46 165.039 401.523C165.259 401.586 165.495 401.577 165.708 401.498C165.921 401.418 166.099 401.273 166.21 401.087C167.06 398.841 167.113 396.402 166.36 394.127C165.49 392.271 161.31 383.687 161.02 382.749C160.73 381.812 159.58 377.692 159.58 377.692Z" fill="#6AE536" stroke="#263238" stroke-miterlimit="10"/>
  <path d="M159.79 396.901C159.745 398.013 159.594 399.118 159.34 400.205C158.998 400.801 158.548 401.338 158.01 401.792" stroke="#263238" stroke-miterlimit="10"/>
  <path d="M156.89 396.456C156.89 396.456 156.75 399.147 156.6 399.899C156.438 400.503 156.189 401.083 155.86 401.625" stroke="#263238" stroke-miterlimit="10"/>
  <path d="M299.41 386.053H241.24L236.1 289.819H304.55L299.41 386.053Z" fill="#6AE536" stroke="#263238" stroke-miterlimit="10"/>
  <path d="M308 287.574H232.65V292.065H308V287.574Z" fill="#6AE536" stroke="#263238" stroke-miterlimit="10"/>
  <path d="M298.83 336.136L289.2 350.566C288.789 351.219 288.191 351.753 287.472 352.11C286.754 352.467 285.943 352.633 285.13 352.589C283.07 352.589 281.01 352.589 278.75 352.589V356.868L278.43 356.932C277.87 356.004 277.31 355.16 276.76 354.269C275.33 351.958 273.89 349.629 272.5 347.309C272.4 347.144 272.338 346.961 272.319 346.773C272.3 346.584 272.324 346.393 272.39 346.214C274.39 342.734 276.39 339.273 278.55 335.551V340.785H287.8L280.61 329.13L292.3 322.847C294.49 326.559 296.66 330.215 298.83 333.872V336.136Z" fill="white"/>
  <path d="M264.26 307.479C264.765 307.575 265.276 307.643 265.79 307.684C270.33 307.748 274.88 307.823 279.42 307.851C280.314 307.796 281.206 307.99 281.982 308.406C282.758 308.822 283.384 309.443 283.78 310.189C284.78 311.841 285.78 313.428 286.89 315.117L291 312.936L291.16 313.057C290.14 314.795 289.117 316.524 288.09 318.244C287.2 319.766 286.31 321.288 285.38 322.782C285.293 322.938 285.173 323.076 285.027 323.188C284.881 323.299 284.712 323.382 284.53 323.432C280.28 323.664 276.04 323.831 271.7 323.803C273.19 322.977 274.7 322.16 276.27 321.307L271.57 313.883C269.14 317.938 266.8 321.854 264.44 325.78L252.68 319.757C253.28 318.755 253.83 317.808 254.39 316.861C255.45 315.089 256.59 313.344 257.55 311.525C257.991 310.579 258.644 309.73 259.464 309.034C260.284 308.338 261.254 307.811 262.31 307.489L264.26 307.479Z" fill="white"/>
  <path d="M247.82 327.376L243.71 325.065V324.87H248.26C250.33 324.87 252.4 324.981 254.46 324.87C255.103 324.772 255.763 324.876 256.335 325.165C256.907 325.454 257.359 325.912 257.62 326.466C259.5 329.529 261.56 332.498 263.43 335.663L258.74 333.046L254.1 340.516H268.6V353.035H266.6C263.6 353.035 260.52 353.035 257.47 353.035C256.286 353.078 255.115 352.796 254.105 352.223C253.094 351.65 252.289 350.812 251.79 349.815C249.45 345.611 247.11 341.407 244.68 337.24C244.15 336.48 243.878 335.59 243.899 334.685C243.921 333.78 244.234 332.902 244.8 332.164C245.83 330.642 246.75 329.046 247.82 327.376Z" fill="white"/>
  <path d="M208.97 122.97H55.8799V322.63H208.97V122.97Z" stroke="#263238" stroke-linecap="round" stroke-linejoin="round"/>
  <path d="M198.43 136.72H66.4199V308.89H198.43V136.72Z" stroke="#263238" stroke-linecap="round" stroke-linejoin="round"/>
  <path d="M162.88 183.09H101.98V262.51H162.88V183.09Z" stroke="#263238" stroke-linecap="round" stroke-linejoin="round"/>
  <path d="M452.13 142.02H385.35V229.11H452.13V142.02Z" stroke="#263238" stroke-linecap="round" stroke-linejoin="round"/>
  <path d="M447.54 148.02H389.95V223.12H447.54V148.02Z" stroke="#263238" stroke-linecap="round" stroke-linejoin="round"/>
  <path d="M432.02 168.25H405.46V202.89H432.02V168.25Z" stroke="#263238" stroke-linecap="round" stroke-linejoin="round"/>
  <path d="M376.95 116.34H329.76V177.88H376.95V116.34Z" stroke="#263238" stroke-linecap="round" stroke-linejoin="round"/>
  <path d="M373.7 120.58H333.01V173.65H373.7V120.58Z" stroke="#263238" stroke-linecap="round" stroke-linejoin="round"/>
  <path d="M362.74 134.87H343.97V159.35H362.74V134.87Z" stroke="#263238" stroke-linecap="round" stroke-linejoin="round"/>
  <path d="M168.77 336.77C168.77 336.77 199.56 340.85 204.77 347.19C209.98 353.53 210.65 359.41 211.56 364.19C212.47 368.97 220.62 423.73 221.75 435.05C222.88 446.37 224.24 450.9 222.2 455.43C220.16 459.96 209.07 467.43 203.41 468.1C197.75 468.77 192.32 468.33 188.47 466.75C184.62 465.17 172.17 457.24 172.17 457.24L39.5 467.4C39.5 467.4 69.84 358.06 75.5 349.45C81.16 340.84 104.5 334.06 118.5 331.79C132.5 329.52 168.77 336.77 168.77 336.77Z" fill="#6AE536" stroke="#263238" stroke-linecap="round" stroke-linejoin="round"/>
  <path d="M183.94 416.69C183.94 416.69 193.68 410.81 207.26 416.69" stroke="#263238" stroke-linecap="round" stroke-linejoin="round"/>
  <path d="M184.62 411C184.62 411 194.62 400.59 205.62 396.74" stroke="#263238" stroke-linecap="round" stroke-linejoin="round"/>
  <path d="M197.38 384.2C198.32 382.97 199.21 381.85 200.01 380.92" stroke="#263238" stroke-linecap="round" stroke-linejoin="round"/>
  <path d="M183.71 404.47C183.71 404.47 189.34 395.42 194.65 387.93" stroke="#263238" stroke-linecap="round" stroke-linejoin="round"/>
  <path d="M99.54 236.15C99.54 236.15 82 234.89 72.74 242.41C63.48 249.93 71 252.68 71 252.68C71 252.68 55.47 257.94 55.47 266.68C55.47 275.42 61.21 272 61.21 272C61.21 272 46.21 290 46.68 298.3C47.15 306.6 54.68 301.81 54.68 301.81C54.68 301.81 52.92 319.6 56.93 325.11C60.94 330.62 69.46 328.62 69.46 328.62C69.46 328.62 68.71 337.62 73.22 337.38C77.73 337.14 84.22 332.87 84.22 332.87C84.22 332.87 85.47 347.87 91.99 350.41C98.51 352.95 105.99 352.16 107.99 349.91C109.474 348.064 110.736 346.051 111.75 343.91C111.75 343.91 114 351.17 116.75 345.91C119.5 340.65 118.75 331.91 117.25 329.63C115.75 327.35 106.25 306.83 106.25 303.32C106.25 299.81 120.58 267 121.09 266C121.6 265 150.65 272 151.65 272.76C152.65 273.52 168.18 315.6 168.18 315.6C168.18 315.6 163.67 323.11 164.42 329.88C165.17 336.65 167.93 340.4 176.42 331.88C184.91 323.36 193.2 308.88 193.2 308.88C193.2 308.88 195.2 321.88 200.97 309.13C206.74 296.38 200.22 282.82 197.97 276.56C195.72 270.3 190.46 263.56 190.46 263.56C190.46 263.56 197.72 268.82 197.22 259.8C196.72 250.78 170.92 226.74 160.4 222.48C149.88 218.22 134.34 219.22 134.34 219.22C134.34 219.22 139.85 214.71 133.84 214.46C127.83 214.21 92.78 215.35 99.54 236.15Z" fill="#263238" stroke="#263238" stroke-linecap="round" stroke-linejoin="round"/>
  <path d="M167.393 312.314C174.188 310.974 178.274 302.679 176.52 293.787C174.766 284.896 167.836 278.774 161.041 280.115C154.246 281.455 150.16 289.75 151.914 298.641C153.668 307.533 160.599 313.654 167.393 312.314Z" fill="white" stroke="#263238" stroke-linecap="round" stroke-linejoin="round"/>
  <path d="M108.1 340.85C107.448 353.068 107.448 365.312 108.1 377.53C109.23 395.41 106.97 401.75 109 401.98C111.03 402.21 110.81 402.66 113.3 399.26C115.79 395.86 124.85 381.15 125.98 381.83C127.11 382.51 127.79 386.13 128.25 389.3C128.71 392.47 138 408.77 138 408.77C138 408.77 144.79 395.64 146.38 392.69C147.97 389.74 147.96 389.3 149.55 385.22C151.14 381.14 152.26 386.13 156.55 391.79C160.84 397.45 167.41 406.28 168.09 403.11C168.77 399.94 163.56 387.26 162.89 374.36C162.22 361.46 163.79 344.24 162.43 339.49C161.07 334.74 147 327.27 125.76 327.27C104.52 327.27 108.1 340.85 108.1 340.85Z" fill="white" stroke="#263238" stroke-linecap="round" stroke-linejoin="round"/>
  <path d="M117.33 329.59C117.33 329.59 125.33 356.47 129.33 377.3C133.33 398.13 137.93 408.77 137.93 408.77C137.93 408.77 146.53 387.71 151.29 370.28C154.173 359.655 156.292 348.838 157.63 337.91L117.33 329.59Z" fill="#ADADAD" stroke="#263238" stroke-linecap="round" stroke-linejoin="round"/>
  <path d="M156.32 342.21C156.32 342.21 148.85 350.36 148.17 359.21" stroke="#263238" stroke-linecap="round" stroke-linejoin="round"/>
  <path d="M128.91 375C129.07 375.79 129.23 376.58 129.38 377.35C133.45 398.18 137.98 408.82 137.98 408.82C137.98 408.82 144.85 392 149.71 375.98C143.05 377.93 134.46 376.4 128.91 375Z" fill="#263238" stroke="#263238" stroke-linecap="round" stroke-linejoin="round"/>
  <path d="M115.32 255.18L99 299.53C99 299.53 105.76 319.53 108.77 324.83C111.78 330.13 117.54 333.6 124.05 336.6C130.56 339.6 152.11 344.87 156.62 343.12C161.13 341.37 171.9 323.83 172.9 319.82C173.9 315.81 162.38 273.47 161.38 271.47C160.38 269.47 115.32 255.18 115.32 255.18Z" fill="#ADADAD" stroke="#263238" stroke-linecap="round" stroke-linejoin="round"/>
  <path d="M121.84 299.53C121.84 299.53 129.35 302.28 134.84 297.02" stroke="#263238" stroke-linecap="round" stroke-linejoin="round"/>
  <path d="M116.33 291.51C116.33 291.51 118.33 285.75 123.09 283.74C127.85 281.73 134.61 283.24 134.36 285C134.11 286.76 129.36 285.25 126.6 285.5C123.84 285.75 116.33 291.51 116.33 291.51Z" fill="#263238"/>
  <path d="M148.39 285C148.39 285 149.89 280.24 152.65 280C155.41 279.76 164.6 282.56 161.92 282.25C159.7 282 151.32 281.67 148.39 285Z" fill="#263238"/>
  <path d="M153.15 293.76C153.15 293.76 159.92 295.02 162.67 291.26" stroke="#263238" stroke-linecap="round" stroke-linejoin="round"/>
  <path d="M148.39 285C148.39 285 146.39 288.75 148.89 293.76" stroke="#263238" stroke-linecap="round" stroke-linejoin="round"/>
  <path d="M156.66 307C154.691 308.77 152.39 310.13 149.89 311" stroke="#263238" stroke-linecap="round" stroke-linejoin="round"/>
  <path d="M132.36 312.8C132.36 312.8 136.12 317.8 140.88 318.31C145.64 318.82 154.15 316.81 156.66 315.31" stroke="#263238" stroke-linecap="round" stroke-linejoin="round"/>
  <path d="M134.11 311.05L130.86 314.81" stroke="#263238" stroke-linecap="round" stroke-linejoin="round"/>
  <path d="M90.35 298.52C90.35 298.52 79.77 279.92 86.61 261.52C93 244.36 102 241.17 102.08 241C102.16 240.83 90.19 240.83 82.7 258.26C75.21 275.69 84.49 301.91 84.49 301.91L90.35 298.52Z" fill="white" stroke="#263238" stroke-linecap="round" stroke-linejoin="round"/>
  <path d="M207 450.88C203.38 447.71 202.25 444.77 200.66 444.54C199.07 444.31 198.17 442.95 192.97 444.31C189.06 445.31 179.57 446.22 175.06 446.6V446.35H143.87C122.81 446.35 97.23 444.09 97.23 444.09L91.8 474.2C91.8 474.2 102.21 472.61 120.8 470.8C132.27 469.68 149.8 465.88 161.5 463.14L173.32 461.52C173.32 461.52 183.05 463.78 189.39 462.88C193.1 462.398 196.581 460.821 199.39 458.35C199.39 458.35 199.39 460.84 200.52 461.52C201.65 462.2 210.7 460.16 212.29 459.71C213.88 459.26 213.87 459.03 214.1 456.54C214.33 454.05 210.65 454.05 207 450.88Z" fill="#ADADAD" stroke="#263238" stroke-linecap="round" stroke-linejoin="round"/>
  <path d="M166.73 425.52C166.73 425.52 156.73 433.45 157.73 435.52C158.73 437.59 162.94 442.77 162.94 443.9C162.94 445.03 157.28 459.52 161.12 462.24C164.96 464.96 177.88 470.84 192.37 470.61C206.86 470.38 213.87 459.07 215.69 456.12C217.51 453.17 214.33 436.88 211.61 429.18C208.89 421.48 197.61 418.54 187.61 419.9C177.61 421.26 166.73 425.52 166.73 425.52Z" fill="white" stroke="#263238" stroke-linecap="round" stroke-linejoin="round"/>
  <path d="M99.79 323.37C99.79 323.37 102.51 333.26 111.72 350.31C120.93 367.36 125.72 403.15 130.47 416.45C135.22 429.75 139.34 434.18 139.34 434.18C139.34 434.18 147.18 410 154 386.45C160.82 362.9 170.25 341.99 168.77 336.77" stroke="#263238" stroke-linecap="round" stroke-linejoin="round"/>
  <path d="M166.28 316C166.28 316 158.58 325.05 159.94 326.18C161.3 327.31 162.43 328.18 163.56 327.54C164.69 326.9 166.51 325.73 166.51 325.73C166.51 325.73 159.04 334.79 156.32 342.26C153.6 349.73 156.55 349.05 157.23 354.26C157.91 359.47 164.47 422.63 165.15 431.26C165.83 439.89 167.87 445.52 177.6 446.88C187.33 448.24 199.34 439.88 200.47 437.37C201.6 434.86 202.47 431.71 200.69 426.28C198.91 420.85 168.64 359.66 170.81 355.19C174.43 347.72 187.56 323.95 188.24 321.69C188.92 319.43 177.37 313.76 175.34 312.18C173.31 310.6 167.19 313.68 166.28 316Z" fill="#ADADAD" stroke="#263238" stroke-linecap="round" stroke-linejoin="round"/>
  <path d="M166.28 316C166.876 315.291 167.674 314.782 168.568 314.539C169.461 314.296 170.407 314.331 171.28 314.64C174.22 315.77 178.98 319.84 178.28 321.64" stroke="#263238" stroke-linecap="round" stroke-linejoin="round"/>
  <path d="M171 312.32C171 312.32 173.71 311.87 177.56 314.32C181.41 316.77 184.35 319.07 184.13 320.43" stroke="#263238" stroke-linecap="round" stroke-linejoin="round"/>
  <path d="M166.51 325.68L169.9 323.19L167.87 321.6" stroke="#263238" stroke-linecap="round" stroke-linejoin="round"/>
  <path d="M86.3599 341.75C86.3599 341.75 74.9999 341.3 63.9999 353.07C52.9999 364.84 50.4199 382.07 50.4199 382.07C50.4199 382.07 38.6399 429.84 34.3399 449.07C30.0399 468.3 30.4899 472.61 39.5499 476.23C48.6099 479.85 57.6599 478.5 64.6799 478.5C69.0275 478.48 73.3576 477.946 77.5799 476.91L90.9399 441.82L93.8799 428.69C93.8799 428.69 104.52 416.47 104.75 396.77" fill="#6AE536"/>
  <path d="M86.3599 341.75C86.3599 341.75 74.9999 341.3 63.9999 353.07C52.9999 364.84 50.4199 382.07 50.4199 382.07C50.4199 382.07 38.6399 429.84 34.3399 449.07C30.0399 468.3 30.4899 472.61 39.5499 476.23C48.6099 479.85 57.6599 478.5 64.6799 478.5C69.0275 478.48 73.3576 477.946 77.5799 476.91L90.9399 441.82L93.8799 428.69C93.8799 428.69 104.52 416.47 104.75 396.77" stroke="#263238" stroke-linecap="round" stroke-linejoin="round"/>
  <path d="M85.4699 394.29C85.0099 393.01 84.5499 391.85 84.0999 390.88" stroke="#263238" stroke-linecap="round" stroke-linejoin="round"/>
  <path d="M93.8298 428.69C93.8298 428.69 90.4598 410.51 86.8298 398.34" stroke="#263238" stroke-linecap="round" stroke-linejoin="round"/>
  <path d="M80.93 439.33C80.93 439.33 70.74 428 58.74 424.84" stroke="#263238" stroke-linecap="round" stroke-linejoin="round"/>
  <path d="M49.4599 434.82C48.163 434.802 46.8693 434.95 45.6099 435.26" stroke="#263238" stroke-linecap="round" stroke-linejoin="round"/>
  <path d="M72.55 440.24C72.55 440.24 61.25 435.77 52.23 434.95" stroke="#263238" stroke-linecap="round" stroke-linejoin="round"/>
  <path d="M99.2699 443.41C99.2699 443.41 98.5899 469.9 97.9099 472.61C97.2299 475.32 96.7799 475.56 94.0599 476.91C91.3399 478.26 68.6999 480.08 64.3999 480.08C60.0999 480.08 55.3499 472.39 58.7399 457.44C62.1299 442.49 69.3799 433.9 74.8199 433.9C80.2599 433.9 98.3599 441.37 98.3599 441.37L99.2699 443.41Z" fill="white" stroke="#263238" stroke-linecap="round" stroke-linejoin="round"/>
  <path d="M99.2303 326.912C105.591 324.173 107.842 315.204 104.257 306.88C100.672 298.556 92.6094 294.029 86.2485 296.769C79.8877 299.508 77.6373 308.477 81.2221 316.801C84.8069 325.124 92.8695 329.652 99.2303 326.912Z" fill="white" stroke="#263238" stroke-linecap="round" stroke-linejoin="round"/>
  <path d="M94.3025 324.358C98.5177 322.542 100.01 316.601 97.6352 311.087C95.2606 305.573 89.9185 302.575 85.7033 304.391C81.4881 306.206 79.996 312.147 82.3706 317.661C84.7452 323.175 90.0873 326.173 94.3025 324.358Z" fill="white" stroke="#263238" stroke-linecap="round" stroke-linejoin="round"/>
  <path d="M336.17 455.37V459.53" stroke="#263238" stroke-width="2" stroke-linecap="round" stroke-linejoin="round"/>
  <path d="M139.34 434.18C139.34 434.18 144.79 444.75 145.82 456.34C146.85 467.93 159.11 483.28 189.82 483.96C220.53 484.64 233.82 488.05 259.72 493.85C285.62 499.65 302.34 498.62 307.79 482.26C313.24 465.9 328.59 457.37 336.19 455.37" stroke="#263238" stroke-linecap="round" stroke-linejoin="round"/>
  <path d="M115.93 477.52L43.2 518.16L171.54 544.68L234 495.06L115.93 477.52Z" fill="#6AE536" stroke="#263238" stroke-linecap="round" stroke-linejoin="round"/>
  <path d="M80 497.6C80 497.6 88.34 499.23 93.3 495.12C96.07 492.84 94.8 489.22 94.8 489.22L80 497.6Z" fill="#6AE536" stroke="#263238" stroke-linecap="round" stroke-linejoin="round"/>
  <path d="M229 506.85C229 517.29 199.34 525.72 162.76 525.72C146 525.72 130.66 524 119 521C111 519 104.67 516.43 100.8 513.53C98.03 511.45 96.5 509.18 96.5 506.82C96.5 496.4 126.16 487.94 162.74 487.94C175.899 487.848 189.034 489.071 201.95 491.59C207.842 492.734 213.592 494.514 219.1 496.9C225.34 499.81 229 503.21 229 506.85Z" fill="#263238" stroke="#263238" stroke-linecap="round" stroke-linejoin="round"/>
  <path d="M145 507.54L100.8 513.54C104.65 516.46 111 519 119 521L148.61 508.11L145 507.54ZM202 491.62L179.95 498.93L179.58 501.29L219.15 496.93C213.62 494.539 207.846 492.759 201.93 491.62H202Z" fill="white" stroke="#263238" stroke-linecap="round" stroke-linejoin="round"/>
  <path d="M187.57 502.69C187.57 506.6 176.44 509.77 162.72 509.77C149 509.77 137.88 506.6 137.88 502.69C137.88 498.78 149 495.61 162.72 495.61C176.44 495.61 187.57 498.78 187.57 502.69Z" fill="white" stroke="#263238" stroke-linecap="round" stroke-linejoin="round"/>
  </g>
  </g>
  <defs>
  <clipPath id="clip0_405_894">
  <rect width="531" height="552" rx="30" fill="white"/>
  </clipPath>
  <clipPath id="clip1_405_894">
  <rect x="-130" y="93" width="750" height="464" rx="20" fill="white"/>
  </clipPath>
  </defs>
  </svg>